<svg width="100" height="100" viewBox="0 0 100 100" fill="none" xmlns="http://www.w3.org/2000/svg">
<path d="M76.5625 10.9375H4.6875V45.3125H76.5625V10.9375Z" fill="white"/>
<path d="M12.5 6.25C5.625 6.25 0 11.875 0 18.75V43.75C0 50.625 5.625 56.25 12.5 56.25H68.75V53.125C73.9062 53.125 78.125 48.9062 78.125 43.75V18.75H75C75 32.5 55.4688 43.75 31.25 43.75C17.5 43.75 6.25 39.5312 6.25 34.375V18.75C6.25 15.3125 9.0625 12.5 12.5 12.5H18.75V6.25H12.5Z" fill="#2F80ED"/>
<path d="M29.6875 25H25V18.75H29.6875C34.0625 18.75 37.5 22.1875 37.5 26.5625V29.6875C37.5 30.625 38.125 31.25 39.0625 31.25H42.1875C43.125 31.25 43.75 30.625 43.75 29.6875V25H50V29.6875C50 34.0625 46.5625 37.5 42.1875 37.5H39.0625C34.6875 37.5 31.25 34.0625 31.25 29.6875V26.5625C31.25 25.625 30.625 25 29.6875 25ZM71.7188 76.7188L78.5938 89.6875L91.0938 83.4375L84.2188 70.4688L98.125 65.625L59.375 34.375V84.8438L71.7188 76.7188ZM34.375 43.75C36.0938 43.75 37.5 42.3438 37.5 40.625C37.5 38.9063 36.0938 37.5 34.375 37.5C32.6563 37.5 31.25 38.9063 31.25 40.625C31.25 42.3438 32.6563 43.75 34.375 43.75ZM46.875 43.75C48.5938 43.75 50 42.3438 50 40.625C50 38.9063 48.5938 37.5 46.875 37.5C45.1563 37.5 43.75 38.9063 43.75 40.625C43.75 42.3438 45.1563 43.75 46.875 43.75Z" fill="#F2C94C"/>
<path d="M68.75 12.5H18.75V6.25H68.75C75.625 6.25 81.25 11.875 81.25 18.75V43.75C81.25 45.1562 81.0937 46.4062 80.625 47.5L100 63.125L99.0625 68.4375L88.5938 72.0312L95.3125 84.5312L80 92.1875L77.1875 86.5625L86.875 81.7187L79.6875 68.5938L91.7188 64.375L62.5 40.9375L56.25 42.1875V27.8125L75 42.9688V18.75C75 15.3125 72.1875 12.5 68.75 12.5Z" fill="#2F80ED"/>
<path fill-rule="evenodd" clip-rule="evenodd" d="M56.25 84.8437V35.9375L62.5 40.9375V79.0625L72.8125 72.1875L80 85.4688L86.875 82.0312L89.6875 87.6562L77.3438 93.75L70.625 81.25L61.0937 87.5L56.25 84.8437Z" fill="#BDBDBD"/>
</svg>
