<svg width="100" height="100" viewBox="0 0 100 100" fill="none" xmlns="http://www.w3.org/2000/svg">
<path d="M97.9688 1.5625H2.1875V10.625H97.9688V1.5625Z" fill="white"/>
<path d="M97.9688 5.3125H2.1875V10.625H97.9688V5.3125Z" fill="#F2C94C"/>
<path d="M99.375 12.0312H0.625V0H99.375V12.0312ZM3.59375 9.0625H96.25V2.96875H3.59375V9.0625Z" fill="#2F80ED"/>
<path d="M99.0625 63.125H0.9375V66.0937H99.0625V63.125Z" fill="#2F80ED"/>
<path d="M68.9063 85.4688H55.625V64.5312H45.3125V85.4688H31.0938H23.2812V92.6562V98.4375H31.0938V92.6562H45.3125V98.4375H55.625V92.6562H68.9063V98.4375H76.7187V92.6562V85.4688H68.9063Z" fill="#F2C94C"/>
<path d="M94.375 10.4688H5.625V64.5312H94.375V10.4688Z" fill="white"/>
<path d="M90.4688 14.8438H5.625V64.5312H90.4688V14.8438Z" fill="#EBECED"/>
<path d="M95.9375 66.0938H4.0625V9.0625H95.9375V66.0938ZM7.03125 63.125H92.8125V12.0312H7.03125V63.125Z" fill="#2F80ED"/>
<path d="M66.5625 35.625L53.5937 44.375C52.1875 42.1875 51.25 39.6875 51.0937 36.875C50.4687 28.2813 57.0312 20.9375 65.625 20.3125L66.5625 35.625Z" fill="white"/>
<path d="M65.625 35.4688L52.6563 44.0625C52.1875 43.4375 51.875 42.6562 51.5625 41.875L63.4375 34.0625L62.5 20.4688C63.2812 20.3125 64.0625 20.1562 64.8438 20.1562L65.625 35.4688Z" fill="#E28888"/>
<path d="M53.5938 45.7813C53.4375 45.7813 53.4375 45.7813 53.2812 45.7813C52.8125 45.625 52.5 45.4688 52.3438 45.1563C50.7813 42.6563 49.8438 39.8438 49.6875 37.0313C49.375 32.5 50.9375 28.125 53.9063 24.6875C56.875 21.25 61.0938 19.2188 65.625 18.9062C66.4063 18.9062 67.1875 19.5312 67.1875 20.3125L68.125 35.625C68.125 36.0937 67.9688 36.7188 67.5 37.0313L54.5313 45.7813C54.2188 45.7813 53.9063 45.7813 53.5938 45.7813ZM64.2188 22.0313C61.0938 22.5 58.2813 24.2187 56.0938 26.5625C53.5938 29.375 52.3438 32.9688 52.6563 36.7188C52.8125 38.5938 53.2812 40.4688 54.0625 42.0313L65 34.6875L64.2188 22.0313Z" fill="#2F80ED"/>
<path d="M72.9688 54.0625C67.1875 54.375 61.875 51.5625 58.9062 47.0312L71.875 38.2812L70.9375 22.9687C79.5313 22.3437 86.875 28.9062 87.3438 37.5C87.9688 46.25 81.5625 53.5937 72.9688 54.0625Z" fill="#F2C94C"/>
<path d="M72.0312 52.9688C67.6562 53.2813 63.5938 51.7188 60.4688 48.9063C63.125 50.4688 66.25 51.4063 69.5312 51.0938C78.125 50.625 84.5312 43.125 84.0625 34.5313C83.75 30.3125 81.875 26.7188 79.0625 24.0625C83.2812 26.5625 86.25 31.0937 86.5625 36.4063C87.0313 45.1563 80.4687 52.5 72.0312 52.9688Z" fill="#F2C94C"/>
<path d="M72.0312 55.625C66.25 55.625 60.7813 52.6563 57.6563 47.8125C57.1875 47.1875 57.3437 46.25 58.125 45.7812L70.4687 37.6562L69.5312 23.2813C69.5312 22.8125 69.6875 22.5 70 22.1875C70.3125 21.875 70.625 21.7188 71.0937 21.7188C75.625 21.4063 80 22.9688 83.2812 25.9375C86.7188 28.9063 88.75 33.125 89.0625 37.6562C89.375 42.1875 87.8125 46.5625 84.8438 50C81.875 53.4375 77.6562 55.4688 73.125 55.7812C72.6562 55.625 72.3437 55.625 72.0312 55.625ZM61.0937 47.5C63.9062 50.9375 68.2812 52.9688 72.8125 52.6563C80.4687 52.1875 86.4063 45.4688 85.9375 37.8125C85.7813 34.0625 84.0625 30.625 81.25 28.125C78.75 25.9375 75.7812 24.8438 72.6562 24.6875L73.5937 38.2812C73.5937 38.75 73.4375 39.375 72.9688 39.6875L61.0937 47.5Z" fill="#2F80ED"/>
<path d="M70.9375 24.6875C70.1563 24.6875 69.375 24.0625 69.375 23.125C69.375 22.3438 70 21.5625 70.9375 21.5625C71.875 21.5625 72.5 22.1875 72.5 23.125C72.5 23.9063 71.875 24.6875 70.9375 24.6875ZM58.9062 48.5937C58.125 48.5937 57.3437 47.9687 57.3437 47.0312C57.3437 46.25 57.9687 45.4687 58.9062 45.4687C59.8437 45.4687 60.4687 46.0937 60.4687 47.0312C60.4687 47.8125 59.6875 48.5937 58.9062 48.5937ZM34.0625 20.1562C34.375 20.1562 34.8437 20.1562 35 20.1562C35.3125 20.1562 35.4687 20.3125 35.625 20.3125C35.7812 20.4688 35.9375 20.625 35.9375 20.7813C35.9375 20.9375 36.0937 21.25 36.0937 21.4063C36.0937 21.7188 36.0937 21.875 35.9375 22.0313C35.9375 22.1875 35.7812 22.3437 35.625 22.5C35.4687 22.6562 35.3125 22.6563 35 22.6563C34.6875 22.6563 34.375 22.6563 34.0625 22.6563C33.5937 22.6563 33.2812 22.6563 33.125 22.6563C32.8125 22.6563 32.6562 22.5 32.5 22.5C32.3437 22.3437 32.1875 22.1875 32.1875 22.0313C32.1875 21.875 32.0312 21.5625 32.0312 21.4063C32.0312 21.0938 32.0312 20.9375 32.1875 20.7813C32.1875 20.625 32.3437 20.4688 32.5 20.3125C32.6562 20.1563 32.8125 20.1562 33.125 20.1562C33.2812 20.1562 33.5937 20.1562 34.0625 20.1562ZM30 20.4688C30.1562 20.4688 30.1562 20.4688 30.3125 20.4688L30.4687 20.625C30.4687 20.7813 30.625 20.7812 30.625 20.9375C30.625 21.0937 30.625 21.25 30.625 21.4063C30.625 21.5625 30.625 21.7188 30.625 21.875C30.625 22.0313 30.625 22.1875 30.4687 22.1875C30.4687 22.3438 30.3125 22.3438 30.3125 22.3438C30.3125 22.3438 30.1562 22.3438 30 22.3438L17.1875 22.8125C17.0312 22.8125 17.0312 22.8125 16.875 22.8125C16.7187 22.8125 16.7187 22.6563 16.7187 22.6563C16.7187 22.5 16.5625 22.3438 16.5625 22.1875C16.5625 22.0313 16.5625 21.875 16.5625 21.5625C16.5625 21.25 16.5625 21.0937 16.5625 20.9375C16.5625 20.7812 16.7187 20.625 16.7187 20.4688C16.7187 20.3125 16.875 20.3125 16.875 20.3125C17.0312 20.3125 17.0312 20.3125 17.1875 20.3125L30 20.4688ZM34.0625 27.5C34.375 27.5 34.8437 27.5 35 27.5C35.3125 27.5 35.4687 27.6563 35.625 27.6563C35.7812 27.8125 35.9375 27.9687 35.9375 28.125C35.9375 28.2812 36.0937 28.5937 36.0937 28.75C36.0937 29.0625 36.0937 29.2187 35.9375 29.375C35.9375 29.5312 35.7812 29.6875 35.625 29.8438C35.4687 30 35.3125 30 35 30C34.6875 30 34.375 30 34.0625 30C33.5937 30 33.2812 30 33.125 30C32.8125 30 32.6562 29.8438 32.5 29.8438C32.3437 29.6875 32.1875 29.5312 32.1875 29.375C32.1875 29.2187 32.0312 28.9062 32.0312 28.75C32.0312 28.4375 32.0312 28.2812 32.1875 28.125C32.1875 27.9687 32.3437 27.8125 32.5 27.6563C32.6562 27.5 32.8125 27.5 33.125 27.5C33.2812 27.6563 33.5937 27.5 34.0625 27.5ZM30 27.8125C30.1562 27.8125 30.1562 27.8125 30.3125 27.8125L30.4687 27.9687C30.4687 28.125 30.625 28.125 30.625 28.2813C30.625 28.4375 30.625 28.5937 30.625 28.75C30.625 28.9062 30.625 29.0625 30.625 29.2188C30.625 29.375 30.625 29.5312 30.4687 29.5312C30.4687 29.6875 30.3125 29.6875 30.3125 29.6875C30.3125 29.6875 30.1562 29.6875 30 29.6875L17.1875 30.3125C17.0312 30.3125 17.0312 30.3125 16.875 30.3125C16.7187 30.3125 16.7187 30.1562 16.7187 30.1562C16.7187 30 16.5625 29.8437 16.5625 29.6875C16.5625 29.5312 16.5625 29.375 16.5625 29.0625C16.5625 28.75 16.5625 28.5938 16.5625 28.4375C16.5625 28.2813 16.7187 28.125 16.7187 27.9687C16.7187 27.8125 16.875 27.8125 16.875 27.8125C17.0312 27.8125 17.0312 27.8125 17.1875 27.8125H30ZM34.0625 35C34.375 35 34.8437 35 35 35C35.3125 35 35.4687 35.1562 35.625 35.1562C35.7812 35.3125 35.9375 35.4687 35.9375 35.625C35.9375 35.7812 36.0937 36.0938 36.0937 36.25C36.0937 36.5625 36.0937 36.7187 35.9375 36.875C35.9375 37.0312 35.7812 37.1875 35.625 37.3437C35.4687 37.5 35.3125 37.5 35 37.5C34.6875 37.5 34.375 37.5 34.0625 37.5C33.5937 37.5 33.2812 37.5 33.125 37.5C32.8125 37.5 32.6562 37.3437 32.5 37.3437C32.3437 37.1875 32.1875 37.0312 32.1875 36.875C32.1875 36.7187 32.0312 36.4063 32.0312 36.25C32.0312 35.9375 32.0312 35.7812 32.1875 35.625C32.1875 35.4687 32.3437 35.3125 32.5 35.1562C32.6562 35 32.8125 35 33.125 35C33.2812 35 33.5937 35 34.0625 35ZM30 35.3125C30.1562 35.3125 30.1562 35.3125 30.3125 35.3125L30.4687 35.4688C30.4687 35.625 30.625 35.625 30.625 35.7812C30.625 35.9375 30.625 36.0938 30.625 36.25C30.625 36.4063 30.625 36.5625 30.625 36.7187C30.625 36.875 30.625 37.0313 30.4687 37.0313C30.4687 37.1875 30.3125 37.1875 30.3125 37.1875C30.3125 37.1875 30.1562 37.1875 30 37.1875L17.1875 37.6562C17.0312 37.6562 17.0312 37.6562 16.875 37.6562C16.7187 37.6562 16.7187 37.5 16.7187 37.5C16.7187 37.3437 16.5625 37.1875 16.5625 37.0313C16.5625 36.875 16.5625 36.7187 16.5625 36.4062C16.5625 36.0937 16.5625 35.9375 16.5625 35.7812C16.5625 35.625 16.7187 35.4688 16.7187 35.3125C16.7187 35.1563 16.875 35.1562 16.875 35.1562C17.0312 35.1562 17.0312 35.1562 17.1875 35.1562L30 35.3125Z" fill="#2F80ED"/>
<path d="M41.0938 45.9375H11.5625V48.9062H41.0938V45.9375Z" fill="#2F80ED"/>
<path d="M53.2812 53.4375H11.5625V56.4062H53.2812V53.4375Z" fill="#2F80ED"/>
<path d="M74.0625 97.9687H75.3125V86.7187H54.2187V66.0938H52.9688V88.125H74.0625V97.9687Z" fill="white"/>
<path d="M54.375 95.7812H46.5625V97.5H54.375V95.7812Z" fill="white"/>
<path d="M76.7188 95.7812H68.9062V97.5H76.7188V95.7812Z" fill="white"/>
<path d="M31.0938 95.7812H23.2812V97.5H31.0938V95.7812Z" fill="white"/>
<path d="M78.2812 100H67.5V94.2187H57.1875V100H43.75V94.2187H32.5V100H21.7188V83.9062H43.75V63.125H57.0313V84.0625H78.125V100H78.2812ZM70.4688 97.0312H75.3125V87.0312H54.0625V66.0937H46.875V87.0312H24.8438V97.0312H29.6875V91.25H46.875V97.0312H54.0625V91.25H70.4688V97.0312Z" fill="#2F80ED"/>
</svg>
