<svg width="100" height="100" viewBox="0 0 100 100" fill="none" xmlns="http://www.w3.org/2000/svg">
<path d="M86.2296 95.5154H4.12877C2.66186 95.5154 1.5 94.3414 1.5 92.937V11.8369C1.5 10.4324 2.66186 9.25842 4.12877 9.25842H86.2296C87.6965 9.25842 88.8583 10.4324 88.8583 11.8369V92.937C88.8583 94.3414 87.6965 95.5154 86.2296 95.5154Z" fill="white" stroke="#2F80ED" stroke-width="3"/>
<path d="M90.3583 92.9526V95.9372C90.3583 98.1874 88.5233 100 86.2453 100H4.12873C1.85079 100 0.0157776 98.1874 0.0157776 95.9372V92.9526C0.0157776 95.2028 1.85079 97.0154 4.12873 97.0154H86.2295C88.5075 97.0154 90.3583 95.1871 90.3583 92.9526Z" fill="white"/>
<path d="M24.5037 74.5761H55.2559L90.3583 62.7002V23.9316L24.5037 74.5761Z" fill="#E9E9E9" fill-opacity="0.5"/>
<path d="M77.5291 27.4006H12.8134V31.3696H77.5291V27.4006Z" fill="#2F80ED"/>
<path d="M77.5291 42.7299H12.8134V46.699H77.5291V42.7299Z" fill="#2F80ED"/>
<path d="M77.5291 58.0592H12.8134V62.0283H77.5291V58.0592Z" fill="#2F80ED"/>
<path d="M77.5291 73.4042H12.8134V77.3732H77.5291V73.4042Z" fill="#2F80ED"/>
<path d="M50.0831 65.2317C49.8932 65.3567 49.7034 65.466 49.4978 65.5286C49.3554 65.6067 49.213 65.6536 49.0706 65.6848L32.2708 71.9197L27.1929 66.9037L33.4889 50.3086C33.5363 50.168 33.5838 50.0117 33.6471 49.8711C33.7262 49.6679 33.8369 49.4804 33.9635 49.2929L50.0831 65.2317Z" fill="#FCD66F"/>
<path d="M28.9172 68.6225L27.1771 66.9037L33.4731 50.3086C33.5205 50.168 33.568 50.0117 33.6313 49.8711C33.7104 49.6679 33.8211 49.4804 33.9476 49.2929L40.1329 53.762L28.9172 68.6225Z" fill="#FBD984"/>
<path d="M50.0831 65.2317C49.8932 65.3567 49.7034 65.466 49.4977 65.5286C49.3554 65.6067 49.213 65.6536 49.0706 65.6848L32.2708 71.9197L30.5307 70.2008L45.5746 59.1062L50.0831 65.2317Z" fill="#E6AC43"/>
<path d="M45.5588 59.1218L30.5307 70.2164L24.5037 74.5761L28.9172 68.6225L40.1487 53.7776L45.5588 59.1218Z" fill="#FCD66F"/>
<path d="M24.5037 74.5761L32.255 71.9353L27.1771 66.9193L24.5037 74.5761Z" fill="#2E435A"/>
<path d="M88.0171 27.9006L50.7316 64.7316C50.526 64.9348 50.3203 65.1066 50.0989 65.2317C49.909 65.3567 49.7192 65.466 49.5136 65.5286C49.3712 65.6067 49.2288 65.6536 49.0864 65.6848C47.7893 66.0442 46.3498 65.7317 45.3215 64.716C44.2142 63.6222 43.9294 62.0439 44.4515 60.6844C44.5306 60.4344 44.6571 60.2 44.8153 59.9812C44.9577 59.7625 45.1159 59.5437 45.3215 59.3562L82.607 22.5252L88.0171 27.9006Z" fill="#8D8D8D"/>
<path d="M39.8798 54.0277L77.1811 17.181L82.607 22.5408L45.3057 59.3874C43.8029 60.8719 41.3826 60.8719 39.8798 59.3874C38.3928 57.903 38.3928 55.5122 39.8798 54.0277Z" fill="#BDBDBD"/>
<path d="M77.181 17.181L39.8797 54.0277C39.6741 54.2308 39.4685 54.4027 39.247 54.5277C37.76 55.4809 35.7668 55.309 34.4696 54.0277C33.4572 53.0276 33.125 51.6056 33.4889 50.3242C33.5363 50.1836 33.5838 50.0273 33.647 49.8867C33.7261 49.6836 33.8369 49.4961 33.9634 49.3085C34.09 49.0741 34.264 48.871 34.4696 48.6835L71.7551 11.8369L77.181 17.181Z" fill="#C4C4C4"/>
<path d="M77.4183 17.431L39.0097 55.3715C39.1995 54.8871 39.4843 54.4183 39.8798 54.0277L77.181 17.181L77.4183 17.431Z" fill="#687D87"/>
<path d="M44.4514 60.7001L82.8442 22.7752L82.607 22.5408L45.3057 59.3875L44.4514 60.7001Z" fill="#BDBDBD"/>
<path d="M87.5349 18.1383L82.837 22.7791L88.0161 27.8949L92.714 23.2541L87.5349 18.1383Z" fill="#2F80ED"/>
<path d="M82.118 12.7969L77.4201 17.4377L82.5992 22.5535L87.2971 17.9127L82.118 12.7969Z" fill="#E5E5E5"/>
<path d="M76.4511 7.18574L71.7531 11.8266L77.1783 17.1854L81.8762 12.5446L76.4511 7.18574Z" fill="#EFF3F5"/>
<path d="M81.8749 12.5487L77.177 17.1896L77.4231 17.4326L82.121 12.7918L81.8749 12.5487Z" fill="#2F80ED"/>
<path d="M87.3046 17.9018L82.6067 22.5426L82.8416 22.7747L87.5395 18.1338L87.3046 17.9018Z" fill="#2F80ED"/>
<path d="M99.3119 16.7435L92.7153 23.2596L87.5267 18.1342L95.7842 9.97734L99.3119 13.462C100.229 14.3683 100.229 15.8372 99.3119 16.7435Z" fill="#A72A45"/>
<path d="M90.3702 4.65128L82.1152 12.8059L87.2943 17.9217L95.5493 9.76706L90.3702 4.65128Z" fill="#D1395D"/>
<path d="M90.3741 4.63317L82.1166 12.7901L76.4534 7.19588L83.0499 0.679741C83.9674 -0.22658 85.4386 -0.22658 86.3719 0.679741L90.3741 4.63317Z" fill="#DF4666"/>
<path d="M95.5477 9.74424L87.2928 17.8988L87.5277 18.1309L95.7826 9.97628L95.5477 9.74424Z" fill="#DF4666"/>
<path d="M90.1185 4.39226L81.8636 12.5469L82.1097 12.79L90.3646 4.63534L90.1185 4.39226Z" fill="#A72A45"/>
<path d="M95.5477 9.74424L87.2928 17.8988L87.5277 18.1309L95.7826 9.97628L95.5477 9.74424Z" fill="#621A21"/>
<path d="M85.9018 19.7515L84.4589 21.1769L89.638 26.2927L91.0809 24.8673L85.9018 19.7515Z" fill="white"/>
<path d="M80.4975 14.4024L79.0546 15.8278L84.2337 20.9436L85.6766 19.5182L80.4975 14.4024Z" fill="#D3D3D3"/>
<path d="M74.815 8.79502L73.3721 10.2204L78.7973 15.5793L80.2402 14.1539L74.815 8.79502Z" fill="#2F80ED"/>
<path d="M80.2423 14.1631L78.7994 15.5885L79.0455 15.8316L80.4884 14.4062L80.2423 14.1631Z" fill="#2F80ED"/>
<path d="M85.6715 19.5151L84.2286 20.9405L84.4635 21.1725L85.9064 19.7471L85.6715 19.5151Z" fill="#2F80ED"/>
<path d="M81.8749 12.5487L77.177 17.1896L77.4231 17.4326L82.121 12.7918L81.8749 12.5487Z" fill="white"/>
<path d="M87.3046 17.9018L82.6067 22.5426L82.8416 22.7747L87.5395 18.1338L87.3046 17.9018Z" fill="#2F80ED"/>
</svg>
