<svg width="100" height="100" viewBox="0 0 100 100" fill="none" xmlns="http://www.w3.org/2000/svg">
<g clip-path="url(#clip0_2_325)">
<path d="M72.7539 96.0352H12.0117C11.1208 96.0352 10.2663 95.6812 9.63628 95.0512C9.00628 94.4212 8.65234 93.5667 8.65234 92.6758V7.32422C8.65234 6.43326 9.00628 5.57879 9.63628 4.94878C10.2663 4.31878 11.1208 3.96484 12.0117 3.96484H59.0231L76.1133 21.0551V92.6758C76.1133 93.5667 75.7593 94.4212 75.1293 95.0512C74.4993 95.6812 73.6449 96.0352 72.7539 96.0352Z" fill="white" stroke="#2F80ED" stroke-width="5"/>
<path d="M23.7305 16.8945H17.8711C16.2531 16.8945 14.9414 18.2062 14.9414 19.8242V25.6836C14.9414 27.3016 16.2531 28.6133 17.8711 28.6133H23.7305C25.3485 28.6133 26.6602 27.3016 26.6602 25.6836V19.8242C26.6602 18.2062 25.3485 16.8945 23.7305 16.8945Z" fill="#2F80ED"/>
<path d="M23.7305 16.8945H19.8242C20.6012 16.8945 21.3464 17.2032 21.8958 17.7526C22.4452 18.302 22.7539 19.0472 22.7539 19.8242V25.6836C22.7539 26.4606 22.4452 27.2058 21.8958 27.7552C21.3464 28.3046 20.6012 28.6133 19.8242 28.6133H23.7305C24.5075 28.6133 25.2526 28.3046 25.8021 27.7552C26.3515 27.2058 26.6602 26.4606 26.6602 25.6836V19.8242C26.6602 19.0472 26.3515 18.302 25.8021 17.7526C25.2526 17.2032 24.5075 16.8945 23.7305 16.8945Z" fill="#2F80ED"/>
<path d="M23.7305 37.4023H17.8711C16.2531 37.4023 14.9414 38.714 14.9414 40.332V46.1914C14.9414 47.8094 16.2531 49.1211 17.8711 49.1211H23.7305C25.3485 49.1211 26.6602 47.8094 26.6602 46.1914V40.332C26.6602 38.714 25.3485 37.4023 23.7305 37.4023Z" fill="#2F80ED"/>
<path d="M23.7305 57.9102H17.8711C16.2531 57.9102 14.9414 59.2218 14.9414 60.8398V66.6992C14.9414 68.3172 16.2531 69.6289 17.8711 69.6289H23.7305C25.3485 69.6289 26.6602 68.3172 26.6602 66.6992V60.8398C26.6602 59.2218 25.3485 57.9102 23.7305 57.9102Z" fill="#2F80ED"/>
<path d="M23.7305 37.4023H19.8242C20.6012 37.4023 21.3464 37.711 21.8958 38.2604C22.4452 38.8099 22.7539 39.555 22.7539 40.332V46.1914C22.7539 46.9684 22.4452 47.7136 21.8958 48.263C21.3464 48.8124 20.6012 49.1211 19.8242 49.1211H23.7305C24.5075 49.1211 25.2526 48.8124 25.8021 48.263C26.3515 47.7136 26.6602 46.9684 26.6602 46.1914V40.332C26.6602 39.555 26.3515 38.8099 25.8021 38.2604C25.2526 37.711 24.5075 37.4023 23.7305 37.4023Z" fill="#2F80ED"/>
<path d="M23.7305 78.418H17.8711C16.2531 78.418 14.9414 79.7296 14.9414 81.3477V87.207C14.9414 88.8251 16.2531 90.1367 17.8711 90.1367H23.7305C25.3485 90.1367 26.6602 88.8251 26.6602 87.207V81.3477C26.6602 79.7296 25.3485 78.418 23.7305 78.418Z" fill="#2F80ED"/>
<path d="M23.7305 57.9102H19.8242C20.6012 57.9102 21.3464 58.2188 21.8958 58.7682C22.4452 59.3177 22.7539 60.0628 22.7539 60.8398V66.6992C22.7539 67.4762 22.4452 68.2214 21.8958 68.7708C21.3464 69.3202 20.6012 69.6289 19.8242 69.6289H23.7305C24.5075 69.6289 25.2526 69.3202 25.8021 68.7708C26.3515 68.2214 26.6602 67.4762 26.6602 66.6992V60.8398C26.6602 60.0628 26.3515 59.3177 25.8021 58.7682C25.2526 58.2188 24.5075 57.9102 23.7305 57.9102ZM23.7305 78.418H19.8242C20.6012 78.418 21.3464 78.7266 21.8958 79.2761C22.4452 79.8255 22.7539 80.5707 22.7539 81.3477V87.207C22.7539 87.984 22.4452 88.7292 21.8958 89.2786C21.3464 89.8281 20.6012 90.1367 19.8242 90.1367H23.7305C24.5075 90.1367 25.2526 89.8281 25.8021 89.2786C26.3515 88.7292 26.6602 87.984 26.6602 87.207V81.3477C26.6602 80.5707 26.3515 79.8255 25.8021 79.2761C25.2526 78.7266 24.5075 78.418 23.7305 78.418Z" fill="#2F80ED"/>
<path d="M68.8516 21.4844H32.5234C32.1349 21.4844 31.7623 21.33 31.4876 21.0553C31.2129 20.7806 31.0586 20.408 31.0586 20.0195C31.0586 19.631 31.2129 19.2584 31.4876 18.9837C31.7623 18.709 32.1349 18.5547 32.5234 18.5547H68.8516C69.2401 18.5547 69.6126 18.709 69.8874 18.9837C70.1621 19.2584 70.3164 19.631 70.3164 20.0195C70.3164 20.408 70.1621 20.7806 69.8874 21.0553C69.6126 21.33 69.2401 21.4844 68.8516 21.4844ZM57.1328 27.1484H32.5234C32.1349 27.1484 31.7623 26.9941 31.4876 26.7194C31.2129 26.4447 31.0586 26.0721 31.0586 25.6836C31.0586 25.2951 31.2129 24.9225 31.4876 24.6478C31.7623 24.3731 32.1349 24.2188 32.5234 24.2188H57.1328C57.5213 24.2188 57.8939 24.3731 58.1686 24.6478C58.4433 24.9225 58.5976 25.2951 58.5976 25.6836C58.5976 26.0721 58.4433 26.4447 58.1686 26.7194C57.8939 26.9941 57.5213 27.1484 57.1328 27.1484Z" fill="#F2C94C"/>
<path d="M78.6133 22.9492H65.918C64.364 22.9492 62.8736 22.3319 61.7748 21.233C60.6759 20.1342 60.0586 18.6438 60.0586 17.0898V4.39453L78.6133 20.0195V22.9492Z" fill="#DADADC"/>
<path d="M78.6133 20.0195H65.918C64.364 20.0195 62.8736 19.4022 61.7748 18.3034C60.6759 17.2045 60.0586 15.7142 60.0586 14.1602V1.46484" fill="#2F88FF"/>
<path d="M68.8516 41.7969H32.5234C32.1349 41.7969 31.7623 41.6425 31.4876 41.3678C31.2129 41.0931 31.0586 40.7205 31.0586 40.332C31.0586 39.9435 31.2129 39.5709 31.4876 39.2962C31.7623 39.0215 32.1349 38.8672 32.5234 38.8672H68.8516C69.2401 38.8672 69.6127 39.0215 69.8874 39.2962C70.1621 39.5709 70.3164 39.9435 70.3164 40.332C70.3164 40.7205 70.1621 41.0931 69.8874 41.3678C69.6127 41.6425 69.2401 41.7969 68.8516 41.7969ZM45.4141 47.6562H32.5234C32.1349 47.6562 31.7623 47.5019 31.4876 47.2272C31.2129 46.9525 31.0586 46.5799 31.0586 46.1914C31.0586 45.8029 31.2129 45.4303 31.4876 45.1556C31.7623 44.8809 32.1349 44.7266 32.5234 44.7266H45.4141C45.8026 44.7266 46.1752 44.8809 46.4499 45.1556C46.7246 45.4303 46.8789 45.8029 46.8789 46.1914C46.8789 46.5799 46.7246 46.9525 46.4499 47.2272C46.1752 47.5019 45.8026 47.6562 45.4141 47.6562ZM62.9922 62.3047H32.5234C32.1349 62.3047 31.7623 62.1504 31.4876 61.8756C31.2129 61.6009 31.0586 61.2283 31.0586 60.8398C31.0586 60.4513 31.2129 60.0788 31.4876 59.804C31.7623 59.5293 32.1349 59.375 32.5234 59.375H62.9922C63.3807 59.375 63.7533 59.5293 64.028 59.804C64.3027 60.0788 64.457 60.4513 64.457 60.8398C64.457 61.2283 64.3027 61.6009 64.028 61.8756C63.7533 62.1504 63.3807 62.3047 62.9922 62.3047ZM54.2031 68.1641H32.5234C32.1349 68.1641 31.7623 68.0097 31.4876 67.735C31.2129 67.4603 31.0586 67.0877 31.0586 66.6992C31.0586 66.3107 31.2129 65.9381 31.4876 65.6634C31.7623 65.3887 32.1349 65.2344 32.5234 65.2344H54.2031C54.5916 65.2344 54.9642 65.3887 55.2389 65.6634C55.5136 65.9381 55.668 66.3107 55.668 66.6992C55.668 67.0877 55.5136 67.4603 55.2389 67.735C54.9642 68.0097 54.5916 68.1641 54.2031 68.1641ZM50.4277 82.8125H32.5195C32.131 82.8125 31.7584 82.6582 31.4837 82.3835C31.209 82.1087 31.0547 81.7362 31.0547 81.3477C31.0547 80.9592 31.209 80.5866 31.4837 80.3119C31.7584 80.0371 32.131 79.8828 32.5195 79.8828H50.4277C50.8162 79.8828 51.1888 80.0371 51.4635 80.3119C51.7382 80.5866 51.8926 80.9592 51.8926 81.3477C51.8926 81.7362 51.7382 82.1087 51.4635 82.3835C51.1888 82.6582 50.8162 82.8125 50.4277 82.8125ZM50.5059 88.6719H32.5195C32.131 88.6719 31.7584 88.5175 31.4837 88.2428C31.209 87.9681 31.0547 87.5955 31.0547 87.207C31.0547 86.8185 31.209 86.4459 31.4837 86.1712C31.7584 85.8965 32.131 85.7422 32.5195 85.7422H50.5059C50.8944 85.7422 51.267 85.8965 51.5417 86.1712C51.8164 86.4459 51.9707 86.8185 51.9707 87.207C51.9707 87.5955 51.8164 87.9681 51.5417 88.2428C51.267 88.5175 50.8944 88.6719 50.5059 88.6719V88.6719Z" fill="#F2C94C"/>
<path d="M76.4277 98.5351C72.3981 98.5347 68.4933 97.137 65.3786 94.5803C62.2638 92.0236 60.132 88.466 59.3462 84.5137C58.5604 80.5615 59.1693 76.459 61.0691 72.9053C62.9689 69.3516 66.0422 66.5665 69.7652 65.0247C73.4882 63.4828 77.6306 63.2795 81.4867 64.4495C85.3428 65.6194 88.6739 68.0901 90.9126 71.4407C93.1512 74.7914 94.1589 78.8145 93.7638 82.8248C93.3688 86.835 91.5955 90.5842 88.7461 93.4336C87.1321 95.0562 85.2123 96.3425 83.0979 97.2182C80.9835 98.0939 78.7163 98.5415 76.4277 98.5351V98.5351Z" fill="#2F80ED"/>
<path d="M88.7461 68.7988C87.1323 67.1761 85.2125 65.8896 83.098 65.0139C80.9836 64.1382 78.7164 63.6907 76.4277 63.6973C75.446 63.6979 74.466 63.7809 73.498 63.9453C77.5524 64.6356 81.2317 66.7382 83.8846 69.8809C86.5374 73.0235 87.9927 77.0035 87.9927 81.1162C87.9927 85.2289 86.5374 89.2089 83.8846 92.3516C81.2317 95.4943 77.5524 97.5969 73.498 98.2871C74.4661 98.4506 75.446 98.5335 76.4277 98.5352C79.8728 98.535 83.2406 97.5133 86.1051 95.5993C88.9696 93.6853 91.2022 90.9649 92.5207 87.7821C93.8392 84.5993 94.1843 81.097 93.5125 77.718C92.8406 74.339 91.1819 71.2352 88.7461 68.7988V68.7988Z" fill="#2F80ED"/>
<path d="M76.4277 100C72.0586 100 67.8247 98.4851 64.4473 95.7134C61.07 92.9417 58.7582 89.0847 57.9058 84.7995C57.0534 80.5144 57.7132 76.0663 59.7728 72.2131C61.8323 68.3599 65.1642 65.34 69.2007 63.668C73.2373 61.996 77.7286 61.7754 81.9096 63.0436C86.0906 64.3119 89.7024 66.9906 92.1298 70.6234C94.5571 74.2561 95.6498 78.6182 95.2215 82.9662C94.7933 87.3143 92.8707 91.3793 89.7813 94.4688C88.0318 96.2279 85.9507 97.6226 83.6586 98.5721C81.3664 99.5215 78.9087 100.007 76.4277 100ZM76.4277 65.1621C72.7364 65.1622 69.1593 66.4423 66.306 68.7842C63.4526 71.1261 61.4996 74.3849 60.7796 78.0054C60.0597 81.6258 60.6174 85.3839 62.3577 88.6393C64.098 91.8946 66.9132 94.4458 70.3236 95.8582C73.7341 97.2706 77.5288 97.4567 81.0611 96.3849C84.5934 95.313 87.6448 93.0496 89.6953 89.9801C91.7458 86.9107 92.6686 83.2252 92.3064 79.5517C91.9442 75.8782 90.3195 72.4439 87.709 69.834C86.2308 68.3481 84.4727 67.1702 82.5362 66.3682C80.5998 65.5663 78.5236 65.1564 76.4277 65.1621V65.1621Z" fill="#F2C94C"/>
<path d="M76.4277 89.9141C76.0392 89.9141 75.6666 89.7597 75.3919 89.485C75.1172 89.2103 74.9629 88.8377 74.9629 88.4492V73.7832C74.9629 73.3947 75.1172 73.0221 75.3919 72.7474C75.6666 72.4727 76.0392 72.3184 76.4277 72.3184C76.8162 72.3184 77.1888 72.4727 77.4635 72.7474C77.7382 73.0221 77.8926 73.3947 77.8926 73.7832V88.4492C77.8926 88.8377 77.7382 89.2103 77.4635 89.485C77.1888 89.7597 76.8162 89.9141 76.4277 89.9141Z" fill="white"/>
<path d="M76.4277 89.9141C76.2354 89.9141 76.0449 89.8762 75.8673 89.8025C75.6897 89.7287 75.5283 89.6206 75.3926 89.4844L70.7051 84.7969C70.5651 84.6618 70.4534 84.5002 70.3766 84.3216C70.2997 84.1429 70.2592 83.9507 70.2574 83.7562C70.2557 83.5617 70.2926 83.3688 70.3662 83.1887C70.4398 83.0087 70.5485 82.8451 70.6859 82.7075C70.8234 82.5699 70.9869 82.461 71.1669 82.3873C71.3469 82.3135 71.5398 82.2764 71.7343 82.278C71.9288 82.2796 72.121 82.3199 72.2998 82.3966C72.4785 82.4733 72.6402 82.5848 72.7754 82.7246L76.4355 86.3848L80.0957 82.7246C80.3705 82.4498 80.7432 82.2954 81.1318 82.2954C81.5205 82.2954 81.8932 82.4498 82.168 82.7246C82.4428 82.9994 82.5971 83.3721 82.5971 83.7608C82.5971 84.1494 82.4428 84.5221 82.168 84.7969L77.4805 89.4844C77.3424 89.6224 77.1781 89.7315 76.9974 89.8052C76.8166 89.879 76.623 89.916 76.4277 89.9141V89.9141Z" fill="white"/>
</g>
<defs>
<clipPath id="clip0_2_325">
<rect width="100" height="100" fill="white"/>
</clipPath>
</defs>
</svg>
