<svg width="105" height="102" viewBox="0 0 105 102" fill="none" xmlns="http://www.w3.org/2000/svg">
<path d="M90.4571 36.3659H14.926V94.8659C14.926 96.758 15.624 98.5725 16.8665 99.9105C18.1091 101.248 19.7943 102 21.5515 102H90.4571C92.2143 102 93.8996 101.248 95.1421 99.9105C96.3846 98.5725 97.0827 96.758 97.0827 94.8659V43.5001C97.0827 41.608 96.3846 39.7934 95.1421 38.4555C93.8996 37.1176 92.2143 36.3659 90.4571 36.3659Z" fill="#F2C94C"/>
<path d="M82.5065 23.5245H5.65022C4.18654 23.5245 3 24.8021 3 26.3781V86.3049C3 87.8809 4.18654 89.1585 5.65022 89.1585H82.5065C83.9702 89.1585 85.1567 87.8809 85.1567 86.3049V26.3781C85.1567 24.8021 83.9702 23.5245 82.5065 23.5245Z" stroke="#2F80ED" stroke-width="5" stroke-miterlimit="10"/>
<path d="M3 72.165L31.9006 41.0459L62.8286 74.3481L73.9728 62.3627L82.9703 72.0509" stroke="#2F80ED" stroke-width="2" stroke-miterlimit="10"/>
<path d="M18.7953 23.5245L22.2141 4.31937C22.2792 3.95114 22.4112 3.60034 22.6023 3.28703C22.7934 2.97371 23.04 2.70401 23.3279 2.49333C23.6159 2.28265 23.9396 2.13513 24.2805 2.05918C24.6214 1.98323 24.9729 1.98036 25.3148 2.05071L100.846 17.6031C101.188 17.6733 101.514 17.8154 101.805 18.0212C102.096 18.227 102.346 18.4925 102.542 18.8025C102.738 19.1126 102.875 19.4611 102.945 19.8282C103.016 20.1953 103.018 20.5737 102.953 20.9419L92.4448 79.77C92.3796 80.1383 92.2477 80.489 92.0566 80.8024C91.8655 81.1157 91.6189 81.3854 91.3309 81.5961C91.043 81.8067 90.7193 81.9543 90.3784 82.0302C90.0375 82.1062 89.686 82.109 89.3441 82.0387L85.1567 81.1969" stroke="#2F80ED" stroke-width="3" stroke-miterlimit="10"/>
</svg>
