<svg width="100" height="100" viewBox="0 0 100 100" fill="none" xmlns="http://www.w3.org/2000/svg">
<g clip-path="url(#clip0_2_34)">
<path d="M26.5625 22.9375H26.0625V23.4375V29.1875H17.6875V23.4375V14.5625H26.5625H45.3125H54.6875H73.4375H82.3125V23.4375V29.1875H73.9375V23.4375V22.9375H73.4375H54.6875H54.1875V23.4375V76.5625V77.0625H54.6875H66.6875V85.4375H54.6875H45.3125H33.3125V77.0625H45.3125H45.8125V76.5625V23.4375V22.9375H45.3125H26.5625Z" fill="#F2C94C" stroke="black"/>
<path d="M73.4375 31.25H82.8125C83.2269 31.25 83.6243 31.0854 83.9174 30.7924C84.2104 30.4993 84.375 30.1019 84.375 29.6875V14.0625C84.375 13.6481 84.2104 13.2507 83.9174 12.9576C83.6243 12.6646 83.2269 12.5 82.8125 12.5H17.1875C16.7731 12.5 16.3757 12.6646 16.0826 12.9576C15.7896 13.2507 15.625 13.6481 15.625 14.0625V29.6875C15.625 30.1019 15.7896 30.4993 16.0826 30.7924C16.3757 31.0854 16.7731 31.25 17.1875 31.25H26.5625C26.9769 31.25 27.3743 31.0854 27.6674 30.7924C27.9604 30.4993 28.125 30.1019 28.125 29.6875V25H43.75V75H32.8125C32.3981 75 32.0007 75.1646 31.7076 75.4576C31.4146 75.7507 31.25 76.1481 31.25 76.5625V85.9375C31.25 86.3519 31.4146 86.7493 31.7076 87.0424C32.0007 87.3354 32.3981 87.5 32.8125 87.5H67.1875C67.6019 87.5 67.9993 87.3354 68.2924 87.0424C68.5854 86.7493 68.75 86.3519 68.75 85.9375V76.5625C68.75 76.1481 68.5854 75.7507 68.2924 75.4576C67.9993 75.1646 67.6019 75 67.1875 75H56.25V25H71.875V29.6875C71.875 30.1019 72.0396 30.4993 72.3326 30.7924C72.6257 31.0854 73.0231 31.25 73.4375 31.25ZM54.6875 21.875C54.2731 21.875 53.8757 22.0396 53.5826 22.3326C53.2896 22.6257 53.125 23.0231 53.125 23.4375V76.5625C53.125 76.9769 53.2896 77.3743 53.5826 77.6674C53.8757 77.9604 54.2731 78.125 54.6875 78.125H65.625V84.375H34.375V78.125H45.3125C45.7269 78.125 46.1243 77.9604 46.4174 77.6674C46.7104 77.3743 46.875 76.9769 46.875 76.5625V23.4375C46.875 23.0231 46.7104 22.6257 46.4174 22.3326C46.1243 22.0396 45.7269 21.875 45.3125 21.875H26.5625C26.1481 21.875 25.7507 22.0396 25.4576 22.3326C25.1646 22.6257 25 23.0231 25 23.4375V28.125H18.75V15.625H81.25V28.125H75V23.4375C75 23.0231 74.8354 22.6257 74.5424 22.3326C74.2493 22.0396 73.8519 21.875 73.4375 21.875H54.6875ZM1.5625 37.9469C1.9769 37.9469 2.37433 37.7823 2.66735 37.4892C2.96038 37.1962 3.125 36.7988 3.125 36.3844V27.0094C3.125 26.595 2.96038 26.1975 2.66735 25.9045C2.37433 25.6115 1.9769 25.4469 1.5625 25.4469C1.1481 25.4469 0.750671 25.6115 0.457646 25.9045C0.16462 26.1975 0 26.595 0 27.0094L0 36.3844C0 36.7988 0.16462 37.1962 0.457646 37.4892C0.750671 37.7823 1.1481 37.9469 1.5625 37.9469ZM1.5625 56.6969C1.9769 56.6969 2.37433 56.5323 2.66735 56.2392C2.96038 55.9462 3.125 55.5488 3.125 55.1344V45.7594C3.125 45.345 2.96038 44.9475 2.66735 44.6545C2.37433 44.3615 1.9769 44.1969 1.5625 44.1969C1.1481 44.1969 0.750671 44.3615 0.457646 44.6545C0.16462 44.9475 0 45.345 0 45.7594L0 55.1344C0 55.5488 0.16462 55.9462 0.457646 56.2392C0.750671 56.5323 1.1481 56.6969 1.5625 56.6969ZM25.6719 3.125H35.0469C35.4613 3.125 35.8587 2.96038 36.1517 2.66735C36.4448 2.37433 36.6094 1.9769 36.6094 1.5625C36.6094 1.1481 36.4448 0.750671 36.1517 0.457646C35.8587 0.16462 35.4613 0 35.0469 0L25.6719 0C25.2575 0 24.86 0.16462 24.567 0.457646C24.274 0.750671 24.1094 1.1481 24.1094 1.5625C24.1094 1.9769 24.274 2.37433 24.567 2.66735C24.86 2.96038 25.2575 3.125 25.6719 3.125ZM1.5625 75.4469C1.9769 75.4469 2.37433 75.2823 2.66735 74.9892C2.96038 74.6962 3.125 74.2988 3.125 73.8844V64.5094C3.125 64.095 2.96038 63.6975 2.66735 63.4045C2.37433 63.1115 1.9769 62.9469 1.5625 62.9469C1.1481 62.9469 0.750671 63.1115 0.457646 63.4045C0.16462 63.6975 0 64.095 0 64.5094L0 73.8844C0 74.2988 0.16462 74.6962 0.457646 74.9892C0.750671 75.2823 1.1481 75.4469 1.5625 75.4469ZM1.5625 19.1969C1.9769 19.1969 2.37433 19.0323 2.66735 18.7392C2.96038 18.4462 3.125 18.0488 3.125 17.6344V8.25937C3.125 7.84497 2.96038 7.44755 2.66735 7.15452C2.37433 6.86149 1.9769 6.69687 1.5625 6.69687C1.1481 6.69687 0.750671 6.86149 0.457646 7.15452C0.16462 7.44755 0 7.84497 0 8.25937L0 17.6344C0 18.0488 0.16462 18.4462 0.457646 18.7392C0.750671 19.0323 1.1481 19.1969 1.5625 19.1969ZM1.5625 81.6969C1.1481 81.6969 0.750671 81.8615 0.457646 82.1545C0.16462 82.4475 0 82.845 0 83.2594L0 92.1562C0 92.3531 0 92.5437 0 92.7312C0.0246846 93.1286 0.20014 93.5016 0.490533 93.774C0.780926 94.0464 1.16435 94.1976 1.5625 94.1969H1.67188C2.08492 94.1688 2.46994 93.978 2.74239 93.6663C3.01484 93.3545 3.15245 92.9475 3.125 92.5344V83.2562C3.12417 82.8424 2.95919 82.4458 2.66625 82.1534C2.37332 81.8611 1.97636 81.6969 1.5625 81.6969ZM81.9219 3.125H91.2969C91.7113 3.125 92.1087 2.96038 92.4017 2.66735C92.6948 2.37433 92.8594 1.9769 92.8594 1.5625C92.8594 1.1481 92.6948 0.750671 92.4017 0.457646C92.1087 0.16462 91.7113 0 91.2969 0L81.9219 0C81.5075 0 81.11 0.16462 80.817 0.457646C80.524 0.750671 80.3594 1.1481 80.3594 1.5625C80.3594 1.9769 80.524 2.37433 80.817 2.66735C81.11 2.96038 81.5075 3.125 81.9219 3.125ZM44.4219 3.125H53.7969C54.2113 3.125 54.6087 2.96038 54.9017 2.66735C55.1948 2.37433 55.3594 1.9769 55.3594 1.5625C55.3594 1.1481 55.1948 0.750671 54.9017 0.457646C54.6087 0.16462 54.2113 0 53.7969 0L44.4219 0C44.0075 0 43.61 0.16462 43.317 0.457646C43.024 0.750671 42.8594 1.1481 42.8594 1.5625C42.8594 1.9769 43.024 2.37433 43.317 2.66735C43.61 2.96038 44.0075 3.125 44.4219 3.125ZM63.1719 3.125H72.5469C72.9613 3.125 73.3587 2.96038 73.6517 2.66735C73.9448 2.37433 74.1094 1.9769 74.1094 1.5625C74.1094 1.1481 73.9448 0.750671 73.6517 0.457646C73.3587 0.16462 72.9613 0 72.5469 0L63.1719 0C62.7575 0 62.36 0.16462 62.067 0.457646C61.774 0.750671 61.6094 1.1481 61.6094 1.5625C61.6094 1.9769 61.774 2.37433 62.067 2.66735C62.36 2.96038 62.7575 3.125 63.1719 3.125ZM99.825 6.15937C99.7384 5.75368 99.4942 5.399 99.146 5.17337C98.7979 4.94774 98.3744 4.86964 97.9688 4.95625C97.5631 5.04286 97.2084 5.28709 96.9827 5.6352C96.7571 5.98331 96.679 6.4068 96.7656 6.8125C96.8353 7.14135 96.872 7.47635 96.875 7.8125V15.85C96.875 16.2644 97.0396 16.6618 97.3326 16.9549C97.6257 17.2479 98.0231 17.4125 98.4375 17.4125C98.8519 17.4125 99.2493 17.2479 99.5424 16.9549C99.8354 16.6618 100 16.2644 100 15.85V7.8125C99.9968 7.25685 99.9371 6.70296 99.8219 6.15937H99.825ZM98.4406 79.9094C98.0262 79.9094 97.6288 80.074 97.3358 80.367C97.0427 80.66 96.8781 81.0575 96.8781 81.4719V90.8469C96.8781 91.2613 97.0427 91.6587 97.3358 91.9517C97.6288 92.2448 98.0262 92.4094 98.4406 92.4094C98.855 92.4094 99.2525 92.2448 99.5455 91.9517C99.8385 91.6587 100.003 91.2613 100.003 90.8469V81.4719C100.003 81.2667 99.9619 81.0636 99.883 80.8742C99.8041 80.6848 99.6887 80.5127 99.5433 80.3679C99.3979 80.2231 99.2254 80.1084 99.0357 80.0302C98.846 79.9521 98.6427 79.9121 98.4375 79.9125L98.4406 79.9094ZM98.4406 61.1594C98.0262 61.1594 97.6288 61.324 97.3358 61.617C97.0427 61.91 96.8781 62.3075 96.8781 62.7219V72.0969C96.8781 72.5113 97.0427 72.9087 97.3358 73.2017C97.6288 73.4948 98.0262 73.6594 98.4406 73.6594C98.855 73.6594 99.2525 73.4948 99.5455 73.2017C99.8385 72.9087 100.003 72.5113 100.003 72.0969V62.7219C100.003 62.5167 99.9619 62.3136 99.883 62.1242C99.8041 61.9348 99.6887 61.7627 99.5433 61.6179C99.3979 61.4731 99.2254 61.3584 99.0357 61.2802C98.846 61.2021 98.6427 61.1621 98.4375 61.1625L98.4406 61.1594ZM93.5094 96.6875C93.0802 96.8137 92.6349 96.8768 92.1875 96.875H82.8125C82.3981 96.875 82.0007 97.0396 81.7076 97.3326C81.4146 97.6257 81.25 98.0231 81.25 98.4375C81.25 98.8519 81.4146 99.2493 81.7076 99.5424C82.0007 99.8354 82.3981 100 82.8125 100H92.1875C92.9278 100 93.6643 99.8948 94.375 99.6875C94.7728 99.5711 95.1081 99.3013 95.3071 98.9377C95.506 98.5741 95.5524 98.1463 95.4359 97.7484C95.3195 97.3506 95.0498 97.0153 94.6861 96.8164C94.3225 96.6174 93.8947 96.5711 93.4969 96.6875H93.5094ZM98.4375 42.4125C98.0231 42.4125 97.6257 42.5771 97.3326 42.8701C97.0396 43.1632 96.875 43.5606 96.875 43.975V53.35C96.875 53.7644 97.0396 54.1618 97.3326 54.4549C97.6257 54.7479 98.0231 54.9125 98.4375 54.9125C98.8519 54.9125 99.2493 54.7479 99.5424 54.4549C99.8354 54.1618 100 53.7644 100 53.35V43.975C100 43.5606 99.8354 43.1632 99.5424 42.8701C99.2493 42.5771 98.8519 42.4125 98.4375 42.4125ZM98.4375 23.6625C98.0231 23.6625 97.6257 23.8271 97.3326 24.1201C97.0396 24.4132 96.875 24.8106 96.875 25.225V34.6C96.875 35.0144 97.0396 35.4118 97.3326 35.7049C97.6257 35.9979 98.0231 36.1625 98.4375 36.1625C98.8519 36.1625 99.2493 35.9979 99.5424 35.7049C99.8354 35.4118 100 35.0144 100 34.6V25.225C100 24.8106 99.8354 24.4132 99.5424 24.1201C99.2493 23.8271 98.8519 23.6625 98.4375 23.6625ZM17.1875 96.875H7.8125C7.3981 96.875 7.00067 97.0396 6.70765 97.3326C6.41462 97.6257 6.25 98.0231 6.25 98.4375C6.25 98.8519 6.41462 99.2493 6.70765 99.5424C7.00067 99.8354 7.3981 100 7.8125 100H17.1875C17.6019 100 17.9993 99.8354 18.2924 99.5424C18.5854 99.2493 18.75 98.8519 18.75 98.4375C18.75 98.0231 18.5854 97.6257 18.2924 97.3326C17.9993 97.0396 17.6019 96.875 17.1875 96.875ZM35.9375 96.875H26.5625C26.1481 96.875 25.7507 97.0396 25.4576 97.3326C25.1646 97.6257 25 98.0231 25 98.4375C25 98.8519 25.1646 99.2493 25.4576 99.5424C25.7507 99.8354 26.1481 100 26.5625 100H35.9375C36.3519 100 36.7493 99.8354 37.0424 99.5424C37.3354 99.2493 37.5 98.8519 37.5 98.4375C37.5 98.0231 37.3354 97.6257 37.0424 97.3326C36.7493 97.0396 36.3519 96.875 35.9375 96.875ZM7.14375 3.17188C7.35938 3.125 7.58125 3.15312 7.8125 3.125H16.2969C16.7113 3.125 17.1087 2.96038 17.4017 2.66735C17.6948 2.37433 17.8594 1.9769 17.8594 1.5625C17.8594 1.1481 17.6948 0.750671 17.4017 0.457646C17.1087 0.16462 16.7113 0 16.2969 0L7.8125 0C7.34687 0.04375 7.05937 0.025 6.69687 0.075C6.28804 0.135047 5.91964 0.354599 5.67229 0.68561C5.42494 1.01662 5.31878 1.43214 5.37704 1.84123C5.43531 2.25032 5.65325 2.61968 5.98318 2.86847C6.31311 3.11726 6.72816 3.22523 7.1375 3.16875L7.14375 3.17188ZM73.4375 96.875H64.0625C63.6481 96.875 63.2507 97.0396 62.9576 97.3326C62.6646 97.6257 62.5 98.0231 62.5 98.4375C62.5 98.8519 62.6646 99.2493 62.9576 99.5424C63.2507 99.8354 63.6481 100 64.0625 100H73.4375C73.8519 100 74.2493 99.8354 74.5424 99.5424C74.8354 99.2493 75 98.8519 75 98.4375C75 98.0231 74.8354 97.6257 74.5424 97.3326C74.2493 97.0396 73.8519 96.875 73.4375 96.875ZM54.6875 96.875H45.3125C44.8981 96.875 44.5007 97.0396 44.2076 97.3326C43.9146 97.6257 43.75 98.0231 43.75 98.4375C43.75 98.8519 43.9146 99.2493 44.2076 99.5424C44.5007 99.8354 44.8981 100 45.3125 100H54.6875C55.1019 100 55.4993 99.8354 55.7924 99.5424C56.0854 99.2493 56.25 98.8519 56.25 98.4375C56.25 98.0231 56.0854 97.6257 55.7924 97.3326C55.4993 97.0396 55.1019 96.875 54.6875 96.875Z" fill="#2F80ED"/>
</g>
<defs>
<clipPath id="clip0_2_34">
<rect width="100" height="100" fill="white"/>
</clipPath>
</defs>
</svg>
