<svg width="100" height="100" viewBox="0 0 100 100" fill="none" xmlns="http://www.w3.org/2000/svg">
<path d="M84.3115 75.0577C83.2923 72.8058 81.3308 72.0173 80.4269 71.7673L67.4846 63.5173C67.2923 63.3635 65.4654 62.0365 62.7923 62.0365C60.4654 62.0365 57.0038 63.075 53.8115 68.0558C52.7731 69.6904 51.6 69.8827 50.8115 69.8827C48.8115 69.8827 45.0615 68.4788 38.7154 61.8635L38.3115 61.4404C37.4462 60.5942 32.3885 54.5365 29.3115 50.7865C28.9269 50.2288 25.7538 45.1904 30.3692 41.4019C36.3692 36.4596 34.8115 31.0173 33.1962 28.9019L24.7538 16.4981C24.4654 16.1135 21.8885 12.6519 18.6385 12.6519C17.8308 12.6519 17.0423 12.8827 16.3308 13.2865C15.3308 13.7865 7.96539 17.6519 5.02308 26.0365C2.85 32.2865 3.67693 39.3442 7.50385 47.0558C18.7154 69.5558 50.3885 89.9212 51.7346 90.7865C51.8115 90.825 51.8885 90.8827 51.9846 90.9212C52.2731 91.0558 59.4846 94.2288 67.0423 94.2288C73.4846 94.2288 78.4077 91.8635 81.2731 87.3635C84.6 82.1519 85.6192 78.0173 84.3115 75.0558V75.0577ZM78.0423 85.2865C75.8692 88.6712 72.1769 90.3827 67.0423 90.3827C60.8308 90.3827 54.6192 87.8635 53.6769 87.4596C51.4654 86.0365 21.35 66.2096 10.9654 45.3442C7.61923 38.6135 6.83077 32.575 8.63846 27.3442C11.1769 20.0558 17.9846 16.7673 18.0615 16.7288C18.1192 16.6904 18.1962 16.6711 18.2538 16.6327C18.3885 16.5365 18.5038 16.4981 18.6385 16.4981C19.5231 16.4981 20.9462 17.8058 21.6 18.7096L30.0615 31.1327C30.4846 31.7096 32.35 34.7865 27.9269 38.4211C21.9846 43.325 24.1577 50.075 26.2346 53.0942C27.0615 54.0942 34.3308 62.9404 35.6 64.1904L35.9462 64.5365C41.8692 70.7096 46.7538 73.7288 50.8115 73.7288C53.3885 73.7288 55.5423 72.4788 57.0423 70.1327C58.2923 68.1904 60.3115 65.8827 62.7923 65.8827C64.1769 65.8827 65.1577 66.575 65.2731 66.6711L78.6192 75.1712C78.85 75.325 79.0808 75.4019 79.35 75.4596C79.35 75.4596 80.3692 75.6712 80.7923 76.6327C81.1385 77.4019 81.5615 79.7865 78.0423 85.2865V85.2865Z" fill="#2F80ED"/>
<path d="M78.0423 85.2865C75.8692 88.6712 72.1769 90.3827 67.0423 90.3827C60.8308 90.3827 54.6192 87.8635 53.6769 87.4596C51.4654 86.0365 21.35 66.2096 10.9654 45.3442C7.61923 38.6135 6.83077 32.575 8.63846 27.3442C11.1769 20.0558 17.9846 16.7673 18.0615 16.7288C18.1192 16.6904 18.1962 16.6712 18.2538 16.6327C18.3885 16.5365 18.5038 16.4981 18.6385 16.4981C19.5231 16.4981 20.9462 17.8058 21.6 18.7096L30.0615 31.1327C30.4846 31.7096 32.35 34.7865 27.9269 38.4212C21.9846 43.325 24.1577 50.075 26.2346 53.0942C27.0615 54.0942 34.3308 62.9404 35.6 64.1904L35.9462 64.5365C41.8692 70.7096 46.7539 73.7288 50.8115 73.7288C53.3885 73.7288 55.5423 72.4789 57.0423 70.1327C58.2923 68.1904 60.3115 65.8827 62.7923 65.8827C64.1769 65.8827 65.1577 66.575 65.2731 66.6712L78.6192 75.1712C78.85 75.325 79.0808 75.4019 79.35 75.4596C79.35 75.4596 80.3692 75.6712 80.7923 76.6327C81.1385 77.4019 81.5615 79.7865 78.0423 85.2865V85.2865Z" fill="white"/>
<path d="M83.8077 71.0596C83.4285 71.0592 83.0579 70.9466 82.7425 70.7361C82.427 70.5256 82.1809 70.2266 82.035 69.8765C81.8891 69.5265 81.8499 69.1412 81.9223 68.769C81.9948 68.3968 82.1757 68.0543 82.4423 67.7846C88.8058 61.3519 92.3115 52.8577 92.3115 43.8673C92.3115 24.9827 76.7346 9.6173 57.5885 9.6173C48.7192 9.6173 40.2769 12.9135 33.8192 18.8961C33.6351 19.0731 33.4175 19.2116 33.1793 19.3036C32.941 19.3956 32.6868 19.4392 32.4315 19.4319C32.1763 19.4246 31.925 19.3665 31.6924 19.261C31.4598 19.1555 31.2505 19.0047 31.0768 18.8175C30.9031 18.6303 30.7685 18.4103 30.6807 18.1705C30.593 17.9306 30.5538 17.6757 30.5657 17.4206C30.5775 17.1655 30.64 16.9152 30.7496 16.6845C30.8592 16.4538 31.0136 16.2473 31.2038 16.0769C38.3769 9.43269 47.7462 5.76923 57.5885 5.76923C78.8577 5.76923 96.1577 22.8596 96.1577 43.8654C96.1577 53.875 92.2577 63.3269 85.1769 70.4885C84.9981 70.6698 84.7849 70.8135 84.5498 70.9112C84.3146 71.009 84.0623 71.0588 83.8077 71.0577V71.0596Z" fill="#2F80ED"/>
<path d="M57.6885 18.7346C57.1821 18.7346 56.6961 18.5349 56.3361 18.1789C55.976 17.8228 55.7709 17.339 55.7654 16.8327L55.6654 7.71538C55.6603 7.20567 55.8577 6.71478 56.2143 6.35057C56.571 5.98637 57.0576 5.77865 57.5673 5.77307H57.5865C58.0926 5.77303 58.5783 5.97247 58.9383 6.32814C59.2983 6.68382 59.5035 7.16705 59.5096 7.67307L59.6115 16.7923C59.6167 17.302 59.4192 17.7929 59.0626 18.1571C58.706 18.5213 58.2193 18.729 57.7096 18.7346H57.6904H57.6885ZM84.7904 45.8923C84.5378 45.8936 84.2875 45.8451 84.0537 45.7496C83.8199 45.6541 83.6072 45.5135 83.4277 45.3358C83.2483 45.1582 83.1056 44.9469 83.0078 44.714C82.9099 44.4812 82.8589 44.2314 82.8577 43.9788C82.8564 43.7263 82.9049 43.476 83.0004 43.2422C83.0959 43.0084 83.2365 42.7957 83.4141 42.6162C83.5918 42.4367 83.8031 42.294 84.0359 42.1962C84.2688 42.0984 84.5186 42.0474 84.7712 42.0462L94.2135 41.9442H94.2346C94.7446 41.9417 95.2348 42.1418 95.5973 42.5007C95.9597 42.8595 96.1648 43.3477 96.1673 43.8577C96.1699 44.3677 95.9697 44.8579 95.6109 45.2203C95.252 45.5828 94.7639 45.7878 94.2538 45.7904L84.8115 45.8923H84.7904ZM40.5769 48.9231V47.0635L42.9885 44.7538C48.7904 39.3058 51.4115 36.4096 51.4462 33.0288C51.4462 30.7558 50.3269 28.6519 46.9365 28.6519C44.875 28.6519 43.1635 29.6846 42.1135 30.5461L41.1365 28.4096C42.9491 26.9253 45.2227 26.1201 47.5654 26.1327C52.4596 26.1327 54.5231 29.4442 54.5231 32.65C54.5231 36.7865 51.4827 40.1308 46.6923 44.6846L44.875 46.3385V46.4077H55.0808V48.925H40.5769V48.9231ZM70.9077 40.4423V26.5173H67.5808L57.4461 40.825V42.825H68.0038V48.9211H70.9077V42.825H74.0808V40.4404H70.9077V40.4423ZM68.0038 32.9596V40.4404H60.5615V40.3846L66.1192 32.75C66.7538 31.7308 67.3115 30.75 68.0038 29.4423H68.1192C68.0423 30.6154 68.0038 31.7885 68.0038 32.9615V32.9596Z" fill="#F2C94C"/>
</svg>
