<svg width="100" height="100" viewBox="0 0 100 100" fill="none" xmlns="http://www.w3.org/2000/svg">
<g clip-path="url(#clip0_2_2)">
<path fill-rule="evenodd" clip-rule="evenodd" d="M19.5225 49.0734L5.45823 49.34C4.701 49.3543 4.04436 48.966 3.69221 48.2955C3.34006 47.625 3.3928 46.8641 3.83459 46.2486L21.8578 21.1346C22.3301 20.4766 23.1106 20.1855 23.8985 20.3738L41.4682 24.5727L19.5225 49.0734Z" fill="white"/>
<path fill-rule="evenodd" clip-rule="evenodd" d="M23.9293 27.5566L8.33537 49.2855L5.45823 49.34C4.701 49.3543 4.04436 48.966 3.69221 48.2955C3.34006 47.625 3.3928 46.8641 3.83459 46.2486L21.8578 21.1346C22.3301 20.4766 23.1106 20.1855 23.8985 20.3738L41.4682 24.5727L37.0955 29.4545L36.2678 29.2566L25.9701 26.7957C25.1821 26.6074 24.4016 26.8984 23.9293 27.5566Z" fill="white"/>
<path fill-rule="evenodd" clip-rule="evenodd" d="M50.9268 80.4777L50.6602 94.5422C50.6459 95.2994 51.0342 95.9561 51.7047 96.3084C52.3752 96.6606 53.1361 96.6076 53.7516 96.166L78.8656 78.1428C79.5238 77.6703 79.8147 76.8898 79.6264 76.102L75.4276 58.5322L50.9268 80.4777Z" fill="white"/>
<path fill-rule="evenodd" clip-rule="evenodd" d="M72.4436 76.0711L50.7145 91.665L50.66 94.5422C50.6457 95.2994 51.034 95.9561 51.7045 96.3084C52.375 96.6606 53.136 96.6076 53.7514 96.166L78.8655 78.1428C79.5237 77.6703 79.8145 76.8898 79.6262 76.102L75.4274 58.5322L70.5455 62.9049L70.7434 63.7324L73.2043 74.0303C73.3928 74.8182 73.1018 75.5986 72.4436 76.0711Z" fill="white"/>
<path fill-rule="evenodd" clip-rule="evenodd" d="M25.9004 54.5191L45.4813 74.0998L36.4567 83.1244C35.6959 83.8851 34.4553 83.8851 33.6945 83.1244L16.8758 66.3057C16.1151 65.5449 16.1151 64.3043 16.8758 63.5436L25.9004 54.5191Z" fill="#F2C94C"/>
<path fill-rule="evenodd" clip-rule="evenodd" d="M35.6907 64.3094L45.4811 74.1L36.4565 83.1246C35.6957 83.8854 34.4551 83.8854 33.6944 83.1246L25.2848 74.715L35.6907 64.3094Z" fill="#E3BB41"/>
<path fill-rule="evenodd" clip-rule="evenodd" d="M19.5226 49.0734C23.6273 42.9426 28.5322 36.9439 34.1891 31.2871C54.3934 11.0828 78.9518 0.468753 98.3486 1.65137C99.5312 21.048 88.9174 45.6068 68.7131 65.8113C63.0562 71.4682 57.0576 76.373 50.9267 80.4777L19.5226 49.0734Z" fill="#ECEFF1"/>
<path fill-rule="evenodd" clip-rule="evenodd" d="M98.3486 1.65137C99.5312 21.0481 88.9174 45.6069 68.7131 65.8113C63.0562 71.4682 57.0576 76.3731 50.9268 80.4778L35.2246 64.7754L98.3486 1.65137Z" fill="white"/>
<path fill-rule="evenodd" clip-rule="evenodd" d="M25.4342 54.9852L45.0148 74.566L50.9266 80.4777C53.617 78.6766 56.2816 76.7213 58.9031 74.6158L58.8961 74.6072L25.385 41.0959C23.2793 43.7178 21.324 46.3828 19.5225 49.0734L25.4342 54.9852Z" fill="white"/>
<path fill-rule="evenodd" clip-rule="evenodd" d="M35.2244 64.7754L45.0151 74.566L50.9268 80.4777C53.6172 78.6766 56.2819 76.7213 58.9033 74.6158L58.8963 74.6072L42.1445 57.8555L35.2244 64.7754Z" fill="#FFDF7F"/>
<path d="M69.0565 39.499C73.7811 39.499 77.6111 35.669 77.6111 30.9443C77.6111 26.2197 73.7811 22.3896 69.0565 22.3896C64.3318 22.3896 60.5018 26.2197 60.5018 30.9443C60.5018 35.669 64.3318 39.499 69.0565 39.499Z" fill="#8AC9FE"/>
<path fill-rule="evenodd" clip-rule="evenodd" d="M75.1055 24.8951C78.4463 28.2359 78.4463 33.6525 75.1055 36.9934C71.7646 40.334 66.348 40.334 63.0072 36.9934L63.0068 36.993L75.1051 24.8947L75.1055 24.8951Z" fill="#60B7FF"/>
<path fill-rule="evenodd" clip-rule="evenodd" d="M26.3717 85.2289C26.9824 85.8405 26.9824 86.8285 26.3717 87.4401L20.5369 93.2739C20.232 93.5787 19.8322 93.7309 19.4322 93.7309C19.0324 93.7309 18.6326 93.5785 18.3266 93.2739C17.7166 92.6645 17.7166 91.6742 18.3266 91.0649L24.1621 85.2289C24.7733 84.6196 25.7617 84.6196 26.3717 85.2289ZM7.83126 82.1313C7.43145 82.1313 7.03145 81.9787 6.72657 81.6742C6.11661 81.0627 6.11661 80.0746 6.72657 79.4635L12.5613 73.6293C13.1721 73.0178 14.1617 73.0178 14.7717 73.6272C15.3816 74.2387 15.3816 75.2268 14.7717 75.8383L8.93614 81.6721C8.63087 81.9787 8.23106 82.1313 7.83126 82.1313ZM20.5721 81.6389C21.182 81.0278 21.182 80.0393 20.5721 79.4281C19.9611 78.819 18.9717 78.819 18.3617 79.4281L7.34845 90.4436C6.7377 91.0532 6.7377 92.0414 7.34845 92.6526C7.65235 92.9574 8.05235 93.1096 8.45216 93.1096C8.85294 93.1096 9.25274 92.9574 9.55782 92.6526L20.5721 81.6389ZM63.4277 25.3188C64.9801 23.7658 67.018 22.9906 69.057 22.9906C71.0942 22.9906 73.1328 23.7658 74.6834 25.3188C76.1852 26.8205 77.0135 28.8188 77.0135 30.9457C77.0135 33.0707 76.1852 35.069 74.6834 36.5725C71.5805 39.676 66.5317 39.676 63.4277 36.5725C61.926 35.069 61.0977 33.0707 61.0977 30.9457C61.0977 28.8188 61.926 26.8205 63.4277 25.3188ZM69.057 42.0237C71.8947 42.0237 74.7322 40.9418 76.8928 38.7813C78.9869 36.6879 80.1385 33.9045 80.1385 30.9455C80.1385 27.9848 78.9867 25.2014 76.8928 23.1074C72.5727 18.7875 65.5412 18.7875 61.2193 23.1074C59.1252 25.2014 57.9727 27.9846 57.9727 30.9455C57.9727 33.9045 59.1252 36.6879 61.2193 38.7813C63.3789 40.942 66.2184 42.0237 69.057 42.0237ZM78.1678 76.7211L52.207 95.3518L52.4733 81.3168C58.576 77.1662 64.408 72.3266 69.8178 66.9164C71.4705 65.2643 73.0682 63.5709 74.6113 61.8424L78.1678 76.7211ZM34.6092 82.7623L17.2379 65.3912L25.434 57.1959L42.8053 74.5668L34.6092 82.7623ZM25.5213 43.4438C24.1328 45.2287 22.8033 47.0412 21.5402 48.883L51.118 78.4612C52.9578 77.1975 54.7729 75.8676 56.5565 74.4789L25.5213 43.4438ZM23.2797 21.8323L38.1588 25.3891C36.4305 26.9319 34.7361 28.5317 33.0842 30.1821C27.6733 35.5922 22.8336 41.4264 18.6842 47.528L4.64884 47.7936L23.2797 21.8323ZM96.8539 3.1467C77.477 2.54885 54.0369 13.6487 35.2938 32.3932C32.5336 35.1528 29.9262 38.0258 27.4875 40.9905L59.0119 72.5123C61.9748 70.0748 64.8475 67.467 67.6078 64.7074C86.3518 45.9635 97.4526 22.5239 96.8539 3.1467ZM99.908 1.55647C99.8592 0.767797 99.2328 0.14143 98.4432 0.0926017C88.5059 -0.512672 77.2611 1.88538 65.9254 7.02737C57.3416 10.9225 48.8912 16.3207 41.0703 22.8717L22.985 18.5494C22.3688 18.403 21.7229 18.643 21.3525 19.1586L0.293171 48.5043C-0.05136 48.9848 -0.0956959 49.6178 0.178913 50.141C0.449812 50.6569 0.982234 50.9772 1.5627 50.9772C1.57188 50.9772 1.58204 50.9772 1.59219 50.9772L18.8871 50.6489L23.2246 54.9869L13.9231 64.2875C13.6301 64.5805 13.4652 64.977 13.4652 65.3912C13.4652 65.8051 13.6301 66.2035 13.9231 66.4965L33.5037 86.0764C33.8096 86.3834 34.2094 86.5358 34.6094 86.5358C35.0092 86.5358 35.409 86.3834 35.7141 86.0764L45.0156 76.7758L49.3522 81.1135L49.0242 98.4086C49.0131 99.0002 49.3356 99.5473 49.8588 99.8209C50.0873 99.9418 50.3369 100.001 50.5858 100.001C50.9072 100.001 51.226 99.903 51.4969 99.7076L80.8416 78.6471C81.3576 78.2778 81.5981 77.6332 81.4516 77.016L77.1287 58.9303C83.6801 51.11 89.0781 42.6586 92.9734 34.0746C98.1151 22.7389 100.514 11.4946 99.908 1.55647Z" fill="#2F80ED"/>
</g>
<defs>
<clipPath id="clip0_2_2">
<rect width="100" height="100" fill="white"/>
</clipPath>
</defs>
</svg>
