<svg width="100" height="100" viewBox="0 0 100 100" fill="none" xmlns="http://www.w3.org/2000/svg">
<path d="M87.5 6.25H12.5C9.04822 6.25 6.25 9.04822 6.25 12.5V87.5C6.25 90.9518 9.04822 93.75 12.5 93.75H87.5C90.9518 93.75 93.75 90.9518 93.75 87.5V12.5C93.75 9.04822 90.9518 6.25 87.5 6.25Z" fill="white"/>
<path d="M87.5 96.875H12.5C10.0136 96.875 7.62903 95.8873 5.87087 94.1291C4.11272 92.371 3.125 89.9864 3.125 87.5V12.5C3.125 10.0136 4.11272 7.62903 5.87087 5.87087C7.62903 4.11272 10.0136 3.125 12.5 3.125H87.5C89.9864 3.125 92.371 4.11272 94.1291 5.87087C95.8873 7.62903 96.875 10.0136 96.875 12.5V87.5C96.875 89.9864 95.8873 92.371 94.1291 94.1291C92.371 95.8873 89.9864 96.875 87.5 96.875V96.875ZM12.5 9.375C11.6712 9.375 10.8763 9.70424 10.2903 10.2903C9.70424 10.8763 9.375 11.6712 9.375 12.5V87.5C9.375 88.3288 9.70424 89.1237 10.2903 89.7097C10.8763 90.2958 11.6712 90.625 12.5 90.625H87.5C88.3288 90.625 89.1237 90.2958 89.7097 89.7097C90.2958 89.1237 90.625 88.3288 90.625 87.5V12.5C90.625 11.6712 90.2958 10.8763 89.7097 10.2903C89.1237 9.70424 88.3288 9.375 87.5 9.375H12.5Z" fill="#2F80ED"/>
<path d="M78.125 18.75H21.875C20.1491 18.75 18.75 20.1491 18.75 21.875V78.125C18.75 79.8509 20.1491 81.25 21.875 81.25H78.125C79.8509 81.25 81.25 79.8509 81.25 78.125V21.875C81.25 20.1491 79.8509 18.75 78.125 18.75Z" fill="white"/>
<path d="M78.125 84.375H21.875C20.2174 84.375 18.6277 83.7165 17.4556 82.5444C16.2835 81.3723 15.625 79.7826 15.625 78.125V21.875C15.625 20.2174 16.2835 18.6277 17.4556 17.4556C18.6277 16.2835 20.2174 15.625 21.875 15.625H78.125C79.7826 15.625 81.3723 16.2835 82.5444 17.4556C83.7165 18.6277 84.375 20.2174 84.375 21.875V78.125C84.375 79.7826 83.7165 81.3723 82.5444 82.5444C81.3723 83.7165 79.7826 84.375 78.125 84.375ZM21.875 21.875V78.125H78.125V21.875H21.875Z" fill="#2F80ED"/>
<path d="M18.75 75.625V78.125C18.75 78.9538 19.0792 79.7487 19.6653 80.3347C20.2513 80.9208 21.0462 81.25 21.875 81.25H46.5L30.875 56.25L18.75 75.625Z" fill="#F2C94C"/>
<path d="M46.5 84.375H21.875C20.2174 84.375 18.6277 83.7165 17.4556 82.5444C16.2835 81.3723 15.625 79.7826 15.625 78.125V75.625C15.6231 75.0399 15.7855 74.4661 16.0938 73.9687L28.125 54.5937C28.4068 54.1484 28.7967 53.7816 29.2584 53.5274C29.7201 53.2732 30.2386 53.1399 30.7656 53.1399C31.2927 53.1399 31.8111 53.2732 32.2728 53.5274C32.7345 53.7816 33.1244 54.1484 33.4062 54.5937L49.0312 79.5937C49.3055 80.0688 49.4499 80.6077 49.4499 81.1562C49.4499 81.7048 49.3055 82.2437 49.0312 82.7187C48.784 83.1865 48.4221 83.5839 47.9794 83.8736C47.5367 84.1632 47.0276 84.3358 46.5 84.375V84.375ZM21.875 76.5312V78.125H40.8437L30.875 62.1562L21.875 76.5312Z" fill="#2F80ED"/>
<path d="M80.8437 79.5937L61.8438 50L41.8125 81.25H78.125C78.685 81.2429 79.2328 81.0854 79.7111 80.794C80.1894 80.5027 80.5806 80.0881 80.8437 79.5937Z" fill="#F2C94C"/>
<path d="M78.125 84.375H41.8125C41.2503 84.3765 40.6982 84.2264 40.2142 83.9404C39.7302 83.6544 39.3323 83.2432 39.0625 82.75C38.7882 82.2749 38.6438 81.7361 38.6438 81.1875C38.6438 80.639 38.7882 80.1001 39.0625 79.625L59.125 48.375C59.4074 47.9349 59.7956 47.5727 60.2542 47.3216C60.7128 47.0704 61.2271 46.9384 61.75 46.9375C62.2729 46.9384 62.7872 47.0704 63.2458 47.3216C63.7044 47.5727 64.0927 47.9349 64.375 48.375L83.375 77.9688C83.6493 78.4438 83.7937 78.9827 83.7937 79.5313C83.7937 80.0798 83.6493 80.6187 83.375 81.0938C82.8602 82.0495 82.1054 82.8547 81.1848 83.4301C80.2643 84.0055 79.2097 84.3311 78.125 84.375ZM47.5313 78.125H76.1875L61.8438 55.7813L47.5313 78.125Z" fill="#2F80ED"/>
<path d="M43.75 41.1563C47.2018 41.1563 50 38.358 50 34.9063C50 31.4545 47.2018 28.6562 43.75 28.6562C40.2982 28.6562 37.5 31.4545 37.5 34.9063C37.5 38.358 40.2982 41.1563 43.75 41.1563Z" fill="white"/>
<path d="M43.75 44.2813C41.8958 44.2813 40.0832 43.7314 38.5415 42.7013C36.9998 41.6711 35.7982 40.207 35.0886 38.4939C34.3791 36.7809 34.1934 34.8959 34.5551 33.0773C34.9169 31.2587 35.8098 29.5882 37.1209 28.2771C38.432 26.966 40.1025 26.0731 41.921 25.7114C43.7396 25.3496 45.6246 25.5353 47.3377 26.2449C49.0507 26.9544 50.5149 28.1561 51.545 29.6978C52.5752 31.2395 53.125 33.052 53.125 34.9063C53.125 37.3927 52.1373 39.7772 50.3791 41.5354C48.621 43.2935 46.2364 44.2813 43.75 44.2813V44.2813ZM43.75 31.7812C43.1319 31.7812 42.5277 31.9645 42.0138 32.3079C41.4999 32.6513 41.0994 33.1393 40.8629 33.7104C40.6264 34.2814 40.5645 34.9097 40.685 35.5159C40.8056 36.1221 41.1033 36.6789 41.5403 37.116C41.9773 37.553 42.5342 37.8506 43.1403 37.9712C43.7465 38.0918 44.3749 38.0299 44.9459 37.7934C45.5169 37.5569 46.005 37.1563 46.3483 36.6424C46.6917 36.1285 46.875 35.5243 46.875 34.9063C46.875 34.0774 46.5458 33.2826 45.9597 32.6965C45.3737 32.1105 44.5788 31.7812 43.75 31.7812Z" fill="#2F80ED"/>
</svg>
