<svg width="100" height="100" viewBox="0 0 100 100" fill="none" xmlns="http://www.w3.org/2000/svg">
<path d="M39.4 41.8542L43.3417 45.4708C43.4171 45.3209 43.5109 45.181 43.6208 45.0542C43.6637 45.024 43.7082 44.9962 43.7542 44.9708C45.3393 43.2529 47.2952 41.9189 49.4731 41.0699C51.651 40.221 53.9937 39.8796 56.3233 40.0716C58.653 40.2636 60.9082 40.984 62.9177 42.178C64.9273 43.372 66.6383 45.0083 67.9208 46.9625L70.4875 45.075V28.3333H29.35V46.5L36.7667 41.6375C37.1681 41.3782 37.6439 41.2588 38.1202 41.298C38.5965 41.3372 39.0464 41.5327 39.4 41.8542V41.8542Z" fill="#FFE9A5"/>
<path d="M58.1667 70.6C57.1277 70.8153 56.0694 70.9242 55.0083 70.925C52.4353 70.9191 49.9046 70.2693 47.6471 69.0348C45.3895 67.8003 43.4768 66.0204 42.0833 63.8573C40.6899 61.6943 39.86 59.2168 39.6693 56.6508C39.4786 54.0848 39.9332 51.512 40.9917 49.1667L37.725 46.1667L29.35 51.6542V71.7958C29.3489 72.6145 29.2666 73.431 29.1042 74.2333C29.0542 74.4917 28.9583 74.7333 28.8917 74.9917C28.765 75.5061 28.6078 76.0126 28.4208 76.5083C28.3042 76.7958 28.15 77.0583 28.0042 77.3417C27.8035 77.771 27.5781 78.1884 27.3292 78.5917C27.1542 78.8667 26.95 79.1208 26.7542 79.3792C26.5583 79.6375 26.4167 79.8833 26.2167 80.1083H70.5V68.2042L66.5958 65.6375C64.4046 68.1692 61.4436 69.9124 58.1667 70.6V70.6Z" fill="#E0E0E0"/>
<path d="M24.3292 24.8583C23.5605 23.147 22.2401 21.743 20.5792 20.8708C18.15 20.9167 11.7 21.4792 11.7 26.1292V60.2958C11.8208 60.2417 11.9417 60.1875 12.0625 60.1417C12.5589 59.9515 13.0669 59.7928 13.5833 59.6667C13.8375 59.6 14.0792 59.5042 14.3375 59.4542C15.9446 59.1264 17.6013 59.1264 19.2083 59.4542C19.4708 59.5042 19.7167 59.6042 19.975 59.6708C20.4854 59.7955 20.9878 59.9514 21.4792 60.1375C21.7708 60.2583 22.0417 60.4125 22.3125 60.5542C22.7348 60.7538 23.1452 60.9778 23.5417 61.225C23.8208 61.4042 24.075 61.6083 24.3375 61.8083C24.6 62.0083 24.8333 62.1417 25.0583 62.3375V28.2208C25.0554 27.0611 24.8069 25.9151 24.3292 24.8583V24.8583ZM24.8292 69.8625C24.5115 68.5987 23.9041 67.4262 23.0551 66.4376C22.2061 65.4491 21.1388 64.6716 19.9375 64.1667C18.8845 63.697 17.7405 63.4665 16.5878 63.4917C15.4351 63.5169 14.3023 63.7972 13.2708 64.3125C12.7029 64.5745 12.1651 64.8972 11.6667 65.275V70.2417C11.6209 72.4671 12.3789 74.6345 13.8015 76.3464C15.2242 78.0584 17.2163 79.2002 19.4125 79.5625H19.5042C20.0137 79.3733 20.5036 79.1346 20.9667 78.85C21.0833 78.7833 21.1917 78.7083 21.3042 78.6333C21.7295 78.3613 22.1297 78.0517 22.5 77.7083L22.5792 77.6417C22.9894 77.2316 23.3566 76.7807 23.675 76.2958L23.7208 76.2208C24.331 75.2933 24.7442 74.2504 24.9349 73.1567C25.1255 72.063 25.0896 70.9417 24.8292 69.8625V69.8625Z" fill="#F2C94C"/>
<path d="M16.7583 84.3708C14.2679 84.37 11.8337 83.6307 9.76349 82.2464C7.69326 80.8622 6.08 78.8951 5.12773 76.5939C4.17546 74.2928 3.92694 71.761 4.4136 69.3186C4.90026 66.8762 6.10024 64.633 7.8618 62.8726C9.62336 61.1122 11.8674 59.9137 14.3101 59.4286C16.7528 58.9436 19.2845 59.1938 21.585 60.1476C23.8855 61.1014 25.8515 62.7159 27.2344 64.7871C28.6173 66.8582 29.355 69.2929 29.3542 71.7833C29.3509 75.1222 28.0225 78.3232 25.6608 80.6833C23.2991 83.0435 20.0972 84.3697 16.7583 84.3708ZM16.7583 63.4875C15.1178 63.4883 13.5143 63.9756 12.1506 64.8876C10.7869 65.7997 9.72422 67.0956 9.09696 68.6116C8.46971 70.1275 8.30602 71.7954 8.62659 73.4043C8.94715 75.0133 9.73758 76.4911 10.8979 77.6509C12.0583 78.8106 13.5365 79.6003 15.1456 79.9201C16.7547 80.2398 18.4225 80.0753 19.9381 79.4473C21.4538 78.8193 22.7492 77.756 23.6605 76.3918C24.5719 75.0277 25.0583 73.4239 25.0583 71.7833C25.0561 69.5831 24.1808 67.4737 22.6246 65.9183C21.0684 64.3629 18.9586 63.4886 16.7583 63.4875V63.4875Z" fill="#2F80ED"/>
<path d="M27.2042 73.9292C26.6351 73.9292 26.0893 73.7031 25.6868 73.3007C25.2844 72.8982 25.0583 72.3525 25.0583 71.7833C25.0583 69.5831 24.1843 67.4731 22.6285 65.9173C21.0728 64.3615 18.9627 63.4875 16.7625 63.4875C14.5623 63.4875 12.4522 64.3615 10.8965 65.9173C9.34069 67.4731 8.46667 69.5831 8.46667 71.7833C8.4423 72.3366 8.20535 72.8592 7.8052 73.2421C7.40506 73.625 6.87259 73.8387 6.31875 73.8387C5.76492 73.8387 5.23245 73.625 4.83231 73.2421C4.43216 72.8592 4.19521 72.3366 4.17084 71.7833V28.2167C4.17084 24.8771 5.49746 21.6744 7.85885 19.313C10.2202 16.9516 13.423 15.625 16.7625 15.625C20.102 15.625 23.3048 16.9516 25.6662 19.313C28.0276 21.6744 29.3542 24.8771 29.3542 28.2167V71.7833C29.3531 72.3528 29.1261 72.8986 28.723 73.3009C28.3199 73.7032 27.7737 73.9292 27.2042 73.9292V73.9292ZM16.7583 59.1875C19.8135 59.1862 22.7644 60.2987 25.0583 62.3167V28.2167C25.0583 26.0165 24.1843 23.9064 22.6285 22.3506C21.0728 20.7949 18.9627 19.9208 16.7625 19.9208C14.5623 19.9208 12.4522 20.7949 10.8965 22.3506C9.34069 23.9064 8.46667 26.0165 8.46667 28.2167V62.3167C10.757 60.2983 13.7055 59.1856 16.7583 59.1875Z" fill="#2F80ED"/>
<path d="M72.2 84.3708H16.7583C16.205 84.3465 15.6825 84.1095 15.2996 83.7094C14.9167 83.3092 14.703 82.7768 14.703 82.2229C14.703 81.6691 14.9167 81.1366 15.2996 80.7365C15.6825 80.3363 16.205 80.0994 16.7583 80.075C18.9575 80.0728 21.0661 79.1988 22.622 77.6445C24.1778 76.0902 25.0539 73.9825 25.0583 71.7833V28.2167C25.0537 27.0585 24.8053 25.9142 24.3292 24.8583C24.1822 24.5312 24.1196 24.1724 24.1471 23.8148C24.1746 23.4572 24.2913 23.1122 24.4865 22.8113C24.6817 22.5104 24.9492 22.2632 25.2645 22.0924C25.5799 21.9216 25.933 21.8325 26.2917 21.8333H75.0625C75.6327 21.8333 76.1796 22.0599 76.5828 22.4631C76.986 22.8663 77.2125 23.4131 77.2125 23.9833V55.4667C77.1881 56.02 76.9512 56.5425 76.551 56.9254C76.1509 57.3083 75.6184 57.522 75.0646 57.522C74.5108 57.522 73.9783 57.3083 73.5781 56.9254C73.178 56.5425 72.9411 56.02 72.9167 55.4667V26.1292H29.1667C29.2864 26.8171 29.3463 27.5142 29.3458 28.2125V71.7833C29.3505 74.8366 28.2374 77.786 26.2167 80.075H72.2C72.7533 80.0994 73.2759 80.3363 73.6588 80.7365C74.0417 81.1366 74.2554 81.6691 74.2554 82.2229C74.2554 82.7768 74.0417 83.3092 73.6588 83.7094C73.2759 84.1095 72.7533 84.3465 72.2 84.3708V84.3708Z" fill="#2F80ED"/>
<path d="M55 70.9167C52.5938 70.9121 50.2218 70.3456 48.0733 69.2623C45.9247 68.179 44.0588 66.6088 42.6244 64.6769C41.19 62.7449 40.2266 60.5046 39.8111 58.1345C39.3956 55.7644 39.5395 53.3301 40.2312 51.0254C40.9229 48.7207 42.1433 46.6094 43.7953 44.8599C45.4472 43.1103 47.485 41.7707 49.7462 40.9479C52.0074 40.1252 54.4295 39.8419 56.8196 40.1208C59.2096 40.3997 61.5015 41.2329 63.5125 42.5542V42.5542C66.2933 44.3812 68.4101 47.0571 69.5478 50.1839C70.6855 53.3106 70.7834 56.7211 69.8269 59.908C68.8704 63.0949 66.9107 65.8878 64.2392 67.8713C61.5677 69.8548 58.3273 70.9229 55 70.9167V70.9167ZM55.0458 44.3083C52.3657 44.3021 49.7728 45.2607 47.7414 47.0089C45.7099 48.7571 44.3755 51.1781 43.9822 53.8293C43.5889 56.4804 44.163 59.1845 45.5995 61.4472C47.036 63.7099 49.2389 65.3799 51.8054 66.152C54.3719 66.924 57.1306 66.7465 59.577 65.6519C62.0235 64.5573 63.9942 62.6187 65.1288 60.1905C66.2635 57.7624 66.4862 55.007 65.7564 52.4282C65.0266 49.8493 63.393 47.6193 61.1542 46.1458V46.1458C59.3474 44.95 57.2292 44.3111 55.0625 44.3083H55.0458ZM90.5667 84.3708C90.1465 84.3725 89.735 84.2509 89.3833 84.0208L76.8833 75.8125C76.4071 75.4987 76.0748 75.0089 75.9592 74.4504C75.8436 73.8919 75.9542 73.3104 76.2667 72.8333L79.3792 68.0958C79.6942 67.6205 80.1836 67.2882 80.7417 67.1708C81.0182 67.1133 81.3033 67.1109 81.5807 67.1638C81.8582 67.2168 82.1224 67.3239 82.3583 67.4792L94.8583 75.6917C95.3343 76.0047 95.6665 76.4938 95.7821 77.0516C95.8978 77.6094 95.7873 78.1903 95.475 78.6667L92.3583 83.4042C92.1641 83.703 91.8978 83.9481 91.584 84.117C91.2701 84.2859 90.9189 84.3732 90.5625 84.3708H90.5667ZM81.0583 73.4L89.95 79.2333L90.7042 78.0833L81.8125 72.25L81.0583 73.4Z" fill="#2F80ED"/>
<path d="M79.6417 73.7917C79.2228 73.7928 78.8129 73.6711 78.4625 73.4417L64.975 64.5833C64.512 64.2644 64.1924 63.7767 64.0847 63.2249C63.9769 62.6731 64.0896 62.1011 64.3986 61.6313C64.7075 61.1616 65.1882 60.8316 65.7375 60.7121C66.2869 60.5925 66.8612 60.6929 67.3375 60.9917L80.8333 69.85C81.2204 70.1032 81.5154 70.4747 81.6742 70.9091C81.833 71.3436 81.8472 71.8177 81.7146 72.2608C81.582 72.704 81.3098 73.0924 80.9385 73.3683C80.5672 73.6442 80.1167 73.7927 79.6542 73.7917H79.6417ZM67.2375 52.3C66.7852 52.2994 66.3445 52.1562 65.9783 51.8907C65.6121 51.6253 65.3389 51.251 65.1977 50.8213C65.0564 50.3916 65.0543 49.9283 65.1916 49.4973C65.3289 49.0663 65.5987 48.6896 65.9625 48.4208L73.7916 42.6583C74.2514 42.3207 74.8264 42.1796 75.3901 42.2659C75.9539 42.3523 76.4603 42.659 76.7979 43.1188C77.1355 43.5785 77.2767 44.1535 77.1903 44.7172C77.104 45.281 76.7972 45.7874 76.3375 46.125L68.5083 51.8833C68.1399 52.1541 67.6947 52.3 67.2375 52.3Z" fill="#2F80ED"/>
<path d="M55.0417 58.95C54.7543 58.9502 54.4698 58.8928 54.205 58.7811C53.9402 58.6695 53.7005 58.5059 53.5 58.3L43.5792 48.0958C43.3827 47.8937 43.228 47.6548 43.1239 47.3928C43.0198 47.1308 42.9683 46.8509 42.9724 46.5691C42.9806 45.9998 43.2146 45.4571 43.6229 45.0604C44.0312 44.6637 44.5804 44.4454 45.1497 44.4536C45.7189 44.4618 46.2616 44.6958 46.6583 45.1042L55.2375 53.9292L64.8208 46.4583C65.2717 46.1222 65.8363 45.9761 66.3936 46.0513C66.9509 46.1266 67.4566 46.4172 67.8022 46.8609C68.1477 47.3045 68.3057 47.8659 68.2422 48.4247C68.1787 48.9835 67.8988 49.4952 67.4625 49.85L56.3625 58.5C55.9847 58.793 55.5198 58.9513 55.0417 58.95Z" fill="#2F80ED"/>
<path d="M27.2083 52.625C26.7458 52.626 26.2953 52.4775 25.924 52.2016C25.5527 51.9258 25.2805 51.5373 25.1479 51.0942C25.0153 50.651 25.0295 50.1769 25.1883 49.7425C25.3471 49.308 25.6421 48.9365 26.0292 48.6833L36.7667 41.6375C37.1669 41.3755 37.6429 41.2542 38.1197 41.2927C38.5965 41.3311 39.047 41.5272 39.4 41.85L45 46.9917C45.2079 47.1832 45.3761 47.4138 45.4949 47.6703C45.6137 47.9268 45.6808 48.2042 45.6925 48.4866C45.7041 48.7691 45.6599 49.051 45.5626 49.3164C45.4652 49.5818 45.3165 49.8254 45.125 50.0333C44.9335 50.2413 44.7029 50.4094 44.4464 50.5282C44.1899 50.647 43.9125 50.7142 43.6301 50.7258C43.3476 50.7374 43.0657 50.6932 42.8003 50.5959C42.5349 50.4985 42.2913 50.3498 42.0833 50.1583L37.7208 46.15L28.3792 52.275C28.0311 52.5027 27.6243 52.6243 27.2083 52.625V52.625Z" fill="#2F80ED"/>
</svg>
