<svg width="100" height="100" viewBox="0 0 100 100" fill="none" xmlns="http://www.w3.org/2000/svg">
<path d="M38.0952 33.3333C32.4444 33.3333 26.9204 35.009 22.2218 38.1485C17.5233 41.288 13.8612 45.7502 11.6987 50.971C9.53618 56.1917 8.97037 61.9365 10.0728 67.4788C11.1752 73.0211 13.8964 78.112 17.8922 82.1078C21.888 86.1036 26.9789 88.8248 32.5212 89.9272C38.0636 91.0296 43.8083 90.4638 49.0291 88.3013C54.2498 86.1388 58.7121 82.4767 61.8515 77.7782C64.991 73.0797 66.6667 67.5557 66.6667 61.9048C66.6667 54.3272 63.6565 47.0599 58.2983 41.7017C52.9401 36.3435 45.6729 33.3333 38.0952 33.3333ZM38.0952 88.0952C32.9153 88.0952 27.8516 86.5592 23.5446 83.6813C19.2376 80.8035 15.8807 76.7131 13.8984 71.9274C11.9161 67.1417 11.3974 61.8757 12.408 56.7953C13.4186 51.7148 15.913 47.0481 19.5758 43.3853C23.2386 39.7225 27.9053 37.2281 32.9857 36.2175C38.0662 35.207 43.3322 35.7256 48.1179 37.7079C52.9036 39.6902 56.994 43.0471 59.8718 47.3541C62.7497 51.6611 64.2857 56.7248 64.2857 61.9048C64.2857 68.8509 61.5264 75.5126 56.6147 80.4242C51.703 85.3359 45.0414 88.0952 38.0952 88.0952Z" fill="white"/>
<path d="M38.0952 35.7143C32.9152 35.7143 27.8516 37.2503 23.5446 40.1282C19.2376 43.006 15.8807 47.0964 13.8984 51.8821C11.9161 56.6678 11.3974 61.9338 12.408 67.0143C13.4185 72.0947 15.9129 76.7614 19.5758 80.4242C23.2386 84.087 27.9053 86.5814 32.9857 87.592C38.0662 88.6026 43.3322 88.0839 48.1179 86.1016C52.9036 84.1193 56.994 80.7624 59.8718 76.4554C62.7497 72.1484 64.2857 67.0848 64.2857 61.9048C64.2857 54.9586 61.5264 48.297 56.6147 43.3853C51.703 38.4736 45.0414 35.7143 38.0952 35.7143ZM38.0952 84.5238C33.6216 84.5238 29.2484 83.1972 25.5287 80.7118C21.8091 78.2264 18.9099 74.6938 17.1979 70.5607C15.486 66.4276 15.038 61.8797 15.9108 57.492C16.7835 53.1043 18.9378 49.074 22.1011 45.9107C25.2645 42.7474 29.2948 40.5931 33.6825 39.7203C38.0701 38.8476 42.6181 39.2955 46.7511 41.0075C50.8842 42.7195 54.4169 45.6186 56.9023 49.3383C59.3877 53.058 60.7143 57.4311 60.7143 61.9048C60.708 67.9018 58.3229 73.6514 54.0823 77.8919C49.8418 82.1324 44.0922 84.5175 38.0952 84.5238V84.5238Z" fill="#F2C94C"/>
<path d="M38.0953 39.2857C33.6216 39.2857 29.2485 40.6123 25.5288 43.0977C21.8091 45.5831 18.91 49.1157 17.198 53.2488C15.486 57.3819 15.0381 61.9299 15.9108 66.3175C16.7836 70.7052 18.9378 74.7355 22.1012 77.8988C25.2645 81.0622 29.2948 83.2164 33.6825 84.0892C38.0702 84.962 42.6181 84.514 46.7512 82.802C50.8843 81.0901 54.4169 78.1909 56.9023 74.4712C59.3877 70.7516 60.7143 66.3784 60.7143 61.9048C60.708 55.9078 58.3229 50.1582 54.0824 45.9177C49.8418 41.6771 44.0923 39.292 38.0953 39.2857V39.2857ZM38.0953 82.1429C34.0925 82.1429 30.1797 80.9559 26.8516 78.7321C23.5234 76.5083 20.9295 73.3476 19.3977 69.6496C17.8659 65.9515 17.4651 61.8823 18.246 57.9565C19.0269 54.0307 20.9544 50.4246 23.7848 47.5943C26.6151 44.7639 30.2212 42.8364 34.147 42.0555C38.0728 41.2747 42.142 41.6754 45.84 43.2072C49.5381 44.739 52.6988 47.333 54.9226 50.6611C57.1464 53.9892 58.3333 57.9021 58.3333 61.9048C58.327 67.2703 56.1928 72.4143 52.3988 76.2083C48.6048 80.0023 43.4608 82.1366 38.0953 82.1429ZM64.5 37.2381H64.2857V33.7619H67.1191C67.3464 33.7619 67.5644 33.6716 67.7252 33.5109C67.8859 33.3501 67.9762 33.1321 67.9762 32.9048C67.9762 32.6774 67.8859 32.4594 67.7252 32.2987C67.5644 32.1379 67.3464 32.0476 67.1191 32.0476H64.2857V30.5476C64.2857 30.3203 64.1954 30.1023 64.0347 29.9415C63.8739 29.7808 63.6559 29.6905 63.4286 29.6905C63.2013 29.6905 62.9832 29.7808 62.8225 29.9415C62.6617 30.1023 62.5714 30.3203 62.5714 30.5476V32.0476H61.2857V30.5476C61.2857 30.3203 61.1954 30.1023 61.0347 29.9415C60.8739 29.7808 60.6559 29.6905 60.4286 29.6905C60.2013 29.6905 59.9832 29.7808 59.8225 29.9415C59.6618 30.1023 59.5714 30.3203 59.5714 30.5476V32.0476H59.3333C58.4815 32.0441 57.6593 32.36 57.029 32.933C56.3986 33.5061 56.006 34.2945 55.9286 35.1429C56.754 35.7143 57.5476 36.3095 58.3095 36.9286C58.0061 36.7183 57.7775 36.4169 57.6568 36.0679C57.5362 35.719 57.5298 35.3407 57.6385 34.9879C57.7473 34.6351 57.9656 34.3261 58.2617 34.1057C58.5579 33.8852 58.9165 33.7648 59.2857 33.7619H59.5238V37.2381H59.2857C58.9369 37.2339 58.5971 37.1261 58.3095 36.9286L59.5238 38.0953L60.5238 39.0476C60.7851 39.2614 61.0244 39.5006 61.2381 39.7619V39.0476H62.5238V41.1667C62.9048 41.5953 63.2857 42.0714 63.6429 42.5238L64.2381 43.3333L64.8333 44.1905C65.6817 44.1131 66.4702 43.7204 67.0432 43.0901C67.6162 42.4598 67.9321 41.6376 67.9286 40.7857C67.9413 40.3264 67.8621 39.8692 67.6958 39.4408C67.5295 39.0125 67.2793 38.6216 66.96 38.2912C66.6407 37.9608 66.2586 37.6975 65.8362 37.5166C65.4138 37.3358 64.9595 37.2411 64.5 37.2381V37.2381ZM62.5476 37.2381H61.2619V33.7619H62.5476V37.2381ZM64.5 42.4286H64.2857V38.9524H64.5238C64.9848 38.9524 65.4269 39.1355 65.7528 39.4615C66.0788 39.7874 66.2619 40.2295 66.2619 40.6905C66.2619 41.1515 66.0788 41.5936 65.7528 41.9195C65.4269 42.2455 64.9848 42.4286 64.5238 42.4286H64.5Z" fill="#2F80ED"/>
<path d="M61.9048 9.52382C55.8267 9.52084 49.9061 11.4562 45.0034 15.0487C40.1007 18.6412 36.4713 23.7035 34.6429 29.5C34.5482 29.8157 34.5827 30.1562 34.739 30.4464C34.8953 30.7366 35.1605 30.9529 35.4762 31.0476C35.7919 31.1424 36.1324 31.1078 36.4226 30.9515C36.7128 30.7952 36.9291 30.53 37.0238 30.2143C38.3778 25.9227 40.8148 22.0524 44.0997 18.9766C47.3846 15.9008 51.4067 13.7233 55.7779 12.6541C60.1492 11.5849 64.7222 11.6601 69.056 12.8723C73.3897 14.0846 77.338 16.3931 80.5201 19.5752C83.7022 22.7572 86.0107 26.7055 87.2229 31.0393C88.4352 35.3731 88.5103 39.9461 87.4411 44.3173C86.3719 48.6886 84.1944 52.7106 81.1187 55.9955C78.0429 59.2805 74.1726 61.7174 69.881 63.0714C69.5652 63.1188 69.2812 63.2897 69.0915 63.5464C68.9017 63.8031 68.8217 64.1248 68.8691 64.4405C68.9164 64.7562 69.0873 65.0402 69.344 65.23C69.6008 65.4198 69.9224 65.4998 70.2381 65.4524H70.5953C77.1999 63.4661 82.8631 59.1579 86.5397 53.3228C90.2164 47.4877 91.6583 40.5196 90.5993 33.7046C89.5404 26.8895 86.052 20.6876 80.7781 16.2433C75.5042 11.799 68.8007 9.41231 61.9048 9.52382V9.52382Z" fill="#2F80ED"/>
<path d="M69.9762 59.1191C70.1251 59.1528 70.2796 59.1528 70.4286 59.1191C73.8695 57.7075 76.9089 55.4684 79.2769 52.6004C81.6448 49.7323 83.2682 46.3241 84.003 42.6782C84.7378 39.0322 84.5611 35.2613 83.4889 31.7C82.4166 28.1387 80.4817 24.8971 77.8561 22.2629C75.2304 19.6288 71.9951 17.6835 68.4373 16.5997C64.8794 15.516 61.1091 15.3272 57.4608 16.0502C53.8125 16.7731 50.3991 18.3855 47.5234 20.7442C44.6478 23.103 42.3988 26.135 40.9762 29.5714C40.8984 29.7181 40.8521 29.8793 40.8404 30.0449C40.8286 30.2104 40.8515 30.3766 40.9078 30.5327C40.964 30.6889 41.0523 30.8315 41.1669 30.9516C41.2815 31.0716 41.42 31.1663 41.5733 31.2297C41.7267 31.293 41.8917 31.3236 42.0576 31.3195C42.2235 31.3153 42.3867 31.2765 42.5368 31.2056C42.6868 31.1346 42.8203 31.0331 42.9288 30.9075C43.0373 30.7819 43.1183 30.635 43.1667 30.4762C44.4215 27.3794 46.4236 24.6415 48.9942 22.5069C51.5648 20.3722 54.624 18.9073 57.8986 18.2428C61.1733 17.5783 64.5615 17.7349 67.7608 18.6987C70.9602 19.6625 73.8711 21.4034 76.2339 23.7662C78.5966 26.1289 80.3375 29.0398 81.3013 32.2392C82.2651 35.4385 82.4217 38.8267 81.7572 42.1014C81.0927 45.376 79.6278 48.4352 77.4931 51.0058C75.3585 53.5764 72.6206 55.5785 69.5238 56.8333C69.3784 56.8907 69.246 56.9767 69.1345 57.0863C69.023 57.1958 68.9346 57.3267 68.8746 57.471C68.8147 57.6154 68.7843 57.7703 68.7854 57.9266C68.7865 58.0829 68.819 58.2375 68.8809 58.381C68.9703 58.5984 69.1219 58.7845 69.3168 58.9158C69.5117 59.0472 69.7411 59.1179 69.9762 59.1191ZM40.6905 61.0476H40.4762V57.5714H43.3095C43.5368 57.5714 43.7549 57.4811 43.9156 57.3204C44.0764 57.1596 44.1667 56.9416 44.1667 56.7143C44.1667 56.487 44.0764 56.269 43.9156 56.1082C43.7549 55.9475 43.5368 55.8572 43.3095 55.8572H40.4762V54.3572C40.4762 54.1298 40.3859 53.9118 40.2251 53.7511C40.0644 53.5903 39.8464 53.5 39.619 53.5C39.3917 53.5 39.1737 53.5903 39.0129 53.7511C38.8522 53.9118 38.7619 54.1298 38.7619 54.3572V55.8572H37.4762V54.3572C37.4762 54.1298 37.3859 53.9118 37.2251 53.7511C37.0644 53.5903 36.8464 53.5 36.619 53.5C36.3917 53.5 36.1737 53.5903 36.0129 53.7511C35.8522 53.9118 35.7619 54.1298 35.7619 54.3572V55.8572H35.5238C34.6082 55.8572 33.73 56.2209 33.0826 56.8683C32.4351 57.5158 32.0714 58.3939 32.0714 59.3095C32.0714 60.2252 32.4351 61.1033 33.0826 61.7507C33.73 62.3982 34.6082 62.7619 35.5238 62.7619H35.7143V66.2381H32.9047C32.6774 66.2381 32.4594 66.3284 32.2987 66.4892C32.1379 66.6499 32.0476 66.8679 32.0476 67.0953C32.0476 67.3226 32.1379 67.5406 32.2987 67.7013C32.4594 67.8621 32.6774 67.9524 32.9047 67.9524H35.7143V69.4524C35.7143 69.6797 35.8046 69.8977 35.9653 70.0585C36.1261 70.2192 36.3441 70.3095 36.5714 70.3095C36.7987 70.3095 37.0168 70.2192 37.1775 70.0585C37.3383 69.8977 37.4286 69.6797 37.4286 69.4524V67.9524H38.7143V69.4524C38.7143 69.6797 38.8046 69.8977 38.9653 70.0585C39.1261 70.2192 39.3441 70.3095 39.5714 70.3095C39.7987 70.3095 40.0168 70.2192 40.1775 70.0585C40.3383 69.8977 40.4286 69.6797 40.4286 69.4524V67.9524H40.6667C41.5823 67.9524 42.4604 67.5887 43.1079 66.9412C43.7553 66.2938 44.119 65.4156 44.119 64.5C44.119 63.5844 43.7553 62.7063 43.1079 62.0588C42.4604 61.4114 41.5823 61.0476 40.6667 61.0476H40.6905ZM35.7381 61.0476H35.5C35.039 61.0476 34.5969 60.8645 34.271 60.5386C33.945 60.2126 33.7619 59.7705 33.7619 59.3095C33.7619 58.8486 33.945 58.4065 34.271 58.0805C34.5969 57.7546 35.039 57.5714 35.5 57.5714H35.7143L35.7381 61.0476ZM38.7381 66.2381H37.4524V62.7619H38.7381V66.2381ZM38.7381 61.0476H37.4524V57.5714H38.7381V61.0476ZM40.6905 66.2381H40.4762V62.7619H40.7143C41.1752 62.7619 41.6173 62.945 41.9433 63.271C42.2692 63.597 42.4524 64.039 42.4524 64.5C42.4524 64.961 42.2692 65.4031 41.9433 65.729C41.6173 66.055 41.1752 66.2381 40.7143 66.2381H40.6905Z" fill="#2F80ED"/>
</svg>
