<svg width="100" height="100" viewBox="0 0 100 100" fill="none" xmlns="http://www.w3.org/2000/svg">
<path d="M29.6875 37.5H4.6875V62.5H29.6875V37.5Z" fill="white"/>
<path d="M95.3125 37.5H70.3125V62.5H95.3125V37.5Z" fill="white"/>
<path d="M85.9375 37.5H79.6875V45.3125H85.9375V37.5Z" fill="#F2C94C"/>
<path d="M20.3125 37.5H14.0625V45.3125H20.3125V37.5Z" fill="#F2C94C"/>
<path d="M70.3125 28.125H29.6875V65.625H70.3125V28.125Z" fill="white"/>
<path d="M50 75L53.5531 82.2016L61.5 83.3563L55.75 88.9609L57.1078 96.875L50 93.1391L42.8922 96.875L44.25 88.9609L38.5 83.3563L46.4469 82.2016L50 75Z" fill="#F2C94C"/>
<path d="M81.25 73.4375L83.7891 78.5812L89.4641 79.4062L85.3578 83.4094L86.3266 89.0625L81.25 86.3937L76.1734 89.0625L77.1422 83.4094L73.0359 79.4062L78.711 78.5812L81.25 73.4375Z" fill="#F2C94C"/>
<path d="M54.6875 28.125H45.3125V42.1875H54.6875V28.125Z" fill="#F2C94C"/>
<path d="M18.75 73.4375L16.211 78.5812L10.5359 79.4062L14.6422 83.4094L13.6735 89.0625L18.75 86.3937L23.8266 89.0625L22.8578 83.4094L26.9641 79.4062L21.2891 78.5812L18.75 73.4375Z" fill="#F2C94C"/>
<path d="M62.9875 82.8734C62.8974 82.5959 62.7314 82.3491 62.5083 82.161C62.2851 81.973 62.0138 81.8511 61.725 81.8094L54.5906 80.7719L51.4063 74.3094C51.2627 74.0657 51.058 73.8638 50.8125 73.7235C50.5669 73.5832 50.289 73.5094 50.0063 73.5094C49.7235 73.5094 49.4456 73.5832 49.2 73.7235C48.9545 73.8638 48.7498 74.0657 48.6063 74.3094L45.4156 80.7719L38.2813 81.8094C37.9925 81.851 37.7212 81.9727 37.4981 82.1606C37.2749 82.3485 37.1088 82.5951 37.0186 82.8725C36.9283 83.1499 36.9176 83.447 36.9874 83.7302C37.0573 84.0134 37.2051 84.2714 37.4141 84.475L42.5781 89.5062L41.3594 96.6109C41.3101 96.8983 41.3423 97.1937 41.4522 97.4637C41.562 97.7337 41.7453 97.9676 41.9811 98.139C42.217 98.3103 42.4961 98.4123 42.7869 98.4333C43.0777 98.4542 43.3685 98.3935 43.6266 98.2578L50 94.9031L56.3797 98.2578C56.6377 98.3935 56.9286 98.4542 57.2194 98.4333C57.5101 98.4123 57.7892 98.3103 58.0251 98.139C58.261 97.9676 58.4442 97.7337 58.5541 97.4637C58.664 97.1937 58.6961 96.8983 58.6469 96.6109L57.4281 89.5062L62.5922 84.475C62.8009 84.2715 62.9486 84.0137 63.0184 83.7306C63.0883 83.4476 63.0776 83.1507 62.9875 82.8734ZM54.6578 87.8406C54.4764 88.0177 54.3407 88.2362 54.2626 88.4774C54.1845 88.7186 54.1662 88.9752 54.2094 89.225L55.0328 94.0187L50.7281 91.7547C50.5036 91.6364 50.2537 91.5747 50 91.5747C49.7463 91.5747 49.4964 91.6364 49.2719 91.7547L44.9672 94.0187L45.7906 89.225C45.8338 88.9752 45.8155 88.7186 45.7374 88.4774C45.6593 88.2362 45.5236 88.0177 45.3422 87.8406L41.8578 84.4469L46.6703 83.7469C46.921 83.7105 47.1591 83.6136 47.3641 83.4647C47.5691 83.3159 47.7347 83.1194 47.8469 82.8922L50 78.5297L52.1531 82.8922C52.2653 83.1194 52.431 83.3159 52.6359 83.4647C52.8409 83.6136 53.079 83.7105 53.3297 83.7469L58.1422 84.4469L54.6578 87.8406ZM90.95 78.9234C90.8599 78.6459 90.6939 78.3991 90.4708 78.211C90.2477 78.023 89.9763 77.9012 89.6875 77.8594L84.8266 77.1531L82.6563 72.7453C82.5124 72.5021 82.3076 72.3005 82.0621 72.1605C81.8166 72.0205 81.5389 71.9468 81.2563 71.9468C80.9736 71.9468 80.6959 72.0205 80.4504 72.1605C80.2049 72.3005 80.0001 72.5021 79.8563 72.7453L77.6797 77.1531L72.8125 77.8594C72.5238 77.901 72.2525 78.0227 72.0293 78.2106C71.8062 78.3985 71.6401 78.6451 71.5498 78.9225C71.4596 79.1999 71.4488 79.497 71.5187 79.7802C71.5886 80.0634 71.7364 80.3214 71.9453 80.525L75.4641 83.9625L74.6344 88.8062C74.5854 89.0934 74.6176 89.3885 74.7274 89.6583C74.8372 89.9281 75.0203 90.1618 75.2559 90.3331C75.4915 90.5044 75.7703 90.6064 76.0608 90.6276C76.3513 90.6488 76.642 90.5884 76.9 90.4531L81.25 88.1594L85.6 90.4453C85.858 90.5805 86.1487 90.641 86.4392 90.6198C86.7297 90.5986 87.0085 90.4966 87.2441 90.3253C87.4798 90.154 87.6628 89.9203 87.7726 89.6505C87.8824 89.3807 87.9147 89.0856 87.8656 88.7984L87.0359 83.9547L90.5547 80.5172C90.762 80.3144 90.9088 80.0579 90.9786 79.7764C91.0484 79.495 91.0385 79.1996 90.95 78.9234ZM84.2672 82.2906C84.086 82.4675 83.9505 82.6858 83.8724 82.9267C83.7942 83.1676 83.7758 83.4239 83.8188 83.6734L84.2516 86.2062L81.9766 85.0109C81.7525 84.8932 81.5031 84.8317 81.25 84.8317C80.9969 84.8317 80.7475 84.8932 80.5234 85.0109L78.2484 86.2062L78.6813 83.6734C78.7242 83.4239 78.7058 83.1676 78.6276 82.9267C78.5495 82.6858 78.414 82.4675 78.2328 82.2906L76.3938 80.4969L78.9359 80.1281C79.1864 80.0915 79.4242 79.9945 79.6288 79.8457C79.8335 79.6968 79.999 79.5004 80.1109 79.2734L81.25 76.9672L82.3891 79.2734C82.5011 79.5004 82.6665 79.6968 82.8712 79.8457C83.0759 79.9945 83.3136 80.0915 83.5641 80.1281L86.1063 80.4969L84.2672 82.2906ZM3.125 37.5V62.5C3.125 62.9144 3.28962 63.3118 3.58265 63.6049C3.87567 63.8979 4.2731 64.0625 4.6875 64.0625H28.125V65.625C28.125 66.0394 28.2896 66.4368 28.5826 66.7299C28.8757 67.0229 29.2731 67.1875 29.6875 67.1875H70.3125C70.7269 67.1875 71.1243 67.0229 71.4174 66.7299C71.7104 66.4368 71.875 66.0394 71.875 65.625V64.0625H95.3125C95.7269 64.0625 96.1243 63.8979 96.4174 63.6049C96.7104 63.3118 96.875 62.9144 96.875 62.5V37.5C96.875 37.0856 96.7104 36.6882 96.4174 36.3951C96.1243 36.1021 95.7269 35.9375 95.3125 35.9375H71.875V28.125C71.875 27.7106 71.7104 27.3132 71.4174 27.0201C71.1243 26.7271 70.7269 26.5625 70.3125 26.5625H29.6875C29.2731 26.5625 28.8757 26.7271 28.5826 27.0201C28.2896 27.3132 28.125 27.7106 28.125 28.125V35.9375H4.6875C4.2731 35.9375 3.87567 36.1021 3.58265 36.3951C3.28962 36.6882 3.125 37.0856 3.125 37.5ZM81.25 39.0625H84.375V43.75H81.25V39.0625ZM71.875 39.0625H78.125V45.3125C78.125 45.7269 78.2896 46.1243 78.5826 46.4174C78.8757 46.7104 79.2731 46.875 79.6875 46.875H85.9375C86.3519 46.875 86.7493 46.7104 87.0424 46.4174C87.3354 46.1243 87.5 45.7269 87.5 45.3125V39.0625H93.75V60.9375H71.875V39.0625ZM46.875 29.6875H53.125V40.625H46.875V29.6875ZM31.25 29.6875H43.75V42.1875C43.75 42.6019 43.9146 42.9993 44.2076 43.2924C44.5007 43.5854 44.8981 43.75 45.3125 43.75H54.6875C55.1019 43.75 55.4993 43.5854 55.7924 43.2924C56.0854 42.9993 56.25 42.6019 56.25 42.1875V29.6875H68.75V64.0625H31.25V29.6875ZM15.625 39.0625H18.75V43.75H15.625V39.0625ZM6.25 39.0625H12.5V45.3125C12.5 45.7269 12.6646 46.1243 12.9576 46.4174C13.2507 46.7104 13.6481 46.875 14.0625 46.875H20.3125C20.7269 46.875 21.1243 46.7104 21.4174 46.4174C21.7104 46.1243 21.875 45.7269 21.875 45.3125V39.0625H28.125V60.9375H6.25V39.0625ZM12.7547 90.3266C12.9906 90.4979 13.2696 90.5998 13.5604 90.6208C13.8512 90.6417 14.142 90.581 14.4 90.4453L18.75 88.1594L23.1 90.4453C23.358 90.5805 23.6487 90.641 23.9392 90.6198C24.2297 90.5986 24.5085 90.4966 24.7441 90.3253C24.9797 90.154 25.1628 89.9203 25.2726 89.6505C25.3824 89.3807 25.4147 89.0856 25.3656 88.7984L24.5359 83.9547L28.0547 80.5172C28.2614 80.3133 28.4071 80.0559 28.4757 79.7738C28.5442 79.4917 28.5329 79.1961 28.4428 78.9202C28.3528 78.6442 28.1876 78.3988 27.9659 78.2114C27.7442 78.024 27.4746 77.9021 27.1875 77.8594L22.3266 77.1531L20.1562 72.7453C20.0124 72.5021 19.8076 72.3005 19.5621 72.1605C19.3166 72.0205 19.0389 71.9468 18.7563 71.9468C18.4736 71.9468 18.1959 72.0205 17.9504 72.1605C17.7049 72.3005 17.5001 72.5021 17.3563 72.7453L15.1734 77.1531L10.3125 77.8594C10.0238 77.901 9.75249 78.0227 9.52934 78.2106C9.30618 78.3985 9.14008 78.6451 9.04984 78.9225C8.95959 79.1999 8.94881 79.497 9.0187 79.7802C9.08859 80.0634 9.23637 80.3214 9.44531 80.525L12.9641 83.9625L12.1344 88.8062C12.0865 89.0923 12.1192 89.386 12.2287 89.6545C12.3383 89.923 12.5204 90.1557 12.7547 90.3266ZM16.4359 80.1281C16.6864 80.0915 16.9242 79.9945 17.1288 79.8457C17.3335 79.6968 17.499 79.5004 17.6109 79.2734L18.75 76.9672L19.8891 79.2734C20.0011 79.5004 20.1665 79.6968 20.3712 79.8457C20.5759 79.9945 20.8136 80.0915 21.0641 80.1281L23.6063 80.4969L21.7672 82.2906C21.586 82.4675 21.4505 82.6858 21.3724 82.9267C21.2942 83.1676 21.2758 83.4239 21.3188 83.6734L21.7516 86.2062L19.4766 85.0109C19.2525 84.8932 19.0031 84.8317 18.75 84.8317C18.4969 84.8317 18.2475 84.8932 18.0234 85.0109L15.7484 86.2062L16.1813 83.6734C16.2242 83.4239 16.2058 83.1676 16.1276 82.9267C16.0495 82.6858 15.914 82.4675 15.7328 82.2906L13.8938 80.4969L16.4359 80.1281Z" fill="#2F80ED"/>
<path d="M51.5625 1.5625H48.4375V10.9375H51.5625V1.5625Z" fill="#2F80ED"/>
<path d="M68.7354 4.09071L65.7997 12.9942L68.766 13.9723L71.7018 5.0688L68.7354 4.09071Z" fill="#2F80ED"/>
<path d="M88.7682 11.6307L83.6201 19.4658L86.2331 21.1826L91.3812 13.3476L88.7682 11.6307Z" fill="#2F80ED"/>
<path d="M31.2666 4.09219L28.3002 5.07029L31.236 13.9738L34.2023 12.9957L31.2666 4.09219Z" fill="#2F80ED"/>
<path d="M11.2329 11.6299L8.62 13.3469L13.7685 21.1817L16.3814 19.4647L11.2329 11.6299Z" fill="#2F80ED"/>
</svg>
