<svg width="100" height="100" viewBox="0 0 100 100" fill="none" xmlns="http://www.w3.org/2000/svg">
<path d="M17.1875 89.0625V20.3125H82.8125V10.9375H51.5625L48.4375 4.6875H4.6875V89.0625C4.6875 90.7201 5.34598 92.3098 6.51808 93.4819C7.69018 94.654 9.2799 95.3125 10.9375 95.3125C12.5951 95.3125 14.1848 94.654 15.3569 93.4819C16.529 92.3098 17.1875 90.7201 17.1875 89.0625Z" fill="white"/>
<path d="M51.5625 59.375V56.25H35.9375V75H53.125V59.375H51.5625Z" fill="white"/>
<path d="M60.9375 59.375H59.375V75H76.5625V56.25H60.9375V59.375Z" fill="white"/>
<path d="M51.5625 53.125H53.125V43.75H50H34.375V56.25H35.9375H51.5625V53.125Z" fill="white"/>
<path d="M59.375 43.75V53.125H60.9375V56.25H76.5625H78.125V43.75H62.5H59.375Z" fill="white"/>
<path d="M59.375 43.75H53.125V53.125H59.375V43.75Z" fill="white"/>
<path d="M59.375 59.375H53.125V75H59.375V59.375Z" fill="white"/>
<path d="M95.3125 18.75H84.375V10.9375C84.375 10.5231 84.2104 10.1257 83.9174 9.83264C83.6243 9.53961 83.2269 9.37499 82.8125 9.37499H52.5281L49.8437 3.98906C49.7134 3.72812 49.5125 3.5089 49.264 3.3562C49.0155 3.20349 48.7292 3.1234 48.4375 3.12499H4.6875C4.2731 3.12499 3.87567 3.28961 3.58265 3.58264C3.28962 3.87566 3.125 4.27309 3.125 4.68749V89.0625C3.12748 91.1337 3.95138 93.1194 5.41597 94.584C6.88056 96.0486 8.86626 96.8725 10.9375 96.875H89.0625C91.1337 96.8725 93.1194 96.0486 94.584 94.584C96.0486 93.1194 96.8725 91.1337 96.875 89.0625V20.3125C96.875 19.8981 96.7104 19.5007 96.4174 19.2076C96.1243 18.9146 95.7269 18.75 95.3125 18.75ZM15.625 20.3125V89.0625C15.625 90.3057 15.1311 91.498 14.2521 92.3771C13.373 93.2561 12.1807 93.75 10.9375 93.75C9.6943 93.75 8.50201 93.2561 7.62294 92.3771C6.74386 91.498 6.25 90.3057 6.25 89.0625V6.24999H47.4719L50.1562 11.6359C50.2866 11.8969 50.4874 12.1161 50.736 12.2688C50.9845 12.4215 51.2708 12.5016 51.5625 12.5H81.25V18.75H17.1875C16.7731 18.75 16.3757 18.9146 16.0826 19.2076C15.7896 19.5007 15.625 19.8981 15.625 20.3125ZM93.75 89.0625C93.75 90.3057 93.2561 91.498 92.3771 92.3771C91.498 93.2561 90.3057 93.75 89.0625 93.75H17.1875C18.2032 92.3984 18.7516 90.7531 18.75 89.0625V21.875H93.75V89.0625Z" fill="#2F80ED"/>
<path d="M34.375 57.8125V75C34.375 75.4144 34.5396 75.8118 34.8326 76.1049C35.1257 76.3979 35.5231 76.5625 35.9375 76.5625H76.5625C76.9769 76.5625 77.3743 76.3979 77.6674 76.1049C77.9604 75.8118 78.125 75.4144 78.125 75V57.8125C78.5394 57.8125 78.9368 57.6479 79.2299 57.3549C79.5229 57.0618 79.6875 56.6644 79.6875 56.25V43.75C79.6875 43.3356 79.5229 42.9382 79.2299 42.6451C78.9368 42.3521 78.5394 42.1875 78.125 42.1875H64.0625V37.5C64.0625 37.0856 63.8979 36.6882 63.6049 36.3951C63.3118 36.1021 62.9144 35.9375 62.5 35.9375H50C49.5856 35.9375 49.1882 36.1021 48.8951 36.3951C48.6021 36.6882 48.4375 37.0856 48.4375 37.5V42.1875H34.375C33.9606 42.1875 33.5632 42.3521 33.2701 42.6451C32.9771 42.9382 32.8125 43.3356 32.8125 43.75V56.25C32.8125 56.6644 32.9771 57.0618 33.2701 57.3549C33.5632 57.6479 33.9606 57.8125 34.375 57.8125ZM37.5 57.8125H50V59.375C50 59.7894 50.1646 60.1868 50.4576 60.4799C50.7507 60.7729 51.1481 60.9375 51.5625 60.9375V73.4375H37.5V57.8125ZM54.6875 45.3125H57.8125V51.5625H54.6875V45.3125ZM53.125 54.6875H59.375V57.8125H53.125V54.6875ZM54.6875 73.4375V60.9375H57.8125V73.4375H54.6875ZM75 73.4375H60.9375V60.9375C61.3519 60.9375 61.7493 60.7729 62.0424 60.4799C62.3354 60.1868 62.5 59.7894 62.5 59.375V57.8125H75V73.4375ZM76.5625 54.6875H62.5V53.125C62.5 52.7106 62.3354 52.3132 62.0424 52.0201C61.7493 51.7271 61.3519 51.5625 60.9375 51.5625V45.3125H76.5625V54.6875ZM51.5625 39.0625H60.9375V42.1875H51.5625V39.0625ZM35.9375 45.3125H51.5625V51.5625C51.1481 51.5625 50.7507 51.7271 50.4576 52.0201C50.1646 52.3132 50 52.7106 50 53.125V54.6875H35.9375V45.3125Z" fill="#F2C94C"/>
</svg>
