<svg width="100" height="100" viewBox="0 0 100 100" fill="none" xmlns="http://www.w3.org/2000/svg">
<path d="M83.3333 12.5V66.6667H45.8333L20.8333 79.1667V66.6667H8.33331V12.5H83.3333Z" fill="white"/>
<path d="M95.8333 16.6667V79.1667H83.3333V91.6667L54.1666 79.1667H20.8333L45.8333 66.6667H83.3333V16.6667H95.8333Z" fill="#B9D9F4"/>
<path d="M16.6667 85.9167V70.8333H4.16669V8.33334H87.5V70.8333H46.8334L16.6667 85.9167ZM12.5 62.5H25V72.4167L44.8334 62.5H79.1667V16.6667H12.5V62.5Z" fill="#2F80ED"/>
<path d="M66.6667 25V43.375L57.125 52.9583L51.2083 47.0417L56.625 41.6667H50V25H66.6667Z" fill="#F2C94C"/>
<path d="M41.6667 25V43.375L32.125 52.9583L26.2083 47.0417L31.625 41.6667H25V25H41.6667Z" fill="#F2C94C"/>
</svg>
