<svg width="100" height="100" viewBox="0 0 100 100" fill="none" xmlns="http://www.w3.org/2000/svg">
<path d="M67.1875 3.125H4.6875C4.48228 3.12488 4.27904 3.16521 4.08941 3.24369C3.89978 3.32217 3.72749 3.43725 3.58237 3.58237C3.43725 3.72749 3.32217 3.89978 3.24369 4.08941C3.16521 4.27904 3.12488 4.48228 3.125 4.6875V29.6875C3.12502 29.9612 3.19692 30.23 3.3335 30.4672C3.47008 30.7043 3.66655 30.9015 3.90325 31.0388C4.13996 31.1762 4.40859 31.249 4.68226 31.2499C4.95593 31.2508 5.22504 31.1798 5.46266 31.0441L16.0403 25H67.1875C67.6019 25 67.9993 24.8354 68.2924 24.5424C68.5854 24.2493 68.75 23.8519 68.75 23.4375V4.6875C68.75 4.2731 68.5854 3.87567 68.2924 3.58265C67.9993 3.28962 67.6019 3.125 67.1875 3.125V3.125ZM67.1875 35.9375H4.6875C4.48228 35.9374 4.27904 35.9777 4.08941 36.0562C3.89978 36.1347 3.72749 36.2498 3.58237 36.3949C3.43725 36.54 3.32217 36.7123 3.24369 36.9019C3.16521 37.0915 3.12488 37.2948 3.125 37.5V62.5C3.12502 62.7737 3.19692 63.0425 3.3335 63.2797C3.47008 63.5168 3.66655 63.714 3.90325 63.8513C4.13996 63.9887 4.40859 64.0615 4.68226 64.0624C4.95593 64.0633 5.22504 63.9923 5.46266 63.8566L16.0403 57.8125H67.1875C67.6019 57.8125 67.9993 57.6479 68.2924 57.3549C68.5854 57.0618 68.75 56.6644 68.75 56.25V37.5C68.75 37.0856 68.5854 36.6882 68.2924 36.3951C67.9993 36.1021 67.6019 35.9375 67.1875 35.9375ZM67.1875 68.75H4.6875C4.48228 68.7499 4.27904 68.7902 4.08941 68.8687C3.89978 68.9472 3.72749 69.0623 3.58237 69.2074C3.43725 69.3525 3.32217 69.5248 3.24369 69.7144C3.16521 69.904 3.12488 70.1073 3.125 70.3125V95.3125C3.12502 95.5862 3.19692 95.855 3.3335 96.0922C3.47008 96.3293 3.66655 96.5265 3.90325 96.6638C4.13996 96.8012 4.40859 96.874 4.68226 96.8749C4.95593 96.8758 5.22504 96.8048 5.46266 96.6691L16.0403 90.625H67.1875C67.6019 90.625 67.9993 90.4604 68.2924 90.1674C68.5854 89.8743 68.75 89.4769 68.75 89.0625V70.3125C68.75 69.8981 68.5854 69.5007 68.2924 69.2076C67.9993 68.9146 67.6019 68.75 67.1875 68.75Z" fill="white"/>
<path d="M76.6848 18.2434C76.7081 18.2654 76.7254 18.2928 76.7353 18.3232C76.7451 18.3536 76.7472 18.386 76.7412 18.4173L75.9981 22.6684C75.8889 23.2806 75.9542 23.9112 76.1866 24.488C76.419 25.0647 76.809 25.5645 77.3121 25.93C77.8151 26.2955 78.4109 26.512 79.0313 26.5548C79.6516 26.5976 80.2715 26.4649 80.82 26.1719L84.6347 24.1502C84.6629 24.1361 84.6941 24.1289 84.7256 24.1291C84.7572 24.1294 84.7882 24.1371 84.8162 24.1516L88.628 26.1703C89.1765 26.4617 89.7959 26.5932 90.4155 26.5498C91.0352 26.5065 91.6302 26.29 92.1328 25.9251C92.6354 25.5601 93.0255 25.0614 93.2586 24.4857C93.4917 23.9099 93.5584 23.2803 93.4512 22.6684L92.7066 18.4158C92.7014 18.3849 92.7038 18.3532 92.7137 18.3234C92.7235 18.2937 92.7404 18.2667 92.763 18.245L95.862 15.2436C96.3082 14.8117 96.6243 14.2632 96.7743 13.6605C96.9243 13.0579 96.9022 12.4253 96.7105 11.8346C96.5188 11.2439 96.1652 10.7188 95.6899 10.3191C95.2146 9.91937 94.6367 9.66102 94.0219 9.57344L89.7509 8.96766C89.7194 8.96348 89.6893 8.95152 89.6635 8.93287C89.6377 8.91422 89.6169 8.88945 89.603 8.86078L87.7047 4.98437C87.434 4.42516 87.0108 3.95386 86.4838 3.62487C85.9568 3.29587 85.3475 3.12258 84.7263 3.125H84.7247C84.103 3.12236 83.4932 3.29553 82.9656 3.62451C82.4381 3.9535 82.0143 4.42491 81.7431 4.98437L79.8464 8.85937C79.8326 8.88779 79.812 8.91239 79.7865 8.93102C79.761 8.94965 79.7313 8.96175 79.7 8.96625L75.4275 9.57203C74.8125 9.65932 74.2344 9.91746 73.7588 10.3171C73.2833 10.7167 72.9295 11.2417 72.7376 11.8325C72.5457 12.4233 72.5235 13.056 72.6734 13.6588C72.8234 14.2616 73.1395 14.8102 73.5858 15.2422L76.6848 18.2434ZM94.0219 42.3859L89.7509 41.7802C89.7194 41.776 89.6893 41.764 89.6635 41.7454C89.6377 41.7267 89.6169 41.7019 89.603 41.6733L87.7047 37.7969C87.434 37.2377 87.0108 36.7664 86.4838 36.4374C85.9568 36.1084 85.3475 35.9351 84.7263 35.9375H84.7247C84.103 35.9349 83.4932 36.108 82.9656 36.437C82.4381 36.766 82.0143 37.2374 81.7431 37.7969L79.8464 41.6719C79.8326 41.7003 79.812 41.7249 79.7865 41.7435C79.761 41.7622 79.7313 41.7742 79.7 41.7787L75.4275 42.3845C74.8125 42.4718 74.2344 42.73 73.7588 43.1296C73.2833 43.5292 72.9295 44.0542 72.7376 44.645C72.5457 45.2358 72.5235 45.8685 72.6734 46.4713C72.8234 47.0741 73.1395 47.6227 73.5858 48.0547L76.6848 51.0547C76.7081 51.0766 76.7254 51.104 76.7353 51.1344C76.7451 51.1648 76.7472 51.1972 76.7412 51.2286L75.9981 55.4797C75.8889 56.0919 75.9542 56.7224 76.1866 57.2992C76.419 57.876 76.809 58.3757 77.3121 58.7412C77.8151 59.1068 78.4109 59.3233 79.0313 59.3661C79.6516 59.4088 80.2715 59.2761 80.82 58.9831L84.6347 56.9614C84.6629 56.9473 84.6941 56.9401 84.7256 56.9404C84.7572 56.9406 84.7882 56.9483 84.8162 56.9628L88.628 58.9816C89.1765 59.2729 89.7959 59.4044 90.4155 59.3611C91.0352 59.3177 91.6302 59.1013 92.1328 58.7363C92.6354 58.3714 93.0255 57.8727 93.2586 57.2969C93.4917 56.7211 93.5584 56.0915 93.4512 55.4797L92.7066 51.227C92.7014 51.1961 92.7038 51.1644 92.7137 51.1347C92.7235 51.1049 92.7404 51.078 92.763 51.0562L95.862 48.0548C96.3079 47.6229 96.6236 47.0745 96.7734 46.472C96.9232 45.8696 96.901 45.2372 96.7093 44.6467C96.5176 44.0562 96.1642 43.5314 95.6891 43.1317C95.2141 42.7321 94.6364 42.4737 94.0219 42.3859V42.3859ZM94.0219 75.1984L89.7509 74.5927C89.7194 74.5885 89.6893 74.5765 89.6635 74.5579C89.6377 74.5392 89.6169 74.5144 89.603 74.4858L87.7047 70.6094C87.434 70.0502 87.0108 69.5789 86.4838 69.2499C85.9568 68.9209 85.3475 68.7476 84.7263 68.75H84.7247C84.103 68.7474 83.4932 68.9205 82.9656 69.2495C82.4381 69.5785 82.0143 70.0499 81.7431 70.6094L79.8464 74.4852C79.8326 74.5136 79.812 74.5382 79.7865 74.5568C79.761 74.5754 79.7313 74.5875 79.7 74.592L75.4275 75.1978C74.8125 75.2851 74.2344 75.5432 73.7588 75.9428C73.2833 76.3425 72.9295 76.8675 72.7376 77.4583C72.5457 78.0491 72.5235 78.6818 72.6734 79.2846C72.8234 79.8874 73.1395 80.436 73.5858 80.868L76.6848 83.868C76.7081 83.8899 76.7254 83.9173 76.7353 83.9477C76.7451 83.9781 76.7472 84.0105 76.7412 84.0419L75.9981 88.293C75.8889 88.9051 75.9542 89.5357 76.1866 90.1125C76.419 90.6893 76.809 91.189 77.3121 91.5545C77.8151 91.92 78.4109 92.1366 79.0313 92.1794C79.6516 92.2221 80.2715 92.0894 80.82 91.7964L84.6347 89.7747C84.6629 89.7606 84.6941 89.7534 84.7256 89.7537C84.7572 89.7539 84.7882 89.7616 84.8162 89.7761L88.628 91.7948C89.1765 92.0862 89.7959 92.2177 90.4155 92.1744C91.0352 92.131 91.6302 91.9145 92.1328 91.5496C92.6354 91.1847 93.0255 90.6859 93.2586 90.1102C93.4917 89.5344 93.5584 88.9048 93.4512 88.293L92.7066 84.0403C92.7014 84.0094 92.7038 83.9777 92.7137 83.9479C92.7235 83.9182 92.7404 83.8913 92.763 83.8695L95.862 80.8681C96.3081 80.4362 96.6241 79.8877 96.774 79.2852C96.9239 78.6826 96.9017 78.05 96.71 77.4594C96.5183 76.8688 96.1648 76.3438 95.6896 75.9441C95.2144 75.5444 94.6366 75.2861 94.0219 75.1984V75.1984Z" fill="#FCD66F"/>
<path d="M76.6847 18.2434C76.7079 18.2654 76.7252 18.2928 76.7351 18.3232C76.745 18.3536 76.747 18.3859 76.7411 18.4173L75.998 22.6684C75.8888 23.2806 75.9541 23.9112 76.1864 24.4879C76.4188 25.0647 76.8088 25.5645 77.3119 25.93C77.815 26.2955 78.4108 26.512 79.0311 26.5548C79.6515 26.5976 80.2714 26.4649 80.8198 26.1719L84.6345 24.1502C84.6628 24.1361 84.6939 24.1289 84.7255 24.1291C84.757 24.1294 84.7881 24.1371 84.8161 24.1516L88.6277 26.1703C89.1762 26.4617 89.7956 26.5933 90.4153 26.5499C91.0349 26.5066 91.63 26.2901 92.1326 25.9252C92.6353 25.5603 93.0254 25.0615 93.2585 24.4857C93.4916 23.9099 93.5583 23.2803 93.4511 22.6684L92.7064 18.4158C92.7012 18.3849 92.7037 18.3532 92.7135 18.3234C92.7233 18.2937 92.7402 18.2667 92.7628 18.245L95.8619 15.2436C96.3081 14.8117 96.6242 14.2632 96.7742 13.6605C96.9241 13.0579 96.902 12.4253 96.7103 11.8346C96.5186 11.2439 96.165 10.7188 95.6897 10.3191C95.2144 9.91936 94.6365 9.66102 94.0217 9.57344L89.7508 8.96765C89.7192 8.96348 89.6892 8.95152 89.6633 8.93287C89.6375 8.91422 89.6167 8.88945 89.6028 8.86078L87.7045 4.98437C87.4339 4.42517 87.0106 3.95388 86.4836 3.62489C85.9566 3.2959 85.3474 3.1226 84.7261 3.125H84.7245C84.1028 3.12236 83.493 3.29553 82.9655 3.62451C82.4379 3.9535 82.0141 4.42491 81.743 4.98437L79.8463 8.85937C79.8324 8.88779 79.8119 8.91239 79.7863 8.93102C79.7608 8.94965 79.7311 8.96175 79.6998 8.96625L75.4273 9.57203C74.8124 9.65932 74.2342 9.91745 73.7587 10.3171C73.2832 10.7167 72.9293 11.2417 72.7374 11.8325C72.5456 12.4233 72.5233 13.056 72.6733 13.6588C72.8232 14.2616 73.1393 14.8102 73.5856 15.2422L76.6847 18.2434ZM75.8667 12.6678L80.1406 12.0625C80.6769 11.9859 81.1862 11.7792 81.6242 11.4606C82.0623 11.1419 82.4157 10.721 82.6537 10.2344L84.5505 6.35937C84.5642 6.32505 84.5884 6.29597 84.6197 6.27631C84.651 6.25665 84.6877 6.24744 84.7245 6.25C84.7608 6.24734 84.797 6.25625 84.8279 6.27546C84.8588 6.29466 84.8827 6.32317 84.8964 6.35687V6.35828L86.7931 10.2311C87.0308 10.7187 87.3844 11.1406 87.8229 11.4598C88.2615 11.779 88.7717 11.9858 89.3088 12.062L93.5797 12.6678C93.6155 12.6728 93.6492 12.6877 93.677 12.7108C93.7047 12.734 93.7255 12.7645 93.7367 12.7989C93.748 12.8332 93.7494 12.87 93.7408 12.9052C93.7322 12.9403 93.7139 12.9723 93.688 12.9975L90.5884 16C90.1995 16.3767 89.9086 16.8428 89.7413 17.3578C89.574 17.8728 89.5354 18.4209 89.6288 18.9542L90.3717 23.2053C90.3809 23.2411 90.3784 23.2788 90.3647 23.3131C90.351 23.3473 90.3267 23.3763 90.2955 23.3959C90.2674 23.4199 90.2324 23.4341 90.1956 23.4366C90.1588 23.4391 90.1221 23.4296 90.0911 23.4097L86.2794 21.3906C85.801 21.136 85.2675 21.0029 84.7256 21.0029C84.1838 21.0029 83.6502 21.136 83.1719 21.3906L79.3572 23.4108C79.3264 23.4306 79.2899 23.44 79.2533 23.4376C79.2168 23.4351 79.1819 23.4209 79.1541 23.397C79.1228 23.3774 79.0986 23.3484 79.0849 23.3141C79.0711 23.2799 79.0686 23.2422 79.0777 23.2064L79.8208 18.9583C79.9144 18.4241 79.8757 17.8752 79.7081 17.3594C79.5406 16.8437 79.2492 16.3768 78.8595 15.9997L75.7584 12.9975C75.7327 12.9722 75.7146 12.9402 75.706 12.9051C75.6975 12.8701 75.699 12.8333 75.7102 12.799C75.7215 12.7648 75.7421 12.7343 75.7698 12.7111C75.7974 12.6879 75.831 12.6729 75.8667 12.6678V12.6678ZM67.1875 3.125H4.6875C4.48228 3.12488 4.27904 3.16521 4.08941 3.24369C3.89978 3.32217 3.72749 3.43725 3.58237 3.58237C3.43725 3.72749 3.32217 3.89978 3.24369 4.08941C3.16521 4.27904 3.12488 4.48227 3.125 4.6875V29.6875C3.12502 29.9612 3.19692 30.23 3.3335 30.4672C3.47008 30.7043 3.66655 30.9015 3.90325 31.0388C4.13996 31.1762 4.40859 31.249 4.68226 31.2499C4.95593 31.2508 5.22504 31.1798 5.46266 31.0441L16.0402 25H67.1875C67.6019 25 67.9993 24.8354 68.2924 24.5424C68.5854 24.2493 68.75 23.8519 68.75 23.4375V4.6875C68.75 4.2731 68.5854 3.87567 68.2924 3.58264C67.9993 3.28962 67.6019 3.125 67.1875 3.125V3.125ZM65.625 21.875H15.625C15.3531 21.8754 15.0861 21.9464 14.8498 22.0809L6.25 26.9944V6.25H65.625V21.875Z" fill="#2F80ED"/>
<path d="M20.3125 15.625H51.5625C51.9769 15.625 52.3743 15.4604 52.6674 15.1674C52.9604 14.8743 53.125 14.4769 53.125 14.0625C53.125 13.6481 52.9604 13.2507 52.6674 12.9576C52.3743 12.6646 51.9769 12.5 51.5625 12.5H20.3125C19.8981 12.5 19.5007 12.6646 19.2076 12.9576C18.9146 13.2507 18.75 13.6481 18.75 14.0625C18.75 14.4769 18.9146 14.8743 19.2076 15.1674C19.5007 15.4604 19.8981 15.625 20.3125 15.625V15.625ZM94.0217 42.3859L89.7508 41.7802C89.7192 41.776 89.6892 41.764 89.6633 41.7454C89.6375 41.7267 89.6167 41.7019 89.6028 41.6733L87.7045 37.7983C87.4341 37.2388 87.0109 36.7672 86.4839 36.438C85.9569 36.1087 85.3475 35.9352 84.7261 35.9375H84.7245C84.1028 35.9349 83.493 36.108 82.9655 36.437C82.4379 36.766 82.0141 37.2374 81.743 37.7969L79.8463 41.6719C79.8324 41.7003 79.8119 41.7249 79.7863 41.7435C79.7608 41.7622 79.7311 41.7742 79.6998 41.7787L75.4273 42.3845C74.8124 42.4718 74.2342 42.73 73.7587 43.1296C73.2832 43.5292 72.9293 44.0542 72.7374 44.645C72.5456 45.2358 72.5233 45.8685 72.6733 46.4713C72.8232 47.0741 73.1393 47.6227 73.5856 48.0547L76.6847 51.0547C76.7079 51.0766 76.7252 51.104 76.7351 51.1344C76.745 51.1648 76.747 51.1972 76.7411 51.2286L75.998 55.4797C75.8888 56.0919 75.9541 56.7224 76.1864 57.2992C76.4188 57.876 76.8088 58.3757 77.3119 58.7412C77.815 59.1068 78.4108 59.3233 79.0311 59.3661C79.6515 59.4088 80.2714 59.2761 80.8198 58.9831L84.6345 56.9614C84.6628 56.9473 84.6939 56.9401 84.7255 56.9404C84.757 56.9406 84.7881 56.9483 84.8161 56.9628L88.6277 58.9816C89.1762 59.273 89.7956 59.4045 90.4153 59.3612C91.0349 59.3178 91.63 59.1014 92.1326 58.7364C92.6353 58.3715 93.0254 57.8728 93.2585 57.297C93.4916 56.7212 93.5583 56.0915 93.4511 55.4797L92.7064 51.227C92.7012 51.1961 92.7037 51.1644 92.7135 51.1347C92.7233 51.1049 92.7402 51.078 92.7628 51.0562L95.8619 48.0548C96.3081 47.6229 96.6242 47.0744 96.7742 46.4718C96.9241 45.8692 96.902 45.2365 96.7103 44.6458C96.5186 44.0551 96.165 43.5301 95.6897 43.1303C95.2144 42.7306 94.6365 42.4723 94.0217 42.3847V42.3859ZM93.6891 45.81L90.5884 48.8125C90.1995 49.1892 89.9086 49.6553 89.7413 50.1703C89.574 50.6853 89.5354 51.2334 89.6288 51.7667L90.3717 56.0178C90.3809 56.0536 90.3784 56.0913 90.3647 56.1256C90.351 56.1598 90.3267 56.1888 90.2955 56.2084C90.2674 56.2324 90.2324 56.2466 90.1956 56.2491C90.1588 56.2516 90.1221 56.2421 90.0911 56.2222L86.2794 54.2031C85.801 53.9485 85.2675 53.8154 84.7256 53.8154C84.1838 53.8154 83.6502 53.9485 83.1719 54.2031L79.3572 56.2233C79.3264 56.2431 79.2899 56.2525 79.2533 56.2501C79.2168 56.2476 79.1819 56.2334 79.1541 56.2095C79.1228 56.1899 79.0986 56.1609 79.0849 56.1266C79.0711 56.0924 79.0686 56.0547 79.0777 56.0189L79.8208 51.7708C79.9144 51.2366 79.8757 50.6877 79.7081 50.1719C79.5406 49.6562 79.2492 49.1893 78.8595 48.8122L75.7589 45.8108C75.7332 45.7855 75.715 45.7535 75.7065 45.7184C75.698 45.6834 75.6994 45.6466 75.7107 45.6123C75.722 45.578 75.7426 45.5476 75.7702 45.5244C75.7979 45.5012 75.8315 45.4862 75.8672 45.4811L80.1406 44.875C80.6769 44.7984 81.1862 44.5917 81.6242 44.2731C82.0623 43.9544 82.4157 43.5335 82.6537 43.0469L84.5505 39.1711C84.5643 39.1369 84.5886 39.108 84.6198 39.0885C84.6511 39.069 84.6878 39.0599 84.7245 39.0625C84.7608 39.0598 84.797 39.0688 84.8279 39.088C84.8588 39.1072 84.8827 39.1357 84.8964 39.1694V39.1708L86.7931 43.0436C87.0308 43.5312 87.3844 43.9531 87.8229 44.2723C88.2615 44.5915 88.7717 44.7983 89.3088 44.8745L93.5797 45.4803C93.6155 45.4853 93.6492 45.5002 93.677 45.5233C93.7047 45.5465 93.7255 45.577 93.7367 45.6114C93.748 45.6457 93.7494 45.6825 93.7408 45.7177C93.7322 45.7528 93.7139 45.7848 93.688 45.81H93.6891ZM67.1875 35.9375H4.6875C4.48228 35.9374 4.27904 35.9777 4.08941 36.0562C3.89978 36.1347 3.72749 36.2498 3.58237 36.3949C3.43725 36.54 3.32217 36.7123 3.24369 36.9019C3.16521 37.0915 3.12488 37.2948 3.125 37.5V62.5C3.12502 62.7737 3.19692 63.0425 3.3335 63.2797C3.47008 63.5168 3.66655 63.714 3.90325 63.8513C4.13996 63.9887 4.40859 64.0615 4.68226 64.0624C4.95593 64.0633 5.22504 63.9923 5.46266 63.8566L16.0402 57.8125H67.1875C67.6019 57.8125 67.9993 57.6479 68.2924 57.3549C68.5854 57.0618 68.75 56.6644 68.75 56.25V37.5C68.75 37.0856 68.5854 36.6882 68.2924 36.3951C67.9993 36.1021 67.6019 35.9375 67.1875 35.9375ZM65.625 54.6875H15.625C15.3531 54.6879 15.0861 54.7589 14.8498 54.8934L6.25 59.8069V39.0625H65.625V54.6875Z" fill="#2F80ED"/>
<path d="M20.3125 48.4375H51.5625C51.9769 48.4375 52.3743 48.2729 52.6674 47.9799C52.9604 47.6868 53.125 47.2894 53.125 46.875C53.125 46.4606 52.9604 46.0632 52.6674 45.7701C52.3743 45.4771 51.9769 45.3125 51.5625 45.3125H20.3125C19.8981 45.3125 19.5007 45.4771 19.2076 45.7701C18.9146 46.0632 18.75 46.4606 18.75 46.875C18.75 47.2894 18.9146 47.6868 19.2076 47.9799C19.5007 48.2729 19.8981 48.4375 20.3125 48.4375V48.4375ZM94.0217 75.1984L89.7508 74.5927C89.7192 74.5885 89.6892 74.5765 89.6633 74.5579C89.6375 74.5392 89.6167 74.5144 89.6028 74.4858L87.7045 70.6094C87.4339 70.0502 87.0106 69.5789 86.4836 69.2499C85.9566 68.9209 85.3474 68.7476 84.7261 68.75H84.7245C84.1028 68.7474 83.493 68.9205 82.9655 69.2495C82.4379 69.5785 82.0141 70.0499 81.743 70.6094L79.8463 74.4852C79.8324 74.5136 79.8119 74.5382 79.7863 74.5568C79.7608 74.5754 79.7311 74.5875 79.6998 74.592L75.4273 75.1978C74.8124 75.2851 74.2342 75.5432 73.7587 75.9428C73.2832 76.3425 72.9293 76.8675 72.7374 77.4583C72.5456 78.049 72.5233 78.6818 72.6733 79.2846C72.8232 79.8874 73.1393 80.436 73.5856 80.868L76.6847 83.868C76.7079 83.8899 76.7252 83.9173 76.7351 83.9477C76.745 83.9781 76.747 84.0105 76.7411 84.0419L75.998 88.293C75.8888 88.9051 75.9541 89.5357 76.1864 90.1125C76.4188 90.6893 76.8088 91.189 77.3119 91.5545C77.815 91.92 78.4108 92.1366 79.0311 92.1793C79.6515 92.2221 80.2714 92.0894 80.8198 91.7964L84.6345 89.7747C84.6628 89.7606 84.6939 89.7534 84.7255 89.7537C84.757 89.7539 84.7881 89.7616 84.8161 89.7761L88.6277 91.7948C89.1762 92.0863 89.7956 92.2178 90.4153 92.1745C91.0349 92.1311 91.63 91.9147 92.1326 91.5497C92.6353 91.1848 93.0254 90.686 93.2585 90.1102C93.4916 89.5345 93.5583 88.9048 93.4511 88.293L92.7064 84.0403C92.7012 84.0094 92.7037 83.9777 92.7135 83.9479C92.7233 83.9182 92.7402 83.8913 92.7628 83.8695L95.8619 80.8681C96.3081 80.4362 96.6242 79.8877 96.7742 79.2851C96.9241 78.6824 96.902 78.0498 96.7103 77.4591C96.5186 76.8684 96.165 76.3433 95.6897 75.9436C95.2144 75.5439 94.6365 75.2856 94.0217 75.198V75.1984ZM93.6891 78.6225L90.5884 81.625C90.1995 82.0017 89.9086 82.4678 89.7413 82.9828C89.574 83.4978 89.5354 84.0459 89.6288 84.5792L90.3717 88.8303C90.3809 88.8661 90.3784 88.9038 90.3647 88.9381C90.351 88.9723 90.3267 89.0013 90.2955 89.0209C90.2674 89.0449 90.2324 89.0591 90.1956 89.0616C90.1588 89.0641 90.1221 89.0546 90.0911 89.0347L86.2794 87.0156C85.801 86.761 85.2675 86.6279 84.7256 86.6279C84.1838 86.6279 83.6502 86.761 83.1719 87.0156L79.3572 89.0358C79.3264 89.0556 79.2899 89.065 79.2533 89.0626C79.2168 89.0601 79.1819 89.0459 79.1541 89.022C79.1228 89.0024 79.0986 88.9734 79.0849 88.9391C79.0711 88.9049 79.0686 88.8672 79.0777 88.8314L79.8208 84.5833C79.9144 84.0491 79.8757 83.5002 79.7081 82.9844C79.5406 82.4687 79.2492 82.0018 78.8595 81.6247L75.7589 78.6233C75.7332 78.598 75.715 78.566 75.7065 78.5309C75.698 78.4959 75.6994 78.4591 75.7107 78.4248C75.722 78.3905 75.7426 78.3601 75.7702 78.3369C75.7979 78.3137 75.8315 78.2987 75.8672 78.2936L80.1406 77.6875C80.6769 77.6109 81.1862 77.4042 81.6242 77.0856C82.0623 76.7669 82.4157 76.3459 82.6537 75.8594L84.5505 71.9844C84.5642 71.9501 84.5884 71.921 84.6197 71.9013C84.651 71.8816 84.6877 71.8724 84.7245 71.875C84.7608 71.8723 84.797 71.8812 84.8279 71.9005C84.8588 71.9197 84.8827 71.9482 84.8964 71.9819V71.9833L86.7931 75.8561C87.0308 76.3437 87.3844 76.7656 87.8229 77.0848C88.2615 77.404 88.7717 77.6108 89.3088 77.687L93.5797 78.2928C93.6155 78.2978 93.6492 78.3127 93.677 78.3358C93.7047 78.359 93.7255 78.3895 93.7367 78.4239C93.748 78.4582 93.7494 78.495 93.7408 78.5302C93.7322 78.5653 93.7139 78.5973 93.688 78.6225H93.6891ZM67.1875 68.75H4.6875C4.48228 68.7499 4.27904 68.7902 4.08941 68.8687C3.89978 68.9472 3.72749 69.0623 3.58237 69.2074C3.43725 69.3525 3.32217 69.5248 3.24369 69.7144C3.16521 69.904 3.12488 70.1073 3.125 70.3125V95.3125C3.12502 95.5862 3.19692 95.855 3.3335 96.0922C3.47008 96.3293 3.66655 96.5265 3.90325 96.6638C4.13996 96.8012 4.40859 96.874 4.68226 96.8749C4.95593 96.8758 5.22504 96.8048 5.46266 96.6691L16.0402 90.625H67.1875C67.6019 90.625 67.9993 90.4604 68.2924 90.1673C68.5854 89.8743 68.75 89.4769 68.75 89.0625V70.3125C68.75 69.8981 68.5854 69.5007 68.2924 69.2076C67.9993 68.9146 67.6019 68.75 67.1875 68.75ZM65.625 87.5H15.625C15.3531 87.5004 15.0861 87.5714 14.8498 87.7059L6.25 92.6194V71.875H65.625V87.5Z" fill="#2F80ED"/>
<path d="M20.3125 81.25H51.5625C51.9769 81.25 52.3743 81.0854 52.6674 80.7924C52.9604 80.4993 53.125 80.1019 53.125 79.6875C53.125 79.2731 52.9604 78.8757 52.6674 78.5826C52.3743 78.2896 51.9769 78.125 51.5625 78.125H20.3125C19.8981 78.125 19.5007 78.2896 19.2076 78.5826C18.9146 78.8757 18.75 79.2731 18.75 79.6875C18.75 80.1019 18.9146 80.4993 19.2076 80.7924C19.5007 81.0854 19.8981 81.25 20.3125 81.25V81.25Z" fill="#2F80ED"/>
</svg>
