<svg width="100" height="100" viewBox="0 0 100 100" fill="none" xmlns="http://www.w3.org/2000/svg">
<g clip-path="url(#clip0_2_296)">
<path d="M70.8333 18.9375C70.4483 14.0518 68.3531 9.4582 64.9162 5.96443C61.4794 2.47066 56.9208 0.300363 52.0421 -0.164871C47.1634 -0.630105 42.2768 0.639509 38.2415 3.42074C34.2063 6.20198 31.2807 10.3168 29.9792 15.0417C27.0679 15.8525 24.549 17.6906 22.8886 20.2156C21.2283 22.7407 20.5389 25.7818 20.9481 28.776C21.3574 31.7702 22.8375 34.5148 25.1145 36.5017C27.3915 38.4887 30.3113 39.5834 33.3333 39.5833H37.5C38.0525 39.5833 38.5824 39.3638 38.9731 38.9731C39.3638 38.5824 39.5833 38.0525 39.5833 37.5C39.5833 36.9475 39.3638 36.4176 38.9731 36.0269C38.5824 35.6362 38.0525 35.4167 37.5 35.4167H33.3333C31.1232 35.4167 29.0036 34.5387 27.4408 32.9759C25.878 31.4131 25 29.2935 25 27.0833C25.0042 25.1073 25.7104 23.1971 26.9926 21.6936C28.2747 20.1901 30.0495 19.1911 32 18.875C33.1349 18.7005 34.2917 18.7287 35.4167 18.9583C35.9692 19.0163 36.5221 18.8525 36.9539 18.5028C37.3856 18.1531 37.6607 17.6463 37.7187 17.0937C37.7768 16.5412 37.6129 15.9883 37.2632 15.5565C36.9136 15.1248 36.4067 14.8497 35.8542 14.7917C35.4139 14.6974 34.9688 14.6279 34.5208 14.5833C35.8708 11.0774 38.3656 8.13046 41.6006 6.22042C44.8356 4.31037 48.6211 3.5493 52.3429 4.06067C56.0648 4.57203 59.5047 6.32582 62.1047 9.03757C64.7047 11.7493 66.3123 15.2599 66.6667 19L66.2083 19.1042C65.6558 19.1788 65.1555 19.4698 64.8176 19.9132C64.4796 20.3567 64.3317 20.9162 64.4063 21.4687C64.4808 22.0213 64.7719 22.5216 65.2153 22.8595C65.6588 23.1975 66.2183 23.3454 66.7708 23.2708C67.422 23.109 68.0832 22.9907 68.75 22.9167C70.4076 22.9167 71.9973 23.5751 73.1694 24.7472C74.3415 25.9193 75 27.5091 75 29.1667C75 30.8243 74.3415 32.414 73.1694 33.5861C71.9973 34.7582 70.4076 35.4167 68.75 35.4167H62.5C61.9475 35.4167 61.4176 35.6362 61.0269 36.0269C60.6362 36.4176 60.4167 36.9475 60.4167 37.5C60.4167 38.0525 60.6362 38.5824 61.0269 38.9731C61.4176 39.3638 61.9475 39.5833 62.5 39.5833H68.75C71.352 39.6132 73.871 38.668 75.8112 36.9339C77.7513 35.1997 78.9722 32.8022 79.2334 30.2132C79.4947 27.6241 78.7774 25.031 77.2228 22.9442C75.6682 20.8575 73.3889 19.4281 70.8333 18.9375V18.9375Z" fill="#2F80ED"/>
<path d="M37.5 71.6875V89.5833H16.6667V85.4167L4.16665 71.1042C2.83157 69.5904 2.09129 67.6434 2.08332 65.625V33.6875C2.03636 32.0299 2.64979 30.4215 3.78869 29.2162C4.92758 28.0109 6.49864 27.3074 8.15624 27.2604C9.81384 27.2134 11.4222 27.8269 12.6275 28.9658C13.8328 30.1047 14.5364 31.6757 14.5833 33.3333V52.7708C15.7875 51.8999 17.2626 51.4865 18.7439 51.6049C20.2253 51.7232 21.6161 52.3656 22.6667 53.4167L35.0625 65.7917C35.8361 66.5661 36.4496 67.4855 36.8678 68.4971C37.286 69.5087 37.5008 70.5928 37.5 71.6875ZM62.5 71.6875V89.5833H83.3333V85.4167L95.8333 71.1042C97.1684 69.5904 97.9087 67.6434 97.9167 65.625V33.6875C97.9399 32.8667 97.8013 32.0494 97.5087 31.2822C97.2161 30.5151 96.7752 29.813 96.2113 29.2162C95.6474 28.6194 94.9714 28.1395 94.222 27.8039C93.4726 27.4684 92.6645 27.2837 91.8437 27.2604C91.023 27.2372 90.2057 27.3758 89.4385 27.6684C88.6713 27.961 87.9693 28.4019 87.3725 28.9658C86.7756 29.5297 86.2958 30.2057 85.9602 30.955C85.6246 31.7044 85.4399 32.5126 85.4167 33.3333V52.7708C84.2125 51.8999 82.7374 51.4865 81.256 51.6049C79.7746 51.7232 78.3839 52.3656 77.3333 53.4167L64.9375 65.7917C64.1639 66.5661 63.5504 67.4855 63.1322 68.4971C62.7139 69.5087 62.4991 70.5928 62.5 71.6875Z" fill="#DFDFDF"/>
<path d="M39.5833 37.5H35.4167V45.8333H39.5833V37.5Z" fill="#2F80ED"/>
<path d="M60.4167 45.8333H64.5833V37.5H60.4167V45.8333Z" fill="#2F80ED"/>
<path d="M41.6667 87.5H39.5833V71.6875C39.583 70.3172 39.3124 68.9604 38.7869 67.6949C38.2613 66.4293 37.4913 65.2799 36.5208 64.3125L24.1458 51.9583C23.1905 50.981 22.0052 50.2591 20.6985 49.8588C19.3918 49.4584 18.0055 49.3923 16.6667 49.6667V33.3333C16.6197 31.1232 15.6967 29.0222 14.1007 27.4926C12.5047 25.963 10.3664 25.1301 8.15624 25.1771C5.9461 25.224 3.84514 26.1471 2.31555 27.7431C0.785958 29.3391 -0.0469739 31.4774 -8.47133e-06 33.6875V65.625C0.00292698 68.1471 0.92083 70.5825 2.58332 72.4792L14.5833 86.2083V87.5H12.5C11.9475 87.5 11.4176 87.7195 11.0269 88.1102C10.6362 88.5009 10.4167 89.0308 10.4167 89.5833V97.9167C10.4167 98.4692 10.6362 98.9991 11.0269 99.3898C11.4176 99.7805 11.9475 100 12.5 100H41.6667C42.2192 100 42.7491 99.7805 43.1398 99.3898C43.5305 98.9991 43.75 98.4692 43.75 97.9167V89.5833C43.75 89.0308 43.5305 88.5009 43.1398 88.1102C42.7491 87.7195 42.2192 87.5 41.6667 87.5ZM5.70832 69.7292C4.70148 68.576 4.15291 67.0933 4.16666 65.5625V33.6875C4.09455 32.8357 4.28617 31.9824 4.71552 31.2432C5.14487 30.504 5.79117 29.9148 6.56678 29.5555C7.34238 29.1961 8.20975 29.084 9.05124 29.2343C9.89273 29.3846 10.6676 29.7901 11.2708 30.3958C12.0533 31.1736 12.4953 32.23 12.5 33.3333C12.5 53.3333 12.5 51.7292 12.375 51.9375C11.6002 52.7114 10.9855 53.6305 10.5662 54.6422C10.1468 55.6538 9.93094 56.7382 9.93094 57.8333C9.93094 58.9285 10.1468 60.0128 10.5662 61.0245C10.9855 62.0361 11.6002 62.9552 12.375 63.7292L21.4375 72.9167C21.6312 73.1119 21.8616 73.2669 22.1155 73.3727C22.3693 73.4784 22.6416 73.5329 22.9167 73.5329C23.1917 73.5329 23.464 73.4784 23.7179 73.3727C23.9717 73.2669 24.2022 73.1119 24.3958 72.9167C24.7838 72.5263 25.0016 71.9983 25.0016 71.4479C25.0016 70.8975 24.7838 70.3695 24.3958 69.9792L15.2917 60.7708C14.8787 60.344 14.5618 59.8338 14.3621 59.2744C14.1624 58.7151 14.0847 58.1195 14.134 57.5276C14.1833 56.9358 14.3586 56.3613 14.6481 55.8427C14.9376 55.3241 15.3346 54.8734 15.8125 54.5208C16.6149 53.9448 17.5958 53.6726 18.5803 53.7527C19.5648 53.8329 20.4888 54.2601 21.1875 54.9583L33.6875 67.3333C34.8066 68.5056 35.4266 70.0668 35.4167 71.6875V87.5H18.75V85.4167C18.75 84.2917 19.1458 85.1042 5.70832 69.7292ZM39.5833 95.8333H14.5833V91.6667H39.5833V95.8333ZM92.2708 25C91.1267 24.9168 89.9778 25.0708 88.896 25.4521C87.8141 25.8335 86.8227 26.4342 85.9837 27.2164C85.1447 27.9987 84.4763 28.9458 84.0202 29.9983C83.5641 31.0509 83.3303 32.1862 83.3333 33.3333V49.7083C81.9993 49.4555 80.624 49.526 79.3228 49.9138C78.0215 50.3016 76.8321 50.9956 75.8542 51.9375L63.4792 64.3125C62.5031 65.2757 61.7294 66.4244 61.2034 67.6908C60.6775 68.9573 60.41 70.3162 60.4167 71.6875V87.5H58.3333C57.7808 87.5 57.2509 87.7195 56.8602 88.1102C56.4695 88.5009 56.25 89.0308 56.25 89.5833V97.9167C56.25 98.4692 56.4695 98.9991 56.8602 99.3898C57.2509 99.7805 57.7808 100 58.3333 100H87.5C88.0525 100 88.5824 99.7805 88.9731 99.3898C89.3638 98.9991 89.5833 98.4692 89.5833 97.9167V89.5833C89.5833 89.0308 89.3638 88.5009 88.9731 88.1102C88.5824 87.7195 88.0525 87.5 87.5 87.5H85.4167V86.2083L97.4167 72.4792C99.0791 70.5825 99.9971 68.1471 100 65.625V33.6875C100.047 31.5311 99.2756 29.4369 97.8419 27.8255C96.4082 26.2141 94.418 25.2047 92.2708 25V25ZM85.4167 95.8333H60.4167V91.6667H85.4167V95.8333ZM95.8333 65.625C95.8471 67.1558 95.2985 68.6385 94.2917 69.7917L81.7917 84.1042C81.125 84.7708 81.25 85.4167 81.25 87.5H64.5833V71.6875C64.5848 70.0304 65.2442 68.4418 66.4167 67.2708L78.8125 54.875C79.5189 54.1722 80.4537 53.7459 81.4475 53.6733C82.4412 53.6007 83.4281 53.8866 84.2292 54.4792C84.7027 54.8365 85.0945 55.2909 85.3783 55.812C85.6621 56.333 85.8313 56.9086 85.8747 57.5003C85.9181 58.092 85.8347 58.6861 85.6299 59.243C85.4252 59.7998 85.1039 60.3065 84.6875 60.7292L75.6042 69.8333C75.2161 70.2237 74.9983 70.7517 74.9983 71.3021C74.9983 71.8525 75.2161 72.3805 75.6042 72.7708C75.7978 72.9661 76.0283 73.1211 76.2821 73.2268C76.536 73.3326 76.8083 73.3871 77.0833 73.3871C77.3583 73.3871 77.6306 73.3326 77.8845 73.2268C78.1384 73.1211 78.3688 72.9661 78.5625 72.7708L87.625 63.6875C88.3998 62.9135 89.0144 61.9945 89.4338 60.9828C89.8532 59.9712 90.069 58.8868 90.069 57.7917C90.069 56.6965 89.8532 55.6121 89.4338 54.6005C89.0144 53.5888 88.3998 52.6698 87.625 51.8958C87.4167 51.6875 87.4792 53.3125 87.4792 33.2917C87.4775 32.7172 87.5947 32.1485 87.8234 31.6215C88.0521 31.0945 88.3872 30.6204 88.8079 30.2291C89.2285 29.8379 89.7255 29.5378 90.2677 29.3478C90.8098 29.1577 91.3854 29.0819 91.9583 29.125C93.0591 29.2601 94.0687 29.8044 94.7866 30.6497C95.5046 31.4949 95.8782 32.5794 95.8333 33.6875V65.625Z" fill="#2F80ED"/>
<path d="M43.75 10.4167L39.5833 16.6667H41.6667V22.9167H45.8333V16.6667H47.9167L43.75 10.4167Z" fill="#F2C94C"/>
<path d="M56.25 22.9167L60.4167 16.6667H58.3333V10.4167H54.1667V16.6667H52.0833L56.25 22.9167Z" fill="#F2C94C"/>
<path d="M64.5833 27.0833H35.4167C34.8641 27.0833 34.3342 27.3028 33.9435 27.6935C33.5528 28.0842 33.3333 28.6141 33.3333 29.1667V37.5C33.3333 38.0525 33.5528 38.5824 33.9435 38.9732C34.3342 39.3639 34.8641 39.5833 35.4167 39.5833H64.5833C65.1359 39.5833 65.6658 39.3639 66.0565 38.9732C66.4472 38.5824 66.6667 38.0525 66.6667 37.5V29.1667C66.6667 28.6141 66.4472 28.0842 66.0565 27.6935C65.6658 27.3028 65.1359 27.0833 64.5833 27.0833ZM39.5833 35.4167C39.1713 35.4167 38.7685 35.2945 38.4259 35.0656C38.0833 34.8367 37.8163 34.5113 37.6586 34.1306C37.5009 33.7499 37.4597 33.331 37.54 32.9269C37.6204 32.5228 37.8188 32.1516 38.1102 31.8602C38.4016 31.5688 38.7728 31.3704 39.1769 31.29C39.581 31.2097 39.9999 31.2509 40.3806 31.4086C40.7613 31.5663 41.0867 31.8333 41.3156 32.1759C41.5445 32.5185 41.6667 32.9213 41.6667 33.3333C41.6667 33.8859 41.4472 34.4158 41.0565 34.8065C40.6658 35.1972 40.1359 35.4167 39.5833 35.4167ZM45.8333 35.4167C45.4213 35.4167 45.0185 35.2945 44.6759 35.0656C44.3333 34.8367 44.0663 34.5113 43.9086 34.1306C43.7509 33.7499 43.7097 33.331 43.79 32.9269C43.8704 32.5228 44.0688 32.1516 44.3602 31.8602C44.6516 31.5688 45.0228 31.3704 45.4269 31.29C45.831 31.2097 46.2499 31.2509 46.6306 31.4086C47.0113 31.5663 47.3367 31.8333 47.5656 32.1759C47.7945 32.5185 47.9167 32.9213 47.9167 33.3333C47.9167 33.8859 47.6972 34.4158 47.3065 34.8065C46.9158 35.1972 46.3859 35.4167 45.8333 35.4167ZM60.4167 35.4167H56.25C55.6975 35.4167 55.1676 35.1972 54.7769 34.8065C54.3862 34.4158 54.1667 33.8859 54.1667 33.3333C54.1667 32.7808 54.3862 32.2509 54.7769 31.8602C55.1676 31.4695 55.6975 31.25 56.25 31.25H60.4167C60.9692 31.25 61.4991 31.4695 61.8898 31.8602C62.2805 32.2509 62.5 32.7808 62.5 33.3333C62.5 33.8859 62.2805 34.4158 61.8898 34.8065C61.4991 35.1972 60.9692 35.4167 60.4167 35.4167ZM64.5833 43.75H35.4167C34.8641 43.75 34.3342 43.9695 33.9435 44.3602C33.5528 44.7509 33.3333 45.2808 33.3333 45.8333V54.1667C33.3333 54.7192 33.5528 55.2491 33.9435 55.6398C34.3342 56.0305 34.8641 56.25 35.4167 56.25H64.5833C65.1359 56.25 65.6658 56.0305 66.0565 55.6398C66.4472 55.2491 66.6667 54.7192 66.6667 54.1667V45.8333C66.6667 45.2808 66.4472 44.7509 66.0565 44.3602C65.6658 43.9695 65.1359 43.75 64.5833 43.75ZM39.5833 52.0833C39.1713 52.0833 38.7685 51.9612 38.4259 51.7322C38.0833 51.5033 37.8163 51.1779 37.6586 50.7973C37.5009 50.4166 37.4597 49.9977 37.54 49.5936C37.6204 49.1894 37.8188 48.8182 38.1102 48.5269C38.4016 48.2355 38.7728 48.0371 39.1769 47.9567C39.581 47.8763 39.9999 47.9176 40.3806 48.0753C40.7613 48.2329 41.0867 48.5 41.3156 48.8426C41.5445 49.1852 41.6667 49.588 41.6667 50C41.6667 50.5525 41.4472 51.0824 41.0565 51.4731C40.6658 51.8639 40.1359 52.0833 39.5833 52.0833ZM45.8333 52.0833C45.4213 52.0833 45.0185 51.9612 44.6759 51.7322C44.3333 51.5033 44.0663 51.1779 43.9086 50.7973C43.7509 50.4166 43.7097 49.9977 43.79 49.5936C43.8704 49.1894 44.0688 48.8182 44.3602 48.5269C44.6516 48.2355 45.0228 48.0371 45.4269 47.9567C45.831 47.8763 46.2499 47.9176 46.6306 48.0753C47.0113 48.2329 47.3367 48.5 47.5656 48.8426C47.7945 49.1852 47.9167 49.588 47.9167 50C47.9167 50.5525 47.6972 51.0824 47.3065 51.4731C46.9158 51.8639 46.3859 52.0833 45.8333 52.0833ZM60.4167 52.0833H56.25C55.6975 52.0833 55.1676 51.8639 54.7769 51.4731C54.3862 51.0824 54.1667 50.5525 54.1667 50C54.1667 49.4475 54.3862 48.9176 54.7769 48.5269C55.1676 48.1362 55.6975 47.9167 56.25 47.9167H60.4167C60.9692 47.9167 61.4991 48.1362 61.8898 48.5269C62.2805 48.9176 62.5 49.4475 62.5 50C62.5 50.5525 62.2805 51.0824 61.8898 51.4731C61.4991 51.8639 60.9692 52.0833 60.4167 52.0833Z" fill="#F2C94C"/>
</g>
<defs>
<clipPath id="clip0_2_296">
<rect width="100" height="100" fill="white"/>
</clipPath>
</defs>
</svg>
