<svg width="100" height="100" viewBox="0 0 100 100" fill="none" xmlns="http://www.w3.org/2000/svg">
<path d="M93.3594 42.4062C92.1712 40.4484 90.314 38.9872 88.1316 38.2929C85.9491 37.5987 83.5891 37.7184 81.4881 38.63C79.3871 39.5415 77.6874 41.1832 76.7035 43.2513C75.7195 45.3193 75.5179 47.6738 76.1359 49.879C76.7539 52.0842 78.1498 53.991 80.0652 55.2465C81.9806 56.502 84.2859 57.0212 86.5546 56.7082C88.8233 56.3951 90.9019 55.2709 92.4056 53.5436C93.9094 51.8162 94.7367 49.6027 94.7344 47.3125C94.7325 45.5822 94.257 43.8855 93.3594 42.4062V42.4062Z" fill="#F2C94C"/>
<path d="M62.8125 63.0859V31.9609C62.8119 31.9114 62.792 31.8641 62.7569 31.829C62.7219 31.794 62.6746 31.774 62.625 31.7734H37.0469C36.9973 31.774 36.95 31.794 36.915 31.829C36.8799 31.8641 36.86 31.9114 36.8594 31.9609V44.375C36.8672 44.3906 36.875 44.3984 36.8906 44.3984L37.0391 44.5469C37.1098 44.6032 37.1752 44.666 37.2344 44.7344C37.2813 44.7891 37.3281 44.8516 37.375 44.9063C37.4335 44.9708 37.4883 45.0386 37.5391 45.1094C37.5844 45.1639 37.6262 45.2213 37.6641 45.2813C37.7129 45.354 37.7573 45.4297 37.7969 45.5078C37.836 45.5703 37.8672 45.6328 37.8985 45.6875C37.9375 45.7656 37.9766 45.8594 38.0078 45.9375C38.0372 45.9986 38.0633 46.0612 38.086 46.125C38.1194 46.2119 38.1481 46.3006 38.1719 46.3906C38.1937 46.452 38.212 46.5146 38.2266 46.5781C38.25 46.6797 38.2656 46.7813 38.2891 46.8906C38.2969 46.9453 38.3047 47 38.3125 47.0469C38.3281 47.2188 38.3438 47.375 38.3438 47.5313C38.3457 48.0742 38.2397 48.6122 38.0318 49.1138C37.8239 49.6155 37.5183 50.0707 37.1328 50.4531C37.0469 50.5313 36.9531 50.625 36.8594 50.7031V51.9844C36.8672 52 36.875 52 36.8906 52.0156C36.9453 52.0625 36.9922 52.1094 37.0391 52.1484C37.108 52.2096 37.1733 52.2748 37.2344 52.3438C37.2813 52.4063 37.3281 52.4531 37.375 52.5156C37.4335 52.5802 37.4883 52.648 37.5391 52.7188C37.5844 52.7733 37.6262 52.8307 37.6641 52.8906C37.711 52.9688 37.7578 53.0313 37.7969 53.1094C37.836 53.1719 37.8672 53.2344 37.8985 53.2969C37.9375 53.3828 37.9766 53.4688 38.0078 53.5469C38.0372 53.6079 38.0633 53.6705 38.086 53.7344C38.1194 53.8213 38.1481 53.91 38.1719 54C38.1937 54.0614 38.212 54.124 38.2266 54.1875C38.25 54.2969 38.2656 54.3906 38.2891 54.5C38.2969 54.5547 38.3047 54.6094 38.3125 54.6563C38.3281 54.8203 38.3438 54.9844 38.3438 55.1406C38.3468 55.6808 38.242 56.2161 38.0354 56.7151C37.8288 57.2142 37.5246 57.667 37.1406 58.0469C37.0469 58.1406 36.9531 58.2344 36.8594 58.3125V59.5938C36.8672 59.6094 36.875 59.6094 36.8906 59.625C36.9453 59.6719 36.9922 59.7188 37.0391 59.7656C37.108 59.8268 37.1733 59.892 37.2344 59.9609C37.2813 60.0156 37.3281 60.0625 37.375 60.125C37.4335 60.1896 37.4883 60.2574 37.5391 60.3281C37.5844 60.3827 37.6262 60.4401 37.6641 60.5C37.711 60.5781 37.7578 60.6563 37.7969 60.7188C37.836 60.7813 37.8672 60.8438 37.8985 60.9063C37.9396 60.9875 37.9761 61.0709 38.0078 61.1563C38.0372 61.2173 38.0633 61.2799 38.086 61.3438C38.1205 61.4303 38.1492 61.519 38.1719 61.6094C38.1937 61.6708 38.212 61.7334 38.2266 61.7969C38.25 61.9063 38.2656 62 38.2891 62.1094C38.2969 62.1719 38.3047 62.2188 38.3125 62.2656C38.3281 62.4297 38.3438 62.5938 38.3438 62.7578C38.3457 63.2996 38.2396 63.8364 38.0317 64.3368C37.8238 64.8371 37.5182 65.291 37.1328 65.6719C37.0469 65.75 36.9531 65.8438 36.8594 65.9219V67.2188C36.8672 67.2188 36.875 67.2344 36.8906 67.2344C36.944 67.2799 36.9936 67.3295 37.0391 67.3828C37.108 67.444 37.1733 67.5092 37.2344 67.5781C37.2813 67.625 37.3281 67.6875 37.375 67.7344C37.4297 67.7969 37.4844 67.875 37.5391 67.9375C37.5781 68 37.625 68.0625 37.6641 68.125C37.7146 68.1939 37.759 68.2671 37.7969 68.3438C37.836 68.4063 37.8672 68.4688 37.8985 68.5313L38.0156 68.7656C38.0391 68.8281 38.0625 68.8906 38.086 68.9688C38.1239 69.054 38.1527 69.1431 38.1719 69.2344C38.1937 69.2958 38.212 69.3584 38.2266 69.4219C38.25 69.5156 38.2656 69.625 38.2891 69.7266C38.2969 69.7891 38.3047 69.8281 38.3125 69.8906C38.3312 70.0514 38.3416 70.2131 38.3438 70.375C38.3385 71.4654 37.9034 72.5097 37.1328 73.2813C37.0469 73.3672 36.9531 73.4531 36.8594 73.5313V75.6875C36.8591 75.7122 36.8637 75.7367 36.873 75.7596C36.8823 75.7825 36.8961 75.8033 36.9136 75.8208C36.9311 75.8383 36.9519 75.8521 36.9748 75.8614C36.9977 75.8707 37.0222 75.8753 37.0469 75.875H59.4766C59.2743 74.8588 59.1722 73.8252 59.1719 72.7891C59.1707 71.9007 59.2518 71.0141 59.4141 70.1406C59.9056 67.5307 61.078 65.0971 62.8125 63.0859ZM49.6328 63.25C47.7922 63.25 45.9929 62.7041 44.4626 61.6813C42.9323 60.6586 41.7397 59.2049 41.0357 57.5043C40.3317 55.8036 40.1478 53.9323 40.5075 52.1272C40.8672 50.322 41.7541 48.6641 43.0562 47.3631C44.3583 46.0622 46.0169 45.1766 47.8224 44.8185C49.6278 44.4603 51.4989 44.6457 53.199 45.3512C54.8991 46.0566 56.3517 47.2504 57.3732 48.7816C58.3947 50.3128 58.9391 52.1125 58.9375 53.9531C58.9321 56.4185 57.9499 58.7813 56.2058 60.5238C54.4618 62.2664 52.0982 63.2467 49.6328 63.25V63.25Z" fill="white"/>
<path d="M83.0937 61.332L84.1641 62.4648C83.5331 63.0494 82.8165 63.5342 82.0391 63.9023L81.3516 62.4961C81.9875 62.1979 82.5749 61.8055 83.0937 61.332Z" fill="#2F80ED"/>
<path d="M89.6172 45.6719C89.6094 45.8437 89.6016 46.0234 89.5781 46.2031C89.5456 46.5449 89.4908 46.8841 89.4141 47.2187C89.0693 48.6951 88.235 50.0113 87.0469 50.9531C85.9553 51.7465 84.6656 52.2224 83.3203 52.3281C82.8022 52.3936 82.2768 52.3724 81.7656 52.2656C82.2676 52.0584 82.7424 51.7908 83.1797 51.4687C83.2942 51.3742 83.3798 51.2493 83.4268 51.1084C83.4738 50.9675 83.4802 50.8162 83.4453 50.6719C83.4088 50.5264 83.3311 50.3946 83.2217 50.2921C83.1123 50.1896 82.9756 50.1207 82.8281 50.0938C82.3935 50.0432 81.9792 49.8818 81.625 49.625C81.7983 49.5545 81.9381 49.4203 82.0156 49.25C82.0705 49.1343 82.0964 49.0069 82.0909 48.8789C82.0855 48.751 82.0489 48.6263 81.9844 48.5156L81.9375 48.4375C81.8837 48.3477 81.8124 48.2696 81.7279 48.2078C81.6433 48.1461 81.5472 48.102 81.4453 48.0781C81.241 48.0366 81.0471 47.9544 80.8753 47.8363C80.7035 47.7181 80.5572 47.5666 80.4453 47.3906C80.5964 47.3842 80.7422 47.3334 80.8646 47.2444C80.9869 47.1555 81.0802 47.0324 81.1328 46.8906C81.1885 46.7416 81.1982 46.5792 81.1606 46.4246C81.123 46.27 81.0398 46.1302 80.9219 46.0234C80.7219 45.8586 80.5567 45.6555 80.436 45.4262C80.3153 45.1968 80.2414 44.9457 80.2188 44.6875C81.6606 45.8799 83.4581 46.5587 85.3281 46.6172C85.4481 46.6243 85.5679 46.6016 85.677 46.5512C85.786 46.5008 85.8809 46.4241 85.9531 46.3281C86.0293 46.2358 86.0831 46.1271 86.1102 46.0106C86.1373 45.894 86.137 45.7727 86.1094 45.6562C86.0715 45.5135 86.0531 45.3664 86.0547 45.2188C86.0568 44.7373 86.2494 44.2763 86.5906 43.9366C86.9317 43.597 87.3936 43.4062 87.875 43.4063C88.1231 43.4063 88.3684 43.4576 88.5957 43.5571C88.8229 43.6566 89.0271 43.8021 89.1953 43.9844C89.2575 44.05 89.3318 44.1031 89.4141 44.1406C89.3741 44.3205 89.399 44.5086 89.4844 44.6719C89.5297 44.7712 89.5996 44.8572 89.6875 44.9219C89.6117 45.1642 89.5878 45.4197 89.6172 45.6719V45.6719Z" fill="#F2C94C"/>
<path d="M79.289 63.2617L79.7031 64.7617C78.9182 64.9811 78.1196 65.1482 77.3125 65.2617L77.2344 64.7461L77.0859 63.7148C77.8289 63.6093 78.5647 63.4579 79.289 63.2617V63.2617ZM92.3359 43.2344C92.2682 43.1754 92.1949 43.1231 92.1172 43.0781C92.1573 42.977 92.1765 42.8688 92.1739 42.7601C92.1712 42.6514 92.1466 42.5443 92.1015 42.4453C92.0525 42.3396 91.9804 42.2461 91.8906 42.1719C91.7517 42.0532 91.5742 41.9893 91.3916 41.9921C91.2089 41.995 91.0335 42.0645 90.8984 42.1875C90.6008 42.3468 90.2863 42.4726 89.9609 42.5625C89.3627 42.1016 88.6301 41.8491 87.875 41.8437C87.0226 41.8449 86.2019 42.1671 85.5764 42.7462C84.9509 43.3254 84.5666 44.1189 84.5 44.9687C82.8896 44.748 81.429 43.907 80.4297 42.625C80.3536 42.5322 80.2583 42.457 80.1505 42.4044C80.0426 42.3518 79.9246 42.3231 79.8047 42.3203C79.683 42.3226 79.5635 42.3527 79.4551 42.4082C79.3468 42.4637 79.2526 42.5432 79.1797 42.6406C78.9061 43.0908 78.7342 43.5954 78.6762 44.1191C78.6182 44.6427 78.6754 45.1727 78.8437 45.6719C78.7608 45.7442 78.6937 45.8329 78.6467 45.9324C78.5996 46.0319 78.5736 46.14 78.5703 46.25C78.5597 47.1935 78.9219 48.1032 79.5781 48.7812C79.5296 48.949 79.5407 49.1285 79.6094 49.2891C79.8227 49.9536 80.2378 50.5353 80.7969 50.9531C80.207 51.1414 79.5845 51.2053 78.9687 51.1406C78.8271 51.1271 78.6845 51.1525 78.5562 51.214C78.4279 51.2756 78.3189 51.3711 78.2409 51.4901C78.1629 51.6091 78.1189 51.7471 78.1136 51.8893C78.1083 52.0315 78.142 52.1724 78.2109 52.2969C78.2662 52.4147 78.3561 52.5128 78.4687 52.5781C79.7631 53.3934 81.2456 53.8616 82.7734 53.9375C83.0348 53.9322 83.2957 53.9113 83.5547 53.875C85.1783 53.7325 86.7294 53.137 88.0312 52.1562C89.4847 51.0029 90.506 49.3924 90.9297 47.5859C91.0271 47.1799 91.0949 46.7674 91.1328 46.3516C91.1562 46.1562 91.1719 45.9531 91.1797 45.7344V45.5937C91.6358 45.1947 92.0494 44.7497 92.414 44.2656C92.5244 44.112 92.5771 43.9244 92.5628 43.7358C92.5485 43.5471 92.4682 43.3696 92.3359 43.2344ZM81.7656 52.2656C82.2676 52.0584 82.7424 51.7908 83.1797 51.4687C83.2942 51.3742 83.3798 51.2493 83.4268 51.1084C83.4738 50.9675 83.4802 50.8162 83.4453 50.6719C83.4088 50.5264 83.3311 50.3946 83.2217 50.2921C83.1122 50.1896 82.9756 50.1207 82.8281 50.0937C82.3935 50.0432 81.9792 49.8818 81.625 49.625C81.7983 49.5544 81.9381 49.4203 82.0156 49.25C82.0705 49.1343 82.0964 49.0069 82.0909 48.8789C82.0855 48.751 82.0489 48.6263 81.9844 48.5156L81.9375 48.4375C81.8837 48.3477 81.8124 48.2696 81.7279 48.2078C81.6433 48.1461 81.5472 48.102 81.4453 48.0781C81.241 48.0366 81.0471 47.9544 80.8753 47.8362C80.7034 47.7181 80.5572 47.5666 80.4453 47.3906C80.5964 47.3842 80.7422 47.3334 80.8645 47.2444C80.9868 47.1555 81.0802 47.0324 81.1328 46.8906C81.1885 46.7416 81.1982 46.5792 81.1606 46.4246C81.123 46.27 81.0398 46.1302 80.9219 46.0234C80.7219 45.8585 80.5567 45.6555 80.436 45.4261C80.3153 45.1968 80.2414 44.9457 80.2187 44.6875C81.6605 45.8799 83.458 46.5587 85.3281 46.6172C85.448 46.6243 85.5679 46.6016 85.6769 46.5512C85.786 46.5008 85.8809 46.4241 85.9531 46.3281C86.0293 46.2358 86.0831 46.1271 86.1102 46.0105C86.1373 45.894 86.137 45.7727 86.1094 45.6562C86.0715 45.5135 86.0531 45.3664 86.0547 45.2187C86.0567 44.7373 86.2494 44.2763 86.5906 43.9366C86.9317 43.5969 87.3936 43.4062 87.875 43.4062C88.123 43.4062 88.3684 43.4576 88.5956 43.5571C88.8229 43.6566 89.027 43.8021 89.1953 43.9844C89.2575 44.05 89.3318 44.1031 89.414 44.1406C89.3741 44.3204 89.399 44.5086 89.4844 44.6719C89.5296 44.7712 89.5996 44.8572 89.6875 44.9219C89.6117 45.1642 89.5878 45.4197 89.6172 45.6719C89.6094 45.8437 89.6015 46.0234 89.5781 46.2031C89.5456 46.5449 89.4908 46.8841 89.414 47.2187C89.0693 48.6951 88.235 50.0113 87.0469 50.9531C85.9553 51.7465 84.6656 52.2224 83.3203 52.3281C82.8022 52.3935 82.2768 52.3724 81.7656 52.2656V52.2656ZM76.9453 12.9883C76.9438 12.8486 76.9839 12.7115 77.0605 12.5947C77.1372 12.4779 77.2469 12.3866 77.3757 12.3324C77.5045 12.2782 77.6465 12.2636 77.7836 12.2905C77.9208 12.3174 78.0468 12.3845 78.1456 12.4833C78.2444 12.5821 78.3115 12.7081 78.3384 12.8452C78.3652 12.9823 78.3507 13.1244 78.2965 13.2532C78.2423 13.382 78.151 13.4917 78.0342 13.5683C77.9173 13.645 77.7803 13.6851 77.6406 13.6836C77.4565 13.6828 77.2801 13.6092 77.1499 13.479C77.0196 13.3488 76.9461 13.1724 76.9453 12.9883V12.9883Z" fill="#2F80ED"/>
<path d="M85.2578 36.2812C82.4006 36.2807 79.6547 37.389 77.5983 39.3728C75.5419 41.3565 74.3356 44.0607 74.2333 46.9161C74.131 49.7715 75.1408 52.5552 77.05 54.6809C78.9592 56.8067 81.6188 58.1086 84.4688 58.3125C84.449 58.784 84.3595 59.25 84.2031 59.6953L85.6641 60.25C85.8949 59.6292 86.0216 58.9746 86.0391 58.3125C88.8924 58.1141 91.5571 56.8151 93.4708 54.6894C95.3845 52.5637 96.3976 49.7777 96.2962 46.9193C96.1949 44.0609 94.987 41.3536 92.9275 39.3688C90.868 37.384 88.118 36.277 85.2578 36.2812ZM85.2578 56.7969C83.3843 56.7966 81.5529 56.2408 79.9952 55.1999C78.4374 54.159 77.2232 52.6797 76.5061 50.9489C75.7889 49.2181 75.6009 47.3135 75.966 45.4759C76.331 43.6383 77.2326 41.9501 78.5568 40.6248C79.881 39.2995 81.5684 38.3965 83.4057 38.03C85.243 37.6634 87.1478 37.8498 88.8792 38.5656C90.6106 39.2813 92.0909 40.4943 93.1331 42.0512C94.1753 43.6081 94.7325 45.439 94.7344 47.3125C94.7395 48.5588 94.498 49.7938 94.0237 50.9463C93.5494 52.0988 92.8517 53.1461 91.9707 54.0277C91.0898 54.9093 90.0432 55.6079 88.891 56.0832C87.7389 56.5584 86.5041 56.801 85.2578 56.7969V56.7969ZM74.2344 12.9883C74.2328 12.8486 74.273 12.7115 74.3496 12.5947C74.4263 12.4779 74.536 12.3866 74.6648 12.3324C74.7936 12.2782 74.9356 12.2636 75.0727 12.2905C75.2098 12.3174 75.3358 12.3845 75.4347 12.4833C75.5335 12.5821 75.6006 12.7081 75.6275 12.8452C75.6543 12.9823 75.6398 13.1244 75.5856 13.2532C75.5314 13.382 75.4401 13.4917 75.3232 13.5683C75.2064 13.645 75.0694 13.6851 74.9297 13.6836C74.7455 13.6828 74.5692 13.6092 74.4389 13.479C74.3087 13.3488 74.2352 13.1724 74.2344 12.9883V12.9883Z" fill="#2F80ED"/>
<path d="M78.8125 10.7422C78.7344 10.625 77.4531 8.78124 73.9063 9.03124H73.875C72.7734 9.20312 70.1484 9.87499 69.6094 12.5C69.5938 12.6094 69.1641 15.7187 73.4609 16.8125C74.0469 16.8594 74.75 17.0547 74.9453 17.6484C74.9921 17.7976 75.0158 17.953 75.0156 18.1094C76.2159 17.4203 77.3304 16.5917 78.3359 15.6406C79.875 13.9687 80.0312 12.3672 78.8125 10.7422ZM72.2266 13.6875C72.0872 13.689 71.9505 13.6491 71.8338 13.5728C71.7172 13.4965 71.6258 13.3872 71.5714 13.2589C71.517 13.1306 71.502 12.9889 71.5282 12.852C71.5544 12.7151 71.6208 12.5891 71.7188 12.49C71.8168 12.3909 71.9421 12.3231 72.0787 12.2954C72.2153 12.2676 72.3571 12.2811 72.486 12.334C72.6149 12.387 72.7252 12.4771 72.8028 12.5929C72.8804 12.7087 72.9219 12.845 72.9219 12.9844C72.9219 13.1695 72.8489 13.3472 72.7187 13.4788C72.5885 13.6104 72.4117 13.6854 72.2266 13.6875V13.6875ZM74.9297 13.6875C74.7906 13.6875 74.6547 13.6463 74.5391 13.569C74.4234 13.4917 74.3333 13.3819 74.2801 13.2534C74.2269 13.125 74.2129 12.9836 74.2401 12.8472C74.2672 12.7108 74.3342 12.5855 74.4325 12.4872C74.5308 12.3888 74.6561 12.3219 74.7925 12.2948C74.9289 12.2676 75.0703 12.2815 75.1988 12.3348C75.3272 12.388 75.4371 12.4781 75.5143 12.5937C75.5916 12.7094 75.6328 12.8453 75.6328 12.9844C75.6334 13.0769 75.6157 13.1686 75.5806 13.2542C75.5454 13.3398 75.4937 13.4175 75.4283 13.4829C75.3628 13.5484 75.2851 13.6001 75.1995 13.6352C75.1139 13.6704 75.0222 13.6881 74.9297 13.6875V13.6875ZM77.6406 13.6875C77.5016 13.6875 77.3656 13.6463 77.25 13.569C77.1344 13.4917 77.0442 13.3819 76.991 13.2534C76.9378 13.125 76.9239 12.9836 76.951 12.8472C76.9781 12.7108 77.0451 12.5855 77.1434 12.4872C77.2418 12.3888 77.3671 12.3219 77.5035 12.2948C77.6398 12.2676 77.7812 12.2815 77.9097 12.3348C78.0382 12.388 78.148 12.4781 78.2253 12.5937C78.3025 12.7094 78.3437 12.8453 78.3437 12.9844C78.3444 13.0769 78.3266 13.1686 78.2915 13.2542C78.2564 13.3398 78.2046 13.4175 78.1392 13.4829C78.0738 13.5484 77.996 13.6001 77.9104 13.6352C77.8248 13.6704 77.7331 13.6881 77.6406 13.6875V13.6875Z" fill="#F2C94C"/>
<path d="M77.3672 89.75L57.3125 93.9219L55.5781 87.0781C55.6505 87.0068 55.7079 86.9216 55.7468 86.8277C55.7857 86.7337 55.8054 86.6329 55.8047 86.5313C55.8028 86.3246 55.72 86.127 55.5738 85.9809C55.4277 85.8347 55.2301 85.7518 55.0234 85.75C54.1383 85.7841 53.2568 85.6201 52.4431 85.27C51.6294 84.92 50.9042 84.3926 50.3203 83.7266H61.7109C62.0378 83.7306 62.3594 83.6444 62.6405 83.4777C62.9217 83.3109 63.1515 83.07 63.3047 82.7813C63.4592 82.492 63.5321 82.1661 63.5156 81.8386C63.499 81.511 63.3937 81.1942 63.2109 80.9219C63.1852 80.8733 63.1565 80.8263 63.125 80.7813C63.0312 80.625 62.9297 80.4844 62.8437 80.3281C62.7235 80.1364 62.614 79.9382 62.5156 79.7344C62.4531 79.625 62.3906 79.5156 62.3203 79.3672C62.1094 78.9531 61.9297 78.5313 61.7578 78.0938L61.6172 77.7188C61.5391 77.5 61.4766 77.2734 61.4062 77.0469C61.3437 76.8594 61.2734 76.6563 61.2266 76.4531L61.1875 76.3047C60.6879 74.3888 60.6053 72.388 60.9453 70.4375C61.1763 69.2223 61.5733 68.0446 62.125 66.9375C62.662 65.8362 63.351 64.8158 64.1719 63.9063C64.7811 63.2318 65.4652 62.6289 66.2109 62.1094L66.5469 61.875L66.6875 48.9375C66.6952 48.5098 66.7556 48.0848 66.8672 47.6719L66.9297 47.5234V47.4844C67.1986 46.5974 67.7108 45.8037 68.4082 45.1933C69.1057 44.5829 69.9603 44.1803 70.875 44.0312V53.7188C70.8741 54.4984 70.9953 55.2735 71.2344 56.0156L72.5312 60C72.9609 61.3438 73.3828 62.6563 73.6953 63.9844C73.0078 63.9922 72.5703 63.9687 72.5625 63.9687L72.4766 65.5312C72.4766 65.5312 72.8047 65.5469 73.3594 65.5469C73.5469 65.5469 73.7656 65.5469 74.0078 65.5312C74.0859 66.0312 74.1562 66.5391 74.1953 67.0547C74.3243 69.4858 74.3086 71.9223 74.1484 74.3516C74.0859 75.75 74.0156 77.1875 74.0078 78.5938C73.9922 78.9219 74.1406 79.4063 75.0234 81.6875C75.2187 82.2031 75.3906 82.625 75.4375 82.7813L77.3672 89.75Z" fill="#F6F8F9"/>
<path d="M72.2266 13.6836C72.0869 13.6851 71.9498 13.645 71.833 13.5683C71.7162 13.4917 71.6249 13.382 71.5707 13.2532C71.5165 13.1244 71.5019 12.9823 71.5288 12.8452C71.5557 12.7081 71.6228 12.5821 71.7216 12.4833C71.8204 12.3845 71.9464 12.3174 72.0835 12.2905C72.2207 12.2636 72.3627 12.2782 72.4915 12.3324C72.6203 12.3866 72.73 12.4779 72.8067 12.5947C72.8833 12.7115 72.9234 12.8486 72.9219 12.9883C72.9211 13.1724 72.8475 13.3488 72.7173 13.479C72.5871 13.6092 72.4107 13.6828 72.2266 13.6836V13.6836Z" fill="#2F80ED"/>
<path d="M74.5078 5.95313C73.0623 5.95235 71.649 6.38024 70.4467 7.18268C69.2444 7.98511 68.307 9.12606 67.7531 10.4612C67.1993 11.7964 67.0537 13.2658 67.335 14.6837C67.6162 16.1016 68.3116 17.4042 69.3332 18.4269C70.3548 19.4496 71.6567 20.1464 73.0742 20.4291C74.4918 20.7119 75.9614 20.5679 77.2972 20.0155C78.633 19.463 79.7749 18.5269 80.5786 17.3254C81.3823 16.1239 81.8117 14.7111 81.8125 13.2656C81.81 11.3283 81.0399 9.471 79.6708 8.1004C78.3016 6.7298 76.4451 5.95767 74.5078 5.95313V5.95313ZM79.4844 16.7031C78.0965 18.0024 76.5378 19.1063 74.8516 19.9844C74.6815 20.0492 74.5021 20.0861 74.3203 20.0938C74.1023 20.0981 73.8895 20.0262 73.7188 19.8906C73.5843 19.7867 73.4782 19.6507 73.4099 19.4951C73.3417 19.3395 73.3136 19.1693 73.3281 19L73.3672 18.5781C73.3748 18.5358 73.3853 18.4941 73.3984 18.4531C73.4006 18.4266 73.4059 18.4004 73.4141 18.375C73.3672 18.375 73.3203 18.3594 73.2734 18.3594C73.2314 18.358 73.1895 18.3528 73.1484 18.3438C67.3438 16.9063 68.0625 12.2656 68.0703 12.2188C68.8359 8.48438 72.5313 7.65625 73.6484 7.48438C73.6641 7.48438 73.7422 7.48438 73.7578 7.46875C78.3125 7.14063 80.0313 9.75 80.1016 9.85938C81.7344 12.0391 81.5313 14.4844 79.4844 16.7031V16.7031Z" fill="#F2C94C"/>
<path d="M74.5078 4.39063C72.7533 4.38985 71.0379 4.90938 69.5786 5.8835C68.1194 6.85763 66.9817 8.24261 66.3096 9.86329C65.6374 11.484 65.461 13.2676 65.8025 14.9886C66.144 16.7095 66.9882 18.2906 68.2283 19.5318C69.4684 20.773 71.0487 21.6185 72.7694 21.9616C74.4901 22.3046 76.2739 22.1298 77.8951 21.459C79.5164 20.7883 80.9024 19.6519 81.8778 18.1935C82.8532 16.7351 83.3742 15.0202 83.375 13.2656C83.3752 10.9131 82.4413 8.65679 80.7786 6.99259C79.1158 5.32838 76.8603 4.39249 74.5078 4.39063V4.39063ZM74.5078 20.5703C73.062 20.5711 71.6484 20.143 70.4459 19.3402C69.2434 18.5374 68.3061 17.396 67.7524 16.0604C67.1987 14.7248 67.0537 13.2549 67.3356 11.8368C67.6174 10.4188 68.3136 9.11613 69.336 8.09376C70.3583 7.0714 71.6609 6.37525 73.079 6.09337C74.4971 5.81149 75.967 5.95655 77.3026 6.51021C78.6382 7.06386 79.7796 8.00123 80.5824 9.20372C81.3852 10.4062 81.8133 11.8198 81.8125 13.2656C81.8098 15.2021 81.0394 17.0585 79.6701 18.4279C78.3007 19.7972 76.4443 20.5676 74.5078 20.5703V20.5703Z" fill="#2F80ED"/>
<path d="M80.1016 9.85939C80.0312 9.75001 78.3125 7.14064 73.7578 7.46877C73.7422 7.48439 73.6641 7.48439 73.6484 7.48439C72.5312 7.65626 68.8359 8.48439 68.0703 12.2188C68.0625 12.2656 67.3437 16.9063 73.1484 18.3438C73.1895 18.3528 73.2314 18.358 73.2734 18.3594C73.3203 18.3594 73.3672 18.375 73.4141 18.375C73.4058 18.4004 73.4006 18.4266 73.3984 18.4531C73.3853 18.4941 73.3748 18.5358 73.3672 18.5781L73.3281 19C73.3135 19.1693 73.3417 19.3395 73.4099 19.4951C73.4781 19.6507 73.5843 19.7867 73.7187 19.8906C73.8895 20.0263 74.1023 20.0981 74.3203 20.0938C74.5021 20.0861 74.6815 20.0492 74.8516 19.9844C76.5378 19.1063 78.0965 18.0024 79.4844 16.7031C81.5312 14.4844 81.7344 12.0391 80.1016 9.85939ZM75.0156 18.1094C75.0158 17.9531 74.9921 17.7976 74.9453 17.6485C74.75 17.0547 74.0469 16.8594 73.4609 16.8125C69.1641 15.7188 69.5937 12.6094 69.6094 12.5C70.1484 9.87502 72.7734 9.20314 73.875 9.03127H73.9062C77.4531 8.78127 78.7344 10.625 78.8125 10.7422C80.0312 12.3672 79.875 13.9688 78.3359 15.6406C77.3304 16.5917 76.2159 17.4204 75.0156 18.1094V18.1094ZM65.3359 12.9883L65.5156 14.5352C64.875 14.6133 64.2656 14.707 63.6953 14.832L63.3672 13.3086C63.9844 13.1758 64.6484 13.0664 65.3359 12.9883ZM61 14.0195L61.5859 15.4727C60.9143 15.7383 60.2748 16.079 59.6797 16.4883L58.7812 15.207C59.4734 14.7283 60.2178 14.3299 61 14.0195ZM56.9219 16.9649L58.1563 17.9258C57.7216 18.4795 57.3787 19.0993 57.1406 19.7617L55.6719 19.2227C55.9695 18.4101 56.3912 17.6485 56.9219 16.9649Z" fill="#2F80ED"/>
<path d="M57.3359 53.25H53.2891C53.2492 52.5403 53.1525 51.8349 53 51.1406C54.1815 50.9724 55.3487 50.7165 56.4922 50.375C56.9573 51.2695 57.2439 52.246 57.3359 53.25V53.25Z" fill="#F2C94C"/>
<path d="M55.2969 24.2969C55.1713 23.6984 55.111 23.088 55.1172 22.4766C55.1172 22.2422 55.125 21.9922 55.1484 21.7266L56.7031 21.8359C56.6875 22.0625 56.6797 22.2734 56.6797 22.4766C56.6703 22.9673 56.7175 23.4575 56.8203 23.9375L55.2969 24.2969Z" fill="#2F80ED"/>
<path d="M57.3203 54.8125C57.2149 55.7632 56.9313 56.6855 56.4844 57.5312C55.364 57.1929 54.2203 56.937 53.0625 56.7656C53.1877 56.1211 53.266 55.4683 53.2969 54.8125H57.3203ZM55.5859 58.8906C54.436 60.2788 52.835 61.2189 51.0625 61.5469C51.7562 60.5499 52.2961 59.4543 52.6641 58.2969C53.6511 58.424 54.6276 58.6225 55.5859 58.8906V58.8906Z" fill="#F2C94C"/>
<path d="M53.7109 79.7344C53.7101 79.8253 53.6736 79.9123 53.6094 79.9765C53.5451 80.0408 53.4581 80.0773 53.3672 80.0781H46.1797C46.0888 80.0773 46.0018 80.0408 45.9375 79.9765C45.8732 79.9123 45.8368 79.8253 45.8359 79.7344C45.8361 79.6865 45.844 79.639 45.8594 79.5937C45.8863 79.5305 45.9307 79.4762 45.9875 79.4375C46.0443 79.3987 46.111 79.377 46.1797 79.375H53.3672C53.4596 79.3794 53.5469 79.4192 53.6108 79.486C53.6748 79.5529 53.7106 79.6418 53.7109 79.7344V79.7344Z" fill="#F6F8F9"/>
<path d="M55.5859 49.0156C54.5977 49.2803 53.5928 49.4787 52.5781 49.6094C52.1801 48.4262 51.5973 47.3135 50.8516 46.3125C52.7072 46.6042 54.3915 47.5659 55.5859 49.0156V49.0156ZM51.0703 58.1406C50.7141 59.1893 50.1861 60.1714 49.5078 61.0469C48.8353 60.1677 48.3078 59.1865 47.9453 58.1406C48.9859 58.0741 50.0297 58.0741 51.0703 58.1406V58.1406ZM50.9766 49.75C50.001 49.8096 49.023 49.8148 48.0469 49.7656C48.4001 48.8202 48.8925 47.9328 49.5078 47.1328C50.1223 47.929 50.6171 48.8107 50.9766 49.75V49.75ZM51.7344 53.25H47.2891C47.3307 52.5977 47.4248 51.9497 47.5703 51.3125C48.1719 51.3594 48.8047 51.3906 49.4766 51.3906C50.1094 51.3906 50.7734 51.3672 51.4531 51.3047C51.5954 51.9452 51.6894 52.5954 51.7344 53.25V53.25ZM51.7422 54.8125C51.7046 55.4109 51.6263 56.006 51.5078 56.5938C50.1789 56.4959 48.8446 56.4959 47.5156 56.5938C47.3972 56.006 47.3189 55.4109 47.2813 54.8125H51.7422ZM48.1406 46.3516C47.4068 47.3479 46.8323 48.4522 46.4375 49.625C45.4808 49.5058 44.5314 49.3336 43.5937 49.1094C44.7416 47.6882 46.3499 46.7127 48.1406 46.3516V46.3516ZM47.9219 61.5C46.2152 61.1093 44.6902 60.1541 43.5937 58.7891C44.506 58.5747 45.4292 58.4104 46.3594 58.2969C46.7205 59.4353 47.247 60.5146 47.9219 61.5V61.5ZM46.0156 51.1563C45.868 51.8461 45.7714 52.5459 45.7266 53.25H41.9219C42.0108 52.2931 42.2756 51.3608 42.7031 50.5C43.7891 50.8024 44.8964 51.0218 46.0156 51.1563V51.1563ZM45.9531 56.75C44.8579 56.8982 43.7726 57.1121 42.7031 57.3906C42.2975 56.5833 42.0383 55.7104 41.9375 54.8125H45.7266C45.7544 55.463 45.8301 56.1106 45.9531 56.75Z" fill="#F2C94C"/>
<path d="M41.1172 25.3633L39.5703 25.5742C39.475 24.8359 39.3288 24.1049 39.1328 23.3867L40.6406 22.9648C40.8526 23.7528 41.0118 24.5541 41.1172 25.3633ZM39.7734 20.6445L38.3672 21.3242C38.0529 20.6744 37.6678 20.0613 37.2188 19.4961L38.4375 18.5195C38.9624 19.1746 39.4106 19.8876 39.7734 20.6445V20.6445Z" fill="#2F80ED"/>
<path d="M36.7813 55.1406C36.7826 55.4774 36.717 55.811 36.5882 56.1222C36.4595 56.4333 36.2701 56.7158 36.0313 56.9531C35.908 57.0658 35.7776 57.1702 35.6406 57.2656C35.2266 57.5497 34.7365 57.7022 34.2344 57.7031H31.8203C31.5938 57.7011 31.3772 57.6096 31.2177 57.4487C31.0582 57.2877 30.9687 57.0703 30.9688 56.8438V53.4453C30.9708 53.2208 31.0614 53.0062 31.2209 52.8482C31.3804 52.6902 31.5958 52.6016 31.8203 52.6016H34.2344C34.7357 52.5998 35.2259 52.7496 35.6406 53.0313C35.99 53.2615 36.277 53.5746 36.476 53.9426C36.675 54.3107 36.7799 54.7222 36.7813 55.1406ZM36.7813 62.7578C36.7818 63.0933 36.7158 63.4255 36.5871 63.7353C36.4583 64.0451 36.2694 64.3263 36.0313 64.5625C35.5489 65.0301 34.9061 65.2956 34.2344 65.3047H31.8203C31.5947 65.3041 31.3784 65.2142 31.2189 65.0546C31.0593 64.895 30.9694 64.6788 30.9688 64.4531V61.0625C30.9687 60.8359 31.0582 60.6185 31.2177 60.4576C31.3772 60.2966 31.5938 60.2052 31.8203 60.2031H34.2344C34.737 60.2004 35.2282 60.3532 35.6406 60.6406C35.9909 60.8718 36.2785 61.1862 36.4775 61.5556C36.6766 61.9251 36.7809 62.3381 36.7813 62.7578ZM36.7813 70.375C36.7811 70.7092 36.7147 71.04 36.5859 71.3484C36.4572 71.6569 36.2687 71.9367 36.0313 72.1719C35.9121 72.2891 35.7812 72.3938 35.6406 72.4844C35.2259 72.7661 34.7357 72.9158 34.2344 72.9141H31.8203C31.5958 72.9141 31.3804 72.8254 31.2209 72.6674C31.0614 72.5094 30.9708 72.2948 30.9688 72.0703V68.6797C30.9683 68.5678 30.9901 68.4568 31.0327 68.3533C31.0754 68.2498 31.1381 68.1558 31.2173 68.0766C31.2964 67.9975 31.3905 67.9348 31.494 67.8921C31.5975 67.8495 31.7084 67.8277 31.8203 67.8281H34.2344C34.735 67.8236 35.2252 67.9707 35.6406 68.25C35.9905 68.4835 36.2776 68.7994 36.4765 69.17C36.6754 69.5406 36.7801 69.9544 36.7813 70.375V70.375Z" fill="#F6F8F9"/>
<path d="M36.6016 16.7617L35.6797 18.0273C35.1021 17.6036 34.4718 17.257 33.8047 16.9961L34.3828 15.543C35.1717 15.8521 35.9175 16.2618 36.6016 16.7617V16.7617Z" fill="#2F80ED"/>
<path d="M36.7813 47.5312C36.7826 47.868 36.717 48.2016 36.5882 48.5128C36.4595 48.824 36.2701 49.1064 36.0313 49.3437C35.908 49.4564 35.7776 49.5608 35.6406 49.6563C35.2252 49.9356 34.735 50.0826 34.2344 50.0781H31.8203C31.709 50.0787 31.5986 50.0574 31.4955 50.0153C31.3924 49.9732 31.2987 49.9112 31.2196 49.8328C31.1405 49.7545 31.0776 49.6613 31.0346 49.5586C30.9915 49.4559 30.9692 49.3457 30.9688 49.2344V45.8281C30.9728 45.6043 31.0641 45.3908 31.2231 45.2333C31.3822 45.0757 31.5964 44.9864 31.8203 44.9844H34.2344C34.7365 44.9854 35.2266 45.1378 35.6406 45.4219H35.6484C35.9969 45.6525 36.2827 45.9658 36.4804 46.334C36.6781 46.7021 36.7815 47.1134 36.7813 47.5312Z" fill="#F6F8F9"/>
<path d="M65.3672 45.6719C65.3672 46.2812 65.3594 46.8437 65.3672 47.25C65.2108 47.7937 65.1293 48.3562 65.125 48.9219L64.9922 61.0625C64.7813 61.2187 64.5781 61.375 64.375 61.5469V31.9609C64.3754 31.731 64.3304 31.5033 64.2426 31.2908C64.1548 31.0782 64.0259 30.8852 63.8634 30.7226C63.7008 30.56 63.5077 30.4311 63.2952 30.3433C63.0827 30.2555 62.8549 30.2105 62.625 30.2109H37.0469C36.5829 30.2116 36.1382 30.3961 35.8101 30.7242C35.4821 31.0522 35.2975 31.497 35.2969 31.9609V43.5625C35.197 43.5342 35.0952 43.5133 34.9922 43.5C34.9337 43.4827 34.8734 43.4722 34.8125 43.4687C34.6214 43.4376 34.428 43.422 34.2344 43.4219L34.2031 28.9062C34.2024 28.8759 34.2077 28.8458 34.2187 28.8175C34.2298 28.7893 34.2463 28.7635 34.2674 28.7417C34.2885 28.7199 34.3137 28.7025 34.3415 28.6905C34.3694 28.6785 34.3994 28.6722 34.4297 28.6719H65.125C65.1553 28.6722 65.1853 28.6785 65.2132 28.6905C65.241 28.7025 65.2662 28.7199 65.2873 28.7417C65.3084 28.7635 65.3249 28.7893 65.336 28.8175C65.347 28.8458 65.3523 28.8759 65.3516 28.9062L65.375 44.0781C65.375 44.5937 65.375 45.1406 65.3672 45.6719ZM61.9141 81.7734C61.6327 81.3652 61.377 80.9399 61.1484 80.5C61.0624 80.3532 60.9841 80.2019 60.9141 80.0469C60.8203 79.8594 60.7188 79.6562 60.625 79.4297C60.5694 79.3232 60.5198 79.2136 60.4766 79.1016C60.4453 79.0312 60.4141 78.9531 60.3828 78.875C60.1891 78.4048 60.0196 77.925 59.875 77.4375H37.0469C36.5829 77.4369 36.1382 77.2523 35.8101 76.9242C35.4821 76.5962 35.2975 76.1514 35.2969 75.6875V74.3437C35.2031 74.3594 35.1016 74.375 35 74.3906C34.9385 74.4099 34.8759 74.4256 34.8125 74.4375C34.6211 74.4658 34.4278 74.4789 34.2344 74.4766H34.2031V81.9531C34.2065 82.0107 34.232 82.0647 34.2742 82.104C34.3164 82.1432 34.3721 82.1648 34.4297 82.1641H61.7109C61.7545 82.1653 61.7976 82.1552 61.8359 82.1346C61.8743 82.1141 61.9066 82.0838 61.9297 82.0469C61.9422 82.011 61.9526 81.9745 61.9609 81.9375C61.9608 81.8795 61.9446 81.8227 61.9141 81.7734V81.7734ZM53.3672 81.6406H46.1797C45.9291 81.6415 45.6808 81.5929 45.4491 81.4974C45.2174 81.4019 45.0069 81.2616 44.8297 81.0844C44.6525 80.9072 44.5121 80.6967 44.4167 80.465C44.3212 80.2333 44.2725 79.985 44.2734 79.7344C44.274 79.3516 44.3852 78.9772 44.5938 78.6562C44.7713 78.399 45.008 78.188 45.284 78.0412C45.5599 77.8944 45.8671 77.816 46.1797 77.8125H53.3672C53.8748 77.8125 54.3617 78.0142 54.7206 78.3731C55.0796 78.7321 55.2813 79.2189 55.2813 79.7266C55.2813 80.2342 55.0796 80.721 54.7206 81.08C54.3617 81.439 53.8748 81.6406 53.3672 81.6406V81.6406Z" fill="#E0E0E0"/>
<path d="M32.4533 83.8631L30.3906 84.6994L30.9765 86.1445L33.0392 85.3083L32.4533 83.8631Z" fill="#2F80ED"/>
<path d="M31.9453 14.8867L31.7109 16.4336C31.2199 16.3564 30.7236 16.3172 30.2266 16.3164C29.8437 16.3164 29.6094 16.3476 29.5859 16.3476L29.3984 14.793C29.6735 14.7641 29.95 14.751 30.2266 14.7539C30.802 14.7554 31.3765 14.7998 31.9453 14.8867ZM79.1016 90.1406L76.9375 82.3437C76.8672 82.1406 76.6953 81.6719 76.4844 81.125C76.1875 80.3594 75.6406 78.9531 75.5703 78.6094C75.5781 77.2109 75.6484 75.7969 75.7109 74.4219C75.8726 71.9301 75.8856 69.4308 75.75 66.9375C75.6953 66.2734 75.6172 65.625 75.5078 65C75.1389 63.1444 74.6403 61.317 74.0156 59.5312L72.7187 55.5312C72.5322 54.9452 72.4374 54.3338 72.4375 53.7187V43.1719C72.4338 42.9614 72.35 42.7602 72.2031 42.6094C72.1285 42.5374 72.0404 42.481 71.9438 42.4435C71.8473 42.4059 71.7442 42.3879 71.6406 42.3906C70.7601 42.4029 69.8909 42.5902 69.0835 42.9416C68.276 43.293 67.5466 43.8015 66.9375 44.4375V44.0781L66.9141 28.9062C66.9141 28.431 66.7258 27.9752 66.3905 27.6384C66.0552 27.3017 65.6002 27.1114 65.125 27.1094H34.4297C33.9545 27.1114 33.4994 27.3017 33.1642 27.6384C32.8289 27.9752 32.6406 28.431 32.6406 28.9062V43.4219H31.8203C31.1814 43.4219 30.5686 43.6751 30.1161 44.1262C29.6636 44.5772 29.4083 45.1892 29.4062 45.8281V49.2344C29.4083 49.6663 29.5261 50.0897 29.7473 50.4607C29.9685 50.8317 30.2851 51.1366 30.6641 51.3437C30.286 51.55 29.97 51.8536 29.7488 52.2232C29.5277 52.5927 29.4094 53.0147 29.4062 53.4453V56.8437C29.4083 57.2756 29.5261 57.6991 29.7473 58.0701C29.9685 58.441 30.2851 58.746 30.6641 58.9531C30.2838 59.1587 29.9661 59.4633 29.7447 59.8346C29.5233 60.2059 29.4063 60.6302 29.4062 61.0625V64.4531C29.4082 64.886 29.5267 65.3104 29.7495 65.6816C29.9722 66.0528 30.2908 66.3571 30.6719 66.5625C30.2899 66.7688 29.9707 67.0744 29.7479 67.447C29.5252 67.8197 29.4071 68.2455 29.4062 68.6797V72.0703C29.4104 72.7086 29.6663 73.3194 30.1183 73.77C30.5704 74.2206 31.182 74.4745 31.8203 74.4766H32.6406V81.9531C32.6415 82.1871 32.6886 82.4185 32.779 82.6343C32.8694 82.8501 33.0015 83.0459 33.1676 83.2106C33.3338 83.3753 33.5308 83.5056 33.7473 83.5942C33.9639 83.6827 34.1957 83.7277 34.4297 83.7266H48.2109C49.7109 85.5 51.2734 86.9531 54.0078 87.25L55.9844 95.0312C56.0281 95.1968 56.1254 95.3433 56.2611 95.4478C56.3967 95.5524 56.5631 95.6092 56.7344 95.6094C56.7895 95.6119 56.8448 95.6067 56.8984 95.5937L78.5078 91.1094C78.6129 91.0912 78.7128 91.0504 78.8005 90.9896C78.8882 90.9289 78.9616 90.8498 79.0156 90.7578C79.0704 90.6659 79.1062 90.5639 79.1209 90.4579C79.1357 90.3519 79.1291 90.244 79.1016 90.1406V90.1406ZM34.4297 28.6719H65.125C65.1553 28.6722 65.1853 28.6785 65.2131 28.6905C65.241 28.7025 65.2662 28.7199 65.2873 28.7417C65.3084 28.7635 65.3249 28.7892 65.3359 28.8175C65.347 28.8458 65.3523 28.8759 65.3516 28.9062L65.375 44.0781C65.375 44.5937 65.375 45.1406 65.3672 45.6719C65.3672 46.2812 65.3594 46.8437 65.3672 47.25C65.2108 47.7937 65.1293 48.3561 65.125 48.9219L64.9922 61.0625C64.7812 61.2187 64.5781 61.375 64.375 61.5469V31.9609C64.3754 31.731 64.3304 31.5032 64.2426 31.2907C64.1548 31.0782 64.0259 30.8852 63.8633 30.7226C63.7008 30.56 63.5077 30.4311 63.2952 30.3433C63.0827 30.2555 62.8549 30.2105 62.625 30.2109H37.0469C36.5829 30.2115 36.1382 30.3961 35.8101 30.7242C35.4821 31.0522 35.2975 31.497 35.2969 31.9609V43.5625C35.197 43.5342 35.0951 43.5133 34.9922 43.5C34.9337 43.4827 34.8734 43.4722 34.8125 43.4687C34.6214 43.4376 34.428 43.4219 34.2344 43.4219L34.2031 28.9062C34.2024 28.8759 34.2077 28.8458 34.2187 28.8175C34.2298 28.7892 34.2463 28.7635 34.2674 28.7417C34.2885 28.7199 34.3137 28.7025 34.3415 28.6905C34.3694 28.6785 34.3994 28.6722 34.4297 28.6719ZM34.2031 81.9531V74.4766H34.2344C34.4278 74.4788 34.6211 74.4658 34.8125 74.4375C34.8759 74.4256 34.9385 74.4099 35 74.3906C35.1016 74.375 35.2031 74.3594 35.2969 74.3437V75.6875C35.2975 76.1514 35.4821 76.5962 35.8101 76.9242C36.1382 77.2523 36.5829 77.4369 37.0469 77.4375H59.875C60.0196 77.925 60.1891 78.4048 60.3828 78.875C60.4141 78.9531 60.4453 79.0312 60.4766 79.1016C60.5198 79.2136 60.5694 79.3232 60.625 79.4297C60.7187 79.6562 60.8203 79.8594 60.9141 80.0469C60.9841 80.2019 61.0624 80.3532 61.1484 80.5C61.377 80.9399 61.6327 81.3652 61.9141 81.7734C61.9446 81.8227 61.9608 81.8795 61.9609 81.9375C61.9526 81.9745 61.9422 82.011 61.9297 82.0469C61.9066 82.0838 61.8743 82.1141 61.8359 82.1346C61.7976 82.1552 61.7545 82.1653 61.7109 82.1641H34.4297C34.372 82.1648 34.3164 82.1432 34.2742 82.104C34.232 82.0647 34.2065 82.0107 34.2031 81.9531ZM59.4141 70.1406C59.2518 71.0141 59.1707 71.9007 59.1719 72.7891C59.1722 73.8252 59.2743 74.8588 59.4766 75.875H37.0469C37.0222 75.8753 36.9976 75.8707 36.9747 75.8614C36.9519 75.852 36.9311 75.8382 36.9136 75.8208C36.8961 75.8033 36.8823 75.7825 36.873 75.7596C36.8637 75.7367 36.8591 75.7122 36.8594 75.6875V73.5312C36.9531 73.4531 37.0469 73.3672 37.1328 73.2812C37.9034 72.5097 38.3385 71.4654 38.3437 70.375C38.3416 70.2131 38.3312 70.0514 38.3125 69.8906C38.3047 69.8281 38.2969 69.7891 38.2891 69.7266C38.2656 69.625 38.25 69.5156 38.2266 69.4219C38.2119 69.3584 38.1937 69.2958 38.1719 69.2344C38.1527 69.143 38.1239 69.054 38.0859 68.9687C38.0625 68.8906 38.0391 68.8281 38.0156 68.7656L37.8984 68.5312C37.8672 68.4687 37.8359 68.4062 37.7969 68.3437C37.759 68.2671 37.7146 68.1939 37.6641 68.125C37.625 68.0625 37.5781 68 37.5391 67.9375C37.4844 67.875 37.4297 67.7969 37.375 67.7344C37.3281 67.6875 37.2812 67.625 37.2344 67.5781C37.1732 67.5092 37.108 67.4439 37.0391 67.3828C36.9936 67.3295 36.9439 67.2798 36.8906 67.2344C36.875 67.2344 36.8672 67.2187 36.8594 67.2187V65.9219C36.9531 65.8437 37.0469 65.75 37.1328 65.6719C37.5182 65.291 37.8238 64.8371 38.0317 64.3368C38.2396 63.8364 38.3457 63.2996 38.3437 62.7578C38.3437 62.5937 38.3281 62.4297 38.3125 62.2656C38.3047 62.2187 38.2969 62.1719 38.2891 62.1094C38.2656 62 38.25 61.9062 38.2266 61.7969C38.2119 61.7334 38.1937 61.6708 38.1719 61.6094C38.1492 61.519 38.1205 61.4303 38.0859 61.3437C38.0632 61.2799 38.0372 61.2173 38.0078 61.1562C37.9761 61.0709 37.9396 60.9874 37.8984 60.9062C37.8672 60.8437 37.8359 60.7812 37.7969 60.7187C37.7578 60.6562 37.7109 60.5781 37.6641 60.5C37.6262 60.4401 37.5844 60.3826 37.5391 60.3281C37.4882 60.2574 37.4335 60.1896 37.375 60.125C37.3281 60.0625 37.2812 60.0156 37.2344 59.9609C37.1732 59.892 37.108 59.8268 37.0391 59.7656C36.9922 59.7187 36.9453 59.6719 36.8906 59.625C36.875 59.6094 36.8672 59.6094 36.8594 59.5937V58.3125C36.9531 58.2344 37.0469 58.1406 37.1406 58.0469C37.5246 57.6669 37.8288 57.2142 38.0354 56.7151C38.242 56.216 38.3468 55.6807 38.3437 55.1406C38.3437 54.9844 38.3281 54.8203 38.3125 54.6562C38.3047 54.6094 38.2969 54.5547 38.2891 54.5C38.2656 54.3906 38.25 54.2969 38.2266 54.1875C38.2119 54.124 38.1937 54.0614 38.1719 54C38.148 53.91 38.1194 53.8213 38.0859 53.7344C38.0632 53.6705 38.0372 53.6079 38.0078 53.5469C37.9766 53.4687 37.9375 53.3828 37.8984 53.2969C37.8672 53.2344 37.8359 53.1719 37.7969 53.1094C37.7578 53.0312 37.7109 52.9687 37.6641 52.8906C37.6262 52.8307 37.5844 52.7733 37.5391 52.7187C37.4882 52.648 37.4335 52.5802 37.375 52.5156C37.3281 52.4531 37.2812 52.4062 37.2344 52.3437C37.1732 52.2748 37.108 52.2096 37.0391 52.1484C36.9922 52.1094 36.9453 52.0625 36.8906 52.0156C36.875 52 36.8672 52 36.8594 51.9844V50.7031C36.9531 50.625 37.0469 50.5312 37.1328 50.4531C37.5183 50.0707 37.8239 49.6154 38.0318 49.1138C38.2397 48.6122 38.3457 48.0742 38.3437 47.5312C38.3437 47.375 38.3281 47.2187 38.3125 47.0469C38.3047 47 38.2969 46.9453 38.2891 46.8906C38.2656 46.7812 38.25 46.6797 38.2266 46.5781C38.2119 46.5146 38.1937 46.452 38.1719 46.3906C38.148 46.3006 38.1194 46.2119 38.0859 46.125C38.0632 46.0611 38.0372 45.9986 38.0078 45.9375C37.9766 45.8594 37.9375 45.7656 37.8984 45.6875C37.8672 45.6328 37.8359 45.5703 37.7969 45.5078C37.7573 45.4296 37.7129 45.354 37.6641 45.2812C37.6262 45.2213 37.5844 45.1639 37.5391 45.1094C37.4882 45.0386 37.4335 44.9708 37.375 44.9062C37.3281 44.8515 37.2812 44.789 37.2344 44.7344C37.1752 44.666 37.1098 44.6032 37.0391 44.5469L36.8906 44.3984C36.875 44.3984 36.8672 44.3906 36.8594 44.375V31.9609C36.86 31.9114 36.8799 31.864 36.915 31.829C36.95 31.794 36.9973 31.774 37.0469 31.7734H62.625C62.6745 31.774 62.7219 31.794 62.7569 31.829C62.7919 31.864 62.8119 31.9114 62.8125 31.9609V63.0859C61.078 65.097 59.9056 67.5307 59.4141 70.1406ZM30.9687 45.8281C30.9728 45.6043 31.0641 45.3908 31.2231 45.2332C31.3822 45.0757 31.5964 44.9864 31.8203 44.9844H34.2344C34.7365 44.9853 35.2266 45.1378 35.6406 45.4219H35.6484C35.9621 45.6311 36.2254 45.9074 36.4193 46.2309C36.6131 46.5543 36.7327 46.9168 36.7693 47.2921C36.8059 47.6674 36.7587 48.0461 36.6311 48.4009C36.5034 48.7558 36.2986 49.0778 36.0312 49.3437C35.908 49.4564 35.7775 49.5608 35.6406 49.6562C35.2252 49.9355 34.735 50.0826 34.2344 50.0781H31.8203C31.709 50.0787 31.5986 50.0574 31.4955 50.0153C31.3924 49.9732 31.2986 49.9112 31.2196 49.8328C31.1405 49.7545 31.0776 49.6613 31.0346 49.5586C30.9915 49.4559 30.9692 49.3457 30.9687 49.2344V45.8281ZM30.9687 53.4453C30.9708 53.2208 31.0614 53.0062 31.2209 52.8482C31.3804 52.6902 31.5958 52.6015 31.8203 52.6015H34.2344C34.7357 52.5998 35.2259 52.7496 35.6406 53.0312C35.9557 53.2392 36.2204 53.5148 36.4156 53.8379C36.6108 54.161 36.7314 54.5236 36.7689 54.8993C36.8063 55.2749 36.7595 55.6542 36.6319 56.0094C36.5043 56.3647 36.2991 56.6871 36.0312 56.9531C35.908 57.0657 35.7775 57.1701 35.6406 57.2656C35.2266 57.5496 34.7365 57.7021 34.2344 57.7031H31.8203C31.5937 57.7011 31.3772 57.6096 31.2177 57.4487C31.0582 57.2877 30.9687 57.0703 30.9687 56.8437V53.4453ZM30.9687 61.0625C30.9687 60.8359 31.0582 60.6185 31.2177 60.4576C31.3772 60.2966 31.5937 60.2052 31.8203 60.2031H34.2344C34.737 60.2004 35.2282 60.3532 35.6406 60.6406C35.9557 60.8486 36.2204 61.1241 36.4156 61.4473C36.6108 61.7704 36.7314 62.133 36.7689 62.5086C36.8063 62.8843 36.7595 63.2635 36.6319 63.6188C36.5043 63.9741 36.2991 64.2965 36.0312 64.5625C35.5489 65.0301 34.9061 65.2956 34.2344 65.3047H31.8203C31.5947 65.3041 31.3784 65.2141 31.2188 65.0546C31.0593 64.895 30.9694 64.6788 30.9687 64.4531V61.0625ZM31.8203 72.9141C31.5958 72.9141 31.3804 72.8254 31.2209 72.6674C31.0614 72.5094 30.9708 72.2948 30.9687 72.0703V68.6797C30.9683 68.5677 30.9901 68.4568 31.0327 68.3533C31.0754 68.2498 31.1381 68.1558 31.2172 68.0766C31.2964 67.9975 31.3904 67.9347 31.4939 67.8921C31.5974 67.8494 31.7084 67.8277 31.8203 67.8281H34.2344C34.735 67.8236 35.2252 67.9707 35.6406 68.25C35.9905 68.4834 36.2776 68.7994 36.4765 69.17C36.6754 69.5405 36.7801 69.9544 36.7812 70.375C36.781 70.7092 36.7147 71.04 36.5859 71.3484C36.4572 71.6568 36.2687 71.9367 36.0312 72.1719C35.9121 72.2891 35.7812 72.3938 35.6406 72.4844C35.2259 72.766 34.7357 72.9158 34.2344 72.9141H31.8203ZM57.3125 93.9219L55.5781 87.0781C55.6505 87.0067 55.7079 86.9216 55.7468 86.8276C55.7857 86.7337 55.8054 86.6329 55.8047 86.5312C55.8028 86.3246 55.72 86.127 55.5738 85.9808C55.4277 85.8347 55.2301 85.7518 55.0234 85.75C54.1383 85.7841 53.2568 85.6201 52.4431 85.27C51.6294 84.9199 50.9042 84.3926 50.3203 83.7266H61.7109C62.0378 83.7305 62.3594 83.6444 62.6405 83.4777C62.9217 83.3109 63.1515 83.07 63.3047 82.7812C63.4592 82.492 63.5321 82.1661 63.5156 81.8386C63.499 81.511 63.3937 81.1941 63.2109 80.9219C63.1852 80.8733 63.1565 80.8263 63.125 80.7812C63.0312 80.625 62.9297 80.4844 62.8437 80.3281C62.7235 80.1364 62.614 79.9382 62.5156 79.7344C62.4531 79.625 62.3906 79.5156 62.3203 79.3672C62.1094 78.9531 61.9297 78.5312 61.7578 78.0937L61.6172 77.7187C61.5391 77.5 61.4766 77.2734 61.4062 77.0469C61.3437 76.8594 61.2734 76.6562 61.2266 76.4531L61.1875 76.3047C60.6879 74.3888 60.6053 72.388 60.9453 70.4375C61.1763 69.2223 61.5733 68.0446 62.125 66.9375C62.662 65.8362 63.351 64.8158 64.1719 63.9062C64.7811 63.2318 65.4652 62.6289 66.2109 62.1094L66.5469 61.875L66.6875 48.9375C66.6952 48.5098 66.7556 48.0848 66.8672 47.6719L66.9297 47.5234V47.4844C67.1986 46.5974 67.7108 45.8037 68.4082 45.1933C69.1057 44.5829 69.9603 44.1803 70.875 44.0312V53.7187C70.8741 54.4984 70.9953 55.2735 71.2344 56.0156L72.5312 60C72.9609 61.3437 73.3828 62.6562 73.6953 63.9844C73.0078 63.9922 72.5703 63.9687 72.5625 63.9687L72.4766 65.5312C72.4766 65.5312 72.8047 65.5469 73.3594 65.5469C73.5469 65.5469 73.7656 65.5469 74.0078 65.5312C74.0859 66.0312 74.1562 66.5391 74.1953 67.0547C74.3243 69.4857 74.3086 71.9223 74.1484 74.3516C74.0859 75.75 74.0156 77.1875 74.0078 78.5937C73.9922 78.9219 74.1406 79.4062 75.0234 81.6875C75.2187 82.2031 75.3906 82.625 75.4375 82.7812L77.3672 89.75L57.3125 93.9219Z" fill="#2F80ED"/>
<path d="M53.3672 77.8125H46.1797C45.8671 77.816 45.5599 77.8944 45.284 78.0412C45.008 78.188 44.7713 78.399 44.5937 78.6563C44.3852 78.9772 44.274 79.3516 44.2734 79.7344C44.2725 79.985 44.3212 80.2333 44.4166 80.465C44.5121 80.6967 44.6525 80.9072 44.8297 81.0844C45.0069 81.2616 45.2174 81.4019 45.4491 81.4974C45.6808 81.5929 45.9291 81.6416 46.1797 81.6406H53.3672C53.8748 81.6406 54.3617 81.439 54.7206 81.08C55.0796 80.7211 55.2812 80.2342 55.2812 79.7266C55.2812 79.2189 55.0796 78.7321 54.7206 78.3731C54.3617 78.0142 53.8748 77.8125 53.3672 77.8125V77.8125ZM53.3672 80.0781H46.1797C46.0888 80.0773 46.0018 80.0408 45.9375 79.9765C45.8732 79.9123 45.8367 79.8253 45.8359 79.7344C45.8361 79.6865 45.844 79.639 45.8594 79.5938C45.8862 79.5305 45.9307 79.4762 45.9875 79.4375C46.0443 79.3987 46.111 79.377 46.1797 79.375H53.3672C53.4596 79.3794 53.5469 79.4192 53.6108 79.486C53.6748 79.5529 53.7106 79.6418 53.7109 79.7344C53.7101 79.8253 53.6736 79.9123 53.6094 79.9765C53.5451 80.0408 53.4581 80.0773 53.3672 80.0781V80.0781ZM49.6328 44.6406C47.7928 44.6406 45.9942 45.1861 44.4642 46.2082C42.9342 47.2303 41.7416 48.683 41.0371 50.3828C40.3327 52.0825 40.148 53.953 40.5063 55.7577C40.8647 57.5624 41.7501 59.2204 43.0506 60.522C44.3511 61.8236 46.0084 62.7104 47.8128 63.0703C49.6172 63.4302 51.4878 63.247 53.1881 62.544C54.8885 61.8409 56.3422 60.6495 57.3656 59.1204C58.3889 57.5913 58.936 55.7931 58.9375 53.9531C58.9352 51.4853 57.9544 49.1192 56.2102 47.3735C54.4659 45.6277 52.1006 44.645 49.6328 44.6406V44.6406ZM51.0625 61.5469C51.7562 60.5499 52.2961 59.4543 52.6641 58.2969C53.6511 58.424 54.6276 58.6225 55.5859 58.8906C54.436 60.2788 52.835 61.2189 51.0625 61.5469V61.5469ZM55.5859 49.0156C54.5977 49.2803 53.5928 49.4787 52.5781 49.6094C52.1801 48.4262 51.5973 47.3135 50.8516 46.3125C52.7072 46.6042 54.3915 47.5659 55.5859 49.0156V49.0156ZM51.7422 54.8125C51.7046 55.4109 51.6263 56.006 51.5078 56.5938C50.1789 56.4959 48.8446 56.4959 47.5156 56.5938C47.3972 56.006 47.3189 55.4109 47.2812 54.8125H51.7422ZM47.2891 53.25C47.3307 52.5977 47.4248 51.9497 47.5703 51.3125C48.1719 51.3594 48.8047 51.3906 49.4766 51.3906C50.1094 51.3906 50.7734 51.3672 51.4531 51.3047C51.5954 51.9452 51.6894 52.5954 51.7344 53.25H47.2891ZM50.9766 49.75C50.001 49.8096 49.023 49.8148 48.0469 49.7656C48.4001 48.8202 48.8925 47.9328 49.5078 47.1328C50.1223 47.929 50.6171 48.8107 50.9766 49.75V49.75ZM48.1406 46.3516C47.4068 47.3479 46.8323 48.4522 46.4375 49.625C45.4808 49.5058 44.5314 49.3336 43.5937 49.1094C44.7416 47.6882 46.3499 46.7127 48.1406 46.3516V46.3516ZM46.0156 51.1563C45.868 51.8461 45.7714 52.5459 45.7266 53.25H41.9219C42.0108 52.2931 42.2756 51.3608 42.7031 50.5C43.7891 50.8024 44.8964 51.0218 46.0156 51.1563V51.1563ZM45.7266 54.8125C45.7544 55.463 45.8301 56.1106 45.9531 56.75C44.8579 56.8982 43.7726 57.1121 42.7031 57.3906C42.2975 56.5833 42.0383 55.7104 41.9375 54.8125H45.7266ZM46.3594 58.2969C46.7205 59.4353 47.247 60.5146 47.9219 61.5C46.2152 61.1092 44.6902 60.1541 43.5937 58.7891C44.506 58.5747 45.4292 58.4104 46.3594 58.2969V58.2969ZM51.0703 58.1406C50.7141 59.1893 50.1861 60.1714 49.5078 61.0469C48.8353 60.1677 48.3078 59.1865 47.9453 58.1406C48.9859 58.0741 50.0297 58.0741 51.0703 58.1406V58.1406ZM53.0625 56.7656C53.1877 56.1211 53.266 55.4683 53.2969 54.8125H57.3203C57.2149 55.7632 56.9313 56.6855 56.4844 57.5313C55.364 57.1929 54.2203 56.937 53.0625 56.7656V56.7656ZM53.2891 53.25C53.2492 52.5403 53.1525 51.8349 53 51.1406C54.1814 50.9725 55.3487 50.7165 56.4922 50.375C56.9573 51.2695 57.2439 52.246 57.3359 53.25H53.2891ZM28.8125 87.0313L28.3203 87.2344C28.2719 87.251 28.2222 87.2641 28.1719 87.2734C27.5391 87.3984 26.9219 87.5 26.3359 87.5781L26.1328 86.0313C26.6641 85.9531 27.2266 85.8672 27.7969 85.7578L28.2187 85.5859L28.8125 87.0313ZM23.875 86.2227L23.9297 87.7774C23.6875 87.793 23.4609 87.793 23.2344 87.793C22.625 87.793 22.0391 87.7617 21.4844 87.707L21.6406 86.1523C22.3831 86.2245 23.1295 86.248 23.875 86.2227V86.2227Z" fill="#2F80ED"/>
<path d="M14.7422 59.2969C12.8676 59.2969 11.0351 59.8529 9.47648 60.8945C7.9179 61.9361 6.70327 63.4167 5.98624 65.1487C5.26921 66.8808 5.082 68.7866 5.44829 70.6251C5.81458 72.4636 6.71791 74.1521 8.04401 75.4771C9.37012 76.8021 11.0594 77.7041 12.8982 78.0689C14.737 78.4336 16.6426 78.2448 18.3741 77.5264C20.1056 76.8079 21.5851 75.5921 22.6255 74.0326C23.6658 72.4732 24.2203 70.6402 24.2188 68.7656C24.2161 66.2538 23.2165 63.8458 21.4397 62.0704C19.6628 60.295 17.254 59.2975 14.7422 59.2969V59.2969ZM18.0078 63.2812C17.9685 63.3763 17.9108 63.4626 17.838 63.5353C17.7652 63.6079 17.6788 63.6655 17.5837 63.7047C17.4886 63.7439 17.3867 63.764 17.2839 63.7637C17.181 63.7634 17.0793 63.7428 16.9844 63.7031C16.8478 63.6374 16.6984 63.6028 16.5469 63.6016H15.6797C15.5314 63.6019 15.3846 63.6314 15.2477 63.6886C15.1109 63.7457 14.9866 63.8293 14.8821 63.9345C14.7776 64.0397 14.6949 64.1646 14.6387 64.3018C14.5825 64.4391 14.554 64.5861 14.5547 64.7344V66.7812H16.3906C16.5978 66.7812 16.7965 66.8636 16.9431 67.0101C17.0896 67.1566 17.1719 67.3553 17.1719 67.5625C17.1719 67.7697 17.0896 67.9684 16.9431 68.1149C16.7965 68.2614 16.5978 68.3437 16.3906 68.3437H14.5547V74.7031C14.5547 74.9103 14.4724 75.109 14.3259 75.2556C14.1794 75.4021 13.9806 75.4844 13.7734 75.4844C13.5662 75.4844 13.3675 75.4021 13.221 75.2556C13.0745 75.109 12.9922 74.9103 12.9922 74.7031V68.3437H12.1953C11.9881 68.3437 11.7894 68.2614 11.6429 68.1149C11.4964 67.9684 11.4141 67.7697 11.4141 67.5625C11.4141 67.3553 11.4964 67.1566 11.6429 67.0101C11.7894 66.8636 11.9881 66.7812 12.1953 66.7812H12.9922V64.7344C12.9918 64.0208 13.2745 63.3361 13.7784 62.8308C14.2823 62.3255 14.9661 62.0407 15.6797 62.0391H16.5469C16.9076 62.0426 17.2638 62.1197 17.5938 62.2656C17.6882 62.3044 17.774 62.3616 17.8461 62.4339C17.9182 62.5061 17.9752 62.5921 18.0138 62.6866C18.0523 62.7811 18.0716 62.8824 18.0706 62.9845C18.0696 63.0866 18.0482 63.1875 18.0078 63.2812V63.2812Z" fill="#F2C94C"/>
<path d="M20.8281 16.6445C21.1172 16.6445 21.3516 16.4102 21.3516 16.1211C21.3516 15.832 21.1172 15.5977 20.8281 15.5977C20.539 15.5977 20.3047 15.832 20.3047 16.1211C20.3047 16.4102 20.539 16.6445 20.8281 16.6445Z" fill="#2F80ED"/>
<path d="M19.5078 85.7227L19.0391 87.2148C18.2196 86.9634 17.4407 86.5951 16.7266 86.1211L17.6016 84.8242C18.1892 85.216 18.8316 85.5188 19.5078 85.7227Z" fill="#2F80ED"/>
<path d="M18.9922 19.5156C18.9945 19.8833 18.8876 20.2433 18.685 20.5501C18.4823 20.8568 18.1931 21.0964 17.8541 21.2386C17.515 21.3807 17.1414 21.4189 16.7806 21.3483C16.4198 21.2777 16.0881 21.1015 15.8275 20.8421C15.567 20.5827 15.3895 20.2518 15.3174 19.8913C15.2452 19.5308 15.2819 19.157 15.4225 18.8173C15.5632 18.4777 15.8016 18.1874 16.1075 17.9835C16.4134 17.7796 16.773 17.6711 17.1407 17.6719C17.6299 17.6733 18.0989 17.8678 18.4456 18.213C18.7923 18.5582 18.9887 19.0264 18.9922 19.5156V19.5156Z" fill="#F6F8F9"/>
<path d="M16.1484 83.3945L14.8594 84.2773C14.3302 83.5269 13.9849 82.6624 13.8516 81.7539L15.4062 81.5977C15.5183 82.244 15.7717 82.8575 16.1484 83.3945V83.3945ZM17.1406 16.1094C16.465 16.1094 15.8047 16.3098 15.2431 16.6853C14.6814 17.0608 14.2439 17.5944 13.9857 18.2187C13.7275 18.843 13.6604 19.5299 13.7927 20.1924C13.9251 20.8548 14.251 21.4632 14.7293 21.9403C15.2075 22.4175 15.8166 22.742 16.4794 22.8728C17.1421 23.0037 17.8288 22.935 18.4525 22.6754C19.0762 22.4158 19.6089 21.977 19.9831 21.4145C20.3573 20.852 20.5562 20.1912 20.5547 19.5156C20.5504 18.6122 20.189 17.7471 19.5495 17.1091C18.9099 16.471 18.044 16.1116 17.1406 16.1094V16.1094ZM17.1406 21.375C16.7747 21.375 16.4171 21.2666 16.1128 21.0635C15.8084 20.8604 15.5711 20.5717 15.4308 20.2338C15.2904 19.8959 15.2533 19.524 15.3241 19.1651C15.3949 18.8061 15.5705 18.4762 15.8286 18.2169C16.0868 17.9577 16.416 17.7807 16.7746 17.7084C17.1333 17.6361 17.5053 17.6716 17.8438 17.8106C18.1822 17.9495 18.472 18.1856 18.6763 18.4891C18.8807 18.7925 18.9906 19.1498 18.9922 19.5156C18.9924 20.0075 18.7976 20.4794 18.4506 20.8279C18.1035 21.1764 17.6325 21.3731 17.1406 21.375V21.375Z" fill="#2F80ED"/>
<path d="M21.3359 14.7656H12.9375C12.8261 14.765 12.7158 14.7864 12.6127 14.8285C12.5096 14.8705 12.4158 14.9325 12.3367 15.0109C12.2576 15.0893 12.1948 15.1825 12.1517 15.2852C12.1087 15.3879 12.0863 15.498 12.0859 15.6094V22.9219C12.0847 23.0344 12.1058 23.1461 12.1481 23.2504C12.1903 23.3547 12.2529 23.4496 12.3321 23.5296C12.4113 23.6095 12.5056 23.6729 12.6095 23.7161C12.7135 23.7593 12.8249 23.7815 12.9375 23.7813H21.3359C21.4485 23.7815 21.5599 23.7593 21.6639 23.7161C21.7678 23.6729 21.8621 23.6095 21.9413 23.5296C22.0205 23.4496 22.0831 23.3547 22.1254 23.2504C22.1676 23.1461 22.1887 23.0344 22.1875 22.9219V15.6094C22.1871 15.498 22.1647 15.3879 22.1217 15.2852C22.0786 15.1825 22.0158 15.0893 21.9367 15.0109C21.8576 14.9325 21.7638 14.8705 21.6607 14.8285C21.5576 14.7864 21.4473 14.765 21.3359 14.7656V14.7656ZM17.1406 22.9375C16.4657 22.9375 15.8059 22.7375 15.2447 22.3627C14.6834 21.9879 14.2458 21.4551 13.9872 20.8318C13.7286 20.2084 13.6605 19.5223 13.7916 18.8603C13.9227 18.1982 14.2471 17.5899 14.7238 17.1121C15.2004 16.6343 15.808 16.3086 16.4698 16.1759C17.1315 16.0433 17.8177 16.1098 18.4417 16.367C19.0657 16.6242 19.5994 17.0606 19.9755 17.621C20.3516 18.1814 20.5531 18.8407 20.5547 19.5156C20.5536 20.4215 20.1939 21.2901 19.5541 21.9314C18.9142 22.5727 18.0465 22.9344 17.1406 22.9375V22.9375ZM20.8281 16.6406C20.7243 16.6406 20.6228 16.6097 20.5365 16.5519C20.4503 16.494 20.3832 16.4118 20.3438 16.3157C20.3044 16.2196 20.2945 16.1139 20.3154 16.0122C20.3362 15.9104 20.3869 15.8172 20.4608 15.7443C20.5348 15.6714 20.6288 15.6222 20.7309 15.6029C20.8329 15.5836 20.9384 15.5951 21.0339 15.6359C21.1294 15.6767 21.2106 15.745 21.2672 15.8321C21.3237 15.9192 21.3531 16.0212 21.3516 16.125C21.3499 16.2626 21.294 16.394 21.196 16.4906C21.0979 16.5871 20.9657 16.6411 20.8281 16.6406V16.6406Z" fill="#F2C94C"/>
<path d="M12.9922 64.7305C12.9934 64.0181 13.277 63.3352 13.7807 62.8315C14.2844 62.3277 14.9673 62.0442 15.6797 62.043H16.5469C16.9071 62.0438 17.2633 62.1183 17.5938 62.2617C17.6921 62.299 17.7819 62.3557 17.8577 62.4285C17.9336 62.5013 17.994 62.5886 18.0353 62.6853C18.0766 62.782 18.098 62.886 18.0982 62.9912C18.0983 63.0963 18.0772 63.2004 18.0362 63.2972C17.9952 63.394 17.935 63.4815 17.8594 63.5545C17.7837 63.6275 17.6941 63.6845 17.5958 63.722C17.4976 63.7596 17.3929 63.7769 17.2878 63.773C17.1827 63.7691 17.0795 63.744 16.9844 63.6992C16.8473 63.6361 16.6978 63.604 16.5469 63.6055H15.6797C15.3813 63.6055 15.0952 63.724 14.8842 63.935C14.6732 64.146 14.5547 64.4321 14.5547 64.7305V66.7773H16.3906C16.5978 66.7773 16.7965 66.8597 16.9431 67.0062C17.0896 67.1527 17.1719 67.3514 17.1719 67.5586C17.1719 67.7658 17.0896 67.9645 16.9431 68.111C16.7965 68.2575 16.5978 68.3398 16.3906 68.3398H14.5547V74.707C14.5547 74.9142 14.4724 75.1129 14.3259 75.2595C14.1794 75.406 13.9806 75.4883 13.7734 75.4883C13.5662 75.4883 13.3675 75.406 13.221 75.2595C13.0745 75.1129 12.9922 74.9142 12.9922 74.707V68.3398H12.1953C11.9881 68.3398 11.7894 68.2575 11.6429 68.111C11.4964 67.9645 11.4141 67.7658 11.4141 67.5586C11.4141 67.3514 11.4964 67.1527 11.6429 67.0062C11.7894 66.8597 11.9881 66.7773 12.1953 66.7773H12.9922V64.7305Z" fill="#2F80ED"/>
<path d="M17.1406 9.79688C15.2657 9.79533 13.4324 10.35 11.8728 11.3907C10.3132 12.4314 9.09734 13.9114 8.37911 15.6433C7.66088 17.3752 7.47256 19.2813 7.83796 21.1203C8.20337 22.9593 9.10608 24.6486 10.4319 25.9744C11.7577 27.3002 13.4469 28.2029 15.2859 28.5683C17.1249 28.9337 19.031 28.7454 20.7629 28.0272C22.4949 27.3089 23.9748 26.0931 25.0155 24.5335C26.0562 22.9739 26.6109 21.1406 26.6094 19.2656C26.6052 16.7556 25.6063 14.3496 23.8315 12.5748C22.0566 10.7999 19.6506 9.80101 17.1406 9.79688V9.79688ZM23.75 22.9219C23.7506 23.2394 23.6887 23.554 23.5677 23.8476C23.4466 24.1412 23.269 24.4081 23.0448 24.633C22.8206 24.8579 22.5543 25.0365 22.2611 25.1584C21.9679 25.2804 21.6535 25.3433 21.3359 25.3438H12.9375C12.6199 25.3433 12.3056 25.2804 12.0124 25.1584C11.7191 25.0365 11.4528 24.8579 11.2287 24.633C11.0045 24.4081 10.8268 24.1412 10.7058 23.8476C10.5848 23.554 10.5228 23.2394 10.5234 22.9219V15.6094C10.5255 14.9705 10.7808 14.3585 11.2333 13.9074C11.6858 13.4564 12.2986 13.2031 12.9375 13.2031H21.3359C21.9748 13.2031 22.5877 13.4564 23.0402 13.9074C23.4927 14.3585 23.7479 14.9705 23.75 15.6094V22.9219Z" fill="#F2C94C"/>
<path d="M17.1406 8.23438C14.9566 8.23283 12.8213 8.87915 11.0047 10.0915C9.18815 11.3039 7.77204 13.0279 6.93555 15.0454C6.09906 17.0628 5.87979 19.283 6.30549 21.4251C6.73118 23.5672 7.78271 25.5349 9.32702 27.0792C10.8713 28.6235 12.839 29.6751 14.9811 30.1008C17.1232 30.5265 19.3434 30.3072 21.3609 29.4707C23.3783 28.6342 25.1023 27.2181 26.3147 25.4015C27.5271 23.585 28.1734 21.4496 28.1719 19.2656C28.168 16.3412 27.0045 13.5376 24.9366 11.4697C22.8687 9.40178 20.0651 8.23831 17.1406 8.23438V8.23438ZM17.1406 28.75C15.2663 28.7516 13.4337 28.1973 11.8744 27.1573C10.3151 26.1172 9.09929 24.6382 8.38061 22.9072C7.66192 21.1762 7.47268 19.2709 7.83682 17.4323C8.20096 15.5937 9.10213 13.9044 10.4264 12.578C11.7506 11.2516 13.4384 10.3477 15.2764 9.9805C17.1143 9.61333 19.0199 9.79942 20.7521 10.5153C22.4843 11.2311 23.9654 12.4445 25.008 14.0021C26.0505 15.5596 26.6078 17.3913 26.6094 19.2656C26.6086 21.7781 25.6112 24.1876 23.8361 25.9657C22.061 27.7437 19.6531 28.745 17.1406 28.75V28.75Z" fill="#2F80ED"/>
<path d="M21.3359 13.2031H12.9375C12.2986 13.2031 11.6858 13.4564 11.2333 13.9074C10.7808 14.3585 10.5255 14.9705 10.5234 15.6094V22.9219C10.5228 23.2394 10.5848 23.554 10.7058 23.8476C10.8268 24.1412 11.0045 24.4081 11.2287 24.633C11.4528 24.8579 11.7192 25.0365 12.0124 25.1584C12.3056 25.2804 12.6199 25.3433 12.9375 25.3437H21.3359C21.6535 25.3433 21.9679 25.2804 22.2611 25.1584C22.5543 25.0365 22.8206 24.8579 23.0448 24.633C23.269 24.4081 23.4466 24.1412 23.5677 23.8476C23.6887 23.554 23.7506 23.2394 23.75 22.9219V15.6094C23.7479 14.9705 23.4927 14.3585 23.0402 13.9074C22.5877 13.4564 21.9748 13.2031 21.3359 13.2031V13.2031ZM22.1875 22.9219C22.1887 23.0344 22.1676 23.1461 22.1254 23.2504C22.0831 23.3547 22.0206 23.4496 21.9413 23.5295C21.8621 23.6095 21.7678 23.6729 21.6639 23.7161C21.56 23.7593 21.4485 23.7815 21.3359 23.7813H12.9375C12.825 23.7815 12.7135 23.7593 12.6096 23.7161C12.5056 23.6729 12.4113 23.6095 12.3321 23.5295C12.2529 23.4496 12.1903 23.3547 12.1481 23.2504C12.1058 23.1461 12.0847 23.0344 12.0859 22.9219V15.6094C12.0863 15.498 12.1087 15.3879 12.1517 15.2852C12.1948 15.1825 12.2576 15.0893 12.3367 15.0109C12.4158 14.9325 12.5096 14.8705 12.6127 14.8284C12.7158 14.7864 12.8262 14.765 12.9375 14.7656H21.3359C21.4473 14.765 21.5577 14.7864 21.6607 14.8284C21.7638 14.8705 21.8576 14.9325 21.9367 15.0109C22.0158 15.0893 22.0787 15.1825 22.1217 15.2852C22.1647 15.3879 22.1871 15.498 22.1875 15.6094V22.9219ZM14.7422 57.7344C12.5585 57.7344 10.4239 58.382 8.6084 59.5953C6.79287 60.8087 5.37797 62.5332 4.54268 64.5508C3.70739 66.5684 3.48924 68.7883 3.91581 70.9299C4.34239 73.0715 5.39454 75.0385 6.93916 76.582C8.48378 78.1255 10.4515 79.1763 12.5934 79.6013C14.7353 80.0264 16.9551 79.8067 18.9721 78.97C20.9891 78.1332 22.7126 76.7171 23.9246 74.9007C25.1367 73.0843 25.7828 70.9493 25.7813 68.7656C25.7759 65.8402 24.6109 63.0364 22.5416 60.9685C20.4723 58.9007 17.6676 57.7377 14.7422 57.7344V57.7344ZM14.7422 78.25C12.8682 78.25 11.0364 77.6944 9.47811 76.6534C7.91986 75.6125 6.70523 74.1329 5.98774 72.4018C5.27025 70.6706 5.08213 68.7656 5.44715 66.9275C5.81217 65.0895 6.71395 63.4009 8.03849 62.0753C9.36303 60.7496 11.0509 59.8465 12.8886 59.4799C14.7264 59.1134 16.6316 59.2999 18.3633 60.016C20.0951 60.7321 21.5756 61.9455 22.6179 63.5029C23.6601 65.0602 24.2172 66.8917 24.2188 68.7656C24.2179 71.2794 23.2195 73.6902 21.4427 75.4684C19.6659 77.2467 17.256 78.2471 14.7422 78.25V78.25Z" fill="#2F80ED"/>
</svg>
