<svg width="100" height="100" viewBox="0 0 100 100" fill="none" xmlns="http://www.w3.org/2000/svg">
<path d="M50 93.75C75.0254 93.75 95.3125 73.4629 95.3125 48.4375C95.3125 23.4121 75.0254 3.125 50 3.125C24.9746 3.125 4.6875 23.4121 4.6875 48.4375C4.6875 73.4629 24.9746 93.75 50 93.75Z" fill="#F2F2F2"/>
<path d="M81.25 96.875C89.0165 96.875 95.3125 90.579 95.3125 82.8125C95.3125 75.046 89.0165 68.75 81.25 68.75C73.4835 68.75 67.1875 75.046 67.1875 82.8125C67.1875 90.579 73.4835 96.875 81.25 96.875Z" fill="#8FCCC0"/>
<path d="M50 40.625C53.0203 40.625 55.4688 38.1766 55.4688 35.1562C55.4688 32.1359 53.0203 29.6875 50 29.6875C46.9797 29.6875 44.5312 32.1359 44.5312 35.1562C44.5312 38.1766 46.9797 40.625 50 40.625Z" fill="#FFD9A6"/>
<path d="M39.0625 64.0625V48.4375C39.0625 46.7799 39.721 45.1902 40.8931 44.0181C42.0652 42.846 43.6549 42.1875 45.3125 42.1875H54.6875C56.3451 42.1875 57.9348 42.846 59.1069 44.0181C60.279 45.1902 60.9375 46.7799 60.9375 48.4375V64.0625H39.0625Z" fill="#F2C94C"/>
<path d="M68.75 43.75C71.3388 43.75 73.4375 41.6513 73.4375 39.0625C73.4375 36.4737 71.3388 34.375 68.75 34.375C66.1612 34.375 64.0625 36.4737 64.0625 39.0625C64.0625 41.6513 66.1612 43.75 68.75 43.75Z" fill="#FFD9A6"/>
<path d="M60.9375 60.9375V50C60.9375 48.7568 61.4314 47.5645 62.3104 46.6854C63.1895 45.8064 64.3818 45.3125 65.625 45.3125H71.875C73.1182 45.3125 74.3105 45.8064 75.1896 46.6854C76.0686 47.5645 76.5625 48.7568 76.5625 50V60.9375H60.9375Z" fill="#F2C94C"/>
<path d="M31.25 43.75C33.8388 43.75 35.9375 41.6513 35.9375 39.0625C35.9375 36.4737 33.8388 34.375 31.25 34.375C28.6612 34.375 26.5625 36.4737 26.5625 39.0625C26.5625 41.6513 28.6612 43.75 31.25 43.75Z" fill="#FFD9A6"/>
<path d="M23.4375 60.9375V50C23.4375 48.7568 23.9314 47.5645 24.8104 46.6854C25.6895 45.8064 26.8818 45.3125 28.125 45.3125H34.375C35.6182 45.3125 36.8105 45.8064 37.6896 46.6854C38.5686 47.5645 39.0625 48.7568 39.0625 50V60.9375H23.4375Z" fill="#F2C94C"/>
<path d="M50 95.3125C56.2957 95.3211 62.5269 94.0451 68.3125 91.5625C69.5639 93.4254 71.2018 94.9968 73.1149 96.17C75.0281 97.3431 77.1714 98.0903 79.3992 98.3609C81.627 98.6314 83.8869 98.4189 86.0252 97.7377C88.1635 97.0566 90.13 95.9229 91.7909 94.4136C93.4517 92.9044 94.768 91.0551 95.6501 88.9916C96.5322 86.9281 96.9595 84.6988 96.9029 82.4553C96.8462 80.2119 96.3069 78.007 95.3218 75.9906C94.3366 73.9743 92.9287 72.1938 91.1937 70.7703C96.0815 61.747 97.8723 51.3688 96.291 41.2293C94.7098 31.0897 89.8441 21.7496 82.4409 14.643C75.0378 7.5364 65.5066 3.05635 55.3109 1.89076C45.1153 0.725173 34.8189 2.9385 26.0028 8.19088C17.1868 13.4432 10.3385 21.4443 6.5097 30.9653C2.68085 40.4863 2.0831 51.0009 4.80825 60.8946C7.53339 70.7882 13.4307 79.5138 21.5947 85.7314C29.7587 91.9491 39.7379 95.3151 50 95.3125V95.3125ZM93.75 82.8125C93.75 85.2848 93.0169 87.7015 91.6434 89.7571C90.2698 91.8127 88.3176 93.4149 86.0335 94.361C83.7495 95.3071 81.2361 95.5546 78.8114 95.0723C76.3866 94.59 74.1593 93.3995 72.4112 91.6513C70.663 89.9032 69.4725 87.6759 68.9902 85.2511C68.5079 82.8264 68.7554 80.313 69.7015 78.029C70.6476 75.7449 72.2497 73.7926 74.3054 72.4191C76.361 71.0456 78.7777 70.3125 81.25 70.3125C84.564 70.3162 87.7413 71.6344 90.0847 73.9778C92.4281 76.3212 93.7463 79.4984 93.75 82.8125ZM50 4.68749C57.557 4.68149 64.9866 6.63426 71.564 10.3553C78.1414 14.0764 83.6421 19.4387 87.5295 25.9191C91.4169 32.3996 93.5583 39.777 93.7448 47.3318C93.9313 54.8865 92.1566 62.3606 88.5937 69.025C85.7524 67.507 82.511 66.905 79.3141 67.3015C76.1171 67.698 73.1211 69.0737 70.7367 71.2399C68.3523 73.4061 66.6963 76.2568 65.9957 79.4011C65.2951 82.5455 65.5842 85.8295 66.8234 88.8031C61.4987 91.046 55.7778 92.1969 50 92.1875C38.3968 92.1875 27.2688 87.5781 19.0641 79.3734C10.8593 71.1687 6.24999 60.0407 6.24999 48.4375C6.24999 36.8343 10.8593 25.7063 19.0641 17.5016C27.2688 9.29685 38.3968 4.68749 50 4.68749V4.68749Z" fill="#2F80ED"/>
<path d="M23.4375 62.5H37.5V64.0625C37.5 64.4769 37.6646 64.8743 37.9576 65.1674C38.2507 65.4604 38.6481 65.625 39.0625 65.625H60.9375C61.3519 65.625 61.7493 65.4604 62.0424 65.1674C62.3354 64.8743 62.5 64.4769 62.5 64.0625V62.5H76.5625C76.9769 62.5 77.3743 62.3354 77.6674 62.0424C77.9604 61.7493 78.125 61.3519 78.125 60.9375V50C78.1205 48.4955 77.5725 47.0433 76.5819 45.9108C75.5914 44.7784 74.2249 44.0421 72.7344 43.8375C73.7254 43.0175 74.4393 41.9117 74.7786 40.671C75.1179 39.4302 75.0662 38.115 74.6304 36.9048C74.1946 35.6946 73.3961 34.6483 72.3437 33.9087C71.2913 33.1691 70.0363 32.7722 68.75 32.7722C67.4637 32.7722 66.2087 33.1691 65.1563 33.9087C64.1039 34.6483 63.3054 35.6946 62.8696 36.9048C62.4338 38.115 62.3821 39.4302 62.7214 40.671C63.0607 41.9117 63.7746 43.0175 64.7656 43.8375C63.6592 43.9902 62.6148 44.44 61.7437 45.1391C61.1175 43.7944 60.1213 42.6558 58.8718 41.8564C57.6222 41.057 56.1709 40.6299 54.6875 40.625H54.3656C55.51 39.7186 56.3439 38.4784 56.7516 37.0765C57.1592 35.6747 57.1204 34.1808 56.6405 32.802C56.1606 31.4232 55.2635 30.228 54.0735 29.3822C52.8836 28.5364 51.4599 28.082 50 28.082C48.5401 28.082 47.1164 28.5364 45.9265 29.3822C44.7365 30.228 43.8394 31.4232 43.3595 32.802C42.8796 34.1808 42.8408 35.6747 43.2484 37.0765C43.6561 38.4784 44.49 39.7186 45.6344 40.625H45.3125C43.8291 40.6299 42.3778 41.057 41.1282 41.8564C39.8787 42.6558 38.8825 43.7944 38.2562 45.1391C37.3852 44.44 36.3408 43.9902 35.2344 43.8375C36.2254 43.0175 36.9393 41.9117 37.2786 40.671C37.6179 39.4302 37.5662 38.115 37.1304 36.9048C36.6946 35.6946 35.8961 34.6483 34.8437 33.9087C33.7913 33.1691 32.5363 32.7722 31.25 32.7722C29.9637 32.7722 28.7087 33.1691 27.6563 33.9087C26.6039 34.6483 25.8054 35.6946 25.3696 36.9048C24.9338 38.115 24.8821 39.4302 25.2214 40.671C25.5607 41.9117 26.2746 43.0175 27.2656 43.8375C25.7751 44.0421 24.4086 44.7784 23.4181 45.9108C22.4275 47.0433 21.8795 48.4955 21.875 50V60.9375C21.875 61.3519 22.0396 61.7493 22.3326 62.0424C22.6257 62.3354 23.0231 62.5 23.4375 62.5ZM68.75 35.9375C69.3681 35.9375 69.9723 36.1208 70.4862 36.4642C71.0001 36.8075 71.4006 37.2956 71.6371 37.8666C71.8736 38.4376 71.9355 39.066 71.815 39.6722C71.6944 40.2784 71.3968 40.8352 70.9597 41.2722C70.5227 41.7093 69.9659 42.0069 69.3597 42.1275C68.7535 42.248 68.1251 42.1862 67.5541 41.9496C66.9831 41.7131 66.495 41.3126 66.1517 40.7987C65.8083 40.2848 65.625 39.6806 65.625 39.0625C65.625 38.2337 65.9542 37.4389 66.5403 36.8528C67.1263 36.2667 67.9212 35.9375 68.75 35.9375ZM62.5 50C62.5 49.1712 62.8292 48.3764 63.4153 47.7903C64.0013 47.2042 64.7962 46.875 65.625 46.875H71.875C72.7038 46.875 73.4987 47.2042 74.0847 47.7903C74.6708 48.3764 75 49.1712 75 50V59.375H62.5V50ZM50 31.25C50.7726 31.25 51.5278 31.4791 52.1702 31.9083C52.8126 32.3376 53.3133 32.9476 53.6089 33.6614C53.9046 34.3752 53.9819 35.1606 53.8312 35.9183C53.6805 36.6761 53.3084 37.3721 52.7621 37.9184C52.2158 38.4647 51.5198 38.8367 50.7621 38.9875C50.0043 39.1382 49.2189 39.0608 48.5051 38.7652C47.7914 38.4695 47.1813 37.9688 46.7521 37.3265C46.3228 36.6841 46.0938 35.9288 46.0938 35.1563C46.0938 34.1203 46.5053 33.1267 47.2379 32.3941C47.9704 31.6616 48.964 31.25 50 31.25ZM40.625 50V48.4375C40.625 47.1943 41.1189 46.002 41.9979 45.1229C42.877 44.2439 44.0693 43.75 45.3125 43.75H54.6875C55.9307 43.75 57.123 44.2439 58.0021 45.1229C58.8811 46.002 59.375 47.1943 59.375 48.4375V62.5H40.625V50ZM31.25 35.9375C31.8681 35.9375 32.4723 36.1208 32.9862 36.4642C33.5001 36.8075 33.9006 37.2956 34.1371 37.8666C34.3736 38.4376 34.4355 39.066 34.315 39.6722C34.1944 40.2784 33.8967 40.8352 33.4597 41.2722C33.0227 41.7093 32.4658 42.0069 31.8597 42.1275C31.2535 42.248 30.6251 42.1862 30.0541 41.9496C29.4831 41.7131 28.995 41.3126 28.6517 40.7987C28.3083 40.2848 28.125 39.6806 28.125 39.0625C28.125 38.2337 28.4542 37.4389 29.0403 36.8528C29.6263 36.2667 30.4212 35.9375 31.25 35.9375V35.9375ZM25 50C25 49.1712 25.3292 48.3764 25.9153 47.7903C26.5013 47.2042 27.2962 46.875 28.125 46.875H34.375C35.2038 46.875 35.9987 47.2042 36.5847 47.7903C37.1708 48.3764 37.5 49.1712 37.5 50V59.375H25V50Z" fill="#2F80ED"/>
<path d="M82.8125 75H79.6875V81.25H73.4375V84.375H79.6875V90.625H82.8125V84.375H89.0625V81.25H82.8125V75Z" fill="#2F80ED"/>
</svg>
