<svg width="100" height="100" viewBox="0 0 100 100" fill="none" xmlns="http://www.w3.org/2000/svg">
<g clip-path="url(#clip0_2_158)">
<path d="M10.4167 27.0833H89.5833C90.6884 27.0833 91.7482 27.5223 92.5296 28.3037C93.311 29.0851 93.75 30.1449 93.75 31.25V85.4167H6.25V31.25C6.25 30.1449 6.68899 29.0851 7.47039 28.3037C8.25179 27.5223 9.3116 27.0833 10.4167 27.0833V27.0833Z" fill="white"/>
<path d="M2.08333 85.4167H97.9167V93.75C97.9167 94.8551 97.4777 95.9149 96.6963 96.6963C95.9149 97.4777 94.8551 97.9167 93.75 97.9167H6.25C5.14493 97.9167 4.08512 97.4777 3.30372 96.6963C2.52232 95.9149 2.08333 94.8551 2.08333 93.75V85.4167Z" fill="white"/>
<path d="M54.1667 91.6667H45.8333C44.7283 91.6667 43.6685 91.2277 42.8871 90.4463C42.1057 89.6649 41.6667 88.6051 41.6667 87.5H58.3333C58.3333 88.6051 57.8943 89.6649 57.1129 90.4463C56.3315 91.2277 55.2717 91.6667 54.1667 91.6667Z" fill="#2F80ED"/>
<path d="M52.0833 77.0833C52.0833 76.5308 51.8638 76.0009 51.4731 75.6102C51.0824 75.2195 50.5525 75 50 75C49.4475 75 48.9176 75.2195 48.5269 75.6102C48.1362 76.0009 47.9167 76.5308 47.9167 77.0833C47.9167 77.6359 48.1362 78.1658 48.5269 78.5565C48.9176 78.9472 49.4475 79.1667 50 79.1667C50.5525 79.1667 51.0824 78.9472 51.4731 78.5565C51.8638 78.1658 52.0833 77.6359 52.0833 77.0833ZM60.4167 77.0833C60.4167 76.5308 60.1972 76.0009 59.8065 75.6102C59.4158 75.2195 58.8859 75 58.3333 75C57.7808 75 57.2509 75.2195 56.8602 75.6102C56.4695 76.0009 56.25 76.5308 56.25 77.0833C56.25 77.6359 56.4695 78.1658 56.8602 78.5565C57.2509 78.9472 57.7808 79.1667 58.3333 79.1667C58.8859 79.1667 59.4158 78.9472 59.8065 78.5565C60.1972 78.1658 60.4167 77.6359 60.4167 77.0833ZM43.75 77.0833C43.75 76.5308 43.5305 76.0009 43.1398 75.6102C42.7491 75.2195 42.2192 75 41.6667 75C41.1141 75 40.5842 75.2195 40.1935 75.6102C39.8028 76.0009 39.5833 76.5308 39.5833 77.0833C39.5833 77.6359 39.8028 78.1658 40.1935 78.5565C40.5842 78.9472 41.1141 79.1667 41.6667 79.1667C42.2192 79.1667 42.7491 78.9472 43.1398 78.5565C43.5305 78.1658 43.75 77.6359 43.75 77.0833Z" fill="#2F80ED"/>
<path d="M77.0833 2.08334H22.9167C21.7661 2.08334 20.8333 3.01608 20.8333 4.16667V45.8333C20.8333 46.9839 21.7661 47.9167 22.9167 47.9167H77.0833C78.2339 47.9167 79.1667 46.9839 79.1667 45.8333V4.16667C79.1667 3.01608 78.2339 2.08334 77.0833 2.08334Z" fill="white"/>
<path d="M95.8333 83.3333V31.25C95.8333 29.5924 95.1748 28.0027 94.0027 26.8306C92.8306 25.6585 91.2409 25 89.5833 25H81.25V4.16667C81.25 3.0616 80.811 2.00179 80.0296 1.22039C79.2482 0.438987 78.1884 0 77.0833 0L22.9167 0C21.8116 0 20.7518 0.438987 19.9704 1.22039C19.189 2.00179 18.75 3.0616 18.75 4.16667V25H10.4167C8.75906 25 7.16935 25.6585 5.99725 26.8306C4.82515 28.0027 4.16667 29.5924 4.16667 31.25V83.3333H0V93.75C0 95.4076 0.65848 96.9973 1.83058 98.1694C3.00268 99.3415 4.5924 100 6.25 100H93.75C95.4076 100 96.9973 99.3415 98.1694 98.1694C99.3415 96.9973 100 95.4076 100 93.75V83.3333H95.8333ZM22.9167 4.16667H77.0833V45.8333H22.9167V4.16667ZM8.33333 31.25C8.33333 30.6975 8.55283 30.1676 8.94353 29.7769C9.33423 29.3862 9.86413 29.1667 10.4167 29.1667H18.75V45.8333C18.75 46.9384 19.189 47.9982 19.9704 48.7796C20.7518 49.561 21.8116 50 22.9167 50H77.0833C78.1884 50 79.2482 49.561 80.0296 48.7796C80.811 47.9982 81.25 46.9384 81.25 45.8333V29.1667H89.5833C90.1359 29.1667 90.6658 29.3862 91.0565 29.7769C91.4472 30.1676 91.6667 30.6975 91.6667 31.25V83.3333H8.33333V31.25ZM95.8333 93.75C95.8333 94.3025 95.6138 94.8324 95.2231 95.2231C94.8324 95.6138 94.3025 95.8333 93.75 95.8333H6.25C5.69747 95.8333 5.16756 95.6138 4.77686 95.2231C4.38616 94.8324 4.16667 94.3025 4.16667 93.75V87.5H95.8333V93.75Z" fill="#2F80ED"/>
<path d="M43.75 14.1667V27.5C43.753 27.8705 43.8546 28.2335 44.0446 28.5515C44.2345 28.8696 44.5059 29.1313 44.8306 29.3096C45.1554 29.4879 45.5218 29.5764 45.8922 29.5659C46.2625 29.5554 46.6233 29.4464 46.9375 29.25L57.5833 22.6042C57.8848 22.4173 58.1336 22.1566 58.3061 21.8467C58.4786 21.5368 58.5692 21.188 58.5692 20.8333C58.5692 20.4787 58.4786 20.1298 58.3061 19.8199C58.1336 19.5101 57.8848 19.2493 57.5833 19.0625L46.9375 12.5C46.6293 12.3068 46.2759 12.1977 45.9124 12.1835C45.5489 12.1693 45.188 12.2505 44.8657 12.419C44.5433 12.5876 44.2707 12.8376 44.075 13.1442C43.8792 13.4508 43.7672 13.8033 43.75 14.1667V14.1667ZM68.75 41.6667H31.25C30.6975 41.6667 30.1676 41.4472 29.7769 41.0565C29.3862 40.6658 29.1667 40.1359 29.1667 39.5833C29.1667 39.0308 29.3862 38.5009 29.7769 38.1102C30.1676 37.7195 30.6975 37.5 31.25 37.5H68.75C69.3025 37.5 69.8324 37.7195 70.2231 38.1102C70.6138 38.5009 70.8333 39.0308 70.8333 39.5833C70.8333 40.1359 70.6138 40.6658 70.2231 41.0565C69.8324 41.4472 69.3025 41.6667 68.75 41.6667Z" fill="#F2C94C"/>
</g>
<defs>
<clipPath id="clip0_2_158">
<rect width="100" height="100" fill="white"/>
</clipPath>
</defs>
</svg>
