<svg id="Layer_1" data-name="Layer 1" xmlns="http://www.w3.org/2000/svg" viewBox="0 0 65 30"><defs><style>.cls-1{fill:#00a9ac;}.cls-2{fill:#df762e;}</style></defs><path class="cls-1" d="M5.92,13.07c-.18-.1-.33-.09-.43.1L4.12,15.64H6.41l.87,1.6H3.71c-.61,0-.86.74-1.2,1.38H0l4-7.25,3.5,0,3,5.5c1.64,0,4.68-.06,5.59-.07.6,0,.47-1.08,0-1.14H11L8.58,11.38h6.47c.33,0,1.33,0,2.05,0h.09a1.29,1.29,0,0,1,.84.45,1.8,1.8,0,0,1,.37,1.24,3.9,3.9,0,0,1-.12,1.09,1.07,1.07,0,0,1-.82.77c.56.05,1.11.24,1.2,1.32a5,5,0,0,1,0,.82,1.32,1.32,0,0,1-.7,1.25,10.47,10.47,0,0,1-3.4.27l-3.59,0-.34,0H9L5.92,13.07m6.4,1.15h3.2a.56.56,0,0,0,.29-1.07.49.49,0,0,0-.15,0h-4Zm7.29-2.84h6.06c.54,0,2.14-.11,2.94.54A1.47,1.47,0,0,1,29,13.09a3.9,3.9,0,0,1-.12,1.09,1.07,1.07,0,0,1-.82.77c.68.11,1.34.48,1.28,2-.08,2.08-3.19,1.64-4.14,1.62l-5.61-.1ZM22,16.88h4.34c.91,0,.71-1.09.25-1.17-.06,0,0,0-.11,0l-4.52,0Zm0-2.66h4.07a.56.56,0,0,0,.29-1.07.49.49,0,0,0-.15,0H22Zm18.36-2.89H44.4L47.6,16c.33.6.67.74.79.28l0-1.28v-3.6h2.38v7.25h-4c-1.25-1.69-2.31-3.24-3.56-4.93-.24-.42-.56-.18-.56.11s0,.54,0,.86v4l-2.3,0h-.23l-.34,0H38.08L35,13.07c-.18-.1-.33-.09-.43.1l-1.38,2.47h2.2l.87,1.6H32.81c-.61,0-.86.74-1.21,1.38H29.1l4-7.25h3.6l3,5.52c.1.14.24.43.35.47a.29.29,0,0,0,.34-.09Zm11.22,0H53.9v2.55c.28.55.92.48,1.4-.05L58,11.37h2.85L56.9,15,61,18.64H58.13c-1-1-2.15-1.84-3.19-2.8-.59-.33-1-.1-1,.56v2.26H51.56Z"/><polygon class="cls-2" points="62.52 11.37 64.85 11.37 60.85 15.01 65 18.63 62.66 18.64 58.51 15.03 62.52 11.37"/></svg>