<svg id="Layer_1" data-name="Layer 1" xmlns="http://www.w3.org/2000/svg" viewBox="0 0 65 30"><defs><style>.cls-1{fill:#0772ba;}</style></defs><path class="cls-1" d="M5.16,18.23,2,14.3H2L2,18.23H0V11.77H1.83L5,15.83h0L5,11.77H7v6.46Z"/><path class="cls-1" d="M13,18.23l-.41-.93H9.74l-.44.93H7l3.33-6.46H12l3.3,6.46Zm-1.82-4.45h0L10.32,16h1.74Z"/><path class="cls-1" d="M22.15,18.23l.07-4.84,0,0-1.77,4.86H19l-1.77-4.86,0,0,.07,4.84H15.34V11.77h2.73L19.72,16h0l1.63-4.25H24.1v6.46Z"/><path class="cls-1" d="M31.81,18.23l-.41-.93H28.52l-.44.93H25.8l3.33-6.46H30.8l3.31,6.46ZM30,13.78h0L29.1,16h1.74Z"/><path class="cls-1" d="M41.48,17.68a3.18,3.18,0,0,1-1.27.49,6.14,6.14,0,0,1-.68.06h-3.4V11.77h3.29a4.47,4.47,0,0,1,.7.07,2.49,2.49,0,0,1,1.23.55,1.35,1.35,0,0,1,.49,1.06,1.39,1.39,0,0,1-1,1.31c.92.24,1.37.74,1.37,1.5A1.6,1.6,0,0,1,41.48,17.68Zm-1.92-4.37a1.46,1.46,0,0,0-.58-.09h-.82v1H39q.84,0,.84-.51A.4.4,0,0,0,39.56,13.31Zm.34,2.4a1.74,1.74,0,0,0-.68-.1H38.16v1.17h1.05a1.63,1.63,0,0,0,.7-.12.53.53,0,0,0,.3-.49A.46.46,0,0,0,39.9,15.71Z"/><path class="cls-1" d="M47.9,18.23l-.4-.93H44.61l-.43.93H41.9l3.33-6.46H46.9l3.3,6.46Zm-1.82-4.45h0L45.2,16h1.74Z"/><path class="cls-1" d="M55.37,18.23,52.21,14.3h0l.06,3.92h-2V11.77H52l3.21,4.06h0l-.1-4.05h2v6.46Z"/><path class="cls-1" d="M62.52,18.23l-2.27-2.79h0v2.79H58.11V11.77h2.12v2.91h0l2.35-2.91h2.22L62.07,15,65,18.23Z"/></svg>