<svg id="Layer_1" data-name="Layer 1" xmlns="http://www.w3.org/2000/svg" viewBox="0 0 65 30"><defs><style>.cls-1{fill:#204694;}.cls-2{fill:#fff;}.cls-3{fill:#e82429;}</style></defs><rect class="cls-1" x="15.57" y="8.41" width="2.98" height="13.45"/><path class="cls-1" d="M36.53,17.13c-.33-.87-3.36-8.72-3.36-8.72H29.93l.05.14,5.14,13.31h2.81L43.1,8.41H39.85s-2.79,7.27-3.32,8.72"/><path class="cls-1" d="M26.8,19.05a5.82,5.82,0,0,1-3.24.72h-.51V10.49h.42c2,0,2.63.16,3.39.69a4.86,4.86,0,0,1,1.56,4,4.65,4.65,0,0,1-1.62,3.92m2.36-9.32c-1.25-1-2.78-1.32-5.47-1.32H20.07V21.86h3.42c2.67,0,4.07-.27,5.28-1,1.74-1.1,2.64-3.09,2.64-5.71a6.4,6.4,0,0,0-2.25-5.39"/><path class="cls-1" d="M10.05,19.55a9.72,9.72,0,0,1-3,.2H5.84V16.28H7.05a11.58,11.58,0,0,1,2.92.24A1.44,1.44,0,0,1,11.11,18a1.46,1.46,0,0,1-1.06,1.53M5.84,10.48h.94a8.71,8.71,0,0,1,3.13.24,1.36,1.36,0,0,1,.85,1.35,1.39,1.39,0,0,1-.83,1.32,8.34,8.34,0,0,1-3,.37H5.84Zm5.39,4.46a2.92,2.92,0,0,0,2.52-3,3.17,3.17,0,0,0-1.93-3A10,10,0,0,0,7.4,8.36H2.85V21.81H7.94a9,9,0,0,0,4.22-.66,3.4,3.4,0,0,0,1.95-3.1c0-1.63-1-2.68-2.88-3.11"/><polyline class="cls-2" points="52.62 6.11 43.7 15 52.62 23.89 52.62 23.89 61.54 15 52.62 6.11"/><polyline class="cls-3" points="51.13 9.03 51.13 16.46 52.69 16.46 54.12 16.46 54.12 9.03 52.69 9.03"/><path class="cls-1" d="M49.5,10.51H51V15H49.5ZM55.07,15h-.81v-4.5h.81c.82,0,1.44,1,1.45,2.25S55.89,15,55.07,15"/><path class="cls-3" d="M52.62,23.89h0L43.7,15l8.92-8.89h0L61.54,15ZM43.1,15l.08.08,9.08,9.06.36.36.36-.36L62.15,15,52.63,5.5"/><polyline class="cls-3" points="52.62 19.29 48.32 15 44.1 15 51.53 22.41 51.61 22.49 52.62 23.5 61.14 15 56.92 15"/></svg>