<svg id="Layer_1" data-name="Layer 1" xmlns="http://www.w3.org/2000/svg" xmlns:xlink="http://www.w3.org/1999/xlink" viewBox="0 0 65 30"><defs><style>.cls-1{fill:none;}.cls-2{fill:#123985;}.cls-3{clip-path:url(#clip-path);}.cls-4{fill:url(#linear-gradient);}.cls-5{clip-path:url(#clip-path-2);}.cls-6{fill:url(#linear-gradient-2);}.cls-7{clip-path:url(#clip-path-3);}.cls-8{fill:url(#linear-gradient-3);}</style><clipPath id="clip-path"><path class="cls-1" d="M55.36,5.36A9.61,9.61,0,0,0,48.15,8.6,7.39,7.39,0,0,1,50.7,12a5.73,5.73,0,0,1-.08,3.54c-.08.25-.15.47-.21.68a8.27,8.27,0,0,0-.58,2.49v0a2.12,2.12,0,0,0,2,2.22,2,2,0,0,0,1.78-1,5,5,0,0,0,.3-3.13v-.06a10.63,10.63,0,0,0-.83-2.25,13,13,0,0,1-1.05-3,4.05,4.05,0,0,1,0-1.77,1.79,1.79,0,0,1-.81-2.31l.08-.22h0v0h0a2.64,2.64,0,0,0,1.09.84l.22.07a1.59,1.59,0,0,0,.3.06h.32a2.7,2.7,0,0,0,.57-.13s0,0,0,0l.09,0c.81-.32,2.29-.79,3.29-.1a2.61,2.61,0,0,1,.84.87,2.58,2.58,0,0,1,1.83,2.41l0,.32-.26-.19a2.34,2.34,0,0,0-1.27-.57h0a1.86,1.86,0,0,0-1.78,1.38c-.26.92.1,1.73,1.36,3.09a29.21,29.21,0,0,1,2.14,2.31h0a6.72,6.72,0,0,1,1.17,2.24.17.17,0,0,0,0,.07.21.21,0,0,0,.14.07.15.15,0,0,0,.12-.07,2.22,2.22,0,0,0,0-1.5c-.07-.22-.32-.83-.33-.84h0v0a8.76,8.76,0,0,1-.74-3.69,8.57,8.57,0,0,1,.46-2.56c0-.13.09-.27.14-.41h0l0-.06a7.9,7.9,0,0,1,.68-1.37,7.74,7.74,0,0,1,.68-1A9.59,9.59,0,0,0,55.36,5.36Z"/></clipPath><linearGradient id="linear-gradient" x1="-238.56" y1="114.3" x2="-238.14" y2="114.3" gradientTransform="matrix(38.71, 0, 0, -38.71, 9282.44, 4437.8)" gradientUnits="userSpaceOnUse"><stop offset="0" stop-color="#82222f"/><stop offset="0.12" stop-color="#82222f"/><stop offset="0.77" stop-color="#ed1a39"/><stop offset="1" stop-color="#ed1a39"/></linearGradient><clipPath id="clip-path-2"><path class="cls-1" d="M53.81,8.06h0S53.8,8.06,53.81,8.06Z"/></clipPath><linearGradient id="linear-gradient-2" x1="4704.11" y1="-2913.92" x2="4704.53" y2="-2913.92" gradientTransform="matrix(0.02, 0, 0, -0.02, -61.08, -63.14)" xlink:href="#linear-gradient"/><clipPath id="clip-path-3"><path class="cls-1" d="M53.31,9.85c-.89,1.78.43,3.57,1.39,4.87l.06.08a7.22,7.22,0,0,1,.42.65,6.38,6.38,0,0,1,.89,2v.05h0a.8.8,0,0,1,0,.18v0h0a4.74,4.74,0,0,1,0,1.13c0,.12,0,.25,0,.38a4.35,4.35,0,0,1-1.25,2.55,3.52,3.52,0,0,1-2.45,1h-.14A3.4,3.4,0,0,1,50.12,22h0a3.14,3.14,0,0,1-1-1.44A5.44,5.44,0,0,1,49,17.66h0a11,11,0,0,1,.36-1.35,5.37,5.37,0,0,0,.36-1.77h0v-.08a3.54,3.54,0,0,0-1.36-2.79,6.19,6.19,0,0,0-1.69-.81,9.64,9.64,0,1,0,17.23-.33,6.12,6.12,0,0,0-1.55,2.06c0,.11-.09.22-.13.32h0a7.5,7.5,0,0,0-.5,2.48,8.14,8.14,0,0,0,0,.86,5.37,5.37,0,0,0,.15.84c.11.45.25.92.29,1.06A3.09,3.09,0,0,1,61,21.62l0,0c-.2.17-.4.33-.61.48l-.48.31-.14.09a5.62,5.62,0,0,1-.64.34l-.11,0a.11.11,0,0,1-.09-.05.18.18,0,0,1,0-.16h0v0a5.79,5.79,0,0,0-.42-4.76,9.46,9.46,0,0,0-1-1.26h0l-.16-.17,0,0-.56-.6a6.45,6.45,0,0,1-1-1.44,3.32,3.32,0,0,1-.29-2.29,2.41,2.41,0,0,1,.37-.84l-.24,0a1.19,1.19,0,0,1-1.23-1.1v0l.23.07a4.31,4.31,0,0,0,1,.16,1.52,1.52,0,0,0,.76-.14A.86.86,0,0,0,56,8.59l-.31,0h-.08A2.55,2.55,0,0,0,53.31,9.85Z"/></clipPath><linearGradient id="linear-gradient-3" x1="-239.03" y1="114.62" x2="-238.61" y2="114.62" gradientTransform="matrix(46, 0, 0, -46, 11040.57, 5288.39)" xlink:href="#linear-gradient"/></defs><path class="cls-2" d="M5.34,10h-2l0,.06a1.19,1.19,0,0,0-.08.41,1.37,1.37,0,0,0,0,.19l.06.19,0,0h.48l-1.07,3.3-1-3.3H2.2l0,0a.42.42,0,0,0,.06-.19.65.65,0,0,0,0-.19,1.16,1.16,0,0,0-.07-.4l0-.07H.11l0,.07a1.19,1.19,0,0,0-.08.41,1.37,1.37,0,0,0,0,.19.48.48,0,0,0,.07.18l0,0H.52l1.55,4.83H3.3l1.62-4.83h.41l0,0a1.07,1.07,0,0,0,.07-.19,1.28,1.28,0,0,0,0-.19,1.16,1.16,0,0,0-.07-.4Z"/><path class="cls-2" d="M7.53,14.85H7.14V11.6H5.6l0,.07a.92.92,0,0,0-.07.36.91.91,0,0,0,.07.35l0,.07H6v2.4H5.6l0,.06a.92.92,0,0,0-.07.36.91.91,0,0,0,.07.35l0,.07H7.53l0-.07a1.12,1.12,0,0,0,.06-.35,1.13,1.13,0,0,0-.06-.36Z"/><path class="cls-2" d="M6.47,11.27a.65.65,0,0,0,.47-.2.71.71,0,0,0,0-1,.63.63,0,0,0-.94,0,.71.71,0,0,0,0,1,.65.65,0,0,0,.47.2"/><path class="cls-2" d="M11.2,12.17a1.64,1.64,0,0,0-.56-.48,1.8,1.8,0,0,0-.87-.19,1.75,1.75,0,0,0-1.44.68,2,2,0,0,0-.33.69,2.87,2.87,0,0,0-.11.77,2.61,2.61,0,0,0,.12.79,2,2,0,0,0,.37.69,1.84,1.84,0,0,0,.66.49,2.3,2.3,0,0,0,1,.18,2.64,2.64,0,0,0,.74-.1,4.52,4.52,0,0,0,.61-.25l.05,0v-1l-.14.09a5,5,0,0,1-.64.29,2,2,0,0,1-.63.09.81.81,0,0,1-.35-.07,1,1,0,0,1-.28-.2,1.09,1.09,0,0,1-.18-.3A.9.9,0,0,1,9.1,14h2.47v-.46a3.61,3.61,0,0,0-.08-.72,2.23,2.23,0,0,0-.29-.67m-1.45.22a.53.53,0,0,1,.46.22,1,1,0,0,1,.17.57H9.1a1.53,1.53,0,0,1,.2-.56.51.51,0,0,1,.45-.23"/><path class="cls-2" d="M14,14.81l-.24,0a.29.29,0,0,1-.19-.06s-.07-.08-.07-.26v-2h.75l0-.07a1.34,1.34,0,0,0,.06-.36,1.13,1.13,0,0,0-.06-.36l0-.07h-.74V10.14l-1.16.61v.85h-.44l0,.07a1.15,1.15,0,0,0-.07.36,1.08,1.08,0,0,0,.07.36l0,.07h.44v2a1.46,1.46,0,0,0,.28,1,1.15,1.15,0,0,0,.92.33l.4,0a2,2,0,0,0,.42-.13l.06,0v-.91l-.14.07a1.19,1.19,0,0,1-.28.11"/><path class="cls-2" d="M20.87,10l-.21,0a1.27,1.27,0,0,0-.43.09l-.07,0v.15a1.74,1.74,0,0,0-.43-.22,2,2,0,0,0-.68-.12,2.49,2.49,0,0,0-1.12.24,2.69,2.69,0,0,0-.83.66,2.88,2.88,0,0,0-.5,1,4,4,0,0,0-.17,1.15,3.76,3.76,0,0,0,.16,1.15,2.79,2.79,0,0,0,.51.93,2.46,2.46,0,0,0,.84.61,3.32,3.32,0,0,0,1.79.15,3.69,3.69,0,0,0,.53-.15,3.63,3.63,0,0,0,.44-.19l.32-.19.05,0V13.86L20.9,14c-.11.1-.24.2-.37.3a2.8,2.8,0,0,1-.41.25,3.14,3.14,0,0,1-.46.18,2.26,2.26,0,0,1-.53.06,1.41,1.41,0,0,1-.54-.11,1.22,1.22,0,0,1-.44-.35,1.58,1.58,0,0,1-.32-.59,2.72,2.72,0,0,1-.12-.85,3.19,3.19,0,0,1,.08-.75,2,2,0,0,1,.26-.65,1.54,1.54,0,0,1,.43-.45,1.13,1.13,0,0,1,.62-.17,1.06,1.06,0,0,1,.77.27,1,1,0,0,1,.26.69v.5l.06,0a1.29,1.29,0,0,0,.45.09.78.78,0,0,0,.22,0,.9.9,0,0,0,.21-.08l.05,0V10.11l-.05,0-.2-.08"/><path class="cls-2" d="M28.27,16.11h-.46v-.75a1,1,0,0,0,.24.17,1.29,1.29,0,0,0,.66.16,1.55,1.55,0,0,0,.86-.22,1.73,1.73,0,0,0,.55-.56,2.11,2.11,0,0,0,.28-.71,3.05,3.05,0,0,0,.08-.72,2.86,2.86,0,0,0-.11-.8,1.77,1.77,0,0,0-.34-.62,1.58,1.58,0,0,0-.54-.41,1.64,1.64,0,0,0-.71-.15,1.44,1.44,0,0,0-.75.18,1.66,1.66,0,0,0-.3.22l0-.3H26.23l0,.07a1.13,1.13,0,0,0-.06.36,1.12,1.12,0,0,0,.06.35l0,.07h.42v3.66h-.42l0,.07a1.07,1.07,0,0,0-.06.35,1.13,1.13,0,0,0,.06.36l0,.06h2l0-.06a.92.92,0,0,0,.07-.36.91.91,0,0,0-.07-.35Zm.27-3.69a.6.6,0,0,1,.4.12.79.79,0,0,1,.24.31,1.26,1.26,0,0,1,.1.38,2.6,2.6,0,0,1,0,.36,1.61,1.61,0,0,1-.22.88.6.6,0,0,1-.54.31.86.86,0,0,1-.27,0,.48.48,0,0,1-.23-.17.89.89,0,0,1-.19-.35,1.91,1.91,0,0,1-.08-.59c0-.11,0-.23,0-.38a1.43,1.43,0,0,1,.11-.39.84.84,0,0,1,.22-.31.65.65,0,0,1,.41-.12"/><path class="cls-2" d="M30.88,14.85l0,.06a.92.92,0,0,0-.07.36.91.91,0,0,0,.07.35l0,.07h1.94l0-.07a.94.94,0,0,0,0-.71l0-.06h-.39V11.6H30.88l0,.07a.92.92,0,0,0-.07.36.91.91,0,0,0,.07.35l0,.07h.39v2.4Z"/><path class="cls-2" d="M31.75,11.27a.65.65,0,0,0,.47-.2.71.71,0,0,0,0-1,.63.63,0,0,0-.94,0,.71.71,0,0,0,0,1,.65.65,0,0,0,.47.2"/><path class="cls-2" d="M35.62,14.63l-.14.07a1.22,1.22,0,0,1-.29.11l-.23,0a.32.32,0,0,1-.2-.06s-.06-.08-.06-.26v-2h.74l0-.07a1.34,1.34,0,0,0,.06-.36.92.92,0,0,0-.07-.36l0-.07H34.7V10.14l-1.17.61v.85H33.1l0,.07A.92.92,0,0,0,33,12a1.34,1.34,0,0,0,.06.36l0,.07h.43v2a1.44,1.44,0,0,0,.28,1,1.13,1.13,0,0,0,.92.34l.4,0a2.13,2.13,0,0,0,.43-.13l.06,0Z"/><path class="cls-2" d="M40.6,14.85l0,.06a.92.92,0,0,0-.07.36.91.91,0,0,0,.07.35l0,.07h1.94l0-.07a.91.91,0,0,0,.07-.35.92.92,0,0,0-.07-.36l0-.06h-.39V10H40.6l0,.07a.92.92,0,0,0-.07.36.91.91,0,0,0,.07.35l0,.07H41v4Z"/><path class="cls-2" d="M25.87,14.85h-.41V11.6H24.4l-.08.36a1.06,1.06,0,0,0-.26-.2,1.4,1.4,0,0,0-.66-.15,1.55,1.55,0,0,0-.86.22,1.8,1.8,0,0,0-.55.55,2.25,2.25,0,0,0-.28.72,3.05,3.05,0,0,0-.08.72,2.74,2.74,0,0,0,.11.79,2,2,0,0,0,.34.63,1.68,1.68,0,0,0,.54.41,1.64,1.64,0,0,0,.71.15,1.44,1.44,0,0,0,.75-.18,1.82,1.82,0,0,0,.3-.23l.05.3h1.44l0-.06a.94.94,0,0,0,0-.71Zm-2.29,0a.61.61,0,0,1-.41-.12.76.76,0,0,1-.24-.3,1.24,1.24,0,0,1-.1-.39,2.37,2.37,0,0,1,0-.35,1.59,1.59,0,0,1,.21-.88.6.6,0,0,1,.54-.31.86.86,0,0,1,.27.05.56.56,0,0,1,.24.17,1,1,0,0,1,.18.34,1.93,1.93,0,0,1,.08.6c0,.1,0,.23,0,.37a1.4,1.4,0,0,1-.11.4.73.73,0,0,1-.22.3.63.63,0,0,1-.4.12"/><path class="cls-2" d="M36.31,15.24a1.58,1.58,0,0,0,.54.41,1.64,1.64,0,0,0,.71.15,1.44,1.44,0,0,0,.75-.18,1.78,1.78,0,0,0,.31-.23l0,.3h1.45l0-.06a1.13,1.13,0,0,0,.06-.36,1.12,1.12,0,0,0-.06-.35l0-.07h-.41V11.6H38.63l-.08.36a1.06,1.06,0,0,0-.26-.2,1.4,1.4,0,0,0-.66-.15,1.55,1.55,0,0,0-.86.22,1.8,1.8,0,0,0-.55.55,2.25,2.25,0,0,0-.28.72,3.11,3.11,0,0,0-.08.72,2.43,2.43,0,0,0,.11.79,1.91,1.91,0,0,0,.34.63m2.23-1.19a1.67,1.67,0,0,1-.1.4,1,1,0,0,1-.23.3.65.65,0,0,1-.41.12.6.6,0,0,1-.4-.12.76.76,0,0,1-.24-.3,1.24,1.24,0,0,1-.1-.39,2.6,2.6,0,0,1,0-.35,1.59,1.59,0,0,1,.22-.88.6.6,0,0,1,.54-.31.86.86,0,0,1,.27.05.71.71,0,0,1,.24.17,1,1,0,0,1,.18.34,1.93,1.93,0,0,1,.08.6c0,.1,0,.22,0,.37"/><path class="cls-2" d="M33.28,23.06H32.9V20.11h-1l-.07.3a1.25,1.25,0,0,0-.22-.16,1.3,1.3,0,0,0-.6-.14,1.42,1.42,0,0,0-.8.21,1.44,1.44,0,0,0-.5.51,2,2,0,0,0-.27.65,3.23,3.23,0,0,0-.07.66,2.38,2.38,0,0,0,.11.73,1.62,1.62,0,0,0,.31.58,1.36,1.36,0,0,0,.5.38A1.51,1.51,0,0,0,31,24a1.31,1.31,0,0,0,.69-.16,1.24,1.24,0,0,0,.25-.18l0,.25h1.35l0-.07a1,1,0,0,0,0-.67Zm-2.11,0a.57.57,0,0,1-.36-.1.73.73,0,0,1-.2-.27,1.46,1.46,0,0,1-.1-.34c0-.14,0-.24,0-.33a1.49,1.49,0,0,1,.19-.79.56.56,0,0,1,.48-.27.69.69,0,0,1,.24.05.43.43,0,0,1,.2.14.83.83,0,0,1,.17.31,1.94,1.94,0,0,1,.07.53c0,.1,0,.21,0,.34a1.06,1.06,0,0,1-.09.36.86.86,0,0,1-.2.27.57.57,0,0,1-.36.1"/><path class="cls-2" d="M28.71,21.34a1.48,1.48,0,0,0-.28-.28,1,1,0,0,1-.15-.1,1.14,1.14,0,0,0,.31-.45,1.49,1.49,0,0,0,.13-.61,1.32,1.32,0,0,0-.1-.53,1.25,1.25,0,0,0-.31-.45,1.35,1.35,0,0,0-.51-.3,1.93,1.93,0,0,0-.71-.11H24.57l0,.08a1.42,1.42,0,0,0-.06.38,1.15,1.15,0,0,0,.06.37l0,.07H25V23h-.42l0,.09a1.19,1.19,0,0,0-.06.37,1.24,1.24,0,0,0,.06.37l0,.08h2.6a2.39,2.39,0,0,0,.79-.12,1.76,1.76,0,0,0,.58-.35,1.55,1.55,0,0,0,.34-.53,2,2,0,0,0,.11-.64,1.6,1.6,0,0,0-.08-.51,1.79,1.79,0,0,0-.2-.39m-1.2-1.58a.83.83,0,0,1,0,.22.65.65,0,0,1-.16.47.69.69,0,0,1-.52.17h-.72V19.45h.73a1.16,1.16,0,0,1,.35,0,.48.48,0,0,1,.2.12.46.46,0,0,1,.09.15m-1.37,1.8H27a.93.93,0,0,1,.58.17.56.56,0,0,1,.21.48.8.8,0,0,1-.17.53.68.68,0,0,1-.55.2h-.94Z"/><path class="cls-2" d="M38,23h-.4V21.34a1.53,1.53,0,0,0-.34-1.07,1.27,1.27,0,0,0-1-.38,1.36,1.36,0,0,0-.73.18,1.06,1.06,0,0,0-.23.17l0-.26h-1.4l0,.09a1,1,0,0,0,0,.68l0,.08h.39V23h-.39l0,.08a1.06,1.06,0,0,0-.06.34,1.07,1.07,0,0,0,.06.35l0,.08H35.7l0-.08a1.07,1.07,0,0,0,.06-.35,1.06,1.06,0,0,0-.06-.34l0-.08h-.33V21.67a1.36,1.36,0,0,1,.06-.45.71.71,0,0,1,.15-.26.47.47,0,0,1,.18-.12l.22,0c.17,0,.29,0,.34.13a.92.92,0,0,1,.1.49V23h-.33l0,.08a1.06,1.06,0,0,0-.06.34,1.07,1.07,0,0,0,.06.35l0,.08H38l0-.08a1.07,1.07,0,0,0,.06-.35,1.06,1.06,0,0,0-.06-.34Z"/><path class="cls-2" d="M42.64,23.28a.94.94,0,0,1,0-.16l0-.09h-.41l-.92-1.58.71-.62h.49l0-.07a.91.91,0,0,0,0-.7l0-.08h-2l0,.09a1,1,0,0,0-.06.33.77.77,0,0,0,.07.34l0,.07h.11l-.51.44V18.3H38.55l0,.08a.91.91,0,0,0-.07.35.92.92,0,0,0,.07.36l0,.08h.38V23h-.38l0,.07a.91.91,0,0,0-.07.35,1.07,1.07,0,0,0,.06.35l0,.08h1.73l0-.06a.53.53,0,0,0,.08-.17,1.1,1.1,0,0,0,0-.18.69.69,0,0,0-.09-.34l0-.07h-.21v-.63l.29-.25.5.88h-.16l0,.06a.85.85,0,0,0-.08.35,1.1,1.1,0,0,0,0,.18.87.87,0,0,0,.07.17l0,.06h1.85l0-.08a1.07,1.07,0,0,0,.06-.35,1,1,0,0,0,0-.17"/><g class="cls-3"><rect class="cls-4" x="45.32" y="2.93" width="19.9" height="20.47" transform="translate(0.29 27.49) rotate(-28)"/></g><g class="cls-5"><rect class="cls-6" x="53.8" y="8.05" width="0.01" height="0.01" transform="translate(2.52 26.22) rotate(-28.01)"/></g><g class="cls-7"><rect class="cls-8" x="43.07" y="4.98" width="24.57" height="23.25" transform="translate(-1.31 27.93) rotate(-28)"/></g></svg>