<svg xmlns="http://www.w3.org/2000/svg" viewBox="0 0 64 21.8"><defs><style>.cls-1{fill:#e03;}.cls-2{fill:#fff;}</style></defs><g id="Layer_2" data-name="Layer 2"><g id="Layer_1-2" data-name="Layer 1"><path class="cls-1" d="M33.68,9.45h.61A.44.44,0,0,0,34.72,9V4.52a.44.44,0,0,0-.43-.44h-.61a.44.44,0,0,0-.44.44V9a.44.44,0,0,0,.44.44"/><path class="cls-1" d="M29.46,9.51a1,1,0,0,0,1-.48L33,4.08h-.93a.94.94,0,0,0-.86.56L29.64,8.06c0,.08-.12.21-.18.21s-.14-.13-.18-.21L27.66,4.64a.94.94,0,0,0-.86-.56h-.93L28.42,9a1.05,1.05,0,0,0,1,.48"/><path class="cls-1" d="M61.81,9.45A.44.44,0,0,0,62.25,9V8.54h-.37a2.21,2.21,0,0,1-1.15-.24c-.43-.28-.39-.78-.39-1.15V3.26a.44.44,0,0,0-.44-.43h-.6a.43.43,0,0,0-.44.43V7.7a1.44,1.44,0,0,0,.67,1.35,3,3,0,0,0,1.79.4Z"/><path class="cls-1" d="M43.27,7.7a1.44,1.44,0,0,0,.67,1.35,3,3,0,0,0,1.8.4h.49A.44.44,0,0,0,46.66,9V8.54H46.3a2.19,2.19,0,0,1-1.15-.24,1.22,1.22,0,0,1-.4-1.15V5h3.09V7.7a1.44,1.44,0,0,0,.67,1.35,3,3,0,0,0,1.8.4h.48A.44.44,0,0,0,51.23,9V8.54h-.37a2.21,2.21,0,0,1-1.15-.24c-.43-.28-.39-.79-.39-1.15V5h1.44a.44.44,0,0,0,.43-.44V4.08H49.32V3.26h0a.44.44,0,0,0-.44-.43h-.6a.44.44,0,0,0-.44.43v.82H44.75V3.26a.43.43,0,0,0-.43-.43h-.61a.44.44,0,0,0-.44.43v.82h-.92v.48a.44.44,0,0,0,.44.44h.48Z"/><path class="cls-1" d="M41.71,7A1,1,0,0,0,42,6.15a1.73,1.73,0,0,0-1-1.74,5,5,0,0,0-2.21-.35,4.65,4.65,0,0,0-2.51.51c-.73.51-.79,1.24-.79,2.25A2.92,2.92,0,0,0,36,8.77a2.56,2.56,0,0,0,2.05.68h3.28A.44.44,0,0,0,41.81,9V8.54H38.53c-.54,0-1.16-.06-1.35-.64a3.19,3.19,0,0,1-.09-.74H41a1.15,1.15,0,0,0,.73-.2m-1.55-.71h-2.1c-.54,0-1,.24-1,.55V6.25a1.09,1.09,0,0,1,.3-.92A2,2,0,0,1,38.8,5a2.49,2.49,0,0,1,1.26.24.84.84,0,0,1,.43.72c0,.14,0,.31-.33.31"/><path class="cls-1" d="M54.09,9.45h3.28A.44.44,0,0,0,57.81,9V8.54H54.53c-.54,0-1.16-.06-1.35-.64a3.19,3.19,0,0,1-.09-.74H57a1.14,1.14,0,0,0,.72-.2A1,1,0,0,0,58,6.15a1.73,1.73,0,0,0-1-1.74,4.93,4.93,0,0,0-2.21-.35,4.6,4.6,0,0,0-2.5.51c-.74.51-.8,1.24-.8,2.25A2.92,2.92,0,0,0,52,8.77a2.56,2.56,0,0,0,2.05.68m-1-3.2a1.09,1.09,0,0,1,.3-.92A2,2,0,0,1,54.8,5a2.45,2.45,0,0,1,1.26.24.84.84,0,0,1,.43.72c0,.14,0,.31-.33.31h-2.1c-.54,0-1,.24-1,.55Z"/><path class="cls-1" d="M34,3.58h.31a.44.44,0,0,0,.43-.44V3a.44.44,0,0,0-.43-.44h-.61a.44.44,0,0,0-.44.44V4.08h0a.71.71,0,0,1,.73-.5"/><path d="M25.87,17.62V13.16c0-.61.37-.91,1.12-.91h5.69a3.55,3.55,0,0,1,1.89.42,1.52,1.52,0,0,1,.67,1.41v2.71a.83.83,0,0,1-.84.83h-.61V14.4a1.23,1.23,0,0,0-.32-.93,1.49,1.49,0,0,0-1.06-.31H31.28v3.66a.8.8,0,0,1-.81.8h-.64V13.16H27.69c-.24,0-.37.1-.37.31v3.35a.8.8,0,0,1-.81.8Z"/><path d="M43.54,17.62V13.16c0-.61.37-.91,1.12-.91H47a3.58,3.58,0,0,1,1.89.42,1.54,1.54,0,0,1,.67,1.41v3.54H48.07V14.4a1.19,1.19,0,0,0-.32-.93,1.48,1.48,0,0,0-1-.31H45.37c-.25,0-.38.1-.38.31v4.15Z"/><path d="M64,12.25l-3.92,7.1H58.6l1-1.75-2.93-5.35h.72a1.29,1.29,0,0,1,1.13.68l1.76,3.44,1.9-3.51a1.17,1.17,0,0,1,1-.61Z"/><path d="M42.89,15a2.5,2.5,0,0,1-.82,2.16,4.66,4.66,0,0,1-2.68.6,4.62,4.62,0,0,1-2.67-.6A2.51,2.51,0,0,1,35.89,15a2.47,2.47,0,0,1,.83-2.13,4.66,4.66,0,0,1,2.67-.6,4.62,4.62,0,0,1,2.67.6A2.47,2.47,0,0,1,42.89,15m-5.5,0a1.9,1.9,0,0,0,.45,1.43,2.25,2.25,0,0,0,1.55.42,2.23,2.23,0,0,0,1.55-.42A1.9,1.9,0,0,0,41.39,15a1.82,1.82,0,0,0-.45-1.4,2.23,2.23,0,0,0-1.55-.42,2.25,2.25,0,0,0-1.55.42,1.82,1.82,0,0,0-.45,1.4"/><path d="M52.78,17.58H56a.44.44,0,0,0,.43-.44v-.47H53.22c-.54,0-1.15-.06-1.34-.63a3.13,3.13,0,0,1-.08-.73h3.85a1.1,1.1,0,0,0,.71-.2.94.94,0,0,0,.32-.8,1.73,1.73,0,0,0-.94-1.72,5,5,0,0,0-2.19-.34,4.61,4.61,0,0,0-2.48.5c-.73.5-.79,1.23-.79,2.22a2.86,2.86,0,0,0,.48,1.93,2.5,2.5,0,0,0,2,.68m-1-3.17a1.07,1.07,0,0,1,.3-.91,2,2,0,0,1,1.38-.35,2.47,2.47,0,0,1,1.26.24.85.85,0,0,1,.42.71c0,.14,0,.31-.32.31H52.75c-.53,0-1,.24-1,.54Z"/><circle class="cls-1" cx="10.9" cy="10.9" r="10.9"/><path class="cls-2" d="M9.71,4.07H8.24A1.41,1.41,0,0,0,6.83,5.48V16.32a1.41,1.41,0,0,0,1.41,1.41H9.71a.35.35,0,0,0,.35-.35V16.33A.35.35,0,0,0,9.71,16H7.42V5.83H9.71a.35.35,0,0,0,.35-.36v-1A.35.35,0,0,0,9.71,4.07Z"/><path class="cls-2" d="M13.56,4.07H12.09a.35.35,0,0,0-.35.35v1a.35.35,0,0,0,.35.36h2.28V16H12.09a.35.35,0,0,0-.35.36v1.05a.35.35,0,0,0,.35.35h1.47A1.41,1.41,0,0,0,15,16.32V5.48A1.41,1.41,0,0,0,13.56,4.07Z"/></g></g></svg>