<svg id="Layer_1" data-name="Layer 1" xmlns="http://www.w3.org/2000/svg" viewBox="0 0 65 30"><defs><style>.cls-1{fill:#204199;}.cls-2{fill:#00adee;}</style></defs><path class="cls-1" d="M14.48,5.42h3.85a.72.72,0,0,1,.63.44l6.68,18.25a.31.31,0,0,1-.31.45H21.54a.71.71,0,0,1-.63-.45l-1.3-3.94H12.86l-1.31,3.94a.72.72,0,0,1-.63.45H7.34A.31.31,0,0,1,7,24.11L13.84,5.86a.75.75,0,0,1,.64-.44m4.09,11.39L16.25,9.58l-2.39,7.23Z"/><path class="cls-1" d="M43.81,5.42h6.7a9.48,9.48,0,0,1,3,.42,5.93,5.93,0,0,1,2,1.1,4.18,4.18,0,0,1,1.11,1.59A5.27,5.27,0,0,1,57,10.42,3.67,3.67,0,0,1,56.66,12a4.84,4.84,0,0,1-.77,1.2,4.07,4.07,0,0,1-1,.79,3.72,3.72,0,0,1-.84.37,6.38,6.38,0,0,1,1.19.42,4.46,4.46,0,0,1,1.27.86,4.57,4.57,0,0,1,1,1.41,4.42,4.42,0,0,1,.42,2,5.44,5.44,0,0,1-.53,2.53A4.57,4.57,0,0,1,56,23.3a6.65,6.65,0,0,1-2.36,1,14.79,14.79,0,0,1-3.11.3h-6.7a.47.47,0,0,1-.47-.47V5.89a.47.47,0,0,1,.47-.47m6.3,7.67a4.35,4.35,0,0,0,1-.12,2.71,2.71,0,0,0,.83-.36,1.9,1.9,0,0,0,.59-.66,2,2,0,0,0,.24-1,2.09,2.09,0,0,0-.24-1,1.93,1.93,0,0,0-.61-.66A2.43,2.43,0,0,0,51,8.88a4.27,4.27,0,0,0-.93-.1H47.56v4.31Zm.26,8.14a8,8,0,0,0,1-.07,2.92,2.92,0,0,0,1.06-.33,2.23,2.23,0,0,0,.82-.74,2.42,2.42,0,0,0,.34-1.36,2.31,2.31,0,0,0-.32-1.26,2.26,2.26,0,0,0-.81-.76,3.83,3.83,0,0,0-1.06-.38,7,7,0,0,0-1.06-.09H47.56v5Z"/><path class="cls-2" d="M35.35,18.42A3.42,3.42,0,1,1,38.76,15a3.42,3.42,0,0,1-3.41,3.42"/><path class="cls-1" d="M39.14,19.46a5.68,5.68,0,0,1-3.93,1.59A5.94,5.94,0,0,1,29.38,15a6,6,0,0,1,5.83-6.06A5.69,5.69,0,0,1,39,10.42a.45.45,0,0,0,.66,0l2.07-2.05a.47.47,0,0,0,0-.67A9.89,9.89,0,0,0,34.9,4.94a10.06,10.06,0,1,0,7,17.26.49.49,0,0,0,0-.68l-2.07-2.06a.47.47,0,0,0-.65,0"/></svg>