<svg id="Layer_1" data-name="Layer 1" xmlns="http://www.w3.org/2000/svg" viewBox="0 0 65 30"><defs><style>.cls-1{fill:#004a8f;}.cls-2{fill:#ffc600;}</style></defs><polygon class="cls-1" points="24.28 22.85 23.93 22.85 22.99 20.89 22.98 20.89 22.68 22.85 22.34 22.85 22.72 20.28 23.07 20.28 24.02 22.24 24.03 22.24 24.32 20.28 24.67 20.28 24.28 22.85"/><path class="cls-1" d="M25.39,22.85H25l.29-1.91h.35Zm.36-2.4H25.4l.05-.35h.35Z"/><path class="cls-1" d="M26.66,20.32h-.27l-.28-.46h.37Zm.23,2.56a.68.68,0,0,1-.59-.26.88.88,0,0,1-.14-.69v-.07a1.08,1.08,0,0,1,.34-.69.85.85,0,0,1,.62-.26.59.59,0,0,1,.53.24.81.81,0,0,1,.1.63l0,.18H26.5a.88.88,0,0,0,.06.48.4.4,0,0,0,.37.17,1,1,0,0,0,.31,0,1.17,1.17,0,0,0,.25-.14l.11.22a1.07,1.07,0,0,1-.3.17,1.27,1.27,0,0,1-.41.06m.9-2.26h-.36l-.25-.28-.34.28h-.35l.57-.46h.29Zm-.7.56a.49.49,0,0,0-.32.14.79.79,0,0,0-.2.36h.86v0a.5.5,0,0,0,0-.35.33.33,0,0,0-.3-.13"/><path class="cls-1" d="M28.76,21.18A.6.6,0,0,1,29,21a.74.74,0,0,1,.34-.07.46.46,0,0,1,.31.09.41.41,0,0,1,.17.26.83.83,0,0,1,.27-.26.66.66,0,0,1,.37-.09.47.47,0,0,1,.42.19.82.82,0,0,1,.09.61l-.17,1.14h-.35l.17-1.14a.63.63,0,0,0,0-.41.32.32,0,0,0-.28-.11.44.44,0,0,0-.3.12.65.65,0,0,0-.18.31h0l-.18,1.21h-.35l.17-1.14a.71.71,0,0,0,0-.41.31.31,0,0,0-.27-.11.47.47,0,0,0-.27.07.5.5,0,0,0-.19.19l-.2,1.4h-.35l.28-1.91h.31Z"/><path class="cls-1" d="M33.43,20.48l-.07.46h.36l0,.25h-.36l-.17,1.17a.16.16,0,0,0,.16.24h.14v.24l-.12.05h-.16a.4.4,0,0,1-.31-.12.5.5,0,0,1-.07-.4L33,21.19h-.3l0-.25H33l.07-.46Z"/><path class="cls-1" d="M34.36,22.85H34l.28-1.91h.35Zm.36-2.4h-.34l0-.35h.34Z"/><path class="cls-1" d="M35.66,21.21a.93.93,0,0,1,.27-.22.68.68,0,0,1,.34-.08.55.55,0,0,1,.45.18.76.76,0,0,1,.09.55l-.18,1.21h-.35l.18-1.2a.54.54,0,0,0,0-.36.38.38,0,0,0-.3-.1.55.55,0,0,0-.28.07.49.49,0,0,0-.2.18l-.21,1.41h-.35l.29-1.91h.31Z"/><path class="cls-1" d="M39,21.18a.73.73,0,0,1,.27-.2.78.78,0,0,1,.35-.07.47.47,0,0,1,.31.09.4.4,0,0,1,.16.26.86.86,0,0,1,.28-.26.64.64,0,0,1,.36-.09.5.5,0,0,1,.43.19.88.88,0,0,1,.08.61L41,22.85H40.7l.17-1.14a.61.61,0,0,0,0-.41.29.29,0,0,0-.27-.11.47.47,0,0,0-.31.12.73.73,0,0,0-.17.31h0l-.18,1.21h-.35l.17-1.14a.65.65,0,0,0,0-.41.35.35,0,0,0-.28-.11.5.5,0,0,0-.27.07.55.55,0,0,0-.18.19l-.21,1.4h-.35l.28-1.91H39Z"/><path class="cls-1" d="M41.79,21.87a1.19,1.19,0,0,1,.34-.7.91.91,0,0,1,.66-.26.64.64,0,0,1,.31.06.66.66,0,0,1,.24.17.41.41,0,0,0,.24-.15.68.68,0,0,0,.12-.3H44a.8.8,0,0,1-.17.42.62.62,0,0,1-.38.21,1,1,0,0,1,.06.26.88.88,0,0,1,0,.28v.05a1.22,1.22,0,0,1-.34.7.89.89,0,0,1-.66.26.64.64,0,0,1-.58-.27.88.88,0,0,1-.13-.69Zm.34.05a.88.88,0,0,0,0,.5.37.37,0,0,0,.36.19.49.49,0,0,0,.4-.2,1,1,0,0,0,.21-.49v-.05a.8.8,0,0,0,0-.5.37.37,0,0,0-.35-.19.48.48,0,0,0-.4.2,1,1,0,0,0-.21.49Zm.93-1.79h.41l-.54.46h-.26Z"/><path class="cls-1" d="M44.35,22.85H44l.28-1.91h.35Zm.37-2.4h-.35l.05-.35h.35Z"/><polygon class="cls-1" points="45.38 22.76 45.04 23.3 44.84 23.3 45.04 22.75 45.08 22.46 45.43 22.46 45.38 22.76"/><path class="cls-1" d="M47.12,21.93a1.52,1.52,0,0,1,.3-.75.77.77,0,0,1,.6-.27.58.58,0,0,1,.3.07.48.48,0,0,1,.2.22l.09-.26h.27l-.29,1.92a.92.92,0,0,1-.29.57,1.07,1.07,0,0,1-.65.19,1,1,0,0,1-.29,0,1.69,1.69,0,0,1-.27-.1l.1-.27a.63.63,0,0,0,.22.08,1,1,0,0,0,.28,0,.56.56,0,0,0,.38-.12.53.53,0,0,0,.17-.35l0-.22a1.1,1.1,0,0,1-.25.19.81.81,0,0,1-.31.05.53.53,0,0,1-.5-.25.9.9,0,0,1-.11-.67Zm.34,0a.85.85,0,0,0,0,.47.36.36,0,0,0,.35.17.5.5,0,0,0,.27-.07,1,1,0,0,0,.21-.2l.13-.88a.41.41,0,0,0-.4-.26.46.46,0,0,0-.39.21,1.34,1.34,0,0,0-.21.53Z"/><path class="cls-1" d="M49.65,22.85H49.3l.29-1.91h.35Zm.36-2.4h-.35l.06-.35h.34Z"/><path class="cls-1" d="M51.54,22.85a1,1,0,0,1,0-.16s0-.08,0-.12a1.11,1.11,0,0,1-.29.22.72.72,0,0,1-.34.09.55.55,0,0,1-.43-.15.48.48,0,0,1-.1-.42.58.58,0,0,1,.28-.43,1.18,1.18,0,0,1,.63-.15h.38l0-.19a.33.33,0,0,0-.07-.27.35.35,0,0,0-.27-.09.51.51,0,0,0-.28.08.32.32,0,0,0-.14.2H50.6a.55.55,0,0,1,.26-.39.93.93,0,0,1,.56-.16.69.69,0,0,1,.49.16.5.5,0,0,1,.13.47l-.14.92c0,.08,0,.14,0,.21a1.24,1.24,0,0,0,0,.18ZM51,22.59a.67.67,0,0,0,.35-.1.55.55,0,0,0,.23-.22l.05-.31h-.39a.61.61,0,0,0-.35.11.35.35,0,0,0-.16.25.22.22,0,0,0,0,.2.32.32,0,0,0,.23.07m.65-2.46h.41l-.54.46h-.26Z"/><path class="cls-1" d="M54.45,20.48l-.07.46h.36l0,.25h-.36l-.17,1.17a.22.22,0,0,0,0,.19.2.2,0,0,0,.14.05h.14v.24l-.12.05H54.2a.4.4,0,0,1-.31-.12.46.46,0,0,1-.07-.4L54,21.19h-.3l0-.25H54l.07-.46Z"/><path class="cls-1" d="M56.15,21.25H56a.48.48,0,0,0-.24.06.52.52,0,0,0-.17.19l-.21,1.36H55l.28-1.91h.31v.27a.69.69,0,0,1,.23-.22.49.49,0,0,1,.29-.08h.13Z"/><path class="cls-1" d="M56.76,23.43h-.38l0-.36h.38Zm.07-.58h-.35l.29-1.91h.34Zm.36-2.4h-.35l0-.35h.35Z"/><path class="cls-1" d="M59.2,21.18a.73.73,0,0,1,.27-.2.78.78,0,0,1,.35-.07.47.47,0,0,1,.31.09.4.4,0,0,1,.16.26.86.86,0,0,1,.28-.26.64.64,0,0,1,.36-.09.5.5,0,0,1,.43.19.88.88,0,0,1,.08.61l-.17,1.14h-.34l.17-1.14a.56.56,0,0,0,0-.41.29.29,0,0,0-.27-.11.45.45,0,0,0-.31.12.73.73,0,0,0-.17.31h0l-.18,1.21h-.35l.17-1.14a.57.57,0,0,0,0-.41.3.3,0,0,0-.26-.11.51.51,0,0,0-.28.07.47.47,0,0,0-.18.19L59,22.85h-.35l.29-1.91h.31Z"/><path class="cls-1" d="M62,21.87a1.25,1.25,0,0,1,.34-.7.91.91,0,0,1,.66-.26.62.62,0,0,1,.31.06.66.66,0,0,1,.24.17.38.38,0,0,0,.24-.15.68.68,0,0,0,.12-.3h.3a.72.72,0,0,1-.17.42.62.62,0,0,1-.38.21,1,1,0,0,1,.06.26.88.88,0,0,1,0,.28v.05a1.15,1.15,0,0,1-.33.7.89.89,0,0,1-.66.26.64.64,0,0,1-.58-.27.88.88,0,0,1-.13-.69Zm.34.05a.88.88,0,0,0,0,.5.37.37,0,0,0,.36.19.48.48,0,0,0,.4-.2,1,1,0,0,0,.21-.49v-.05a.74.74,0,0,0-.05-.5.35.35,0,0,0-.35-.19.47.47,0,0,0-.4.2,1,1,0,0,0-.21.49Zm.93-1.79h.41l-.54.46h-.25Z"/><path class="cls-1" d="M64.59,22.85h-.35l.29-1.91h.34Zm.36-2.4H64.6l.05-.35H65Z"/><path class="cls-1" d="M25.53,14.94H27v1.67a1,1,0,0,1-.47.32,2,2,0,0,1-.82.13,1.39,1.39,0,0,1-1.13-.48,2.37,2.37,0,0,1-.39-1.49V12.53a2.27,2.27,0,0,1,.39-1.46,1.32,1.32,0,0,1,1.08-.49,1.27,1.27,0,0,1,1,.34A1.48,1.48,0,0,1,26.9,12h1.69v0a2.56,2.56,0,0,0-.75-2,3.23,3.23,0,0,0-2.29-.72,3.16,3.16,0,0,0-2.34.88,3.36,3.36,0,0,0-.88,2.49v2.55a3.31,3.31,0,0,0,.91,2.5,3.33,3.33,0,0,0,2.41.87,4.05,4.05,0,0,0,1.94-.4,3.24,3.24,0,0,0,1.15-.95V13.69H25.53Z"/><path class="cls-1" d="M33.25,9.17H30.14v9.29h1.8V15.1h1.31a3,3,0,0,0,2.21-.81,2.89,2.89,0,0,0,.82-2.15A2.89,2.89,0,0,0,35.46,10,3,3,0,0,0,33.25,9.17Zm.92,4.09a1.08,1.08,0,0,1-.92.43H31.94V10.58h1.31a1,1,0,0,1,.92.45,1.86,1.86,0,0,1,.32,1.12A1.85,1.85,0,0,1,34.17,13.26Z"/><path class="cls-1" d="M42.7,14.39a1.7,1.7,0,0,0-1.16-.75,1.83,1.83,0,0,0,.88-.76,2.33,2.33,0,0,0,.3-1.18,2.25,2.25,0,0,0-.81-1.89,3.56,3.56,0,0,0-2.27-.64H37v9.29h3.11a3.24,3.24,0,0,0,2.22-.68,2.58,2.58,0,0,0,.77-2A2.49,2.49,0,0,0,42.7,14.39Zm-3.92-3.81h.86a1.13,1.13,0,0,1,1.28,1.29,1.2,1.2,0,0,1-.31.9,1.18,1.18,0,0,1-.89.33h-.94ZM41,16.73a1.15,1.15,0,0,1-.89.33H38.78V14.35h1.37a1,1,0,0,1,.85.38,1.62,1.62,0,0,1,.28,1A1.39,1.39,0,0,1,41,16.73Z"/><path class="cls-1" d="M45.72,9.17l-2.64,9.29H45l.52-2H47.8l.53,2h1.89L47.58,9.17ZM45.85,15l.77-2.95h0L47.43,15Z"/><polygon class="cls-1" points="55.7 15.1 55.66 15.11 52.71 9.17 50.92 9.17 50.92 18.46 52.71 18.46 52.71 12.54 52.76 12.53 55.7 18.46 57.5 18.46 57.5 9.17 55.7 9.17 55.7 15.1"/><polygon class="cls-1" points="65 9.17 63.14 9.17 60.7 13.15 60.7 9.17 58.89 9.17 58.89 18.46 60.7 18.46 60.7 14.48 63.14 18.46 65 18.46 62.15 13.82 65 9.17"/><polygon class="cls-1" points="9.77 9.17 0 11.96 0 11.03 6.29 9.24 9.77 6.38 9.77 9.17"/><polygon class="cls-1" points="9.77 12.43 0 15.21 0 12.43 9.77 9.64 9.77 12.43"/><polygon class="cls-1" points="9.77 15.68 0 18.46 0 15.68 9.77 12.89 9.77 15.68"/><polygon class="cls-2" points="9.77 9.17 19.55 11.96 19.55 9.17 9.77 6.38 9.77 9.17"/><polygon class="cls-2" points="9.77 12.43 19.55 15.21 19.55 12.43 9.77 9.64 9.77 12.43"/><polygon class="cls-2" points="9.77 15.68 19.55 18.46 19.55 15.68 9.77 12.89 9.77 15.68"/></svg>