<svg id="Layer_1" data-name="Layer 1" xmlns="http://www.w3.org/2000/svg" viewBox="0 0 65 30"><defs><style>.cls-1{fill:#008b44;}.cls-2{fill:#e29618;}</style></defs><path class="cls-1" d="M29.73,6.45c-4.08,0-7.4,3.05-7.4,6.79s3.32,6.8,7.4,6.8,7.4-3.05,7.4-6.8-3.32-6.79-7.4-6.79m0,11.12a4.13,4.13,0,0,1-3.88-4.33,4.13,4.13,0,0,1,3.88-4.33,4.13,4.13,0,0,1,3.88,4.33,4.13,4.13,0,0,1-3.88,4.33"/><path class="cls-1" d="M62,16a3.6,3.6,0,0,0-.37-1.41,3.06,3.06,0,0,0-1-1.16,3.58,3.58,0,0,0-.8-.42A3.13,3.13,0,0,0,61,12a3.38,3.38,0,0,0,.57-2.1,3.12,3.12,0,0,0-1-2.29,4.21,4.21,0,0,0-2.84-.86H50.39V19.71h6.4a8.46,8.46,0,0,0,2.85-.41A3.71,3.71,0,0,0,61.46,18,3.28,3.28,0,0,0,62,16M55.9,8.78c1.6,0,2.15.34,2.15,1.54,0,1-.62,1.44-2.1,1.44h-.86l-.88,2.42h1.87c1.61,0,2.44.54,2.44,1.77S57.62,17.7,56,17.7H53.87V8.78Z"/><path class="cls-1" d="M49,16.54A4.83,4.83,0,0,1,46,17.59a4.52,4.52,0,0,1-4.67-4.35A4.53,4.53,0,0,1,46,8.89,4.84,4.84,0,0,1,49,10V7.31a8.14,8.14,0,0,0-3.68-.86c-4.18,0-7.56,3-7.56,6.79S41.17,20,45.35,20A8.27,8.27,0,0,0,49,19.18Z"/><path class="cls-1" d="M24.47,23.78c0-.21,0-.43,0-.65v-.59c0-.16,0-.38,0-.64v0H24v0c0,.13,0,.29,0,.55s0,.45,0,.75v.45c-.06-.1-.12-.2-.18-.32l-.3-.53c-.1-.18-.18-.33-.26-.46v0L23,21.88v0h-.65v0c0,.22,0,.44,0,.67s0,.41,0,.62v.62c0,.22,0,.43,0,.62v.05h.54v-.05c0-.24,0-.42,0-.58s0-.42,0-.68v-.46l1,1.77h.63v-.05c0-.2,0-.41,0-.65"/><path class="cls-1" d="M25.8,22.45a1.34,1.34,0,0,0-.4.07,1.08,1.08,0,0,0-.34.21,1,1,0,0,0-.23.38,1.19,1.19,0,0,0-.07.52,1.05,1.05,0,0,0,.12.5.69.69,0,0,0,.28.28.77.77,0,0,0,.36.09.63.63,0,0,0,.33-.09.55.55,0,0,0,.17-.14h0a2,2,0,0,1,0,.39.33.33,0,0,1-.12.19.43.43,0,0,1-.24.06,1.76,1.76,0,0,1-.61-.14l-.06,0,.05.51h0l.35.08a2.56,2.56,0,0,0,.39,0,.88.88,0,0,0,.57-.18.75.75,0,0,0,.2-.62q0-1.08,0-2v0h0a3.75,3.75,0,0,0-.7-.1m.2,1.14a.58.58,0,0,1-.13.34.26.26,0,0,1-.22.12.38.38,0,0,1-.26-.11.54.54,0,0,1-.11-.35.78.78,0,0,1,.07-.4.41.41,0,0,1,.19-.2.46.46,0,0,1,.26-.06H26a5.57,5.57,0,0,1,0,.65"/><polygon class="cls-1" points="27.56 22.1 27.7 22.27 28.05 22.27 27.84 21.86 27.26 21.86 27.07 22.27 27.43 22.27 27.56 22.1"/><path class="cls-1" d="M28.36,24V23h0c0-.36-.25-.55-.69-.55a2.64,2.64,0,0,0-.69.12h0l0,.46L27,23a1.18,1.18,0,0,1,.27-.1,1.24,1.24,0,0,1,.31,0c.22,0,.26.09.26.16a.13.13,0,0,1-.07.14l-.4.14a1.23,1.23,0,0,0-.46.23.65.65,0,0,0,0,.84.6.6,0,0,0,.46.16l.29,0h0L27.8,24l-.08,0a.44.44,0,0,1-.24.05c-.18,0-.21-.1-.21-.18a.19.19,0,0,1,.07-.18,2.2,2.2,0,0,1,.3-.14l.21-.09c0,.4,0,.7,0,.89v.05h.53v-.05c0-.14,0-.29,0-.44"/><path class="cls-1" d="M30.4,24.15v-.81a2.26,2.26,0,0,0,0-.25,1,1,0,0,0-.07-.32.43.43,0,0,0-.21-.23.7.7,0,0,0-.37-.09.63.63,0,0,0-.55.26V22.5h-.53v0c0,.61,0,1.25,0,1.89v.05h.55v-.86a1.12,1.12,0,0,1,0-.2c0-.3.16-.44.36-.44s.3.11.31.35a8.47,8.47,0,0,1,0,1.1v.05h.56v-.05c0-.11,0-.2,0-.28"/><path class="cls-1" d="M33.8,21.9v0h-.58v0c0,.21,0,.53,0,1h-1c0-.1,0-.24,0-.41v-.58H31.7v0c0,.4,0,.82,0,1.25s0,.86,0,1.28v.05h.59V24.4a1.27,1.27,0,0,1,0-.2v-.85h1c0,.19,0,.37,0,.55s0,.37,0,.53v.05h.59v-.05c0-.68,0-1.53,0-2.53"/><polygon class="cls-1" points="35.19 22.31 34.98 21.86 34.37 21.86 34.76 22.31 35.19 22.31"/><path class="cls-1" d="M35.65,24V23h0c0-.36-.24-.55-.68-.55a2.64,2.64,0,0,0-.69.12h0l0,.46.07,0a1.18,1.18,0,0,1,.27-.1,1.24,1.24,0,0,1,.31,0c.22,0,.25.09.26.16a.14.14,0,0,1-.07.14l-.4.14a1.16,1.16,0,0,0-.46.23.62.62,0,0,0,0,.84.6.6,0,0,0,.46.16l.29,0h0L35.1,24l-.08,0a.47.47,0,0,1-.24.05c-.19,0-.21-.1-.22-.18a.19.19,0,0,1,.08-.18,1.92,1.92,0,0,1,.31-.14l.2-.09c0,.42,0,.71,0,.89v.05h.54v-.05c0-.14,0-.29,0-.45"/><path class="cls-1" d="M37.7,24.15v-.81c0-.08,0-.17,0-.25a1,1,0,0,0-.07-.32.45.45,0,0,0-.22-.23.65.65,0,0,0-.37-.09.66.66,0,0,0-.55.26V22.5H36v0q0,.9,0,1.89v.05h.55v-.14a1,1,0,0,1,0-.18c0-.12,0-.22,0-.3a1.93,1.93,0,0,1,0-.24c0-.08,0-.14,0-.2,0-.3.17-.44.37-.44s.3.11.31.35a10.72,10.72,0,0,1,0,1.1v.05h.56v-.05c0-.11,0-.2,0-.28"/><path class="cls-1" d="M39,22.45a1.41,1.41,0,0,0-.41.07,1.25,1.25,0,0,0-.35.21,1,1,0,0,0-.22.37,1.26,1.26,0,0,0-.07.53,1.23,1.23,0,0,0,.12.5.75.75,0,0,0,.64.37.6.6,0,0,0,.33-.09.46.46,0,0,0,.17-.14h0a2,2,0,0,1,0,.39.33.33,0,0,1-.12.19.43.43,0,0,1-.24.06,1.66,1.66,0,0,1-.6-.14l-.07,0,.05.51h0a1.9,1.9,0,0,0,.34.08l.38,0a.89.89,0,0,0,.58-.18.76.76,0,0,0,.19-.62c0-.72,0-1.39,0-2v0h0a4,4,0,0,0-.7-.1m.19,1.14a.58.58,0,0,1-.12.34.29.29,0,0,1-.23.12.34.34,0,0,1-.25-.11.49.49,0,0,1-.12-.35.78.78,0,0,1,.07-.4.41.41,0,0,1,.19-.2.48.48,0,0,1,.26-.06h.21c0,.32,0,.54,0,.65"/><path class="cls-1" d="M44.62,24.05V23.1h0a.67.67,0,0,0-.2-.49.69.69,0,0,0-.46-.16.79.79,0,0,0-.4.1.64.64,0,0,0-.17.16c0-.29,0-.55,0-.81v0h-.55v0c0,.88,0,1.73,0,2.53v.05h.55v-.05c0-.35,0-.64,0-.88a.86.86,0,0,1,.11-.44.3.3,0,0,1,.26-.13.28.28,0,0,1,.23.08.41.41,0,0,1,.08.28,6.85,6.85,0,0,1,0,1.09v.05h.56v-.05c0-.13,0-.25,0-.38"/><path class="cls-1" d="M50.61,24.15v-.4a4,4,0,0,0,0-.41v-.25a1,1,0,0,0-.07-.32.49.49,0,0,0-.22-.23.69.69,0,0,0-.36-.09.63.63,0,0,0-.55.26V22.5h-.54v0c0,.61,0,1.24,0,1.89v.05h.55v-.05s0-.07,0-.11v-.7c0-.07,0-.14,0-.2,0-.3.16-.44.38-.44s.29.11.29.35a8.32,8.32,0,0,1,0,1.1v.05h.57v-.05c0-.1,0-.2,0-.28"/><path class="cls-1" d="M51.88,22.45a1.42,1.42,0,0,0-.42.07,1.08,1.08,0,0,0-.34.21,1,1,0,0,0-.23.38,1.37,1.37,0,0,0-.07.52,1.41,1.41,0,0,0,.13.5.75.75,0,0,0,.28.28.74.74,0,0,0,.36.09.63.63,0,0,0,.33-.09.55.55,0,0,0,.17-.14h0a2,2,0,0,1,0,.39.39.39,0,0,1-.12.19.43.43,0,0,1-.24.06,1.76,1.76,0,0,1-.61-.14l-.07,0,0,.51h0a2,2,0,0,0,.35.08l.38,0a.89.89,0,0,0,.58-.18.76.76,0,0,0,.19-.62c0-.74,0-1.39,0-2v0h0a3.78,3.78,0,0,0-.69-.1m.19,1.14a.66.66,0,0,1-.13.34.26.26,0,0,1-.22.12.38.38,0,0,1-.26-.11.54.54,0,0,1-.12-.35.93.93,0,0,1,.07-.4.53.53,0,0,1,.19-.2.53.53,0,0,1,.27-.06h.2c0,.33,0,.55,0,.65"/><path class="cls-1" d="M55.75,22.15a1,1,0,0,0-.74-.29H53.93v0c0,.4,0,.73,0,1h-.28l0,.45H54c0,.38,0,.74,0,1.05v.05h1a1.19,1.19,0,0,0,.68-.18,1.08,1.08,0,0,0,.39-.52,1.85,1.85,0,0,0,.09-.73,1.3,1.3,0,0,0-.31-.9m-.27,1.37a.79.79,0,0,1-.24.35.75.75,0,0,1-.45.13h-.3v-.62H55v-.46h-.54v-.58H55a.53.53,0,0,1,.32.09.56.56,0,0,1,.17.26,1.36,1.36,0,0,1,.07.35,1.42,1.42,0,0,1-.05.47"/><path class="cls-1" d="M57.92,22.94a.87.87,0,0,0-.32-.36,1,1,0,0,0-.48-.13.82.82,0,0,0-.81.54,1.38,1.38,0,0,0-.09.55,1.51,1.51,0,0,0,.07.37,1,1,0,0,0,.18.32.7.7,0,0,0,.29.21,1,1,0,0,0,.39.08.9.9,0,0,0,.53-.15A.83.83,0,0,0,58,24a1.24,1.24,0,0,0,.08-.51,1.59,1.59,0,0,0-.13-.52m-.49.95a.28.28,0,0,1-.28.17.33.33,0,0,1-.28-.13.64.64,0,0,1-.12-.38.82.82,0,0,1,.1-.48.34.34,0,0,1,.56,0,.75.75,0,0,1,.1.39.87.87,0,0,1-.08.44"/><polygon class="cls-1" points="57.09 22.1 57.22 22.27 57.58 22.27 57.38 21.86 56.79 21.86 56.6 22.27 56.96 22.27 57.09 22.1"/><path class="cls-1" d="M60,24.15a3.69,3.69,0,0,1,0-.4v-.41a2.09,2.09,0,0,0,0-.25h0a.66.66,0,0,0-.07-.32.43.43,0,0,0-.21-.23.7.7,0,0,0-.37-.09.63.63,0,0,0-.55.26V22.5h-.53v0c0,.61,0,1.25,0,1.89v.05h.55v-.05c0-.07,0-.16,0-.27v-.54a1.12,1.12,0,0,1,0-.2c0-.3.16-.44.37-.44s.29.11.3.35a8.47,8.47,0,0,1,0,1.1v.05H60v-.05c0-.11,0-.2,0-.28"/><path class="cls-1" d="M62,22.56h0a3.87,3.87,0,0,0-.7-.1,1.41,1.41,0,0,0-.41.07,1.08,1.08,0,0,0-.34.21.9.9,0,0,0-.23.38,1.4,1.4,0,0,0-.07.52,1.23,1.23,0,0,0,.12.5.71.71,0,0,0,.29.28.74.74,0,0,0,.36.09.59.59,0,0,0,.32-.09.46.46,0,0,0,.17-.14h0a1.47,1.47,0,0,1,0,.39.31.31,0,0,1-.35.25,1.71,1.71,0,0,1-.61-.14l-.07,0,0,.51h0a2,2,0,0,0,.35.08,2.34,2.34,0,0,0,.38,0,.93.93,0,0,0,.58-.18.8.8,0,0,0,.19-.62c0-.72,0-1.39,0-2Zm-.54,1a.58.58,0,0,1-.12.34.28.28,0,0,1-.23.12.34.34,0,0,1-.25-.11.54.54,0,0,1-.12-.35.8.8,0,0,1,.07-.4A.46.46,0,0,1,61,23a.49.49,0,0,1,.27-.06h.2a5.57,5.57,0,0,1,0,.65"/><path class="cls-1" d="M46.58,22.89a.72.72,0,0,0,.36-.29.33.33,0,0,0-.13-.39.32.32,0,0,0-.2-.07.51.51,0,0,0-.26.09l0,0,.08.2,0,0,.09,0h0a.11.11,0,0,1,0,.14h0l0,0v-.07H46v0a9.19,9.19,0,0,1,0,1.05c0,.18-.09.4-.34.4s-.28-.11-.3-.35,0-.94,0-1.1v0h-.54v0c0,.38,0,.66,0,.9v.44a.68.68,0,0,0,1.19.39l0,.19h.5v0c0-.48,0-1,0-1.55"/><path class="cls-1" d="M48.41,22.79a.48.48,0,0,0,.2-.2.33.33,0,0,0-.13-.39.32.32,0,0,0-.2-.07.47.47,0,0,0-.26.1h0l.08.2,0,0,.1,0h0a.12.12,0,0,1,0,.14h0s0,0-.07.08a.91.91,0,0,0-.49-.14.85.85,0,0,0-.64.26,1.08,1.08,0,0,0-.25.82.93.93,0,0,0,.93,1,.82.82,0,0,0,.63-.24,1.23,1.23,0,0,0,.26-.82,1.08,1.08,0,0,0-.24-.68M48,24a.3.3,0,0,1-.24.1c-.27,0-.38-.28-.4-.51a.72.72,0,0,1,.14-.53.3.3,0,0,1,.25-.1c.32,0,.37.37.38.53A.74.74,0,0,1,48,24"/><path class="cls-1" d="M42.66,22.57a1,1,0,0,0-.08-.36.61.61,0,0,0-.21-.26.57.57,0,0,0-.32-.09H41v0c0,.24,0,.47,0,.67s0,.43,0,.61v.65c0,.23,0,.43,0,.6v.05h.55v-.05c0-.17,0-1.74,0-1.9v-.2l.31,0a.31.31,0,0,1,.21.06.3.3,0,0,1,.08.22.4.4,0,0,1-.08.27.41.41,0,0,1-.46.1l.1.46a.94.94,0,0,0,.65-.11.68.68,0,0,0,.25-.33,1,1,0,0,0,.07-.41"/><path class="cls-2" d="M3,14.17a8.55,8.55,0,0,0,2.54,5.19,2.15,2.15,0,0,1-.11-1.3C5.73,16.85,7,16,8.7,15.76V9.9C4.21,9.15,2.77,12,3,14.17"/><path class="cls-2" d="M20.1,12.26a8.55,8.55,0,0,0-2.54-5.19,2.19,2.19,0,0,1,.1,1.29c-.27,1.21-1.49,2.06-3.23,2.3v5.86c4.49.75,5.93-2.09,5.67-4.26"/><path class="cls-2" d="M3.19,11.3c1.17-1.6,3.26-2.51,7.13-1.42,6.79,1.91,9-2.53,5.1-4.34a8.47,8.47,0,0,0-3.85-.92A8.59,8.59,0,0,0,3.19,11.3"/><path class="cls-2" d="M19.93,15.12c-1.17,1.6-3.26,2.51-7.12,1.43-6.8-1.91-9,2.52-5.11,4.33a8.58,8.58,0,0,0,12.23-5.76"/></svg>