<svg id="Layer_1" data-name="Layer 1" xmlns="http://www.w3.org/2000/svg" viewBox="0 0 65 30"><defs><style>.cls-1{fill:#25398e;}.cls-2{fill:#fff;}.cls-3{fill:#ee7626;fill-rule:evenodd;}</style></defs><polygon class="cls-1" points="16.48 9.17 15.2 9.17 15.2 14.89 17.98 14.89 17.98 14.02 16.48 14.02 16.48 9.17"/><rect class="cls-1" x="18.28" y="10.29" width="1.27" height="4.6"/><path class="cls-1" d="M22.48,10.51a1.82,1.82,0,0,0-1.07-.27,1.72,1.72,0,0,0-1.14.33,1.21,1.21,0,0,0-.4,1v2.19a1.08,1.08,0,0,0,.47.93,1.83,1.83,0,0,0,1.07.29,1.81,1.81,0,0,0,1.1-.28,1,1,0,0,0,.44-.92v-.67H21.68v.59c0,.3-.09.44-.27.44s-.26-.14-.26-.44v-.93H23v-1.2a1.17,1.17,0,0,0-.47-1M21.68,12h-.53v-.63c0-.18.08-.27.26-.27a.24.24,0,0,1,.27.27Z"/><path class="cls-1" d="M25.45,10.24a1.07,1.07,0,0,0-.6.15.88.88,0,0,0-.34.47v-.57H23.24v4.6h1.27V11.7a.68.68,0,0,1,.06-.31.23.23,0,0,1,.22-.11.21.21,0,0,1,.22.13,1,1,0,0,1,0,.29v3.19h1.28v-3.6a1.25,1.25,0,0,0-.22-.78.79.79,0,0,0-.65-.27"/><polygon class="cls-1" points="28.19 13.58 27.87 9.17 26.43 9.17 27.32 14.89 29.07 14.89 30.03 9.17 28.78 9.17 28.19 13.58"/><rect class="cls-1" x="30.21" y="10.29" width="1.27" height="4.6"/><path class="cls-1" d="M34.42,10.51a1.82,1.82,0,0,0-1.07-.27,1.72,1.72,0,0,0-1.14.33,1.2,1.2,0,0,0-.39,1v2.19a1.07,1.07,0,0,0,.46.93,2.23,2.23,0,0,0,2.18,0,1,1,0,0,0,.43-.92v-.67H33.62v.59c0,.3-.09.44-.27.44s-.26-.14-.26-.44v-.93h1.8v-1.2a1.15,1.15,0,0,0-.47-1M33.62,12h-.53v-.63a.24.24,0,0,1,.26-.27.24.24,0,0,1,.27.27Z"/><path class="cls-1" d="M37.41,11.13v-.84h-.56V9.47H35.58v.82h-.43v.84h.43v2.8a1.27,1.27,0,0,0,.17.72.71.71,0,0,0,.62.24h1v-.84h-.25c-.14,0-.23,0-.26-.08a.8.8,0,0,1,0-.33V11.13Z"/><path class="cls-1" d="M40.86,9.41a2.57,2.57,0,0,0-1.27-.24H38v5.72h1.34V12.67h.49a1.89,1.89,0,0,0,1.08-.29,1.08,1.08,0,0,0,.48-.94v-1a1.06,1.06,0,0,0-.48-1m-.93,2.24a.43.43,0,0,1-.43.21h-.21V10h.21a.42.42,0,0,1,.47.35,3.71,3.71,0,0,1,0,.59,2.18,2.18,0,0,1-.07.72"/><path class="cls-1" d="M44.41,10.57a2.1,2.1,0,0,0-2.29,0,1.2,1.2,0,0,0-.39,1v2.19a1.06,1.06,0,0,0,.47.93,1.83,1.83,0,0,0,1.07.29,1.89,1.89,0,0,0,1.08-.29,1.09,1.09,0,0,0,.45-.93V11.53a1.19,1.19,0,0,0-.39-1m-.88,3.21a.39.39,0,0,1-.06.23.23.23,0,0,1-.2.09.23.23,0,0,1-.21-.09.41.41,0,0,1-.06-.23V11.39a.39.39,0,0,1,.06-.23.23.23,0,0,1,.21-.09.23.23,0,0,1,.2.09.41.41,0,0,1,.06.23Z"/><path class="cls-1" d="M47.81,10.52a2.05,2.05,0,0,0-1.16-.28,1.72,1.72,0,0,0-1.07.29,1.17,1.17,0,0,0-.42,1,1.2,1.2,0,0,0,.46,1l.87.51a.87.87,0,0,1,.47.73.44.44,0,0,1-.06.25.23.23,0,0,1-.21.09.23.23,0,0,1-.2-.09.49.49,0,0,1-.06-.25v-.69H45.16v.73a1,1,0,0,0,.42.88,1.75,1.75,0,0,0,1,.26c1.07,0,1.61-.47,1.61-1.39a1.29,1.29,0,0,0-.46-1,9.18,9.18,0,0,0-.86-.53c-.31-.17-.46-.36-.46-.57a.44.44,0,0,1,.06-.25.23.23,0,0,1,.2-.09.22.22,0,0,1,.21.1.43.43,0,0,1,.06.24v.5h1.27v-.53a1,1,0,0,0-.42-.86"/><path class="cls-1" d="M50.32,9.47H49.05v.82h-.43v.84h.43v2.8a1.2,1.2,0,0,0,.17.72.69.69,0,0,0,.62.24h1v-.84h-.24c-.15,0-.23,0-.26-.08a.66.66,0,0,1,0-.33V11.13h.55v-.84h-.55Z"/><path class="cls-1" d="M57.55,10.51a1.86,1.86,0,0,0-1-.27,1.84,1.84,0,0,0-1.06.28,1.1,1.1,0,0,0-.48,1v.42h1.27v-.5a.44.44,0,0,1,.06-.25.23.23,0,0,1,.21-.09.26.26,0,0,1,.21.08.57.57,0,0,1,0,.26c0,.25-.3.53-.9.82s-.9.66-.9,1.09V14a.93.93,0,0,0,.24.69.86.86,0,0,0,.65.25.94.94,0,0,0,.59-.18,1.22,1.22,0,0,0,.32-.42v.54H58V11.49a1.1,1.1,0,0,0-.48-1m-.79,2.85a1.57,1.57,0,0,1,0,.46.25.25,0,0,1-.25.12.25.25,0,0,1-.16-.06.27.27,0,0,1-.07-.18v-.5a.51.51,0,0,1,.17-.39l.36-.25Z"/><path class="cls-1" d="M60.56,10.24a1.13,1.13,0,0,0-.61.15.92.92,0,0,0-.33.47v-.57H58.35v4.6h1.27V11.7a.68.68,0,0,1,.06-.31.21.21,0,0,1,.21-.11.23.23,0,0,1,.23.13,1,1,0,0,1,0,.29v3.19h1.27v-3.6a1.19,1.19,0,0,0-.22-.78.76.76,0,0,0-.64-.27"/><polygon class="cls-1" points="64.17 12.35 64.91 10.29 63.67 10.29 63.01 12.38 63.01 9.17 61.73 9.17 61.73 14.89 63.01 14.89 63.02 12.48 63.67 14.89 64.97 14.89 64.17 12.35"/><path class="cls-1" d="M54.61,10.58c0-1.23-.7-1.37-1.66-1.39H51.28v5.7H53c1.15,0,1.66-.19,1.66-1.63,0-.73-.08-1.37-.94-1.37v-.05c.78-.06.94-.64.94-1.26M53,14.06a.69.69,0,0,1-.35,0V12.32H53c.27,0,.35.21.35.8s0,.83-.35.94m0-2.57H52.6V10A.69.69,0,0,1,53,10c.32.08.35.29.35.75s-.14.69-.35.72"/><path class="cls-1" d="M16.59,19.52V16.75h.29v3.39h-.5l-.77-2.71a3.85,3.85,0,0,1-.11-.52v3.23h-.29V16.75h.49l.78,2.78a1.21,1.21,0,0,1,.05.18,1.05,1.05,0,0,1,0,.19s0,0,0-.08v-.3Z"/><path class="cls-1" d="M19.08,18.36v1.78h-.24v-.57a.78.78,0,0,1-.23.43.59.59,0,0,1-.41.14.69.69,0,0,1-.59-.28,1.38,1.38,0,0,1-.24-.67,5.71,5.71,0,0,1-.05-.81,4.26,4.26,0,0,1,.06-.78,1.4,1.4,0,0,1,.26-.65.71.71,0,0,1,.59-.27.7.7,0,0,1,.6.28,1.12,1.12,0,0,1,.22.73v0h-.31a.91.91,0,0,0-.11-.5.45.45,0,0,0-.39-.2h0a.45.45,0,0,0-.41.23,1.38,1.38,0,0,0-.16.55c0,.15,0,.35,0,.61v.12a3.08,3.08,0,0,0,.08.84c.08.3.23.46.45.46h0a.5.5,0,0,0,.48-.37,2.45,2.45,0,0,0,.09-.76h-.62v-.33Z"/><path class="cls-1" d="M19.37,20.14l.78-3.39h.41l.77,3.39H21l-.21-1h-.87l-.2,1Zm1.34-1.32L20.35,17,20,18.82Z"/><polygon class="cls-1" points="20.59 16.5 20.35 16.07 20.11 16.5 19.81 16.5 20.17 15.85 20.52 15.85 20.89 16.5 20.59 16.5"/><path class="cls-1" d="M23,19.52V16.75h.3v3.39h-.5l-.77-2.71a3.85,3.85,0,0,1-.11-.52v3.23h-.3V16.75h.49l.79,2.78a1.21,1.21,0,0,1,.05.18c0,.06,0,.12.05.19v-.38Z"/><polygon class="cls-1" points="25.33 20.14 25.03 20.14 25.03 16.75 25.33 16.75 25.33 18.16 26.39 18.16 26.39 16.75 26.69 16.75 26.69 20.14 26.39 20.14 26.39 18.51 25.33 18.51 25.33 20.14"/><path class="cls-1" d="M27,20.14l.79-3.39h.4l.77,3.39h-.33l-.22-1h-.87l-.2,1Zm1.34-1.32L28,17l-.38,1.8Z"/><polygon class="cls-1" points="27.41 15.85 27.81 15.85 28.14 16.5 27.89 16.5 27.41 15.85"/><path class="cls-1" d="M30.65,19.52V16.75h.29v3.39h-.5l-.77-2.71a4,4,0,0,1-.1-.52.41.41,0,0,0,0,.11v3.12h-.29V16.75h.49l.79,2.78a1.21,1.21,0,0,0,.05.18c0,.06,0,.12,0,.19a.19.19,0,0,0,0-.08v-.3Z"/><path class="cls-1" d="M33.14,18.36v1.78H32.9v-.57a.78.78,0,0,1-.23.43.59.59,0,0,1-.41.14.69.69,0,0,1-.59-.28,1.49,1.49,0,0,1-.24-.67,5.71,5.71,0,0,1-.05-.81,4.26,4.26,0,0,1,.06-.78A1.4,1.4,0,0,1,31.7,17a.79.79,0,0,1,1.2,0,1.17,1.17,0,0,1,.22.73v0h-.31a.9.9,0,0,0-.12-.5.45.45,0,0,0-.39-.2h0a.47.47,0,0,0-.41.23,1.4,1.4,0,0,0-.15.55,4.82,4.82,0,0,0,0,.61v.12a3.54,3.54,0,0,0,.08.84c.08.3.23.46.45.46h0a.48.48,0,0,0,.48-.37,2.14,2.14,0,0,0,.1-.76h-.63v-.33Z"/><path class="cls-1" d="M35.58,20.14h-.73V16.75h.81a.61.61,0,0,1,.52.24,1,1,0,0,1,.16.6v.05a.89.89,0,0,1-.09.43.61.61,0,0,1-.32.26.49.49,0,0,1,.37.27,1.15,1.15,0,0,1,.11.54,1.18,1.18,0,0,1-.21.75.67.67,0,0,1-.57.25Zm-.42-3.05V18.2h.38a.48.48,0,0,0,.34-.11.62.62,0,0,0,.13-.45v0a.61.61,0,0,0-.11-.41.6.6,0,0,0-.43-.11Zm0,2.71h.49a.36.36,0,0,0,.33-.16.85.85,0,0,0,.11-.48.67.67,0,0,0-.17-.53.62.62,0,0,0-.38-.09h-.38Z"/><path class="cls-1" d="M38.38,16.89s0,0,.07-.05l0,0,0-.06a.2.2,0,0,0,0-.07v-.11h-.2v-.27h.35v.39a.45.45,0,0,1-.11.26l-.1.08-.1.05v2.19a.89.89,0,0,1-.22.66.93.93,0,0,1-1.21,0,.93.93,0,0,1-.22-.67V16.74H37v2.39a1,1,0,0,0,.08.43.44.44,0,0,0,.44.25.45.45,0,0,0,.43-.22.8.8,0,0,0,.09-.41V16.74h.31Z"/><path class="cls-1" d="M38.74,19.26V16.75h.31v2.38a1,1,0,0,0,.07.44.47.47,0,0,0,.45.24.46.46,0,0,0,.43-.22.8.8,0,0,0,.09-.41V16.75h.31v2.51a.9.9,0,0,1-.23.66.8.8,0,0,1-.6.23.82.82,0,0,1-.6-.22.92.92,0,0,1-.23-.67"/><path class="cls-1" d="M41.72,18.23V16.75h.76a.79.79,0,0,1,.77.48,2.42,2.42,0,0,1,.18,1.05v.16a3.08,3.08,0,0,1-.17,1.17.73.73,0,0,1-.72.53h-.82V18.59h-.15v-.36ZM42,17.09v1.14h.48v.36H42V19.8h.49a.47.47,0,0,0,.45-.28,2.12,2.12,0,0,0,.15-.93v-.21a2.7,2.7,0,0,0-.12-.94.48.48,0,0,0-.48-.35Z"/><rect class="cls-1" x="43.98" y="16.75" width="0.31" height="3.39"/><polygon class="cls-1" points="45.15 19.8 46.38 19.8 46.38 20.14 44.84 20.14 44.84 16.75 46.37 16.75 46.37 17.09 45.15 17.09 45.15 18.21 46.3 18.21 46.3 18.55 45.15 18.55 45.15 19.8"/><polygon class="cls-1" points="45.85 16.5 45.61 16.07 45.37 16.5 45.07 16.5 45.43 15.85 45.78 15.85 46.15 16.5 45.85 16.5"/><rect class="cls-1" x="45.47" y="20.38" width="0.29" height="0.45"/><path class="cls-1" d="M48.32,19.52V16.75h.3v3.39h-.5l-.77-2.71a3.85,3.85,0,0,1-.11-.52v3.23h-.3V16.75h.5l.78,2.78a1.21,1.21,0,0,1,.05.18c0,.06,0,.12,0,.19v-.38Z"/><polygon class="cls-1" points="51.76 20.14 50.34 20.14 50.34 16.75 50.64 16.75 50.64 19.8 51.76 19.8 51.76 20.14"/><rect class="cls-1" x="52.16" y="16.75" width="0.31" height="3.39"/><polygon class="cls-1" points="53.33 19.8 54.55 19.8 54.55 20.14 53.02 20.14 53.02 16.75 54.54 16.75 54.54 17.09 53.33 17.09 53.33 18.21 54.48 18.21 54.48 18.55 53.33 18.55 53.33 19.8"/><polygon class="cls-1" points="54.03 16.5 53.78 16.07 53.54 16.5 53.25 16.5 53.61 15.85 53.95 15.85 54.32 16.5 54.03 16.5"/><path class="cls-1" d="M56.5,19.52V16.75h.29v3.39h-.5l-.77-2.71a3.85,3.85,0,0,1-.11-.52v3.23h-.29V16.75h.49l.78,2.78.06.18c0,.06,0,.12,0,.19a.19.19,0,0,0,0-.08v-.3Z"/><polygon class="cls-1" points="59.87 16.75 60.21 16.75 59.41 20.14 59.03 20.14 58.24 16.75 58.58 16.75 59.22 19.88 59.87 16.75"/><rect class="cls-1" x="60.54" y="16.75" width="0.31" height="3.39"/><polygon class="cls-1" points="61.71 19.8 62.94 19.8 62.94 20.14 61.4 20.14 61.4 16.75 62.93 16.75 62.93 17.09 61.71 17.09 61.71 18.21 62.86 18.21 62.86 18.55 61.71 18.55 61.71 19.8"/><polygon class="cls-1" points="62.41 16.5 62.17 16.07 61.93 16.5 61.63 16.5 61.99 15.85 62.34 15.85 62.71 16.5 62.41 16.5"/><rect class="cls-1" x="62.02" y="20.38" width="0.29" height="0.45"/><polygon class="cls-1" points="63.27 17.09 63.27 16.75 65 16.75 65 17.09 64.29 17.09 64.29 20.14 63.99 20.14 63.99 17.09 63.27 17.09"/><path class="cls-2" d="M13.31,13.49H11a4.33,4.33,0,0,0-8.65,0H0a6.65,6.65,0,0,0,11.32,4.74h0a6.6,6.6,0,0,0,2-4.74"/><path class="cls-3" d="M6.65,17.81a4.32,4.32,0,0,1-4.32-4.32H0a6.66,6.66,0,0,0,13.31,0H11a4.32,4.32,0,0,1-4.33,4.32"/><path class="cls-3" d="M8.76,13.49a.25.25,0,0,1-.08.17,6.79,6.79,0,0,0-1,.84,7.61,7.61,0,0,0-.84,1,.23.23,0,0,1-.17.07.22.22,0,0,1-.16-.07,8.65,8.65,0,0,0-.84-1,7.15,7.15,0,0,0-1-.84.26.26,0,0,1-.07-.17Z"/><path class="cls-3" d="M6.65,9.17a4.32,4.32,0,0,0-4.32,4.32H4.55a.26.26,0,0,1,.07-.17,8.06,8.06,0,0,0,1-.84,8.65,8.65,0,0,0,.84-1,.22.22,0,0,1,.16-.07.23.23,0,0,1,.17.07,7.61,7.61,0,0,0,.84,1,7.61,7.61,0,0,0,1,.84.25.25,0,0,1,.08.17H11A4.32,4.32,0,0,0,6.65,9.17"/><polygon class="cls-2" points="11.57 17.06 11.57 17.06 11.57 17.06 11.57 17.06"/></svg>