<svg id="Layer_1" data-name="Layer 1" xmlns="http://www.w3.org/2000/svg" viewBox="0 0 65 30"><defs><style>.cls-1{fill:#f6efe4;}.cls-1,.cls-10,.cls-100,.cls-101,.cls-102,.cls-103,.cls-104,.cls-105,.cls-106,.cls-107,.cls-108,.cls-109,.cls-11,.cls-110,.cls-111,.cls-112,.cls-113,.cls-114,.cls-115,.cls-116,.cls-117,.cls-118,.cls-119,.cls-12,.cls-120,.cls-121,.cls-122,.cls-123,.cls-124,.cls-125,.cls-126,.cls-127,.cls-128,.cls-129,.cls-13,.cls-130,.cls-131,.cls-132,.cls-133,.cls-134,.cls-135,.cls-136,.cls-137,.cls-138,.cls-139,.cls-14,.cls-140,.cls-141,.cls-142,.cls-143,.cls-144,.cls-145,.cls-146,.cls-147,.cls-148,.cls-149,.cls-15,.cls-150,.cls-151,.cls-152,.cls-153,.cls-154,.cls-155,.cls-156,.cls-157,.cls-158,.cls-159,.cls-16,.cls-160,.cls-161,.cls-162,.cls-163,.cls-164,.cls-165,.cls-166,.cls-167,.cls-168,.cls-169,.cls-17,.cls-170,.cls-171,.cls-172,.cls-173,.cls-174,.cls-175,.cls-176,.cls-177,.cls-178,.cls-179,.cls-18,.cls-180,.cls-181,.cls-182,.cls-183,.cls-184,.cls-185,.cls-186,.cls-187,.cls-188,.cls-189,.cls-19,.cls-190,.cls-191,.cls-192,.cls-193,.cls-194,.cls-195,.cls-196,.cls-197,.cls-198,.cls-199,.cls-2,.cls-20,.cls-200,.cls-201,.cls-202,.cls-203,.cls-204,.cls-205,.cls-206,.cls-207,.cls-208,.cls-209,.cls-21,.cls-210,.cls-211,.cls-212,.cls-213,.cls-214,.cls-215,.cls-216,.cls-217,.cls-218,.cls-219,.cls-22,.cls-220,.cls-221,.cls-222,.cls-223,.cls-224,.cls-225,.cls-226,.cls-227,.cls-228,.cls-229,.cls-23,.cls-230,.cls-231,.cls-232,.cls-233,.cls-234,.cls-235,.cls-236,.cls-237,.cls-238,.cls-239,.cls-24,.cls-240,.cls-241,.cls-242,.cls-243,.cls-244,.cls-245,.cls-246,.cls-247,.cls-248,.cls-249,.cls-25,.cls-250,.cls-251,.cls-252,.cls-253,.cls-254,.cls-255,.cls-256,.cls-257,.cls-258,.cls-259,.cls-26,.cls-260,.cls-261,.cls-262,.cls-263,.cls-264,.cls-265,.cls-266,.cls-267,.cls-268,.cls-269,.cls-27,.cls-270,.cls-271,.cls-272,.cls-273,.cls-274,.cls-275,.cls-278,.cls-28,.cls-29,.cls-3,.cls-30,.cls-31,.cls-32,.cls-33,.cls-34,.cls-35,.cls-36,.cls-37,.cls-38,.cls-39,.cls-4,.cls-40,.cls-41,.cls-42,.cls-43,.cls-44,.cls-45,.cls-46,.cls-47,.cls-48,.cls-49,.cls-5,.cls-50,.cls-51,.cls-52,.cls-53,.cls-54,.cls-55,.cls-56,.cls-57,.cls-58,.cls-59,.cls-6,.cls-60,.cls-61,.cls-62,.cls-63,.cls-64,.cls-65,.cls-66,.cls-67,.cls-68,.cls-69,.cls-7,.cls-70,.cls-71,.cls-72,.cls-73,.cls-74,.cls-75,.cls-76,.cls-77,.cls-78,.cls-79,.cls-8,.cls-80,.cls-81,.cls-82,.cls-83,.cls-84,.cls-85,.cls-86,.cls-87,.cls-88,.cls-89,.cls-9,.cls-90,.cls-91,.cls-92,.cls-93,.cls-94,.cls-95,.cls-96,.cls-97,.cls-98,.cls-99{fill-rule:evenodd;}.cls-2{fill:#f6eee3;}.cls-3{fill:#f5ece0;}.cls-4{fill:#f4ebde;}.cls-5{fill:#f3e9db;}.cls-6{fill:#f3e8d9;}.cls-7{fill:#f2e6d6;}.cls-8{fill:#f1e5d4;}.cls-9{fill:#f0e3d1;}.cls-10{fill:#f0e2cf;}.cls-11{fill:#efe1cc;}.cls-12{fill:#eedfca;}.cls-13{fill:#eddec8;}.cls-14{fill:#ecdcc5;}.cls-15{fill:#ecdbc3;}.cls-16{fill:#ebd9c0;}.cls-17{fill:#ead8be;}.cls-18{fill:#e9d6bb;}.cls-19{fill:#e9d5b9;}.cls-20{fill:#e8d4b7;}.cls-21{fill:#e7d2b4;}.cls-22{fill:#e6d1b2;}.cls-23{fill:#e5cfaf;}.cls-24{fill:#e4cead;}.cls-25{fill:#e3ccaa;}.cls-26{fill:#e3cba8;}.cls-27{fill:#e2caa6;}.cls-28{fill:#e1c9a4;}.cls-29{fill:#e0c7a1;}.cls-30{fill:#dfc69f;}.cls-31{fill:#dec49c;}.cls-32{fill:#ddc29a;}.cls-33{fill:#dcc198;}.cls-34{fill:#dbc095;}.cls-35{fill:#dbbf93;}.cls-36{fill:#dabd90;}.cls-37{fill:#d9bc8e;}.cls-38{fill:#d8ba8c;}.cls-39{fill:#d7b98a;}.cls-40{fill:#d6b887;}.cls-41{fill:#d5b684;}.cls-42{fill:#d4b583;}.cls-43{fill:#d3b380;}.cls-44{fill:#d2b27e;}.cls-45{fill:#d1b07b;}.cls-46{fill:#d1af79;}.cls-47{fill:#d0ae77;}.cls-48{fill:#cfad75;}.cls-49{fill:#ceab72;}.cls-50{fill:#cdaa70;}.cls-51{fill:#cca86e;}.cls-52{fill:#cba76b;}.cls-53{fill:#caa669;}.cls-54{fill:#c9a466;}.cls-55{fill:#c8a364;}.cls-56{fill:#c7a162;}.cls-57{fill:#c6a060;}.cls-58{fill:#c59f5d;}.cls-59{fill:#c49e5b;}.cls-60{fill:#c39c59;}.cls-61{fill:#c29b57;}.cls-62{fill:#c19954;}.cls-63{fill:#c09851;}.cls-64{fill:#bf974f;}.cls-65{fill:#be954d;}.cls-66{fill:#bd944b;}.cls-67{fill:#bc9348;}.cls-68{fill:#bb9246;}.cls-69{fill:#ba9043;}.cls-70{fill:#b98f41;}.cls-71{fill:#b88d3f;}.cls-72{fill:#b78c3c;}.cls-73{fill:#b68b3a;}.cls-74{fill:#b48937;}.cls-75{fill:#b48835;}.cls-76{fill:#b28732;}.cls-77{fill:#b28630;}.cls-78{fill:#b0842d;}.cls-79{fill:#af832b;}.cls-80{fill:#ae8227;}.cls-81{fill:#ad8125;}.cls-82{fill:#ac7f22;}.cls-83{fill:#ab7e1e;}.cls-84{fill:#aa7d1c;}.cls-85{fill:#a97b18;}.cls-86{fill:#a87a15;}.cls-87{fill:#a77810;}.cls-88{fill:#a6770c;}.cls-89{fill:#a47606;}.cls-90{fill:#a47502;}.cls-91{fill:#a27300;}.cls-92{fill:#231f20;}.cls-93{fill:#262223;}.cls-94{fill:#292627;}.cls-95{fill:#2c292a;}.cls-96{fill:#302d2f;}.cls-97{fill:#323031;}.cls-98{fill:#353435;}.cls-99{fill:#383738;}.cls-100{fill:#3b3a3c;}.cls-101{fill:#3e3e3f;}.cls-102{fill:#404041;}.cls-103{fill:#434345;}.cls-104{fill:#454547;}.cls-105{fill:#48484a;}.cls-106{fill:#4a4a4c;}.cls-107{fill:#4d4d4f;}.cls-108{fill:#4e4f51;}.cls-109{fill:#515254;}.cls-110{fill:#545456;}.cls-111{fill:#555658;}.cls-112{fill:#58595b;}.cls-113{fill:#5a5b5d;}.cls-114{fill:#5c5d60;}.cls-115{fill:#5e5f61;}.cls-116{fill:#616264;}.cls-117{fill:#626366;}.cls-118{fill:#fff;}.cls-119{fill:#fffbf6;}.cls-120{fill:#fff7f0;}.cls-121{fill:#fff5ed;}.cls-122{fill:#fff2e8;}.cls-123{fill:#fff1e3;}.cls-124{fill:#ffeede;}.cls-125{fill:#fbebda;}.cls-126{fill:#fbe9d7;}.cls-127{fill:#fbe9d6;}.cls-128{fill:#f7e6d1;}.cls-129{fill:#f8e6cf;}.cls-130{fill:#f8e6cd;}.cls-131{fill:#f6e2c9;}.cls-132{fill:#f6e1c7;}.cls-133{fill:#f6e1c5;}.cls-134{fill:#f3ddc2;}.cls-135{fill:#f3ddbf;}.cls-136{fill:#f3ddbe;}.cls-137{fill:#f1dbba;}.cls-138{fill:#f1dbb8;}.cls-139{fill:#f1d9b8;}.cls-140{fill:#f1d9b6;}.cls-141{fill:#f1d9b4;}.cls-142{fill:#efd7b1;}.cls-143{fill:#efd5ae;}.cls-144{fill:#efd4ad;}.cls-145{fill:#edd3aa;}.cls-146{fill:#edd3a8;}.cls-147{fill:#edd3a6;}.cls-148{fill:#ebcfa2;}.cls-149{fill:#ebcfa1;}.cls-150{fill:#ebcf9f;}.cls-151{fill:#e9cd9d;}.cls-152{fill:#e8cb9b;}.cls-153{fill:#e8cb99;}.cls-154{fill:#e9cb98;}.cls-155{fill:#e7c995;}.cls-156{fill:#e7c993;}.cls-157{fill:#e7c791;}.cls-158{fill:#e4c590;}.cls-159{fill:#e4c58e;}.cls-160{fill:#e4c58c;}.cls-161{fill:#e4c38a;}.cls-162{fill:#e3c287;}.cls-163{fill:#e3c185;}.cls-164{fill:#e0bf83;}.cls-165{fill:#e0bf81;}.cls-166{fill:#e0be80;}.cls-167{fill:#e0be7e;}.cls-168{fill:#dfbc7d;}.cls-169{fill:#dfbc7a;}.cls-170{fill:#dcba77;}.cls-171{fill:#dcb875;}.cls-172{fill:#dcb873;}.cls-173{fill:#dab771;}.cls-174{fill:#dab56f;}.cls-175{fill:#dab56d;}.cls-176{fill:#dab46c;}.cls-177{fill:#d8b269;}.cls-178{fill:#d8b267;}.cls-179{fill:#d8b167;}.cls-180{fill:#d5af64;}.cls-181{fill:#d5af63;}.cls-182{fill:#d5af61;}.cls-183{fill:#d5ad5f;}.cls-184{fill:#d3ac5c;}.cls-185{fill:#d3ab5a;}.cls-186{fill:#d1a958;}.cls-187{fill:#d1a955;}.cls-188{fill:#d1a854;}.cls-189{fill:#d1a851;}.cls-190{fill:#cfa74f;}.cls-191{fill:#cfa54d;}.cls-192{fill:#cca349;}.cls-193{fill:#cda348;}.cls-194{fill:#cda345;}.cls-195{fill:#cda244;}.cls-196{fill:#cba043;}.cls-197{fill:#cba041;}.cls-198{fill:#cba03f;}.cls-199{fill:#c89e3c;}.cls-200{fill:#c89c3a;}.cls-201{fill:#c89c35;}.cls-202{fill:#c69a34;}.cls-203{fill:#c69a32;}.cls-204{fill:#c69a30;}.cls-205{fill:#c5982e;}.cls-206{fill:#c4972d;}.cls-207{fill:#c4972b;}.cls-208{fill:#c49729;}.cls-209{fill:#c19526;}.cls-210{fill:#c19524;}.cls-211{fill:#c19421;}.cls-212{fill:#c1941e;}.cls-213{fill:#bf921e;}.cls-214{fill:#bf921c;}.cls-215{fill:#bf9119;}.cls-216{fill:#bd8f16;}.cls-217{fill:#bd8f12;}.cls-218{fill:#bd8f10;}.cls-219{fill:#bb8c0d;}.cls-220,.cls-277{fill:#bb8c0b;}.cls-221{fill:#b98c0c;}.cls-222{fill:#b6890e;}.cls-223{fill:#b58810;}.cls-224{fill:#b38711;}.cls-225{fill:#b38611;}.cls-226{fill:#b18512;}.cls-227{fill:#b08513;}.cls-228{fill:#ae8313;}.cls-229{fill:#ae8214;}.cls-230{fill:#ac8115;}.cls-231{fill:#ab8115;}.cls-232{fill:#ab8016;}.cls-233{fill:#a98016;}.cls-234{fill:#a77e17;}.cls-235{fill:#a67e18;}.cls-236{fill:#a47e18;}.cls-237{fill:#a47c18;}.cls-238{fill:#a37c19;}.cls-239{fill:#a17a1a;}.cls-240{fill:#a0781a;}.cls-241{fill:#9e781b;}.cls-242{fill:#9d781b;}.cls-243{fill:#9d771b;}.cls-244{fill:#9b761c;}.cls-245{fill:#9a741c;}.cls-246{fill:#98731d;}.cls-247{fill:#97731d;}.cls-248{fill:#95711e;}.cls-249{fill:#94711e;}.cls-250{fill:#926f1f;}.cls-251{fill:#916e1f;}.cls-252{fill:#8f6d20;}.cls-253{fill:#8e6c20;}.cls-254{fill:#8c6b20;}.cls-255{fill:#8b6a21;}.cls-256{fill:#896a21;}.cls-257{fill:#896821;}.cls-258{fill:#886821;}.cls-259{fill:#866722;}.cls-260{fill:#846622;}.cls-261{fill:#836522;}.cls-262{fill:#816423;}.cls-263{fill:#806323;}.cls-264{fill:#7f6223;}.cls-265{fill:#7e6124;}.cls-266{fill:#7d6024;}.cls-267{fill:#7b5f24;}.cls-268{fill:#7a5e24;}.cls-269{fill:#785d25;}.cls-270{fill:#775c25;}.cls-271{fill:#755b25;}.cls-272{fill:#775d25;}.cls-273{fill:#785e25;}.cls-274{fill:#816323;}.cls-275{fill:#866822;}.cls-276,.cls-278{fill:#0079c0;}</style></defs><path class="cls-1" d="M39.22,11.31h0a0,0,0,0,0,0,0s0,0,0,0,0,0,0,0a0,0,0,0,0,0,0Z"/><path class="cls-2" d="M39.18,11.31a0,0,0,0,1,0,0s0,0,0,0,0,0,0,0a0,0,0,0,1,0,0h0a.08.08,0,0,0,.08.08.08.08,0,0,0,.07-.08.07.07,0,0,0-.07-.07.07.07,0,0,0-.08.07Z"/><path class="cls-2" d="M39.14,11.31a.07.07,0,0,1,.08-.07.07.07,0,0,1,.07.07.08.08,0,0,1-.07.08.08.08,0,0,1-.08-.08h0a.12.12,0,0,0,.12.12.12.12,0,0,0,.11-.12.11.11,0,0,0-.11-.11.11.11,0,0,0-.12.11Z"/><path class="cls-3" d="M39.1,11.31a.11.11,0,0,1,.12-.11.11.11,0,0,1,.11.11.12.12,0,0,1-.11.12.12.12,0,0,1-.12-.12h0a.15.15,0,0,0,.16.15.15.15,0,0,0,.15-.15.15.15,0,0,0-.15-.15.16.16,0,0,0-.16.15Z"/><path class="cls-4" d="M39.06,11.31a.16.16,0,0,1,.16-.15.15.15,0,0,1,.15.15.15.15,0,0,1-.15.15.15.15,0,0,1-.16-.15h0a.18.18,0,0,0,.19.19.19.19,0,0,0,.19-.19.2.2,0,0,0-.19-.19.19.19,0,0,0-.19.19Z"/><path class="cls-4" d="M39,11.31a.19.19,0,0,1,.19-.19.2.2,0,0,1,.19.19.19.19,0,0,1-.19.19.18.18,0,0,1-.19-.19h0a.23.23,0,1,0,.45,0,.23.23,0,1,0-.45,0Z"/><path class="cls-5" d="M39,11.31a.23.23,0,1,1,.45,0,.23.23,0,1,1-.45,0h0a.27.27,0,1,0,.53,0,.27.27,0,0,0-.53,0Z"/><path class="cls-6" d="M39,11.31a.27.27,0,1,1,.27.27.27.27,0,0,1-.27-.27h0a.31.31,0,1,0,.61,0,.31.31,0,0,0-.61,0Z"/><path class="cls-6" d="M38.91,11.31a.31.31,0,0,1,.61,0,.31.31,0,1,1-.61,0h0a.35.35,0,1,0,.35-.34.35.35,0,0,0-.35.34Z"/><path class="cls-7" d="M38.87,11.31a.35.35,0,1,1,.35.34.35.35,0,0,1-.35-.34h0a.38.38,0,0,0,.38.38.38.38,0,0,0,0-.76.38.38,0,0,0-.38.38Z"/><path class="cls-8" d="M38.84,11.31a.38.38,0,0,1,.38-.38.38.38,0,0,1,0,.76.38.38,0,0,1-.38-.38h0a.42.42,0,0,0,.42.42.42.42,0,0,0,0-.84.42.42,0,0,0-.42.42Z"/><path class="cls-8" d="M38.8,11.31a.42.42,0,0,1,.42-.42.42.42,0,0,1,0,.84.42.42,0,0,1-.42-.42h0a.46.46,0,1,0,.91,0,.46.46,0,0,0-.91,0Z"/><path class="cls-9" d="M38.76,11.31a.46.46,0,0,1,.91,0,.46.46,0,1,1-.91,0h0a.5.5,0,1,0,.5-.49.49.49,0,0,0-.5.49Z"/><path class="cls-10" d="M38.72,11.31a.5.5,0,1,1,.5.49.49.49,0,0,1-.5-.49h0a.53.53,0,0,0,.53.53.53.53,0,0,0,0-1.06.53.53,0,0,0-.53.53Z"/><path class="cls-10" d="M38.69,11.31a.53.53,0,0,1,.53-.53.53.53,0,0,1,0,1.06.53.53,0,0,1-.53-.53h0a.57.57,0,1,0,.57-.57.57.57,0,0,0-.57.57Z"/><path class="cls-11" d="M38.65,11.31a.57.57,0,1,1,1.13,0,.57.57,0,1,1-1.13,0h0a.61.61,0,1,0,.61-.6.6.6,0,0,0-.61.6Z"/><path class="cls-11" d="M38.61,11.31a.6.6,0,0,1,.61-.6.6.6,0,0,1,.6.6.61.61,0,1,1-1.21,0h0a.65.65,0,1,0,.65-.64.65.65,0,0,0-.65.64Z"/><path class="cls-12" d="M38.57,11.31a.65.65,0,1,1,.65.65.65.65,0,0,1-.65-.65h0a.69.69,0,1,0,.69-.68.68.68,0,0,0-.69.68Z"/><path class="cls-13" d="M38.53,11.31a.69.69,0,1,1,.69.68.68.68,0,0,1-.69-.68h0a.72.72,0,1,0,.72-.72.72.72,0,0,0-.72.72Z"/><path class="cls-13" d="M38.5,11.31a.72.72,0,1,1,.72.72.72.72,0,0,1-.72-.72h0a.76.76,0,1,0,.76-.76.76.76,0,0,0-.76.76Z"/><path class="cls-14" d="M38.46,11.31a.76.76,0,1,1,.76.76.76.76,0,0,1-.76-.76h0a.8.8,0,0,0,.8.8.79.79,0,0,0,.79-.8.79.79,0,0,0-.79-.79.79.79,0,0,0-.8.79Z"/><path class="cls-14" d="M38.42,11.31a.79.79,0,0,1,.8-.79.79.79,0,0,1,.79.79.79.79,0,0,1-.79.8.8.8,0,0,1-.8-.8h0a.85.85,0,0,0,.84.84.84.84,0,0,0,.83-.84.83.83,0,0,0-.83-.83.84.84,0,0,0-.84.83Z"/><path class="cls-15" d="M38.38,11.31a.84.84,0,0,1,.84-.83.83.83,0,0,1,.83.83.84.84,0,0,1-.83.84.85.85,0,0,1-.84-.84h0a.88.88,0,1,0,.88-.87.87.87,0,0,0-.88.87Z"/><path class="cls-16" d="M38.34,11.31a.88.88,0,1,1,.88.87.87.87,0,0,1-.88-.87h0a.91.91,0,1,0,.91-.91.91.91,0,0,0-.91.91Z"/><path class="cls-16" d="M38.31,11.31a.91.91,0,1,1,.91.91.91.91,0,0,1-.91-.91h0a.95.95,0,1,0,.95-1,.94.94,0,0,0-.95,1Z"/><path class="cls-17" d="M38.27,11.31a.95.95,0,1,1,.95.95.95.95,0,0,1-.95-.95h0a1,1,0,1,0,1-1,1,1,0,0,0-1,1Z"/><path class="cls-17" d="M38.23,11.31a1,1,0,1,1,1,1,1,1,0,0,1-1-1h0a1,1,0,1,0,1-1,1,1,0,0,0-1,1Z"/><path class="cls-18" d="M38.19,11.31a1,1,0,1,1,1,1,1,1,0,0,1-1-1h0a1.07,1.07,0,1,0,1.07-1.06,1.06,1.06,0,0,0-1.07,1.06Z"/><path class="cls-19" d="M38.15,11.31a1.07,1.07,0,1,1,1.07,1.06,1.07,1.07,0,0,1-1.07-1.06h0a1.1,1.1,0,1,0,1.1-1.1,1.1,1.1,0,0,0-1.1,1.1Z"/><path class="cls-19" d="M38.12,11.31a1.1,1.1,0,1,1,1.1,1.1,1.1,1.1,0,0,1-1.1-1.1h0a1.14,1.14,0,1,0,1.14-1.14,1.14,1.14,0,0,0-1.14,1.14Z"/><path class="cls-20" d="M38.08,11.31a1.14,1.14,0,1,1,1.14,1.14,1.14,1.14,0,0,1-1.14-1.14h0a1.18,1.18,0,1,0,2.35,0,1.18,1.18,0,0,0-2.35,0Z"/><path class="cls-21" d="M38,11.31a1.18,1.18,0,1,1,1.18,1.18A1.17,1.17,0,0,1,38,11.31h0a1.22,1.22,0,1,0,2.43,0,1.22,1.22,0,0,0-2.43,0Z"/><path class="cls-21" d="M38,11.31a1.22,1.22,0,1,1,1.22,1.22A1.22,1.22,0,0,1,38,11.31h0a1.26,1.26,0,1,0,1.26-1.25A1.25,1.25,0,0,0,38,11.31Z"/><path class="cls-22" d="M38,11.31a1.26,1.26,0,1,1,1.26,1.25A1.25,1.25,0,0,1,38,11.31h0A1.29,1.29,0,1,0,39.22,10a1.29,1.29,0,0,0-1.29,1.29Z"/><path class="cls-22" d="M37.93,11.31a1.29,1.29,0,1,1,1.29,1.29,1.29,1.29,0,0,1-1.29-1.29h0A1.33,1.33,0,1,0,39.22,10a1.33,1.33,0,0,0-1.33,1.33Z"/><path class="cls-23" d="M37.89,11.31a1.33,1.33,0,1,1,1.33,1.33,1.33,1.33,0,0,1-1.33-1.33h0A1.37,1.37,0,1,0,39.22,10a1.37,1.37,0,0,0-1.37,1.36Z"/><path class="cls-24" d="M37.85,11.31a1.37,1.37,0,1,1,1.37,1.37,1.36,1.36,0,0,1-1.37-1.37h0a1.41,1.41,0,1,0,1.41-1.4,1.4,1.4,0,0,0-1.41,1.4Z"/><path class="cls-24" d="M37.81,11.31a1.41,1.41,0,1,1,1.41,1.4,1.41,1.41,0,0,1-1.41-1.4h0a1.45,1.45,0,1,0,1.45-1.44,1.44,1.44,0,0,0-1.45,1.44Z"/><path class="cls-25" d="M37.77,11.31a1.45,1.45,0,1,1,1.45,1.44,1.45,1.45,0,0,1-1.45-1.44h0a1.48,1.48,0,1,0,1.48-1.48,1.48,1.48,0,0,0-1.48,1.48Z"/><path class="cls-26" d="M37.74,11.31a1.48,1.48,0,1,1,1.48,1.48,1.48,1.48,0,0,1-1.48-1.48h0A1.52,1.52,0,1,0,39.22,9.8a1.52,1.52,0,0,0-1.52,1.51Z"/><path class="cls-26" d="M37.7,11.31a1.52,1.52,0,1,1,1.52,1.52,1.51,1.51,0,0,1-1.52-1.52h0a1.56,1.56,0,1,0,1.56-1.55,1.56,1.56,0,0,0-1.56,1.55Z"/><path class="cls-27" d="M37.66,11.31a1.56,1.56,0,1,1,1.56,1.56,1.55,1.55,0,0,1-1.56-1.56h0a1.6,1.6,0,1,0,1.6-1.59,1.6,1.6,0,0,0-1.6,1.59Z"/><path class="cls-28" d="M37.62,11.31a1.6,1.6,0,1,1,1.6,1.59,1.6,1.6,0,0,1-1.6-1.59h0a1.63,1.63,0,1,0,1.63-1.63,1.62,1.62,0,0,0-1.63,1.63Z"/><path class="cls-28" d="M37.59,11.31a1.63,1.63,0,1,1,1.63,1.63,1.62,1.62,0,0,1-1.63-1.63h0a1.67,1.67,0,1,0,1.67-1.67,1.67,1.67,0,0,0-1.67,1.67Z"/><path class="cls-29" d="M37.55,11.31A1.67,1.67,0,1,1,39.22,13a1.67,1.67,0,0,1-1.67-1.67h0a1.71,1.71,0,1,0,1.71-1.7,1.71,1.71,0,0,0-1.71,1.7Z"/><path class="cls-30" d="M37.51,11.31A1.71,1.71,0,1,1,39.22,13a1.7,1.7,0,0,1-1.71-1.71h0a1.75,1.75,0,1,0,1.75-1.74,1.75,1.75,0,0,0-1.75,1.74Z"/><path class="cls-30" d="M37.47,11.31a1.75,1.75,0,1,1,1.75,1.75,1.74,1.74,0,0,1-1.75-1.75h0a1.79,1.79,0,1,0,1.79-1.78,1.78,1.78,0,0,0-1.79,1.78Z"/><path class="cls-31" d="M37.43,11.31a1.79,1.79,0,1,1,1.79,1.78,1.79,1.79,0,0,1-1.79-1.78h0a1.82,1.82,0,1,0,1.82-1.82,1.81,1.81,0,0,0-1.82,1.82Z"/><path class="cls-31" d="M37.4,11.31a1.82,1.82,0,1,1,1.82,1.82,1.82,1.82,0,0,1-1.82-1.82h0a1.86,1.86,0,1,0,1.86-1.86,1.86,1.86,0,0,0-1.86,1.86Z"/><path class="cls-32" d="M37.36,11.31a1.86,1.86,0,1,1,1.86,1.86,1.86,1.86,0,0,1-1.86-1.86h0a1.9,1.9,0,1,0,1.9-1.89,1.9,1.9,0,0,0-1.9,1.89Z"/><path class="cls-33" d="M37.32,11.31a1.9,1.9,0,1,1,1.9,1.9,1.89,1.89,0,0,1-1.9-1.9h0a1.94,1.94,0,1,0,1.94-1.93,1.94,1.94,0,0,0-1.94,1.93Z"/><path class="cls-33" d="M37.28,11.31a1.94,1.94,0,1,1,1.94,1.94,1.93,1.93,0,0,1-1.94-1.94h0a2,2,0,1,0,2-2,2,2,0,0,0-2,2Z"/><path class="cls-34" d="M37.24,11.31a2,2,0,1,1,2,2,2,2,0,0,1-2-2h0a2,2,0,1,0,2-2,2,2,0,0,0-2,2Z"/><path class="cls-34" d="M37.21,11.31a2,2,0,1,1,2,2,2,2,0,0,1-2-2h0a2,2,0,1,0,2-2.05,2,2,0,0,0-2,2.05Z"/><path class="cls-35" d="M37.17,11.31a2,2,0,1,1,2,2,2,2,0,0,1-2-2h0a2.09,2.09,0,1,0,2.09-2.08,2.09,2.09,0,0,0-2.09,2.08Z"/><path class="cls-36" d="M37.13,11.31a2.09,2.09,0,1,1,2.09,2.09,2.08,2.08,0,0,1-2.09-2.09h0a2.13,2.13,0,1,0,2.13-2.12,2.13,2.13,0,0,0-2.13,2.12Z"/><path class="cls-36" d="M37.09,11.31a2.13,2.13,0,1,1,2.13,2.13,2.12,2.12,0,0,1-2.13-2.13h0a2.17,2.17,0,1,0,2.17-2.16,2.16,2.16,0,0,0-2.17,2.16Z"/><path class="cls-37" d="M37.05,11.31a2.17,2.17,0,1,1,2.17,2.16,2.17,2.17,0,0,1-2.17-2.16h0a2.2,2.2,0,1,0,2.2-2.2,2.19,2.19,0,0,0-2.2,2.2Z"/><path class="cls-37" d="M37,11.31a2.2,2.2,0,1,1,2.2,2.2,2.2,2.2,0,0,1-2.2-2.2h0a2.24,2.24,0,1,0,2.24-2.24A2.24,2.24,0,0,0,37,11.31Z"/><path class="cls-38" d="M37,11.31a2.24,2.24,0,1,1,2.24,2.24A2.24,2.24,0,0,1,37,11.31h0A2.28,2.28,0,1,0,39.22,9a2.28,2.28,0,0,0-2.28,2.27Z"/><path class="cls-39" d="M36.94,11.31a2.28,2.28,0,1,1,2.28,2.28,2.28,2.28,0,0,1-2.28-2.28h0A2.32,2.32,0,1,0,39.22,9a2.32,2.32,0,0,0-2.32,2.31Z"/><path class="cls-39" d="M36.9,11.31a2.32,2.32,0,1,1,2.32,2.32,2.31,2.31,0,0,1-2.32-2.32h0A2.36,2.36,0,1,0,39.22,9a2.36,2.36,0,0,0-2.36,2.35Z"/><path class="cls-40" d="M36.86,11.31a2.36,2.36,0,1,1,2.36,2.35,2.36,2.36,0,0,1-2.36-2.35h0a2.39,2.39,0,1,0,2.39-2.39,2.39,2.39,0,0,0-2.39,2.39Z"/><path class="cls-41" d="M36.83,11.31a2.39,2.39,0,1,1,2.39,2.39,2.39,2.39,0,0,1-2.39-2.39h0a2.43,2.43,0,1,0,2.43-2.43,2.43,2.43,0,0,0-2.43,2.43Z"/><path class="cls-41" d="M36.79,11.31a2.43,2.43,0,1,1,2.43,2.43,2.43,2.43,0,0,1-2.43-2.43h0a2.47,2.47,0,1,0,2.47-2.46,2.47,2.47,0,0,0-2.47,2.46Z"/><path class="cls-42" d="M36.75,11.31a2.47,2.47,0,1,1,2.47,2.47,2.46,2.46,0,0,1-2.47-2.47h0a2.51,2.51,0,1,0,2.51-2.5,2.5,2.5,0,0,0-2.51,2.5Z"/><path class="cls-42" d="M36.71,11.31a2.51,2.51,0,1,1,2.51,2.5,2.5,2.5,0,0,1-2.51-2.5h0a2.55,2.55,0,1,0,2.55-2.54,2.55,2.55,0,0,0-2.55,2.54Z"/><path class="cls-42" d="M36.67,11.31a2.55,2.55,0,1,1,2.55,2.54,2.55,2.55,0,0,1-2.55-2.54h0a2.58,2.58,0,1,0,2.58-2.58,2.57,2.57,0,0,0-2.58,2.58Z"/><path class="cls-43" d="M36.64,11.31a2.58,2.58,0,1,1,2.58,2.58,2.58,2.58,0,0,1-2.58-2.58h0A2.62,2.62,0,1,0,39.22,8.7a2.62,2.62,0,0,0-2.62,2.61Z"/><path class="cls-44" d="M36.6,11.31a2.62,2.62,0,1,1,2.62,2.62,2.61,2.61,0,0,1-2.62-2.62h0a2.66,2.66,0,1,0,2.66-2.65,2.66,2.66,0,0,0-2.66,2.65Z"/><path class="cls-44" d="M36.56,11.31A2.66,2.66,0,1,1,39.22,14a2.66,2.66,0,0,1-2.66-2.66h0a2.7,2.7,0,1,0,2.7-2.69,2.69,2.69,0,0,0-2.7,2.69Z"/><path class="cls-44" d="M36.52,11.31A2.7,2.7,0,1,1,39.22,14a2.7,2.7,0,0,1-2.7-2.69h0a2.73,2.73,0,1,0,2.73-2.73,2.73,2.73,0,0,0-2.73,2.73Z"/><path class="cls-45" d="M36.49,11.31A2.73,2.73,0,1,1,39.22,14a2.73,2.73,0,0,1-2.73-2.73h0a2.77,2.77,0,1,0,2.77-2.77,2.77,2.77,0,0,0-2.77,2.77Z"/><path class="cls-45" d="M36.45,11.31a2.77,2.77,0,1,1,2.77,2.77,2.77,2.77,0,0,1-2.77-2.77h0a2.81,2.81,0,1,0,2.81-2.8,2.81,2.81,0,0,0-2.81,2.8Z"/><path class="cls-46" d="M36.41,11.31a2.81,2.81,0,1,1,2.81,2.81,2.8,2.8,0,0,1-2.81-2.81h0a2.85,2.85,0,1,0,2.85-2.84,2.86,2.86,0,0,0-2.85,2.84Z"/><path class="cls-46" d="M36.37,11.31a2.85,2.85,0,1,1,2.85,2.85,2.85,2.85,0,0,1-2.85-2.85h0a2.89,2.89,0,1,0,2.89-2.88,2.88,2.88,0,0,0-2.89,2.88Z"/><path class="cls-47" d="M36.33,11.31a2.89,2.89,0,1,1,2.89,2.88,2.88,2.88,0,0,1-2.89-2.88h0a2.92,2.92,0,1,0,2.92-2.92,2.92,2.92,0,0,0-2.92,2.92Z"/><path class="cls-47" d="M36.3,11.31a2.92,2.92,0,1,1,2.92,2.92,2.92,2.92,0,0,1-2.92-2.92h0a3,3,0,1,0,3-3,3,3,0,0,0-3,3Z"/><path class="cls-48" d="M36.26,11.31a3,3,0,1,1,3,3,3,3,0,0,1-3-3h0a3,3,0,1,0,3-3,3,3,0,0,0-3,3Z"/><path class="cls-48" d="M36.22,11.31a3,3,0,1,1,3,3,3,3,0,0,1-3-3h0a3,3,0,1,0,3-3,3,3,0,0,0-3,3Z"/><path class="cls-48" d="M36.18,11.31a3,3,0,1,1,3,3,3,3,0,0,1-3-3h0a3.08,3.08,0,1,0,3.08-3.07,3.07,3.07,0,0,0-3.08,3.07Z"/><path class="cls-49" d="M36.14,11.31a3.08,3.08,0,1,1,3.08,3.07,3.08,3.08,0,0,1-3.08-3.07h0A3.11,3.11,0,1,0,39.22,8.2a3.11,3.11,0,0,0-3.11,3.11Z"/><path class="cls-49" d="M36.11,11.31a3.11,3.11,0,1,1,3.11,3.11,3.11,3.11,0,0,1-3.11-3.11h0a3.15,3.15,0,1,0,3.15-3.15,3.15,3.15,0,0,0-3.15,3.15Z"/><path class="cls-50" d="M36.07,11.31a3.15,3.15,0,1,1,3.15,3.15,3.15,3.15,0,0,1-3.15-3.15h0a3.19,3.19,0,1,0,3.19-3.18A3.19,3.19,0,0,0,36,11.31Z"/><path class="cls-50" d="M36,11.31a3.19,3.19,0,1,1,3.19,3.19A3.18,3.18,0,0,1,36,11.31h0a3.23,3.23,0,1,0,3.23-3.22A3.23,3.23,0,0,0,36,11.31Z"/><path class="cls-51" d="M36,11.31a3.23,3.23,0,1,1,3.23,3.22A3.23,3.23,0,0,1,36,11.31h0a3.27,3.27,0,1,0,3.27-3.26A3.26,3.26,0,0,0,36,11.31Z"/><path class="cls-51" d="M36,11.31a3.27,3.27,0,1,1,3.27,3.26A3.26,3.26,0,0,1,36,11.31h0A3.3,3.3,0,1,0,39.22,8a3.3,3.3,0,0,0-3.3,3.3Z"/><path class="cls-52" d="M35.92,11.31a3.3,3.3,0,1,1,3.3,3.3,3.3,3.3,0,0,1-3.3-3.3h0A3.34,3.34,0,1,0,39.22,8a3.34,3.34,0,0,0-3.34,3.33Z"/><path class="cls-52" d="M35.88,11.31a3.34,3.34,0,1,1,3.34,3.34,3.33,3.33,0,0,1-3.34-3.34h0a3.38,3.38,0,1,0,3.38-3.37,3.38,3.38,0,0,0-3.38,3.37Z"/><path class="cls-52" d="M35.84,11.31a3.38,3.38,0,1,1,3.38,3.38,3.37,3.37,0,0,1-3.38-3.38h0A3.42,3.42,0,1,0,39.22,7.9a3.41,3.41,0,0,0-3.42,3.41Z"/><path class="cls-53" d="M35.8,11.31a3.42,3.42,0,1,1,3.42,3.41,3.42,3.42,0,0,1-3.42-3.41h0a3.46,3.46,0,1,0,3.46-3.45,3.45,3.45,0,0,0-3.46,3.45Z"/><path class="cls-53" d="M35.76,11.31a3.46,3.46,0,1,1,3.46,3.45,3.46,3.46,0,0,1-3.46-3.45h0a3.49,3.49,0,1,0,3.49-3.49,3.49,3.49,0,0,0-3.49,3.49Z"/><path class="cls-54" d="M35.73,11.31a3.49,3.49,0,1,1,3.49,3.49,3.49,3.49,0,0,1-3.49-3.49h0a3.53,3.53,0,1,0,3.53-3.52,3.53,3.53,0,0,0-3.53,3.52Z"/><path class="cls-54" d="M35.69,11.31a3.53,3.53,0,1,1,3.53,3.53,3.52,3.52,0,0,1-3.53-3.53h0a3.57,3.57,0,1,0,3.57-3.56,3.51,3.51,0,0,0-2.11.69,5.07,5.07,0,0,0-.67.64,3.51,3.51,0,0,0-.79,2.23Z"/><path class="cls-55" d="M35.65,11.31a3.51,3.51,0,0,1,.79-2.23,4.78,4.78,0,0,0-.34.42,3.58,3.58,0,0,0-.49,1.81Zm1.46-2.87c.14-.11.28-.22.43-.32a3.6,3.6,0,1,1-1.93,3.19h0a3.57,3.57,0,1,0,3.57-3.56A3.51,3.51,0,0,0,37.11,8.44Z"/><path class="cls-55" d="M35.61,11.31A3.58,3.58,0,0,1,36.1,9.5l-.18.27a3.62,3.62,0,0,0-.34,1.54Zm1.93-3.19A2.61,2.61,0,0,1,37.82,8a3.64,3.64,0,1,1-2.24,3.36h0a3.6,3.6,0,1,0,1.93-3.19Z"/><path class="cls-55" d="M35.58,11.31a3.62,3.62,0,0,1,.34-1.54c-.05.08-.1.16-.14.24a3.49,3.49,0,0,0-.24,1.3ZM37.82,8l.24-.13a3.68,3.68,0,1,1-2.52,3.49h0A3.64,3.64,0,1,0,37.82,8Z"/><path class="cls-56" d="M35.54,11.31a3.49,3.49,0,0,1,.24-1.3,1.28,1.28,0,0,0-.11.2,3.67,3.67,0,0,0-.17,1.1Zm2.52-3.49.21-.1a3.72,3.72,0,1,1-2.77,3.59h0a3.69,3.69,0,1,0,2.52-3.49Z"/><path class="cls-56" d="M35.5,11.31a3.67,3.67,0,0,1,.17-1.1,1.74,1.74,0,0,0-.1.19,3.91,3.91,0,0,0-.11.91Zm2.77-3.59.2-.09a3.67,3.67,0,0,1,.75-.07,3.76,3.76,0,1,1-3.76,3.75h0a3.71,3.71,0,1,0,2.77-3.59Z"/><path class="cls-57" d="M35.46,11.31a3.91,3.91,0,0,1,.11-.91l-.07.18a3.47,3.47,0,0,0-.08.73Zm3-3.68.17-.07a3.69,3.69,0,0,1,.58,0,3.79,3.79,0,1,1-3.8,3.79h0a3.76,3.76,0,1,0,3.76-3.75A3.67,3.67,0,0,0,38.47,7.63Z"/><path class="cls-57" d="M35.42,11.31a3.47,3.47,0,0,1,.08-.73,1.11,1.11,0,0,0-.07.16,3.64,3.64,0,0,0,0,.57Zm3.22-3.75.17-.06.41,0a3.83,3.83,0,1,1-3.83,3.83h0a3.8,3.8,0,1,0,3.8-3.79A3.69,3.69,0,0,0,38.64,7.56Z"/><path class="cls-58" d="M35.39,11.31a3.64,3.64,0,0,1,0-.57l-.06.16c0,.14,0,.27,0,.41ZM38.81,7.5l.17,0h.24a3.87,3.87,0,1,1-3.87,3.87h0a3.83,3.83,0,1,0,3.83-3.83Z"/><path class="cls-58" d="M35.35,11.31c0-.14,0-.27,0-.41a1,1,0,0,0,0,.16,2.09,2.09,0,0,0,0,.25ZM39,7.45l.15,0h.09a3.91,3.91,0,1,1-3.91,3.9h0a3.87,3.87,0,1,0,3.87-3.87Z"/><path class="cls-59" d="M35.31,11.31a2.09,2.09,0,0,1,0-.25s0,.1,0,.15v.1Zm3.82-3.9.16,0a3.95,3.95,0,1,1-4,3.94h0a3.91,3.91,0,1,0,3.91-3.9Z"/><path class="cls-59" d="M35.27,11.31v-.1l0,.1h0a3.95,3.95,0,1,0,4-3.94l.14,0a4,4,0,1,1-4.2,4v0Z"/><path class="cls-59" d="M39.43,7.34a4,4,0,1,1-4.2,4l0,.14a4,4,0,1,0,4.38-4.18Z"/><path class="cls-60" d="M39.58,7.31a4,4,0,1,1-4.38,4.18l0,.14a4.06,4.06,0,1,0,4.55-4.34Z"/><path class="cls-61" d="M39.72,7.29a4.06,4.06,0,1,1-4.55,4.34.68.68,0,0,0,0,.14,4.09,4.09,0,1,0,4.7-4.5Z"/><path class="cls-61" d="M39.85,7.27a4.09,4.09,0,1,1-4.7,4.5l0,.13A4.14,4.14,0,1,0,40,7.25Z"/><path class="cls-61" d="M40,7.25a4.14,4.14,0,1,1-4.87,4.65s0,.09,0,.13a4.17,4.17,0,1,0,5-4.79Z"/><path class="cls-62" d="M40.12,7.24a4.17,4.17,0,1,1-5,4.79s0,.09,0,.13a4.21,4.21,0,1,0,5.16-4.93Z"/><path class="cls-62" d="M40.25,7.23a4.21,4.21,0,1,1-5.16,4.93s0,.08,0,.12a4.25,4.25,0,1,0,5.3-5Z"/><path class="cls-62" d="M40.38,7.23a4.25,4.25,0,1,1-5.3,5c0,.05,0,.09,0,.13A4.29,4.29,0,1,0,40.5,7.22Z"/><path class="cls-63" d="M40.5,7.22a4.29,4.29,0,1,1-5.43,5.19v.12a4.32,4.32,0,1,0,5.55-5.31H40.5Z"/><path class="cls-64" d="M40.62,7.22a4.32,4.32,0,1,1-5.55,5.31.49.49,0,0,1,0,.12,4.36,4.36,0,1,0,5.68-5.42Z"/><path class="cls-64" d="M40.74,7.23a4.36,4.36,0,1,1-5.68,5.42v.12a4.4,4.4,0,1,0,5.8-5.54Z"/><path class="cls-64" d="M40.86,7.23a4.4,4.4,0,1,1-5.8,5.54.49.49,0,0,1,0,.12A4.44,4.44,0,1,0,41,7.24Z"/><path class="cls-65" d="M41,7.24a4.44,4.44,0,1,1-5.91,5.65V13a4.48,4.48,0,1,0,6-5.75Z"/><path class="cls-65" d="M41.09,7.25a4.48,4.48,0,1,1-6,5.75v.12a4.51,4.51,0,1,0,6.13-5.86Z"/><path class="cls-66" d="M41.21,7.26a4.51,4.51,0,1,1-6.13,5.86.45.45,0,0,0,0,.11,4.55,4.55,0,1,0,6.23-5.95Z"/><path class="cls-66" d="M41.32,7.28a4.55,4.55,0,1,1-6.23,6s0,.07,0,.11a4.59,4.59,0,1,0,6.33-6Z"/><path class="cls-67" d="M41.43,7.29a4.59,4.59,0,1,1-6.33,6.05v.11a4.63,4.63,0,1,0,6.43-6.14Z"/><path class="cls-67" d="M41.54,7.31a4.63,4.63,0,1,1-6.43,6.14s0,.07,0,.11a4.66,4.66,0,1,0,6.52-6.23Z"/><path class="cls-68" d="M41.65,7.33a4.67,4.67,0,1,1-6.52,6.23.43.43,0,0,0,0,.11,4.7,4.7,0,1,0,6.61-6.31Z"/><path class="cls-68" d="M41.76,7.36a4.7,4.7,0,1,1-6.61,6.31.43.43,0,0,0,0,.11,4.74,4.74,0,1,0,6.69-6.4Z"/><path class="cls-68" d="M41.86,7.38a4.74,4.74,0,1,1-6.69,6.4.52.52,0,0,0,0,.11A4.78,4.78,0,1,0,42,7.41Z"/><path class="cls-69" d="M42,7.41a4.78,4.78,0,1,1-6.78,6.48s0,.07,0,.1a4.81,4.81,0,1,0,6.86-6.55Z"/><path class="cls-69" d="M42.07,7.44A4.81,4.81,0,1,1,35.21,14l0,.1a4.85,4.85,0,1,0,6.94-6.62Z"/><path class="cls-70" d="M42.18,7.47a4.85,4.85,0,1,1-6.94,6.62l0,.11a4.89,4.89,0,1,0,7-6.7Z"/><path class="cls-70" d="M42.28,7.5a4.89,4.89,0,1,1-7,6.7l0,.1a4.92,4.92,0,1,0,7.08-6.76Z"/><path class="cls-71" d="M42.38,7.54A4.92,4.92,0,1,1,35.3,14.3l0,.11a5,5,0,1,0,7.16-6.84Z"/><path class="cls-71" d="M42.49,7.57a5,5,0,1,1-7.16,6.84l0,.1a5,5,0,1,0,7.23-6.9Z"/><path class="cls-72" d="M42.59,7.61a5,5,0,1,1-7.23,6.9.42.42,0,0,1,0,.1,5,5,0,1,0,7.28-7Z"/><path class="cls-72" d="M42.68,7.65a5,5,0,1,1-7.28,7,.42.42,0,0,0,0,.1,5.08,5.08,0,1,0,7.34-7Z"/><path class="cls-72" d="M42.78,7.69a5.08,5.08,0,1,1-7.34,7,.42.42,0,0,0,0,.1,5.12,5.12,0,1,0,7.4-7.07Z"/><path class="cls-73" d="M42.88,7.74a5.12,5.12,0,1,1-7.4,7.07l0,.1A5.16,5.16,0,0,0,43,7.79Z"/><path class="cls-73" d="M43,7.79a5.16,5.16,0,0,1-7.46,7.12,1,1,0,0,1,0,.1,5.2,5.2,0,0,0,7.51-7.18Z"/><path class="cls-74" d="M43.07,7.83A5.2,5.2,0,0,1,35.56,15l0,.09a5.23,5.23,0,0,0,7.56-7.22Z"/><path class="cls-74" d="M43.17,7.88a5.23,5.23,0,0,1-7.56,7.22l0,.1a5.27,5.27,0,0,0,7.6-7.26Z"/><path class="cls-75" d="M43.26,7.94a5.2,5.2,0,0,1,1.23,3.37,5.27,5.27,0,0,1-8.83,3.89l.05.1A5.31,5.31,0,0,0,43.36,8Z"/><path class="cls-75" d="M43.36,8a5.31,5.31,0,0,1-7.65,7.31.41.41,0,0,0,0,.09,5.35,5.35,0,0,0,7.69-7.34Z"/><path class="cls-75" d="M43.45,8.05a5.28,5.28,0,0,1,1.11,3.26,5.34,5.34,0,0,1-8.8,4.08.31.31,0,0,1,.05.1,5.39,5.39,0,0,0,8.79-4.18,5.3,5.3,0,0,0-1.06-3.2Z"/><path class="cls-76" d="M43.54,8.11a5.3,5.3,0,0,1,1.06,3.2,5.39,5.39,0,0,1-8.79,4.18l.06.09a5.43,5.43,0,0,0,8.77-4.27,5.32,5.32,0,0,0-1-3.14Z"/><path class="cls-76" d="M43.63,8.17a5.32,5.32,0,0,1,1,3.14,5.43,5.43,0,0,1-8.77,4.27l.06.09a5.46,5.46,0,0,0,7.79-7.44Z"/><path class="cls-77" d="M43.72,8.23a5.46,5.46,0,0,1-7.79,7.44l.06.09a5.5,5.5,0,0,0,7.82-7.47Z"/><path class="cls-77" d="M43.81,8.29A5.5,5.5,0,0,1,36,15.76l.06.09A5.54,5.54,0,0,0,43.9,8.36Z"/><path class="cls-78" d="M43.9,8.36a5.53,5.53,0,0,1-7.85,7.49l.06.09A5.58,5.58,0,0,0,44,8.43Z"/><path class="cls-78" d="M44,8.43a5.57,5.57,0,0,1-7.88,7.51l.07.09a5.56,5.56,0,0,0,3,.89A5.6,5.6,0,0,0,44.07,8.5Z"/><path class="cls-79" d="M44.07,8.5A5.61,5.61,0,0,1,36.18,16l.07.09a5.65,5.65,0,0,0,7.91-7.55Z"/><path class="cls-79" d="M44.16,8.57a5.65,5.65,0,0,1-7.91,7.55l.07.09a5.69,5.69,0,0,0,7.92-7.57Z"/><path class="cls-79" d="M44.24,8.64a5.69,5.69,0,0,1-7.92,7.57l.07.08a5.64,5.64,0,0,0,2.83.75,5.73,5.73,0,0,0,5.72-5.73,5.66,5.66,0,0,0-.62-2.59Z"/><path class="cls-80" d="M44.32,8.72a5.66,5.66,0,0,1,.62,2.59A5.73,5.73,0,0,1,39.22,17a5.64,5.64,0,0,1-2.83-.75l.08.09A5.76,5.76,0,0,0,44.4,8.8.6.6,0,0,0,44.32,8.72Z"/><path class="cls-81" d="M44.4,8.8a5.76,5.76,0,0,1-7.93,7.58l.07.08a5.74,5.74,0,0,0,2.68.65,5.8,5.8,0,0,0,5.8-5.8,5.65,5.65,0,0,0-.54-2.43A.6.6,0,0,0,44.4,8.8Z"/><path class="cls-81" d="M44.48,8.88A5.65,5.65,0,0,1,45,11.31a5.8,5.8,0,0,1-5.8,5.8,5.74,5.74,0,0,1-2.68-.65l.08.09a5.92,5.92,0,0,0,2.6.6A5.83,5.83,0,0,0,44.56,9Z"/><path class="cls-81" d="M44.56,9a5.83,5.83,0,0,1-5.34,8.19,5.92,5.92,0,0,1-2.6-.6l.08.08a5.88,5.88,0,0,0,7.94-7.58Z"/><path class="cls-82" d="M44.64,9.05a5.88,5.88,0,0,1-7.94,7.58l.09.08a5.91,5.91,0,0,0,8.34-5.4,6.08,6.08,0,0,0-.41-2.18Z"/><path class="cls-82" d="M44.72,9.13a6.08,6.08,0,0,1,.41,2.18,5.91,5.91,0,0,1-8.34,5.4l.08.08a6.09,6.09,0,0,0,2.35.48,6,6,0,0,0,6-6,5.83,5.83,0,0,0-.38-2.09Z"/><path class="cls-82" d="M44.79,9.22a5.83,5.83,0,0,1,.38,2.09,6,6,0,0,1-6,6,6.09,6.09,0,0,1-2.35-.48l.09.07a5.87,5.87,0,0,0,2.26.44,6,6,0,0,0,6-6,5.8,5.8,0,0,0-.35-2Z"/><path class="cls-83" d="M44.86,9.31a5.8,5.8,0,0,1,.35,2,6,6,0,0,1-6,6A5.87,5.87,0,0,1,37,16.86l.09.08a6,6,0,0,0,7.89-7.53Z"/><path class="cls-84" d="M44.94,9.41a6,6,0,0,1-7.89,7.53l.09.08a6.23,6.23,0,0,0,2.08.36A6.09,6.09,0,0,0,45,9.5Z"/><path class="cls-84" d="M45,9.5a6.09,6.09,0,0,1-5.79,7.88A6.23,6.23,0,0,1,37.14,17l.1.07a6.1,6.1,0,0,0,8.08-5.78,6,6,0,0,0-.24-1.71A.36.36,0,0,1,45,9.5Z"/><path class="cls-84" d="M45.08,9.6a6,6,0,0,1,.24,1.71,6.1,6.1,0,0,1-8.08,5.78l.1.07a6.13,6.13,0,0,0,7.8-7.46Z"/><path class="cls-85" d="M45.14,9.7a6.08,6.08,0,0,1,.22,1.61,6.15,6.15,0,0,1-8,5.85l.1.07a6.19,6.19,0,0,0,8-5.92,6.31,6.31,0,0,0-.19-1.51Z"/><path class="cls-85" d="M45.21,9.8a6.31,6.31,0,0,1,.19,1.51,6.19,6.19,0,0,1-8,5.92l.1.07a6.14,6.14,0,0,0,1.68.23,6.21,6.21,0,0,0,6.21-6.22,6.46,6.46,0,0,0-.15-1.4A.41.41,0,0,1,45.21,9.8Z"/><path class="cls-86" d="M45.28,9.91a6.46,6.46,0,0,1,.15,1.4,6.21,6.21,0,0,1-6.21,6.22,6.14,6.14,0,0,1-1.68-.23l.11.07A6.27,6.27,0,0,0,45.34,10Z"/><path class="cls-86" d="M45.34,10a6.14,6.14,0,0,1,.13,1.29,6.25,6.25,0,0,1-7.82,6.06l.1.07a6.43,6.43,0,0,0,1.47.17,6.3,6.3,0,0,0,6.29-6.3,6.56,6.56,0,0,0-.11-1.18Z"/><path class="cls-86" d="M45.4,10.13a6.56,6.56,0,0,1,.11,1.18,6.3,6.3,0,0,1-6.29,6.3,6.43,6.43,0,0,1-1.47-.17l.11.06a6.75,6.75,0,0,0,1.36.14,6.34,6.34,0,0,0,6.24-7.4Z"/><path class="cls-87" d="M45.46,10.24a6.34,6.34,0,0,1-6.24,7.4,6.75,6.75,0,0,1-1.36-.14l.12.06a6.28,6.28,0,0,0,1.24.12,6.37,6.37,0,0,0,6.37-6.37,7.45,7.45,0,0,0-.07-1Z"/><path class="cls-88" d="M45.52,10.36a7.45,7.45,0,0,1,.07,1,6.37,6.37,0,0,1-6.37,6.37A6.28,6.28,0,0,1,38,17.56l.12.06a5.83,5.83,0,0,0,1.12.1,6.41,6.41,0,0,0,6.4-6.41,5.69,5.69,0,0,0,0-.83A.61.61,0,0,1,45.52,10.36Z"/><path class="cls-88" d="M45.57,10.48a5.69,5.69,0,0,1,0,.83,6.41,6.41,0,0,1-6.4,6.41,5.83,5.83,0,0,1-1.12-.1l.11.06a6.77,6.77,0,0,0,1,.08,6.44,6.44,0,0,0,6.44-6.45,5.63,5.63,0,0,0,0-.71A.61.61,0,0,0,45.57,10.48Z"/><path class="cls-88" d="M45.62,10.6a5.63,5.63,0,0,1,0,.71,6.44,6.44,0,0,1-6.44,6.45,6.77,6.77,0,0,1-1-.08l.13.06a6.29,6.29,0,0,0,.88.06,6.49,6.49,0,0,0,6.48-6.49,5.49,5.49,0,0,0,0-.58A.69.69,0,0,0,45.62,10.6Z"/><path class="cls-89" d="M45.67,10.73a5.49,5.49,0,0,1,0,.58,6.49,6.49,0,0,1-6.48,6.49,6.29,6.29,0,0,1-.88-.06l.12.05a6.34,6.34,0,0,0,.76,0,6.52,6.52,0,0,0,6.52-6.52c0-.15,0-.3,0-.45A.5.5,0,0,0,45.67,10.73Z"/><path class="cls-89" d="M45.72,10.86c0,.15,0,.3,0,.45a6.52,6.52,0,0,1-6.52,6.52,6.34,6.34,0,0,1-.76,0l.14.05c.2,0,.41,0,.62,0a6.56,6.56,0,0,0,6.56-6.56c0-.11,0-.21,0-.32S45.74,10.9,45.72,10.86Z"/><path class="cls-90" d="M45.77,11c0,.11,0,.21,0,.32a6.56,6.56,0,0,1-6.56,6.56c-.21,0-.42,0-.62,0l.13.05.49,0a6.59,6.59,0,0,0,6.59-6.6v-.18C45.8,11.08,45.78,11,45.77,11Z"/><path class="cls-90" d="M45.81,11.13v.18a6.59,6.59,0,0,1-6.59,6.6l-.49,0,.14.05h.35a6.63,6.63,0,0,0,6.63-6.64v0A.74.74,0,0,0,45.81,11.13Z"/><path class="cls-91" d="M45.85,11.27v0A6.63,6.63,0,0,1,39.22,18h-.35L39,18h.21a6.68,6.68,0,0,0,6.67-6.58S45.86,11.32,45.85,11.27Z"/><path class="cls-91" d="M45.89,11.41A6.68,6.68,0,0,1,39.22,18H39l.15,0h.06a6.71,6.71,0,0,0,6.7-6.46Z"/><path class="cls-91" d="M45.92,11.56A6.71,6.71,0,0,1,39.22,18h-.06l.15,0A6.74,6.74,0,0,0,46,11.72Z"/><path class="cls-91" d="M46,11.72a6.74,6.74,0,0,1-6.64,6.34l.16,0A6.78,6.78,0,0,0,46,11.88Z"/><path class="cls-91" d="M46,11.88a6.78,6.78,0,0,1-6.51,6.21.45.45,0,0,0,.16,0A6.83,6.83,0,0,0,46,12,.88.88,0,0,0,46,11.88Z"/><path class="cls-91" d="M46,12a6.83,6.83,0,0,1-6.37,6.08l.17,0A6.86,6.86,0,0,0,46,12.21,1.11,1.11,0,0,0,46,12Z"/><path class="cls-91" d="M46,12.21a6.86,6.86,0,0,1-6.22,5.94l.17,0A6.91,6.91,0,0,0,46,12.39,1.09,1.09,0,0,0,46,12.21Z"/><path class="cls-91" d="M46,12.39A6.91,6.91,0,0,1,40,18.17l.19,0A6.94,6.94,0,0,0,46,12.57,1.09,1.09,0,0,0,46,12.39Z"/><path class="cls-91" d="M46,12.57a6.94,6.94,0,0,1-5.88,5.62h.19A7,7,0,0,0,46,12.76v-.19Z"/><path class="cls-91" d="M46,12.76a7,7,0,0,1-5.69,5.44h.19A7,7,0,0,0,46,13Z"/><path class="cls-91" d="M46,13a7,7,0,0,1-5.5,5.25h.21a7.08,7.08,0,0,0,5.28-5C46,13.08,46,13,46,13Z"/><path class="cls-91" d="M46,13.15a7.08,7.08,0,0,1-5.28,5H41a7.13,7.13,0,0,0,5-4.83A1.49,1.49,0,0,1,46,13.15Z"/><path class="cls-91" d="M46,13.36a7.13,7.13,0,0,1-5,4.83l.23,0A7.11,7.11,0,0,0,46,13.58,1.43,1.43,0,0,0,46,13.36Z"/><path class="cls-91" d="M46,13.58a7.11,7.11,0,0,1-4.78,4.58l.23,0a7.17,7.17,0,0,0,4.51-4.32A1.57,1.57,0,0,0,46,13.58Z"/><path class="cls-91" d="M45.93,13.81a7.17,7.17,0,0,1-4.51,4.32l.25,0a7.24,7.24,0,0,0,4.21-4A1.84,1.84,0,0,0,45.93,13.81Z"/><path class="cls-91" d="M45.88,14.06a7.24,7.24,0,0,1-4.21,4l.27-.06a7.26,7.26,0,0,0,3.86-3.71A2,2,0,0,0,45.88,14.06Z"/><path class="cls-91" d="M45.8,14.32A7.26,7.26,0,0,1,41.94,18l.29-.09a7.3,7.3,0,0,0,3.48-3.33Z"/><path class="cls-91" d="M45.71,14.61a7.3,7.3,0,0,1-3.48,3.33c.11,0,.22-.07.33-.12a7.37,7.37,0,0,0,3-2.89C45.62,14.83,45.67,14.72,45.71,14.61Z"/><path class="cls-91" d="M45.58,14.93a7.37,7.37,0,0,1-3,2.89l.37-.16A7.34,7.34,0,0,0,45.4,15.3Z"/><path class="cls-91" d="M45.4,15.3a7.34,7.34,0,0,1-2.47,2.36,5.42,5.42,0,0,0,.48-.26,7.31,7.31,0,0,0,1.7-1.63A4.57,4.57,0,0,0,45.4,15.3Z"/><path class="cls-91" d="M45.11,15.77a7.31,7.31,0,0,1-1.7,1.63A5.4,5.4,0,0,0,45.11,15.77Z"/><path class="cls-92" d="M39.38,11.39h0a0,0,0,0,0,.08,0s0,0,0,0,0,0,0,0Z"/><path class="cls-93" d="M39.34,11.39s0,0,0,0,0,0,0,0a0,0,0,0,1-.08,0h0a.09.09,0,0,0,.08.08.08.08,0,0,0,.07-.08.07.07,0,0,0-.07-.07.08.08,0,0,0-.08.07Z"/><path class="cls-94" d="M39.3,11.39a.08.08,0,0,1,.08-.07.07.07,0,0,1,.07.07.08.08,0,0,1-.07.08.09.09,0,0,1-.08-.08h0a.11.11,0,1,0,.22,0,.11.11,0,1,0-.22,0Z"/><path class="cls-95" d="M39.27,11.39a.11.11,0,1,1,.22,0,.11.11,0,1,1-.22,0h0a.15.15,0,0,0,.3,0,.15.15,0,0,0-.3,0Z"/><path class="cls-96" d="M39.23,11.39a.15.15,0,0,1,.3,0,.15.15,0,0,1-.3,0h0a.19.19,0,0,0,.19.19.18.18,0,0,0,.18-.19.18.18,0,0,0-.18-.18.19.19,0,0,0-.19.18Z"/><path class="cls-97" d="M39.19,11.39a.19.19,0,0,1,.19-.18.18.18,0,0,1,.18.18.18.18,0,0,1-.18.19.19.19,0,0,1-.19-.19h0a.23.23,0,1,0,.45,0,.22.22,0,0,0-.22-.22.22.22,0,0,0-.23.22Z"/><path class="cls-98" d="M39.15,11.39a.22.22,0,0,1,.23-.22.22.22,0,0,1,.22.22.23.23,0,1,1-.45,0h0a.25.25,0,0,0,.26.26.26.26,0,0,0,.26-.26.26.26,0,0,0-.26-.26.26.26,0,0,0-.26.26Z"/><path class="cls-99" d="M39.12,11.39a.26.26,0,0,1,.26-.26.26.26,0,0,1,.26.26.26.26,0,0,1-.26.26.25.25,0,0,1-.26-.26h0a.29.29,0,0,0,.3.3.3.3,0,0,0,.3-.3.31.31,0,0,0-.3-.3.3.3,0,0,0-.3.3Z"/><path class="cls-99" d="M39.08,11.39a.3.3,0,0,1,.3-.3.31.31,0,0,1,.3.3.3.3,0,0,1-.3.3.29.29,0,0,1-.3-.3h0a.34.34,0,1,0,.67,0,.34.34,0,0,0-.67,0Z"/><path class="cls-100" d="M39,11.39a.34.34,0,1,1,.34.34.34.34,0,0,1-.34-.34h0a.37.37,0,0,0,.37.38.38.38,0,0,0,0-.75.37.37,0,0,0-.37.37Z"/><path class="cls-101" d="M39,11.39a.37.37,0,0,1,.37-.37.38.38,0,0,1,0,.75.37.37,0,0,1-.37-.38h0a.41.41,0,1,0,.82,0,.41.41,0,1,0-.82,0Z"/><path class="cls-102" d="M39,11.39a.41.41,0,1,1,.82,0,.41.41,0,1,1-.82,0h0a.45.45,0,1,0,.45-.44.45.45,0,0,0-.45.44Z"/><path class="cls-103" d="M38.93,11.39a.45.45,0,1,1,.45.45.45.45,0,0,1-.45-.45h0a.49.49,0,0,0,.49.49.49.49,0,0,0,0-1,.49.49,0,0,0-.49.48Z"/><path class="cls-104" d="M38.89,11.39a.49.49,0,0,1,.49-.48.49.49,0,0,1,0,1,.49.49,0,0,1-.49-.49h0a.52.52,0,1,0,1,0,.52.52,0,1,0-1,0Z"/><path class="cls-104" d="M38.86,11.39a.52.52,0,1,1,1,0,.52.52,0,1,1-1,0h0a.56.56,0,1,0,.56-.56.56.56,0,0,0-.56.56Z"/><path class="cls-105" d="M38.82,11.39a.56.56,0,1,1,.56.56.56.56,0,0,1-.56-.56h0a.6.6,0,1,0,1.2,0,.6.6,0,0,0-1.2,0Z"/><path class="cls-106" d="M38.78,11.39a.6.6,0,0,1,1.2,0,.6.6,0,1,1-1.2,0h0a.64.64,0,0,0,.64.64.64.64,0,0,0,.63-.64.63.63,0,0,0-.63-.63.64.64,0,0,0-.64.63Z"/><path class="cls-107" d="M38.74,11.39a.64.64,0,0,1,.64-.63.63.63,0,0,1,.63.63.64.64,0,0,1-.63.64.64.64,0,0,1-.64-.64h0a.67.67,0,1,0,.67-.67.67.67,0,0,0-.67.67Z"/><path class="cls-107" d="M38.71,11.39a.67.67,0,1,1,.67.67.67.67,0,0,1-.67-.67h0a.71.71,0,1,0,.71-.71.71.71,0,0,0-.71.71Z"/><path class="cls-108" d="M38.67,11.39a.71.71,0,1,1,.71.71.71.71,0,0,1-.71-.71h0a.75.75,0,0,0,.75.75.75.75,0,1,0-.75-.75Z"/><path class="cls-108" d="M38.63,11.39a.75.75,0,0,1,.75-.74.75.75,0,0,1,0,1.49.75.75,0,0,1-.75-.75h0a.78.78,0,1,0,.78-.78.78.78,0,0,0-.78.78Z"/><path class="cls-109" d="M38.6,11.39a.78.78,0,1,1,.78.79.78.78,0,0,1-.78-.79h0a.82.82,0,1,0,.82-.82.82.82,0,0,0-.82.82Z"/><path class="cls-109" d="M38.56,11.39a.82.82,0,1,1,.82.82.82.82,0,0,1-.82-.82h0a.86.86,0,1,0,.86-.85.85.85,0,0,0-.86.85Z"/><path class="cls-110" d="M38.52,11.39a.86.86,0,1,1,.86.86.85.85,0,0,1-.86-.86h0a.9.9,0,1,0,.9-.89.9.9,0,0,0-.9.89Z"/><path class="cls-110" d="M38.48,11.39a.9.9,0,1,1,.9.9.89.89,0,0,1-.9-.9h0a.93.93,0,1,0,.93-.93.93.93,0,0,0-.93.93Z"/><path class="cls-111" d="M38.45,11.39a.93.93,0,1,1,.93.94.93.93,0,0,1-.93-.94h0a1,1,0,0,0,1.94,0,1,1,0,0,0-1.94,0Z"/><path class="cls-112" d="M38.41,11.39a1,1,0,1,1,1,1,1,1,0,0,1-1-1h0a1,1,0,1,0,1-1,1,1,0,0,0-1,1Z"/><path class="cls-112" d="M38.37,11.39a1,1,0,1,1,1,1,1,1,0,0,1-1-1h0a1,1,0,1,0,2.09,0,1,1,0,0,0-2.09,0Z"/><path class="cls-112" d="M38.33,11.39a1,1,0,1,1,1.05,1,1,1,0,0,1-1.05-1h0a1.08,1.08,0,1,0,1.08-1.08,1.08,1.08,0,0,0-1.08,1.08Z"/><path class="cls-113" d="M38.3,11.39a1.08,1.08,0,1,1,1.08,1.09,1.08,1.08,0,0,1-1.08-1.09h0a1.12,1.12,0,1,0,1.12-1.12,1.12,1.12,0,0,0-1.12,1.12Z"/><path class="cls-113" d="M38.26,11.39a1.12,1.12,0,1,1,1.12,1.12,1.12,1.12,0,0,1-1.12-1.12h0a1.16,1.16,0,1,0,1.16-1.15,1.16,1.16,0,0,0-1.16,1.15Z"/><path class="cls-114" d="M38.22,11.39a1.16,1.16,0,1,1,1.16,1.16,1.15,1.15,0,0,1-1.16-1.16h0a1.2,1.2,0,1,0,2.39,0,1.2,1.2,0,0,0-2.39,0Z"/><path class="cls-114" d="M38.18,11.39a1.2,1.2,0,1,1,1.2,1.2,1.19,1.19,0,0,1-1.2-1.2h0a1.23,1.23,0,1,0,1.23-1.23,1.23,1.23,0,0,0-1.23,1.23Z"/><path class="cls-114" d="M38.15,11.39a1.23,1.23,0,1,1,1.23,1.23,1.23,1.23,0,0,1-1.23-1.23h0a1.27,1.27,0,1,0,1.27-1.27,1.27,1.27,0,0,0-1.27,1.27Z"/><path class="cls-115" d="M38.11,11.39a1.27,1.27,0,1,1,1.27,1.27,1.27,1.27,0,0,1-1.27-1.27h0a1.31,1.31,0,1,0,2.61,0,1.31,1.31,0,0,0-2.61,0Z"/><path class="cls-115" d="M38.07,11.39a1.31,1.31,0,1,1,1.31,1.31,1.31,1.31,0,0,1-1.31-1.31h0a1.34,1.34,0,1,0,1.34-1.34A1.34,1.34,0,0,0,38,11.39Z"/><path class="cls-115" d="M38,11.39a1.34,1.34,0,1,1,1.34,1.35A1.34,1.34,0,0,1,38,11.39h0A1.38,1.38,0,1,0,39.38,10,1.38,1.38,0,0,0,38,11.39Z"/><path class="cls-116" d="M38,11.39a1.38,1.38,0,1,1,1.38,1.38A1.38,1.38,0,0,1,38,11.39h0A1.42,1.42,0,1,0,39.38,10,1.42,1.42,0,0,0,38,11.39Z"/><path class="cls-116" d="M38,11.39a1.42,1.42,0,1,1,1.42,1.42A1.42,1.42,0,0,1,38,11.39h0a1.46,1.46,0,1,0,1.46-1.45,1.46,1.46,0,0,0-1.46,1.45Z"/><path class="cls-116" d="M37.92,11.39a1.46,1.46,0,1,1,1.46,1.46,1.45,1.45,0,0,1-1.46-1.46h0A1.49,1.49,0,1,0,39.38,9.9a1.49,1.49,0,0,0-1.49,1.49Z"/><path class="cls-116" d="M37.89,11.39a1.49,1.49,0,1,1,1.49,1.5,1.49,1.49,0,0,1-1.49-1.5h0a1.53,1.53,0,1,0,1.53-1.53,1.52,1.52,0,0,0-1.53,1.53Z"/><path class="cls-116" d="M37.85,11.39a1.53,1.53,0,1,1,1.53,1.53,1.53,1.53,0,0,1-1.53-1.53h0a1.57,1.57,0,1,0,1.57-1.56,1.57,1.57,0,0,0-1.57,1.56Z"/><path class="cls-117" d="M37.81,11.39A1.57,1.57,0,1,1,39.38,13a1.56,1.56,0,0,1-1.57-1.57h0a1.61,1.61,0,1,0,1.61-1.6,1.61,1.61,0,0,0-1.61,1.6Z"/><path class="cls-117" d="M37.77,11.39A1.61,1.61,0,1,1,39.38,13a1.61,1.61,0,0,1-1.61-1.61h0a1.64,1.64,0,1,0,1.64-1.64,1.64,1.64,0,0,0-1.64,1.64Z"/><path class="cls-117" d="M37.74,11.39A1.64,1.64,0,1,1,39.38,13a1.64,1.64,0,0,1-1.64-1.65h0a1.68,1.68,0,1,0,1.68-1.68,1.68,1.68,0,0,0-1.68,1.68Z"/><path class="cls-117" d="M37.7,11.39a1.68,1.68,0,1,1,1.68,1.68,1.68,1.68,0,0,1-1.68-1.68h0a1.72,1.72,0,1,0,1.72-1.71,1.72,1.72,0,0,0-1.72,1.71Z"/><path class="cls-117" d="M37.66,11.39a1.72,1.72,0,1,1,1.72,1.72,1.72,1.72,0,0,1-1.72-1.72h0a1.76,1.76,0,1,0,1.76-1.75,1.76,1.76,0,0,0-1.76,1.75Z"/><path class="cls-117" d="M37.62,11.39a1.76,1.76,0,1,1,1.76,1.76,1.75,1.75,0,0,1-1.76-1.76h0A1.79,1.79,0,1,0,39.38,9.6a1.79,1.79,0,0,0-1.79,1.79Z"/><path class="cls-117" d="M37.59,11.39a1.79,1.79,0,1,1,1.79,1.79,1.79,1.79,0,0,1-1.79-1.79h0a1.83,1.83,0,1,0,1.83-1.82,1.83,1.83,0,0,0-1.83,1.82Z"/><path class="cls-117" d="M37.55,11.39a1.83,1.83,0,1,1,1.83,1.83,1.82,1.82,0,0,1-1.83-1.83h0a1.87,1.87,0,1,0,1.87-1.86,1.87,1.87,0,0,0-1.87,1.86Z"/><path class="cls-117" d="M37.51,11.39a1.87,1.87,0,1,1,1.87,1.87,1.87,1.87,0,0,1-1.87-1.87h0a1.9,1.9,0,1,0,1.9-1.9,1.91,1.91,0,0,0-1.9,1.9Z"/><path class="cls-117" d="M37.48,11.39a1.9,1.9,0,1,1,1.9,1.91,1.9,1.9,0,0,1-1.9-1.91h0a1.94,1.94,0,1,0,1.94-1.94,1.94,1.94,0,0,0-1.94,1.94Z"/><path class="cls-117" d="M37.44,11.39a1.94,1.94,0,1,1,1.94,1.94,1.94,1.94,0,0,1-1.94-1.94h0a2,2,0,1,0,2-2,2,2,0,0,0-2,2Z"/><path class="cls-117" d="M37.4,11.39a2,2,0,1,1,2,2,2,2,0,0,1-2-2h0a2,2,0,1,0,2-2,2,2,0,0,0-2,2Z"/><path class="cls-117" d="M37.36,11.39a2,2,0,1,1,2,2,2,2,0,0,1-2-2h0a2,2,0,1,0,2.05-2.05,2,2,0,0,0-2.05,2.05Z"/><path class="cls-117" d="M37.33,11.39a2.05,2.05,0,1,1,2.05,2.06,2,2,0,0,1-2.05-2.06h0A2.09,2.09,0,1,0,39.38,9.3a2.08,2.08,0,0,0-2.09,2.09Z"/><path class="cls-117" d="M37.29,11.39a2.09,2.09,0,1,1,2.09,2.09,2.09,2.09,0,0,1-2.09-2.09h0a2.13,2.13,0,1,0,2.13-2.12,2.13,2.13,0,0,0-2.13,2.12Z"/><path class="cls-117" d="M37.25,11.39a2.13,2.13,0,1,1,2.13,2.13,2.12,2.12,0,0,1-2.13-2.13h0a2.17,2.17,0,1,0,2.17-2.16,2.17,2.17,0,0,0-2.17,2.16Z"/><path class="cls-117" d="M37.21,11.39a2.17,2.17,0,1,1,2.17,2.17,2.17,2.17,0,0,1-2.17-2.17h0a2.2,2.2,0,1,0,2.2-2.2,2.19,2.19,0,0,0-2.2,2.2Z"/><path class="cls-116" d="M37.18,11.39a2.2,2.2,0,1,1,2.2,2.2,2.2,2.2,0,0,1-2.2-2.2h0a2.24,2.24,0,1,0,2.24-2.24,2.24,2.24,0,0,0-2.24,2.24Z"/><path class="cls-116" d="M37.14,11.39a2.24,2.24,0,1,1,2.24,2.24,2.24,2.24,0,0,1-2.24-2.24h0a2.28,2.28,0,1,0,2.28-2.27,2.28,2.28,0,0,0-2.28,2.27Z"/><path class="cls-116" d="M37.1,11.39a2.28,2.28,0,1,1,2.28,2.28,2.28,2.28,0,0,1-2.28-2.28h0a2.31,2.31,0,1,0,2.31-2.31,2.31,2.31,0,0,0-2.31,2.31Z"/><path class="cls-116" d="M37.07,11.39a2.31,2.31,0,1,1,2.31,2.32,2.31,2.31,0,0,1-2.31-2.32h0A2.35,2.35,0,1,0,39.38,9,2.35,2.35,0,0,0,37,11.39Z"/><path class="cls-116" d="M37,11.39a2.35,2.35,0,1,1,2.35,2.35A2.35,2.35,0,0,1,37,11.39h0A2.39,2.39,0,1,0,39.38,9,2.39,2.39,0,0,0,37,11.39Z"/><path class="cls-115" d="M37,11.39a2.39,2.39,0,1,1,2.39,2.39A2.38,2.38,0,0,1,37,11.39h0A2.43,2.43,0,1,0,39.38,9,2.43,2.43,0,0,0,37,11.39Z"/><path class="cls-115" d="M37,11.39a2.43,2.43,0,1,1,2.43,2.43A2.42,2.42,0,0,1,37,11.39h0a2.46,2.46,0,1,0,2.46-2.46,2.47,2.47,0,0,0-2.46,2.46Z"/><path class="cls-115" d="M36.92,11.39a2.46,2.46,0,1,1,2.46,2.47,2.46,2.46,0,0,1-2.46-2.47h0a2.5,2.5,0,1,0,2.5-2.5,2.5,2.5,0,0,0-2.5,2.5Z"/><path class="cls-114" d="M36.88,11.39a2.5,2.5,0,1,1,2.5,2.5,2.5,2.5,0,0,1-2.5-2.5h0a2.54,2.54,0,1,0,2.54-2.53,2.54,2.54,0,0,0-2.54,2.53Z"/><path class="cls-114" d="M36.84,11.39a2.54,2.54,0,1,1,2.54,2.54,2.54,2.54,0,0,1-2.54-2.54h0a2.58,2.58,0,1,0,2.58-2.57,2.59,2.59,0,0,0-2.58,2.57Z"/><path class="cls-114" d="M36.8,11.39A2.58,2.58,0,1,1,39.38,14a2.58,2.58,0,0,1-2.58-2.58h0a2.61,2.61,0,1,0,2.61-2.61,2.61,2.61,0,0,0-2.61,2.61Z"/><path class="cls-113" d="M36.77,11.39A2.61,2.61,0,1,1,39.38,14a2.61,2.61,0,0,1-2.61-2.62h0a2.65,2.65,0,1,0,2.65-2.65,2.65,2.65,0,0,0-2.65,2.65Z"/><path class="cls-113" d="M36.73,11.39A2.65,2.65,0,1,1,39.38,14a2.65,2.65,0,0,1-2.65-2.65h0a2.69,2.69,0,1,0,2.69-2.68,2.68,2.68,0,0,0-2.69,2.68Z"/><path class="cls-112" d="M36.69,11.39a2.69,2.69,0,1,1,2.69,2.69,2.68,2.68,0,0,1-2.69-2.69h0a2.73,2.73,0,1,0,2.73-2.72,2.73,2.73,0,0,0-2.73,2.72Z"/><path class="cls-112" d="M36.65,11.39a2.73,2.73,0,1,1,2.73,2.73,2.72,2.72,0,0,1-2.73-2.73h0a2.76,2.76,0,1,0,2.76-2.76,2.75,2.75,0,0,0-2.76,2.76Z"/><path class="cls-111" d="M36.62,11.39a2.76,2.76,0,1,1,2.76,2.76,2.76,2.76,0,0,1-2.76-2.76h0a2.8,2.8,0,1,0,2.8-2.8,2.8,2.8,0,0,0-2.8,2.8Z"/><path class="cls-111" d="M36.58,11.39a2.8,2.8,0,1,1,2.8,2.8,2.8,2.8,0,0,1-2.8-2.8h0a2.84,2.84,0,1,0,2.84-2.83,2.84,2.84,0,0,0-2.84,2.83Z"/><path class="cls-110" d="M36.54,11.39a2.84,2.84,0,1,1,2.84,2.84,2.84,2.84,0,0,1-2.84-2.84h0a2.87,2.87,0,1,0,2.87-2.87,2.87,2.87,0,0,0-2.87,2.87Z"/><path class="cls-110" d="M36.51,11.39a2.87,2.87,0,1,1,2.87,2.88,2.87,2.87,0,0,1-2.87-2.88h0a2.91,2.91,0,1,0,2.91-2.91,2.91,2.91,0,0,0-2.91,2.91Z"/><path class="cls-109" d="M36.47,11.39a2.91,2.91,0,1,1,2.91,2.91,2.91,2.91,0,0,1-2.91-2.91h0a3,3,0,1,0,3-2.94,2.95,2.95,0,0,0-3,2.94Z"/><path class="cls-109" d="M36.43,11.39a2.95,2.95,0,1,1,3,2.95,2.95,2.95,0,0,1-3-2.95h0a3,3,0,1,0,3-3,3,3,0,0,0-3,3Z"/><path class="cls-108" d="M36.39,11.39a3,3,0,1,1,3,3,3,3,0,0,1-3-3h0a3,3,0,1,0,3-3,3,3,0,0,0-3,3Z"/><path class="cls-108" d="M36.36,11.39a3,3,0,1,1,3,3,3,3,0,0,1-3-3h0a3.06,3.06,0,1,0,3.06-3.06,3.06,3.06,0,0,0-3.06,3.06Z"/><path class="cls-107" d="M36.32,11.39a3.06,3.06,0,1,1,3.06,3.06,3.06,3.06,0,0,1-3.06-3.06h0a3.1,3.1,0,1,0,3.1-3.09,3.1,3.1,0,0,0-3.1,3.09Z"/><path class="cls-107" d="M36.28,11.39a3.1,3.1,0,1,1,3.1,3.1,3.09,3.09,0,0,1-3.1-3.1h0a3.14,3.14,0,1,0,3.14-3.13,3.15,3.15,0,0,0-3.14,3.13Z"/><path class="cls-106" d="M36.24,11.39a3.14,3.14,0,1,1,3.14,3.14,3.14,3.14,0,0,1-3.14-3.14h0a3.17,3.17,0,1,0,3.17-3.17,3.17,3.17,0,0,0-3.17,3.17Z"/><path class="cls-105" d="M36.21,11.39a3.17,3.17,0,1,1,3.17,3.17,3.17,3.17,0,0,1-3.17-3.17h0a3.21,3.21,0,1,0,3.21-3.21,3.21,3.21,0,0,0-3.21,3.21Z"/><path class="cls-104" d="M36.17,11.39a3.21,3.21,0,1,1,3.21,3.21,3.21,3.21,0,0,1-3.21-3.21h0a3.25,3.25,0,1,0,3.25-3.24,3.25,3.25,0,0,0-3.25,3.24Z"/><path class="cls-103" d="M36.13,11.39a3.25,3.25,0,1,1,3.25,3.25,3.25,3.25,0,0,1-3.25-3.25h0a3.29,3.29,0,1,0,3.29-3.28,3.29,3.29,0,0,0-3.29,3.28Z"/><path class="cls-103" d="M36.09,11.39a3.29,3.29,0,1,1,3.29,3.29,3.28,3.28,0,0,1-3.29-3.29h0a3.32,3.32,0,1,0,3.32-3.32,3.31,3.31,0,0,0-3.32,3.32Z"/><path class="cls-102" d="M36.06,11.39a3.32,3.32,0,1,1,3.32,3.32,3.32,3.32,0,0,1-3.32-3.32h0A3.36,3.36,0,1,0,39.38,8,3.35,3.35,0,0,0,36,11.39Z"/><path class="cls-101" d="M36,11.39a3.36,3.36,0,1,1,3.36,3.36A3.35,3.35,0,0,1,36,11.39h0A3.4,3.4,0,1,0,39.38,8,3.4,3.4,0,0,0,36,11.39Z"/><path class="cls-100" d="M36,11.39a3.4,3.4,0,1,1,3.4,3.4,3.4,3.4,0,0,1-3.4-3.4h0A3.43,3.43,0,1,0,39.38,8,3.43,3.43,0,0,0,36,11.39Z"/><path class="cls-99" d="M36,11.39a3.43,3.43,0,1,1,3.43,3.44A3.43,3.43,0,0,1,36,11.39h0a3.47,3.47,0,1,0,3.47-3.47,3.47,3.47,0,0,0-3.47,3.47Z"/><path class="cls-99" d="M35.91,11.39a3.47,3.47,0,1,1,3.47,3.47,3.47,3.47,0,0,1-3.47-3.47h0a3.51,3.51,0,1,0,3.51-3.5,3.51,3.51,0,0,0-3.51,3.5Z"/><path class="cls-97" d="M35.87,11.39a3.51,3.51,0,1,1,3.51,3.51,3.51,3.51,0,0,1-3.51-3.51h0a3.55,3.55,0,1,0,3.55-3.54,3.55,3.55,0,0,0-3.55,3.54Z"/><path class="cls-97" d="M35.83,11.39a3.55,3.55,0,1,1,3.55,3.55,3.55,3.55,0,0,1-3.55-3.55h0a3.58,3.58,0,1,0,3.58-3.58,3.58,3.58,0,0,0-3.58,3.58Z"/><path class="cls-96" d="M35.8,11.39A3.58,3.58,0,1,1,39.38,15a3.58,3.58,0,0,1-3.58-3.59h0a3.62,3.62,0,1,0,3.62-3.62,3.62,3.62,0,0,0-3.62,3.62Z"/><path class="cls-95" d="M35.76,11.39A3.62,3.62,0,1,1,39.38,15a3.62,3.62,0,0,1-3.62-3.62h0a3.66,3.66,0,1,0,3.66-3.65,3.66,3.66,0,0,0-3.66,3.65Z"/><path class="cls-94" d="M35.72,11.39a3.66,3.66,0,1,1,3.66,3.66,3.65,3.65,0,0,1-3.66-3.66h0a3.7,3.7,0,1,0,3.7-3.69,3.7,3.7,0,0,0-3.7,3.69Z"/><path class="cls-93" d="M35.68,11.39a3.7,3.7,0,1,1,3.7,3.7,3.7,3.7,0,0,1-3.7-3.7h0a3.73,3.73,0,1,0,1.57-3,5.41,5.41,0,0,0-.62.55,3.72,3.72,0,0,0-1,2.49Z"/><path class="cls-92" d="M35.65,11.39a3.72,3.72,0,0,1,1-2.49c-.14.15-.27.3-.4.46a3.82,3.82,0,0,0-.59,2Zm1.57-3a4.39,4.39,0,0,1,.5-.34,3.69,3.69,0,0,1,1.66-.39,3.77,3.77,0,1,1-3.77,3.77h0a3.73,3.73,0,1,0,1.57-3Z"/><path class="cls-93" d="M35.61,11.39a3.76,3.76,0,0,1,.59-2L36,9.66a3.75,3.75,0,0,0-.42,1.73ZM37.72,8,38,7.83a3.75,3.75,0,0,1,1.34-.24,3.81,3.81,0,1,1-3.81,3.8h0a3.77,3.77,0,1,0,3.77-3.77A3.69,3.69,0,0,0,37.72,8Z"/><path class="cls-94" d="M35.57,11.39A3.75,3.75,0,0,1,36,9.66c-.06.08-.11.17-.16.25a3.87,3.87,0,0,0-.29,1.48ZM38,7.83l.26-.13a3.85,3.85,0,1,1-2.76,3.69h0a3.81,3.81,0,1,0,3.81-3.8A3.75,3.75,0,0,0,38,7.83Z"/><path class="cls-95" d="M35.54,11.39a3.87,3.87,0,0,1,.29-1.48l-.12.22a3.74,3.74,0,0,0-.21,1.26ZM38.3,7.7l.23-.09a3.41,3.41,0,0,1,.85-.1,3.88,3.88,0,1,1-3.88,3.88h0A3.82,3.82,0,1,0,38.3,7.7Z"/><path class="cls-96" d="M35.5,11.39a3.74,3.74,0,0,1,.21-1.26,1.24,1.24,0,0,0-.1.2,3.72,3.72,0,0,0-.15,1.06Zm3-3.78.21-.08a3.39,3.39,0,0,1,.64,0,3.92,3.92,0,1,1-3.92,3.91h0a3.88,3.88,0,1,0,3.88-3.88A3.41,3.41,0,0,0,38.53,7.61Z"/><path class="cls-97" d="M35.46,11.39a3.72,3.72,0,0,1,.15-1.06l-.09.19a4.14,4.14,0,0,0-.1.87Zm3.28-3.86.2-.07.44,0a4,4,0,1,1-4,4h0a3.92,3.92,0,1,0,3.92-3.91A3.39,3.39,0,0,0,38.74,7.53Z"/><path class="cls-98" d="M35.42,11.39a4.14,4.14,0,0,1,.1-.87c0,.06-.05.11-.07.17a4,4,0,0,0-.06.7Zm3.52-3.93.19,0h.25a4,4,0,1,1-4,4h0a4,4,0,1,0,4-3.95Z"/><path class="cls-99" d="M35.39,11.39a4,4,0,0,1,.06-.7c0,.06-.05.12-.07.17a4.71,4.71,0,0,0,0,.53Zm3.74-4,.17,0h.08a4,4,0,1,1-4,4h0a4,4,0,1,0,4-4Z"/><path class="cls-99" d="M35.35,11.39a4.71,4.71,0,0,1,0-.53l-.05.17c0,.12,0,.24,0,.36Zm3.95-4,.18,0a4.07,4.07,0,1,1-4.17,4.06h0a4,4,0,1,0,4-4Z"/><path class="cls-100" d="M35.31,11.39c0-.12,0-.24,0-.36a.75.75,0,0,0,0,.16c0,.07,0,.13,0,.2Zm4.17-4.06.16,0a4.1,4.1,0,1,1-4.37,4.09h0a4.07,4.07,0,1,0,4.17-4.06Z"/><path class="cls-101" d="M35.27,11.39c0-.07,0-.13,0-.2a.83.83,0,0,0,0,.15v.05ZM39.64,7.3l.16,0a4.15,4.15,0,1,1-4.56,4.12h0A4.11,4.11,0,1,0,39.64,7.3Z"/><path class="cls-102" d="M35.24,11.39v-.05l0,.05ZM39.8,7.27l.16,0a4.18,4.18,0,1,1-4.76,4.24.3.3,0,0,0,0-.1h0A4.14,4.14,0,1,0,39.8,7.27Z"/><path class="cls-103" d="M40,7.25a4.18,4.18,0,1,1-4.76,4.24l0,.15a4.22,4.22,0,1,0,4.94-4.4Z"/><path class="cls-103" d="M40.11,7.24a4.22,4.22,0,1,1-4.94,4.4l0,.14a4.25,4.25,0,1,0,5.12-4.55Z"/><path class="cls-104" d="M40.26,7.23a4.26,4.26,0,1,1-5.12,4.55c0,.05,0,.1,0,.15A4.29,4.29,0,1,0,40.4,7.22Z"/><path class="cls-105" d="M40.4,7.22a4.29,4.29,0,1,1-5.28,4.71s0,.09,0,.14a4.33,4.33,0,1,0,5.44-4.85Z"/><path class="cls-106" d="M40.54,7.22a4.33,4.33,0,1,1-5.44,4.85s0,.09,0,.13a4.36,4.36,0,1,0,5.59-5h-.14Z"/><path class="cls-106" d="M40.68,7.22a4.37,4.37,0,1,1-5.59,5,.66.66,0,0,0,0,.14,4.4,4.4,0,1,0,5.73-5.11Z"/><path class="cls-107" d="M40.81,7.23a4.4,4.4,0,1,1-5.73,5.11.53.53,0,0,0,0,.13,4.44,4.44,0,1,0,5.87-5.23Z"/><path class="cls-107" d="M40.94,7.24a4.44,4.44,0,1,1-5.87,5.23v.13a4.48,4.48,0,1,0,6-5.35Z"/><path class="cls-108" d="M41.07,7.25a4.48,4.48,0,1,1-6,5.35.49.49,0,0,0,0,.12h0A4.52,4.52,0,1,0,41.2,7.26Z"/><path class="cls-108" d="M41.2,7.26a4.52,4.52,0,1,1-6.14,5.47.49.49,0,0,0,0,.12,4.55,4.55,0,1,0,6.25-5.57Z"/><path class="cls-109" d="M41.32,7.28a4.55,4.55,0,1,1-6.25,5.57V13A4.59,4.59,0,1,0,41.45,7.3Z"/><path class="cls-110" d="M41.45,7.3A4.59,4.59,0,1,1,35.07,13a.49.49,0,0,0,0,.12,4.63,4.63,0,1,0,6.49-5.78Z"/><path class="cls-110" d="M41.57,7.32a4.63,4.63,0,1,1-6.49,5.78.49.49,0,0,0,0,.12,4.66,4.66,0,1,0,6.6-5.88Z"/><path class="cls-111" d="M41.69,7.34a4.67,4.67,0,1,1-6.6,5.88s0,.08,0,.12a4.7,4.7,0,1,0,6.71-6Z"/><path class="cls-111" d="M41.81,7.37a4.7,4.7,0,1,1-6.71,6,.5.5,0,0,0,0,.12,4.74,4.74,0,1,0,6.8-6.07Z"/><path class="cls-112" d="M41.92,7.39a4.74,4.74,0,1,1-6.8,6.07s0,.08,0,.12A4.78,4.78,0,1,0,42,7.43Z"/><path class="cls-112" d="M42,7.43a4.78,4.78,0,1,1-6.91,6.15s0,.08,0,.12a4.81,4.81,0,1,0,7-6.24Z"/><path class="cls-112" d="M42.15,7.46a4.81,4.81,0,1,1-7,6.24.52.52,0,0,1,0,.11,4.85,4.85,0,1,0,7.09-6.32Z"/><path class="cls-113" d="M42.26,7.49a4.85,4.85,0,1,1-7.09,6.32l0,.12a4.89,4.89,0,1,0,7.18-6.4Z"/><path class="cls-113" d="M42.38,7.53a4.89,4.89,0,1,1-7.18,6.4l0,.11a4.92,4.92,0,1,0,7.26-6.47Z"/><path class="cls-114" d="M42.49,7.57A4.93,4.93,0,1,1,35.23,14a.53.53,0,0,0,0,.12A5,5,0,1,0,42.6,7.61Z"/><path class="cls-114" d="M42.6,7.61a5,5,0,1,1-7.34,6.55l0,.11A5,5,0,1,0,42.7,7.66Z"/><path class="cls-114" d="M42.7,7.66a5,5,0,1,1-7.41,6.61l0,.11a5,5,0,1,0,7.49-6.67Z"/><path class="cls-115" d="M42.81,7.71a5,5,0,1,1-7.49,6.67.76.76,0,0,0,0,.11,5.07,5.07,0,0,0,9.09-3.1,5.12,5.12,0,0,0-1.53-3.64Z"/><path class="cls-115" d="M42.92,7.75a5.08,5.08,0,0,1-3.54,8.72,5.06,5.06,0,0,1-4-2l0,.11A5.11,5.11,0,1,0,43,7.81Z"/><path class="cls-115" d="M43,7.81a5.11,5.11,0,1,1-7.63,6.79,1.17,1.17,0,0,1,0,.11,5.15,5.15,0,1,0,7.68-6.85Z"/><path class="cls-116" d="M43.12,7.86a5.15,5.15,0,1,1-7.68,6.85.42.42,0,0,0,0,.1,5.19,5.19,0,1,0,7.75-6.89Z"/><path class="cls-116" d="M43.23,7.92a5.19,5.19,0,1,1-7.75,6.89.54.54,0,0,0,.05.11A5.22,5.22,0,0,0,43.33,8Z"/><path class="cls-116" d="M43.33,8a5.22,5.22,0,0,1-7.8,7s0,.07,0,.11a5.27,5.27,0,0,0,7.86-7Z"/><path class="cls-116" d="M43.43,8a5.27,5.27,0,0,1-7.86,7,.47.47,0,0,1,0,.1,5.3,5.3,0,0,0,7.9-7Z"/><path class="cls-116" d="M43.52,8.09a5.3,5.3,0,0,1-7.9,7l.06.1a5.27,5.27,0,0,0,3.7,1.5,5.34,5.34,0,0,0,4.24-8.57Z"/><path class="cls-117" d="M43.62,8.16a5.33,5.33,0,0,1-7.94,7.07.54.54,0,0,0,0,.11,5.37,5.37,0,0,0,9-3.95,5.31,5.31,0,0,0-1-3.16Z"/><path class="cls-117" d="M43.72,8.23a5.31,5.31,0,0,1,1,3.16,5.37,5.37,0,0,1-9,3.95l.06.1a5.41,5.41,0,0,0,8-7.15Z"/><path class="cls-117" d="M43.81,8.29a5.41,5.41,0,0,1-8,7.15l.06.1a5.44,5.44,0,0,0,8.06-7.17Z"/><path class="cls-117" d="M43.91,8.37a5.38,5.38,0,0,1,.92,3,5.45,5.45,0,0,1-9,4.15l.06.1A5.48,5.48,0,0,0,44,8.44Z"/><path class="cls-117" d="M44,8.44a5.42,5.42,0,0,1,.86,3,5.48,5.48,0,0,1-9,4.25l.06.1a5.52,5.52,0,0,0,8.93-4.35,5.55,5.55,0,0,0-.81-2.88Z"/><path class="cls-117" d="M44.09,8.51a5.53,5.53,0,0,1-4.71,8.41A5.48,5.48,0,0,1,36,15.74l.07.1a5.56,5.56,0,0,0,8.14-7.25Z"/><path class="cls-117" d="M44.18,8.59A5.56,5.56,0,0,1,36,15.84l.07.1a5.6,5.6,0,0,0,8.16-7.27Z"/><path class="cls-117" d="M44.27,8.67a5.6,5.6,0,0,1-8.16,7.27l.07.09a5.64,5.64,0,0,0,8.18-7.28Z"/><path class="cls-117" d="M44.36,8.75A5.63,5.63,0,0,1,36.18,16a.86.86,0,0,1,.07.1,5.68,5.68,0,0,0,8.8-4.74,5.58,5.58,0,0,0-.61-2.55Z"/><path class="cls-117" d="M44.44,8.84a5.58,5.58,0,0,1,.61,2.55,5.68,5.68,0,0,1-8.8,4.74l.08.09a5.71,5.71,0,0,0,8.2-7.3Z"/><path class="cls-117" d="M44.53,8.92a5.71,5.71,0,0,1-8.2,7.3l.08.09a5.67,5.67,0,0,0,3,.83A5.76,5.76,0,0,0,44.61,9Z"/><path class="cls-117" d="M44.61,9a5.76,5.76,0,0,1-5.23,8.13,5.67,5.67,0,0,1-3-.83l.08.09a5.68,5.68,0,0,0,2.89.78A5.79,5.79,0,0,0,44.69,9.1Z"/><path class="cls-117" d="M44.69,9.1a5.79,5.79,0,0,1-5.31,8.08,5.68,5.68,0,0,1-2.89-.78l.08.09a5.82,5.82,0,0,0,8.63-5.1,5.7,5.7,0,0,0-.43-2.19Z"/><path class="cls-117" d="M44.77,9.2a5.7,5.7,0,0,1,.43,2.19,5.82,5.82,0,0,1-8.63,5.1l.09.09a5.79,5.79,0,0,0,2.72.67,5.86,5.86,0,0,0,5.47-8Z"/><path class="cls-117" d="M44.85,9.29a5.86,5.86,0,0,1-8.19,7.29l.09.09a5.79,5.79,0,0,0,2.63.62,5.9,5.9,0,0,0,5.89-5.9,5.8,5.8,0,0,0-.35-2Z"/><path class="cls-117" d="M44.92,9.39a5.8,5.8,0,0,1,.35,2,5.9,5.9,0,0,1-5.89,5.9,5.79,5.79,0,0,1-2.63-.62l.09.09A5.94,5.94,0,0,0,45,9.49Z"/><path class="cls-117" d="M45,9.49a6,6,0,0,1,.31,1.9,5.93,5.93,0,0,1-8.47,5.37l.09.08a6,6,0,0,0,8.42-5.45,6,6,0,0,0-.28-1.8A.86.86,0,0,1,45,9.49Z"/><path class="cls-116" d="M45.07,9.59a6,6,0,0,1-5.69,7.77,5.91,5.91,0,0,1-2.45-.52l.1.08a6,6,0,0,0,2.35.48,6,6,0,0,0,6-6,5.91,5.91,0,0,0-.25-1.69Z"/><path class="cls-116" d="M45.14,9.7a5.91,5.91,0,0,1,.25,1.69,6,6,0,0,1-6,6A6,6,0,0,1,37,16.92l.1.09a6.21,6.21,0,0,0,2.25.43,6,6,0,0,0,6-6.05,5.85,5.85,0,0,0-.21-1.58A.41.41,0,0,0,45.14,9.7Z"/><path class="cls-116" d="M45.21,9.81a5.85,5.85,0,0,1,.21,1.58,6,6,0,0,1-6,6.05A6.21,6.21,0,0,1,37.13,17a.39.39,0,0,1,.1.08,6.09,6.09,0,0,0,8.23-5.7,5.92,5.92,0,0,0-.18-1.47A.41.41,0,0,0,45.21,9.81Z"/><path class="cls-116" d="M45.28,9.92a5.92,5.92,0,0,1,.18,1.47,6.09,6.09,0,0,1-8.23,5.7l.11.07a6,6,0,0,0,2,.35,6.12,6.12,0,0,0,6.12-6.12A6.83,6.83,0,0,0,45.35,10Z"/><path class="cls-116" d="M45.35,10a6.83,6.83,0,0,1,.15,1.36,6.12,6.12,0,0,1-6.12,6.12,6,6,0,0,1-2-.35l.11.08a6.16,6.16,0,0,0,8.09-5.85,6.36,6.36,0,0,0-.13-1.24Z"/><path class="cls-115" d="M45.41,10.15a6.36,6.36,0,0,1,.13,1.24,6.16,6.16,0,0,1-8.09,5.85l.11.08a6.46,6.46,0,0,0,1.82.27,6.2,6.2,0,0,0,6.19-6.2,5.91,5.91,0,0,0-.1-1.12Z"/><path class="cls-115" d="M45.47,10.27a5.91,5.91,0,0,1,.1,1.12,6.2,6.2,0,0,1-6.19,6.2,6.46,6.46,0,0,1-1.82-.27l.12.07a6.34,6.34,0,0,0,1.7.23,6.23,6.23,0,0,0,6.23-6.23,6.63,6.63,0,0,0-.08-1Z"/><path class="cls-115" d="M45.53,10.39a6.63,6.63,0,0,1,.08,1,6.23,6.23,0,0,1-6.23,6.23,6.34,6.34,0,0,1-1.7-.23l.11.07a6.41,6.41,0,0,0,1.59.2,6.27,6.27,0,0,0,6.27-6.27,6.4,6.4,0,0,0-.06-.88Z"/><path class="cls-114" d="M45.59,10.51a6.4,6.4,0,0,1,.06.88,6.27,6.27,0,0,1-6.27,6.27,6.41,6.41,0,0,1-1.59-.2l.12.07a6.43,6.43,0,0,0,1.47.17,6.35,6.35,0,0,0,6.26-7.06A.5.5,0,0,1,45.59,10.51Z"/><path class="cls-114" d="M45.64,10.64a6.35,6.35,0,0,1-6.26,7.06,6.43,6.43,0,0,1-1.47-.17l.13.06a5.92,5.92,0,0,0,1.34.15,6.34,6.34,0,0,0,6.34-6.35,6.08,6.08,0,0,0,0-.61Z"/><path class="cls-114" d="M45.69,10.78a6.08,6.08,0,0,1,0,.61,6.34,6.34,0,0,1-6.34,6.35A5.92,5.92,0,0,1,38,17.59l.13.07a6.81,6.81,0,0,0,1.21.11,6.38,6.38,0,0,0,6.38-6.38c0-.16,0-.32,0-.48A.69.69,0,0,0,45.69,10.78Z"/><path class="cls-113" d="M45.74,10.91c0,.16,0,.32,0,.48a6.38,6.38,0,0,1-6.38,6.38,6.81,6.81,0,0,1-1.21-.11l.13.06a6.43,6.43,0,0,0,7.5-6.33c0-.11,0-.23,0-.34Z"/><path class="cls-113" d="M45.79,11.05c0,.11,0,.23,0,.34a6.43,6.43,0,0,1-7.5,6.33l.14.06a7.16,7.16,0,0,0,.94.07,6.46,6.46,0,0,0,6.45-6.46v-.2S45.8,11.1,45.79,11.05Z"/><path class="cls-112" d="M45.83,11.19v.2a6.46,6.46,0,0,1-6.45,6.46,7.16,7.16,0,0,1-.94-.07l.14.06a7,7,0,0,0,.8.05,6.5,6.5,0,0,0,6.49-6.5v-.05C45.86,11.29,45.84,11.24,45.83,11.19Z"/><path class="cls-112" d="M45.87,11.34v.05a6.5,6.5,0,0,1-6.49,6.5,7,7,0,0,1-.8-.05l.15.05c.21,0,.43,0,.65,0a6.54,6.54,0,0,0,6.53-6.43C45.9,11.44,45.88,11.39,45.87,11.34Z"/><path class="cls-112" d="M45.91,11.49a6.54,6.54,0,0,1-6.53,6.43c-.22,0-.44,0-.65,0l.15.05.5,0a6.56,6.56,0,0,0,6.56-6.31Z"/><path class="cls-111" d="M45.94,11.65A6.56,6.56,0,0,1,39.38,18l-.5,0L39,18h.35A6.61,6.61,0,0,0,46,11.81Z"/><path class="cls-111" d="M46,11.81A6.61,6.61,0,0,1,39.38,18H39l.16,0h.19A6.63,6.63,0,0,0,46,12,1,1,0,0,0,46,11.81Z"/><path class="cls-110" d="M46,12A6.63,6.63,0,0,1,39.38,18h-.19l.17,0h0A6.67,6.67,0,0,0,46,12.15,1,1,0,0,0,46,12Z"/><path class="cls-110" d="M46,12.15a6.67,6.67,0,0,1-6.63,5.92h0l.18,0A6.73,6.73,0,0,0,46,12.33,1.1,1.1,0,0,0,46,12.15Z"/><path class="cls-109" d="M46,12.33a6.73,6.73,0,0,1-6.49,5.78l.18,0A6.77,6.77,0,0,0,46,12.51C46,12.45,46,12.39,46,12.33Z"/><path class="cls-108" d="M46,12.51a6.77,6.77,0,0,1-6.32,5.63l.19,0A6.77,6.77,0,0,0,46,12.7Z"/><path class="cls-108" d="M46,12.7a6.77,6.77,0,0,1-6.13,5.46l.19,0A6.82,6.82,0,0,0,46,12.9v-.2Z"/><path class="cls-107" d="M46,12.9a6.82,6.82,0,0,1-5.94,5.28l.21,0A6.9,6.9,0,0,0,46,13.1C46,13,46,13,46,12.9Z"/><path class="cls-107" d="M46,13.1a6.9,6.9,0,0,1-5.72,5.1h.21A6.92,6.92,0,0,0,46,13.31C46,13.24,46,13.17,46,13.1Z"/><path class="cls-106" d="M46,13.31a6.92,6.92,0,0,1-5.49,4.89h.23A7,7,0,0,0,46,13.53Z"/><path class="cls-106" d="M46,13.53a7,7,0,0,1-5.23,4.67l.23,0a7,7,0,0,0,5-4.42A1.85,1.85,0,0,0,46,13.53Z"/><path class="cls-105" d="M45.94,13.76a7,7,0,0,1-5,4.42l.25,0A7,7,0,0,0,45.89,14,2,2,0,0,0,45.94,13.76Z"/><path class="cls-104" d="M45.89,14a7,7,0,0,1-4.66,4.16l.27,0a7.07,7.07,0,0,0,4.32-3.86A2,2,0,0,0,45.89,14Z"/><path class="cls-103" d="M45.82,14.26a7.07,7.07,0,0,1-4.32,3.86l.29-.06a7.07,7.07,0,0,0,3.94-3.52Z"/><path class="cls-103" d="M45.73,14.54a7.07,7.07,0,0,1-3.94,3.52l.32-.08a7.21,7.21,0,0,0,3.51-3.14C45.66,14.74,45.7,14.64,45.73,14.54Z"/><path class="cls-102" d="M45.62,14.84A7.21,7.21,0,0,1,42.11,18l.36-.12a7.21,7.21,0,0,0,3-2.67C45.51,15.07,45.57,15,45.62,14.84Z"/><path class="cls-101" d="M45.46,15.19a7.21,7.21,0,0,1-3,2.67l.42-.18a7.12,7.12,0,0,0,2.34-2.09Z"/><path class="cls-101" d="M45.23,15.59a7.12,7.12,0,0,1-2.34,2.09,5.54,5.54,0,0,0,.59-.32,7.51,7.51,0,0,0,1.36-1.22A5.44,5.44,0,0,0,45.23,15.59Z"/><path class="cls-99" d="M44.84,16.14a7.51,7.51,0,0,1-1.36,1.22A5.46,5.46,0,0,0,44.84,16.14Z"/><path class="cls-118" d="M39.46,11.15h0a0,0,0,0,0,.08,0,0,0,0,0,0-.08,0,0,0,0,0,0,0,0Z"/><path class="cls-119" d="M39.42,11.15a0,0,0,1,1,.08,0,0,0,0,0,1-.08,0,0,0,0,0,1,0,0h0a.08.08,0,0,0,.16,0,.08.08,0,1,0-.16,0Z"/><path class="cls-120" d="M39.38,11.15a.08.08,0,1,1,.16,0,.08.08,0,0,1-.16,0h0a.11.11,0,1,0,.11-.11.11.11,0,0,0-.11.11Z"/><path class="cls-121" d="M39.35,11.15a.11.11,0,1,1,.11.11.11.11,0,0,1-.11-.11h0a.15.15,0,1,0,.15-.15.15.15,0,0,0-.15.15Z"/><path class="cls-122" d="M39.31,11.15a.15.15,0,1,1,.15.15.15.15,0,0,1-.15-.15h0a.19.19,0,1,0,.19-.19.2.2,0,0,0-.19.19Z"/><path class="cls-123" d="M39.27,11.15a.19.19,0,1,1,.19.19.2.2,0,0,1-.19-.19h0a.22.22,0,0,0,.23.22.23.23,0,1,0,0-.45.23.23,0,0,0-.23.23Z"/><path class="cls-124" d="M39.23,11.15a.23.23,0,0,1,.23-.23.23.23,0,1,1,0,.45.22.22,0,0,1-.23-.22h0a.26.26,0,0,0,.52,0,.26.26,0,0,0-.52,0Z"/><path class="cls-124" d="M39.2,11.15a.26.26,0,0,1,.52,0,.26.26,0,0,1-.52,0h0a.3.3,0,1,0,.3-.3.29.29,0,0,0-.3.3Z"/><path class="cls-125" d="M39.16,11.15a.3.3,0,1,1,.3.3.29.29,0,0,1-.3-.3h0a.34.34,0,1,0,.34-.34.34.34,0,0,0-.34.34Z"/><path class="cls-126" d="M39.12,11.15a.34.34,0,1,1,.34.34.34.34,0,0,1-.34-.34h0a.38.38,0,1,0,.38-.38.38.38,0,0,0-.38.38Z"/><path class="cls-127" d="M39.08,11.15a.38.38,0,1,1,.38.38.38.38,0,0,1-.38-.38h0a.41.41,0,1,0,.41-.41.4.4,0,0,0-.41.41Z"/><path class="cls-128" d="M39.05,11.15a.41.41,0,0,1,.41-.41.4.4,0,0,1,.41.41.41.41,0,1,1-.82,0h0a.45.45,0,1,0,.45-.45.45.45,0,0,0-.45.45Z"/><path class="cls-129" d="M39,11.15a.45.45,0,1,1,.45.45.45.45,0,0,1-.45-.45h0a.49.49,0,1,0,.49-.49.49.49,0,0,0-.49.49Z"/><path class="cls-129" d="M39,11.15a.49.49,0,1,1,.49.49.49.49,0,0,1-.49-.49h0a.53.53,0,1,0,.53-.53.53.53,0,0,0-.53.53Z"/><path class="cls-130" d="M38.93,11.15a.53.53,0,1,1,.53.53.53.53,0,0,1-.53-.53h0a.56.56,0,1,0,1.12,0,.56.56,0,1,0-1.12,0Z"/><path class="cls-131" d="M38.9,11.15a.56.56,0,1,1,1.12,0,.56.56,0,1,1-1.12,0h0a.6.6,0,1,0,.6-.6.6.6,0,0,0-.6.6Z"/><path class="cls-132" d="M38.86,11.15a.6.6,0,1,1,.6.6.6.6,0,0,1-.6-.6h0a.64.64,0,1,0,.64-.64.64.64,0,0,0-.64.64Z"/><path class="cls-133" d="M38.82,11.15a.64.64,0,1,1,.64.64.64.64,0,0,1-.64-.64h0a.68.68,0,1,0,.68-.68.69.69,0,0,0-.68.68Z"/><path class="cls-134" d="M38.78,11.15a.68.68,0,1,1,.68.68.68.68,0,0,1-.68-.68h0a.72.72,0,1,0,.72-.72.71.71,0,0,0-.72.72Z"/><path class="cls-135" d="M38.74,11.15a.72.72,0,1,1,.72.71.72.72,0,0,1-.72-.71h0a.75.75,0,1,0,.75-.75.75.75,0,0,0-.75.75Z"/><path class="cls-135" d="M38.71,11.15a.75.75,0,1,1,.75.75.74.74,0,0,1-.75-.75h0a.79.79,0,1,0,.79-.79.79.79,0,0,0-.79.79Z"/><path class="cls-136" d="M38.67,11.15a.79.79,0,1,1,.79.79.79.79,0,0,1-.79-.79h0a.83.83,0,1,0,.83-.83.83.83,0,0,0-.83.83Z"/><path class="cls-137" d="M38.63,11.15a.83.83,0,1,1,.83.83.83.83,0,0,1-.83-.83h0a.87.87,0,1,0,.87-.87.86.86,0,0,0-.87.87Z"/><path class="cls-138" d="M38.59,11.15a.87.87,0,1,1,.87.86.87.87,0,0,1-.87-.86h0a.9.9,0,1,0,.9-.9.9.9,0,0,0-.9.9Z"/><path class="cls-139" d="M38.56,11.15a.9.9,0,1,1,.9.9.9.9,0,0,1-.9-.9h0a.94.94,0,1,0,.94-.94.94.94,0,0,0-.94.94Z"/><path class="cls-140" d="M38.52,11.15a.94.94,0,1,1,.94.94.94.94,0,0,1-.94-.94h0a1,1,0,1,0,1-1,1,1,0,0,0-1,1Z"/><path class="cls-141" d="M38.48,11.15a1,1,0,1,1,1,1,1,1,0,0,1-1-1h0a1,1,0,1,0,1-1,1,1,0,0,0-1,1Z"/><path class="cls-142" d="M38.44,11.15a1,1,0,1,1,1,1,1,1,0,0,1-1-1h0a1,1,0,1,0,1.05-1.05,1,1,0,0,0-1.05,1.05Z"/><path class="cls-143" d="M38.41,11.15a1,1,0,1,1,1.05,1,1,1,0,0,1-1.05-1h0a1.09,1.09,0,1,0,1.09-1.09,1.09,1.09,0,0,0-1.09,1.09Z"/><path class="cls-144" d="M38.37,11.15a1.09,1.09,0,1,1,1.09,1.09,1.09,1.09,0,0,1-1.09-1.09h0A1.13,1.13,0,1,0,39.46,10a1.14,1.14,0,0,0-1.13,1.13Z"/><path class="cls-145" d="M38.33,11.15a1.13,1.13,0,1,1,1.13,1.13,1.14,1.14,0,0,1-1.13-1.13h0A1.17,1.17,0,1,0,39.46,10a1.18,1.18,0,0,0-1.17,1.17Z"/><path class="cls-145" d="M38.29,11.15a1.17,1.17,0,1,1,1.17,1.17,1.17,1.17,0,0,1-1.17-1.17h0a1.2,1.2,0,1,0,1.2-1.21,1.2,1.2,0,0,0-1.2,1.21Z"/><path class="cls-146" d="M38.26,11.15a1.2,1.2,0,1,1,1.2,1.2,1.2,1.2,0,0,1-1.2-1.2h0a1.24,1.24,0,1,0,1.24-1.24,1.24,1.24,0,0,0-1.24,1.24Z"/><path class="cls-147" d="M38.22,11.15a1.24,1.24,0,1,1,1.24,1.24,1.23,1.23,0,0,1-1.24-1.24h0a1.28,1.28,0,1,0,1.28-1.28,1.28,1.28,0,0,0-1.28,1.28Z"/><path class="cls-148" d="M38.18,11.15a1.28,1.28,0,1,1,1.28,1.28,1.28,1.28,0,0,1-1.28-1.28h0a1.32,1.32,0,1,0,1.32-1.32,1.32,1.32,0,0,0-1.32,1.32Z"/><path class="cls-149" d="M38.14,11.15a1.32,1.32,0,1,1,1.32,1.32,1.32,1.32,0,0,1-1.32-1.32h0a1.35,1.35,0,1,0,1.35-1.36,1.34,1.34,0,0,0-1.35,1.36Z"/><path class="cls-150" d="M38.11,11.15a1.35,1.35,0,1,1,1.35,1.35,1.35,1.35,0,0,1-1.35-1.35h0a1.39,1.39,0,1,0,1.39-1.39,1.39,1.39,0,0,0-1.39,1.39Z"/><path class="cls-151" d="M38.07,11.15a1.39,1.39,0,1,1,1.39,1.39,1.39,1.39,0,0,1-1.39-1.39h0a1.43,1.43,0,1,0,1.43-1.43A1.43,1.43,0,0,0,38,11.15Z"/><path class="cls-152" d="M38,11.15a1.43,1.43,0,1,1,1.43,1.43A1.43,1.43,0,0,1,38,11.15h0a1.47,1.47,0,1,0,1.47-1.47A1.47,1.47,0,0,0,38,11.15Z"/><path class="cls-153" d="M38,11.15a1.47,1.47,0,1,1,1.47,1.47A1.47,1.47,0,0,1,38,11.15h0a1.51,1.51,0,1,0,1.51-1.51A1.51,1.51,0,0,0,38,11.15Z"/><path class="cls-154" d="M38,11.15a1.51,1.51,0,1,1,1.51,1.5A1.52,1.52,0,0,1,38,11.15h0a1.54,1.54,0,1,0,1.54-1.54,1.54,1.54,0,0,0-1.54,1.54Z"/><path class="cls-155" d="M37.92,11.15a1.54,1.54,0,1,1,1.54,1.54,1.54,1.54,0,0,1-1.54-1.54h0a1.58,1.58,0,1,0,1.58-1.58,1.58,1.58,0,0,0-1.58,1.58Z"/><path class="cls-156" d="M37.88,11.15a1.58,1.58,0,1,1,1.58,1.58,1.58,1.58,0,0,1-1.58-1.58h0a1.62,1.62,0,1,0,1.62-1.62,1.63,1.63,0,0,0-1.62,1.62Z"/><path class="cls-157" d="M37.84,11.15a1.62,1.62,0,1,1,1.62,1.62,1.63,1.63,0,0,1-1.62-1.62h0a1.66,1.66,0,1,0,1.66-1.66,1.66,1.66,0,0,0-1.66,1.66Z"/><path class="cls-158" d="M37.8,11.15a1.66,1.66,0,1,1,1.66,1.65,1.66,1.66,0,0,1-1.66-1.65h0a1.69,1.69,0,1,0,1.69-1.69,1.69,1.69,0,0,0-1.69,1.69Z"/><path class="cls-159" d="M37.77,11.15a1.69,1.69,0,1,1,1.69,1.69,1.68,1.68,0,0,1-1.69-1.69h0a1.73,1.73,0,1,0,1.73-1.73,1.72,1.72,0,0,0-1.73,1.73Z"/><path class="cls-160" d="M37.73,11.15a1.73,1.73,0,1,1,1.73,1.73,1.72,1.72,0,0,1-1.73-1.73h0a1.77,1.77,0,1,0,1.77-1.77,1.77,1.77,0,0,0-1.77,1.77Z"/><path class="cls-161" d="M37.69,11.15a1.77,1.77,0,1,1,1.77,1.77,1.77,1.77,0,0,1-1.77-1.77h0a1.81,1.81,0,1,0,1.81-1.81,1.81,1.81,0,0,0-1.81,1.81Z"/><path class="cls-162" d="M37.65,11.15A1.81,1.81,0,1,1,39.46,13a1.81,1.81,0,0,1-1.81-1.81h0a1.84,1.84,0,1,0,1.84-1.84,1.84,1.84,0,0,0-1.84,1.84Z"/><path class="cls-163" d="M37.62,11.15A1.84,1.84,0,1,1,39.46,13a1.84,1.84,0,0,1-1.84-1.84h0a1.88,1.88,0,1,0,1.88-1.88,1.88,1.88,0,0,0-1.88,1.88Z"/><path class="cls-163" d="M37.58,11.15A1.88,1.88,0,1,1,39.46,13a1.88,1.88,0,0,1-1.88-1.88h0a1.92,1.92,0,1,0,1.92-1.92,1.92,1.92,0,0,0-1.92,1.92Z"/><path class="cls-164" d="M37.54,11.15a1.92,1.92,0,1,1,1.92,1.92,1.92,1.92,0,0,1-1.92-1.92h0a2,2,0,1,0,2-2,2,2,0,0,0-2,2Z"/><path class="cls-165" d="M37.5,11.15a2,2,0,1,1,2,2,2,2,0,0,1-2-2h0a2,2,0,1,0,2-2,2,2,0,0,0-2,2Z"/><path class="cls-166" d="M37.47,11.15a2,2,0,1,1,2,2,2,2,0,0,1-2-2h0a2,2,0,1,0,2-2,2,2,0,0,0-2,2Z"/><path class="cls-167" d="M37.43,11.15a2,2,0,1,1,2,2,2,2,0,0,1-2-2h0a2.07,2.07,0,1,0,2.07-2.07,2.07,2.07,0,0,0-2.07,2.07Z"/><path class="cls-168" d="M37.39,11.15a2.07,2.07,0,1,1,2.07,2.07,2.07,2.07,0,0,1-2.07-2.07h0A2.11,2.11,0,1,0,39.46,9a2.12,2.12,0,0,0-2.11,2.11Z"/><path class="cls-169" d="M37.35,11.15a2.11,2.11,0,1,1,2.11,2.11,2.11,2.11,0,0,1-2.11-2.11h0A2.15,2.15,0,1,0,39.46,9a2.15,2.15,0,0,0-2.15,2.15Z"/><path class="cls-169" d="M37.31,11.15a2.15,2.15,0,1,1,2.15,2.14,2.15,2.15,0,0,1-2.15-2.14h0A2.18,2.18,0,1,0,39.46,9a2.18,2.18,0,0,0-2.18,2.18Z"/><path class="cls-170" d="M37.28,11.15a2.18,2.18,0,1,1,2.18,2.18,2.17,2.17,0,0,1-2.18-2.18h0a2.22,2.22,0,1,0,2.22-2.22,2.21,2.21,0,0,0-2.22,2.22Z"/><path class="cls-171" d="M37.24,11.15a2.22,2.22,0,1,1,2.22,2.22,2.21,2.21,0,0,1-2.22-2.22h0a2.26,2.26,0,1,0,2.26-2.26,2.26,2.26,0,0,0-2.26,2.26Z"/><path class="cls-172" d="M37.2,11.15a2.26,2.26,0,1,1,2.26,2.26,2.26,2.26,0,0,1-2.26-2.26h0a2.3,2.3,0,1,0,2.3-2.3,2.29,2.29,0,0,0-2.3,2.3Z"/><path class="cls-172" d="M37.16,11.15a2.3,2.3,0,1,1,2.3,2.29,2.3,2.3,0,0,1-2.3-2.29h0a2.33,2.33,0,1,0,2.33-2.33,2.33,2.33,0,0,0-2.33,2.33Z"/><path class="cls-173" d="M37.13,11.15a2.33,2.33,0,1,1,2.33,2.33,2.33,2.33,0,0,1-2.33-2.33h0a2.37,2.37,0,1,0,2.37-2.37,2.37,2.37,0,0,0-2.37,2.37Z"/><path class="cls-174" d="M37.09,11.15a2.37,2.37,0,1,1,2.37,2.37,2.37,2.37,0,0,1-2.37-2.37h0a2.41,2.41,0,1,0,2.41-2.41,2.41,2.41,0,0,0-2.41,2.41Z"/><path class="cls-175" d="M37.05,11.15a2.41,2.41,0,1,1,2.41,2.41,2.41,2.41,0,0,1-2.41-2.41h0A2.45,2.45,0,1,0,39.46,8.7,2.45,2.45,0,0,0,37,11.15Z"/><path class="cls-176" d="M37,11.15a2.45,2.45,0,1,1,2.45,2.45A2.45,2.45,0,0,1,37,11.15h0a2.48,2.48,0,1,0,2.48-2.48A2.48,2.48,0,0,0,37,11.15Z"/><path class="cls-177" d="M37,11.15a2.48,2.48,0,1,1,2.48,2.48A2.48,2.48,0,0,1,37,11.15h0a2.52,2.52,0,1,0,2.52-2.52,2.52,2.52,0,0,0-2.52,2.52Z"/><path class="cls-178" d="M36.94,11.15a2.52,2.52,0,1,1,2.52,2.52,2.52,2.52,0,0,1-2.52-2.52h0a2.56,2.56,0,1,0,2.56-2.56,2.56,2.56,0,0,0-2.56,2.56Z"/><path class="cls-179" d="M36.9,11.15a2.56,2.56,0,1,1,2.56,2.56,2.56,2.56,0,0,1-2.56-2.56h0a2.6,2.6,0,1,0,2.6-2.6,2.61,2.61,0,0,0-2.6,2.6Z"/><path class="cls-180" d="M36.86,11.15a2.6,2.6,0,1,1,2.6,2.6,2.6,2.6,0,0,1-2.6-2.6h0a2.63,2.63,0,1,0,2.63-2.64,2.63,2.63,0,0,0-2.63,2.64Z"/><path class="cls-181" d="M36.83,11.15a2.63,2.63,0,1,1,2.63,2.63,2.64,2.64,0,0,1-2.63-2.63h0a2.67,2.67,0,1,0,2.67-2.67,2.67,2.67,0,0,0-2.67,2.67Z"/><path class="cls-182" d="M36.79,11.15a2.67,2.67,0,1,1,2.67,2.67,2.66,2.66,0,0,1-2.67-2.67h0a2.71,2.71,0,1,0,2.71-2.71,2.71,2.71,0,0,0-2.71,2.71Z"/><path class="cls-183" d="M36.75,11.15a2.71,2.71,0,1,1,2.71,2.71,2.71,2.71,0,0,1-2.71-2.71h0A2.75,2.75,0,1,0,39.46,8.4a2.75,2.75,0,0,0-2.75,2.75Z"/><path class="cls-184" d="M36.71,11.15a2.75,2.75,0,1,1,2.75,2.75,2.75,2.75,0,0,1-2.75-2.75h0a2.79,2.79,0,1,0,2.79-2.79,2.78,2.78,0,0,0-2.79,2.79Z"/><path class="cls-184" d="M36.67,11.15a2.79,2.79,0,1,1,2.79,2.78,2.79,2.79,0,0,1-2.79-2.78h0a2.82,2.82,0,1,0,2.82-2.82,2.82,2.82,0,0,0-2.82,2.82Z"/><path class="cls-185" d="M36.64,11.15A2.82,2.82,0,1,1,39.46,14a2.82,2.82,0,0,1-2.82-2.82h0a2.86,2.86,0,1,0,2.86-2.86,2.86,2.86,0,0,0-2.86,2.86Z"/><path class="cls-186" d="M36.6,11.15A2.86,2.86,0,1,1,39.46,14a2.86,2.86,0,0,1-2.86-2.86h0a2.9,2.9,0,1,0,2.9-2.9,2.9,2.9,0,0,0-2.9,2.9Z"/><path class="cls-187" d="M36.56,11.15a2.9,2.9,0,1,1,2.9,2.9,2.9,2.9,0,0,1-2.9-2.9h0a2.94,2.94,0,1,0,2.94-2.94,2.94,2.94,0,0,0-2.94,2.94Z"/><path class="cls-188" d="M36.52,11.15a2.94,2.94,0,1,1,2.94,2.93,2.94,2.94,0,0,1-2.94-2.93h0a3,3,0,1,0,3-3,3,3,0,0,0-3,3Z"/><path class="cls-189" d="M36.49,11.15a3,3,0,1,1,3,3,3,3,0,0,1-3-3h0a3,3,0,1,0,3-3,3,3,0,0,0-3,3Z"/><path class="cls-190" d="M36.45,11.15a3,3,0,1,1,3,3,3,3,0,0,1-3-3h0A3,3,0,1,0,39.46,8.1a3.06,3.06,0,0,0-3.05,3.05Z"/><path class="cls-190" d="M36.41,11.15a3,3,0,1,1,3.05,3,3.06,3.06,0,0,1-3.05-3h0a3.09,3.09,0,1,0,3.09-3.09,3.09,3.09,0,0,0-3.09,3.09Z"/><path class="cls-191" d="M36.37,11.15a3.09,3.09,0,1,1,3.09,3.08,3.09,3.09,0,0,1-3.09-3.08h0A3.12,3.12,0,1,0,39.46,8a3.12,3.12,0,0,0-3.12,3.12Z"/><path class="cls-192" d="M36.34,11.15a3.12,3.12,0,1,1,3.12,3.12,3.11,3.11,0,0,1-3.12-3.12h0A3.16,3.16,0,1,0,39.46,8a3.16,3.16,0,0,0-3.16,3.16Z"/><path class="cls-193" d="M36.3,11.15a3.16,3.16,0,1,1,3.16,3.16,3.15,3.15,0,0,1-3.16-3.16h0A3.2,3.2,0,1,0,39.46,8a3.2,3.2,0,0,0-3.2,3.2Z"/><path class="cls-194" d="M36.26,11.15a3.2,3.2,0,1,1,3.2,3.2,3.2,3.2,0,0,1-3.2-3.2h0a3.24,3.24,0,1,0,3.24-3.24,3.24,3.24,0,0,0-3.24,3.24Z"/><path class="cls-195" d="M36.22,11.15a3.24,3.24,0,1,1,3.24,3.24,3.24,3.24,0,0,1-3.24-3.24h0a3.27,3.27,0,1,0,3.27-3.28,3.26,3.26,0,0,0-3.27,3.28Z"/><path class="cls-196" d="M36.19,11.15a3.27,3.27,0,1,1,3.27,3.27,3.27,3.27,0,0,1-3.27-3.27h0a3.31,3.31,0,1,0,3.31-3.31,3.31,3.31,0,0,0-3.31,3.31Z"/><path class="cls-197" d="M36.15,11.15a3.31,3.31,0,1,1,3.31,3.31,3.31,3.31,0,0,1-3.31-3.31h0A3.35,3.35,0,1,0,39.46,7.8a3.35,3.35,0,0,0-3.35,3.35Z"/><path class="cls-198" d="M36.11,11.15a3.35,3.35,0,1,1,3.35,3.35,3.35,3.35,0,0,1-3.35-3.35h0a3.39,3.39,0,1,0,3.39-3.39,3.39,3.39,0,0,0-3.39,3.39Z"/><path class="cls-199" d="M36.07,11.15a3.39,3.39,0,1,1,3.39,3.39,3.39,3.39,0,0,1-3.39-3.39h0a3.42,3.42,0,1,0,3.42-3.43A3.42,3.42,0,0,0,36,11.15Z"/><path class="cls-200" d="M36,11.15a3.42,3.42,0,1,1,3.42,3.42A3.43,3.43,0,0,1,36,11.15h0a3.46,3.46,0,1,0,3.46-3.46A3.46,3.46,0,0,0,36,11.15Z"/><path class="cls-200" d="M36,11.15a3.46,3.46,0,1,1,3.46,3.46A3.46,3.46,0,0,1,36,11.15h0a3.5,3.5,0,1,0,3.5-3.5,3.5,3.5,0,0,0-3.5,3.5Z"/><path class="cls-201" d="M36,11.15a3.5,3.5,0,1,1,3.5,3.5,3.5,3.5,0,0,1-3.5-3.5h0a3.54,3.54,0,1,0,3.54-3.54,3.55,3.55,0,0,0-3.54,3.54Z"/><path class="cls-202" d="M35.92,11.15a3.54,3.54,0,1,1,3.54,3.54,3.55,3.55,0,0,1-3.54-3.54h0a3.58,3.58,0,1,0,3.58-3.58,3.58,3.58,0,0,0-3.58,3.58Z"/><path class="cls-203" d="M35.88,11.15a3.58,3.58,0,1,1,3.58,3.57,3.58,3.58,0,0,1-3.58-3.57h0a3.61,3.61,0,1,0,3.61-3.61,3.5,3.5,0,0,0-1.38.27,5.53,5.53,0,0,0-1.29.9,3.65,3.65,0,0,0-.94,2.44Z"/><path class="cls-204" d="M35.85,11.15a3.6,3.6,0,0,1,.94-2.44,3.83,3.83,0,0,0-.28.29,3.61,3.61,0,0,0-.7,2.15Zm2.23-3.34.36-.17a3.81,3.81,0,0,1,1-.14,3.65,3.65,0,1,1-3.65,3.65h0a3.61,3.61,0,1,0,3.61-3.61A3.5,3.5,0,0,0,38.08,7.81Z"/><path class="cls-205" d="M35.81,11.15A3.61,3.61,0,0,1,36.51,9l-.2.22a3.71,3.71,0,0,0-.54,1.93Zm2.63-3.51.28-.11a4.53,4.53,0,0,1,.74-.07,3.69,3.69,0,1,1-3.69,3.69h0A3.65,3.65,0,1,0,39.46,7.5,3.81,3.81,0,0,0,38.44,7.64Z"/><path class="cls-206" d="M35.77,11.15a3.71,3.71,0,0,1,.54-1.93l-.15.2a3.75,3.75,0,0,0-.43,1.73Zm2.95-3.62L39,7.46a2.74,2.74,0,0,1,.5,0,3.73,3.73,0,1,1-3.73,3.73h0a3.69,3.69,0,1,0,3.69-3.69A4.53,4.53,0,0,0,38.72,7.53Z"/><path class="cls-207" d="M35.73,11.15a3.75,3.75,0,0,1,.43-1.73,1.27,1.27,0,0,0-.13.19,3.61,3.61,0,0,0-.33,1.54ZM39,7.46l.21-.06h.29a3.76,3.76,0,1,1-3.76,3.76h0a3.73,3.73,0,1,0,3.73-3.73A2.74,2.74,0,0,0,39,7.46Z"/><path class="cls-208" d="M35.7,11.15A3.61,3.61,0,0,1,36,9.61l-.11.16a3.72,3.72,0,0,0-.26,1.38ZM39.17,7.4l.2-.05h.09a3.8,3.8,0,1,1-3.8,3.8h0a3.76,3.76,0,1,0,3.76-3.76Z"/><path class="cls-209" d="M35.66,11.15a3.72,3.72,0,0,1,.26-1.38l-.1.17a3.7,3.7,0,0,0-.2,1.21Zm3.71-3.8.19,0a3.84,3.84,0,1,1-3.94,3.84h0a3.8,3.8,0,1,0,3.8-3.8Z"/><path class="cls-210" d="M35.62,11.15a3.7,3.7,0,0,1,.2-1.21l-.09.15a3.67,3.67,0,0,0-.15,1.06Zm3.94-3.84.18,0a3.88,3.88,0,1,1-4.16,3.87h0a3.84,3.84,0,1,0,3.94-3.84Z"/><path class="cls-211" d="M35.58,11.15a3.67,3.67,0,0,1,.15-1.06c0,.05,0,.1-.08.14a4,4,0,0,0-.1.92Zm4.16-3.87.16,0a3.91,3.91,0,1,1-4.35,3.89h0a3.88,3.88,0,1,0,4.16-3.87Z"/><path class="cls-212" d="M35.55,11.15a4,4,0,0,1,.1-.92,1,1,0,0,1-.07.15,3.94,3.94,0,0,0-.07.77ZM39.9,7.26l.17,0a4,4,0,1,1-4.56,3.91h0A3.91,3.91,0,1,0,39.9,7.26Z"/><path class="cls-213" d="M35.51,11.15a3.94,3.94,0,0,1,.07-.77l-.06.14a4.23,4.23,0,0,0-.05.63Zm4.56-3.91h.15a4,4,0,1,1-4.75,3.92h0a4,4,0,1,0,4.56-3.91Z"/><path class="cls-214" d="M35.47,11.15a4.23,4.23,0,0,1,.05-.63l-.06.13a4.19,4.19,0,0,0,0,.5Zm4.75-3.92h.15a4,4,0,1,1-4.94,3.92h0a4,4,0,1,0,4.75-3.92Z"/><path class="cls-215" d="M35.43,11.15a4.19,4.19,0,0,1,0-.5.78.78,0,0,1-.05.14c0,.12,0,.24,0,.36Zm4.94-3.92h.14a4.06,4.06,0,1,1-5.11,3.93h0a4,4,0,1,0,4.94-3.92Z"/><path class="cls-216" d="M35.4,11.15c0-.12,0-.24,0-.36a1.12,1.12,0,0,1,0,.13v.23Zm5.11-3.93h.14a4.1,4.1,0,1,1-5.29,3.93h0a4.06,4.06,0,1,0,5.11-3.93Z"/><path class="cls-217" d="M35.36,11.15v-.23a.93.93,0,0,1,0,.13v.1Zm5.29-3.93h.14a4.14,4.14,0,1,1-5.47,3.92h0a4.1,4.1,0,1,0,5.29-3.93Z"/><path class="cls-218" d="M35.32,11.15v-.1l0,.1h0a4.14,4.14,0,1,0,5.47-3.92h.13a4.18,4.18,0,1,1-5.64,3.94v0Z"/><path class="cls-218" d="M40.92,7.23a4.18,4.18,0,1,1-5.64,3.94l0,.13a4.21,4.21,0,1,0,5.8-4.05Z"/><path class="cls-219" d="M41.05,7.25a4.21,4.21,0,1,1-5.8,4.05l0,.13a4.25,4.25,0,1,0,6-4.17Z"/><path class="cls-220" d="M41.18,7.26a4.25,4.25,0,1,1-6,4.17l0,.12A4.29,4.29,0,1,0,41.3,7.27Z"/><path class="cls-221" d="M41.3,7.27a4.29,4.29,0,1,1-6.11,4.28l0,.12a4.33,4.33,0,1,0,6.26-4.38Z"/><path class="cls-222" d="M41.42,7.29a4.33,4.33,0,1,1-6.26,4.38.5.5,0,0,1,0,.12,4.37,4.37,0,1,0,6.4-4.48Z"/><path class="cls-222" d="M41.54,7.31a4.36,4.36,0,1,1-6.4,4.48s0,.08,0,.12a4.4,4.4,0,1,0,6.54-4.58Z"/><path class="cls-223" d="M41.66,7.33a4.4,4.4,0,1,1-6.54,4.58s0,.08,0,.12a4.44,4.44,0,1,0,6.67-4.67Z"/><path class="cls-224" d="M41.78,7.36A4.44,4.44,0,1,1,35.11,12s0,.08,0,.12a4.48,4.48,0,1,0,6.8-4.76Z"/><path class="cls-225" d="M41.89,7.39a4.48,4.48,0,1,1-6.8,4.76.41.41,0,0,1,0,.11A4.52,4.52,0,1,0,42,7.42Z"/><path class="cls-226" d="M42,7.42a4.52,4.52,0,1,1-6.92,4.84.49.49,0,0,1,0,.12,4.55,4.55,0,1,0,7-4.93Z"/><path class="cls-227" d="M42.11,7.45a4.55,4.55,0,1,1-7,4.93v.11a4.59,4.59,0,1,0,7.15-5Z"/><path class="cls-228" d="M42.22,7.48a4.59,4.59,0,1,1-7.15,5v.12a4.63,4.63,0,1,0,7.26-5.09Z"/><path class="cls-229" d="M42.33,7.52a4.63,4.63,0,1,1-7.26,5.09.37.37,0,0,0,0,.11h0a4.67,4.67,0,1,0,7.37-5.17Z"/><path class="cls-230" d="M42.43,7.55a4.67,4.67,0,1,1-7.37,5.17.41.41,0,0,0,0,.11,4.7,4.7,0,1,0,7.47-5.24Z"/><path class="cls-231" d="M42.54,7.59a4.7,4.7,0,1,1-7.47,5.24v.11a4.74,4.74,0,1,0,7.57-5.31Z"/><path class="cls-232" d="M42.64,7.63a4.74,4.74,0,1,1-7.57,5.31v.11a4.78,4.78,0,0,0,9.17-1.9,4.72,4.72,0,0,0-1.5-3.47Z"/><path class="cls-233" d="M42.74,7.68a4.72,4.72,0,0,1,1.5,3.47,4.78,4.78,0,0,1-9.17,1.9.41.41,0,0,1,0,.11,4.82,4.82,0,1,0,7.77-5.44Z"/><path class="cls-234" d="M42.85,7.72a4.82,4.82,0,1,1-7.77,5.44.41.41,0,0,1,0,.11,4.85,4.85,0,1,0,7.85-5.5Z"/><path class="cls-235" d="M42.94,7.77a4.85,4.85,0,1,1-7.85,5.5.41.41,0,0,1,0,.11,4.9,4.9,0,0,0,9.25-2.23A4.83,4.83,0,0,0,43,7.82Z"/><path class="cls-236" d="M43,7.82a4.83,4.83,0,0,1,1.31,3.33,4.9,4.9,0,0,1-9.25,2.23s0,.07,0,.11a4.93,4.93,0,1,0,8-5.62Z"/><path class="cls-237" d="M43.14,7.87a4.93,4.93,0,1,1-8,5.62s0,.07,0,.1a5,5,0,1,0,8.11-5.67Z"/><path class="cls-238" d="M43.24,7.92a5,5,0,1,1-8.11,5.67.43.43,0,0,1,0,.11A5,5,0,1,0,43.33,8Z"/><path class="cls-239" d="M43.33,8a5,5,0,0,1,1.14,3.17,5,5,0,0,1-9.32,2.55.36.36,0,0,1,0,.1A5,5,0,1,0,43.42,8Z"/><path class="cls-239" d="M43.42,8a5,5,0,1,1-8.25,5.77.52.52,0,0,1,0,.11,5.08,5.08,0,1,0,8.33-5.82Z"/><path class="cls-240" d="M43.52,8.09a5.08,5.08,0,1,1-8.33,5.82l0,.11a5.12,5.12,0,1,0,8.39-5.87Z"/><path class="cls-241" d="M43.61,8.15A5.12,5.12,0,1,1,35.22,14l0,.1A5.16,5.16,0,0,0,43.7,8.21Z"/><path class="cls-242" d="M43.7,8.21a5.16,5.16,0,0,1-8.45,5.91.36.36,0,0,0,0,.1,5.19,5.19,0,0,0,8.51-6Z"/><path class="cls-243" d="M43.78,8.27a5.19,5.19,0,0,1-8.51,6l0,.11a5.24,5.24,0,0,0,9.39-3.18,5.17,5.17,0,0,0-.82-2.81Z"/><path class="cls-244" d="M43.87,8.34a5.17,5.17,0,0,1,.82,2.81,5.24,5.24,0,0,1-9.39,3.18.42.42,0,0,1,0,.1,5.27,5.27,0,0,0,9.39-3.28A5.18,5.18,0,0,0,44,8.41Z"/><path class="cls-245" d="M44,8.41a5.18,5.18,0,0,1,.77,2.74,5.27,5.27,0,0,1-9.39,3.28l0,.1A5.31,5.31,0,0,0,44,8.47Z"/><path class="cls-245" d="M44,8.47a5.31,5.31,0,0,1-8.67,6.06,1,1,0,0,0,0,.1,5.35,5.35,0,0,0,8.72-6.09Z"/><path class="cls-246" d="M44.13,8.54a5.35,5.35,0,0,1-8.72,6.09.49.49,0,0,0,0,.11,5.38,5.38,0,0,0,8.76-6.12A.6.6,0,0,1,44.13,8.54Z"/><path class="cls-247" d="M44.21,8.62a5.38,5.38,0,0,1-8.76,6.12,1,1,0,0,1,0,.1,5.42,5.42,0,0,0,9.39-3.69,5.35,5.35,0,0,0-.59-2.46Z"/><path class="cls-248" d="M44.29,8.69a5.35,5.35,0,0,1,.59,2.46,5.42,5.42,0,0,1-9.39,3.69l0,.1a5.46,5.46,0,0,0,8.84-6.17Z"/><path class="cls-249" d="M44.37,8.77a5.41,5.41,0,0,1,.55,2.38,5.46,5.46,0,0,1-9.39,3.79l0,.1A5.49,5.49,0,0,0,45,11.15a5.53,5.53,0,0,0-.5-2.31Z"/><path class="cls-249" d="M44.45,8.84a5.51,5.51,0,0,1-5,7.8A5.46,5.46,0,0,1,35.58,15l.05.1a5.53,5.53,0,0,0,8.89-6.22Z"/><path class="cls-250" d="M44.52,8.92a5.53,5.53,0,0,1-8.89,6.22.93.93,0,0,0,0,.1A5.57,5.57,0,0,0,44.6,9Z"/><path class="cls-251" d="M44.6,9A5.5,5.5,0,0,1,45,11.15a5.57,5.57,0,0,1-9.35,4.09.41.41,0,0,0,0,.09,5.61,5.61,0,0,0,9-6.24Z"/><path class="cls-251" d="M44.68,9.09a5.6,5.6,0,0,1-9,6.24.93.93,0,0,0,.05.1,5.65,5.65,0,0,0,9-6.26Z"/><path class="cls-252" d="M44.75,9.17a5.65,5.65,0,0,1-9,6.26l.06.1a5.69,5.69,0,0,0,9-6.27Z"/><path class="cls-253" d="M44.82,9.26a5.68,5.68,0,0,1-9,6.27l.06.1a5.73,5.73,0,0,0,9-6.29Z"/><path class="cls-254" d="M44.89,9.34a5.72,5.72,0,0,1-9,6.29l.06.09a5.76,5.76,0,0,0,9-6.29Z"/><path class="cls-254" d="M45,9.43a5.76,5.76,0,0,1-9,6.29l.06.1a5.79,5.79,0,0,0,9-6.29Z"/><path class="cls-255" d="M45,9.53a5.8,5.8,0,0,1-9,6.29l.07.09A5.75,5.75,0,0,0,39.46,17a5.83,5.83,0,0,0,5.83-5.83,5.94,5.94,0,0,0-.2-1.53Z"/><path class="cls-256" d="M45.09,9.62a5.94,5.94,0,0,1,.2,1.53A5.83,5.83,0,0,1,39.46,17a5.75,5.75,0,0,1-3.37-1.07l.07.09a5.78,5.78,0,0,0,3.3,1,5.87,5.87,0,0,0,5.87-5.87,5.55,5.55,0,0,0-.18-1.43Z"/><path class="cls-257" d="M45.15,9.72a5.55,5.55,0,0,1,.18,1.43A5.87,5.87,0,0,1,39.46,17a5.78,5.78,0,0,1-3.3-1,.86.86,0,0,0,.07.1,5.92,5.92,0,0,0,9-6.29Z"/><path class="cls-258" d="M45.22,9.81a5.91,5.91,0,0,1-9,6.29l.07.09a6,6,0,0,0,9.11-5,6.36,6.36,0,0,0-.13-1.24Z"/><path class="cls-259" d="M45.28,9.91a6.36,6.36,0,0,1,.13,1.24,6,6,0,0,1-9.11,5l.08.09a6,6,0,0,0,9.06-5.13,6.12,6.12,0,0,0-.1-1.14Z"/><path class="cls-260" d="M45.34,10a6.12,6.12,0,0,1,.1,1.14,6,6,0,0,1-9.06,5.13l.08.09a6,6,0,0,0,9-5.22,5.8,5.8,0,0,0-.09-1A.54.54,0,0,1,45.34,10Z"/><path class="cls-261" d="M45.39,10.12a5.8,5.8,0,0,1,.09,1,6,6,0,0,1-9,5.22l.08.09a6.06,6.06,0,0,0,9-5.31,5.53,5.53,0,0,0-.07-.92Z"/><path class="cls-261" d="M45.45,10.23a5.53,5.53,0,0,1,.07.92,6.06,6.06,0,0,1-9,5.31l.08.09a6.18,6.18,0,0,0,2.84.7,6.1,6.1,0,0,0,6.1-6.1,5.55,5.55,0,0,0-.06-.82S45.47,10.26,45.45,10.23Z"/><path class="cls-262" d="M45.5,10.33a5.55,5.55,0,0,1,.06.82,6.1,6.1,0,0,1-6.1,6.1,6.18,6.18,0,0,1-2.84-.7l.09.08a6.06,6.06,0,0,0,2.75.65,6.12,6.12,0,0,0,6.13-6.13,5.53,5.53,0,0,0,0-.71Z"/><path class="cls-263" d="M45.55,10.44a5.53,5.53,0,0,1,0,.71,6.12,6.12,0,0,1-6.13,6.13,6.06,6.06,0,0,1-2.75-.65l.09.09a6.1,6.1,0,0,0,2.66.6,6.17,6.17,0,0,0,6.17-6.17,5.68,5.68,0,0,0,0-.59Z"/><path class="cls-263" d="M45.6,10.56a5.68,5.68,0,0,1,0,.59,6.17,6.17,0,0,1-6.17,6.17,6.1,6.1,0,0,1-2.66-.6l.09.09a6.3,6.3,0,0,0,2.57.55,6.21,6.21,0,0,0,6.21-6.21c0-.16,0-.32,0-.48A.37.37,0,0,0,45.6,10.56Z"/><path class="cls-264" d="M45.65,10.67c0,.16,0,.32,0,.48a6.21,6.21,0,0,1-6.21,6.21,6.3,6.3,0,0,1-2.57-.55l.1.08a6.34,6.34,0,0,0,2.47.51,6.25,6.25,0,0,0,6.25-6.25c0-.12,0-.24,0-.36Z"/><path class="cls-265" d="M45.7,10.79c0,.12,0,.24,0,.36a6.25,6.25,0,0,1-6.25,6.25A6.34,6.34,0,0,1,37,16.89l.1.08a6.29,6.29,0,0,0,8.65-5.82v-.24S45.71,10.83,45.7,10.79Z"/><path class="cls-266" d="M45.74,10.91v.24A6.29,6.29,0,0,1,37.09,17l.1.08a6.32,6.32,0,0,0,8.59-5.9V11S45.75,11,45.74,10.91Z"/><path class="cls-266" d="M45.78,11v.12a6.32,6.32,0,0,1-8.59,5.9l.1.08a6.27,6.27,0,0,0,2.17.38,6.36,6.36,0,0,0,6.36-6.35Z"/><path class="cls-267" d="M45.82,11.16a6.36,6.36,0,0,1-6.36,6.35,6.27,6.27,0,0,1-2.17-.38l.11.08a6.4,6.4,0,0,0,8.46-5.92A.93.93,0,0,1,45.82,11.16Z"/><path class="cls-268" d="M45.86,11.29a6.4,6.4,0,0,1-8.46,5.92l.11.07a6.31,6.31,0,0,0,2,.3,6.43,6.43,0,0,0,6.43-6.16Z"/><path class="cls-268" d="M45.89,11.42a6.43,6.43,0,0,1-6.43,6.16,6.31,6.31,0,0,1-2-.3l.12.08a6.49,6.49,0,0,0,8.29-5.81Z"/><path class="cls-269" d="M45.92,11.55a6.49,6.49,0,0,1-8.29,5.81l.12.07a6.42,6.42,0,0,0,1.71.23,6.52,6.52,0,0,0,6.49-6Z"/><path class="cls-270" d="M46,11.69a6.52,6.52,0,0,1-6.49,6,6.42,6.42,0,0,1-1.71-.23l.12.07a6.41,6.41,0,0,0,1.59.2A6.54,6.54,0,0,0,46,11.83S46,11.74,46,11.69Z"/><path class="cls-271" d="M46,11.83a6.54,6.54,0,0,1-6.51,5.87,6.41,6.41,0,0,1-1.59-.2l.13.07a6.41,6.41,0,0,0,1.46.17A6.58,6.58,0,0,0,46,12,.77.77,0,0,0,46,11.83Z"/><path class="cls-270" d="M46,12a6.58,6.58,0,0,1-6.53,5.76A6.41,6.41,0,0,1,38,17.57l.13.07a6.45,6.45,0,0,0,1.33.13A6.62,6.62,0,0,0,46,12.12.78.78,0,0,0,46,12Z"/><path class="cls-272" d="M46,12.12a6.62,6.62,0,0,1-6.55,5.65,6.45,6.45,0,0,1-1.33-.13l.13.06a6.78,6.78,0,0,0,1.2.11A6.67,6.67,0,0,0,46,12.28C46,12.22,46,12.17,46,12.12Z"/><path class="cls-269" d="M46,12.28a6.67,6.67,0,0,1-6.57,5.53,6.78,6.78,0,0,1-1.2-.11l.14.06a6.23,6.23,0,0,0,1.06.09A6.71,6.71,0,0,0,46,12.43.76.76,0,0,1,46,12.28Z"/><path class="cls-273" d="M46,12.43a6.71,6.71,0,0,1-6.58,5.42,6.23,6.23,0,0,1-1.06-.09l.14.06a7,7,0,0,0,.92.07A6.74,6.74,0,0,0,46,12.59Z"/><path class="cls-268" d="M46,12.59a6.74,6.74,0,0,1-6.58,5.3,7,7,0,0,1-.92-.07l.16.06a6.34,6.34,0,0,0,.76,0A6.77,6.77,0,0,0,46,12.75v-.16Z"/><path class="cls-268" d="M46,12.75a6.77,6.77,0,0,1-6.58,5.17,6.34,6.34,0,0,1-.76,0l.15.05c.2,0,.41,0,.61,0a6.82,6.82,0,0,0,6.58-5Z"/><path class="cls-267" d="M46,12.92a6.82,6.82,0,0,1-6.58,5c-.2,0-.41,0-.61,0L39,18l.44,0A6.85,6.85,0,0,0,46,13.09C46,13,46,13,46,12.92Z"/><path class="cls-266" d="M46,13.09A6.85,6.85,0,0,1,39.46,18L39,18l.16.05h.28A6.9,6.9,0,0,0,46,13.26C46,13.2,46,13.15,46,13.09Z"/><path class="cls-266" d="M46,13.26A6.9,6.9,0,0,1,39.46,18h-.28l.18,0h.1A6.93,6.93,0,0,0,46,13.44,1.1,1.1,0,0,1,46,13.26Z"/><path class="cls-265" d="M46,13.44a6.93,6.93,0,0,1-6.54,4.63h-.1l.19,0A7,7,0,0,0,46,13.63Z"/><path class="cls-265" d="M46,13.63a7,7,0,0,1-6.42,4.48l.2,0a7,7,0,0,0,6.18-4.32A1.62,1.62,0,0,0,46,13.63Z"/><path class="cls-264" d="M45.93,13.82a7,7,0,0,1-6.18,4.32l.2,0A7.06,7.06,0,0,0,45.89,14C45.9,14,45.92,13.89,45.93,13.82Z"/><path class="cls-264" d="M45.89,14A7.06,7.06,0,0,1,40,18.17l.22,0a7.06,7.06,0,0,0,5.66-4Z"/><path class="cls-263" d="M45.83,14.22a7.06,7.06,0,0,1-5.66,4h.23a7.12,7.12,0,0,0,5.37-3.76Z"/><path class="cls-274" d="M45.77,14.44A7.12,7.12,0,0,1,40.4,18.2h.25a7.17,7.17,0,0,0,5-3.53A2.09,2.09,0,0,1,45.77,14.44Z"/><path class="cls-262" d="M45.69,14.67a7.17,7.17,0,0,1-5,3.53h.27a7.21,7.21,0,0,0,4.67-3.28A2.44,2.44,0,0,1,45.69,14.67Z"/><path class="cls-262" d="M45.59,14.91a7.21,7.21,0,0,1-4.67,3.28l.28,0a7.21,7.21,0,0,0,4.27-3Z"/><path class="cls-261" d="M45.47,15.17a7.21,7.21,0,0,1-4.27,3l.31,0a7.29,7.29,0,0,0,3.81-2.68Z"/><path class="cls-261" d="M45.32,15.44a7.29,7.29,0,0,1-3.81,2.68l.36-.08a7.33,7.33,0,0,0,3.26-2.29C45.19,15.65,45.26,15.55,45.32,15.44Z"/><path class="cls-260" d="M45.13,15.75A7.33,7.33,0,0,1,41.87,18a3,3,0,0,0,.43-.12,7.41,7.41,0,0,0,2.57-1.81Z"/><path class="cls-259" d="M44.87,16.11a7.41,7.41,0,0,1-2.57,1.81l.58-.23a7.55,7.55,0,0,0,1.57-1.11A4.69,4.69,0,0,0,44.87,16.11Z"/><path class="cls-275" d="M44.45,16.58a7.55,7.55,0,0,1-1.57,1.11A5.45,5.45,0,0,0,44.45,16.58Z"/><path class="cls-118" d="M37.82,15.76l-.12-.07c-.05-.35-.07-.65-.1-.85s-.05-.52-.06-.93a.27.27,0,0,0,.17-.06.26.26,0,0,0,.11-.14c.39.14.81.26,1.26.38v-.2a10.73,10.73,0,0,1-1.23-.35.56.56,0,0,0-.11-.31.54.54,0,0,0-.21-.19,14.72,14.72,0,0,1,.3-2.94,7.14,7.14,0,0,1,.45-1.45.68.68,0,0,0,.26-.07.58.58,0,0,0,.21-.16l.33.09V8.37l-.25-.06a.2.2,0,0,0,0-.15l.24-.09V8a1.82,1.82,0,0,0-.3.11A.23.23,0,0,0,38.62,8a2.93,2.93,0,0,1,.46-.59l-.17,0h0a6,6,0,0,0-.42.55,1,1,0,0,0-.2.07l-.13.09a3.94,3.94,0,0,0-.63,0l-.15.11a3.94,3.94,0,0,1,.68,0,.31.31,0,0,0-.07.14,9.64,9.64,0,0,0-2.16,1.5c0,.08-.09.15-.13.22A10.05,10.05,0,0,1,38,8.56a.24.24,0,0,0,.14.09,8.32,8.32,0,0,0-.7,2.42A13.48,13.48,0,0,0,37.3,13a.33.33,0,0,0-.28.22,8.76,8.76,0,0,1-1.92-1.12c0,.06,0,.11,0,.17A9.74,9.74,0,0,0,37,13.38a.53.53,0,0,0,.11.3.5.5,0,0,0,.22.19c0,.5.1,1,.16,1.55l0,.24a.3.3,0,0,0-.21.1.32.32,0,0,0,0,.31c-.41.13-.72.21-.92.26a.34.34,0,0,1,.08.09,5.54,5.54,0,0,0,.94-.25.19.19,0,0,0,.07.06.46.46,0,0,0,.14.07,6.74,6.74,0,0,0,.5,1.35l.21.1a4.81,4.81,0,0,1-.55-1.43.21.21,0,0,0,.2-.1c.06-.07,0-.16,0-.26.34-.13.71-.29,1.07-.47v-.14c-.42.21-.8.37-1.14.5l-.12-.09Zm1.26-7.69V8a7.59,7.59,0,0,1,3.33-.42l.11,0a8.11,8.11,0,0,0-3.44.48Zm0,6v-.2l.12,0c.5.11,1,.2,1.46.27a.48.48,0,0,1,.3-.25.51.51,0,0,1,.5.07,31.74,31.74,0,0,0,2.94-2,.76.76,0,0,1,0-.15.58.58,0,0,1,0-.19l-.1-.08a19.81,19.81,0,0,0-3.77-2.49,8.54,8.54,0,0,0-1.47-.57V8.37a10.23,10.23,0,0,1,2,.8,18.92,18.92,0,0,1,3.45,2.34.34.34,0,0,1,.24-.11.31.31,0,0,1,.23.11q.41-.37.72-.72l0,.1a7.6,7.6,0,0,1-.58.65l-.09.09a.54.54,0,0,1,0,.21.52.52,0,0,1,0,.18,9,9,0,0,1,1,1.07.62.62,0,0,1,0,.13,8.69,8.69,0,0,0-1-1.07.33.33,0,0,1-.25.13.35.35,0,0,1-.26-.13,18.63,18.63,0,0,1-2.8,2l-.11.06a.49.49,0,0,1,0,.12,13.09,13.09,0,0,0,4.27-.17l0,.12a12,12,0,0,1-3.94.29l-.36,0a.61.61,0,0,1-.29.23.51.51,0,0,1-.51-.09c-.54.3-1.1.59-1.65.84v-.14c.47-.23,1-.51,1.55-.84h0a.36.36,0,0,1,0-.1A12.74,12.74,0,0,1,39.08,14.09Z"/><path class="cls-276" d="M5,13.77A1.61,1.61,0,0,0,5,13.26a1.27,1.27,0,0,0-.87-.85,1.15,1.15,0,0,0,.67-1.08C4.76,10.76,4.45,10,3,10H0v5.49H3.11A1.85,1.85,0,0,0,5,14.27,1.59,1.59,0,0,0,5,13.77ZM1.69,11.26h.89c.35,0,.58.1.58.37s-.22.46-.58.46H1.69Zm1,2.87h-1v-1H2.75c.4,0,.6.17.6.5S3,14.13,2.69,14.13Z"/><path class="cls-276" d="M8.56,10H6.91L5,15.24l-.07.2h1.7l.24-.79H8.58l.23.79h1.75l-.23-.63Zm-.83,3.53H7.2l.53-1.66v0h0l.49,1.69Z"/><polygon class="cls-276" points="18.04 13.28 18.03 13.28 17.12 9.95 15.62 9.95 15.42 9.95 15.62 10.63 17.05 15.44 18.95 15.44 20.62 10.08 18.35 12.1 18.04 13.28"/><polygon class="cls-276" points="28.1 9.95 28.1 11.36 29.64 11.36 29.64 15.44 31.33 15.44 31.33 11.36 32.87 11.36 32.87 9.95 28.1 9.95"/><path class="cls-276" d="M13,9.86a2.87,2.87,0,0,0-2.64,1.73h0a3,3,0,0,0-.23,1.13,2.94,2.94,0,0,0,.23,1.11,2.86,2.86,0,0,0,5.49-1.11,2.91,2.91,0,0,0-.2-1.07A2.85,2.85,0,0,0,13,9.86ZM13,14a1.32,1.32,0,1,1,1.32-1.31A1.32,1.32,0,0,1,13,14Z"/><polygon class="cls-276" points="24.76 13.35 27.35 13.35 27.35 12.04 24.76 12.04 24.76 11.36 27.61 11.36 27.61 9.95 23.07 9.95 23.07 15.44 27.7 15.44 27.7 14.03 24.76 14.03 24.76 13.35"/><rect class="cls-276" x="20.97" y="9.95" width="1.69" height="5.49"/><polygon class="cls-91" points="18.92 9.95 20.66 9.95 18.52 11.48 18.92 9.95"/><path class="cls-277" d="M51.75,12.49h0a1.2,1.2,0,0,0,.79-1.17c0-.92-.65-1.36-1.63-1.36H48.24v5.49h2.52c1.43,0,2-.67,2-1.53A1.31,1.31,0,0,0,51.75,12.49ZM49.2,10.73h1.57c.53,0,.81.2.81.75a.74.74,0,0,1-.81.77H49.2Zm1.7,3.92H49.2V12.94h1.7a.86.86,0,1,1,0,1.71Z"/><path class="cls-277" d="M56.55,14.56V12.51c0-.84-.81-1.15-1.59-1.15h-.18c-.81,0-1.57.36-1.63,1.32H54c0-.39.33-.59.75-.63h.13c.35,0,.82.09.82.54s-.43.45-.95.52l-.24,0c-.74.08-1.54.25-1.54,1.23a1.22,1.22,0,0,0,1.37,1.17,3,3,0,0,0,.41,0h0a1.82,1.82,0,0,0,1-.45.59.59,0,0,0,.67.49,2.34,2.34,0,0,0,.55-.1v-.61a.9.9,0,0,1-.21,0C56.6,14.86,56.55,14.77,56.55,14.56Zm-.88-.45c0,.5-.51.72-.89.74h-.09c-.3,0-.8-.12-.8-.51s.33-.6.71-.66l.18,0h0a2.16,2.16,0,0,0,.89-.21Z"/><path class="cls-277" d="M59.43,11.36a1.43,1.43,0,0,0-1.24.7h0v-.58h-.82v4h.87V13.1a1,1,0,0,1,1-1c.51,0,.76.27.78.89v2.5h.87V12.71A1.25,1.25,0,0,0,59.43,11.36Z"/><polygon class="cls-277" points="63.33 12.93 64.85 11.47 63.78 11.47 62.19 13.07 62.19 9.95 61.32 9.95 61.32 15.44 62.19 15.44 62.19 14.02 62.72 13.51 63.93 15.44 65 15.44 63.33 12.93"/><polygon class="cls-278" points="24.51 20.06 24.8 20.06 24.8 22.26 24.47 22.26 23.35 20.48 23.34 22.26 23.06 22.26 23.06 20.06 23.41 20.06 24.51 21.83 24.51 20.06"/><path class="cls-278" d="M26.35,21.33v-.25h1v1.18h-.19L27,22a.75.75,0,0,1-.3.25.87.87,0,0,1-.42.1,1.15,1.15,0,0,1-.44-.08.91.91,0,0,1-.23-.17,1,1,0,0,1-.3-.5,1.37,1.37,0,0,1-.05-.43,1.19,1.19,0,0,1,.25-.77.94.94,0,0,1,.79-.37,1,1,0,0,1,.6.18.74.74,0,0,1,.33.55H27a.54.54,0,0,0-.27-.38.76.76,0,0,0-.38-.09.65.65,0,0,0-.51.23,1,1,0,0,0-.22.67,1.12,1.12,0,0,0,.15.62.64.64,0,0,0,.59.28l.2,0a.64.64,0,0,0,.25-.12.61.61,0,0,0,.19-.26,1,1,0,0,0,.05-.33Z"/><path class="cls-278" d="M28.32,21.35H29l-.32-1-.36,1Zm.79.26h-.88l-.23.65h-.31l.83-2.2h.34l.79,2.2h-.32Z"/><polygon class="cls-278" points="28.66 19.55 28.46 19.84 28.22 19.84 28.52 19.41 28.81 19.41 29.11 19.84 28.87 19.84 28.66 19.55"/><polygon class="cls-278" points="31.52 20.06 31.81 20.06 31.81 22.26 31.48 22.26 30.36 20.48 30.35 22.26 30.06 22.26 30.06 20.06 30.42 20.06 31.51 21.83 31.52 20.06"/><polygon class="cls-278" points="34.73 20.97 34.73 20.06 35.02 20.06 35.02 22.26 34.73 22.26 34.73 21.23 33.58 21.23 33.58 22.26 33.28 22.26 33.28 20.06 33.58 20.06 33.58 20.97 34.73 20.97"/><path class="cls-278" d="M36,21.35h.68l-.32-1-.36,1Zm.8.26H36l-.23.65h-.3l.82-2.2h.34l.79,2.2h-.32Z"/><polygon class="cls-278" points="36.32 19.85 35.92 19.41 36.25 19.41 36.52 19.85 36.32 19.85"/><polygon class="cls-278" points="39.24 20.06 39.53 20.06 39.53 22.26 39.2 22.26 38.08 20.48 38.07 22.26 37.78 22.26 37.78 20.06 38.14 20.06 39.23 21.83 39.24 20.06"/><path class="cls-278" d="M41.07,21.33v-.25h1v1.18h-.19L41.77,22a.75.75,0,0,1-.3.25.87.87,0,0,1-.42.1,1.15,1.15,0,0,1-.44-.08.91.91,0,0,1-.23-.17,1,1,0,0,1-.3-.5,1.37,1.37,0,0,1,0-.43,1.19,1.19,0,0,1,.25-.77.93.93,0,0,1,.79-.37,1,1,0,0,1,.59.18.73.73,0,0,1,.34.55h-.29a.54.54,0,0,0-.27-.38.8.8,0,0,0-.39-.09.68.68,0,0,0-.51.23,1,1,0,0,0-.21.67,1.12,1.12,0,0,0,.15.62.64.64,0,0,0,.59.28l.2,0a.55.55,0,0,0,.24-.12.56.56,0,0,0,.2-.26,1,1,0,0,0,0-.33Z"/><path class="cls-278" d="M43.79,21.23V22h.63a.52.52,0,0,0,.35-.11.36.36,0,0,0,.12-.29.32.32,0,0,0-.17-.3.68.68,0,0,0-.35-.07Zm0-.92V21h.53a.61.61,0,0,0,.34-.08.3.3,0,0,0,.12-.27.27.27,0,0,0-.1-.24.56.56,0,0,0-.35-.09Zm-.3,2v-2.2h1a.63.63,0,0,1,.46.16.5.5,0,0,1,.16.39.6.6,0,0,1,0,.24.47.47,0,0,1-.24.22.91.91,0,0,1,.25.15.53.53,0,0,1,.15.39.6.6,0,0,1-.19.45.8.8,0,0,1-.56.2Z"/><path class="cls-278" d="M46.09,21.35h.68l-.32-1-.36,1Zm.79.26H46l-.23.65h-.3l.82-2.2h.34l.79,2.2H47.1Z"/><path class="cls-278" d="M46.55,19.93h-.18a.9.9,0,0,1,0-.18.29.29,0,0,1,.12-.13.16.16,0,0,0,.08-.14.11.11,0,0,0,0-.1.1.1,0,0,0-.09,0,.13.13,0,0,0-.11.05.2.2,0,0,0,0,.11h-.2a.27.27,0,0,1,.11-.25.33.33,0,0,1,.22-.08.39.39,0,0,1,.2.05.26.26,0,0,1,.15.25.2.2,0,0,1,0,.13.31.31,0,0,1-.13.12A.22.22,0,0,0,46.55,19.93Z"/><path class="cls-278" d="M49.58,21.16a.93.93,0,0,0-.21-.64.67.67,0,0,0-.56-.26.69.69,0,0,0-.55.25,1,1,0,0,0-.21.65.94.94,0,0,0,.2.64.69.69,0,0,0,.56.25.68.68,0,0,0,.56-.25,1,1,0,0,0,.21-.64Zm.3,0a1.31,1.31,0,0,1-.22.76,1,1,0,0,1-.85.4,1,1,0,0,1-.84-.4,1.31,1.31,0,0,1-.23-.76A1.27,1.27,0,0,1,48,20.4a1.08,1.08,0,0,1,1.68,0A1.2,1.2,0,0,1,49.88,21.16Z"/><polygon class="cls-278" points="52.47 20.06 52.8 20.06 52 22.26 51.68 22.26 50.88 20.06 51.21 20.06 51.84 21.93 52.47 20.06"/><rect class="cls-276" x="53.26" y="20.06" width="0.29" height="2.2"/><polygon class="cls-278" points="55.75 21.99 55.75 22.26 54.13 22.26 54.13 20.06 55.73 20.06 55.73 20.32 54.42 20.32 54.42 21 55.62 21 55.62 21.26 54.42 21.26 54.42 21.99 55.75 21.99"/><path class="cls-278" d="M55,22.78h-.27v-.31H55v.31Zm-.13-3.23-.21.29h-.24l.31-.43H55l.3.43h-.24Z"/><polygon class="cls-278" points="56.08 20.32 56.08 20.06 57.87 20.06 57.87 20.32 57.12 20.32 57.12 22.26 56.83 22.26 56.83 20.32 56.08 20.32"/></svg>