<svg id="Layer_1" data-name="Layer 1" xmlns="http://www.w3.org/2000/svg" viewBox="0 0 65 30"><defs><style>.cls-1{fill:#fff;}.cls-2{fill:#ec1c24;}.cls-3{fill:#008084;}</style></defs><path class="cls-1" d="M9,1H60.38V15.37c.13,2.59-1.44,4.4-4.41,4.4H4.62V5.4A4.41,4.41,0,0,1,9,1"/><path class="cls-2" d="M5.4,5.46V8.93H34l3.72-1.74,7-.19L49,14l2.12-1.79a9.68,9.68,0,0,1,4.81-1.11,5.65,5.65,0,0,1,3.79,1.72V1.66H9.22A3.66,3.66,0,0,0,5.4,5.46Z"/><path class="cls-3" d="M59.69,12.85a5.68,5.68,0,0,0-3.79-1.73,9.76,9.76,0,0,0-4.81,1.12L49,14,44.73,7l-7,.19L34,8.93H5.39V19.06H56.1a3.62,3.62,0,0,0,3.59-3.41Z"/><path class="cls-1" d="M27.6,10.35v4.52l-1.75-3.28a2.09,2.09,0,0,0-2-1.24h-1v7.46h1.91V13.35l1.8,3.22a2.13,2.13,0,0,0,2,1.24h.93V10.35Z"/><path class="cls-1" d="M37.51,10.35H34.92l-2.41,3.08V10.35h-2v7.46h2V14.69l2.26,3.12h2.57l-3-3.76c.22-.27,3.15-3.7,3.15-3.7"/><path class="cls-1" d="M18.66,10.35A2.22,2.22,0,0,0,16.51,12c-.32.76-2.43,5.86-2.43,5.86h2.26L17,16.19h2.37l.68,1.62h2.28l-3.12-7.46Zm.21,4.14H17.55l.66-1.61.66,1.61"/><path class="cls-1" d="M9.78,2.9,8.43,4.67V2.9H7.31V7.18H8.43V5.39L9.7,7.18h1.46L9.47,5,11.25,2.9Z"/><rect class="cls-1" x="11.67" y="2.9" width="1.11" height="4.27"/><path class="cls-1" d="M15.22,2.9a1.63,1.63,0,0,0-.94.19,2.22,2.22,0,0,0-1,1.92,2.1,2.1,0,0,0,1.18,2,3.35,3.35,0,0,0,1.1.15h1.27v-1H15.59c-.62,0-.93-.12-1-.66h1.3a1,1,0,0,0,1-1H14.54c.13-.62.41-.68,1-.68h1.27v-1Z"/><path class="cls-1" d="M28,3.12a1.74,1.74,0,0,0-1-.22h-.56a1.55,1.55,0,0,0-1,.25A2.33,2.33,0,0,0,25.7,7a1.41,1.41,0,0,0,.74.15H27A1.69,1.69,0,0,0,27.8,7a2.23,2.23,0,0,0,1.14-2,2.19,2.19,0,0,0-1-1.88m-.85,3a1.11,1.11,0,0,1-.37.08h0a1.15,1.15,0,0,1-.41-.08A1.3,1.3,0,0,1,25.67,5a1.22,1.22,0,0,1,.54-1,.88.88,0,0,1,.5-.11h0a1.05,1.05,0,0,1,.54.11A1.32,1.32,0,0,1,27.78,5a1.14,1.14,0,0,1-.67,1.09"/><path class="cls-1" d="M22.81,5.66V2.9H21.7V5.82A1.38,1.38,0,0,0,23,7.18h1.36v-1h-1a.53.53,0,0,1-.57-.54"/><path class="cls-1" d="M35.62,2.9a2,2,0,0,0-1.28.41,2.35,2.35,0,0,0-.74,1.74,2,2,0,0,0,1.81,2.13H37.5V4.53H35.4a1,1,0,0,0,1,1V6.2h-.64A.82.82,0,0,1,35,5.89,2.17,2.17,0,0,1,34.8,5c0-.81.24-1.1.92-1.1H37.5v-1Z"/><polygon class="cls-1" points="33.98 9.12 5.39 9.12 5.39 8.43 35.1 8.43 33.98 9.12"/><path class="cls-1" d="M50,11.35c1.11-1.06,2.72-1.46,5.17-1.38,4.24.15,4.55-2.58,4.55-2.58a5.89,5.89,0,0,1-4.55,1.86c-2.51,0-4.31.07-5.17,2.1"/><path class="cls-1" d="M58.06,5.76a1,1,0,0,0-.63-.91A2.62,2.62,0,0,0,56.57,3c-.88-.67-2.4-.63-4.52.14l-.51.19c-1.86.68-3.09,1.13-4,.7a.71.71,0,0,1-.43-.83.84.84,0,0,1,.51-.62.31.31,0,0,0,.33.29.33.33,0,0,0,0-.65l-.08,0a1.14,1.14,0,0,0-1.08.93,1,1,0,0,0,.62,1.2c1.06.48,2.34,0,4.27-.69l.51-.19c2-.73,3.42-.79,4.21-.19a2,2,0,0,1,.7,1.54c-1.19-.19-1.83.86-2.33,1.77.24-.75.19-2.69-2.79-1.85s-4.06.81-5.7.49c-1.85-.37-3.34-1.58-6.55-.87a5.73,5.73,0,0,1,4.91,1.8A11.7,11.7,0,0,0,34,9.11C38.42,7.09,42,7.36,44.05,8A4.3,4.3,0,0,1,42.1,9.31,8.25,8.25,0,0,1,37,9.11s3.8,2.71,7.73.92c-.84,1.42-1.66,1.81-4.34,1.56a8.51,8.51,0,0,0-6.22,2.55c2.88-1.55,4.82-.85,7.14-.38A6.32,6.32,0,0,0,45.79,13c-.41,2.12-1.7,3.3-6.37,4.82,5.28-.51,7.14-1.51,8.83-3.42C49,16,46.9,18.34,46.9,18.34a9,9,0,0,0,4.46-4.9c.84,1.37-.46,3.15-.46,3.15,3.29-1.67.63-4.55,6.55-5.17-2.47-.82-6.26-.72-7.64,1.38-1.24-1.86-.06-4.11,3.47-4.42,1.82-.15,3.18,0,4.15-1.38a.87.87,0,0,0,.58.64c-.27-.39.16-1,.05-1.88m-8,.75a3.9,3.9,0,0,0,2.53-1,.9.9,0,0,0,0,.37.85.85,0,0,0,.22.51Zm3.53-.17A.51.51,0,0,1,53,5.88a.49.49,0,0,1,.45-.55.5.5,0,0,1,.55.45.51.51,0,0,1-.45.56"/><path class="cls-1" d="M20,2.9V5.45c-.2-.37-.66-1.25-1-1.84a1.19,1.19,0,0,0-1.12-.71h-.56V7.18h1.07V4.63c.19.34.7,1.29,1,1.86a1.2,1.2,0,0,0,1.12.7h.52V2.9Z"/><path class="cls-1" d="M32,2.9V5.45c-.19-.37-.66-1.25-1-1.84a1.19,1.19,0,0,0-1.12-.71h-.56V7.18h1.07V4.63c.19.34.7,1.29,1,1.86a1.2,1.2,0,0,0,1.12.7h.53V2.9Z"/><path class="cls-1" d="M13.26,14.08a2,2,0,0,0,.82-1.67,2.08,2.08,0,0,0-2.15-2.06H7.32v7.46h4.32a2.36,2.36,0,0,0,1.79-.56,1.91,1.91,0,0,0,.65-1.52,2.05,2.05,0,0,0-.82-1.65m-2.14.86h.21a.59.59,0,1,1,0,1.17H9.28V12.05h2.1a.58.58,0,0,1,0,1.16H9.28a1.92,1.92,0,0,0,1.84,1.72"/><path class="cls-3" d="M8.46,23.65v-.22H9.3c0,.45,0,.88,0,1.29h-.8s0,0,0-.09a.68.68,0,0,0-.3-.43.86.86,0,0,0-.38-.1.55.55,0,0,0-.26.06.34.34,0,0,0-.19.31.31.31,0,0,0,.12.26l.08.06,0,0,.16.08,0,0L8,25H8l.55.26a1.38,1.38,0,0,1,.94,1.25,1.74,1.74,0,0,1,0,.39,1.27,1.27,0,0,1-.47.69,1.77,1.77,0,0,1-.94.28,1.49,1.49,0,0,1-1.14-.37v.29H6.09c0-.4,0-.75,0-1.07,0-.08,0-.21,0-.38H7v.11a.64.64,0,0,0,.6.62h.12A.47.47,0,0,0,8,27a.3.3,0,0,0,.13-.26c0-.15-.13-.31-.39-.46l-.08,0-.09,0L7.16,26,7,26l-.12-.06c-.63-.34-.94-.75-.94-1.21A1.62,1.62,0,0,1,6,24.28a1.17,1.17,0,0,1,.48-.68,1.52,1.52,0,0,1,.88-.26,2.4,2.4,0,0,1,.46.05,2,2,0,0,1,.61.26"/><path class="cls-3" d="M11.84,25.94v-.23a.54.54,0,0,0-.14-.38.45.45,0,0,0-.36-.14c-.31,0-.5.11-.57.35l-1-.1c.13-.56.6-.87,1.41-.94l.39,0q1.56,0,1.56,1.23V27h.41v.87H11.84v-.26l-.11.06a1.83,1.83,0,0,1-.89.24,1.17,1.17,0,0,1-.79-.27.92.92,0,0,1-.34-.75.94.94,0,0,1,.41-.79,1.5,1.5,0,0,1,.88-.26,2.13,2.13,0,0,1,.84.16M10.5,23.39h.73l.29.52.29-.52h.72l-.64.91h-.74Zm.06-.53s0-.08,0-.13a.65.65,0,0,1,.61-.5.72.72,0,0,1,.33.07l.28.12a.64.64,0,0,0,.2,0c.09,0,.16-.06.23-.18s0,0,0,0l.43.17c-.15.41-.36.62-.63.62a.75.75,0,0,1-.35-.08l-.16-.07-.12-.06a.41.41,0,0,0-.19,0c-.09,0-.17.09-.25.26a3.24,3.24,0,0,0-.43-.18m1.28,3.7-.06,0a.82.82,0,0,0-.42-.13.37.37,0,0,0-.41.32A.38.38,0,0,0,11,27a.35.35,0,0,0,.29.13.74.74,0,0,0,.49-.22h0Z"/><path class="cls-3" d="M13.66,27.81V27h.42V25.43h-.42v-.87c.28,0,.56,0,.84,0s.56,0,.84,0v.34a1.9,1.9,0,0,1,1.07-.41c.66,0,1,.43,1,1.28V27h.41v.86c-.28,0-.56,0-.84,0s-.56,0-.84,0V26a1,1,0,0,0,0-.32.3.3,0,0,0-.29-.18.5.5,0,0,0-.23,0l-.06,0-.06,0-.06,0,0,0,0,0V27h.43v.86c-.35,0-.7,0-1,0s-.71,0-1.06,0"/><path class="cls-3" d="M19.69,27.81v-.87h.4V24.28h-.4v-.86h1.66V27h.4v.87c-.34,0-.68,0-1,0s-.69,0-1,0"/><path class="cls-3" d="M21.92,26.2a1.61,1.61,0,0,1,.43-1.15,1.89,1.89,0,0,1,1.11-.54,2.81,2.81,0,0,1,.58,0,1.88,1.88,0,0,1,1.1.53,1.57,1.57,0,0,1,.44,1.13,1.55,1.55,0,0,1,0,.42,1.57,1.57,0,0,1-.53.88,2,2,0,0,1-1,.4,2,2,0,0,1-1.68-.54,1.64,1.64,0,0,1-.44-1.13m.81-2.92H23.8l.54,1h-.76Zm.49,2.91c0,.55.18.82.53.82a.47.47,0,0,0,.43-.27,1.22,1.22,0,0,0,.11-.53c0-.08,0-.14,0-.18,0-.44-.22-.66-.53-.66s-.53.27-.53.82"/><path class="cls-3" d="M25.79,27.81V27h.42V25.43h-.42v-.87c.28,0,.56,0,.84,0s.56,0,.84,0v.34a1.9,1.9,0,0,1,1.07-.41c.66,0,1,.43,1,1.28V27h.41v.86c-.28,0-.56,0-.84,0s-.56,0-.84,0V26a1,1,0,0,0,0-.32.3.3,0,0,0-.29-.18.5.5,0,0,0-.23,0l-.06,0-.06,0-.06,0,0,0,0,0V27h.43v.86c-.35,0-.7,0-1.06,0s-.7,0-1.05,0"/><path class="cls-3" d="M32.47,24.9v-.34c.25,0,.54,0,.86,0h.82v.88l-.42,0v1.92a1.54,1.54,0,0,1-.55,1.32,2.33,2.33,0,0,1-1.44.34,4.3,4.3,0,0,1-1.46-.31l.44-.71a2.14,2.14,0,0,0,.84.2,1,1,0,0,0,.79-.25.57.57,0,0,0,.17-.38v-.14a1.41,1.41,0,0,1-1,.38,1.37,1.37,0,0,1-1.13-.52,1.63,1.63,0,0,1-.35-1.06c0-.09,0-.2,0-.32a1.73,1.73,0,0,1,.46-1,1.32,1.32,0,0,1,1-.41,1.18,1.18,0,0,1,.95.39m-1.09,1.31a1.19,1.19,0,0,0,.11.53.45.45,0,0,0,.43.29.48.48,0,0,0,.45-.29,1.21,1.21,0,0,0,.1-.57c0-.51-.19-.77-.54-.77a.47.47,0,0,0-.44.27,1,1,0,0,0-.11.54"/><path class="cls-3" d="M38.67,24.83v-.27h.83c0,.24,0,.48,0,.73v.62h-.89a.2.2,0,0,1,0-.09.6.6,0,0,0-.6-.45.52.52,0,0,0-.48.28,1.09,1.09,0,0,0-.15.58,1,1,0,0,0,.14.54A.53.53,0,0,0,38,27a.47.47,0,0,0,.16,0,.6.6,0,0,0,.48-.49l1,.3-.07.14a1.63,1.63,0,0,1-1.59.92h-.29a1.86,1.86,0,0,1-1.12-.52,1.57,1.57,0,0,1-.43-1.13,1.74,1.74,0,0,1,.37-1.14,1.59,1.59,0,0,1,1-.55l.24,0a1.25,1.25,0,0,1,.92.33"/><path class="cls-3" d="M39.66,27.81v-.87h.44V24.28h-.44v-.86h1.69V24.9a1.15,1.15,0,0,1,.24-.18l.18-.1a1.38,1.38,0,0,1,.6-.14,1.07,1.07,0,0,1,.68.23,1,1,0,0,1,.34.62c0,.11,0,.28,0,.51V27h.41v.87c-.27,0-.55,0-.83,0s-.56,0-.85,0v-2c0-.25-.1-.38-.3-.38a.49.49,0,0,0-.24.07h-.05l0,0-.07,0-.06,0,0,0V27h.45v.87c-.35,0-.71,0-1.07,0s-.71,0-1.07,0"/><path class="cls-3" d="M44,27.81V27h.45V25.43H44v-.87c.37,0,.67,0,.92,0l.81,0V27h.39v.86c-.35,0-.7,0-1.06,0s-.71,0-1.06,0m.38-4a.5.5,0,0,1,.23-.43.77.77,0,0,1,.48-.16.81.81,0,0,1,.48.16.55.55,0,0,1,.23.44.5.5,0,0,1-.24.43.79.79,0,0,1-.48.16.77.77,0,0,1-.48-.16.52.52,0,0,1-.22-.44"/><path class="cls-3" d="M48.37,25.94v-.23a.53.53,0,0,0-.13-.38.48.48,0,0,0-.37-.14.51.51,0,0,0-.56.35l-1-.1c.13-.56.6-.87,1.41-.94l.4,0c1,0,1.55.41,1.55,1.23V27h.42v.87H48.37v-.26l-.1.06a1.9,1.9,0,0,1-.9.24,1.2,1.2,0,0,1-.7-.2,1,1,0,0,1-.4-.6,1.65,1.65,0,0,1,0-.21.92.92,0,0,1,.41-.8,1.48,1.48,0,0,1,.88-.26,2.12,2.12,0,0,1,.83.16m0,.62-.06,0a.76.76,0,0,0-.41-.13.36.36,0,0,0-.41.32.35.35,0,0,0,.08.32.35.35,0,0,0,.29.13.74.74,0,0,0,.49-.22h0Z"/><path class="cls-3" d="M54.12,24.73l0-.17H55v1h-.89a.43.43,0,0,0-.19-.38.62.62,0,0,0-.44-.12c-.23,0-.35.11-.35.27a.21.21,0,0,0,.16.2l.08,0h.06l.11,0,.1,0,.34.09.2.05.26.07a.86.86,0,0,1,.76.87,1.1,1.1,0,0,1,0,.31,1,1,0,0,1-.48.63,1.51,1.51,0,0,1-.78.2,1.81,1.81,0,0,1-1-.26v.19H52c0-.19,0-.39,0-.59v-.53h.87a.5.5,0,0,0,.5.53.77.77,0,0,0,.34,0c.14-.05.2-.13.2-.24a.19.19,0,0,0-.12-.18l-.22-.09-.11,0-.15,0-.21-.06-.07,0-.2,0c-.62-.17-.93-.48-.93-.94a1,1,0,0,1,0-.3.93.93,0,0,1,.45-.61,1.39,1.39,0,0,1,.75-.19,1.87,1.87,0,0,1,.93.26"/><path class="cls-3" d="M59,26.43H56.67a.61.61,0,0,0,.18.45.57.57,0,0,0,.44.18.71.71,0,0,0,.62-.36L59,27l-.08.12a1.75,1.75,0,0,1-1.59.82,1.9,1.9,0,0,1-1.45-.56,1.52,1.52,0,0,1-.42-1.09,1.87,1.87,0,0,1,0-.4A1.56,1.56,0,0,1,56,25a1.71,1.71,0,0,1,.94-.43,2.22,2.22,0,0,1,.37,0,1.78,1.78,0,0,1,1.21.44A1.6,1.6,0,0,1,59,26.09a1.93,1.93,0,0,1,0,.34M56.6,23.64v-.05c0-.31.23-.47.6-.47l.24,0c.33.06.51.2.55.43,0,.06,0,.11,0,.15,0,.27-.19.46-.58.59-.06,0-.08.05-.07.05H57V24s0,0,.08,0a.38.38,0,0,0,.35-.24v-.1a.22.22,0,0,0-.17-.19.24.24,0,0,0-.12,0c-.05,0-.08.06-.08.08v0Zm.07,2.23h1.12v-.08a.51.51,0,0,0-.42-.48.53.53,0,0,0-.37,0,.54.54,0,0,0-.33.52"/></svg>