<svg id="Layer_1" data-name="Layer 1" xmlns="http://www.w3.org/2000/svg" viewBox="0 0 65 30"><defs><style>.cls-1{fill:#d00;}.cls-2{fill:#002d84;}.cls-3{fill:#fff;}</style></defs><path class="cls-1" d="M8.34,3.11H56.66A3.47,3.47,0,0,1,60,6.68v5.6H5V6.68A3.47,3.47,0,0,1,8.34,3.11"/><path class="cls-2" d="M8.34,21.46H56.66A3.47,3.47,0,0,0,60,17.88v-5.6H5v5.6a3.47,3.47,0,0,0,3.34,3.58"/><path class="cls-3" d="M17.84,18.1,13,7.37h3l3.42,7.94,3.32-7.94H25.6L20.76,18.1Zm9.17,0h0V7.37h5.75a11.88,11.88,0,0,1,3.15.29,3.07,3.07,0,0,1,1.58,1,2.67,2.67,0,0,1,.58,1.69,2.52,2.52,0,0,1-.89,2,4.79,4.79,0,0,1-2.68,1,7.14,7.14,0,0,1,1.47.9A13.41,13.41,0,0,1,37.52,16l1.66,2.1H35.91l-2-2.34a16,16,0,0,0-1.44-1.57,2.08,2.08,0,0,0-.82-.45,5.69,5.69,0,0,0-1.38-.12h-.55V18.1Zm2.73-6.2h2a14.47,14.47,0,0,0,2.46-.12,1.54,1.54,0,0,0,.77-.46,1.22,1.22,0,0,0,.27-.81,1.12,1.12,0,0,0-.36-.87,1.91,1.91,0,0,0-1-.42c-.23,0-.89,0-2,0H29.74ZM40.66,7.37h5.41a20.24,20.24,0,0,1,2.4.1,4.49,4.49,0,0,1,1.41.45,3,3,0,0,1,1,.9,2,2,0,0,1,.41,1.25,2.15,2.15,0,0,1-.51,1.38,3,3,0,0,1-1.39,1,3.61,3.61,0,0,1,1.9,1A2.24,2.24,0,0,1,52,15a2.64,2.64,0,0,1-.43,1.42,3.28,3.28,0,0,1-1.17,1.11,4.81,4.81,0,0,1-1.84.51c-.45,0-1.55.06-3.29.07H40.66Zm2.73,1.78h0v2.48h1.8q1.59,0,2,0a2,2,0,0,0,1.1-.38,1,1,0,0,0,.4-.85,1.06,1.06,0,0,0-.34-.81,1.8,1.8,0,0,0-1-.37c-.27,0-1,0-2.34,0Zm0,4.27h0v2.87h2.53a14.13,14.13,0,0,0,1.88-.07,1.8,1.8,0,0,0,1-.43,1.15,1.15,0,0,0,.39-.91,1.25,1.25,0,0,0-.3-.82,1.72,1.72,0,0,0-.86-.49,11.88,11.88,0,0,0-2.42-.15Z"/><path class="cls-2" d="M7.93,26.84l-1.07-3h.65l.76,2.21L9,23.85h.64l-1.07,3Zm2,0h0v-3h.6v3Zm1.18,0h0v-3h2.21v.51H11.71V25h1.5v.5h-1.5v.82h1.67v.5Zm3.46,0h0V24.36h-.89v-.51h2.37v.51h-.88v2.48Zm1.88,0h0v-3H17l1.22,2v-2h.56v3h-.6L17,24.89v1.95Zm5.7,0H21.5l-.26-.68H20l-.24.68h-.64l1.16-3H21ZM21,25.66h0l-.41-1.11-.4,1.11Zm1.43,1.18h0v-3h.9l.54,2,.54-2h.9v3h-.56V24.49l-.59,2.35h-.58L23,24.49v2.35ZM27,26h0v-.57h1.13V26Zm2.63.8h0v-3h1.27a2.26,2.26,0,0,1,.69.08.66.66,0,0,1,.35.29.81.81,0,0,1,.13.47.79.79,0,0,1-.2.55.91.91,0,0,1-.59.28,1.42,1.42,0,0,1,.32.25,3,3,0,0,1,.35.49l.36.58h-.72l-.43-.65c-.16-.23-.27-.38-.32-.44a.47.47,0,0,0-.18-.12.87.87,0,0,0-.31,0h-.12v1.24Zm.6-1.72h.45a2.54,2.54,0,0,0,.54,0,.37.37,0,0,0,.17-.13.38.38,0,0,0,.06-.22.41.41,0,0,0-.08-.25.55.55,0,0,0-.23-.12h-.91Zm2.41-1.27h.6v1.62a4.51,4.51,0,0,0,0,.5.52.52,0,0,0,.18.29.63.63,0,0,0,.4.11.61.61,0,0,0,.39-.1.43.43,0,0,0,.16-.26,3,3,0,0,0,0-.51V23.85h.6v1.57a4.46,4.46,0,0,1-.05.77.91.91,0,0,1-.18.37,1,1,0,0,1-.35.24,1.57,1.57,0,0,1-.58.09,1.61,1.61,0,0,1-.65-.1.82.82,0,0,1-.34-.25.94.94,0,0,1-.18-.34,3.64,3.64,0,0,1,0-.75Zm2.86,2h0l.59-.06a.73.73,0,0,0,.21.44.68.68,0,0,0,.44.14.7.7,0,0,0,.44-.13.36.36,0,0,0,.15-.29.28.28,0,0,0-.06-.18.55.55,0,0,0-.22-.13l-.48-.13a1.55,1.55,0,0,1-.68-.3.75.75,0,0,1-.28-.6.77.77,0,0,1,.13-.43.85.85,0,0,1,.37-.3,1.73,1.73,0,0,1,.59-.1,1.29,1.29,0,0,1,.85.25.86.86,0,0,1,.3.66l-.61,0a.52.52,0,0,0-.16-.33.59.59,0,0,0-.38-.1.66.66,0,0,0-.42.11.21.21,0,0,0-.09.18.25.25,0,0,0,.09.19,1.69,1.69,0,0,0,.55.19,3.19,3.19,0,0,1,.65.22.8.8,0,0,1,.33.3A.9.9,0,0,1,38,26a.88.88,0,0,1-.55.82,2,2,0,0,1-.64.1,1.26,1.26,0,0,1-.87-.26,1.11,1.11,0,0,1-.37-.76m2.79,0h0l.59-.06a.68.68,0,0,0,.21.44.66.66,0,0,0,.44.14.7.7,0,0,0,.44-.13.35.35,0,0,0,.14-.29.28.28,0,0,0-.06-.18.49.49,0,0,0-.22-.13l-.48-.13a1.61,1.61,0,0,1-.68-.3.77.77,0,0,1-.27-.6.85.85,0,0,1,.12-.43.88.88,0,0,1,.38-.3,1.69,1.69,0,0,1,.59-.1,1.26,1.26,0,0,1,.84.25.86.86,0,0,1,.3.66l-.6,0a.52.52,0,0,0-.17-.33.58.58,0,0,0-.38-.1.63.63,0,0,0-.41.11.22.22,0,0,0-.1.18.25.25,0,0,0,.09.19,1.78,1.78,0,0,0,.56.19,3.19,3.19,0,0,1,.65.22.87.87,0,0,1,.33.3.9.9,0,0,1,.12.48.88.88,0,0,1-.55.82,2,2,0,0,1-.65.1,1.26,1.26,0,0,1-.87-.26,1.14,1.14,0,0,1-.36-.76m2.92,1h0v-3h.6v3Zm3.87,0h-.66l-.26-.68H43l-.25.68h-.64l1.17-3h.64ZM44,25.66h0l-.41-1.11-.41,1.11Zm2.44-1.81h1.19a3.42,3.42,0,0,1,.53,0,.77.77,0,0,1,.31.12.69.69,0,0,1,.23.25.73.73,0,0,1,.09.35.68.68,0,0,1-.11.39.62.62,0,0,1-.31.26.75.75,0,0,1,.42.27A.73.73,0,0,1,49,26a.81.81,0,0,1-.1.39.76.76,0,0,1-.25.31.87.87,0,0,1-.41.14c-.1,0-.34,0-.73,0h-1Zm.6.5h0V25h.83a.34.34,0,0,0,.25-.11.32.32,0,0,0,.09-.23.34.34,0,0,0-.08-.23.38.38,0,0,0-.23-.1h-.86Zm0,1.18h0v.81h.56a2.78,2.78,0,0,0,.41,0,.36.36,0,0,0,.22-.12.37.37,0,0,0,.09-.26.34.34,0,0,0-.07-.22.31.31,0,0,0-.19-.14,1.8,1.8,0,0,0-.53,0Zm5.11,1.31H51.5l-.26-.68H50.05l-.25.68h-.64l1.16-3H51Zm-1.11-1.18h0l-.42-1.11-.4,1.11Zm1.43,1.18h0v-3h.59l1.22,2v-2h.56v3h-.6L53,24.89v1.95Zm3,0h0v-3h.6v1.33l1.22-1.33h.81L57,25l1.18,1.82h-.78l-.82-1.4-.49.5v.9Z"/></svg>