<svg id="Layer_1" data-name="Layer 1" xmlns="http://www.w3.org/2000/svg" viewBox="0 0 65 30"><defs><style>.cls-1{fill:none;}.cls-2{fill:#1070b7;}.cls-3{fill:#25a9e0;opacity:0.49;}.cls-4{fill:#f7901e;}.cls-5{fill:#f69020;}</style></defs><path class="cls-1" d="M47.24,10.9a3.75,3.75,0,0,1,.15-.54c0,.07,0,.14-.07.2A1.69,1.69,0,0,0,47.24,10.9Z"/><path class="cls-2" d="M45.24,19.88a5.14,5.14,0,0,0-.84-.47,11.47,11.47,0,0,0,1.17-1.52,4.2,4.2,0,0,0,.37-1.77c0-.14,0-.28,0-.41a3.73,3.73,0,0,0-.86-2.21,5.25,5.25,0,0,0-4.19-1.79c-.46,0-.86,0-1.22,0H33.44a.9.9,0,0,0-.94.85v.69a.9.9,0,0,0,1,.83h.6a.23.23,0,0,1,.23.22v13.3a.89.89,0,0,0,.92.86h4.26a21.13,21.13,0,0,0,2.16-.12A8.51,8.51,0,0,0,44,27.73a5.51,5.51,0,0,0,2-1.66,4,4,0,0,0,.84-2.67h0a4.55,4.55,0,0,0-.43-2.07A4.31,4.31,0,0,0,45.24,19.88Zm-6.8-5.57a3.74,3.74,0,0,1,.66,0,6.53,6.53,0,0,1,1.2.11,2.37,2.37,0,0,1,.81.32,1.46,1.46,0,0,1,.47.54l0,.09a2.44,2.44,0,0,1,.15.93,2,2,0,0,1-.28,1.16,2.08,2.08,0,0,1-.73.57,3.4,3.4,0,0,1-1,.23c-.46,0-.92,0-1.27,0Zm3.92,10.18a2,2,0,0,1-.64.65,2.8,2.8,0,0,1-1,.38,5.38,5.38,0,0,1-1.27.14,6.69,6.69,0,0,1-1-.05h0V20.84c.49,0,1.09,0,1.65.07a3.89,3.89,0,0,1,1.3.33,2.32,2.32,0,0,1,.88.74,2.45,2.45,0,0,1,.33,1.41A2.21,2.21,0,0,1,42.36,24.49Z"/><path class="cls-2" d="M12.45,11.69h-4a1,1,0,0,0-.47.1l0,0,0,0a.85.85,0,0,0-.42.71h0v.69a.89.89,0,0,0,.93.84H9a.25.25,0,0,1,.24.19c0,.17,0,.36,0,.58V27.48h0v.08a1.24,1.24,0,0,0,0,.18.92.92,0,0,0,.91.69h2.25a.92.92,0,0,0,1-.86v-15A.91.91,0,0,0,12.45,11.69Z"/><path class="cls-2" d="M31.57,11.69H28.38a.93.93,0,0,0-.89.56c-.16.43-.48,1.18-.88,2.18L26,16c-.26.61-.54,1.32-.88,2.15S24.39,19.92,24,21c-.14.35-.29.72-.45,1.1-.16-.38-.31-.75-.45-1.1-.43-1.06-.8-2-1.14-2.82s-.61-1.54-.86-2.15l-.64-1.58c-.42-1-.72-1.75-.89-2.18a.93.93,0,0,0-.89-.56H15a.89.89,0,0,0-.93.85v.69a.88.88,0,0,0,.91.83h.57c.49,0,.6.42.93,1.22l5.17,12.6a.94.94,0,0,0,.88.56h2a1,1,0,0,0,.61-.21,1,1,0,0,0,.28-.35L30,16.73l.6-1.45c.07-.18.15-.32.21-.45l1-2.42.08-.21A.34.34,0,0,0,31.57,11.69Z"/><path class="cls-2" d="M47.39,10.36a5.2,5.2,0,0,1,.26-.53,6.4,6.4,0,0,1,.73-1.08A10.32,10.32,0,0,1,49.52,7.6,6.72,6.72,0,0,0,47.39,10.36Z"/><path class="cls-2" d="M47.24,10.9a2.2,2.2,0,0,0,0,.72A4.76,4.76,0,0,1,47.24,10.9Z"/><path class="cls-1" d="M49.83,7.34l-.31.26a14.12,14.12,0,0,1,1.63-1.19h0A12.41,12.41,0,0,0,49.83,7.34Z"/><path class="cls-2" d="M52.64,10.91c1-.46,1.29-.88,1.41-1.26a.82.82,0,0,0,0-.38A.46.46,0,0,0,53.93,9c-.08-.11-.25-.25-.69-.18a3.17,3.17,0,0,0-.62.18l-.11.05L52.63,9l-.27.13-.52.26L52,9.32a.76.76,0,0,1-.18.09,10.46,10.46,0,0,0-1.64,1,7.92,7.92,0,0,0-1.3,1.25,4,4,0,0,0-.69,1.2l0,.06a4.62,4.62,0,0,0-.15.74,3.44,3.44,0,0,0,.2,1.31l.06.14C48.27,15,48.38,13,52.64,10.91Z"/><path class="cls-2" d="M51.28,14.5a.43.43,0,0,0-.46-.06,3.75,3.75,0,0,0-1.18.78h0a2.89,2.89,0,0,0-.66.89,1.29,1.29,0,0,0,0,1.22.2.2,0,0,1,0,.08c0,.08.11.15.17.23a.71.71,0,0,1,0-.14,1.22,1.22,0,0,1,0-.32,1.76,1.76,0,0,1,.29-.58,1.67,1.67,0,0,1,.34-.36,3.43,3.43,0,0,1,.43-.32,8.31,8.31,0,0,0,.72-.49.89.89,0,0,0,.32-.4.5.5,0,0,0,0-.43A.44.44,0,0,0,51.28,14.5Z"/><path class="cls-2" d="M52.51,9.07,52,9.32l.35-.17Z"/><path class="cls-2" d="M52.36,9.15,52.63,9l-.12.05-.17.08L52,9.32l-.15.09Z"/><path class="cls-3" d="M52.45,6.25c.3-.15.58-.29.84-.4A8.81,8.81,0,0,0,52.45,6.25Z"/><path class="cls-4" d="M55.68,5.64c-.06-.11-.18-.28-.73-.25a4.89,4.89,0,0,0-1.5.39l-.16.07.18-.07c-.39.16-.81.36-1.28.61l.26-.14a2.44,2.44,0,0,1-.28.14,21.66,21.66,0,0,0-2,1.24,7.86,7.86,0,0,0-1.68,1.61,5.19,5.19,0,0,0-.85,1.5,3.56,3.56,0,0,0-.2,1.6,4.89,4.89,0,0,0,.2,1,1.62,1.62,0,0,0,.08.2,2.51,2.51,0,0,1,.16-.74c0-.07.06-.13.08-.19a1.63,1.63,0,0,1,.09-.19,1.19,1.19,0,0,1,.08-.2,2.25,2.25,0,0,0,.12-.21l.14-.22.15-.23.18-.24.21-.25.23-.27c.09-.09.17-.18.26-.26l.3-.28.33-.27.37-.28.4-.29.44-.28.49-.28.52-.28.56-.29L53.45,8a8.48,8.48,0,0,0,1.63-.93,2.63,2.63,0,0,0,.51-.49,1.35,1.35,0,0,0,.15-.26A.81.81,0,0,0,55.68,5.64Z"/><path class="cls-4" d="M53.47,5.78l-.18.07c-.26.11-.54.25-.84.4l-.26.14C52.66,6.14,53.08,5.94,53.47,5.78Z"/><path class="cls-2" d="M47.24,10.9a1.69,1.69,0,0,1,.08-.34c0-.06,0-.13.07-.2A6.72,6.72,0,0,1,49.52,7.6l.31-.26a12.41,12.41,0,0,1,1.32-.92h0A44,44,0,0,1,55.8,4.12a3,3,0,0,0,1.57-1.31.87.87,0,0,0,0-.84,1,1,0,0,0-.91-.41,3.6,3.6,0,0,0-.81.12A15.51,15.51,0,0,0,48,6.44a7.54,7.54,0,0,0-1,1.79,5,5,0,0,0-.26,1.21,5.18,5.18,0,0,0,.43,2.24v-.06A2.2,2.2,0,0,1,47.24,10.9Z"/><path class="cls-5" d="M52.52,12.32a.5.5,0,0,0-.13-.21.55.55,0,0,0-.58-.13,3.94,3.94,0,0,0-1.31.64,4.56,4.56,0,0,0-.39.27,4.38,4.38,0,0,0-1.47,1.86h0v0a2,2,0,0,0-.12.59,2.17,2.17,0,0,0,.1.82c0,.05,0,.08,0,.12s0-.12.07-.19l0-.08c.38-.88,1.28-1.62,2.87-2.48a1.71,1.71,0,0,0,.91-.94A.81.81,0,0,0,52.52,12.32Z"/><path class="cls-5" d="M50.28,17.27,50,17.1h0l0,0h0l-.27-.17-.09,0,0,0a1.27,1.27,0,0,0-.24.46.48.48,0,0,0,.16.56l.32.19a1.2,1.2,0,0,0,.23.11,1.3,1.3,0,0,0,.21,0h.08l.05,0a.1.1,0,0,0,0,0,.6.6,0,0,0,0-.7Z"/></svg>