<svg id="Layer_1" data-name="Layer 1" xmlns="http://www.w3.org/2000/svg" xmlns:xlink="http://www.w3.org/1999/xlink" viewBox="0 0 65 30"><defs><style>.cls-1{fill:none;}.cls-2{fill:#0067ac;}.cls-3{fill:#fff;}.cls-4{fill:#0082c9;}.cls-5{clip-path:url(#clip-path);}.cls-6{fill:#0184ca;}.cls-7{fill:#0286cc;}.cls-8{fill:#0388cd;}.cls-9{fill:#048ace;}.cls-10{fill:#058cd0;}.cls-11{fill:#068fd1;}.cls-12{fill:#0791d2;}.cls-13{fill:#0893d4;}.cls-14{fill:#0995d5;}.cls-15{fill:#0a97d7;}.cls-16{fill:#0b99d8;}.cls-17{fill:#0c9bd9;}.cls-18{fill:#0d9ddb;}.cls-19{fill:#0e9fdc;}.cls-20{fill:#0fa1dd;}.cls-21{fill:#10a4df;}.cls-22{fill:#11a6e0;}.cls-23{fill:#12a8e1;}.cls-24{fill:#13aae3;}.cls-25{fill:#14ace4;}.cls-26{fill:#15aee5;}.cls-27{fill:#16b0e7;}.cls-28{fill:#17b2e8;}.cls-29{fill:#18b4ea;}.cls-30{fill:#19b6eb;}.cls-31{fill:#1ab9ec;}.cls-32{fill:#1bbbee;}.cls-33{fill:#1cbdef;}.cls-34{fill:#1dbff0;}.cls-35{fill:#1ec1f2;}.cls-36{fill:#1fc3f3;}.cls-37{fill:#26c5f3;}.cls-38{fill:#2dc7f4;}.cls-39{fill:#35c9f4;}.cls-40{fill:#3ccbf5;}.cls-41{fill:#43cdf5;}.cls-42{fill:#4acff5;}.cls-43{fill:#52d1f6;}.cls-44{fill:#59d2f6;}.cls-45{fill:#60d4f6;}.cls-46{fill:#67d6f7;}.cls-47{fill:#6ed8f7;}.cls-48{fill:#76daf8;}.cls-49{fill:#7ddcf8;}.cls-50{fill:#84def8;}.cls-51{fill:#8be0f9;}.cls-52{fill:#93e2f9;}.cls-53{fill:#9ae4fa;}.cls-54{fill:#a1e6fa;}.cls-55{fill:#a8e8fa;}.cls-56{fill:#b0eafb;}.cls-57{fill:#b7ecfb;}.cls-58{fill:#beeefc;}.cls-59{fill:#c5f0fc;}.cls-60{fill:#ccf1fc;}.cls-61{fill:#d4f3fd;}.cls-62{fill:#dbf5fd;}.cls-63{fill:#e2f7fd;}.cls-64{fill:#e9f9fe;}.cls-65{fill:#f1fbfe;}.cls-66{fill:#f8fdff;}</style><clipPath id="clip-path"><path class="cls-1" d="M5.63,20.35A5.37,5.37,0,1,0,.26,15,5.38,5.38,0,0,0,5.63,20.35Z"/></clipPath></defs><polygon class="cls-2" points="65 11.83 63.07 11.83 60.69 14.14 61.15 11.83 59.47 11.83 58.23 18.16 59.91 18.16 60.42 15.53 61.91 18.16 63.95 18.16 61.93 14.78 65 11.83"/><path class="cls-2" d="M46.49,13.45c.2-1-.4-1.68-1.63-1.67H41.94L40.7,18.22h2.93a2.31,2.31,0,0,0,2.6-1.94,1.38,1.38,0,0,0-.5-1.55,2,2,0,0,0,.76-1.27m-1.8,2.75c-.08.41-.28.67-1,.71H42.56l.27-1.47h.93c1.07,0,1,.49.93.75m.22-2.57c-.08.4-.22.54-.67.56H43.07l.21-1.11h.95c.71,0,.75.14.68.55"/><polygon class="cls-2" points="19.52 11.72 18.13 15.47 17.69 11.73 16.42 11.73 14.58 15.48 14.59 11.74 13.01 11.75 13.01 18.28 14.54 18.28 16.51 14.59 17.08 18.27 18.62 18.27 21.09 11.71 19.52 11.72"/><path class="cls-2" d="M23.72,11.67c-1.22,0-2.77.58-3.3,3.34s.81,3.33,2,3.32,2.77-.59,3.3-3.34-.81-3.33-2-3.32m-1,5.3c-.23,0-.93,0-.55-2s1.08-2,1.31-2,.92,0,.55,2-1.08,2-1.31,2"/><path class="cls-2" d="M29.48,11.67c-1.22,0-2.77.58-3.3,3.34s.81,3.33,2,3.32S31,17.74,31.5,15s-.8-3.33-2-3.32m-1,5.31c-.23,0-.92,0-.55-2s1.08-2,1.31-2,.93,0,.55,2-1.08,2-1.31,2"/><path class="cls-2" d="M35.46,15.68a2.71,2.71,0,0,0,1.31-2.43c0-1.66-2-1.49-2-1.49h-2l-1.36,6.46h1.52L33.36,16H34a.52.52,0,0,1,.47.5c.06.59.15,1.73.15,1.73H36.1s-.14-1.57-.18-1.81a.88.88,0,0,0-.46-.75M34,13c.42,0,1.41-.33,1.24.85s-1.6,1-1.6,1Z"/><polygon class="cls-2" points="36.77 18.23 38.46 18.22 39.68 11.83 37.99 11.84 36.77 18.23"/><path class="cls-2" d="M49.47,11.81l-3.63,6.38h1.71L48.23,17h2l.14,1.2h1.59l-1-6.38Zm-.56,3.95,1-1.88.23,1.88Z"/><polygon class="cls-2" points="57.16 11.81 56.5 15.46 55.17 11.81 53.56 11.81 52.33 18.19 53.83 18.16 54.55 14.29 55.89 18.19 57.4 18.19 58.63 11.81 57.16 11.81"/><path class="cls-3" d="M11.26,15A5.63,5.63,0,1,1,5.63,9.37,5.64,5.64,0,0,1,11.26,15Z"/><path class="cls-4" d="M5.63,20.35A5.37,5.37,0,1,0,.26,15,5.38,5.38,0,0,0,5.63,20.35Z"/><g class="cls-5"><path class="cls-4" d="M5.65,17.42C8,17.42,10,18.07,10.9,19a5.4,5.4,0,0,0,.45-2.17,5.63,5.63,0,0,0-5.7-5.57A5.64,5.64,0,0,0,0,16.83,5.4,5.4,0,0,0,.41,19C1.27,18.07,3.29,17.42,5.65,17.42Z"/><path class="cls-6" d="M5.65,17.42c2.35,0,4.37.65,5.23,1.58a5.35,5.35,0,0,0,.45-2.16A5.62,5.62,0,0,0,5.65,11.3,5.62,5.62,0,0,0,0,16.84,5.35,5.35,0,0,0,.42,19C1.28,18.07,3.3,17.42,5.65,17.42Z"/><path class="cls-7" d="M5.65,17.43c2.35,0,4.36.64,5.22,1.56a5.26,5.26,0,0,0,.45-2.14,5.6,5.6,0,0,0-5.67-5.5A5.6,5.6,0,0,0,0,16.85,5.26,5.26,0,0,0,.43,19C1.29,18.07,3.3,17.43,5.65,17.43Z"/><path class="cls-8" d="M5.65,17.43c2.34,0,4.35.64,5.21,1.55a5.36,5.36,0,0,0,.44-2.12A5.57,5.57,0,0,0,5.65,11.4,5.57,5.57,0,0,0,0,16.86,5.13,5.13,0,0,0,.45,19C1.3,18.07,3.31,17.43,5.65,17.43Z"/><path class="cls-9" d="M5.65,17.44c2.33,0,4.33.63,5.19,1.54a5.15,5.15,0,0,0,.45-2.11,5.55,5.55,0,0,0-5.64-5.42A5.55,5.55,0,0,0,0,16.87,5.15,5.15,0,0,0,.46,19C1.31,18.07,3.32,17.44,5.65,17.44Z"/><path class="cls-10" d="M5.65,17.45c2.33,0,4.32.62,5.18,1.52a5.22,5.22,0,0,0,.44-2.09A5.52,5.52,0,0,0,5.65,11.5,5.52,5.52,0,0,0,0,16.88,5,5,0,0,0,.47,19C1.32,18.07,3.32,17.45,5.65,17.45Z"/><path class="cls-11" d="M5.65,17.45c2.32,0,4.31.62,5.16,1.51a4.92,4.92,0,0,0,.45-2.06,5.51,5.51,0,0,0-5.61-5.36A5.51,5.51,0,0,0,0,16.9,5.07,5.07,0,0,0,.48,19C1.34,18.07,3.33,17.45,5.65,17.45Z"/><path class="cls-12" d="M5.65,17.46c2.31,0,4.3.62,5.15,1.5a5.06,5.06,0,0,0,.44-2.05,5.48,5.48,0,0,0-5.59-5.32,5.49,5.49,0,0,0-5.6,5.32A4.91,4.91,0,0,0,.5,19C1.35,18.08,3.33,17.46,5.65,17.46Z"/><path class="cls-13" d="M5.65,17.46c2.31,0,4.29.62,5.13,1.49a4.78,4.78,0,0,0,.44-2,5.45,5.45,0,0,0-5.57-5.28A5.46,5.46,0,0,0,.07,16.92a4.78,4.78,0,0,0,.44,2C1.36,18.08,3.34,17.46,5.65,17.46Z"/><path class="cls-14" d="M5.65,17.47c2.3,0,4.27.61,5.12,1.47a4.84,4.84,0,0,0,.44-2,5.43,5.43,0,0,0-5.56-5.24A5.43,5.43,0,0,0,.08,16.93a4.84,4.84,0,0,0,.44,2C1.37,18.08,3.34,17.47,5.65,17.47Z"/><path class="cls-15" d="M5.65,17.48c2.29,0,4.26.6,5.11,1.46a4.82,4.82,0,0,0,.43-2,5.41,5.41,0,0,0-5.54-5.21A5.42,5.42,0,0,0,.1,16.94a4.79,4.79,0,0,0,.43,2C1.38,18.08,3.35,17.48,5.65,17.48Z"/><path class="cls-16" d="M5.64,17.48c2.3,0,4.26.6,5.1,1.45a4.74,4.74,0,0,0,.44-2,5.39,5.39,0,0,0-5.54-5.17A5.39,5.39,0,0,0,.11,17a4.59,4.59,0,0,0,.44,2C1.39,18.08,3.35,17.48,5.64,17.48Z"/><path class="cls-17" d="M5.64,17.49c2.29,0,4.25.59,5.09,1.43a4.61,4.61,0,0,0,.43-2,5.37,5.37,0,0,0-5.52-5.13A5.38,5.38,0,0,0,.12,17a4.61,4.61,0,0,0,.44,2C1.4,18.08,3.36,17.49,5.64,17.49Z"/><path class="cls-18" d="M5.64,17.49c2.28,0,4.24.59,5.07,1.42A4.52,4.52,0,0,0,11.15,17a5.35,5.35,0,0,0-5.51-5.09A5.34,5.34,0,0,0,.14,17a4.52,4.52,0,0,0,.43,1.94C1.41,18.08,3.36,17.49,5.64,17.49Z"/><path class="cls-19" d="M5.64,17.5c2.27,0,4.22.58,5.06,1.41A4.5,4.5,0,0,0,11.13,17a5.33,5.33,0,0,0-5.49-5.06A5.33,5.33,0,0,0,.15,17a4.34,4.34,0,0,0,.44,1.93C1.42,18.08,3.37,17.5,5.64,17.5Z"/><path class="cls-20" d="M5.64,17.51c2.27,0,4.21.57,5,1.39A4.39,4.39,0,0,0,11.12,17a5.3,5.3,0,0,0-5.48-5A5.31,5.31,0,0,0,.16,17,4.39,4.39,0,0,0,.6,18.9C1.43,18.08,3.37,17.51,5.64,17.51Z"/><path class="cls-21" d="M5.64,17.51c2.26,0,4.2.57,5,1.38A4.3,4.3,0,0,0,11.1,17a5.28,5.28,0,0,0-5.46-5A5.29,5.29,0,0,0,.18,17a4.3,4.3,0,0,0,.43,1.89C1.44,18.08,3.38,17.51,5.64,17.51Z"/><path class="cls-22" d="M5.64,17.52c2.25,0,4.19.56,5,1.37A4.43,4.43,0,0,0,11.09,17a5.26,5.26,0,0,0-5.45-4.94A5.27,5.27,0,0,0,.19,17a4.25,4.25,0,0,0,.43,1.88C1.45,18.08,3.39,17.52,5.64,17.52Z"/><path class="cls-23" d="M5.64,17.52c2.25,0,4.18.56,5,1.36A4.2,4.2,0,0,0,11.07,17a5.24,5.24,0,0,0-5.43-4.9A5.24,5.24,0,0,0,.21,17a4.2,4.2,0,0,0,.43,1.86C1.46,18.08,3.39,17.52,5.64,17.52Z"/><path class="cls-24" d="M5.64,17.53c2.24,0,4.16.55,5,1.34A4.22,4.22,0,0,0,11.06,17a5.22,5.22,0,0,0-5.42-4.87A5.23,5.23,0,0,0,.22,17a4.08,4.08,0,0,0,.43,1.84C1.47,18.08,3.4,17.53,5.64,17.53Z"/><path class="cls-25" d="M5.64,17.53c2.23,0,4.15.55,5,1.34A4.07,4.07,0,0,0,11,17c0-2.58-2.42-4.83-5.4-4.83S.23,14.46.23,17a4.21,4.21,0,0,0,.43,1.83C1.48,18.08,3.4,17.53,5.64,17.53Z"/><path class="cls-26" d="M5.64,17.54c2.23,0,4.14.55,5,1.32A4.09,4.09,0,0,0,11,17.05c0-2.55-2.42-4.79-5.39-4.79S.25,14.5.25,17.05a4.08,4.08,0,0,0,.42,1.81C1.49,18.09,3.41,17.54,5.64,17.54Z"/><path class="cls-27" d="M5.64,17.55c2.22,0,4.13.54,4.94,1.3A3.88,3.88,0,0,0,11,17.06c0-2.53-2.41-4.75-5.37-4.75S.26,14.53.26,17.06a3.88,3.88,0,0,0,.43,1.79C1.5,18.09,3.41,17.55,5.64,17.55Z"/><path class="cls-28" d="M5.64,17.55c2.21,0,4.12.54,4.93,1.3A4,4,0,0,0,11,17.08c0-2.51-2.4-4.73-5.36-4.73S.28,14.57.28,17.08A3.94,3.94,0,0,0,.7,18.85C1.51,18.09,3.42,17.55,5.64,17.55Z"/><path class="cls-29" d="M5.63,17.56c2.22,0,4.12.53,4.93,1.28A3.89,3.89,0,0,0,11,17.09c0-2.49-2.39-4.69-5.35-4.69S.29,14.6.29,17.09a3.86,3.86,0,0,0,.42,1.75C1.52,18.09,3.42,17.56,5.63,17.56Z"/><path class="cls-30" d="M5.63,17.56c2.21,0,4.1.53,4.91,1.27A3.82,3.82,0,0,0,11,17.1c0-2.46-2.39-4.65-5.34-4.65S.3,14.64.3,17.1a3.69,3.69,0,0,0,.43,1.73C1.53,18.09,3.43,17.56,5.63,17.56Z"/><path class="cls-31" d="M5.63,17.57c2.2,0,4.09.52,4.9,1.26A3.77,3.77,0,0,0,11,17.11c0-2.44-2.38-4.61-5.32-4.61S.32,14.67.32,17.11a3.77,3.77,0,0,0,.42,1.72C1.54,18.09,3.43,17.57,5.63,17.57Z"/><path class="cls-32" d="M5.63,17.58c2.2,0,4.08.51,4.88,1.24a3.7,3.7,0,0,0,.43-1.7c0-2.41-2.38-4.57-5.31-4.57S.33,14.71.33,17.12a3.69,3.69,0,0,0,.42,1.7C1.55,18.09,3.44,17.58,5.63,17.58Z"/><path class="cls-33" d="M5.63,17.58c2.19,0,4.07.51,4.87,1.23a3.58,3.58,0,0,0,.42-1.68c0-2.39-2.37-4.54-5.29-4.54S.35,14.74.35,17.13a3.57,3.57,0,0,0,.41,1.68C1.57,18.09,3.44,17.58,5.63,17.58Z"/><path class="cls-34" d="M5.63,17.59c2.18,0,4.06.5,4.85,1.21a3.5,3.5,0,0,0,.42-1.66c0-2.36-2.36-4.5-5.27-4.5S.36,14.78.36,17.14A3.5,3.5,0,0,0,.78,18.8C1.58,18.09,3.45,17.59,5.63,17.59Z"/><path class="cls-35" d="M5.63,17.59c2.18,0,4,.5,4.84,1.21a3.46,3.46,0,0,0,.42-1.65c0-2.34-2.36-4.46-5.26-4.46S.37,14.81.37,17.15A3.46,3.46,0,0,0,.79,18.8C1.59,18.09,3.46,17.59,5.63,17.59Z"/><path class="cls-36" d="M5.63,17.6c2.17,0,4,.49,4.83,1.19a3.52,3.52,0,0,0,.41-1.63c0-2.31-2.34-4.42-5.24-4.42S.39,14.85.39,17.16A3.37,3.37,0,0,0,.8,18.79C1.6,18.09,3.46,17.6,5.63,17.6Z"/><path class="cls-37" d="M5.63,17.61c2.17,0,4,.49,4.82,1.19a3.4,3.4,0,0,0,.42-1.62c0-2.3-2.35-4.4-5.24-4.4S.39,14.88.39,17.18A3.37,3.37,0,0,0,.81,18.8C1.6,18.1,3.46,17.61,5.63,17.61Z"/><path class="cls-38" d="M5.63,17.63c2.16,0,4,.48,4.81,1.17a3.3,3.3,0,0,0,.42-1.61c0-2.28-2.34-4.37-5.23-4.37S.4,14.91.4,17.19A3.41,3.41,0,0,0,.81,18.8C1.61,18.11,3.47,17.63,5.63,17.63Z"/><path class="cls-39" d="M5.63,17.64c2.16,0,4,.48,4.81,1.17a3.4,3.4,0,0,0,.41-1.6c0-2.27-2.34-4.34-5.22-4.34S.41,14.94.41,17.21a3.28,3.28,0,0,0,.41,1.6C1.61,18.12,3.47,17.64,5.63,17.64Z"/><path class="cls-40" d="M5.63,17.65a8.2,8.2,0,0,1,4.8,1.16,3.22,3.22,0,0,0,.42-1.58c0-2.26-2.34-4.32-5.22-4.32S.42,15,.42,17.23a3.21,3.21,0,0,0,.41,1.58A8.2,8.2,0,0,1,5.63,17.65Z"/><path class="cls-41" d="M5.63,17.67c2.15,0,4,.47,4.79,1.15a3.22,3.22,0,0,0,.42-1.58C10.84,15,8.51,13,5.63,13S.42,15,.42,17.24a3.32,3.32,0,0,0,.41,1.58C1.62,18.14,3.48,17.67,5.63,17.67Z"/><path class="cls-42" d="M5.63,17.68c2.15,0,4,.47,4.79,1.15a3.28,3.28,0,0,0,.41-1.57C10.83,15,8.5,13,5.63,13s-5.2,2-5.2,4.26a3.17,3.17,0,0,0,.41,1.57C1.63,18.15,3.48,17.68,5.63,17.68Z"/><path class="cls-43" d="M5.63,17.69a8.25,8.25,0,0,1,4.78,1.14,3.1,3.1,0,0,0,.41-1.55C10.82,15.07,8.5,13,5.63,13s-5.19,2-5.19,4.24a3.1,3.1,0,0,0,.41,1.55C1.63,18.16,3.48,17.69,5.63,17.69Z"/><path class="cls-44" d="M5.63,17.71a8.34,8.34,0,0,1,4.78,1.13,3.2,3.2,0,0,0,.41-1.55c0-2.19-2.33-4.2-5.19-4.2s-5.19,2-5.19,4.2a3.2,3.2,0,0,0,.41,1.55A8.34,8.34,0,0,1,5.63,17.71Z"/><path class="cls-45" d="M5.63,17.72a8.42,8.42,0,0,1,4.77,1.12,3.1,3.1,0,0,0,.41-1.53c0-2.18-2.32-4.18-5.18-4.18s-5.18,2-5.18,4.18a3.1,3.1,0,0,0,.41,1.53A8.42,8.42,0,0,1,5.63,17.72Z"/><path class="cls-46" d="M5.63,17.74a8.37,8.37,0,0,1,4.76,1.11,3.09,3.09,0,0,0,.41-1.52c0-2.17-2.31-4.16-5.17-4.16s-5.17,2-5.17,4.16a3,3,0,0,0,.41,1.52A8.37,8.37,0,0,1,5.63,17.74Z"/><path class="cls-47" d="M5.63,17.75a8.39,8.39,0,0,1,4.76,1.11,3.12,3.12,0,0,0,.41-1.52c0-2.14-2.32-4.12-5.17-4.12S.47,15.2.47,17.34a3.08,3.08,0,0,0,.4,1.52A8.39,8.39,0,0,1,5.63,17.75Z"/><path class="cls-48" d="M5.63,17.76a8.45,8.45,0,0,1,4.75,1.1,3,3,0,0,0,.41-1.5c0-2.13-2.31-4.1-5.16-4.1s-5.16,2-5.16,4.1a3,3,0,0,0,.41,1.5A8.45,8.45,0,0,1,5.63,17.76Z"/><path class="cls-49" d="M5.63,17.78a8.42,8.42,0,0,1,4.74,1.09,3,3,0,0,0,.41-1.5c0-2.11-2.31-4.07-5.15-4.07s-5.15,2-5.15,4.07a2.92,2.92,0,0,0,.41,1.5A8.42,8.42,0,0,1,5.63,17.78Z"/><path class="cls-50" d="M5.63,17.79a8.54,8.54,0,0,1,4.74,1.08,2.93,2.93,0,0,0,.4-1.48c0-2.1-2.3-4-5.14-4s-5.14,1.94-5.14,4a2.93,2.93,0,0,0,.4,1.48A8.52,8.52,0,0,1,5.63,17.79Z"/><path class="cls-51" d="M5.63,17.8a8.48,8.48,0,0,1,4.73,1.08,2.93,2.93,0,0,0,.41-1.47c0-2.09-2.3-4-5.14-4s-5.14,1.93-5.14,4A2.93,2.93,0,0,0,.9,18.88,8.5,8.5,0,0,1,5.63,17.8Z"/><path class="cls-52" d="M5.63,17.82a8.48,8.48,0,0,1,4.72,1.07,2.93,2.93,0,0,0,.41-1.47c0-2.07-2.3-4-5.13-4S.5,15.35.5,17.42a2.84,2.84,0,0,0,.41,1.47A8.45,8.45,0,0,1,5.63,17.82Z"/><path class="cls-53" d="M5.63,17.83a8.57,8.57,0,0,1,4.72,1.06,2.82,2.82,0,0,0,.4-1.45c0-2.05-2.29-4-5.12-4s-5.12,1.91-5.12,4a2.82,2.82,0,0,0,.4,1.45A8.57,8.57,0,0,1,5.63,17.83Z"/><path class="cls-54" d="M5.63,17.84a8.54,8.54,0,0,1,4.71,1.06,2.83,2.83,0,0,0,.41-1.44c0-2-2.29-3.94-5.12-3.94S.51,15.42.51,17.46A2.83,2.83,0,0,0,.92,18.9,8.54,8.54,0,0,1,5.63,17.84Z"/><path class="cls-55" d="M5.63,17.86a8.68,8.68,0,0,1,4.71,1,2.85,2.85,0,0,0,.4-1.43c0-2-2.29-3.9-5.11-3.9S.52,15.45.52,17.47A2.67,2.67,0,0,0,.93,18.9,8.61,8.61,0,0,1,5.63,17.86Z"/><path class="cls-56" d="M5.63,17.87a8.64,8.64,0,0,1,4.7,1,2.72,2.72,0,0,0,.4-1.42c0-2-2.28-3.88-5.1-3.88S.53,15.48.53,17.49a2.72,2.72,0,0,0,.4,1.42A8.64,8.64,0,0,1,5.63,17.87Z"/><path class="cls-57" d="M5.63,17.89a8.58,8.58,0,0,1,4.69,1,2.71,2.71,0,0,0,.4-1.41c0-2-2.28-3.86-5.09-3.86S.54,15.51.54,17.51a2.71,2.71,0,0,0,.4,1.41A8.58,8.58,0,0,1,5.63,17.89Z"/><path class="cls-58" d="M5.63,17.9a8.71,8.71,0,0,1,4.69,1,2.77,2.77,0,0,0,.4-1.4c0-2-2.28-3.82-5.09-3.82S.54,15.54.54,17.52A2.66,2.66,0,0,0,1,18.92,8.67,8.67,0,0,1,5.63,17.9Z"/><path class="cls-59" d="M5.63,17.91a8.67,8.67,0,0,1,4.68,1,2.67,2.67,0,0,0,.4-1.39c0-2-2.27-3.8-5.08-3.8S.55,15.57.55,17.54A2.67,2.67,0,0,0,1,18.93,8.67,8.67,0,0,1,5.63,17.91Z"/><path class="cls-60" d="M5.63,17.93a8.76,8.76,0,0,1,4.67,1,2.57,2.57,0,0,0,.4-1.37c0-1.95-2.27-3.78-5.07-3.78S.56,15.61.56,17.56A2.57,2.57,0,0,0,1,18.93,8.76,8.76,0,0,1,5.63,17.93Z"/><path class="cls-61" d="M5.63,17.94a8.78,8.78,0,0,1,4.67,1,2.66,2.66,0,0,0,.4-1.37c0-1.93-2.27-3.74-5.07-3.74S.56,15.64.56,17.57A2.66,2.66,0,0,0,1,18.94,8.76,8.76,0,0,1,5.63,17.94Z"/><path class="cls-62" d="M5.63,18a8.74,8.74,0,0,1,4.66,1,2.66,2.66,0,0,0,.4-1.36c0-1.92-2.27-3.72-5.06-3.72S.57,15.67.57,17.59A2.56,2.56,0,0,0,1,19,8.74,8.74,0,0,1,5.63,18Z"/><path class="cls-63" d="M5.63,18a8.89,8.89,0,0,1,4.66,1,2.58,2.58,0,0,0,.39-1.34c0-1.91-2.26-3.69-5-3.69s-5,1.78-5,3.69A2.5,2.5,0,0,0,1,19,8.8,8.8,0,0,1,5.63,18Z"/><path class="cls-64" d="M5.63,18a8.83,8.83,0,0,1,4.65,1,2.56,2.56,0,0,0,.4-1.34c0-1.89-2.26-3.66-5-3.66s-5,1.77-5,3.66A2.55,2.55,0,0,0,1,19,8.83,8.83,0,0,1,5.63,18Z"/><path class="cls-65" d="M5.63,18a8.78,8.78,0,0,1,4.64,1,2.55,2.55,0,0,0,.4-1.33c0-1.88-2.26-3.64-5-3.64s-5,1.76-5,3.64A2.46,2.46,0,0,0,1,19,8.81,8.81,0,0,1,5.63,18Z"/><path class="cls-66" d="M5.63,18a8.94,8.94,0,0,1,4.64,1,2.47,2.47,0,0,0,.39-1.31c0-1.86-2.25-3.61-5-3.61s-5,1.75-5,3.61A2.4,2.4,0,0,0,1,19,8.87,8.87,0,0,1,5.63,18Z"/><path class="cls-3" d="M5.63,18a8.9,8.9,0,0,1,4.63,1,2.45,2.45,0,0,0,.39-1.31c0-1.84-2.25-3.58-5-3.58s-5,1.74-5,3.58A2.45,2.45,0,0,0,1,19,8.9,8.9,0,0,1,5.63,18Z"/></g><path class="cls-4" d="M5.63,16.33a14.16,14.16,0,0,0-4.9.83,5.36,5.36,0,0,0,9.8,0A14.16,14.16,0,0,0,5.63,16.33Z"/></svg>