<svg id="Layer_1" data-name="Layer 1" xmlns="http://www.w3.org/2000/svg" viewBox="0 0 65 30"><defs><style>.cls-1{fill:#ec1c2b;}.cls-2{fill:#00377c;}</style></defs><path class="cls-1" d="M14.17,23.4c0,.44.56.5.9.5h.28c.8,0,.8-.35.8-.49a1,1,0,0,1,0-.24V6.6c0-.44-.56-.5-.9-.5h-.18c-.34,0-.9.06-.9.5V23.4Z"/><path class="cls-1" d="M3.65,23.4c0,.44.55.5.89.5h.29c.8,0,.79-.35.79-.49V6.6c0-.44-.55-.5-.9-.5H4.54c-.34,0-.9.06-.89.5,0,.09,0,.18,0,.27V23.13a.1.1,0,0,0,0,0Z"/><path class="cls-1" d="M7.16,23.4c0,.44.55.5.89.5h.29c.8,0,.79-.35.79-.49V6.6c0-.44-.56-.5-.9-.5H8.05c-.34,0-.9.06-.89.5V23.4Z"/><path class="cls-1" d="M10.66,23.4c0,.44.56.5.9.5h.28c.81,0,.8-.35.8-.49V6.6c0-.44-.56-.5-.9-.5h-.18c-.34,0-.9.06-.9.5V23.4Z"/><path class="cls-1" d="M1.49,14c-.44,0-.49.56-.49.9v.28c.05.8.35.8.49.8H18.3c.44,0,.49-.56.49-.9v-.18c0-.34-.05-.9-.49-.9H1.49Z"/><path class="cls-2" d="M43.31,7.4c-4.73,0-6.84,2.33-6.84,7.56s2.2,7.6,6.71,7.63h.22c4.54,0,6.74-2.52,6.74-7.63S48,7.4,43.31,7.4m0,13h0c-2.71,0-3.77-1.51-3.77-5.42s1-5.28,3.74-5.28h.09c2.74,0,3.75,1.43,3.75,5.28S46,20.35,43.32,20.35"/><path class="cls-2" d="M24.31,21.43c1,.75,2.26,1.06,4.36,1.06h.14c2.11,0,3.42-.31,4.37-1.06,1.38-1,1.62-2.28,1.62-4.65V8.26a.55.55,0,0,0-.13-.42,2.17,2.17,0,0,0-1.45-.34,2.13,2.13,0,0,0-1.43.34.48.48,0,0,0-.13.42v8.9c0,1.48,0,1.79-.66,2.34a3.67,3.67,0,0,1-2.26.55,3.64,3.64,0,0,1-2.25-.55c-.66-.55-.66-.85-.66-2.31V8.26a.51.51,0,0,0-.13-.42,2.13,2.13,0,0,0-1.43-.34,2.14,2.14,0,0,0-1.44.34.52.52,0,0,0-.14.42v8.52c0,2.37.24,3.61,1.62,4.65"/><path class="cls-2" d="M62,8.39c-.78-.58-1.71-.79-3.56-.79H52.31a.5.5,0,0,0-.5.5V21.89a.5.5,0,0,0,.5.5h6.38c1.73,0,2.94-.05,3.94-.81A4.14,4.14,0,0,0,64,18.22a3.63,3.63,0,0,0-1.31-3.08,4.09,4.09,0,0,0-1.21-.58l-.27-.1.26-.13c1.25-.59,1.7-1.41,1.68-3A3.65,3.65,0,0,0,62,8.39M54.9,9.67h3.4c1.76,0,1.9.89,1.9,2.06,0,1.39-.64,2-2.14,2H54.9Zm3.33,10.6H54.9V15.81h3.57c2,0,2.38.87,2.38,2.26,0,1.87-.69,2.2-2.62,2.2"/></svg>