<?xml version="1.0" encoding="UTF-8" standalone="no"?>
<!DOCTYPE svg PUBLIC "-//W3C//DTD SVG 1.1//EN" "http://www.w3.org/Graphics/SVG/1.1/DTD/svg11.dtd">
<svg version="1.1" xmlns="http://www.w3.org/2000/svg" xmlns:xlink="http://www.w3.org/1999/xlink" preserveAspectRatio="xMidYMid meet" viewBox="-0.8626761701000873 9.605946880684968 1097.5099382986148 261.7973084613652" width="1093.51" height="257.8"><defs><path d="M1.89 194.88C1.89 194.88 2.03 202.96 19.04 212.54C36.05 222.13 114.61 267.5 114.61 267.5C116.02 265.8 123.09 257.3 135.81 242L12.28 178.09C6.74 187.05 3.27 192.64 1.89 194.88Z" id="b2LhhasAo"></path><path d="M225.92 204.54L169.42 204.54L169.42 74.31C195.55 74.31 210.06 74.31 212.96 74.31C220.12 74.31 225.92 80.11 225.92 87.26C225.92 102.9 225.92 141.99 225.92 204.54Z" id="e2gzPMzthm"></path><path d="M111.69 265.3L82.88 232.97L195.13 158.33C213.35 185.33 223.47 200.33 225.49 203.33C226.29 204.51 225.94 206.11 224.73 206.83C214.57 212.86 133.36 261.1 123.21 267.13C119.45 269.36 114.62 268.6 111.69 265.3" id="a1FBcMjjbe"></path><path d="M0.14 77.38C0.14 146.58 0.14 185.03 0.14 192.72C0.14 195.97 1.87 198.98 4.69 200.6C14.68 206.37 94.59 252.51 104.58 258.27C107.39 259.9 110.86 259.9 113.68 258.27C123.67 252.51 203.58 206.37 213.57 200.6C216.38 198.98 218.12 195.97 218.12 192.72C218.12 181.19 218.12 88.91 218.12 77.38C218.12 74.13 216.38 71.12 213.57 69.5C203.58 63.73 123.67 17.59 113.68 11.82C110.86 10.2 107.39 10.2 104.58 11.82C94.59 17.59 14.68 63.73 4.69 69.5C1.87 71.12 0.14 74.13 0.14 77.38" id="b8BZqyq1g"></path><path d="M144.3 127.49L128.45 127.49L128.45 120.1C137.96 120.1 143.24 120.1 144.3 120.1C146.34 120.1 147.99 121.75 147.99 123.79C147.99 125.83 146.34 127.49 144.3 127.49M144.3 155.63L128.45 155.63L128.45 148.24C137.96 148.24 143.24 148.24 144.3 148.24C146.34 148.24 147.99 149.9 147.99 151.94C147.99 153.98 146.34 155.63 144.3 155.63M168.74 136.38C175.91 133.05 180.88 125.79 180.88 117.36C180.88 105.79 171.5 96.4 159.93 96.4C156.86 96.4 141.52 96.4 113.9 96.4L104.48 96.4L95.44 96.4L81.27 138.52L67.9 96.4L32.06 96.4C49.37 145.3 58.99 172.47 60.92 177.91C60.92 177.91 79.78 178.09 95.98 178.09C102.69 178.09 156.3 178.09 163 178.09C174.74 178.09 184.25 168.57 184.25 156.84C184.25 147.09 177.69 138.88 168.74 136.38" id="fd1FDqNRY"></path><path d="M263.4 96.92L309.4 96.92L321.5 135.31L334.65 96.92L380.82 96.92L347.96 189.18L295.95 189.18L263.4 96.92Z" id="e4QDrad8Ob"></path><path d="M384.54 96.92L425.01 96.92L425.01 189.18L384.54 189.18L384.54 96.92Z" id="i2PBiVNjJ9"></path><path d="M434.73 96.92L516.18 96.92L516.18 126.54L475.98 126.54L475.98 132.89L516.18 132.89L516.18 151.96L476.49 151.96L476.49 158.7L516.18 158.7L516.18 189.18L434.73 189.18L434.73 96.92Z" id="moEKoXx2D"></path><path d="M523.45 96.92L619.16 96.92L619.16 126.28L591.41 126.28L591.41 188.92L550.55 188.92L550.55 126.32L523.45 126.32L523.45 96.92Z" id="akvHU179Z"></path><path d="M780.21 148.46L787.82 127.79L794.3 148.46L780.21 148.46ZM816.44 96.4L761.1 96.4L725.82 188.58L764.9 189.27L771.47 175.09L803.12 175.09L808.48 189.27L849.81 189.27L816.44 96.4Z" id="a3dofjNHvZ"></path><path d="M857.25 96.4L897.71 96.4L924.69 137.21L924.69 96.4L965.85 96.4L965.85 188.58L922.79 188.58L897.54 147.42L897.54 188.58L857.25 188.58L857.25 96.4Z" id="a1Rk9vPKx"></path><path d="M974.84 96.4L1023.78 96.4L1023.78 131.33L1045.74 96.4L1091.4 96.4L1062.69 138.42L1093.65 188.58L1043.15 188.58L1023.78 150.88L1023.78 188.58L974.84 188.58L974.84 96.4Z" id="b5foJ6LIDV"></path><path d="M680.9 131.72L663 131.72L663 123.68C673.74 123.68 679.71 123.68 680.9 123.68C683.12 123.68 684.92 125.48 684.92 127.7C684.92 129.92 683.12 131.72 680.9 131.72M680.9 163.85L663 163.85L663 155.8C673.74 155.8 679.71 155.8 680.9 155.8C683.12 155.8 684.92 157.6 684.92 159.82C684.92 162.04 683.12 163.85 680.9 163.85M709.8 141.76C717.11 139.2 722.36 132.26 722.36 124.07C722.36 123.82 722.36 121.81 722.36 121.56C722.36 107.95 711.33 96.92 697.72 96.92C692.89 96.92 668.77 96.92 625.35 96.92L625.35 141.26L625.35 142.83C625.35 169.77 625.35 184.74 625.35 187.73C625.35 188.34 625.84 188.83 626.45 188.83C634.14 188.83 695.62 188.83 703.3 188.83C716.07 188.83 726.43 178.48 726.43 165.71C726.43 154.74 719.51 145.38 709.8 141.76" id="b85DhSKQL"></path></defs><g><g><use xlink:href="#b2LhhasAo" opacity="1" fill="#f89734" fill-opacity="1"></use><g><use xlink:href="#b2LhhasAo" opacity="1" fill-opacity="0" stroke="#000000" stroke-width="1" stroke-opacity="0"></use></g></g><g><use xlink:href="#e2gzPMzthm" opacity="1" fill="#f89734" fill-opacity="1"></use><g><use xlink:href="#e2gzPMzthm" opacity="1" fill-opacity="0" stroke="#000000" stroke-width="1" stroke-opacity="0"></use></g></g><g><use xlink:href="#a1FBcMjjbe" opacity="1" fill="#ffdf4c" fill-opacity="1"></use><g><use xlink:href="#a1FBcMjjbe" opacity="1" fill-opacity="0" stroke="#000000" stroke-width="1" stroke-opacity="0"></use></g></g><g><use xlink:href="#b8BZqyq1g" opacity="1" fill="#ffc32d" fill-opacity="1"></use><g><use xlink:href="#b8BZqyq1g" opacity="1" fill-opacity="0" stroke="#000000" stroke-width="1" stroke-opacity="0"></use></g></g><g><use xlink:href="#fd1FDqNRY" opacity="1" fill="#dc353d" fill-opacity="1"></use><g><use xlink:href="#fd1FDqNRY" opacity="1" fill-opacity="0" stroke="#000000" stroke-width="1" stroke-opacity="0"></use></g></g><g><use xlink:href="#e4QDrad8Ob" opacity="1" fill="#325da9" fill-opacity="1"></use><g><use xlink:href="#e4QDrad8Ob" opacity="1" fill-opacity="0" stroke="#000000" stroke-width="1" stroke-opacity="0"></use></g></g><g><use xlink:href="#i2PBiVNjJ9" opacity="1" fill="#325da9" fill-opacity="1"></use><g><use xlink:href="#i2PBiVNjJ9" opacity="1" fill-opacity="0" stroke="#000000" stroke-width="1" stroke-opacity="0"></use></g></g><g><use xlink:href="#moEKoXx2D" opacity="1" fill="#325da9" fill-opacity="1"></use><g><use xlink:href="#moEKoXx2D" opacity="1" fill-opacity="0" stroke="#000000" stroke-width="1" stroke-opacity="0"></use></g></g><g><use xlink:href="#akvHU179Z" opacity="1" fill="#325da9" fill-opacity="1"></use><g><use xlink:href="#akvHU179Z" opacity="1" fill-opacity="0" stroke="#000000" stroke-width="1" stroke-opacity="0"></use></g></g><g><use xlink:href="#a3dofjNHvZ" opacity="1" fill="#dc353d" fill-opacity="1"></use><g><use xlink:href="#a3dofjNHvZ" opacity="1" fill-opacity="0" stroke="#000000" stroke-width="1" stroke-opacity="0"></use></g></g><g><use xlink:href="#a1Rk9vPKx" opacity="1" fill="#dc353d" fill-opacity="1"></use><g><use xlink:href="#a1Rk9vPKx" opacity="1" fill-opacity="0" stroke="#000000" stroke-width="1" stroke-opacity="0"></use></g></g><g><use xlink:href="#b5foJ6LIDV" opacity="1" fill="#dc353d" fill-opacity="1"></use><g><use xlink:href="#b5foJ6LIDV" opacity="1" fill-opacity="0" stroke="#000000" stroke-width="1" stroke-opacity="0"></use></g></g><g><use xlink:href="#b85DhSKQL" opacity="1" fill="#dc353d" fill-opacity="1"></use><g><use xlink:href="#b85DhSKQL" opacity="1" fill-opacity="0" stroke="#000000" stroke-width="1" stroke-opacity="0"></use></g></g></g></svg>