<svg width="200" height="160" viewBox="0 0 200 160" fill="none" xmlns="http://www.w3.org/2000/svg">
<path d="M198.455 1.80893V158.191H1.545V1.80893H198.455ZM200 0H0V160H200V0Z" fill="black"/>
<path d="M15.6817 18.0893H61.3364V51.9163H15.6817V18.0893Z" stroke="black" stroke-width="2" stroke-miterlimit="10"/>
<path d="M137.814 18.0893H183.469V79.9548H137.814V18.0893Z" stroke="black" stroke-width="2" stroke-miterlimit="10"/>
<path d="M77.0954 18.0893H122.75V98.6772H77.0954V18.0893Z" stroke="black" stroke-width="2" stroke-miterlimit="10"/>
<path d="M15.6817 159.005V82.8491H61.3364V159.005" stroke="black" stroke-width="2" stroke-miterlimit="10"/>
<path d="M137.814 159.096V109.259H183.469V159.096" stroke="black" stroke-width="2" stroke-miterlimit="10"/>
<path d="M77.0954 159.819V128.705H122.75V160" stroke="black" stroke-width="2" stroke-miterlimit="10"/>
<path d="M123.677 114.053H76.4002" stroke="black" stroke-width="1.5" stroke-miterlimit="10"/>
<path d="M97.1804 108.626H76.4002" stroke="black" stroke-width="1.5" stroke-miterlimit="10"/>
<path d="M184.164 95.5116H137.119" stroke="black" stroke-width="1.5" stroke-miterlimit="10"/>
<path d="M157.899 90.0848H137.119" stroke="black" stroke-width="1.5" stroke-miterlimit="10"/>
<path d="M60.5639 67.2923H14.9092" stroke="black" stroke-width="1.5" stroke-miterlimit="10"/>
<path d="M34.9942 61.8655H14.9092" stroke="black" stroke-width="1.5" stroke-miterlimit="10"/>
</svg>
