<svg width="200" height="161" viewBox="0 0 200 161" fill="none" xmlns="http://www.w3.org/2000/svg">
<path d="M198.455 1.80893V158.191H1.545V1.80893H198.455ZM200 0H0V160H200V0Z" fill="black"/>
<path d="M15.9907 18.7224H71.9197V66.026H15.9907V18.7224Z" stroke="black" stroke-width="2" stroke-miterlimit="10"/>
<path d="M71.9196 18.7224H127.849V66.026H71.9196V18.7224Z" stroke="black" stroke-width="2" stroke-miterlimit="10"/>
<path d="M127.849 18.7224H183.778V66.026H127.849V18.7224Z" stroke="black" stroke-width="2" stroke-miterlimit="10"/>
<path d="M15.9907 66.2069H71.9197V113.51H15.9907V66.2069Z" stroke="black" stroke-width="2" stroke-miterlimit="10"/>
<path d="M71.9196 66.2069H127.849V113.51H71.9196V66.2069Z" stroke="black" stroke-width="2" stroke-miterlimit="10"/>
<path d="M127.849 66.2069H183.778V113.51H127.849V66.2069Z" stroke="black" stroke-width="2" stroke-miterlimit="10"/>
<path d="M15.9907 113.239H71.9197V159.096H15.9907V113.239Z" stroke="black" stroke-width="2" stroke-miterlimit="10"/>
<path d="M71.9196 113.239H127.849V159.096H71.9196V113.239Z" stroke="black" stroke-width="2" stroke-miterlimit="10"/>
<path d="M127.849 113.239H183.778V159.096H127.849V113.239Z" stroke="black" stroke-width="2" stroke-miterlimit="10"/>
</svg>
