<svg width="200" height="160" viewBox="0 0 200 160" fill="none" xmlns="http://www.w3.org/2000/svg">
<path d="M198.455 1.80893V158.191H1.545V1.80893H198.455ZM200 0H0V160H200V0Z" fill="black"/>
<path d="M15.5272 19.0842H49.0537V43.8666H15.5272V19.0842Z" stroke="black" stroke-width="2" stroke-miterlimit="10"/>
<path d="M60.5639 19.0842H94.0904V43.8666H60.5639V19.0842Z" stroke="black" stroke-width="2" stroke-miterlimit="10"/>
<path d="M15.5272 53.3635H49.0537V78.1459H15.5272V53.3635Z" stroke="black" stroke-width="2" stroke-miterlimit="10"/>
<path d="M60.5639 53.3635H94.0904V78.1459H60.5639V53.3635Z" stroke="black" stroke-width="2" stroke-miterlimit="10"/>
<path d="M15.5272 87.2809H49.0537V112.063H15.5272V87.2809Z" stroke="black" stroke-width="2" stroke-miterlimit="10"/>
<path d="M60.5639 87.2809H94.0904V112.063H60.5639V87.2809Z" stroke="black" stroke-width="2" stroke-miterlimit="10"/>
<path d="M104.519 19.0842H138.046V43.8666H104.519V19.0842Z" stroke="black" stroke-width="2" stroke-miterlimit="10"/>
<path d="M149.556 19.0842H183.082V43.8666H149.556V19.0842Z" stroke="black" stroke-width="2" stroke-miterlimit="10"/>
<path d="M104.519 53.3635H138.046V78.1459H104.519V53.3635Z" stroke="black" stroke-width="2" stroke-miterlimit="10"/>
<path d="M149.556 53.3635H183.082V78.1459H149.556V53.3635Z" stroke="black" stroke-width="2" stroke-miterlimit="10"/>
<path d="M104.519 87.2809H138.046V112.063H104.519V87.2809Z" stroke="black" stroke-width="2" stroke-miterlimit="10"/>
<path d="M149.556 87.2809H183.082V112.063H149.556V87.2809Z" stroke="black" stroke-width="2" stroke-miterlimit="10"/>
<path d="M15.5272 121.018H49.0537V145.8H15.5272V121.018Z" stroke="black" stroke-width="2" stroke-miterlimit="10"/>
<path d="M60.5639 121.018H94.0904V145.8H60.5639V121.018Z" stroke="black" stroke-width="2" stroke-miterlimit="10"/>
<path d="M104.519 121.018H138.046V145.8H104.519V121.018Z" stroke="black" stroke-width="2" stroke-miterlimit="10"/>
<path d="M149.556 121.018H183.082V145.8H149.556V121.018Z" stroke="black" stroke-width="2" stroke-miterlimit="10"/>
</svg>
