<svg width="200" height="161" viewBox="0 0 200 161" fill="none" xmlns="http://www.w3.org/2000/svg">
<path d="M15.6817 18.0893H49.0537V44.2284H15.6817V18.0893Z" stroke="black" stroke-width="2" stroke-miterlimit="10"/>
<path d="M15.6817 140.825H49.0537V159.005H15.6817V140.825Z" stroke="black" stroke-width="2" stroke-miterlimit="10"/>
<path d="M60.5639 152.403H93.9359V159.005H60.5639V152.403Z" stroke="black" stroke-width="2" stroke-miterlimit="10"/>
<path d="M149.788 147.247H183.16V159.005H149.788V147.247Z" stroke="black" stroke-width="2" stroke-miterlimit="10"/>
<path d="M104.828 154.845H138.2V158.915H104.828V154.845Z" stroke="black" stroke-width="2" stroke-miterlimit="10"/>
<path d="M104.828 18.0893H138.2V65.0311H104.828V18.0893Z" stroke="black" stroke-width="2" stroke-miterlimit="10"/>
<path d="M60.5639 18.0893H93.9359V79.5026H60.5639V18.0893Z" stroke="black" stroke-width="2" stroke-miterlimit="10"/>
<path d="M15.6817 65.0311H49.0537V118.756H15.6817V65.0311Z" stroke="black" stroke-width="2" stroke-miterlimit="10"/>
<path d="M104.828 84.658H138.2V136.846H104.828V84.658Z" stroke="black" stroke-width="2" stroke-miterlimit="10"/>
<path d="M60.5639 100.305H93.9359V131.419H60.5639V100.305Z" stroke="black" stroke-width="2" stroke-miterlimit="10"/>
<path d="M149.788 18.0893H183.16V80.407H149.788V18.0893Z" stroke="black" stroke-width="2" stroke-miterlimit="10"/>
<path d="M149.788 100.305H183.16V127.801H149.788V100.305Z" stroke="black" stroke-width="2" stroke-miterlimit="10"/>
<path d="M94.6311 143.539H59.7914" stroke="black" stroke-width="1.5" stroke-miterlimit="10"/>
<path d="M75.1642 138.112H59.7914" stroke="black" stroke-width="1.5" stroke-miterlimit="10"/>
<path d="M198.455 1.80893V158.191H1.545V1.80893H198.455ZM200 0H0V160H200V0Z" fill="black"/>
<path d="M49.7489 56.0769H14.9865" stroke="black" stroke-width="1.5" stroke-miterlimit="10"/>
<path d="M30.282 50.6501H14.9865" stroke="black" stroke-width="1.5" stroke-miterlimit="10"/>
<path d="M49.7489 130.514H14.9865" stroke="black" stroke-width="1.5" stroke-miterlimit="10"/>
<path d="M30.282 125.088H14.9865" stroke="black" stroke-width="1.5" stroke-miterlimit="10"/>
<path d="M94.6311 90.9893H59.7914" stroke="black" stroke-width="1.5" stroke-miterlimit="10"/>
<path d="M75.1642 85.5625H59.7914" stroke="black" stroke-width="1.5" stroke-miterlimit="10"/>
<path d="M138.895 76.6083H104.133" stroke="black" stroke-width="1.5" stroke-miterlimit="10"/>
<path d="M119.428 71.1815H104.133" stroke="black" stroke-width="1.5" stroke-miterlimit="10"/>
<path d="M183.855 91.8937H149.092" stroke="black" stroke-width="1.5" stroke-miterlimit="10"/>
<path d="M164.388 86.4669H149.092" stroke="black" stroke-width="1.5" stroke-miterlimit="10"/>
<path d="M183.855 139.559H149.092" stroke="black" stroke-width="1.5" stroke-miterlimit="10"/>
<path d="M164.388 134.132H149.092" stroke="black" stroke-width="1.5" stroke-miterlimit="10"/>
<path d="M138.895 148.332H104.133" stroke="black" stroke-width="1.5" stroke-miterlimit="10"/>
<path d="M119.428 142.906H104.133" stroke="black" stroke-width="1.5" stroke-miterlimit="10"/>
</svg>
