<svg width="200" height="161" viewBox="0 0 200 161" fill="none" xmlns="http://www.w3.org/2000/svg">
<path d="M15.6817 18.1798H60.4867V44.4997H15.6817V18.1798Z" stroke="black" stroke-width="2" stroke-miterlimit="10"/>
<path d="M15.6817 119.299H60.4867V159.005H15.6817V119.299Z" stroke="black" stroke-width="2" stroke-miterlimit="10"/>
<path d="M60.4867 132.052H101.893V159.096H60.4867V132.052Z" stroke="black" stroke-width="2" stroke-miterlimit="10"/>
<path d="M142.526 128.163H183.16V159.096H142.526V128.163Z" stroke="black" stroke-width="2" stroke-miterlimit="10"/>
<path d="M101.893 143.991H142.526V159.096H101.893V143.991Z" stroke="black" stroke-width="2" stroke-miterlimit="10"/>
<path d="M101.893 18.1798H142.526V65.4833H101.893V18.1798Z" stroke="black" stroke-width="2" stroke-miterlimit="10"/>
<path d="M60.4867 18.1798H101.893V80.0452H60.4867V18.1798Z" stroke="black" stroke-width="2" stroke-miterlimit="10"/>
<path d="M15.6817 44.5901H60.4867V119.661H15.6817V44.5901Z" stroke="black" stroke-width="2" stroke-miterlimit="10"/>
<path d="M101.893 65.3024H142.526V145.076H101.893V65.3024Z" stroke="black" stroke-width="2" stroke-miterlimit="10"/>
<path d="M60.4867 79.6834H101.893V132.323H60.4867V79.6834Z" stroke="black" stroke-width="2" stroke-miterlimit="10"/>
<path d="M142.526 18.1798H183.16V80.9497H142.526V18.1798Z" stroke="black" stroke-width="2" stroke-miterlimit="10"/>
<path d="M142.526 80.6783H183.16V128.796H142.526V80.6783Z" stroke="black" stroke-width="2" stroke-miterlimit="10"/>
<path d="M198.455 1.80893V158.191H1.545V1.80893H198.455ZM200 0H0V160H200V0Z" fill="black"/>
</svg>
