<svg width="200" height="161" viewBox="0 0 200 161" fill="none" xmlns="http://www.w3.org/2000/svg">
<path d="M15.5272 18.9033H57.4739V53.9966H15.5272V18.9033Z" stroke="black" stroke-width="2" stroke-miterlimit="10"/>
<path d="M57.4739 18.9033H99.4206V53.9966H57.4739V18.9033Z" stroke="black" stroke-width="2" stroke-miterlimit="10"/>
<path d="M99.4206 18.9033H141.367V53.9966H99.4206V18.9033Z" stroke="black" stroke-width="2" stroke-miterlimit="10"/>
<path d="M15.5272 54.1775H57.4739V89.2708H15.5272V54.1775Z" stroke="black" stroke-width="2" stroke-miterlimit="10"/>
<path d="M57.4739 54.1775H99.4206V89.2708H57.4739V54.1775Z" stroke="black" stroke-width="2" stroke-miterlimit="10"/>
<path d="M99.4206 54.1775H141.367V89.2708H99.4206V54.1775Z" stroke="black" stroke-width="2" stroke-miterlimit="10"/>
<path d="M15.5272 88.909H57.4739V124.002H15.5272V88.909Z" stroke="black" stroke-width="2" stroke-miterlimit="10"/>
<path d="M57.4739 88.909H99.4206V124.002H57.4739V88.909Z" stroke="black" stroke-width="2" stroke-miterlimit="10"/>
<path d="M99.4206 88.909H141.367V124.002H99.4206V88.909Z" stroke="black" stroke-width="2" stroke-miterlimit="10"/>
<path d="M141.367 88.909H183.314V124.002H141.367V88.909Z" stroke="black" stroke-width="2" stroke-miterlimit="10"/>
<path d="M15.5272 124.002H57.4739V159.096H15.5272V124.002Z" stroke="black" stroke-width="2" stroke-miterlimit="10"/>
<path d="M57.4739 124.002H99.4206V159.096H57.4739V124.002Z" stroke="black" stroke-width="2" stroke-miterlimit="10"/>
<path d="M99.4206 124.002H141.367V159.096H99.4206V124.002Z" stroke="black" stroke-width="2" stroke-miterlimit="10"/>
<path d="M141.367 124.002H183.314V159.096H141.367V124.002Z" stroke="black" stroke-width="2" stroke-miterlimit="10"/>
<path d="M141.367 54.1775H183.314V89.2708H141.367V54.1775Z" stroke="black" stroke-width="2" stroke-miterlimit="10"/>
<path d="M141.367 18.9033H183.314V53.9966H141.367V18.9033Z" stroke="black" stroke-width="2" stroke-miterlimit="10"/>
<path d="M198.455 1.80893V158.191H1.545V1.80893H198.455ZM200 0H0V160H200V0Z" fill="black"/>
</svg>
