<svg xmlns="http://www.w3.org/2000/svg" viewBox="0 0 500 372.61"><defs><style>.cls-1{fill:#ebebeb;}.cls-2{fill:#fafafa;}.cls-3{fill:#e0e0e0;}.cls-4{fill:#f0f0f0;}.cls-12,.cls-13,.cls-14,.cls-21,.cls-22,.cls-23,.cls-5,.cls-8{fill:#fff;}.cls-6{fill:#f5f5f5;}.cls-7{fill:#263238;}.cls-10,.cls-18,.cls-23,.cls-24,.cls-8{opacity:0.2;}.cls-10,.cls-8{isolation:isolate;}.cls-19,.cls-20,.cls-9{fill:none;}.cls-9{stroke:#263238;stroke-width:0.9px;}.cls-20,.cls-9{stroke-linecap:round;stroke-linejoin:round;}.cls-11{fill:#407bff;}.cls-12{opacity:0.3;}.cls-13{opacity:0.7;}.cls-14{opacity:0.4;}.cls-15{fill:#ffb573;}.cls-16,.cls-21{opacity:0.1;}.cls-17{fill:#ebb376;}.cls-19,.cls-20{stroke:#fff;stroke-width:0.73px;}.cls-19{stroke-miterlimit:10;}.cls-22{opacity:0.5;}.cls-25{fill:#d58745;}.cls-26{fill:#de5753;}</style></defs><title>404</title><g id="Layer_2" data-name="Layer 2"><g id="Background_Complete" data-name="Background Complete"><rect class="cls-1" y="327.45" width="500" height="0.25"/><rect class="cls-1" x="416.78" y="343.54" width="33.12" height="0.25"/><rect class="cls-1" x="322.53" y="346.26" width="8.69" height="0.25"/><rect class="cls-1" x="396.59" y="334.26" width="19.19" height="0.25"/><rect class="cls-1" x="52.46" y="335.94" width="43.19" height="0.25"/><rect class="cls-1" x="104.56" y="335.94" width="6.33" height="0.25"/><rect class="cls-1" x="131.47" y="340.16" width="93.68" height="0.25"/><path class="cls-1" d="M237,282.85H43.91a5.71,5.71,0,0,1-5.7-5.71V5.71A5.71,5.71,0,0,1,43.91,0H237a5.71,5.71,0,0,1,5.71,5.71V277.14A5.71,5.71,0,0,1,237,282.85ZM43.91.25a5.46,5.46,0,0,0-5.45,5.46V277.14a5.46,5.46,0,0,0,5.45,5.46H237a5.47,5.47,0,0,0,5.46-5.46V5.71A5.47,5.47,0,0,0,237,.25Z"/><path class="cls-1" d="M453.31,282.85H260.21a5.72,5.72,0,0,1-5.71-5.71V5.71A5.72,5.72,0,0,1,260.21,0h193.1A5.71,5.71,0,0,1,459,5.71V277.14A5.71,5.71,0,0,1,453.31,282.85ZM260.21.25a5.47,5.47,0,0,0-5.46,5.46V277.14a5.47,5.47,0,0,0,5.46,5.46h193.1a5.47,5.47,0,0,0,5.46-5.46V5.71A5.47,5.47,0,0,0,453.31.25Z"/><rect class="cls-2" x="336.71" y="182.56" width="22.3" height="9.49"/><rect class="cls-2" x="309.73" y="182.56" width="22.3" height="9.49"/><rect class="cls-2" x="282.75" y="182.56" width="22.3" height="9.49"/><rect class="cls-2" x="350.2" y="195.77" width="22.3" height="9.49"/><rect class="cls-2" x="323.22" y="195.77" width="22.3" height="9.49"/><rect class="cls-2" x="296.24" y="195.77" width="22.3" height="9.49"/><rect class="cls-2" x="269.26" y="195.77" width="22.3" height="9.49"/><rect class="cls-2" x="393.69" y="208.98" width="22.3" height="9.49"/><rect class="cls-2" x="366.71" y="208.98" width="22.3" height="9.49"/><rect class="cls-2" x="309.73" y="208.98" width="22.3" height="9.49"/><rect class="cls-2" x="282.75" y="208.98" width="22.3" height="9.49"/><rect class="cls-2" x="255.77" y="208.98" width="22.3" height="9.49"/><rect class="cls-2" x="380.2" y="222.18" width="22.3" height="9.49"/><rect class="cls-2" x="323.22" y="222.18" width="22.3" height="9.49"/><rect class="cls-2" x="296.24" y="222.18" width="22.3" height="9.49"/><rect class="cls-2" x="269.26" y="222.18" width="22.3" height="9.49"/><rect class="cls-2" x="164.01" y="48.01" width="22.3" height="9.49"/><rect class="cls-2" x="137.03" y="48.01" width="22.3" height="9.49"/><rect class="cls-2" x="177.5" y="61.22" width="22.3" height="9.49"/><rect class="cls-2" x="150.52" y="61.22" width="22.3" height="9.49"/><rect class="cls-2" x="96.56" y="61.22" width="22.3" height="9.49"/><rect class="cls-2" x="69.58" y="61.22" width="22.3" height="9.49"/><rect class="cls-2" x="137.03" y="74.42" width="22.3" height="9.49"/><rect class="cls-2" x="382.64" y="125.31" width="22.3" height="9.49"/><rect class="cls-2" x="335.66" y="125.31" width="22.3" height="9.49"/><rect class="cls-2" x="396.14" y="138.52" width="22.3" height="9.49"/><rect class="cls-2" x="369.15" y="138.52" width="22.3" height="9.49"/><rect class="cls-2" x="138.94" y="111.98" width="22.3" height="9.49"/><rect class="cls-2" x="81.95" y="111.98" width="22.3" height="9.49"/><rect class="cls-2" x="152.43" y="125.19" width="22.3" height="9.49"/><rect class="cls-2" x="115.44" y="125.19" width="22.3" height="9.49"/><rect class="cls-2" x="382.64" y="151.72" width="22.3" height="9.49"/><rect class="cls-2" x="335.66" y="151.72" width="22.3" height="9.49"/><rect class="cls-2" x="83.07" y="74.42" width="22.3" height="9.49"/><rect class="cls-2" x="398.99" y="48.37" width="22.3" height="9.49"/><rect class="cls-2" x="372.01" y="48.37" width="22.3" height="9.49"/><rect class="cls-2" x="385.5" y="61.57" width="22.3" height="9.49"/><rect class="cls-2" x="278.12" y="48.58" width="22.3" height="9.49"/><rect class="cls-2" x="251.14" y="48.58" width="22.3" height="9.49"/><rect class="cls-2" x="291.61" y="61.78" width="22.3" height="9.49"/><rect class="cls-2" x="264.63" y="61.78" width="22.3" height="9.49"/><rect class="cls-2" x="237.65" y="61.78" width="22.3" height="9.49"/><rect class="cls-2" x="305.1" y="74.99" width="22.3" height="9.49"/><rect class="cls-2" x="278.12" y="74.99" width="22.3" height="9.49"/><rect class="cls-2" x="251.14" y="74.99" width="22.3" height="9.49"/><rect class="cls-2" x="291.61" y="88.19" width="22.3" height="9.49"/><rect class="cls-2" x="264.63" y="88.19" width="22.3" height="9.49"/><rect class="cls-2" x="110.26" y="178.97" width="22.3" height="9.49"/><rect class="cls-2" x="83.27" y="178.97" width="22.3" height="9.49"/><rect class="cls-2" x="187.72" y="180.18" width="22.3" height="9.49"/><rect class="cls-2" x="123.75" y="192.18" width="22.3" height="9.49"/><rect class="cls-2" x="96.76" y="192.18" width="22.3" height="9.49"/><rect class="cls-2" x="201.21" y="193.39" width="22.3" height="9.49"/><rect class="cls-2" x="174.22" y="193.39" width="22.3" height="9.49"/><rect class="cls-2" x="245.82" y="150.69" width="22.3" height="9.49"/><rect class="cls-2" x="105.93" y="144.4" width="22.3" height="9.49"/><rect class="cls-2" x="215.41" y="103.85" width="22.3" height="9.49"/><rect class="cls-2" x="232.33" y="137.48" width="22.3" height="9.49"/><rect class="cls-2" x="259.31" y="137.48" width="22.3" height="9.49"/><rect class="cls-2" x="360.6" y="317.78" width="22.3" height="9.49"/><rect class="cls-2" x="374.09" y="304.57" width="22.3" height="9.49"/><rect class="cls-2" x="110.26" y="205.39" width="22.3" height="9.49"/><rect class="cls-2" x="83.27" y="205.39" width="22.3" height="9.49"/><rect class="cls-2" x="123.75" y="218.59" width="22.3" height="9.49"/><rect class="cls-2" x="96.76" y="218.59" width="22.3" height="9.49"/><rect class="cls-2" x="152.6" y="255.13" width="22.3" height="9.49"/><rect class="cls-2" x="125.62" y="255.13" width="22.3" height="9.49"/><rect class="cls-2" x="98.63" y="255.13" width="22.3" height="9.49"/><rect class="cls-2" x="71.65" y="255.13" width="22.3" height="9.49"/><rect class="cls-2" x="166.09" y="268.34" width="22.3" height="9.49"/><rect class="cls-2" x="139.11" y="268.34" width="22.3" height="9.49"/><rect class="cls-2" x="85.14" y="268.34" width="22.3" height="9.49"/><rect class="cls-2" x="179.58" y="281.54" width="22.3" height="9.49"/><rect class="cls-2" x="152.6" y="281.54" width="22.3" height="9.49"/><rect class="cls-2" x="125.62" y="281.54" width="22.3" height="9.49"/><rect class="cls-2" x="166.09" y="294.75" width="22.3" height="9.49"/><rect class="cls-2" x="139.11" y="294.75" width="22.3" height="9.49"/><rect class="cls-2" x="112.13" y="294.75" width="22.3" height="9.49"/><rect class="cls-2" x="335.13" y="254.52" width="22.3" height="9.49"/><rect class="cls-2" x="278.15" y="254.52" width="22.3" height="9.49"/><rect class="cls-2" x="251.17" y="254.52" width="22.3" height="9.49"/><rect class="cls-2" x="348.63" y="267.73" width="22.3" height="9.49"/><rect class="cls-2" x="291.64" y="267.73" width="22.3" height="9.49"/><rect class="cls-2" x="264.66" y="267.73" width="22.3" height="9.49"/><rect class="cls-2" x="237.68" y="267.73" width="22.3" height="9.49"/><rect class="cls-2" x="362.12" y="280.93" width="22.3" height="9.49"/><rect class="cls-2" x="335.13" y="280.93" width="22.3" height="9.49"/><rect class="cls-2" x="278.15" y="280.93" width="22.3" height="9.49"/><rect class="cls-2" x="251.17" y="280.93" width="22.3" height="9.49"/><rect class="cls-2" x="318.62" y="294.14" width="22.3" height="9.49"/><rect class="cls-2" x="291.64" y="294.14" width="22.3" height="9.49"/><rect class="cls-2" x="264.66" y="294.14" width="22.3" height="9.49"/><rect class="cls-2" x="237.68" y="294.14" width="22.3" height="9.49"/><rect class="cls-3" x="309.03" y="100.16" width="96.32" height="110.17" transform="translate(714.38 310.5) rotate(180)"/><rect class="cls-3" x="309.21" y="100.16" width="92.61" height="110.17" transform="translate(711.03 310.5) rotate(180)"/><rect class="cls-4" x="306.03" y="100.16" width="96.32" height="110.17" transform="translate(708.37 310.5) rotate(180)"/><rect class="cls-5" x="310.4" y="103.67" width="87.74" height="101.6" transform="translate(708.54 308.95) rotate(180)"/><rect class="cls-3" x="310.4" y="103.67" width="2.74" height="101.6" transform="translate(623.54 308.95) rotate(180)"/><rect class="cls-3" x="354.24" y="135.34" width="2.74" height="85.54" transform="translate(177.51 533.72) rotate(-90)"/><rect class="cls-4" x="310.4" y="172.13" width="89.21" height="4.6" transform="translate(710.01 348.87) rotate(180)"/><rect class="cls-3" x="105.9" y="100.16" width="96.32" height="110.17" transform="translate(308.12 310.5) rotate(180)"/><rect class="cls-3" x="106.08" y="100.16" width="92.61" height="110.17" transform="translate(304.78 310.5) rotate(180)"/><rect class="cls-4" x="102.9" y="100.16" width="96.32" height="110.17" transform="translate(302.12 310.5) rotate(180)"/><rect class="cls-5" x="107.27" y="103.67" width="87.74" height="101.6" transform="translate(302.28 308.95) rotate(180)"/><rect class="cls-3" x="107.27" y="103.67" width="2.74" height="101.6" transform="translate(217.28 308.95) rotate(180)"/><rect class="cls-3" x="151.12" y="135.34" width="2.74" height="85.54" transform="translate(-25.62 330.59) rotate(-90)"/><rect class="cls-4" x="107.27" y="172.13" width="89.21" height="4.6" transform="translate(303.75 348.87) rotate(180)"/></g><g id="Shadow"><ellipse id="_Path_" data-name="&lt;Path&gt;" class="cls-6" cx="250" cy="361.29" rx="193.89" ry="11.32"/></g><g id="Plant"><path class="cls-7" d="M89.38,335.46S88,325.29,81.49,324.17s-4.55-6-6.24-7.93-6.12,3.71-2.33,9.15.69,3.74,2.33,8.8S90,343.9,89.38,335.46Z"/><path class="cls-8" d="M89.38,335.46S88,325.29,81.49,324.17s-4.55-6-6.24-7.93-6.12,3.71-2.33,9.15.69,3.74,2.33,8.8S90,343.9,89.38,335.46Z"/><path class="cls-9" d="M89.11,342.07s-5-10.37-2.37-27.28,12.45-23.48,3.91-42.09-18.32-31.89-13.43-45.09"/><path class="cls-7" d="M85.36,340s-4.21-6.33,1.86-9.59,7.29-.64,11-3,6.6-8,7.24-4.39-3.69,5.71-2.16,7.37S93.13,342.89,85.36,340Z"/><path class="cls-7" d="M75.43,232.9s-4.09-12.45,5.23-12.72S79.7,231.57,75.43,232.9Z"/><path class="cls-7" d="M83.53,242.47s2.78-11.32,9.39-8.93S90.12,242.68,83.53,242.47Z"/><path class="cls-7" d="M72.31,243.45s1-9-6-9.21S62.39,242,72.31,243.45Z"/><path class="cls-7" d="M77,261.89s-9.42-8.4-12.81-2.15S71.28,267.29,77,261.89Z"/><path class="cls-7" d="M93.64,260.4s1.77-13.95,9.38-9.57S100.27,261.79,93.64,260.4Z"/><path class="cls-7" d="M100.34,280.37s-5.62-14.09,4.82-12.51S107.71,277,100.34,280.37Z"/><path class="cls-7" d="M84.32,285.4S75.51,275,68.77,278.3,67.54,291.92,84.32,285.4Z"/><path class="cls-7" d="M92.32,308.4s7.51-16.67,14.19-11S102.25,311.37,92.32,308.4Z"/><path class="cls-7" d="M81.41,307.43s2-12.94-5.45-11.9S70.48,304.49,81.41,307.43Z"/><g class="cls-10"><path class="cls-5" d="M75.43,232.9s-4.09-12.45,5.23-12.72S79.7,231.57,75.43,232.9Z"/><path class="cls-5" d="M83.53,242.47s2.78-11.32,9.39-8.93S90.12,242.68,83.53,242.47Z"/><path class="cls-5" d="M72.31,243.45s1-9-6-9.21S62.39,242,72.31,243.45Z"/><path class="cls-5" d="M77,261.89s-9.42-8.4-12.81-2.15S71.28,267.29,77,261.89Z"/><path class="cls-5" d="M93.64,260.4s1.77-13.95,9.38-9.57S100.27,261.79,93.64,260.4Z"/><path class="cls-5" d="M100.34,280.37s-5.62-14.09,4.82-12.51S107.71,277,100.34,280.37Z"/><path class="cls-5" d="M84.32,285.4S75.51,275,68.77,278.3,67.54,291.92,84.32,285.4Z"/><path class="cls-5" d="M92.32,308.4s7.51-16.67,14.19-11S102.25,311.37,92.32,308.4Z"/><path class="cls-5" d="M81.41,307.43s2-12.94-5.45-11.9S70.48,304.49,81.41,307.43Z"/></g><path class="cls-9" d="M70,240.49s4,6,9.5,9c0,0,3.62-7,6.45-8.7"/><path class="cls-9" d="M69.74,261.05s10.2-.32,18.27,5.78c0,0,4.48-7.6,10.36-11.06"/><path class="cls-9" d="M103.41,273.69s-4.37,11.52-10,16c0,0-11.58-6.71-20.09-6.88"/><path class="cls-9" d="M76.82,299.73s5.72,11.17,10,13.61a24.94,24.94,0,0,1,12.62-8.22"/><path class="cls-7" d="M86,338.52s-3.61-5.74-7.68-6.55-5.83-5.51-7.33-2.69S73.63,341.45,86,338.52Z"/><polygon class="cls-11" points="71.31 361.05 101.39 361.05 103.4 336.76 69.3 336.76 71.31 361.05"/><polygon class="cls-11" points="68.59 341.37 104.1 341.37 104.56 336.22 68.14 336.22 68.59 341.37"/><polygon class="cls-12" points="68.59 341.37 104.1 341.37 104.56 336.22 68.14 336.22 68.59 341.37"/></g><g id="Text"><path class="cls-11" d="M128.35,193.07a1.74,1.74,0,0,1,.37-.3l18.06-35.67-8.3,1.61L131.2,173a.29.29,0,0,1,.13,0,.61.61,0,0,1,.16.83c-.17.25-.3.52-.45.78.13.08.25.18.38.25a.6.6,0,0,1,.25.62.59.59,0,0,1-.47.46L131,176h-.05l-.06,0a3.49,3.49,0,0,0-.39.19l-.09.05h0l-.14.11a2.61,2.61,0,0,0-.31.27l-.16.17h0l-.07.08-.28.36c-.2.27-.38.55-.57.82a.58.58,0,0,1-.39.25l-10.65,20.87,1,5.38,4.73-.92a3.18,3.18,0,0,1,.74-1.2,2.9,2.9,0,0,1,.52-.38.4.4,0,0,1,0-.11,15.55,15.55,0,0,1,2.3-6.82.62.62,0,0,1,0-.67,1.5,1.5,0,0,0,.18-.95A.62.62,0,0,1,128.35,193.07Z"/><path class="cls-11" d="M159.46,189.88a1.11,1.11,0,0,1-.12.43,3,3,0,0,1-1.37,1.32c-.12.17-.25.34-.36.52a.63.63,0,0,1-.26.2,2.29,2.29,0,0,0-.09.28.62.62,0,0,1-.77.37.61.61,0,0,1-.36-.77,6.37,6.37,0,0,1,.38-1l-.57.11a.61.61,0,0,1-.7-.48.19.19,0,0,1,0-.13l-.35.06-2.26-11.67-7.22,1.4,2.26,11.67-17.87,3.47c-.12.06-.23.15-.35.21l0,.09a.61.61,0,0,1-.27.8.61.61,0,0,1-.75-.19,6.74,6.74,0,0,0-.91.94.59.59,0,0,1,.54,1l-.48.4a.65.65,0,0,1,0,.67h0v0l0,.08v0a.37.37,0,0,0,0,.11c0,.14,0,.29,0,.44a1.15,1.15,0,0,1-.33.71,1.51,1.51,0,0,1-.77.35s0,0-.07,0a8.48,8.48,0,0,0,.13.88,4.45,4.45,0,0,1,.32.86l21.89-4.24L151.28,212l7.46-1.44-2.56-13.22,10.21-2-1.28-6.61Z"/><path class="cls-11" d="M202.8,153.88l-.48.41c-.23.2-.45.41-.66.62s-.18.21-.27.29l0,.05-.15.17a1.25,1.25,0,0,1-2.21-1.11l.28-1.06c0-.05-.08-.09-.11-.14a1.07,1.07,0,0,1-.12-.49,1,1,0,0,1,.06-.48,3,3,0,0,1,.14-.36,3.15,3.15,0,0,1-.54-.73l0-.09A20.44,20.44,0,0,0,185,149.05c-12.6,2.45-20,14.25-16.64,31.77s14.7,25.69,27.3,23.25a23.25,23.25,0,0,0,3.33-.91c.35-.5.7-1,1-1.49a1.24,1.24,0,0,1,2.09.07c8.47-4.72,12.87-15.18,10.11-29.42C210.62,164,207.24,157.85,202.8,153.88Zm-8.46,43.35c-8.45,1.64-15.63-4.15-18.3-17.9s1.83-21.8,10.28-23.44a12.56,12.56,0,0,1,12.21,4.18,1.22,1.22,0,0,1,1.94.77,6.82,6.82,0,0,1,.05,1.91,32.8,32.8,0,0,1,4,11.06C207.21,187.56,202.71,195.61,194.34,197.23Z"/><path class="cls-11" d="M257.55,170.87l-2.26-11.68-7.23,1.4,2.27,11.68-20.67,4,19.77-39.07-8.3,1.61-7.43,14.56a16.6,16.6,0,0,1-1.09,5.31.61.61,0,0,1-1.13,0,6.83,6.83,0,0,1-2.06,4.06.54.54,0,0,1-.56.11l-8.41,16.48,1,5.38,12.44-2.41a8.08,8.08,0,0,1,3.65-1.65,18.69,18.69,0,0,1,3.57-.48,9,9,0,0,1,2.69.21l7.54-1.46,2.56,13.21,7.45-1.44-2.56-13.22,10.22-2-1.28-6.61Z"/><path class="cls-11" d="M120.1,138.86l-1.18-6.08,12.2-2.36-.92-4.73L118,128.05l-1.1-5.7,13.81-2.68-1-4.88-19.85,3.85,1.7,8.77a2.53,2.53,0,0,1,.79.63,3,3,0,0,1,.65,1.65c.13,1.26-.18,2.55,0,3.76a.53.53,0,0,1-.2.55L115,144.91,135.34,141l-.94-4.88Z"/><path class="cls-11" d="M155.92,128.22a8.66,8.66,0,0,0,3.85-9,.59.59,0,0,1-.38.2.59.59,0,0,1-.57-.33,3.65,3.65,0,0,1-.27-1s0-.09,0-.13a2.13,2.13,0,0,1-.39-.8.63.63,0,0,1,.48-.71.5.5,0,0,1,.36.07c-1.91-4.28-6.51-6.17-12.53-5l-11.37,2.2,1.54,7.93a.51.51,0,0,1,.27.27,18.12,18.12,0,0,1,1.78,6.26.63.63,0,0,1-.48.71.5.5,0,0,1-.17,0L140.19,140l6.08-1.18-1.42-7.32,5.59-1.08,6.48,6.33,6.53-1.26Zm-7.06-2.49-5,1-1.78-9.15,5-1c3.71-.72,5.92.6,6.48,3.49S152.58,125,148.86,125.73Z"/><path class="cls-11" d="M183.51,122.87a8.68,8.68,0,0,0,3.79-9.34c-1.14-5.89-6.23-8.68-13.25-7.32l-11.37,2.2,5.09,26.27,6.08-1.18-1.42-7.31L178,125.1l6.49,6.34,6.53-1.27Zm-7.06-2.48-5,1-1.77-9.16,4.95-1c.31-.06.61-.1.89-.13l.19-.16a2.16,2.16,0,0,1,.1-.44.89.89,0,0,1,.86-.58,2.49,2.49,0,0,1,1,.35.58.58,0,0,1,.19-.15,2.86,2.86,0,0,1,.07-.57.6.6,0,0,1,1.13.4c-.12.46.1.87.06,1.34a1,1,0,0,1-.1.32,4.25,4.25,0,0,1,2.08,3.11C181.7,117.58,180.16,119.66,176.45,120.39Z"/><path class="cls-11" d="M212.28,101.14l-.31.07-.21.1-.08.07h0a.61.61,0,0,1-.34.21.59.59,0,0,1-.45-.09.58.58,0,0,1-.25-.38.6.6,0,0,1,.09-.45l.08-.09a15.76,15.76,0,0,0-7.92-.42c-8.3,1.61-13.25,8.57-11.74,16.37s8.71,12.41,17,10.8,13.26-8.53,11.74-16.37A13.32,13.32,0,0,0,212.28,101.14Zm-5.12,21a8.56,8.56,0,0,1-3.26-16.81,8.84,8.84,0,0,1,3.4,0c0-.14.09-.28.14-.4a.6.6,0,0,1,.69-.39.55.55,0,0,1,.44.45l.35-.08c.08-.25.16-.5.23-.75s.08-.28.11-.42a1.6,1.6,0,0,0,.05-.21l0-.07h0l.06-.36V103c-.06-.41.36-.88.79-.67l1.19.57a.61.61,0,0,1,.36.76,4.37,4.37,0,0,0-.18.46l-.05.17v0s0,0,0,.08a4.24,4.24,0,0,0,0,.71,8.88,8.88,0,0,1-.1,1.71.52.52,0,0,1,0,.41.42.42,0,0,1-.11.18,8.87,8.87,0,0,1,2.51,4.77A8.16,8.16,0,0,1,207.16,122.14Z"/><path class="cls-11" d="M246.66,102.79a.38.38,0,0,1-.1,0,1.71,1.71,0,0,1-.65-.38,3.19,3.19,0,0,1-.31.44.62.62,0,0,1-.83.17.61.61,0,0,1-.16-.84,5.74,5.74,0,0,0,1.08-2.73c-2-4.06-6.51-5.84-12.38-4.7l-11.37,2.21L227,123.19l6.08-1.17-1.42-7.32,5.59-1.09,6.49,6.34,6.53-1.27-7.53-7.3A8.6,8.6,0,0,0,246.66,102.79Zm-10.95,6.11-5,1L229,100.7l5-1c3.72-.72,5.92.61,6.48,3.5S239.42,108.18,235.71,108.9Z"/><path class="cls-11" d="M280.47,153.47l-1.52.29a.61.61,0,0,1-.51-1l.06-.05c-.43.18-.86.38-1.31.54a18.31,18.31,0,0,0,0,2L287,206.06l-36.54,7.08a.78.78,0,0,1,0,.22.62.62,0,0,1-.65.55c-.59-.12-1.19-.22-1.79-.3L199.71,223a.58.58,0,0,1-.08.23,7.78,7.78,0,0,1-.61.89,1.05,1.05,0,0,1-.06.53,18.33,18.33,0,0,1-1.45,3.23,1.33,1.33,0,0,1-.8.53,1.13,1.13,0,0,1-.63-.05,6.38,6.38,0,0,0-.5,1.55l77.52-15a.31.31,0,0,1,.07-.09,4.52,4.52,0,0,1,3.4-1.22,6.3,6.3,0,0,1,1.55-1.29,1.89,1.89,0,0,1,1.8-.15,1.93,1.93,0,0,1,.83,1,19.61,19.61,0,0,1,2.3-.17l11-2.13-10.75-55.43A7,7,0,0,1,280.47,153.47Z"/><path class="cls-11" d="M180.26,81l.36.08,7.23-1.41,2.36-1.05a13.87,13.87,0,0,1,4.62-1.26,7.17,7.17,0,0,1,2.81.42l62.18-12.06,5.77,29.75a.6.6,0,0,1,1.09.2,17.3,17.3,0,0,1,.54,4,5.34,5.34,0,0,1-.44,1.88l9.81,50.63c.59-.22,1.17-.46,1.75-.72a2.64,2.64,0,0,1,1.11-1.74,2,2,0,0,1,1.34-.1,7.17,7.17,0,0,0,.5-1.63,9.45,9.45,0,0,0,.19-2.09l-.39-2.06c0-.1-.09-.21-.14-.31a.51.51,0,0,1,0-.49L270.61,89.81a.57.57,0,0,1-.18,0,2,2,0,0,1-1.87-.87,3,3,0,0,1-.25-1.89c.1-.75.29-1.48.44-2.22a5.92,5.92,0,0,0,.14-2,.54.54,0,0,1,.26-.58l-4.58-23.61L174.92,76a10.56,10.56,0,0,1-5.49,1.43.54.54,0,0,1-.44-.28L124.5,85.79a.61.61,0,0,1-.47.48l-2.34.46a2,2,0,0,1-.31,1,.56.56,0,0,1-.19.36,4.18,4.18,0,0,0-.44.4c-.27.25-.53.52-.81.76a.66.66,0,0,1-.34.18.64.64,0,0,1-.57-.19.66.66,0,0,1-.15-.45.94.94,0,0,1,0-.16c-.36,0-.72-.05-1.07-.1a.61.61,0,0,1-.55-.64.6.6,0,0,1,.64-.55,8.75,8.75,0,0,0,1.14.09h.3a.57.57,0,0,0,.13,0h0a1.26,1.26,0,0,1-.76-.42l0-.07L93,91.9a.62.62,0,0,1,.34.09.61.61,0,0,1,.16.83,5.57,5.57,0,0,1-.69.76l-.07.07h0s.06,0,0,0a1,1,0,0,0-.12.16s0,.07,0,.11a.29.29,0,0,0,0,.09.17.17,0,0,0,0,.07.62.62,0,0,1-.94.45s0,0,0,0h0l-.17-.06-.19-.06a1.51,1.51,0,0,1-.22.8.55.55,0,0,1-.52.25A5.41,5.41,0,0,1,89.91,97a4.15,4.15,0,0,1-1.2,1.3l0,0a1.76,1.76,0,0,1,.24.42l38.3-7.43,0-.06a2.76,2.76,0,0,1,.62-.7,1.34,1.34,0,0,1,1.16-.22,2.61,2.61,0,0,1,.87.46l49.59-9.61A.62.62,0,0,1,180.26,81Z"/><path class="cls-11" d="M113.57,239.68l-9-46.35a.61.61,0,0,1-.65.18.6.6,0,0,1-.37-.76,3.91,3.91,0,0,1,.67-1.21L92.43,130.63l-.11-.19a6.07,6.07,0,0,1-.51-1.56,4.22,4.22,0,0,0-.62,0,.61.61,0,0,1-.71-.64,6.47,6.47,0,0,1,.86-3.29l-4.78-24.64a3.17,3.17,0,0,1-.21-.41l-.24-.45a.54.54,0,0,1-.47-.3.61.61,0,0,1,.27-.81,2,2,0,0,0,.67-.42,2.06,2.06,0,0,0,.33-.53,3.91,3.91,0,0,0,.25-1.32,1.85,1.85,0,0,1-.32-.68,2.22,2.22,0,0,1,.09-1,.45.45,0,0,1,.13-.22c0-.38-.06-.76-.08-1.14l-7.65,1.48,21.83,112.62a.5.5,0,0,1,.65.16,3.28,3.28,0,0,1,.87,2.25,2.43,2.43,0,0,1-.14.48.57.57,0,0,1,.2.66,2.92,2.92,0,0,0-.27,1.86,12.06,12.06,0,0,0,.51,1.75,4.64,4.64,0,0,1,.14,3l5.7,29.43,1.62-.32a23.24,23.24,0,0,1,2.78-.73.48.48,0,0,1,.09-.4,7.92,7.92,0,0,1,.76-.78.7.7,0,0,1,0-.32,3.27,3.27,0,0,1,1.11-1.75,2.62,2.62,0,0,1,1.74-.5,4.1,4.1,0,0,1,2.94,1.88c1.64-.41,3.41-1,5-.19L187,231.56a2.73,2.73,0,0,1,.1-.48,4.55,4.55,0,0,1,1.37-2.08.59.59,0,0,1,.7-.05.61.61,0,0,1,.07-.1.6.6,0,0,1,.85.05,2.48,2.48,0,0,0,.25.3.57.57,0,0,0,.11.11h0a1.22,1.22,0,0,0,.19.12l0,0,0,0,.21.1a2.88,2.88,0,0,1,0-1.79,2.52,2.52,0,0,1,1.38-1.45.59.59,0,0,1,.36-.93.61.61,0,0,1,.47,1.07.19.19,0,0,1,.07.08.6.6,0,0,1-.27.8l-.23.11-.13.07s0,0,0,0l-.07,0a1.07,1.07,0,0,0-.16.14l0,0,0,0-.06.07a.56.56,0,0,0-.1.15l0,.06a1,1,0,0,0-.06.16h0a3.82,3.82,0,0,1,.69-.7,3,3,0,0,1,.56-.3c.49-1.07.95-2.17,1.41-3.25Z"/></g><g id="Speech_bubble" data-name="Speech bubble"><path class="cls-11" d="M193.77,261.71h42.74a8.84,8.84,0,0,1,8.84,8.85v15a8.84,8.84,0,0,1-8.84,8.85h-28.4l-13,13.9,7-13.9h-8.38a8.85,8.85,0,0,1-8.85-8.85v-15A8.85,8.85,0,0,1,193.77,261.71Z"/><path class="cls-13" d="M193.77,261.71h42.74a8.84,8.84,0,0,1,8.84,8.85v15a8.84,8.84,0,0,1-8.84,8.85h-28.4l-13,13.9,7-13.9h-8.38a8.85,8.85,0,0,1-8.85-8.85v-15A8.85,8.85,0,0,1,193.77,261.71Z"/><path class="cls-11" d="M195.86,277.23a5.07,5.07,0,1,1,5.08,4.88A4.85,4.85,0,0,1,195.86,277.23Zm8.77,0a3.71,3.71,0,1,0-3.69,3.67A3.58,3.58,0,0,0,204.63,277.23Z"/><path class="cls-11" d="M207.22,278.39a3.76,3.76,0,1,1,3.76,3.69A3.6,3.6,0,0,1,207.22,278.39Zm6.19,0a2.44,2.44,0,1,0-4.87,0,2.44,2.44,0,1,0,4.87,0Z"/><path class="cls-11" d="M224,278.39a3.51,3.51,0,0,1-3.65,3.69,3.07,3.07,0,0,1-2.52-1.17v3.74h-1.31v-9.87h1.25v1.14a3.1,3.1,0,0,1,2.58-1.21A3.5,3.5,0,0,1,224,278.39Zm-1.32,0a2.43,2.43,0,1,0-2.44,2.55A2.38,2.38,0,0,0,222.7,278.39Z"/><path class="cls-11" d="M224.92,281.24l.54-1A4.65,4.65,0,0,0,228,281c1.21,0,1.71-.37,1.71-1,0-1.62-4.56-.22-4.56-3.09,0-1.3,1.16-2.17,3-2.17a5.25,5.25,0,0,1,2.63.66l-.56,1a3.76,3.76,0,0,0-2.08-.57c-1.15,0-1.71.42-1.71,1,0,1.71,4.58.32,4.58,3.12,0,1.31-1.2,2.14-3.12,2.14A5.17,5.17,0,0,1,224.92,281.24Z"/><path class="cls-11" d="M232.36,281.21a.87.87,0,0,1,.9-.87.87.87,0,1,1,0,1.74A.87.87,0,0,1,232.36,281.21Zm.12-8.75H234l-.26,6.53h-1Z"/></g><g id="Character_2" data-name="Character 2"><path class="cls-7" d="M443,105.83c0,3.26-17.83,6.06-43.37,7.29l-2.05.1-2.76.11c-3.83.15-7.81.26-11.91.35l-1.84,0h-1c-3.15,0-6.37.07-9.64.07-5.92,0-11.67-.08-17.18-.22l-4-.13c-10.05-.33-19.17-.9-26.85-1.64-15.07-1.46-24.58-3.59-24.58-6,0-3.59,21.6-6.61,51.31-7.61l2.33-.08q3.11-.09,6.31-.15c2.57,0,5.19-.08,7.84-.1h4.83c7.48,0,14.7.12,21.49.36l3.22.11,4.19.18h0l1.09.06,2.79.14C426.75,100,443,102.72,443,105.83Z"/><path class="cls-14" d="M443,105.83c0,3.26-17.83,6.06-43.37,7.29l-2.05.1-2.76.11c-3.83.15-7.81.26-11.91.35l-1.84,0h-1c-3.15,0-6.37.07-9.64.07-5.92,0-11.67-.08-17.18-.22l-4-.13c-10.05-.33-19.17-.9-26.85-1.64-15.07-1.46-24.58-3.59-24.58-6,0-1.06,1.89-2.08,5.32-3a129,129,0,0,0,19.26,3c7.68.74,16.8,1.31,26.85,1.64l4,.13c5.51.14,11.26.22,17.18.22,3.27,0,6.49,0,9.64-.07h1l1.84,0c4.1-.09,8.08-.2,11.91-.35l2.76-.11,2.05-.1c17.23-.83,30.94-2.37,38.05-4.29C441.06,103.76,443,104.76,443,105.83Z"/><path class="cls-15" d="M365.5,97.89a5.65,5.65,0,0,1-1.28,3.25c-.83,1-1.54,1.76-2.35,2.59-.48.49-1,1-1.45,1.44-.32.33-.65.64-1,.94a55,55,0,0,1-5.36,4.36l-.33.23-.87.58a32.94,32.94,0,0,1-3.74,2.16c-.48.24-1,.47-1.48.69a26.25,26.25,0,0,1-3.69,1.24c-1.12.3-2.19.56-3.25.78-1.49.33-3,.63-4.43.9-2.73.53-5.45,1-8.19,1.4-2.33.35-4.66.68-7,1-1.88.23-3.76.43-5.66.59a2.64,2.64,0,0,1-.63,0,2.81,2.81,0,0,1-2.42-2.55,2.41,2.41,0,0,1,0-.38,2.79,2.79,0,0,1,1.85-2.5h0l.24-.08c2.59-.93,5.19-1.81,7.8-2.66l3.95-1.28c4-1.3,8-2.52,11.89-3.81,1-.32,1.93-.65,2.82-1a11.34,11.34,0,0,0,2.2-1c.45-.26.9-.55,1.36-.86a34.07,34.07,0,0,0,2.91-2.19c1.32-1.09,2.64-2.29,3.93-3.54q3.11-.09,6.31-.15C360.23,97.94,362.85,97.91,365.5,97.89Z"/><path class="cls-11" d="M365.62,101.93c-.07.21-.15.41-.23.61s-.17.4-.27.6a5.12,5.12,0,0,1-.3.57l-.33.57,0,0q-.34.53-.72,1c-.27.35-.55.69-.85,1l-.28.31a17.13,17.13,0,0,1-1.38,1.32c-.16.15-.33.29-.5.42a1.35,1.35,0,0,1-.19.16l0,0h0a31,31,0,0,1-4.8,3.15l-.61.31h0l-.6.3-.23.1-.73-.64-.62-.56-1.4-1.24-7-6.17-.53-.47s2.14-2.39,5-5.18l2.33-.08q3.11-.09,6.31-.15c2.57,0,5.19-.08,7.84-.1h.58A9.46,9.46,0,0,1,365.62,101.93Z"/><path class="cls-13" d="M365.63,101.93a6.44,6.44,0,0,1-.24.61q-.12.3-.27.6a5.12,5.12,0,0,1-.3.57l-.33.57,0,0q-.34.53-.72,1c-.27.35-.55.69-.85,1l-.28.31a17.13,17.13,0,0,1-1.38,1.32c-.16.15-.33.29-.5.42a1.35,1.35,0,0,1-.19.16l0,0a31,31,0,0,1-4.8,3.15l-.61.31h0l-.6.3-.23.1-.73-.64-.62-.56-1.4-1.24-7-6.17-.53-.47s2.14-2.39,5-5.18l2.33-.08q3.11-.09,6.31-.15c2.57,0,5.19-.08,7.84-.1h.59A9.45,9.45,0,0,1,365.63,101.93Z"/><path class="cls-16" d="M360.5,108.61a30.46,30.46,0,0,1-6.27,3.87L351.48,110a24.54,24.54,0,0,1,7.55-11C360.25,101.37,360.65,106.22,360.5,108.61Z"/><path class="cls-17" d="M315.28,114.58,306,113.16l.07,8.22s6.36,1.9,9.73-2.41Z"/><polygon class="cls-17" points="299.67 115.38 301.2 121.49 306.06 121.38 305.99 113.16 299.67 115.38"/><path class="cls-11" d="M399.23,98.52c-.08.21-.17.42-.25.64-.24.61-.47,1.23-.69,1.85-.14.38-.27.76-.4,1.15s-.27.78-.39,1.17c-.37,1.16-.73,2.33-1.08,3.52a1.33,1.33,0,0,1-.05.19c-.38,1.32-.72,2.67-1.05,4l0,.17c-.17.7-.35,1.4-.51,2.11-.08.32-.15.63-.22,1-.27,1.23-.53,2.47-.77,3.7h0c-.09.46-.18.92-.26,1.37s-.19,1-.27,1.43c0,.1,0,.2-.05.3-.05.26-.1.52-.14.78-.13.73-.25,1.45-.37,2.16,0,.11,0,.21-.05.32l-.12.75c-.24,1.46-.45,2.89-.64,4.28a2,2,0,0,0,0,.24c-.21,1.53-.39,3-.55,4.43-.07.59-.14,1.17-.2,1.74-.09.8-.17,1.57-.24,2.32-.06.55-.11,1.09-.16,1.61s-.09,1-.13,1.43-.08.92-.12,1.35c-.1,1.22-.18,2.32-.25,3.27,0,.42-.05.8-.08,1.16-.08,1.33-.12,2.26-.14,2.68,0,.17,0,.26,0,.26l-17.73-1.63-.26,0-3-.28-4.51-.42h0L359,147l-1.31-.12-6.63-.61c0-.63-.06-1.24-.07-1.86v0c0-.17,0-.34,0-.51-.19-5.46-.09-10.47.2-15q.24-3.56.62-6.77c.36-3.08.81-5.91,1.32-8.52.11-.59.23-1.17.35-1.73h0c.08-.39.16-.76.25-1.13a88,88,0,0,1,2.48-8.88h0c.48-1.4,1-2.67,1.43-3.82,2.57,0,5.19-.08,7.84-.1h4.83c7.48,0,14.7.12,21.49.36l3.22.11Z"/><path class="cls-13" d="M399.23,98.52c-.08.21-.17.42-.25.64-.24.61-.47,1.23-.69,1.85-.14.38-.27.76-.4,1.15s-.27.78-.39,1.17l0,.07c-.37,1.14-.71,2.28-1.05,3.45a1.33,1.33,0,0,1-.05.19c-.48,1.7-.93,3.43-1.35,5.17-.09.37-.17.75-.25,1.12s-.15.63-.22,1c-.27,1.23-.53,2.47-.77,3.7q-.15.69-.27,1.38c-.09.47-.18,1-.26,1.42,0,.1,0,.21-.06.31-.05.26-.1.52-.14.78-.13.73-.25,1.45-.37,2.16,0,.11,0,.21-.05.32l-.12.75c-.23,1.46-.45,2.89-.64,4.28a2,2,0,0,0,0,.24c-.21,1.53-.39,3-.55,4.43-.07.59-.14,1.17-.2,1.74-.09.8-.17,1.57-.24,2.32-.06.55-.11,1.09-.16,1.61s-.09,1-.13,1.43-.08.92-.12,1.35c-.1,1.22-.18,2.32-.25,3.27,0,.42-.05.8-.08,1.16-.08,1.33-.12,2.26-.14,2.68,0,.17,0,.26,0,.26l-17.73-1.63-.26,0-3-.28-4.51-.42h0L359,147l-1.31-.12-6.63-.61c0-.63-.06-1.24-.07-1.86v0c0-.17,0-.34,0-.51-.19-5.46-.09-10.47.2-15q.24-3.56.62-6.77c.36-3.08.81-5.91,1.32-8.52.11-.59.23-1.17.35-1.73h0c.08-.39.16-.76.25-1.13a88,88,0,0,1,2.48-8.88h0c.48-1.4,1-2.67,1.43-3.82,2.57,0,5.19-.08,7.84-.1h4.83c7.48,0,14.7.12,21.49.36l3.22.11Z"/><path d="M303.5,231.25s12.52-5.16,12.93-10.35a.89.89,0,0,1,1-.85l9.54.58a1.25,1.25,0,0,1,1.05.74l3.82,8.83-2.65.36-1.11-1.21-1,1.49c-14.36,2-20.58,2.66-23.54,2.16C303,231.78,303.5,231.25,303.5,231.25Z"/><path class="cls-7" d="M362.09,179.31l-.85-.2-45-5.63,13.38,47.66L316,222.44s-31.08-60-18.38-68.61,52.08.91,52.08.91l1.55-11.87,39.15,2.91C396.69,184.92,367.49,180.45,362.09,179.31Z"/><path d="M349.12,317s13.48-1.29,15.39-6.13a.88.88,0,0,1,1.17-.53l9,3.34a1.26,1.26,0,0,1,.79,1l1.08,9.55-2.64-.42-.72-1.48-1.36,1.14c-14.3-2.3-20.46-3.45-23.14-4.8C348.44,317.33,349.12,317,349.12,317Z"/><path class="cls-7" d="M390.79,160h0c-.06.24-1.69,7.74-3.82,18.48-.12.62-.24,1.25-.37,1.89-1,5.11-2.1,10.85-3.18,16.85-1.32,7.29-2.63,15-3.73,22.27A242.88,242.88,0,0,0,376.79,247c-.52,23.16-1.49,68.89-1.49,68.89l-12.47-2s-6.89-48.75-6.81-72.37c.06-15,3.78-45.9,6.32-65.12,1.28-9.87,2.26-16.66,2.26-16.66l14.13.12Z"/><polygon class="cls-7" points="389.81 149.6 390.64 149.66 390.6 146.96 389.87 146.91 389.81 149.6"/><polygon class="cls-7" points="359.03 147.21 375.73 148.51 375.81 145.82 359.17 144.53 359.03 147.21"/><polygon class="cls-7" points="357.88 144.43 350.82 143.89 350.57 146.55 357.72 147.11 357.88 144.43"/><polygon class="cls-7" points="388.58 146.81 377.09 145.92 377.04 148.61 388.49 149.5 388.58 146.81"/><g class="cls-18"><polygon class="cls-5" points="389.81 149.6 390.64 149.66 390.6 146.96 389.87 146.91 389.81 149.6"/><polygon class="cls-5" points="359.03 147.21 375.73 148.51 375.81 145.82 359.17 144.53 359.03 147.21"/><polygon class="cls-5" points="357.88 144.43 350.82 143.89 350.57 146.55 357.72 147.11 357.88 144.43"/><polygon class="cls-5" points="388.58 146.81 377.09 145.92 377.04 148.61 388.49 149.5 388.58 146.81"/></g><path class="cls-19" d="M364.25,145.43l-.06,1.64a.48.48,0,0,0,.44.5l4.17.39a.49.49,0,0,0,.53-.48l0-1.7a.48.48,0,0,0-.45-.49l-4.14-.32A.49.49,0,0,0,364.25,145.43Z"/><line class="cls-20" x1="367.51" y1="146.46" x2="368.78" y2="146.59"/><path class="cls-16" d="M396.37,107c-.48,1.7-.93,3.43-1.35,5.17-.16.69-.32,1.38-.47,2.07-.75,3.39-1.39,6.79-1.92,10.07l-.12.75c-6.87,2.21-14,.69-13.77-5.93.33-8.87,7.89-13,7.89-13C390,104.33,393.53,105.07,396.37,107Z"/><polygon class="cls-7" points="329.16 361.05 338.41 361.05 308.33 123.35 299.08 123.35 329.16 361.05"/><polygon class="cls-14" points="329.16 361.05 338.41 361.05 308.33 123.35 299.08 123.35 329.16 361.05"/><path class="cls-7" d="M309.82,158.59h29.41a1.94,1.94,0,0,0,1.69-1.2l1.87-4H306.26l1.87,4A1.94,1.94,0,0,0,309.82,158.59Z"/><path class="cls-14" d="M309.82,158.59h29.41a1.94,1.94,0,0,0,1.69-1.2l1.87-4H306.26l1.87,4A1.94,1.94,0,0,0,309.82,158.59Z"/><rect class="cls-7" x="304.85" y="151.06" width="39.36" height="4.25" rx="1.91" transform="translate(649.05 306.38) rotate(180)"/><rect class="cls-21" x="304.85" y="151.06" width="39.36" height="4.25" rx="1.91" transform="translate(649.05 306.38) rotate(180)"/><path class="cls-7" d="M315.19,192.56h29.4a1.91,1.91,0,0,0,1.69-1.2l1.87-4H311.63l1.86,4A1.92,1.92,0,0,0,315.19,192.56Z"/><path class="cls-14" d="M315.19,192.56h29.4a1.91,1.91,0,0,0,1.69-1.2l1.87-4H311.63l1.86,4A1.92,1.92,0,0,0,315.19,192.56Z"/><rect class="cls-7" x="310.21" y="185.04" width="39.36" height="4.25" rx="1.91" transform="translate(659.78 374.33) rotate(180)"/><rect class="cls-21" x="310.21" y="185.04" width="39.36" height="4.25" rx="1.91" transform="translate(659.78 374.33) rotate(180)"/><path class="cls-7" d="M320.55,237.54H350a1.94,1.94,0,0,0,1.7-1.2l1.86-4H317l1.87,4A1.92,1.92,0,0,0,320.55,237.54Z"/><path class="cls-14" d="M320.55,237.54H350a1.94,1.94,0,0,0,1.7-1.2l1.86-4H317l1.87,4A1.92,1.92,0,0,0,320.55,237.54Z"/><rect class="cls-7" x="315.57" y="230.02" width="39.36" height="4.25" rx="1.91" transform="translate(670.5 464.28) rotate(180)"/><rect class="cls-21" x="315.57" y="230.02" width="39.36" height="4.25" rx="1.91" transform="translate(670.5 464.28) rotate(180)"/><path class="cls-7" d="M325.91,282.52h29.41a1.94,1.94,0,0,0,1.69-1.2l1.87-4H322.35l1.87,4A1.94,1.94,0,0,0,325.91,282.52Z"/><path class="cls-14" d="M325.91,282.52h29.41a1.94,1.94,0,0,0,1.69-1.2l1.87-4H322.35l1.87,4A1.94,1.94,0,0,0,325.91,282.52Z"/><rect class="cls-7" x="320.94" y="275" width="39.36" height="4.25" rx="1.91" transform="translate(681.23 554.24) rotate(180)"/><rect class="cls-21" x="320.94" y="275" width="39.36" height="4.25" rx="1.91" transform="translate(681.23 554.24) rotate(180)"/><path class="cls-7" d="M331.28,327.5h29.4a1.92,1.92,0,0,0,1.69-1.2l1.87-4H327.71l1.87,4A1.94,1.94,0,0,0,331.28,327.5Z"/><path class="cls-14" d="M331.28,327.5h29.4a1.92,1.92,0,0,0,1.69-1.2l1.87-4H327.71l1.87,4A1.94,1.94,0,0,0,331.28,327.5Z"/><rect class="cls-7" x="326.3" y="319.98" width="39.36" height="4.25" rx="1.91" transform="translate(691.95 644.2) rotate(180)"/><rect class="cls-21" x="326.3" y="319.98" width="39.36" height="4.25" rx="1.91" transform="translate(691.95 644.2) rotate(180)"/><polygon class="cls-7" points="364.87 361.05 374.12 361.05 344.04 123.35 334.79 123.35 364.87 361.05"/><polygon class="cls-13" points="364.87 361.05 374.12 361.05 344.04 123.35 334.79 123.35 364.87 361.05"/><polygon class="cls-7" points="267.76 361.05 258.51 361.05 288.58 123.35 297.83 123.35 267.76 361.05"/><polygon class="cls-14" points="267.76 361.05 258.51 361.05 288.58 123.35 297.83 123.35 267.76 361.05"/><path class="cls-7" d="M322.8,158.59H293.4a1.94,1.94,0,0,1-1.7-1.2l-1.86-4h36.52l-1.87,4A1.92,1.92,0,0,1,322.8,158.59Z"/><path class="cls-22" d="M322.8,158.59H293.4a1.94,1.94,0,0,1-1.7-1.2l-1.86-4h36.52l-1.87,4A1.92,1.92,0,0,1,322.8,158.59Z"/><rect class="cls-7" x="288.42" y="151.06" width="39.36" height="4.25" rx="1.91"/><rect class="cls-23" x="288.42" y="151.06" width="39.36" height="4.25" rx="1.91"/><path class="cls-7" d="M317.44,192.56H288a1.92,1.92,0,0,1-1.69-1.2l-1.87-4H321l-1.87,4A1.92,1.92,0,0,1,317.44,192.56Z"/><path class="cls-22" d="M317.44,192.56H288a1.92,1.92,0,0,1-1.69-1.2l-1.87-4H321l-1.87,4A1.92,1.92,0,0,1,317.44,192.56Z"/><rect class="cls-7" x="283.06" y="185.04" width="39.36" height="4.25" rx="1.91"/><rect class="cls-23" x="283.06" y="185.04" width="39.36" height="4.25" rx="1.91"/><path class="cls-7" d="M312.07,237.54h-29.4a1.92,1.92,0,0,1-1.69-1.2l-1.87-4h36.52l-1.86,4A1.94,1.94,0,0,1,312.07,237.54Z"/><path class="cls-22" d="M312.07,237.54h-29.4a1.92,1.92,0,0,1-1.69-1.2l-1.87-4h36.52l-1.86,4A1.94,1.94,0,0,1,312.07,237.54Z"/><rect class="cls-7" x="277.69" y="230.02" width="39.36" height="4.25" rx="1.91"/><rect class="cls-23" x="277.69" y="230.02" width="39.36" height="4.25" rx="1.91"/><path class="cls-7" d="M306.71,282.52h-29.4a2,2,0,0,1-1.7-1.2l-1.86-4h36.52l-1.87,4A1.92,1.92,0,0,1,306.71,282.52Z"/><path class="cls-22" d="M306.71,282.52h-29.4a2,2,0,0,1-1.7-1.2l-1.86-4h36.52l-1.87,4A1.92,1.92,0,0,1,306.71,282.52Z"/><rect class="cls-7" x="272.33" y="275" width="39.36" height="4.25" rx="1.91"/><rect class="cls-23" x="272.33" y="275" width="39.36" height="4.25" rx="1.91"/><path class="cls-7" d="M301.35,327.5H271.94a1.94,1.94,0,0,1-1.69-1.2l-1.87-4h36.53l-1.87,4A1.92,1.92,0,0,1,301.35,327.5Z"/><path class="cls-22" d="M301.35,327.5H271.94a1.94,1.94,0,0,1-1.69-1.2l-1.87-4h36.53l-1.87,4A1.92,1.92,0,0,1,301.35,327.5Z"/><rect class="cls-7" x="266.97" y="319.98" width="39.36" height="4.25" rx="1.91"/><rect class="cls-23" x="266.97" y="319.98" width="39.36" height="4.25" rx="1.91"/><polygon class="cls-7" points="303.46 361.05 294.21 361.05 324.29 123.35 333.54 123.35 303.46 361.05"/><polygon class="cls-13" points="303.46 361.05 294.21 361.05 324.29 123.35 333.54 123.35 303.46 361.05"/><path class="cls-7" d="M345.52,124.57H286.9a1.93,1.93,0,0,1-1.69-1.21l-1.87-4h65.74l-1.86,4A1.94,1.94,0,0,1,345.52,124.57Z"/><path class="cls-22" d="M345.52,124.57H286.9a1.93,1.93,0,0,1-1.69-1.21l-1.87-4h65.74l-1.86,4A1.94,1.94,0,0,1,345.52,124.57Z"/><rect class="cls-7" x="281.93" y="117.04" width="68.57" height="4.25" rx="1.91"/><rect class="cls-23" x="281.93" y="117.04" width="68.57" height="4.25" rx="1.91"/><path class="cls-17" d="M349.62,123.57l-7.69-5.41-3.6,7.39s4.84,4.54,9.78,2.18Z"/><polygon class="cls-17" points="335.29 117.33 333.93 123.47 338.33 125.55 341.93 118.16 335.29 117.33"/><path class="cls-15" d="M402.19,106.48c-1.51,2.33-3.05,4.56-4.66,6.74-1.21,1.61-2.45,3.2-3.75,4.76h0c-.39.48-.79,1-1.19,1.42-.79.91-1.59,1.82-2.43,2.72-1,1.12-2.13,2.22-3.3,3.3l-.67.6h0a31.63,31.63,0,0,1-2.75,2.27,19.79,19.79,0,0,1-4.65,2.59,10.47,10.47,0,0,1-1.51.46c-.49.12-.91.18-1.36.26a23.09,23.09,0,0,1-2.39.2c-1.51.05-2.92,0-4.31-.07-2.76-.15-5.42-.52-8.05-.91-3.36-.53-6.66-1.19-9.93-2-1.21-.28-2.41-.59-3.61-.91l-1.91-.53a2.79,2.79,0,0,1-2-2.86,3.13,3.13,0,0,1,.1-.6,2.76,2.76,0,0,1,2.28-2,2.19,2.19,0,0,1,.51,0h.05l.7,0,4.53.15c3.37.12,6.73.21,10,.26,2.51.05,5,0,7.41-.08,1.2,0,2.37-.15,3.43-.3a6.9,6.9,0,0,0,2.3-.57A11.21,11.21,0,0,0,377,120c.6-.52,1.23-1.1,1.85-1.73.18-.17.35-.35.52-.53.35-.36.69-.74,1-1.12.86-.94,1.69-1.92,2.52-2.93.37-.46.75-.92,1.12-1.39,1.8-2.27,3.59-4.66,5.32-7.07,1.18-1.63,2.34-3.28,3.46-4.9l.06-.1A5.49,5.49,0,0,1,395,98.34l4.19.18h0l1.09.06a3,3,0,0,1,.33.21A5.64,5.64,0,0,1,402.19,106.48Z"/><path class="cls-11" d="M399.58,113.12a58.59,58.59,0,0,1-6.33,7.66s0,0,0,0c-.62.64-1.28,1.3-2,2l-1.12-.63-9.81-5.52-.91-.51s.64-.95,1.59-2.39c1.19-1.8,2.88-4.37,4.45-6.79,1.22-1.9,2.36-3.71,3.11-5a12.94,12.94,0,0,1,3.24-3.7l3.22.11,4.19.18h0l1.09.06,2.79.14C404.38,101.71,404.1,106.44,399.58,113.12Z"/><path class="cls-13" d="M399.58,113.12a58.59,58.59,0,0,1-6.33,7.66s0,0,0,0c-.62.64-1.28,1.3-2,2l-1.12-.63-9.81-5.52-.91-.51s.64-.95,1.59-2.39c1.19-1.8,2.88-4.37,4.45-6.79,1.22-1.9,2.36-3.71,3.11-5a12.94,12.94,0,0,1,3.24-3.7l3.22.11,4.19.18h0l1.09.06,2.79.14C404.38,101.71,404.1,106.44,399.58,113.12Z"/></g><g id="Character_1" data-name="Character 1"><path class="cls-7" d="M253.34,360.88a1,1,0,0,1,0,.17.24.24,0,0,1,0,.08.88.88,0,0,1-.05.15.93.93,0,0,1-.11.19,1.3,1.3,0,0,1-.15.2,5.09,5.09,0,0,1-1.64,1.07l-.49.21c-.48.2-1,.39-1.63.58-.38.12-.78.23-1.21.35-7,1.89-20.45,3.41-37.36,4.25l-2,.1-3.28.14-3.37.12-2.33.08c-1.85.05-3.72.1-5.62.13l-.69,0-1.29,0-1.25,0c-1.75,0-3.52.05-5.3.06h-4.83c-5.84,0-11.53-.07-17-.22h0l-2.42-.08c-.7,0-1.4,0-2.09-.06l-3.22-.11-4.19-.18h0l-1.09-.06-2.79-.14c-4.59-.26-8.9-.56-12.86-.92-9.48-.84-17-1.93-21.65-3.19l-.4-.11-.44-.13c-.75-.22-1.4-.45-2-.67-.21-.09-.41-.17-.59-.26a8.55,8.55,0,0,1-.87-.47,1.85,1.85,0,0,1-.27-.19l-.22-.17-.21-.21a1.25,1.25,0,0,1-.15-.19,1.09,1.09,0,0,1-.16-.35l0-.11a.66.66,0,0,1,0-.14c0-3.26,17.83-6.06,43.37-7.29l2.05-.1,2.76-.11,4.24-.15,2.29-.07,5.38-.13h.29l1.55,0h1.05c1.58,0,3.17,0,4.78-.05h.48c1.45,0,2.91,0,4.38,0,5.92,0,11.67.08,17.18.22l4,.13,1.7.06h.17l1.86.07,1.22,0,3.16.14h0l3,.15c5.72.31,11,.7,15.76,1.16C243.83,356.37,253.34,358.5,253.34,360.88Z"/><path class="cls-14" d="M108.1,360.89c0-3.26,17.83-6.06,43.37-7.29l2.05-.1,2.76-.11c3.83-.15,7.81-.26,11.91-.35l1.84,0h1.05c3.15-.05,6.37-.07,9.64-.07,5.92,0,11.67.08,17.18.22l4,.13c10.05.33,19.17.9,26.85,1.64,15.07,1.46,24.58,3.59,24.58,6,0,1.06-1.89,2.08-5.32,3a129,129,0,0,0-19.26-3c-7.68-.74-16.8-1.31-26.85-1.64l-4-.13c-5.51-.14-11.26-.22-17.18-.22-3.27,0-6.49,0-9.64.07H170l-1.84,0c-4.1.09-8.08.2-11.91.35l-2.76.11-2.05.1c-17.23.83-30.94,2.37-38,4.29C110,363,108.1,362,108.1,360.89Z"/><path class="cls-15" d="M174.61,357.19c-.55.66-1.06,1.23-1.57,1.78-.26.27-.51.54-.78.81-.48.49-.95,1-1.44,1.44-.32.32-.65.63-1,.94a53.69,53.69,0,0,1-5.37,4.36l-.32.22c-.28.2-.57.39-.87.59h0c-.63.42-1.28.83-2,1.21-.7,0-1.4,0-2.09-.06l-3.22-.11-4.19-.18h0l-1.09-.06-2.79-.14c-4.59-.26-8.9-.56-12.86-.92l1.56-.5c4-1.3,8-2.52,11.9-3.8,1-.33,1.93-.65,2.82-1a11.34,11.34,0,0,0,2.2-1c.44-.26.9-.55,1.36-.86.24-.16.49-.33.74-.52h0c.72-.51,1.44-1.08,2.15-1.67,1.44-1.18,2.85-2.48,4.25-3.83l.75-.74c.45-.43.89-.86,1.32-1.31l2-2,.12-.13a5.66,5.66,0,0,1,4.72-1.7,5.6,5.6,0,0,1,4.93,4.95h0A5.66,5.66,0,0,1,174.61,357.19Z"/><path class="cls-11" d="M172.37,345.72c-5.58-.13-18,13.74-18,13.74l10.25,9.07S173.78,364.58,176,358,172.37,345.72,172.37,345.72Z"/><path class="cls-13" d="M176,358a15.47,15.47,0,0,1-5.13,6.67,30.79,30.79,0,0,1-6.27,3.88l-2.75-2.44-7.5-6.64s12.41-13.87,18-13.74C172.37,345.72,178.27,351.4,176,358Z"/><path class="cls-16" d="M170.9,364.66a30.79,30.79,0,0,1-6.27,3.88l-2.75-2.44a24.54,24.54,0,0,1,7.55-11C170.65,357.43,171.05,362.28,170.9,364.66Z"/><path class="cls-11" d="M210.91,351.56v0h0c-.06.13-.12.25-.17.38-.16.35-.31.7-.46,1.06a5.72,5.72,0,0,0-.24.57.61.61,0,0,0-.05.12,3.71,3.71,0,0,0-.19.46c-.17.4-.33.81-.49,1.23s-.39,1-.58,1.58c0,0,0,.05,0,.07-.14.38-.27.76-.4,1.15s-.27.78-.39,1.17a.56.56,0,0,0,0,.12c-.12.36-.24.72-.35,1.08-.23.76-.46,1.52-.68,2.3l-.06.21c-.48,1.7-.93,3.43-1.35,5.17a.43.43,0,0,0,0,.11l-3.37.12-2.33.08c-1.85.05-3.72.1-5.62.13l-.69,0-1.29,0-1.25,0c-1.75,0-3.52.05-5.3.06h-4.83c-5.84,0-11.53-.07-17-.22h0l.15-.74h0c0-.16.07-.31.11-.46s.06-.3.1-.45a2.25,2.25,0,0,0,.05-.22q.67-3,1.4-5.47c.18-.58.34-1.13.51-1.68.06-.17.11-.34.17-.51h0c.13-.41.26-.8.39-1.18h0l.21-.61h0c.11-.31.22-.62.33-.91s.25-.69.37-1,.22-.57.33-.84h0l.6-1.45c.46-1.1.91-2.06,1.33-2.91.08-.14.15-.29.22-.43l.42-.81.49-.89a1,1,0,0,0,.08-.14c.17-.31.34-.59.49-.83l.39-.62.47-.68h0a71.12,71.12,0,0,1,8.93-.29c.63,0,1.27.05,1.92.09s1.24.1,1.92.18c1.43.16,3,.38,4.67.65l3.14.54c1.05.19,2.09.38,3.09.58l.53.11h0c.79.15,1.56.31,2.27.46.49.1,1,.21,1.46.33.25.06.49.11.73.18l.73.18c.91.23,1.81.48,2.66.72l.83.25,1.55.48,1.36.44c1.55.51,2.58.89,2.73.94Z"/><path class="cls-13" d="M210.92,351.56v0h0c-.06.13-.12.25-.17.38-.16.35-.32.7-.46,1.06q-.14.29-.24.57h0a.56.56,0,0,0,0,.12,3.71,3.71,0,0,0-.19.46c-.17.4-.33.81-.49,1.23s-.4,1-.58,1.58c0,0,0,.05,0,.07-.14.38-.27.76-.4,1.15s-.27.78-.39,1.17l0,.07a.09.09,0,0,0,0,.05c-.12.36-.24.72-.35,1.08-.23.76-.46,1.52-.68,2.3l-.06.21c-.48,1.7-.93,3.43-1.35,5.17a.43.43,0,0,0,0,.11l-3.37.12-2.33.08c-1.85.05-3.72.1-5.62.13l-.69,0-1.29,0-1.25,0c-1.75,0-3.52.05-5.3.06h-4.83c-5.84,0-11.53-.07-17-.22l.15-.73h0c.07-.32.13-.62.2-.92a2.25,2.25,0,0,0,.05-.22q.67-3,1.4-5.47c.18-.58.34-1.13.51-1.68.06-.17.11-.34.17-.51h0c.13-.41.26-.8.39-1.18h0l.21-.61h0c.11-.31.22-.62.33-.91s.25-.69.37-1,.22-.57.33-.84h0l.6-1.45h0c.46-1.1.91-2.06,1.32-2.91.08-.14.15-.29.22-.43l.42-.81.49-.89a1,1,0,0,0,.08-.14l.49-.83.39-.62.47-.68h0a71.12,71.12,0,0,1,8.93-.29c.63,0,1.27.05,1.92.09s1.24.1,1.92.18c1.43.16,3,.38,4.67.65l3.14.54c1.05.19,2.09.38,3.09.58l.53.11h0c.79.15,1.56.31,2.27.46.49.1,1,.21,1.46.33.25.06.49.11.73.18l.73.17c.91.23,1.81.48,2.66.73l.83.25,1.55.48,1.36.44c1.55.51,2.58.89,2.73.94h0Z"/><path class="cls-17" d="M192.83,333.5s.31,10.64,1.32,12.21,4.66,2.32,4.66,2.32-8.77,4.36-12.87,3.54-6.07-6.18-6.07-6.18,2.86.12,3.56-.28-.55-7.43-.55-7.43Z"/><path class="cls-24" d="M183.72,340.32s-.36.53-.36.52c-.22-1.65-.48-3.16-.48-3.16l9.94-4.18s.26,8.57,1,11.47C189.8,345.39,185.1,342.41,183.72,340.32Z"/><path class="cls-7" d="M189.43,315.63c2.72,1.42,6.61,6,2.35,7.53S184.76,313.2,189.43,315.63Z"/><path class="cls-17" d="M177.34,333.32a64.79,64.79,0,0,0,6.8,7.15,11.7,11.7,0,0,0,6.19,2.7c8,1,13.18-7.52,9.95-14.55a22.42,22.42,0,0,0-1.25-2.35c-3.51-5.78-10.26-11.85-16.94-9.87A10.38,10.38,0,0,0,177.34,333.32Z"/><path class="cls-7" d="M180.63,332.85,181,334a22.11,22.11,0,0,0,3.18,6.44,11.7,11.7,0,0,0,6.19,2.7c8,1,13.18-7.52,9.95-14.55a22.42,22.42,0,0,0-1.25-2.35s.6,2.81.08,4.13c0,0-3-.77-4.48.46,0,0-3.18-.87-5.88,2.5A6.81,6.81,0,0,1,180.63,332.85Z"/><path class="cls-22" d="M180.63,332.85,181,334a22.11,22.11,0,0,0,3.18,6.44,11.7,11.7,0,0,0,6.19,2.7c8,1,13.18-7.52,9.95-14.55a22.42,22.42,0,0,0-1.25-2.35s.6,2.81.08,4.13c0,0-3-.77-4.48.46,0,0-3.18-.87-5.88,2.5A6.81,6.81,0,0,1,180.63,332.85Z"/><path class="cls-7" d="M169,329.58c-3.63-3-.19-7.45,3.61-8.95a2.12,2.12,0,0,0,1-.82l4.51,6.92c-.41.2-.82.39-1.21.54,0,0,5.27,4.66,4.76,9.3C174.31,338.61,167.21,334.82,169,329.58Z"/><path class="cls-17" d="M178.93,340.05a7,7,0,0,0,5.33,1.07c.19,0,.36-.09.52-.14v0c1.52-1.42-3-6.45-3.21-6.71h0a3.45,3.45,0,0,0-2.9.4A3.24,3.24,0,0,0,178.93,340.05Z"/><path class="cls-7" d="M187.56,327.85c.37.48.93.67,1.25.42s.26-.85-.12-1.33-.94-.67-1.25-.42S187.18,327.37,187.56,327.85Z"/><path class="cls-7" d="M193,323.52c.37.48.93.67,1.25.42s.26-.85-.12-1.33-.94-.67-1.25-.42S192.59,323,193,323.52Z"/><path class="cls-25" d="M191.43,325.13a21.1,21.1,0,0,0,5.44,2.12c-.24,1.42-2,2.21-2,2.21Z"/><path class="cls-7" d="M185.41,324.12a.37.37,0,0,0-.18.32,2.91,2.91,0,0,1-1.14,2.35.38.38,0,0,0-.11.5.37.37,0,0,0,.5.11,3.62,3.62,0,0,0,1.46-3,.36.36,0,0,0-.35-.36A.34.34,0,0,0,185.41,324.12Z"/><path class="cls-7" d="M193.85,319.6a.28.28,0,0,0,.12-.16.37.37,0,0,0-.21-.47,3.57,3.57,0,0,0-3.25.37.37.37,0,0,0-.07.51.35.35,0,0,0,.5.07,2.81,2.81,0,0,1,2.58-.27A.33.33,0,0,0,193.85,319.6Z"/><path class="cls-7" d="M194.84,336c.19-.07.38-.17.57-.26l.49-3.94s-.24,0-.61,0c-1.24,0-4,.28-4.74,1.69a2.91,2.91,0,0,0-.19.51,2.78,2.78,0,0,0,.13,1.92C190.94,336.82,192.14,337.26,194.84,336Z"/><path class="cls-5" d="M190.36,334.05l4.81-1.74.12-.46c-1.24,0-4,.28-4.74,1.69A2.91,2.91,0,0,0,190.36,334.05Z"/><path class="cls-26" d="M194.84,336c-.84-1.4-3.08-.68-4.35-.07C190.94,336.82,192.14,337.26,194.84,336Z"/><path class="cls-7" d="M169,329.58c-1.48-1.13-3.64-4.21-.74-7.4s6.33-4.78,4.71-7.1,1.25-4.3,3.27-2.78c0,0,4.75-7.77,8.13-1.8,0,0,3.31-2.28,5.34.16s2.45,5.07-.22,6-2.92,1.23-2.46,2.77-1.86,2.84-1.86,2.84,1.44-.92.62-2A3.58,3.58,0,0,1,183,323c-2.59.82-1.39,3.34-1.39,3.34s-1.39.54-1.69-1.44c0,0-1.08,4.42-4,5.51S171.2,331.3,169,329.58Z"/><path class="cls-16" d="M206.77,363.09c-.48,1.7-.93,3.43-1.35,5.17a.43.43,0,0,0,0,.11l-3.37.12-2.33.08c-1.85.05-3.72.1-5.62.13l-.69,0-1.29,0-1.25,0a17.27,17.27,0,0,1,5-5.79,10.94,10.94,0,0,1,1.16-.77,8.51,8.51,0,0,1,2.67-.93A9.7,9.7,0,0,1,206.77,363.09Z"/><path class="cls-15" d="M213.48,359.78a5.59,5.59,0,0,1-.89,2.75c-1.27,2-2.56,3.86-3.91,5.7l-3.28.14-3.37.12-2.33.08c-1.85.05-3.72.1-5.62.13.11-.12.2-.24.3-.36,1.8-2.27,3.59-4.66,5.32-7.07.49-.67,1-1.35,1.44-2,.69-1,1.35-1.92,2-2.87l.07-.1a5.64,5.64,0,0,1,6.57-2.09,5.49,5.49,0,0,1,1.27.66A5.62,5.62,0,0,1,213.48,359.78Z"/><path class="cls-11" d="M214.05,359.81a21.58,21.58,0,0,1-3.39,8.32l-2,.1-3.28.14-3.37.12-2.33.08c-1.85.05-3.72.1-5.62.13l-.69,0-1.29,0c1.11-1.68,2.48-3.78,3.77-5.77.88-1.38,1.72-2.7,2.4-3.82L199,358a12.79,12.79,0,0,1,4.64-4.65h0a13.46,13.46,0,0,1,7.27-1.74,6.79,6.79,0,0,1,2.1,2.16A8.94,8.94,0,0,1,214.05,359.81Z"/><path class="cls-13" d="M214.05,359.81a21.58,21.58,0,0,1-3.39,8.32l-2,.1-3.28.14-3.37.12-2.33.08c-1.85.05-3.72.1-5.62.13l-.69,0-1.29,0c1.11-1.68,2.48-3.78,3.77-5.77.88-1.38,1.72-2.7,2.4-3.82L199,358a12.79,12.79,0,0,1,4.64-4.65h0a13.46,13.46,0,0,1,7.27-1.74,6.79,6.79,0,0,1,2.1,2.16A8.94,8.94,0,0,1,214.05,359.81Z"/></g></g></svg>