<?xml version="1.0" encoding="utf-8"?>
<!-- Generator: Adobe Illustrator 23.0.0, SVG Export Plug-In . SVG Version: 6.00 Build 0)  -->
<svg version="1.1" xmlns="http://www.w3.org/2000/svg" xmlns:xlink="http://www.w3.org/1999/xlink" x="0px" y="0px"
	 viewBox="0 0 500 500" style="enable-background:new 0 0 500 500;" xml:space="preserve">
<style type="text/css">
	.st0{display:none;}
	.st1{display:inline;}
	.st2{fill:#407BFF;}
	.st3{opacity:0.9;fill:#FFFFFF;}
	.st4{opacity:0.3;}
	.st5{opacity:0.7;fill:#FFFFFF;}
	.st6{opacity:0.2;fill:#407BFF;}
	.st7{opacity:0.3;fill:#FFFFFF;}
	.st8{opacity:0.4;fill:#407BFF;}
	.st9{opacity:0.2;}
	.st10{opacity:0.2;fill:#FFFFFF;}
	.st11{opacity:0.3;fill:#407BFF;}
	.st12{opacity:0.8;fill:#FFFFFF;}
	.st13{fill:#263238;}
	.st14{fill:#FFFFFF;}
	.st15{opacity:0.5;fill:#FFFFFF;}
	.st16{opacity:0.6;fill:#407BFF;}
	.st17{opacity:0.5;fill:#407BFF;}
	.st18{opacity:0.6;fill:#FFFFFF;}
</style>
<g id="Background_Simple" class="st0">
	<g class="st1">
		<path class="st2" d="M104.7,145.9c-15.3,40.8-2.1,95.9,21.6,139c61,111.9,209.4,48.6,206.9-2.2c3.5-48.5-40.1-62.9-54.9-90.1
			C195.4,39.2,117,111.5,104.7,145.9z"/>
		<path class="st3" d="M104.7,145.9c-15.3,40.8-2.1,95.9,21.6,139c61,111.9,209.4,48.6,206.9-2.2c3.5-48.5-40.1-62.9-54.9-90.1
			C195.4,39.2,117,111.5,104.7,145.9z"/>
	</g>
</g>
<g id="_x34_04">
	<g>
		<path class="st2" d="M116.3,302.9H36.4v-36.1l79.9-95h38.2v97h19.8v34h-19.8v29.5h-38.2V302.9z M116.3,268.9v-49.7l-42.2,49.7
			H116.3z"/>
		<path class="st2" d="M188,252.8c0-30,5.4-51,16.2-63c10.8-12,27.3-18,49.4-18c10.6,0,19.4,1.3,26.2,3.9c6.8,2.6,12.4,6,16.7,10.2
			c4.3,4.2,7.7,8.6,10.2,13.2c2.5,4.6,4.5,10,6,16.2c2.9,11.8,4.4,24.1,4.4,36.8c0,28.6-4.8,49.6-14.5,62.9
			c-9.7,13.3-26.4,19.9-50.1,19.9c-13.3,0-24-2.1-32.2-6.4c-8.2-4.2-14.9-10.4-20.1-18.6c-3.8-5.8-6.8-13.8-8.9-23.9
			C189.1,276.2,188,265,188,252.8z M231.5,252.9c0,20.1,1.8,33.8,5.3,41.2c3.6,7.4,8.7,11,15.5,11c4.5,0,8.3-1.6,11.6-4.7
			c3.3-3.1,5.7-8.1,7.2-14.8c1.5-6.7,2.3-17.3,2.3-31.6c0-21-1.8-35.1-5.3-42.3c-3.6-7.2-8.9-10.8-16-10.8c-7.3,0-12.5,3.7-15.7,11
			C233.1,219.4,231.5,233,231.5,252.9z"/>
		<path class="st2" d="M410.5,302.9h-79.9v-36.1l79.9-95h38.2v97h19.8v34h-19.8v29.5h-38.2V302.9z M410.5,268.9v-49.7l-42.2,49.7
			H410.5z"/>
	</g>
</g>
<g id="Planets">
	<g>
		<g class="st4">
			<path class="st2" d="M186.2,116.4c0,1.4-1.1,2.4-2.4,2.4c-1.4,0-2.4-1.1-2.4-2.4c0-1.4,1.1-2.4,2.4-2.4
				C185.1,113.9,186.2,115,186.2,116.4z"/>
			<circle class="st2" cx="18.2" cy="209" r="1.7"/>
			<circle class="st2" cx="304.6" cy="461.4" r="2.5"/>
			<circle class="st2" cx="364.3" cy="361.2" r="1.7"/>
			<path class="st2" d="M479.4,50.7c0,1-0.8,1.7-1.7,1.7c-1,0-1.7-0.8-1.7-1.7c0-1,0.8-1.7,1.7-1.7C478.6,49,479.4,49.8,479.4,50.7z
				"/>
			<path class="st2" d="M149.2,15.7c0,1-0.8,1.7-1.7,1.7c-1,0-1.7-0.8-1.7-1.7s0.8-1.7,1.7-1.7C148.4,14,149.2,14.8,149.2,15.7z"/>
			<circle class="st2" cx="287" cy="105" r="1.7"/>
		</g>
		<g>
			<g>
				<circle class="st2" cx="107.8" cy="78" r="28.8"/>
				<circle class="st5" cx="107.8" cy="78" r="28.8"/>
			</g>
			<path class="st6" d="M97.9,56.3c-4,0-7.9,0.8-11.3,2.3C81.9,63.7,79,70.5,79,78c0,15.9,12.9,28.8,28.8,28.8c4,0,7.9-0.8,11.4-2.3
				c0,0,0,0,0,0c4.6-5.1,7.5-11.9,7.5-19.3C126.7,69.1,113.8,56.3,97.9,56.3z"/>
			<path class="st6" d="M95,63.9c0,1.5-1.2,2.6-2.6,2.6s-2.6-1.2-2.6-2.6c0-1.5,1.2-2.6,2.6-2.6S95,62.4,95,63.9z"/>
			<path class="st6" d="M126,61.2c0,1.5-1.2,2.6-2.6,2.6c-1.5,0-2.6-1.2-2.6-2.6c0-1.5,1.2-2.6,2.6-2.6
				C124.8,58.6,126,59.8,126,61.2z"/>
			<path class="st6" d="M120.7,80c0,2.4-1.9,4.3-4.3,4.3s-4.3-1.9-4.3-4.3c0-2.4,1.9-4.3,4.3-4.3S120.7,77.6,120.7,80z"/>
			<path class="st6" d="M107,92.3c0,3.2-2.6,5.8-5.8,5.8c-3.2,0-5.8-2.6-5.8-5.8c0-3.2,2.6-5.8,5.8-5.8
				C104.5,86.5,107,89.1,107,92.3z"/>
		</g>
		<g>
			<g>
				
					<ellipse transform="matrix(0.2298 -0.9732 0.9732 0.2298 -81.2609 735.8542)" class="st2" cx="424.3" cy="419.3" rx="25.2" ry="25.2"/>
				
					<ellipse transform="matrix(0.2298 -0.9732 0.9732 0.2298 -81.2609 735.8542)" class="st7" cx="424.3" cy="419.3" rx="25.2" ry="25.2"/>
			</g>
			<path class="st8" d="M440.2,399.7c-2.3-0.7-4.7-1.1-7.3-1.1c-13.9,0-25.3,11.3-25.3,25.3c0,7.9,3.6,14.9,9.3,19.6
				c2.3,0.7,4.7,1.1,7.3,1.1c13.9,0,25.3-11.3,25.3-25.3C449.5,411.4,445.9,404.3,440.2,399.7z"/>
			<path class="st2" d="M400.1,426.7c-27,12.7-6.8,22.5,31.1,8.8c35.2-12.6,48.5-28.6,17.1-23.6C450,418.6,406,435.8,400.1,426.7z"
				/>
		</g>
	</g>
</g>
<g id="Astronaut">
	<g>
		<path class="st9" d="M439.9,171.8c-35.3,23.9-81,55.3-93.6,131.1h-2.7c12.3-74.8,56.3-107.1,91.7-131.1H439.9z"/>
		<g>
			<path class="st2" d="M257.2,408.8c-22.3,0-44.4-10.1-55.1-26.5c-6.6-10.2-14.3-31.5,8.6-59.9l2,1.7
				c-16.2,20.1-19.2,40.3-8.5,56.8c13.1,20.1,44.1,30.2,70.6,23c27.1-7.4,43.5-30.9,45.1-64.7c5.4-115.3,66.7-150.8,111.4-176.8
				c27.8-16.1,47.9-27.8,43.5-52.3c-0.6-3.4-2-5.8-4.2-7.2c-5.7-3.8-16.9-1.2-29.8,1.8c-25.4,5.9-60.1,14-80.8-21.2l2.3-1.3
				c19.7,33.5,52,26,77.9,20c13.5-3.1,25.2-5.9,31.8-1.5c2.8,1.9,4.5,4.8,5.3,8.9c4.7,26.4-17.1,39-44.7,55.1
				c-44.2,25.6-104.8,60.7-110.1,174.6c-1.6,34.9-18.8,59.4-47.1,67.1C269.6,408,263.4,408.8,257.2,408.8z"/>
			<path class="st10" d="M257.2,408.8c-22.3,0-44.4-10.1-55.1-26.5c-6.6-10.2-14.3-31.5,8.6-59.9l2,1.7
				c-16.2,20.1-19.2,40.3-8.5,56.8c13.1,20.1,44.1,30.2,70.6,23c27.1-7.4,43.5-30.9,45.1-64.7c5.4-115.3,66.7-150.8,111.4-176.8
				c27.8-16.1,47.9-27.8,43.5-52.3c-0.6-3.4-2-5.8-4.2-7.2c-5.7-3.8-16.9-1.2-29.8,1.8c-25.4,5.9-60.1,14-80.8-21.2l2.3-1.3
				c19.7,33.5,52,26,77.9,20c13.5-3.1,25.2-5.9,31.8-1.5c2.8,1.9,4.5,4.8,5.3,8.9c4.7,26.4-17.1,39-44.7,55.1
				c-44.2,25.6-104.8,60.7-110.1,174.6c-1.6,34.9-18.8,59.4-47.1,67.1C269.6,408,263.4,408.8,257.2,408.8z"/>
		</g>
		<g>
			<g>
				<path class="st2" d="M333.1,52.5c9-0.2,17.8,2.8,17.8,2.8s14.4,24.7,16.2,30.3c-0.6,5.6-10,14.7-10,14.7L333.1,52.5z"/>
				<path class="st7" d="M333.1,52.5c9-0.2,17.8,2.8,17.8,2.8s14.4,24.7,16.2,30.3c-0.6,5.6-10,14.7-10,14.7L333.1,52.5z"/>
			</g>
			<g>
				<g>
					<path class="st2" d="M375.9,172.2c-5.4-6.9-10.8-13.9-15.2-21.5c-1.1-1.9-2.1-3.8-3.1-5.8c-0.6-1.1-1.1-2.2-1.6-3.4
						c-0.5-1-1.5-2.4-1.6-3.5c-1.6-16.6,4.1-28.9-1.3-42.3l-21.6,8.5c0,0,1.8,23.8,6,38c2.6,8.8,8.5,16.5,14.2,23.6
						c1.8,2.2,3.5,4.5,5.3,6.7c1.7,2.1,3.6,4,5.2,6.1c2.6,3.2,3.4,6.2,1.5,9.9c-0.1,0.2-0.2,0.4-0.3,0.6c-0.6,1,2,2.1,3.7,0
						c2.7-3.4,2.3-3.2,4.5-6.1c1.4-1.8,3-3.6,4.4-5.3C377.1,176.2,377.2,173.9,375.9,172.2z"/>
					<path class="st5" d="M375.9,172.2c-5.4-6.9-10.8-13.9-15.2-21.5c-1.1-1.9-2.1-3.8-3.1-5.8c-0.6-1.1-1.1-2.2-1.6-3.4
						c-0.5-1-1.5-2.4-1.6-3.5c-1.6-16.6,4.1-28.9-1.3-42.3l-21.6,8.5c0,0,1.8,23.8,6,38c2.6,8.8,8.5,16.5,14.2,23.6
						c1.8,2.2,3.5,4.5,5.3,6.7c1.7,2.1,3.6,4,5.2,6.1c2.6,3.2,3.4,6.2,1.5,9.9c-0.1,0.2-0.2,0.4-0.3,0.6c-0.6,1,2,2.1,3.7,0
						c2.7-3.4,2.3-3.2,4.5-6.1c1.4-1.8,3-3.6,4.4-5.3C377.1,176.2,377.2,173.9,375.9,172.2z"/>
				</g>
				<path class="st11" d="M370.6,165.4c-2.9,3.5-8.8,8-11.4,9.9c0.6,0.6,1.1,1.3,1.7,1.9c5.3-3.5,9.6-8,11.2-9.9
					C371.6,166.7,371.1,166,370.6,165.4z"/>
				<path class="st11" d="M375.9,172.2c0-0.1-0.1-0.1-0.2-0.2c-0.9,1-1.6,2.5-1.7,4.2c-0.1,1.2,0.1,2.2,0.5,3.1
					c0.4-0.5,0.8-1,1.2-1.5C377.1,176.2,377.2,173.9,375.9,172.2z"/>
			</g>
			<g>
				<g>
					<path class="st2" d="M327.9,68.2c-2.3,3.3-4.9,6.5-8.4,9.4c-1.7,1.5-3.7,2.8-5.8,3.9c-1.1,0.6-2.2,1-3.4,1.4l-0.9,0.3l-0.3,0.1
						c-0.2,0.1-0.4,0.1-0.6,0.2c-0.4,0.1-0.8,0.2-1.1,0.2c-1.4,0.1-2.5-0.1-3.3-0.3c-1.7-0.5-2.8-1.1-3.9-1.7c-1-0.6-2-1.2-2.8-1.9
						c-1.7-1.3-3.3-2.6-4.7-4c-2.9-2.8-5.5-5.6-7.9-8.8c-1.1-1.5-0.8-3.5,0.7-4.6c1.1-0.8,2.6-0.9,3.7-0.1l0.1,0.1
						c3.1,2,6.2,4,9.3,5.9c1.5,0.9,3,1.8,4.5,2.5c0.7,0.4,1.4,0.7,2.1,0.9c0.6,0.2,1.3,0.4,1.4,0.4c0.1,0,0-0.1-0.5-0.1
						c-0.1,0-0.3,0-0.5,0.1c-0.1,0-0.2,0-0.3,0.1c-0.1,0,0,0,0,0l0.4-0.2c0.6-0.3,1.1-0.7,1.7-1c1.1-0.8,2.2-1.7,3.3-2.8
						c2.2-2.1,4.2-4.8,6.4-7.6l0,0c2.2-2.8,6.4-3.3,9.2-1.1C329.3,61.5,329.9,65.4,327.9,68.2z"/>
					<path class="st5" d="M327.9,68.2c-2.3,3.3-4.9,6.5-8.4,9.4c-1.7,1.5-3.7,2.8-5.8,3.9c-1.1,0.6-2.2,1-3.4,1.4l-0.9,0.3l-0.3,0.1
						c-0.2,0.1-0.4,0.1-0.6,0.2c-0.4,0.1-0.8,0.2-1.1,0.2c-1.4,0.1-2.5-0.1-3.3-0.3c-1.7-0.5-2.8-1.1-3.9-1.7c-1-0.6-2-1.2-2.8-1.9
						c-1.7-1.3-3.3-2.6-4.7-4c-2.9-2.8-5.5-5.6-7.9-8.8c-1.1-1.5-0.8-3.5,0.7-4.6c1.1-0.8,2.6-0.9,3.7-0.1l0.1,0.1
						c3.1,2,6.2,4,9.3,5.9c1.5,0.9,3,1.8,4.5,2.5c0.7,0.4,1.4,0.7,2.1,0.9c0.6,0.2,1.3,0.4,1.4,0.4c0.1,0,0-0.1-0.5-0.1
						c-0.1,0-0.3,0-0.5,0.1c-0.1,0-0.2,0-0.3,0.1c-0.1,0,0,0,0,0l0.4-0.2c0.6-0.3,1.1-0.7,1.7-1c1.1-0.8,2.2-1.7,3.3-2.8
						c2.2-2.1,4.2-4.8,6.4-7.6l0,0c2.2-2.8,6.4-3.3,9.2-1.1C329.3,61.5,329.9,65.4,327.9,68.2z"/>
				</g>
				<g>
					<path class="st2" d="M279.9,59.6l1.5,2.6c0,0,1.2,3.4,3.5,4.1l6.4-2.1l-0.3-0.5c0,0,0,0,0,0c-0.8-1.2-0.7-3.6-0.4-5.6
						c0.3-2-0.7-2.1-1.5-1.6c-0.4,0.3-0.8,1.2-1.1,2.2c-0.3-0.4-0.6-0.8-1-1.2l-1.9-1.9c-0.8-0.8-2.2-0.9-3.1-0.1l-1.6,1.4
						C279.6,57.5,279.4,58.7,279.9,59.6z"/>
					<path class="st5" d="M279.9,59.6l1.5,2.6c0,0,1.2,3.4,3.5,4.1l6.4-2.1l-0.3-0.5c0,0,0,0,0,0c-0.8-1.2-0.7-3.6-0.4-5.6
						c0.3-2-0.7-2.1-1.5-1.6c-0.4,0.3-0.8,1.2-1.1,2.2c-0.3-0.4-0.6-0.8-1-1.2l-1.9-1.9c-0.8-0.8-2.2-0.9-3.1-0.1l-1.6,1.4
						C279.6,57.5,279.4,58.7,279.9,59.6z"/>
				</g>
			</g>
			<g>
				<path class="st2" d="M339.5,50.2c-6.1,1.5-14.5,5-20.2,8.5c-2,1.3-3,3.6-2.5,5.9c2.5,12.4,8.3,29,14.5,39.6l29-12
					c0.2-5.1-6.9-21.7-14-37.7C345.1,51.6,342.6,49.5,339.5,50.2z"/>
				<path class="st12" d="M339.5,50.2c-6.1,1.5-14.5,5-20.2,8.5c-2,1.3-3,3.6-2.5,5.9c2.5,12.4,8.3,29,14.5,39.6l29-12
					c0.2-5.1-6.9-21.7-14-37.7C345.1,51.6,342.6,49.5,339.5,50.2z"/>
			</g>
			<path class="st11" d="M350.9,64.6l-5.8-1.9c1.3,3.4,6,7.6,9.2,10.2C353.2,70.2,352.1,67.5,350.9,64.6z"/>
			<g>
				<path class="st2" d="M337.6,37.2c-2.4-4.6-7.6-6.9-13.8-6.4c-5.3,0.4-9.9,5.8-9.4,8.7c0.6,2.9,5,4.1,5.8,5.1l-3.6,2.6
					c-1.8,1.3-2.2,3.9-0.8,5.6c1.5,1.9,3.6,4,4.7,5.4c10.1-0.3,17.5-4.1,20.2-7.8C339.7,45.9,340,41.7,337.6,37.2z"/>
				<path class="st12" d="M337.6,37.2c-2.4-4.6-7.6-6.9-13.8-6.4c-5.3,0.4-9.9,5.8-9.4,8.7c0.6,2.9,5,4.1,5.8,5.1l-3.6,2.6
					c-1.8,1.3-2.2,3.9-0.8,5.6c1.5,1.9,3.6,4,4.7,5.4c10.1-0.3,17.5-4.1,20.2-7.8C339.7,45.9,340,41.7,337.6,37.2z"/>
			</g>
			<path class="st13" d="M332.7,40c2,5.1-0.5,10.9-5.6,12.9c-5.1,2-10.9-0.5-12.9-5.6c-2-5.1,0.5-10.9,5.6-12.9
				C324.9,32.4,330.7,34.9,332.7,40z"/>
			<g>
				<g>
					<path class="st2" d="M418,158.4c-0.1-4.3-0.3-3.9-0.5-7.6c-0.1-2.2-0.1-4.7-0.1-6.9c0-2.1-1.5-3.9-3.5-4.3
						c-1.7-0.4-3.5-0.7-5.2-1.1c-2.3-0.5-4.5-1-6.7-1.6c-1.7-0.5-3.4-1.1-5.1-1.7c-1.8-0.7-3.6-1.4-5.4-2.1
						c-2.1-0.9-4.1-1.8-6.1-2.8c-2.3-1.1-4.5-2.2-6.8-3.3c-8.6-14.3-8.8-23.7-18.1-34.8l-19.9,9c0,0,14.6,26,24.6,37
						c5.7,6.3,14.7,9.2,22.8,11.3c5.8,1.5,11.7,2.6,17.5,3.7c2.3,0.4,4.8,0.6,6.7,1.9c1.5,1.1,2.3,2.8,2.8,4.5
						c0.1,0.4,0.2,0.7,0.2,1.1C415.4,161.8,418,161,418,158.4z"/>
					<path class="st12" d="M418,158.4c-0.1-4.3-0.3-3.9-0.5-7.6c-0.1-2.2-0.1-4.7-0.1-6.9c0-2.1-1.5-3.9-3.5-4.3
						c-1.7-0.4-3.5-0.7-5.2-1.1c-2.3-0.5-4.5-1-6.7-1.6c-1.7-0.5-3.4-1.1-5.1-1.7c-1.8-0.7-3.6-1.4-5.4-2.1
						c-2.1-0.9-4.1-1.8-6.1-2.8c-2.3-1.1-4.5-2.2-6.8-3.3c-8.6-14.3-8.8-23.7-18.1-34.8l-19.9,9c0,0,14.6,26,24.6,37
						c5.7,6.3,14.7,9.2,22.8,11.3c5.8,1.5,11.7,2.6,17.5,3.7c2.3,0.4,4.8,0.6,6.7,1.9c1.5,1.1,2.3,2.8,2.8,4.5
						c0.1,0.4,0.2,0.7,0.2,1.1C415.4,161.8,418,161,418,158.4z"/>
				</g>
				<path class="st11" d="M407.9,138.4c-0.8-0.2-1.6-0.3-2.4-0.5c0.1,4.5-2.1,12.4-2.8,14.7c0.8,0.2,1.7,0.3,2.5,0.5
					C407.4,146.9,407.8,140.3,407.9,138.4z"/>
				<path class="st11" d="M417.4,144c0-2.1-1.5-3.9-3.5-4.3c-0.4-0.1-0.8-0.2-1.3-0.2c0.1,1.2,0.9,2.7,2.1,3.8
					c0.8,0.8,1.8,1.3,2.7,1.5C417.4,144.4,417.4,144.2,417.4,144z"/>
			</g>
			<path class="st14" d="M330.8,40.1c0.5,2-1.7,4.1-3.5,2.4c-1.4-1.4-3.6-3.7-5.4-4.8c-1.8-1.1,0.6-3.1,3.5-2.4
				C328.1,36,330.3,38.1,330.8,40.1z"/>
			<g>
				<path class="st2" d="M331,103.6c-0.9,0.3,0.8,1.9,0.8,1.9s18.3-6.3,29.5-12.8c0.1-1.4-0.9-2.1-0.9-2.1S346.8,97.7,331,103.6z"/>
				<path class="st15" d="M331,103.6c-0.9,0.3,0.8,1.9,0.8,1.9s18.3-6.3,29.5-12.8c0.1-1.4-0.9-2.1-0.9-2.1S346.8,97.7,331,103.6z"
					/>
			</g>
			<g>
				<g>
					<path class="st2" d="M344.5,49.3c3.6,1.8,7,3.8,10.4,5.9c1.7,1.1,3.4,2.2,5,3.3c1.7,1.2,3.3,2.4,5,3.8l0.6,0.5l0.8,0.7
						c0.6,0.5,1,0.9,1.4,1.4c0.4,0.5,0.8,0.9,1.1,1.3c0.4,0.4,0.7,0.9,1,1.3c1.3,1.7,2.4,3.5,3.4,5.3c2,3.6,3.8,7.1,5.2,11
						c0.6,1.7-0.2,3.6-1.9,4.3c-1.3,0.5-2.7,0.1-3.6-0.8l-0.1-0.1c-2.6-2.8-5.2-5.7-7.7-8.5c-2.5-2.7-5.1-5.5-7.3-6.8
						c-3-1.9-6.3-3.7-9.6-5.5l-9.9-5.5l0,0c-3.2-1.8-4.3-5.8-2.6-8.9C337.5,48.9,341.4,47.8,344.5,49.3z"/>
					<path class="st12" d="M344.5,49.3c3.6,1.8,7,3.8,10.4,5.9c1.7,1.1,3.4,2.2,5,3.3c1.7,1.2,3.3,2.4,5,3.8l0.6,0.5l0.8,0.7
						c0.6,0.5,1,0.9,1.4,1.4c0.4,0.5,0.8,0.9,1.1,1.3c0.4,0.4,0.7,0.9,1,1.3c1.3,1.7,2.4,3.5,3.4,5.3c2,3.6,3.8,7.1,5.2,11
						c0.6,1.7-0.2,3.6-1.9,4.3c-1.3,0.5-2.7,0.1-3.6-0.8l-0.1-0.1c-2.6-2.8-5.2-5.7-7.7-8.5c-2.5-2.7-5.1-5.5-7.3-6.8
						c-3-1.9-6.3-3.7-9.6-5.5l-9.9-5.5l0,0c-3.2-1.8-4.3-5.8-2.6-8.9C337.5,48.9,341.4,47.8,344.5,49.3z"/>
				</g>
				<g>
					<path class="st2" d="M381.6,90.3l-1.1-2.8c0,0-0.6-3.6-2.8-4.6l-6.6,1l0.2,0.6c0,0,0,0,0,0c0.6,1.4,0.1,3.7-0.4,5.6
						c-0.6,1.9,0.4,2.2,1.2,1.8c0.5-0.2,0.9-1.1,1.4-2c0.2,0.5,0.5,0.9,0.8,1.4l1.6,2.2c0.7,1,2,1.2,3,0.6l1.8-1.1
						C381.7,92.4,382,91.3,381.6,90.3z"/>
					<path class="st12" d="M381.6,90.3l-1.1-2.8c0,0-0.6-3.6-2.8-4.6l-6.6,1l0.2,0.6c0,0,0,0,0,0c0.6,1.4,0.1,3.7-0.4,5.6
						c-0.6,1.9,0.4,2.2,1.2,1.8c0.5-0.2,0.9-1.1,1.4-2c0.2,0.5,0.5,0.9,0.8,1.4l1.6,2.2c0.7,1,2,1.2,3,0.6l1.8-1.1
						C381.7,92.4,382,91.3,381.6,90.3z"/>
				</g>
			</g>
			<g>
				<g>
					<path class="st11" d="M339,64.4l-1.6,0.1l-9.8,23.7c0.6,0,1.1,0,1.6-0.1c0,0,12.8-4.8,16.7-6.5C343.2,76.2,339,64.4,339,64.4z"
						/>
					<path class="st14" d="M321,70.7c0.5,4.3,3.8,13.4,6.5,17.6c4.8-1.7,12.8-4.8,16.7-6.5c-2.6-5.4-5.4-12.9-6.9-17.2
						C333.2,64.8,324.2,68.2,321,70.7z"/>
				</g>
				<path class="st11" d="M330.8,75.8c-0.5,1.8-2.4,2.8-4.2,2.3c-1.8-0.5-2.8-2.4-2.3-4.2c0.5-1.8,2.4-2.8,4.2-2.3
					C330.3,72.1,331.3,74,330.8,75.8z"/>
				<path class="st16" d="M333.3,71.3c-0.2,0.6-0.8,0.9-1.4,0.7c-0.6-0.2-0.9-0.8-0.7-1.4c0.2-0.6,0.8-0.9,1.4-0.7
					C333.1,70.1,333.5,70.7,333.3,71.3z"/>
				<path class="st16" d="M336.2,70.1c-0.2,0.6-0.8,0.9-1.4,0.7c-0.6-0.2-0.9-0.8-0.7-1.4c0.2-0.6,0.8-0.9,1.4-0.7
					C336.1,68.9,336.4,69.5,336.2,70.1z"/>
				<polygon class="st17" points="340.3,80.4 328.2,85.2 327.5,82.8 339.6,78 				"/>
			</g>
		</g>
	</g>
</g>
<g id="Rocket">
	<g>
		<path class="st9" d="M273.3,262.9c-0.3,9.9-1,17.5-2.2,22.8c-1.5,6.8-4,11.7-7.2,14.8c-3.3,3.1-7.1,4.7-11.6,4.7
			c-6.8,0-11.9-3.7-15.5-11c-0.6-1.2-1.1-2.6-1.6-4.1c-7.5,6.4-14.5,13.5-20.9,21.1l-7,8.2c3.8,3.8,8.1,7,12.8,9.4
			c8.2,4.2,18.9,6.4,32.2,6.4c2.3,0,4.6-0.1,6.8-0.2c8-11.9,14.7-24.7,19.8-38.1l19.5-50.9L273.3,262.9z"/>
		<g>
			<g>
				<path class="st13" d="M97.5,332.2c7.4,7.4,23,23,23,23l64.4-60.6C162.7,286.1,119.5,310.2,97.5,332.2z"/>
				<path class="st13" d="M177.7,412.4c-7.4-7.4-23-23-23-23l60.6-64.4C223.7,347.2,199.7,390.3,177.7,412.4z"/>
				<g>
					<path class="st2" d="M265.6,267.5l25.1-48.3l-48.3,25.1c-15.5,8.1-29.9,18.2-42.6,30.2L117.3,352l40.5,40.5l77.6-82.4
						C247.4,297.4,257.6,283,265.6,267.5z"/>
					<path class="st18" d="M265.6,267.5l25.1-48.3l-48.3,25.1c-15.5,8.1-29.9,18.2-42.6,30.2L117.3,352l40.5,40.5l77.6-82.4
						C247.4,297.4,257.6,283,265.6,267.5z"/>
				</g>
				<circle class="st14" cx="214.1" cy="295.7" r="16.9"/>
				<circle class="st2" cx="214.1" cy="295.7" r="10.9"/>
				<polygon class="st11" points="171.5,378 131.9,338.3 164.3,307.8 202.1,345.5 				"/>
				<g>
					<path class="st2" d="M106.5,368.5c-29.7,2.4-39.5,21.4-42.9,46.7c-1.7,12.9-2.5,25.9-13.3,33.5c-3,2.1-1.5,6.8,2.1,6.6
						c39.8-1.2,58.4-20.8,60.8-28.9c-0.8,5.2-2,9.2-3.3,12.4c-1.3,3.3,2.3,6.3,5.3,4.5c11.2-7,25.2-19.9,26.1-40.8
						C133.1,390.8,106.5,368.5,106.5,368.5z"/>
					<path class="st10" d="M106.5,368.5c-29.7,2.4-39.5,21.4-42.9,46.7c-1.7,12.9-2.5,25.9-13.3,33.5c-3,2.1-1.5,6.8,2.1,6.6
						c39.8-1.2,58.4-20.8,60.8-28.9c-0.8,5.2-2,9.2-3.3,12.4c-1.3,3.3,2.3,6.3,5.3,4.5c11.2-7,25.2-19.9,26.1-40.8
						C133.1,390.8,106.5,368.5,106.5,368.5z"/>
				</g>
				<polygon class="st2" points="146,411.5 98.4,363.9 123.7,358.4 151.4,386.1 				"/>
			</g>
		</g>
	</g>
</g>
</svg>
