<svg width="576" height="392" viewBox="0 0 576 392" fill="none" xmlns="http://www.w3.org/2000/svg">
<path d="M223.561 165.443V157.024C223.561 156.207 222.907 155.553 222.09 155.553H219.964C219.31 155.553 218.738 155.144 218.656 154.49C217.921 151.22 216.613 148.196 214.896 145.417C214.569 144.845 214.651 144.191 215.06 143.7L216.613 142.229C217.185 141.657 217.185 140.676 216.613 140.104L210.728 134.218C210.155 133.646 209.174 133.646 208.602 134.218L207.049 135.771C206.559 136.262 205.905 136.262 205.333 135.935C202.553 134.218 199.529 132.91 196.259 132.175C195.606 132.011 195.197 131.439 195.197 130.867V128.742C195.197 127.924 194.543 127.27 193.725 127.27H185.388C184.571 127.27 183.917 127.924 183.917 128.742V130.867C183.917 131.521 183.508 132.093 182.854 132.175C179.584 132.91 176.56 134.218 173.781 135.935C173.209 136.262 172.555 136.18 172.064 135.771L170.511 134.218C169.939 133.646 168.958 133.646 168.386 134.218L162.501 140.104C161.928 140.676 161.928 141.657 162.501 142.229L164.054 143.782C164.544 144.272 164.544 144.926 164.217 145.499C162.501 148.278 161.193 151.302 160.457 154.572C160.294 155.226 159.721 155.634 159.149 155.634H157.024C156.206 155.634 155.553 156.288 155.553 157.106V165.443C155.553 166.261 156.206 166.915 157.024 166.915H159.149C159.803 166.915 160.375 167.323 160.457 167.977C161.193 171.247 162.501 174.271 164.217 177.05C164.544 177.623 164.462 178.277 164.054 178.767L162.501 180.32C161.928 180.892 161.928 181.873 162.501 182.445L168.386 188.331C168.958 188.903 169.939 188.903 170.511 188.331L172.064 186.778C172.555 186.287 173.209 186.287 173.781 186.614C176.56 188.331 179.584 189.557 182.854 190.374C183.508 190.538 183.917 191.11 183.917 191.682V193.807C183.917 194.625 184.571 195.279 185.388 195.279H193.725C194.543 195.279 195.197 194.625 195.197 193.807V191.682C195.197 191.028 195.606 190.456 196.259 190.374C199.529 189.639 202.553 188.331 205.333 186.614C205.905 186.287 206.559 186.369 207.049 186.778L208.602 188.331C209.174 188.903 210.155 188.903 210.728 188.331L216.613 182.445C217.185 181.873 217.185 180.892 216.613 180.32L215.06 178.767C214.569 178.277 214.569 177.623 214.896 177.05C216.613 174.271 217.921 171.247 218.656 167.977C218.82 167.323 219.392 166.915 219.964 166.915H222.09C222.907 166.915 223.561 166.261 223.561 165.443ZM189.557 184.898C176.478 184.898 165.934 174.353 165.934 161.275C165.934 148.278 176.478 137.651 189.557 137.651C202.635 137.651 213.18 148.196 213.18 161.275C213.18 174.271 202.635 184.898 189.557 184.898Z" stroke="#DEE3FC" stroke-width="0.7896" stroke-miterlimit="10"/>
<path d="M262.142 193.807V188.085C262.142 187.513 261.652 187.105 261.162 187.105H259.69C259.282 187.105 258.873 186.778 258.791 186.369C258.301 184.162 257.402 182.037 256.257 180.157C256.012 179.748 256.094 179.339 256.421 179.012L257.483 177.95C257.892 177.541 257.892 176.887 257.483 176.56L253.478 172.555C253.069 172.146 252.415 172.146 252.088 172.555L251.026 173.617C250.699 173.944 250.208 173.944 249.881 173.699C248.001 172.555 245.958 171.656 243.669 171.165C243.26 171.083 242.933 170.675 242.933 170.266V168.795C242.933 168.222 242.443 167.814 241.953 167.814H236.231C235.658 167.814 235.25 168.304 235.25 168.795V170.266C235.25 170.675 234.923 171.083 234.514 171.165C232.307 171.656 230.182 172.555 228.302 173.699C227.893 173.944 227.484 173.863 227.157 173.536L226.095 172.473C225.686 172.064 225.032 172.064 224.705 172.473L220.7 176.478C220.291 176.887 220.291 177.541 220.7 177.868L221.763 178.93C222.09 179.257 222.09 179.748 221.926 180.075C220.782 181.955 219.883 183.998 219.392 186.287C219.31 186.696 218.902 187.023 218.493 187.023H217.022C216.449 187.023 216.041 187.513 216.041 188.004V193.726C216.041 194.298 216.531 194.706 217.022 194.706H218.493C218.902 194.706 219.31 195.033 219.392 195.442C219.883 197.649 220.782 199.774 221.926 201.654C222.171 202.063 222.09 202.472 221.763 202.799L220.7 203.861C220.291 204.27 220.291 204.924 220.7 205.251L224.705 209.256C225.114 209.665 225.768 209.665 226.095 209.256L227.157 208.194C227.484 207.867 227.975 207.867 228.302 208.03C230.182 209.175 232.225 210.074 234.514 210.564C234.923 210.646 235.25 211.055 235.25 211.463V212.935C235.25 213.507 235.74 213.916 236.231 213.916H241.953C242.525 213.916 242.933 213.425 242.933 212.935V211.463C242.933 211.055 243.26 210.646 243.669 210.564C245.876 210.074 248.001 209.175 249.8 208.03C250.208 207.785 250.617 207.867 250.944 208.194L252.007 209.256C252.415 209.665 253.069 209.665 253.396 209.256L257.402 205.251C257.81 204.842 257.81 204.188 257.402 203.861L256.339 202.799C256.012 202.472 256.012 201.981 256.175 201.654C257.32 199.774 258.219 197.731 258.709 195.442C258.791 195.033 259.2 194.706 259.609 194.706H261.08C261.652 194.788 262.142 194.379 262.142 193.807ZM238.928 206.15C230.509 206.15 223.724 199.366 223.724 190.946C223.724 182.609 230.509 175.743 238.928 175.743C247.347 175.743 254.132 182.527 254.132 190.946C254.132 199.284 247.347 206.15 238.928 206.15Z" fill="#DEE3FC"/>
<path d="M154.653 344.946C156.188 344.946 157.433 343.702 157.433 342.167C157.433 340.632 156.188 339.388 154.653 339.388C153.119 339.388 151.874 340.632 151.874 342.167C151.874 343.702 153.119 344.946 154.653 344.946Z" fill="#A4AFFF"/>
<path d="M525.429 269.336C526.964 269.336 528.209 268.091 528.209 266.557C528.209 265.022 526.964 263.777 525.429 263.777C523.895 263.777 522.65 265.022 522.65 266.557C522.65 268.091 523.895 269.336 525.429 269.336Z" fill="#A4AFFF"/>
<path d="M519.871 170.511C521.406 170.511 522.65 169.267 522.65 167.732C522.65 166.197 521.406 164.953 519.871 164.953C518.336 164.953 517.092 166.197 517.092 167.732C517.092 169.267 518.336 170.511 519.871 170.511Z" fill="#A4AFFF"/>
<path d="M420.393 135.853C421.341 135.853 422.109 135.085 422.109 134.137C422.109 133.189 421.341 132.42 420.393 132.42C419.445 132.42 418.676 133.189 418.676 134.137C418.676 135.085 419.445 135.853 420.393 135.853Z" fill="#A4AFFF"/>
<path d="M165.443 111.004C165.443 111.985 164.626 112.72 163.727 112.72C162.746 112.72 162.01 111.903 162.01 111.004C162.01 110.023 162.828 109.287 163.727 109.287C164.708 109.287 165.443 110.023 165.443 111.004Z" fill="#A4AFFF"/>
<path d="M203.861 217.921C203.861 218.902 203.044 219.637 202.145 219.637C201.164 219.637 200.428 218.82 200.428 217.921C200.428 216.94 201.246 216.204 202.145 216.204C203.126 216.204 203.861 216.94 203.861 217.921Z" fill="#A4AFFF"/>
<path d="M140.185 344.946C140.185 345.927 139.368 346.662 138.469 346.662C137.488 346.662 136.752 345.845 136.752 344.946C136.752 343.965 137.57 343.229 138.469 343.229C139.45 343.229 140.185 343.965 140.185 344.946Z" fill="#A4AFFF"/>
<path d="M484.804 346.581C486.339 346.581 487.584 345.336 487.584 343.802C487.584 342.267 486.339 341.022 484.804 341.022C483.269 341.022 482.025 342.267 482.025 343.802C482.025 345.336 483.269 346.581 484.804 346.581Z" fill="#A4AFFF"/>
<path d="M543.658 346.581C545.192 346.581 546.437 345.336 546.437 343.802C546.437 342.267 545.192 341.022 543.658 341.022C542.123 341.022 540.878 342.267 540.878 343.802C540.878 345.336 542.123 346.581 543.658 346.581Z" fill="#A4AFFF"/>
<path d="M213.18 106.263C214.715 106.263 215.959 105.019 215.959 103.484C215.959 101.949 214.715 100.705 213.18 100.705C211.645 100.705 210.401 101.949 210.401 103.484C210.401 105.019 211.645 106.263 213.18 106.263Z" fill="#A4AFFF"/>
<path d="M404.126 229.365C404.126 231.408 402.491 233.043 400.448 233.043C398.404 233.043 396.77 231.408 396.77 229.365C396.77 227.321 398.404 225.686 400.448 225.686C402.491 225.686 404.126 227.321 404.126 229.365Z" fill="#A4AFFF"/>
<path d="M131.03 183.59C131.03 185.633 129.396 187.268 127.352 187.268C125.309 187.268 123.674 185.633 123.674 183.59C123.674 181.546 125.309 179.911 127.352 179.911C129.314 179.911 131.03 181.546 131.03 183.59Z" fill="#A4AFFF"/>
<path d="M120.568 128.333H115.908C115.581 128.333 115.336 128.088 115.336 127.761V123.102C115.336 122.775 115.581 122.529 115.908 122.529H120.568C120.894 122.529 121.14 122.775 121.14 123.102V127.761C121.14 128.088 120.894 128.333 120.568 128.333Z" fill="white"/>
<path d="M128.251 128.333H123.592C123.265 128.333 123.02 128.088 123.02 127.761V123.102C123.02 122.775 123.265 122.529 123.592 122.529H128.251C128.578 122.529 128.823 122.775 128.823 123.102V127.761C128.823 128.088 128.578 128.333 128.251 128.333Z" fill="white"/>
<path d="M135.935 128.333H131.276C130.949 128.333 130.703 128.088 130.703 127.761V123.102C130.703 122.775 130.949 122.529 131.276 122.529H135.935C136.262 122.529 136.507 122.775 136.507 123.102V127.761C136.507 128.088 136.262 128.333 135.935 128.333Z" fill="white"/>
<path d="M511.779 329.987H507.12C506.793 329.987 506.547 329.742 506.547 329.415V324.756C506.547 324.429 506.793 324.184 507.12 324.184H511.779C512.106 324.184 512.351 324.429 512.351 324.756V329.415C512.269 329.742 512.024 329.987 511.779 329.987Z" fill="#DEE3FC"/>
<path d="M519.462 329.987H514.803C514.476 329.987 514.231 329.742 514.231 329.415V324.756C514.231 324.429 514.476 324.184 514.803 324.184H519.462C519.789 324.184 520.035 324.429 520.035 324.756V329.415C519.953 329.742 519.708 329.987 519.462 329.987Z" fill="#DEE3FC"/>
<path d="M527.146 329.987H522.487C522.16 329.987 521.915 329.742 521.915 329.415V324.756C521.915 324.429 522.16 324.184 522.487 324.184H527.146C527.473 324.184 527.718 324.429 527.718 324.756V329.415C527.637 329.742 527.391 329.987 527.146 329.987Z" fill="#DEE3FC"/>
<path d="M156.615 326.881H151.956C151.629 326.881 151.384 326.636 151.384 326.309V321.65C151.384 321.323 151.629 321.078 151.956 321.078H156.615C156.942 321.078 157.187 321.323 157.187 321.65V326.309C157.187 326.636 156.942 326.881 156.615 326.881Z" fill="#DEE3FC"/>
<path d="M164.299 326.881H159.64C159.313 326.881 159.067 326.636 159.067 326.309V321.65C159.067 321.323 159.313 321.078 159.64 321.078H164.299C164.626 321.078 164.871 321.323 164.871 321.65V326.309C164.871 326.636 164.626 326.881 164.299 326.881Z" fill="#DEE3FC"/>
<path d="M171.982 326.881H167.323C166.996 326.881 166.751 326.636 166.751 326.309V321.65C166.751 321.323 166.996 321.078 167.323 321.078H171.982C172.309 321.078 172.555 321.323 172.555 321.65V326.309C172.555 326.636 172.309 326.881 171.982 326.881Z" fill="#DEE3FC"/>
<path d="M364.809 376.253H254.214C244.568 376.253 236.803 368.406 236.803 358.842V112.557C236.803 102.912 244.65 95.1462 254.214 95.1462H364.809C374.454 95.1462 382.22 102.993 382.22 112.557V358.76C382.301 368.406 374.454 376.253 364.809 376.253Z" fill="#3945BA"/>
<path d="M364.237 372.247H254.786C246.367 372.247 239.5 365.381 239.5 356.962V112.884C239.5 104.465 246.367 97.5984 254.786 97.5984H364.237C372.656 97.5984 379.522 104.465 379.522 112.884V356.962C379.522 365.381 372.738 372.247 364.237 372.247Z" fill="white"/>
<path d="M373.392 112.394V356.144C373.392 361.866 368.732 366.525 363.011 366.525H255.93C250.208 366.525 245.549 361.866 245.549 356.144V112.394C245.549 106.672 250.208 102.012 255.93 102.012H273.831C274.812 102.012 275.711 102.585 276.202 103.484L278.082 107.244C278.981 108.96 280.698 110.105 282.659 110.105H336.363C338.325 110.105 340.123 109.042 340.941 107.244L342.821 103.484C343.229 102.585 344.21 102.012 345.191 102.012H363.011C368.814 102.094 373.392 106.672 373.392 112.394Z" fill="#DEE3FC"/>
<path d="M332.031 105.691H288.79C287.809 105.691 286.992 104.873 286.992 103.893C286.992 102.912 287.809 102.094 288.79 102.094H332.031C333.012 102.094 333.829 102.912 333.829 103.893C333.911 104.873 333.093 105.691 332.031 105.691Z" fill="#DEE3FC"/>
<path d="M356.39 358.024H260.099C256.339 358.024 253.233 354.918 253.233 351.158V317.154C253.233 313.394 256.339 310.288 260.099 310.288H356.39C360.15 310.288 363.256 313.394 363.256 317.154V351.158C363.256 355 360.231 358.024 356.39 358.024Z" stroke="#698BD1" stroke-miterlimit="10" stroke-linecap="round" stroke-linejoin="round" stroke-dasharray="2.84 2.84"/>
<path d="M351.567 241.053H303.83C301.133 241.053 298.926 238.846 298.926 236.149V212.526C298.926 209.828 301.133 207.621 303.83 207.621H351.567C354.264 207.621 356.471 209.828 356.471 212.526V236.149C356.471 238.846 354.264 241.053 351.567 241.053Z" stroke="#698BD1" stroke-miterlimit="10" stroke-linecap="round" stroke-linejoin="round" stroke-dasharray="2.84 2.84"/>
<path d="M361.784 302.441H263.205C259.935 302.441 257.32 299.825 257.32 296.555V254.949C257.32 251.68 259.935 249.064 263.205 249.064H361.866C365.136 249.064 367.752 251.68 367.752 254.949V296.555C367.67 299.825 365.054 302.441 361.784 302.441Z" fill="#4B5A9B"/>
<path d="M363.256 250.617V292.223C363.256 295.493 360.64 298.108 357.37 298.108H259.2C255.93 298.108 253.314 295.493 253.314 292.223V250.617C253.314 247.347 255.93 244.732 259.2 244.732H357.452C360.64 244.732 363.256 247.347 363.256 250.617Z" fill="#7F95F4"/>
<path d="M291.242 293.776H262.306C260.099 293.776 258.301 291.978 258.301 289.771V260.835C258.301 258.628 260.099 256.829 262.306 256.829H291.242C293.449 256.829 295.247 258.628 295.247 260.835V289.771C295.247 291.978 293.449 293.776 291.242 293.776Z" fill="white"/>
<path d="M325.573 261.57H300.07C299.416 261.57 298.844 260.998 298.844 260.344C298.844 259.69 299.416 259.118 300.07 259.118H325.573C326.227 259.118 326.799 259.69 326.799 260.344C326.799 260.998 326.309 261.57 325.573 261.57Z" fill="#B2C1F9"/>
<path d="M313.966 266.557H300.07C299.416 266.557 298.844 265.984 298.844 265.33C298.844 264.677 299.416 264.104 300.07 264.104H313.966C314.62 264.104 315.192 264.677 315.192 265.33C315.192 265.984 314.62 266.557 313.966 266.557Z" fill="#B2C1F9"/>
<path d="M356.635 266.557H319.116C318.462 266.557 317.89 265.984 317.89 265.33C317.89 264.677 318.462 264.104 319.116 264.104H356.635C357.289 264.104 357.861 264.677 357.861 265.33C357.861 265.984 357.289 266.557 356.635 266.557Z" fill="#B2C1F9"/>
<path d="M321.568 271.543H300.07C299.416 271.543 298.844 270.971 298.844 270.317C298.844 269.663 299.416 269.091 300.07 269.091H321.568C322.222 269.091 322.794 269.663 322.794 270.317C322.794 271.052 322.222 271.543 321.568 271.543Z" fill="#B2C1F9"/>
<path d="M339.796 271.543H326.309C325.655 271.543 325.083 270.971 325.083 270.317C325.083 269.663 325.655 269.091 326.309 269.091H339.796C340.45 269.091 341.022 269.663 341.022 270.317C341.022 271.052 340.45 271.543 339.796 271.543Z" fill="#B2C1F9"/>
<path d="M356.635 271.543H344.21C343.556 271.543 342.984 270.971 342.984 270.317C342.984 269.663 343.556 269.091 344.21 269.091H356.635C357.289 269.091 357.861 269.663 357.861 270.317C357.861 271.052 357.289 271.543 356.635 271.543Z" fill="#B2C1F9"/>
<path d="M356.635 276.611H300.152C299.498 276.611 298.926 276.038 298.926 275.385C298.926 274.731 299.498 274.158 300.152 274.158H356.635C357.289 274.158 357.861 274.731 357.861 275.385C357.861 276.038 357.289 276.611 356.635 276.611Z" fill="#B2C1F9"/>
<path d="M331.213 281.597H300.07C299.416 281.597 298.844 281.025 298.844 280.371C298.844 279.717 299.416 279.145 300.07 279.145H331.213C331.867 279.145 332.44 279.717 332.44 280.371C332.44 281.025 331.867 281.597 331.213 281.597Z" fill="#B2C1F9"/>
<path d="M356.635 281.597H336.2C335.546 281.597 334.973 281.025 334.973 280.371C334.973 279.717 335.546 279.145 336.2 279.145H356.635C357.289 279.145 357.861 279.717 357.861 280.371C357.861 281.025 357.289 281.597 356.635 281.597Z" fill="#B2C1F9"/>
<path d="M318.38 286.583H300.07C299.416 286.583 298.844 286.011 298.844 285.357C298.844 284.703 299.416 284.131 300.07 284.131H318.38C319.034 284.131 319.606 284.703 319.606 285.357C319.606 286.011 319.034 286.583 318.38 286.583Z" fill="#B2C1F9"/>
<path d="M341.594 286.583H323.285C322.631 286.583 322.058 286.011 322.058 285.357C322.058 284.703 322.631 284.131 323.285 284.131H341.594C342.248 284.131 342.821 284.703 342.821 285.357C342.821 286.011 342.248 286.583 341.594 286.583Z" fill="#B2C1F9"/>
<path d="M356.635 286.583H346.008C345.355 286.583 344.782 286.011 344.782 285.357C344.782 284.703 345.355 284.131 346.008 284.131H356.635C357.289 284.131 357.861 284.703 357.861 285.357C357.861 286.011 357.289 286.583 356.635 286.583Z" fill="#B2C1F9"/>
<path d="M325.573 291.651H300.07C299.416 291.651 298.844 291.079 298.844 290.425C298.844 289.771 299.416 289.199 300.07 289.199H325.573C326.227 289.199 326.799 289.771 326.799 290.425C326.799 291.079 326.309 291.651 325.573 291.651Z" fill="#B2C1F9"/>
<path d="M356.635 261.57H331.132C330.478 261.57 329.906 260.998 329.906 260.344C329.906 259.69 330.478 259.118 331.132 259.118H356.635C357.289 259.118 357.861 259.69 357.861 260.344C357.861 260.998 357.289 261.57 356.635 261.57Z" fill="#B2C1F9"/>
<path d="M363.256 250.617V252.334H253.314V250.617C253.314 247.347 255.93 244.732 259.2 244.732H357.452C360.64 244.732 363.256 247.347 363.256 250.617Z" fill="#0033CC"/>
<path d="M342.575 248.655C342.575 249.391 342.003 250.045 341.186 250.045C340.45 250.045 339.796 249.473 339.796 248.655C339.796 247.92 340.368 247.266 341.186 247.266C341.921 247.347 342.575 247.92 342.575 248.655Z" fill="#DEE3FC"/>
<path d="M349.523 248.655C349.523 249.391 348.951 250.045 348.134 250.045C347.316 250.045 346.744 249.473 346.744 248.655C346.744 247.92 347.316 247.266 348.134 247.266C348.951 247.266 349.523 247.92 349.523 248.655Z" fill="#DEE3FC"/>
<path d="M356.471 248.655C356.471 249.391 355.899 250.045 355.082 250.045C354.346 250.045 353.692 249.473 353.692 248.655C353.692 247.92 354.264 247.266 355.082 247.266C355.899 247.347 356.471 247.92 356.471 248.655Z" fill="#DEE3FC"/>
<path d="M287.319 241.053H265.576C262.388 241.053 259.69 238.438 259.69 235.168V213.425C259.69 210.237 262.306 207.54 265.576 207.54H287.319C290.507 207.54 293.204 210.155 293.204 213.425V235.168C293.204 238.438 290.588 241.053 287.319 241.053Z" stroke="#495AD6" stroke-width="0.8956" stroke-miterlimit="10"/>
<path d="M271.216 219.474L266.393 224.297L271.297 229.119" stroke="#495AD6" stroke-width="1.6716" stroke-miterlimit="10" stroke-linecap="round" stroke-linejoin="round"/>
<path d="M281.679 219.474L286.501 224.297L281.597 229.119" stroke="#495AD6" stroke-width="1.6716" stroke-miterlimit="10" stroke-linecap="round" stroke-linejoin="round"/>
<path d="M278.736 219.474L274.158 229.119" stroke="#495AD6" stroke-width="1.6716" stroke-miterlimit="10" stroke-linecap="round" stroke-linejoin="round"/>
<path d="M363.256 125.881V193.971C363.256 197.649 360.231 200.674 356.553 200.674H259.935C256.257 200.674 253.233 197.649 253.233 193.971V125.881C253.233 122.202 256.257 119.178 259.935 119.178H356.553C360.313 119.178 363.256 122.202 363.256 125.881Z" fill="#B2C1F9"/>
<path d="M341.022 156.697C349.825 156.697 356.962 149.561 356.962 140.758C356.962 131.954 349.825 124.818 341.022 124.818C332.219 124.818 325.083 131.954 325.083 140.758C325.083 149.561 332.219 156.697 341.022 156.697Z" fill="#F0F4FF"/>
<path d="M317.971 200.674H259.935C256.257 200.674 253.233 197.649 253.233 193.971V183.263L278.572 139.286C279.88 136.997 283.232 136.997 284.539 139.286L303.749 172.473L317.971 197.077C318.707 198.303 318.544 199.611 317.971 200.674Z" fill="white"/>
<path d="M342.902 200.674H287.482L303.749 172.473L312.495 157.269C313.721 155.226 316.664 155.226 317.89 157.269L342.902 200.674Z" fill="#F0F4FF"/>
<path d="M452.925 327.127H410.175V391.375H452.925V327.127Z" fill="#3B47BC"/>
<path d="M452.915 391.354H469.264V327.106H452.915V391.354Z" fill="#495AD6"/>
<path d="M467.23 329.579H455.214V331.622H467.23V329.579Z" fill="#B2C1F9"/>
<path d="M467.23 333.993H455.214V336.036H467.23V333.993Z" fill="#B2C1F9"/>
<path d="M467.23 338.407H455.214V340.45H467.23V338.407Z" fill="#B2C1F9"/>
<path d="M467.23 342.821H455.214V344.864H467.23V342.821Z" fill="#B2C1F9"/>
<path d="M467.23 347.235H455.214V349.278H467.23V347.235Z" fill="#B2C1F9"/>
<path d="M467.23 351.649H455.214V353.692H467.23V351.649Z" fill="#B2C1F9"/>
<path d="M467.23 355.981H455.214V358.024H467.23V355.981Z" fill="#B2C1F9"/>
<path d="M467.23 360.395H455.214V362.438H467.23V360.395Z" fill="#B2C1F9"/>
<path d="M467.23 364.809H455.214V366.852H467.23V364.809Z" fill="#B2C1F9"/>
<path d="M467.23 369.223H455.214V371.266H467.23V369.223Z" fill="#B2C1F9"/>
<path d="M467.23 373.637H455.214V375.68H467.23V373.637Z" fill="#B2C1F9"/>
<path d="M467.23 378.051H455.214V380.094H467.23V378.051Z" fill="#B2C1F9"/>
<path d="M467.23 382.465H455.214V384.508H467.23V382.465Z" fill="#B2C1F9"/>
<path d="M467.23 386.797H455.214V388.841H467.23V386.797Z" fill="#B2C1F9"/>
<path d="M403.227 391.375H424.97C424.97 391.375 426.196 387.533 423.581 382.71C423.581 382.71 421.864 384.1 416.633 383.201C416.633 383.201 414.426 385.081 412.954 385.816C411.319 386.47 402.655 388.187 403.227 391.375Z" fill="#281616"/>
<path d="M404.698 330.151C406.088 338.488 412.546 366.852 415.325 383.528C420.393 383.936 422.845 383.364 424.153 383.119C423.907 377.315 423.417 363.338 423.417 357.207C423.499 346.826 423.989 333.257 419.412 325.737L404.126 326.963C404.208 327.78 404.29 328.434 404.371 328.925C404.535 329.333 404.617 329.742 404.698 330.151Z" fill="black"/>
<path d="M363.91 391.375H385.653C385.653 391.375 386.879 387.533 384.263 382.71C384.263 382.71 382.547 384.1 377.315 383.201C377.315 383.201 375.108 385.081 373.637 385.816C372.002 386.47 363.338 388.187 363.91 391.375Z" fill="#281616"/>
<path d="M376.58 383.037C380.748 384.1 383.773 383.936 385.162 383.773C386.307 377.07 388.105 362.275 389.822 355.327C392.356 344.537 394.889 329.742 393.091 324.429L378.051 320.669C377.969 321.159 376.743 366.526 376.58 383.037Z" fill="#052635"/>
<path d="M436.496 305.22C436.169 302.277 435.842 300.07 435.842 300.07L419.003 304.157L404.698 307.427C399.385 308.571 393.009 310.043 387.369 311.269C381.075 312.74 376.825 317.481 378.214 323.857L379.767 331.54C388.595 331.459 430.283 327.453 433.798 325.655C437.967 323.693 439.193 316.5 436.496 305.22Z" fill="#052635"/>
<path d="M461.672 305.22C461.345 302.277 459.955 299.089 459.955 299.089L444.261 304.239L429.956 307.509C424.643 308.653 418.267 310.124 412.627 311.35C406.333 312.822 402.083 317.563 403.472 323.939L405.025 331.622C413.853 331.54 450.882 330.233 459.056 325.737C462.98 323.53 464.287 316.5 461.672 305.22Z" fill="black"/>
<path d="M414.589 281.106C414.589 281.106 422.027 277.755 424.153 281.106C425.297 282.986 424.48 286.42 421.946 287.809C419.412 289.28 405.025 295.329 391.375 298.762C391.375 298.762 390.802 296.882 389.822 294.921C389.822 294.921 395.952 292.387 402.001 288.136C408.05 283.886 414.589 281.106 414.589 281.106Z" fill="#E5918F"/>
<path d="M416.387 257.81L410.012 283.395C410.012 283.395 410.665 289.853 417.205 286.665C423.744 283.477 428.076 263.123 428.076 263.123L416.387 257.81Z" fill="#E5918F"/>
<path d="M427.259 272.115C426.441 271.951 425.706 271.706 424.97 271.461C424.234 271.216 423.499 271.052 422.845 270.807C416.796 268.682 413.445 266.23 413.445 266.23C415.325 257.892 417.695 252.334 419.739 248.655C419.82 248.574 419.82 248.492 419.902 248.41C419.984 248.328 419.984 248.247 420.066 248.165C421.128 246.367 422.763 244.814 424.48 243.506C424.643 243.342 424.807 243.26 425.052 243.097L425.787 256.421L425.951 257.81L427.259 272.115Z" fill="white"/>
<path d="M427.259 272.115C426.441 271.951 425.706 271.706 424.97 271.461C424.234 271.216 423.499 271.052 422.845 270.807C424.153 261.816 425.297 256.175 425.297 256.175L425.951 257.81L427.259 272.115Z" fill="#C7E5F2"/>
<path d="M465.105 248.982C464.941 252.906 464.287 259.282 463.633 265.657C463.47 267.701 463.225 269.744 463.143 271.706C463.061 272.932 461.181 279.472 461.1 280.616C460.773 286.174 458.075 290.343 460.609 298.844C461.263 300.888 461.345 301.95 461.345 302.768C461.345 303.34 460.609 303.994 460.282 304.157C459.219 304.811 457.094 305.22 454.479 305.547C449.411 306.201 442.544 306.283 438.376 306.283C432.817 306.283 424.48 305.383 423.417 303.994C422.436 302.686 423.335 300.806 423.826 298.272C425.869 286.665 425.134 280.534 425.052 272.197C425.052 271.951 425.052 271.788 425.052 271.543C424.807 258.628 423.989 247.511 424.561 243.506C424.725 243.342 424.888 243.26 425.134 243.097C426.033 242.525 426.85 241.953 427.749 241.462C427.831 241.462 427.913 241.38 427.995 241.299C428.24 241.135 428.485 241.053 428.73 240.89C428.812 240.808 428.894 240.808 429.057 240.726C430.937 239.827 433.716 238.846 435.269 238.274C435.433 238.193 435.678 238.111 435.842 238.111C437.313 238.029 438.948 238.029 440.664 238.029C442.136 238.111 444.506 238.274 447.04 238.601C449.901 238.928 453.007 239.5 455.459 240.154C455.459 240.154 455.459 240.154 455.541 240.154C456.032 240.318 459.056 241.462 462.162 244.814C463.061 245.958 464.124 247.348 465.105 248.982Z" fill="white"/>
<path d="M460.609 298.844C461.263 300.888 461.345 301.95 461.345 302.768C461.345 303.34 460.609 303.994 460.282 304.157C459.219 304.811 457.094 305.22 454.478 305.547C455.541 305.383 457.421 303.749 457.421 302.196C457.421 301.133 456.032 293.94 456.44 289.28C456.849 284.621 457.585 277.265 456.113 271.298C454.642 265.412 453.334 257.565 453.334 257.565L461.426 262.47C461.426 262.47 462.489 263.941 463.633 265.739C463.47 267.783 463.225 269.826 463.143 271.788C462.979 272.932 457.993 290.343 460.609 298.844Z" fill="#C7E5F2"/>
<path d="M424.888 214.815C424.888 214.815 425.624 223.316 428.403 223.888C431.182 224.46 430.528 220.863 430.528 220.863L430.12 216.858L424.888 214.815Z" fill="black"/>
<path d="M437.885 245.549C432.408 244.895 434.452 239.5 435.188 238.274C435.351 238.193 436.332 237.947 436.414 237.866C436.577 237.702 436.741 237.539 436.822 237.212C437.395 235.822 437.149 232.961 437.068 232.798V232.307C437.149 231.98 437.231 231.653 437.313 231.326L440.174 229.038L446.304 224.215C446.304 224.215 444.67 232.307 445.977 237.375C446.059 237.784 446.304 238.274 446.795 238.601C446.958 238.683 447.122 238.765 447.367 238.846C449.002 239.582 446.877 246.612 437.885 245.549Z" fill="#E5918F"/>
<path d="M442.708 229.365C442.708 229.365 442.626 234.759 436.822 237.212C437.395 235.822 437.149 232.961 437.068 232.798L439.52 230.918L442.708 229.365Z" fill="#E46968"/>
<path d="M426.196 215.959C426.196 215.959 427.504 233.533 432.245 235.086C432.245 235.086 438.294 235.659 442.626 229.773C443.852 228.057 445.487 227.73 445.977 225.686C446.795 222.417 448.021 216.286 446.468 212.608C444.424 207.376 426.441 203.207 426.196 215.959Z" fill="#E5918F"/>
<path d="M446.631 209.747C446.55 206.559 443.28 205.333 443.28 205.333C440.092 203.861 433.389 204.515 426.441 205.987C424.807 206.314 422.763 205.333 421.619 206.15C420.229 207.131 421.619 211.463 421.619 211.463C424.316 219.556 434.125 216.94 437.068 215.877C437.803 217.921 437.64 220.863 439.438 222.335C440.419 223.152 442.136 223.234 443.934 222.907C444.179 223.316 444.997 223.643 445.16 224.215C445.732 226.095 445.65 229.038 445.65 231.326L446.468 230.918C446.55 230.345 455.132 209.992 446.631 209.747Z" fill="black"/>
<path d="M431.101 221.926C431.346 223.397 430.61 224.705 429.466 224.951C428.321 225.114 427.177 224.133 426.932 222.662C426.687 221.19 427.422 219.883 428.567 219.637C429.711 219.392 430.855 220.455 431.101 221.926Z" stroke="white" stroke-width="0.501" stroke-miterlimit="10"/>
<path d="M436.822 220.863C437.068 222.335 436.332 223.643 435.188 223.888C434.043 224.051 432.899 223.071 432.654 221.599C432.408 220.128 433.144 218.82 434.288 218.575C435.515 218.33 436.577 219.392 436.822 220.863Z" stroke="white" stroke-width="0.501" stroke-miterlimit="10"/>
<path d="M431.101 221.926C431.101 221.926 431.346 221.517 432.654 221.599" stroke="white" stroke-width="0.501" stroke-miterlimit="10"/>
<path d="M436.904 221.19L441.809 220.373" stroke="white" stroke-width="0.501" stroke-miterlimit="10"/>
<path d="M442.217 226.667C445.569 227.975 446.631 219.637 443.443 219.229C440.991 218.983 440.909 222.335 440.909 222.335C440.909 222.335 440.256 225.931 442.217 226.667Z" fill="#E5918F"/>
<g opacity="0.5">
<path d="M443.28 220.537C443.28 220.537 443.035 220.782 442.871 221.109C442.708 221.517 442.463 222.008 442.463 222.498C442.463 222.744 442.463 223.07 442.463 223.316C442.463 223.561 442.463 223.806 442.544 224.051C442.544 224.297 442.626 224.46 442.626 224.624C442.626 224.787 442.626 224.869 442.626 224.869C442.626 224.869 442.544 224.787 442.544 224.705C442.463 224.624 442.381 224.46 442.299 224.215C442.217 223.97 442.136 223.724 442.054 223.479C441.972 223.152 441.972 222.907 441.972 222.58C441.972 222.253 442.054 221.926 442.217 221.681C442.381 221.436 442.544 221.19 442.708 221.027C442.953 220.537 443.28 220.537 443.28 220.537Z" fill="#E46968"/>
<path d="M443.852 222.09C443.852 222.09 443.689 222.09 443.525 222.171C443.362 222.253 443.117 222.335 442.953 222.58C442.79 222.744 442.626 222.989 442.626 223.152C442.544 223.316 442.544 223.479 442.544 223.479L441.972 223.316C441.972 223.316 442.054 223.152 442.136 222.989C442.299 222.825 442.463 222.58 442.79 222.417C443.035 222.253 443.362 222.171 443.525 222.171C443.689 222.09 443.852 222.09 443.852 222.09Z" fill="#E46968"/>
</g>
<path d="M474.668 284.54C473.197 286.256 467.557 287.564 464.86 285.112C464.042 284.376 463.061 282.333 462.08 279.88C459.71 273.505 457.421 264.023 457.421 264.023L470.009 257.565C470.009 257.565 471.644 264.84 473.034 271.788C473.034 271.788 473.034 271.87 473.034 271.951C473.524 274.158 473.933 276.365 474.26 278.245C474.26 278.327 474.26 278.327 474.26 278.409C474.668 280.616 474.914 282.905 474.668 284.54Z" fill="#E5918F"/>
<path d="M452.68 255.195C453.906 260.263 457.748 269.908 457.748 269.908C460.446 270.317 464.042 269.826 466.985 268.764C470.418 267.537 472.87 264.922 472.87 264.922C472.87 264.922 470.336 257.81 468.047 252.661C466.004 248.083 464.778 246.367 463.879 245.386C462.571 243.996 460.364 242.361 458.892 241.626L452.68 255.195Z" fill="white"/>
<path d="M468.62 258.464L461.181 255.276L455.378 240.236C455.378 240.236 456.44 240.563 457.83 241.135C457.83 241.135 457.912 241.135 457.993 241.217C457.993 241.217 458.075 241.217 458.075 241.299C459.301 241.871 464.206 244.732 467.557 255.195C467.557 255.276 467.639 255.358 467.639 255.44C467.966 256.666 468.293 257.647 468.374 258.137C468.374 258.219 468.374 258.219 468.374 258.301C468.538 258.301 468.62 258.382 468.62 258.464Z" fill="white"/>
<path d="M474.668 284.54C474.587 285.439 474.342 286.174 473.851 286.338C473.769 286.42 472.707 286.992 472.707 287.073C471.154 288.054 468.374 289.607 464.86 291.161C456.44 294.839 444.179 299.008 437.558 300.969C437.558 300.969 436.904 299.089 435.923 297.128C435.923 297.128 441.89 294.348 447.776 289.853C453.661 285.357 462.162 279.88 462.162 279.88L464.287 277.346C464.287 277.346 471.889 270.317 473.115 271.788C473.115 271.788 473.115 271.87 473.115 271.951C473.279 272.687 473.933 275.385 474.341 278.245C474.341 278.327 474.341 278.327 474.341 278.409C474.668 280.616 474.914 282.905 474.668 284.54Z" fill="#E5918F"/>
<path d="M436.741 296.637C436.741 296.637 435.269 297.536 433.716 297.209C432.899 297.046 432.572 296.719 431.918 296.555C431.264 296.474 429.629 296.228 428.812 295.82C427.994 295.411 427.668 295.411 427.668 296.228C427.668 297.046 429.302 297.782 429.711 297.945C430.12 298.19 430.692 298.926 430.774 299.008C430.855 299.089 428.076 300.561 427.341 300.234C427.341 300.234 427.095 300.888 427.259 301.296C427.422 301.705 427.913 301.787 427.994 301.95C428.076 302.114 427.831 302.522 427.994 302.849C428.076 303.176 428.648 303.176 428.812 303.585C428.975 304.076 428.812 304.076 428.975 304.566C429.139 305.056 429.793 305.138 429.875 305.383C429.956 305.629 429.956 305.956 430.201 306.119C430.447 306.283 432.899 305.465 433.88 305.138C434.779 304.729 437.149 301.296 439.847 300.07L436.741 296.637Z" fill="#E5918F"/>
<path d="M449.329 312.168H430.12V310.288H449.329C449.819 310.288 450.228 310.697 450.228 311.187C450.31 311.759 449.901 312.168 449.329 312.168Z" fill="#4977A2"/>
<path d="M438.948 312.168H390.884C390.312 312.168 389.822 311.759 389.658 311.269L379.849 275.875C379.604 275.058 380.258 274.322 381.075 274.322H427.504C428.567 274.322 429.548 275.058 429.793 276.12L439.602 311.432C439.765 311.759 439.438 312.168 438.948 312.168Z" fill="#4977A2"/>
<path d="M437.231 312.168H389.168C388.595 312.168 388.105 311.759 387.942 311.269L378.133 275.875C377.887 275.058 378.541 274.322 379.359 274.322H425.869C426.932 274.322 427.913 275.058 428.158 276.12L437.967 311.432C438.049 311.759 437.722 312.168 437.231 312.168Z" fill="#467CDB"/>
<path d="M246.612 289.28L252.17 283.559C252.17 283.559 252.334 281.025 252.661 280.452C252.988 279.88 253.723 277.919 254.132 277.673C254.541 277.428 255.276 277.673 255.276 277.673C255.276 277.673 256.012 277.428 256.421 277.428C256.748 277.428 257.402 277.755 257.402 277.755C257.402 277.755 258.219 277.673 258.546 277.673C258.873 277.673 259.036 277.755 259.036 277.755C259.036 277.755 260.344 276.202 260.998 275.712C261.652 275.221 262.633 274.24 262.96 274.24C263.205 274.24 263.369 274.731 263.123 275.221C262.96 275.712 262.061 276.611 262.061 276.611L259.527 280.452C259.527 280.452 259.935 280.289 260.181 280.126C260.426 279.962 261.979 278.572 262.061 278.491C262.143 278.409 262.878 278 263.287 278.409C263.696 278.818 260.589 282.578 260.099 283.068C259.609 283.559 256.829 284.948 256.829 284.948C256.829 284.948 253.887 290.261 253.56 290.67C253.315 291.079 246.612 289.28 246.612 289.28Z" fill="#E49191"/>
<path d="M251.843 262.878C251.843 262.878 248.737 280.943 245.794 281.352C245.794 281.352 234.105 281.842 231.49 267.619C229.201 255.358 238.274 252.661 242.525 253.642C246.857 254.622 252.824 255.195 251.843 262.878Z" fill="#E49191"/>
<path d="M241.544 278.491C241.544 278.491 239.909 280.698 239.337 286.011C239.337 286.011 234.432 286.747 229.937 284.376C229.937 284.376 232.389 276.856 232.634 268.682" fill="#E49191"/>
<path d="M238.274 250.617C231.898 252.007 232.389 256.012 232.389 256.012C229.364 256.748 228.792 257.974 228.792 263.532C228.792 269.091 230.836 275.712 231.898 276.202C232.961 276.774 239.255 276.774 239.746 276.611C240.236 276.447 242.443 271.379 241.953 270.48C241.462 269.581 241.953 266.066 243.424 265.984C244.895 265.821 244.568 268.11 244.568 268.11L245.794 267.864L246.693 265.576C255.113 266.066 257.32 256.421 257.32 256.421C255.358 255.031 244.65 249.228 238.274 250.617Z" fill="black"/>
<path d="M167.323 372.656L173.781 373.555L171.655 381.075L164.626 379.277C164.626 379.277 161.765 375.435 166.097 372.574C166.261 372.493 166.996 372.574 167.323 372.656Z" fill="#E5918F"/>
<path d="M215.55 353.283L205.987 324.429C205.987 324.429 203.126 323.366 201.654 324.429C201.654 324.429 191.764 329.742 192.826 344.946C193.644 356.39 196.014 368.814 196.995 373.8L171.574 372.901C171.574 372.901 168.468 376.661 170.429 381.484C170.429 381.484 202.39 390.067 206.886 390.884C210.564 391.538 214.569 392.029 216.449 390.394C219.883 387.451 215.55 353.283 215.55 353.283Z" fill="black"/>
<path d="M197.404 372.656L203.861 373.555L201.736 381.075L194.706 379.277C194.706 379.277 191.845 375.435 196.178 372.574C196.423 372.493 197.077 372.574 197.404 372.656Z" fill="#E5918F"/>
<path d="M195.033 376.58C194.87 378.051 196.178 379.44 195.932 379.767C195.687 380.176 191.355 387.451 191.355 387.451C191.355 387.451 194.625 388.841 194.134 390.966H185.797C185.797 390.966 183.59 389.004 183.671 386.225C183.671 386.225 184.244 383.037 185.715 380.176C187.186 377.315 190.538 370.858 190.538 370.858C190.538 370.858 191.518 370.449 193.317 370.939C195.36 371.512 197.322 372.738 197.322 372.738C197.322 372.738 195.442 372.901 195.033 376.58Z" fill="#467CDB"/>
<path d="M261.57 384.345C259.527 376.661 240.236 344.047 233.697 335.219C220.291 329.415 205.987 324.429 205.987 324.429C200.101 325.819 197.159 337.753 200.51 345.682C202.799 351.158 217.43 364.809 226.34 372.901H201.573C201.573 372.901 198.63 377.233 201.327 381.402C201.327 381.402 242.525 390.802 246.121 391.293C249.718 391.783 257.81 391.293 257.81 391.293C257.81 391.293 263.287 390.721 261.57 384.345Z" fill="black"/>
<path d="M164.953 376.58C164.789 378.051 166.097 379.44 165.852 379.767C165.607 380.176 161.274 387.451 161.274 387.451C161.274 387.451 164.544 388.841 164.054 390.966H155.716C155.716 390.966 153.509 389.004 153.591 386.225C153.591 386.225 154.163 383.037 155.634 380.176C157.106 377.315 160.457 370.858 160.457 370.858C160.457 370.858 161.438 370.449 163.236 370.939C165.28 371.512 167.241 372.738 167.241 372.738C167.241 372.738 165.361 372.901 164.953 376.58Z" fill="#467CDB"/>
<path d="M292.632 283.722L279.308 307.1L269.826 297.618L261.979 309.307L264.268 310.37L263.45 311.024C263.45 311.024 281.842 319.933 284.049 317.971C286.256 316.01 296.474 286.256 296.474 286.256L292.632 283.722Z" fill="#E49191"/>
<path d="M271.461 299.089C271.461 299.089 268.927 309.716 263.941 314.702L251.108 309.797C251.108 309.797 245.14 319.852 239.337 327.535C237.13 330.478 236.312 334.647 233.697 335.219C233.533 335.137 233.37 335.137 233.206 335.055C226.095 332.93 215.55 335.219 206.886 331.949C197.322 328.353 199.12 326.391 199.12 326.391C199.12 326.391 204.924 315.928 208.275 304.811C209.747 299.907 210.809 295.329 211.463 291.814C212.689 285.52 217.757 280.616 224.051 279.717C224.133 279.717 224.215 279.717 224.297 279.717C231.571 278.818 250.617 281.025 254.295 282.659C257.974 284.131 271.461 299.089 271.461 299.089Z" fill="#467CDB"/>
<path d="M251.107 309.797C251.107 309.797 245.14 319.852 239.337 327.535C237.13 330.478 236.312 334.647 233.697 335.219C234.841 334.81 236.803 328.761 237.457 327.372C238.111 325.982 239.255 324.674 241.626 319.852C243.996 315.111 247.184 308.081 247.184 308.081L251.107 309.797Z" fill="#5996EF"/>
<path d="M226.34 372.901C226.34 372.901 226.504 372.82 226.912 372.82C227.239 372.82 227.811 372.738 228.384 372.656C229.61 372.574 231.244 372.656 232.879 372.901C233.697 372.983 234.514 373.146 235.25 373.31C235.985 373.473 236.721 373.719 237.293 373.882C237.865 374.046 238.356 374.291 238.683 374.454C239.01 374.618 239.173 374.7 239.173 374.7C239.173 374.7 238.928 374.7 238.601 374.618C238.274 374.536 237.784 374.454 237.13 374.373C235.904 374.209 234.351 373.882 232.716 373.719C231.898 373.555 231.081 373.473 230.345 373.392C229.61 373.31 228.874 373.228 228.302 373.146C227.157 372.983 226.34 372.901 226.34 372.901Z" fill="black"/>
<path d="M302.522 275.139C302.277 275.139 300.969 276.202 300.315 276.774L301.051 275.303C301.051 275.303 302.032 274.322 302.441 273.831C302.768 273.259 302.604 272.769 302.359 272.769C302.195 272.769 300.969 273.668 300.234 274.24L300.397 273.913C300.397 273.913 301.378 272.932 301.787 272.442C302.114 271.87 301.95 271.379 301.705 271.379C301.46 271.379 299.089 273.259 299.089 273.259L297.945 274.731L298.762 273.096C298.762 273.096 299.171 272.524 299.498 271.951C299.825 271.379 299.58 271.216 299.416 270.971C299.253 270.807 297.7 271.951 297.291 272.36C296.882 272.851 295.656 274.731 295.574 274.976L294.267 277.673C294.185 276.856 294.021 275.548 293.94 274.731C293.776 273.505 292.714 273.259 292.632 273.831C292.632 274.404 291.978 277.346 292.141 278.899C292.305 280.452 292.55 281.515 292.632 282.414C292.714 283.313 291.814 285.112 291.814 285.112C291.814 285.112 295.493 287.4 296.147 286.747C296.719 286.093 298.027 284.54 298.681 283.477C299.58 282.087 300.152 280.207 300.152 280.207L301.296 277.755C301.296 277.755 302.277 276.774 302.686 276.284C303.013 275.63 302.849 275.139 302.522 275.139Z" fill="#E49191"/>
<path d="M514.885 200.674H471.481C468.701 200.674 466.413 202.962 466.413 205.741V215.959C466.413 218.493 468.293 220.618 470.827 220.945C471.154 221.027 471.481 221.272 471.481 221.681V227.321C471.481 227.648 471.889 227.811 472.053 227.484L476.467 221.272C476.63 221.109 476.794 220.945 477.039 220.945H514.803C517.582 220.945 519.871 218.656 519.871 215.877V205.66C519.871 202.881 517.664 200.674 514.885 200.674Z" stroke="white" stroke-width="0.8956" stroke-miterlimit="10"/>
<path d="M478.102 210.809C478.102 211.709 477.366 212.444 476.467 212.444C475.568 212.444 474.832 211.709 474.832 210.809C474.832 209.91 475.568 209.175 476.467 209.175C477.366 209.175 478.102 209.91 478.102 210.809Z" stroke="white" stroke-width="0.8956" stroke-miterlimit="10"/>
<path d="M486.439 210.809C486.439 211.709 485.703 212.444 484.804 212.444C483.905 212.444 483.169 211.709 483.169 210.809C483.169 209.91 483.905 209.175 484.804 209.175C485.703 209.175 486.439 209.91 486.439 210.809Z" stroke="white" stroke-width="0.8956" stroke-miterlimit="10"/>
<path d="M494.858 210.809C494.858 211.709 494.123 212.444 493.224 212.444C492.324 212.444 491.589 211.709 491.589 210.809C491.589 209.91 492.324 209.175 493.224 209.175C494.041 209.175 494.858 209.91 494.858 210.809Z" stroke="white" stroke-width="0.8956" stroke-miterlimit="10"/>
<path d="M503.196 210.809C503.196 211.709 502.46 212.444 501.561 212.444C500.662 212.444 499.926 211.709 499.926 210.809C499.926 209.91 500.662 209.175 501.561 209.175C502.46 209.175 503.196 209.91 503.196 210.809Z" stroke="white" stroke-width="0.8956" stroke-miterlimit="10"/>
<path d="M511.533 210.809C511.533 211.709 510.798 212.444 509.899 212.444C508.999 212.444 508.264 211.709 508.264 210.809C508.264 209.91 508.999 209.175 509.899 209.175C510.798 209.175 511.533 209.91 511.533 210.809Z" stroke="white" stroke-width="0.8956" stroke-miterlimit="10"/>
<path d="M172.146 245.549H215.55C218.329 245.549 220.618 247.838 220.618 250.617V260.835C220.618 263.369 218.738 265.494 216.204 265.821C215.877 265.903 215.55 266.148 215.55 266.557V272.197C215.55 272.524 215.142 272.687 214.978 272.36L210.564 266.148C210.401 265.984 210.237 265.821 209.992 265.821H172.228C169.449 265.821 167.16 263.532 167.16 260.753V250.535C167.078 247.838 169.367 245.549 172.146 245.549Z" stroke="white" stroke-width="0.8956" stroke-miterlimit="10"/>
<path d="M208.848 255.685C208.848 256.584 209.583 257.32 210.482 257.32C211.381 257.32 212.117 256.584 212.117 255.685C212.117 254.786 211.381 254.05 210.482 254.05C209.583 254.05 208.848 254.786 208.848 255.685Z" stroke="white" stroke-width="0.8956" stroke-miterlimit="10"/>
<path d="M200.51 255.685C200.51 256.584 201.246 257.32 202.145 257.32C203.044 257.32 203.78 256.584 203.78 255.685C203.78 254.786 203.044 254.05 202.145 254.05C201.246 254.05 200.51 254.786 200.51 255.685Z" stroke="white" stroke-width="0.8956" stroke-miterlimit="10"/>
<path d="M192.172 255.685C192.172 256.584 192.908 257.32 193.807 257.32C194.706 257.32 195.442 256.584 195.442 255.685C195.442 254.786 194.706 254.05 193.807 254.05C192.908 254.05 192.172 254.786 192.172 255.685Z" stroke="white" stroke-width="0.8956" stroke-miterlimit="10"/>
<path d="M183.835 255.685C183.835 256.584 184.571 257.32 185.47 257.32C186.369 257.32 187.105 256.584 187.105 255.685C187.105 254.786 186.369 254.05 185.47 254.05C184.571 254.05 183.835 254.786 183.835 255.685Z" stroke="white" stroke-width="0.8956" stroke-miterlimit="10"/>
<path d="M175.416 255.685C175.416 256.584 176.151 257.32 177.05 257.32C177.95 257.32 178.685 256.584 178.685 255.685C178.685 254.786 177.95 254.05 177.05 254.05C176.233 254.05 175.416 254.786 175.416 255.685Z" stroke="white" stroke-width="0.8956" stroke-miterlimit="10"/>
<path d="M314.293 391.702H294.43C290.915 391.702 288.136 388.841 288.136 385.408V365.545C288.136 362.03 290.997 359.251 294.43 359.251H314.293C317.808 359.251 320.587 362.111 320.587 365.545V385.408C320.587 388.922 317.808 391.702 314.293 391.702Z" fill="#0033CC"/>
<path d="M308.408 391.702H288.545C285.03 391.702 282.251 388.841 282.251 385.408V365.545C282.251 362.03 285.112 359.251 288.545 359.251H308.408C311.923 359.251 314.702 362.111 314.702 365.545V385.408C314.702 388.922 311.841 391.702 308.408 391.702Z" fill="#495AD6"/>
<path d="M294.594 369.386L303.912 374.781C304.484 375.108 304.484 375.926 303.912 376.253L294.594 381.647C294.021 381.974 293.286 381.566 293.286 380.912V370.122C293.286 369.468 294.021 369.059 294.594 369.386Z" fill="white"/>
<path d="M520.035 391.702H494.041C489.464 391.702 485.785 388.023 485.785 383.446V357.452C485.785 352.875 489.464 349.196 494.041 349.196H520.035C524.612 349.196 528.29 352.875 528.29 357.452V383.446C528.29 388.023 524.612 391.702 520.035 391.702Z" fill="#0033CC"/>
<path d="M512.269 391.702H486.276C481.698 391.702 478.02 388.023 478.02 383.446V357.452C478.02 352.875 481.698 349.196 486.276 349.196H512.269C516.847 349.196 520.525 352.875 520.525 357.452V383.446C520.525 388.023 516.847 391.702 512.269 391.702Z" fill="#495AD6"/>
<path d="M504.422 359.659C504.422 362.438 502.133 364.727 499.354 364.727C496.575 364.727 494.286 362.438 494.286 359.659C494.286 356.88 496.575 354.591 499.354 354.591C502.133 354.591 504.422 356.88 504.422 359.659Z" fill="white"/>
<path d="M509.899 376.988V384.508C509.899 385.162 509.327 385.735 508.673 385.735H489.872C489.218 385.735 488.646 385.162 488.646 384.508V376.988C488.646 371.103 493.387 366.362 499.272 366.362C505.158 366.28 509.899 371.103 509.899 376.988Z" fill="white"/>
<path d="M404.29 186.124H387.615C386.961 186.124 386.388 185.551 386.388 184.898C386.388 184.244 386.961 183.671 387.615 183.671H404.29C404.944 183.671 405.516 184.244 405.516 184.898C405.598 185.551 405.025 186.124 404.29 186.124Z" fill="#F0F4FF"/>
<path d="M421.047 186.124H408.949C408.295 186.124 407.723 185.551 407.723 184.898C407.723 184.244 408.295 183.671 408.949 183.671H421.047C421.7 183.671 422.273 184.244 422.273 184.898C422.273 185.551 421.7 186.124 421.047 186.124Z" fill="#F0F4FF"/>
<path d="M394.726 191.6H387.615C386.961 191.6 386.388 191.028 386.388 190.374C386.388 189.72 386.961 189.148 387.615 189.148H394.726C395.38 189.148 395.952 189.72 395.952 190.374C395.952 191.028 395.38 191.6 394.726 191.6Z" fill="#F0F4FF"/>
<path d="M421.047 191.6H398.977C398.323 191.6 397.75 191.028 397.75 190.374C397.75 189.72 398.323 189.148 398.977 189.148H421.047C421.7 189.148 422.273 189.72 422.273 190.374C422.273 191.028 421.7 191.6 421.047 191.6Z" fill="#F0F4FF"/>
<path d="M409.603 197.159H387.615C386.961 197.159 386.388 196.586 386.388 195.933C386.388 195.279 386.961 194.706 387.615 194.706H409.603C410.257 194.706 410.829 195.279 410.829 195.933C410.911 196.586 410.339 197.159 409.603 197.159Z" fill="#F0F4FF"/>
<path d="M421.047 197.159H413.935C413.281 197.159 412.709 196.586 412.709 195.933C412.709 195.279 413.281 194.706 413.935 194.706H421.047C421.7 194.706 422.273 195.279 422.273 195.933C422.273 196.586 421.7 197.159 421.047 197.159Z" fill="#F0F4FF"/>
<path d="M192.826 314.293H134.545C132.829 314.293 131.439 312.904 131.439 311.187V281.76C131.439 280.044 132.829 278.654 134.545 278.654H192.826C194.543 278.654 195.933 280.044 195.933 281.76V311.187C196.014 312.904 194.625 314.293 192.826 314.293Z" fill="#0033CC"/>
<path d="M134.218 283.395H193.235" stroke="white" stroke-width="0.8956" stroke-miterlimit="10" stroke-linecap="round"/>
<path d="M191.682 281.679C192.088 281.679 192.418 281.349 192.418 280.943C192.418 280.537 192.088 280.207 191.682 280.207C191.276 280.207 190.946 280.537 190.946 280.943C190.946 281.349 191.276 281.679 191.682 281.679Z" fill="white"/>
<path d="M187.922 281.679C188.328 281.679 188.658 281.349 188.658 280.943C188.658 280.537 188.328 280.207 187.922 280.207C187.516 280.207 187.186 280.537 187.186 280.943C187.186 281.349 187.516 281.679 187.922 281.679Z" fill="white"/>
<path d="M184.244 281.679C184.65 281.679 184.979 281.349 184.979 280.943C184.979 280.537 184.65 280.207 184.244 280.207C183.837 280.207 183.508 280.537 183.508 280.943C183.508 281.349 183.837 281.679 184.244 281.679Z" fill="white"/>
<path d="M145.172 288.218H135.117C134.545 288.218 134.137 287.809 134.137 287.237C134.137 286.665 134.545 286.256 135.117 286.256H145.172C145.744 286.256 146.152 286.665 146.152 287.237C146.152 287.809 145.744 288.218 145.172 288.218Z" fill="#6589D1"/>
<path d="M145.172 292.795H135.117C134.545 292.795 134.137 292.387 134.137 291.814C134.137 291.242 134.545 290.834 135.117 290.834H145.172C145.744 290.834 146.152 291.242 146.152 291.814C146.152 292.305 145.744 292.795 145.172 292.795Z" fill="#6589D1"/>
<path d="M145.172 297.373H135.117C134.545 297.373 134.137 296.964 134.137 296.392C134.137 295.82 134.545 295.411 135.117 295.411H145.172C145.744 295.411 146.152 295.82 146.152 296.392C146.152 296.882 145.744 297.373 145.172 297.373Z" fill="#6589D1"/>
<path d="M145.172 301.95H135.117C134.545 301.95 134.137 301.542 134.137 300.969C134.137 300.397 134.545 299.989 135.117 299.989H145.172C145.744 299.989 146.152 300.397 146.152 300.969C146.152 301.46 145.744 301.95 145.172 301.95Z" fill="#6589D1"/>
<path d="M145.172 306.446H135.117C134.545 306.446 134.137 306.037 134.137 305.465C134.137 304.893 134.545 304.484 135.117 304.484H145.172C145.744 304.484 146.152 304.893 146.152 305.465C146.152 306.037 145.744 306.446 145.172 306.446Z" fill="#6589D1"/>
<path d="M145.172 311.024H135.117C134.545 311.024 134.137 310.615 134.137 310.043C134.137 309.47 134.545 309.062 135.117 309.062H145.172C145.744 309.062 146.152 309.47 146.152 310.043C146.152 310.615 145.744 311.024 145.172 311.024Z" fill="#6589D1"/>
<path d="M192.254 288.218H149.095C148.523 288.218 148.114 287.809 148.114 287.237C148.114 286.665 148.523 286.256 149.095 286.256H192.254C192.826 286.256 193.235 286.665 193.235 287.237C193.235 287.809 192.826 288.218 192.254 288.218Z" fill="#3B5FB7"/>
<path d="M192.254 292.795H149.095C148.523 292.795 148.114 292.387 148.114 291.814C148.114 291.242 148.523 290.834 149.095 290.834H192.254C192.826 290.834 193.235 291.242 193.235 291.814C193.235 292.305 192.826 292.795 192.254 292.795Z" fill="#3B5FB7"/>
<path d="M192.254 297.373H149.095C148.523 297.373 148.114 296.964 148.114 296.392C148.114 295.82 148.523 295.411 149.095 295.411H192.254C192.826 295.411 193.235 295.82 193.235 296.392C193.235 296.882 192.826 297.373 192.254 297.373Z" fill="#3B5FB7"/>
<path d="M192.254 301.95H149.095C148.523 301.95 148.114 301.542 148.114 300.969C148.114 300.397 148.523 299.989 149.095 299.989H192.254C192.826 299.989 193.235 300.397 193.235 300.969C193.235 301.46 192.826 301.95 192.254 301.95Z" fill="#3B5FB7"/>
<path d="M192.254 306.446H149.095C148.523 306.446 148.114 306.037 148.114 305.465C148.114 304.893 148.523 304.484 149.095 304.484H192.254C192.826 304.484 193.235 304.893 193.235 305.465C193.235 306.037 192.826 306.446 192.254 306.446Z" fill="#3B5FB7"/>
<path d="M192.254 311.024H149.095C148.523 311.024 148.114 310.615 148.114 310.043C148.114 309.47 148.523 309.062 149.095 309.062H192.254C192.826 309.062 193.235 309.47 193.235 310.043C193.235 310.615 192.826 311.024 192.254 311.024Z" fill="#3B5FB7"/>
<path d="M153.918 255.44H124.736C120.404 255.44 116.889 251.925 116.889 247.593V218.411C116.889 214.079 120.404 210.564 124.736 210.564H153.918C158.25 210.564 161.765 214.079 161.765 218.411V247.593C161.765 251.925 158.25 255.44 153.918 255.44Z" fill="#0033CC"/>
<path d="M152.038 251.516H119.75C116.317 251.516 113.456 248.737 113.456 245.222V212.935C113.456 209.502 116.235 206.641 119.75 206.641H152.038C155.471 206.641 158.332 209.42 158.332 212.935V245.222C158.25 248.737 155.471 251.516 152.038 251.516Z" fill="white" stroke="#DEE3FC" stroke-miterlimit="10"/>
<path d="M143.618 223.97H143.373V221.436C143.373 217.185 139.94 213.752 135.771 213.752C131.521 213.752 128.169 217.185 128.169 221.436V223.97H128.088C126.943 223.97 125.962 224.951 125.962 226.095V235.74C125.962 236.885 126.943 237.866 128.088 237.866H143.618C144.763 237.866 145.744 236.885 145.744 235.74V226.095C145.744 224.951 144.845 223.97 143.618 223.97ZM130.05 221.436C130.05 218.33 132.583 215.714 135.771 215.714C138.878 215.714 141.493 218.248 141.493 221.436V223.97H130.05V221.436Z" fill="#DEE3FC"/>
<path d="M138.387 228.956C138.387 227.403 136.997 226.177 135.363 226.504C134.382 226.667 133.646 227.484 133.401 228.384C133.156 229.528 133.728 230.591 134.545 231.081C134.709 231.163 134.79 231.408 134.79 231.572L134.382 233.206C134.137 234.187 134.872 235.086 135.853 235.086C136.834 235.086 137.57 234.187 137.324 233.206L136.916 231.653C136.834 231.49 136.997 231.245 137.161 231.163C137.897 230.672 138.387 229.937 138.387 228.956Z" fill="white"/>
<path d="M144.845 241.38H126.862C126.371 241.38 125.962 240.972 125.962 240.481C125.962 239.991 126.371 239.582 126.862 239.582H144.845C145.335 239.582 145.744 239.991 145.744 240.481C145.744 240.972 145.335 241.38 144.845 241.38Z" fill="#DEE3FC"/>
<path d="M144.845 244.487H126.862C126.371 244.487 125.962 244.078 125.962 243.587C125.962 243.097 126.371 242.688 126.862 242.688H144.845C145.335 242.688 145.744 243.097 145.744 243.587C145.744 244.078 145.335 244.487 144.845 244.487Z" fill="#DEE3FC"/>
<path d="M506.956 308.081H489.79C487.256 308.081 485.213 306.037 485.213 303.503V286.338C485.213 283.804 487.256 281.76 489.79 281.76H506.956C509.49 281.76 511.533 283.804 511.533 286.338V303.503C511.615 306.037 509.572 308.081 506.956 308.081Z" fill="#0033CC"/>
<path d="M505.893 305.792H486.848C484.804 305.792 483.169 304.157 483.169 302.114V283.068C483.169 281.025 484.804 279.39 486.848 279.39H505.893C507.937 279.39 509.572 281.025 509.572 283.068V302.114C509.572 304.157 507.937 305.792 505.893 305.792Z" fill="white" stroke="#DEE3FC" stroke-miterlimit="10"/>
<path d="M491.017 300.479C490.935 300.479 490.853 300.479 490.771 300.479C490.363 300.397 490.117 299.907 490.199 299.498L494.204 285.357C494.286 284.948 494.777 284.703 495.185 284.785C495.594 284.866 495.839 285.357 495.757 285.766L491.752 299.907C491.67 300.315 491.344 300.479 491.017 300.479Z" fill="white"/>
<path d="M497.719 300.479C497.638 300.479 497.556 300.479 497.474 300.479C497.065 300.397 496.82 299.907 496.902 299.498L500.907 285.357C500.989 284.948 501.479 284.703 501.888 284.785C502.297 284.866 502.542 285.357 502.46 285.766L498.455 299.907C498.373 300.315 498.046 300.479 497.719 300.479Z" fill="white"/>
<path d="M503.441 290.261H489.3C488.81 290.261 488.483 289.934 488.483 289.444C488.483 288.954 488.81 288.627 489.3 288.627H503.441C503.932 288.627 504.259 288.954 504.259 289.444C504.259 289.934 503.85 290.261 503.441 290.261Z" fill="white"/>
<path d="M503.441 296.719H489.3C488.81 296.719 488.483 296.392 488.483 295.901C488.483 295.411 488.81 295.084 489.3 295.084H503.441C503.932 295.084 504.259 295.411 504.259 295.901C504.259 296.31 503.85 296.719 503.441 296.719Z" fill="white"/>
<path d="M188.412 224.297H178.195C177.541 224.297 177.05 223.806 177.05 223.152C177.05 222.498 177.541 222.008 178.195 222.008H188.412C189.066 222.008 189.557 222.498 189.557 223.152C189.557 223.806 189.066 224.297 188.412 224.297Z" fill="#F0F4FF"/>
<path d="M198.712 229.283H178.195C177.541 229.283 177.05 228.792 177.05 228.138C177.05 227.485 177.541 226.994 178.195 226.994H198.712C199.366 226.994 199.856 227.485 199.856 228.138C199.856 228.792 199.366 229.283 198.712 229.283Z" fill="#F0F4FF"/>
<path d="M180.647 234.269H178.195C177.541 234.269 177.05 233.779 177.05 233.125C177.05 232.471 177.541 231.98 178.195 231.98H180.647C181.301 231.98 181.791 232.471 181.791 233.125C181.791 233.697 181.301 234.269 180.647 234.269Z" fill="#F0F4FF"/>
<path d="M198.712 234.269H184.407C183.753 234.269 183.263 233.779 183.263 233.125C183.263 232.471 183.753 231.98 184.407 231.98H198.712C199.366 231.98 199.856 232.471 199.856 233.125C199.856 233.697 199.366 234.269 198.712 234.269Z" fill="#F0F4FF"/>
<path d="M198.712 224.297H192.499C191.845 224.297 191.355 223.806 191.355 223.152C191.355 222.498 191.845 222.008 192.499 222.008H198.712C199.366 222.008 199.856 222.498 199.856 223.152C199.856 223.806 199.366 224.297 198.712 224.297Z" fill="#F0F4FF"/>
<path d="M141.166 377.07C139.858 377.07 138.551 377.397 137.488 378.051C137.079 374.209 133.81 371.266 129.886 371.266C125.635 371.266 122.284 374.7 122.284 378.868C122.284 379.114 122.284 379.441 122.366 379.686C122.039 379.604 121.63 379.604 121.303 379.604C118.115 379.604 115.5 382.22 115.5 385.408C115.5 388.596 118.115 391.211 121.303 391.211H141.248C145.172 391.211 148.359 388.023 148.359 384.1C148.278 380.258 145.09 377.07 141.166 377.07Z" fill="white"/>
<path d="M90.487 346.417C90.3235 345.355 90.3235 344.292 90.5687 343.229C91.4679 339.715 92.5305 333.094 90.2417 325.982C86.3999 314.048 70.9509 303.503 70.9509 303.503C70.9509 303.503 75.1197 321.078 78.6346 328.598C81.1685 334.074 85.5825 340.287 88.0347 343.638C88.6887 344.537 89.1791 345.6 89.4243 346.744C91.9583 360.558 91.5496 371.266 91.5496 371.512L92.694 371.593C92.694 371.266 93.0209 360.477 90.487 346.417Z" fill="#DEE3FC"/>
<path d="M102.83 335.219C105.936 325.492 107.326 314.048 107.326 314.048C107.326 314.048 93.4296 325.492 92.2853 334.32C91.5496 339.715 92.4487 344.129 93.2662 346.662C93.5931 347.725 93.6749 348.869 93.5931 350.014C92.2035 363.011 93.2662 373.065 93.2662 373.228L94.3288 373.146C94.3288 372.983 93.2662 363.665 94.4923 351.403C94.6557 349.687 95.3097 348.134 96.3723 346.826C98.4158 344.292 101.277 340.205 102.83 335.219Z" fill="#B4C1EF"/>
<path d="M116.971 313.639C116.971 313.639 102.012 319.198 98.0888 331.377C95.7184 338.815 96.8627 345.682 97.7619 349.196C98.0071 350.177 98.0071 351.24 97.7619 352.221C94.247 366.28 94.1653 380.83 94.1653 380.994H95.3914C95.3914 380.83 95.4731 366.607 98.8245 352.793C99.1515 351.403 99.7237 350.177 100.623 349.033C103.157 345.6 107.489 339.388 110.023 333.993C113.538 326.391 116.971 313.639 116.971 313.639Z" fill="#DEE3FC"/>
<path d="M90.5687 365.136C90.16 359.986 88.7704 355.409 87.1356 351.567C86.8086 350.831 86.6452 349.932 86.8086 349.115C87.0539 347.48 87.1356 345.028 86.4817 341.84C85.2556 335.873 77.3267 322.876 65.8013 322.14C65.8013 322.14 69.8066 328.516 71.8501 333.829C74.4658 340.614 78.1441 347.643 84.2747 350.341C85.3373 350.831 86.1547 351.73 86.6452 352.793C88.1165 356.39 89.3426 360.558 89.6696 365.136H90.5687Z" fill="#B4C1EF"/>
<path d="M82.8034 391.375H101.767L106.672 361.294C106.917 359.986 105.854 358.76 104.546 358.76H80.0242C78.6346 358.76 77.6537 359.986 77.8989 361.294L82.8034 391.375Z" fill="#DEE3FC"/>
<path d="M43.813 391.375H575.291" stroke="white" stroke-width="1.1144" stroke-miterlimit="10" stroke-linecap="round"/>
<path d="M466.347 101.359C453.483 101.359 443.035 111.807 443.035 124.671C443.035 137.535 453.483 147.983 466.347 147.983C479.211 147.983 489.66 137.535 489.66 124.671C489.66 111.807 479.211 101.359 466.347 101.359ZM466.347 103.386C478.114 103.386 487.633 112.904 487.633 124.671C487.633 136.438 478.114 145.956 466.347 145.956C454.58 145.956 445.062 136.438 445.062 124.671C445.062 112.904 454.58 103.386 466.347 103.386ZM466.284 110.259C466.137 110.279 465.979 110.338 465.84 110.417L464.922 110.956C464.376 111.273 464.193 111.993 464.51 112.54L472.46 126.223L475.374 124.513L467.424 110.829C467.187 110.421 466.727 110.204 466.284 110.259ZM463.845 114.82C463.402 114.761 462.942 114.947 462.705 115.359L461.691 117.101L464.7 118.843L465.714 117.132C466.034 116.586 465.848 115.869 465.302 115.549L464.288 114.947C464.15 114.868 463.991 114.84 463.845 114.82ZM461.438 117.513L454.438 129.549L457.415 131.291L464.447 119.286L461.438 117.513ZM451.46 122.961V126.318H455.736L457.7 122.961H451.46ZM462.736 122.961L460.868 126.318H471.764L469.895 122.961H462.736ZM475.184 122.961L476.99 126.318H481.171V122.961H475.184ZM475.691 125.083L472.777 126.761L474.456 129.676L477.37 127.965L475.691 125.083ZM477.243 128.757C477.144 128.773 477.026 128.828 476.927 128.884C476.451 129.153 475.759 129.553 475.343 129.802C474.563 130.269 475.165 131.627 475.343 131.924C476.352 133.615 477.378 133.389 478.162 134.585C478.593 135.238 478.471 135.508 478.605 135.725C478.657 135.805 478.855 135.911 478.922 135.82C480.134 134.146 479.765 131.243 478.89 129.961C478.534 129.438 477.928 128.646 477.243 128.757ZM454.058 130.182L452.601 135.662C452.573 135.761 452.608 135.864 452.696 135.915C452.783 135.967 452.909 135.955 452.981 135.884L457.035 131.956L454.058 130.182Z" fill="#317BF7"/>
<g clip-path="url(#clip0_12_918)">
<path d="M84.2578 94.8193C69.4251 94.8193 57.3482 106.896 57.3482 121.729C57.3482 136.562 69.4251 148.638 84.2578 148.638C99.0905 148.638 111.167 136.562 111.167 121.729C111.167 106.896 99.0905 94.8193 84.2578 94.8193ZM84.2578 96.0513C98.4097 96.0513 109.935 107.577 109.935 121.729C109.935 135.881 98.4097 147.406 84.2578 147.406C70.106 147.406 58.5802 135.881 58.5802 121.729C58.5802 107.577 70.106 96.0513 84.2578 96.0513ZM84.2578 98.645C76.193 98.645 69.1252 102.754 64.9996 109.02C65.5427 109.036 66.0533 109.085 66.491 109.085C68.9064 109.085 72.651 108.76 72.651 108.76C73.8911 108.687 74.0208 110.56 72.7807 110.706C72.7807 110.706 71.5082 110.827 70.1222 110.9L78.5517 135.865L83.6094 120.756L79.9782 110.9C78.7381 110.827 77.579 110.706 77.579 110.706C76.3308 110.633 76.4686 108.687 77.7087 108.76C77.7087 108.76 81.5344 109.085 83.8039 109.085C86.2193 109.085 89.9639 108.76 89.9639 108.76C91.2122 108.687 91.3337 110.56 90.0936 110.706C90.0936 110.706 88.8211 110.827 87.4351 110.9L95.7998 135.67L98.0692 128.019C99.2364 125.02 99.82 122.539 99.82 120.562C99.82 117.709 98.823 115.739 97.9396 114.207C96.7724 112.302 95.6701 110.665 95.6701 108.76C95.6701 106.645 97.2911 104.675 99.5606 104.675C99.666 104.675 99.7795 104.667 99.8848 104.675C95.7754 100.914 90.2638 98.645 84.2578 98.645ZM104.489 110.641C104.594 111.378 104.683 112.189 104.683 113.04C104.683 115.382 104.245 117.984 102.932 121.275L95.8646 141.635C102.722 137.631 107.342 130.239 107.342 121.729C107.342 117.717 106.288 113.923 104.489 110.641ZM63.184 112.327C61.9034 115.196 61.1739 118.381 61.1739 121.729C61.1739 130.864 66.5072 138.734 74.2072 142.478L63.184 112.327ZM84.6469 123.739L77.7736 143.84C79.8404 144.448 81.9883 144.813 84.2578 144.813C86.9407 144.813 89.51 144.294 91.9092 143.451C91.8525 143.354 91.8282 143.305 91.7795 143.192L84.6469 123.739Z" fill="#207196"/>
</g>
<path d="M18.7406 291.048C18.7406 291.866 18.0779 292.53 17.2591 292.53C16.4403 292.53 15.7775 291.866 15.7775 291.048V277.22C15.7775 276.575 16.1953 276.004 16.8097 275.808C17.427 275.612 18.0957 275.838 18.468 276.364L35.0387 299.776C40.1174 296.193 43.4588 290.293 43.4588 283.64C43.4588 272.776 34.5695 263.886 23.7048 263.886C12.8401 263.886 3.95081 272.776 3.95081 283.64C3.95081 294.505 12.8401 303.394 23.7048 303.394C26.8576 303.394 29.8345 302.627 32.4855 301.298L18.7406 281.878V291.048ZM28.6176 276.233C28.6176 275.415 29.2804 274.751 30.0992 274.751C30.918 274.751 31.5807 275.415 31.5807 276.233V289.902L28.6176 285.727V276.233Z" fill="black"/>
<path d="M216.921 10.2814C216.029 10.2514 215.095 10.407 214.158 10.7106C212.285 11.3177 210.323 12.5009 208.309 14.1392C207.52 14.7812 206.723 15.5152 205.924 16.2938C205.143 15.5349 204.362 14.8185 203.591 14.1906C201.578 12.5537 199.621 11.3722 197.753 10.7664C195.884 10.1607 194.025 10.1419 192.498 11.0235C190.971 11.9051 190.058 13.5234 189.648 15.4445C189.238 17.3656 189.281 19.6534 189.693 22.2146C189.836 23.1043 190.042 24.0376 190.274 24.9884C189.401 25.2528 188.554 25.5308 187.768 25.8377C185.397 26.7639 183.435 27.8719 182.006 29.1904C180.578 30.5088 179.655 32.1091 179.655 33.8662C179.655 35.6233 180.578 37.2213 182.006 38.5398C183.435 39.8583 185.397 40.9685 187.768 41.8947C188.609 42.2228 189.518 42.5183 190.457 42.7976C190.119 44.0597 189.846 45.2844 189.659 46.4453C189.247 49.0086 189.204 51.2967 189.615 53.2221C190.025 55.1476 190.939 56.7751 192.473 57.661C194.008 58.547 195.875 58.5252 197.748 57.9181C199.621 57.3109 201.581 56.1299 203.595 54.4917C204.377 53.8555 205.168 53.1299 205.96 52.3594C206.755 53.1341 207.55 53.8639 208.336 54.5028C210.348 56.1398 212.308 57.3212 214.176 57.927C216.045 58.5328 217.902 58.5516 219.429 57.67C220.956 56.7884 221.869 55.1701 222.278 53.249C222.688 51.3279 222.643 49.0401 222.231 46.4788C222.044 45.3148 221.771 44.0882 221.431 42.8222C222.401 42.5361 223.34 42.2326 224.205 41.8947C226.576 40.9685 228.538 39.8583 229.967 38.5398C231.396 37.2213 232.318 35.6233 232.318 33.8662C232.318 32.1091 231.396 30.5088 229.967 29.1904C228.538 27.8719 226.576 26.7639 224.205 25.8377C223.408 25.5264 222.548 25.2448 221.661 24.9772C221.895 24.0206 222.103 23.0806 222.247 22.1856C222.659 19.6223 222.702 17.332 222.292 15.4065C221.881 13.4811 220.965 11.8558 219.431 10.9698C218.664 10.5269 217.813 10.3114 216.921 10.2814ZM216.816 12.6104C217.376 12.6257 217.853 12.7589 218.262 12.9948C219.079 13.4666 219.683 14.3848 220.005 15.896C220.327 17.4072 220.316 19.4489 219.936 21.8168C219.806 22.6275 219.617 23.4867 219.402 24.367C217.062 23.8038 214.497 23.3857 211.764 23.1399C210.391 21.2377 208.98 19.5073 207.558 17.9702C208.31 17.2361 209.057 16.5495 209.786 15.9563C211.647 14.443 213.408 13.4133 214.878 12.9367C215.613 12.6985 216.256 12.5951 216.816 12.6104ZM195.099 12.6171C195.663 12.6014 196.307 12.7045 197.044 12.9434C198.518 13.4213 200.282 14.4506 202.145 15.9653C202.859 16.5464 203.59 17.218 204.326 17.9344C202.893 19.4838 201.472 21.2323 200.09 23.1511C197.367 23.4014 194.812 23.8235 192.482 24.3894C192.269 23.5132 192.082 22.6575 191.952 21.8503C191.572 19.4804 191.562 17.4361 191.885 15.9206C192.209 14.405 192.818 13.4822 193.642 13.006C194.055 12.7679 194.536 12.6328 195.099 12.6171ZM205.96 19.6174C206.892 20.6318 207.825 21.7422 208.749 22.9366C207.841 22.8987 206.921 22.8762 205.987 22.8762C205.034 22.8762 204.097 22.8994 203.17 22.9388C204.095 21.7434 205.027 20.6327 205.96 19.6174ZM205.987 25.1873C207.543 25.1873 209.06 25.2512 210.535 25.3594C211.55 26.8175 212.542 28.3644 213.488 30.0017C214.318 31.4403 215.07 32.8768 215.754 34.2953C215.063 35.7327 214.298 37.1885 213.456 38.6471C212.715 39.9309 211.941 41.1503 211.154 42.326C209.488 42.4653 207.761 42.5428 205.987 42.5428C204.17 42.5428 202.404 42.4607 200.701 42.3149C199.927 41.1561 199.166 39.9529 198.436 38.6895C197.596 37.2344 196.836 35.7834 196.146 34.349C196.839 32.9065 197.603 31.4452 198.448 29.9816C199.388 28.3529 200.377 26.8149 201.387 25.3639C202.878 25.2533 204.413 25.1873 205.987 25.1873ZM213.483 25.6455C215.369 25.8808 217.139 26.2078 218.787 26.5999C218.298 28.2033 217.695 29.8781 216.965 31.6065C216.491 30.6928 216.001 29.776 215.47 28.8573C214.828 27.7446 214.16 26.6821 213.483 25.6455ZM198.369 25.6634C197.707 26.6811 197.055 27.7219 196.425 28.8126C195.888 29.7431 195.387 30.6722 194.907 31.5976C194.184 29.8796 193.585 28.2143 193.099 26.62C194.735 26.2271 196.496 25.9014 198.369 25.6634ZM221.051 27.2078C221.862 27.4533 222.646 27.7094 223.365 27.9901C225.55 28.8439 227.28 29.8549 228.4 30.889C229.521 31.9232 230.007 32.9094 230.007 33.8662C230.007 34.8229 229.521 35.8092 228.4 36.8433C227.28 37.8775 225.55 38.8885 223.365 39.7423C222.566 40.0542 221.689 40.337 220.776 40.605C220.126 38.5923 219.295 36.4925 218.307 34.349C219.443 31.888 220.361 29.4884 221.051 27.2078ZM190.884 27.219C191.566 29.4768 192.473 31.8526 193.593 34.2886C192.598 36.4447 191.763 38.5564 191.11 40.5804C190.23 40.3195 189.382 40.0443 188.609 39.7423C186.423 38.8885 184.694 37.8775 183.573 36.8433C182.452 35.8092 181.966 34.8229 181.966 33.8662C181.966 32.9094 182.452 31.9232 183.573 30.889C184.694 29.8549 186.423 28.8439 188.609 27.9901C189.316 27.7137 190.087 27.4612 190.884 27.219ZM205.987 28.6092C202.84 28.6092 200.265 31.1845 200.265 34.3311C200.265 37.4776 202.84 40.0529 205.987 40.0529C209.133 40.0529 211.709 37.4776 211.709 34.3311C211.709 31.1845 209.133 28.6092 205.987 28.6092ZM205.987 30.898C207.896 30.898 209.42 32.4215 209.42 34.3311C209.42 36.2407 207.896 37.7642 205.987 37.7642C204.077 37.7642 202.554 36.2407 202.554 34.3311C202.554 32.4215 204.077 30.898 205.987 30.898ZM216.995 37.0356C217.595 38.456 218.116 39.8459 218.555 41.1861C217.178 41.5052 215.713 41.7741 214.172 41.9863C214.615 41.2783 215.053 40.5571 215.481 39.816C216.018 38.887 216.516 37.9593 216.995 37.0356ZM194.934 37.0378C195.415 37.9673 195.917 38.8991 196.456 39.8339C196.879 40.5657 197.31 41.2801 197.748 41.9796C196.211 41.7665 194.75 41.4967 193.378 41.1772C193.815 39.841 194.337 38.454 194.934 37.0378ZM192.719 43.3989C194.79 43.8895 197.035 44.2664 199.415 44.512C201.005 46.8107 202.66 48.8752 204.326 50.6808C203.581 51.4072 202.843 52.0889 202.12 52.6768C200.26 54.1901 198.496 55.2176 197.026 55.6942C195.556 56.1707 194.459 56.1078 193.642 55.636C192.825 55.1643 192.223 54.2461 191.901 52.7349C191.579 51.2237 191.588 49.1842 191.968 46.8163C192.141 45.7422 192.399 44.5919 192.719 43.3989ZM219.216 43.4078C219.539 44.6075 219.798 45.7631 219.972 46.8432C220.352 49.2131 220.362 51.2551 220.039 52.7706C219.716 54.2862 219.109 55.2113 218.284 55.6875C217.459 56.1636 216.354 56.2279 214.88 55.75C213.406 55.2721 211.642 54.2406 209.78 52.7259C209.052 52.1339 208.308 51.4489 207.558 50.7166C209.235 48.9042 210.902 46.8285 212.502 44.5164C214.888 44.2725 217.139 43.8979 219.216 43.4078ZM202.402 44.7466C203.577 44.8107 204.767 44.8539 205.987 44.8539C207.166 44.8539 208.318 44.8133 209.456 44.7533C208.293 46.3225 207.107 47.749 205.926 49.0336C204.746 47.7463 203.563 46.3172 202.402 44.7466Z" fill="#48CEF7"/>
<defs>
<clipPath id="clip0_12_918">
<rect width="53.9489" height="53.9489" fill="white" transform="translate(57.2185 94.8193)"/>
</clipPath>
</defs>
</svg>
