<?xml version="1.0" encoding="utf-8"?>
<!-- Generator: Adobe Illustrator 23.0.0, SVG Export Plug-In . SVG Version: 6.00 Build 0)  -->
<svg version="1.1" id="Layer_2" xmlns="http://www.w3.org/2000/svg" xmlns:xlink="http://www.w3.org/1999/xlink" x="0px" y="0px"
	 viewBox="0 0 4250.5 2978.6" style="enable-background:new 0 0 4250.5 2978.6;" xml:space="preserve">
<style type="text/css">
	.st0{fill:#7CC2F7;}
	.st1{fill:#F5B391;}
	.st2{fill:#E8976A;}
	.st3{fill:#FFFFFF;}
	.st4{fill:#F5AE89;}
	.st5{fill:#FAE1D4;}
	.st6{fill:#FABFA0;}
	.st7{fill:#179CFB;}
	.st8{fill:#EDCF85;}
	.st9{fill:#EDECEB;}
	.st10{fill:#003459;}
	.st11{fill:#30ACB3;}
	.st12{fill:#9EF3F7;}
	.st13{fill:#4BD5DE;}
	.st14{fill:#45C7CF;}
	.st15{fill:#1AA371;}
	.st16{fill:#24E09B;}
	.st17{fill:#21CC8D;}
	.st18{fill:#004A7E;}
	.st19{fill:#0093FB;}
	.st20{fill:#FFB1A3;}
	.st21{fill:#0076C9;}
	.st22{fill:#E68E7E;}
	.st23{fill:#4D4E4E;}
	.st24{fill:#98C5E3;}
	.st25{fill:#8A5046;}
	.st26{fill:#BA6B5D;}
	.st27{fill:#E88574;}
	.st28{fill:#FFD690;}
	.st29{fill:#0088E8;}
	.st30{fill:#8ACCFB;}
	.st31{fill:#3C3D3D;}
	.st32{fill:#FFD4CC;}
	.st33{fill:#FF7D7D;}
	.st34{opacity:0.1;}
	.st35{fill:#7EBEFB;}
	.st36{fill:#398CDB;}
	.st37{fill:#C1DFFB;}
	.st38{fill:#CBE4FB;}
	.st39{fill:#D5E9FB;}
	.st40{fill:#599FE1;}
	.st41{fill:#FFF37C;}
	.st42{fill:#FFE5A6;}
	.st43{fill:#18C787;}
</style>
<g>
	<path class="st0" d="M4094.1,2960.9c-384.4,0-3551.3,0-3923.7,0s159.7-166.7,159.7-166.7h3524.6
		C3854.6,2794.3,4428.9,2960.9,4094.1,2960.9z"/>
	<g>
		<g>
			<g>
				<rect x="650.6" y="2513.4" class="st1" width="277.8" height="356.7"/>
				<polygon class="st2" points="928.4,2870.1 928.4,2513.4 1091.6,2513.4 1089,2870.1 				"/>
			</g>
			
				<rect x="754.4" y="2513.4" transform="matrix(-1 -1.224647e-16 1.224647e-16 -1 1550.2961 5107.9634)" class="st3" width="41.5" height="81.2"/>
		</g>
		<g>
			<g>
				<polygon class="st2" points="522.4,2870.1 522.4,2513.4 650.6,2513.4 648.6,2870.1 				"/>
			</g>
		</g>
		<g>
			<g>
				<rect x="460" y="2235.1" class="st4" width="205.8" height="278.3"/>
				<polygon class="st2" points="484.1,2513.4 484.1,2235.1 321.9,2235.1 324,2513.4 				"/>
			</g>
			<rect x="552.5" y="2235.1" class="st3" width="32.4" height="63.3"/>
		</g>
		<g>
			<g>
				<rect x="802.7" y="2235.1" class="st1" width="205.8" height="278.3"/>
				<polygon class="st2" points="802.7,2513.4 802.7,2235.1 664.5,2235.1 666.7,2513.4 				"/>
			</g>
		</g>
		<g>
			<g>
				<rect x="641" y="1959.8" class="st1" width="205.8" height="278.3"/>
				<polygon class="st2" points="641,2238.1 641,1959.8 502.9,1959.8 505,2238.1 				"/>
			</g>
		</g>
		<polygon class="st5" points="896.5,2039.5 690.7,2039.5 641,1959.8 846.8,1959.8 		"/>
		<polygon class="st1" points="707.2,1959.8 501.3,1959.8 451.7,1880.1 657.5,1880.1 		"/>
		<polygon class="st5" points="457.9,2036 596,2036 641,1959.8 502.9,1959.8 		"/>
		<polygon class="st5" points="276.9,2311.3 439.1,2311.3 484.1,2235.1 321.9,2235.1 		"/>
		<rect x="885" y="2235.1" class="st2" width="123.5" height="278.3"/>
		<polygon class="st5" points="1140.5,2314.8 934.7,2314.8 885,2235.1 1090.9,2235.1 		"/>
	</g>
	<rect x="292.1" y="2513.4" class="st6" width="287.8" height="356.7"/>
	
		<rect x="415.3" y="2513.4" transform="matrix(-1 -1.224647e-16 1.224647e-16 -1 872.0634 5107.9634)" class="st3" width="41.5" height="81.2"/>
	<g>
		<path class="st7" d="M1010.8,1549.8H357.7c-22.7,0-41.2-18.4-41.2-41.2v-373.2c0-22.7,18.4-41.2,41.2-41.2h653.1
			c22.7,0,41.2,18.4,41.2,41.2v373.2C1052,1531.4,1033.5,1549.8,1010.8,1549.8z"/>
		<path class="st8" d="M440.8,1209.4h54v-21.6c0-7.2-5.8-13.1-13.1-13.1h-75.6v52.2c0,3.1-1.7,5.7-4.8,5.7l0,0
			c-3.1,0-4.4-2.5-4.4-5.7v-52.2H384c-7.2,0-13.1,5.8-13.1,13.1v63.3h70.9c2.2,0,4.2,1.6,4.4,3.8c0.3,2.5-1.7,4.6-4.2,4.6h-71.1
			v26.1c0,7.2,5.8,13.1,13.1,13.1h97.8c7.2,0,13.1-5.8,13.1-13.1V1218h-54.3c-2.5,0-4.5-2.2-4.3-4.7
			C436.5,1211,438.6,1209.4,440.8,1209.4z"/>
		<rect x="846.9" y="1423" class="st9" width="149.8" height="75.6"/>
		<g>
			<rect x="370.9" y="1344.7" class="st9" width="139.8" height="35.3"/>
			<rect x="530.4" y="1344.7" class="st9" width="142.4" height="35.3"/>
			<rect x="850.4" y="1344.7" class="st9" width="145.5" height="35.3"/>
			<rect x="695.1" y="1344.7" class="st9" width="134.6" height="35.3"/>
		</g>
		<rect x="371.7" y="1423" class="st8" width="431.2" height="45.5"/>
		<rect x="811.2" y="1137.1" class="st9" width="185.5" height="53.1"/>
	</g>
	<g>
		<path class="st3" d="M2317.2,2774.4l26.6,104h84.1c4.4-18-9.6-40.5-45.3-45.3c0,0-7.3-27.9,2.8-55.4
			c10.1-27.5-41.5-31.6-41.5-31.6L2317.2,2774.4z"/>
		<g>
			<g>
				<path class="st10" d="M3427.8,2146.3c-1.3,0-2.4-1.4-2.5-3.2c0-0.1,0-0.3,0-0.8c0.2-14.4-0.7-86.5-35.8-94.1
					c-3.8-0.8-10.5,1.2-17,9.6c-6.9,9.1-18,31.8-14,82.4c0.1,1.9-0.8,3.6-2.2,3.8c-1.4,0.2-2.6-1.2-2.7-3
					c-4.2-53.5,7.9-78.2,15.5-88.1c7.7-10.1,16-12.5,21.2-11.4c39.2,8.5,40.2,85.6,40,101l0,0.4c0,1.8-1,3.4-2.4,3.5
					C3427.9,2146.3,3427.8,2146.3,3427.8,2146.3z"/>
				<polygon class="st11" points="3322.6,2125.5 3295.5,2576.5 3405.3,2576.5 3392,2125.5 				"/>
				<polygon class="st12" points="3408.8,2125.5 3405.3,2576.5 3585.4,2576.5 3558.8,2125.5 				"/>
				<polygon class="st13" points="3373.8,2125.5 3355.2,2521.1 3405.3,2576.5 3408.8,2125.5 				"/>
				<polygon class="st13" points="3355.2,2521.1 3295.5,2576.5 3405.3,2576.5 				"/>
				<path class="st10" d="M3518,2146.3c-1.3,0-2.4-1.4-2.5-3.2c0-0.1,0-0.3,0-0.8c0.2-14.4-0.7-86.5-35.8-94.1
					c-3.8-0.8-10.5,1.2-17,9.6c-6.9,9.1-18,31.8-14,82.5c0.1,1.9-0.8,3.6-2.2,3.8c-1.4,0.2-2.6-1.2-2.7-3
					c-4.2-53.5,7.9-78.2,15.5-88.1c7.7-10.1,16-12.5,21.2-11.4c39.2,8.5,40.2,85.6,40,101l0,0.4c0,1.8-1,3.4-2.4,3.5
					C3518.1,2146.3,3518,2146.3,3518,2146.3z"/>
				<polygon class="st14" points="3558.8,2125.5 3491.6,2125.5 3461.1,2576.5 3585.4,2576.5 				"/>
			</g>
			<g>
				<path class="st10" d="M3603.5,2146.3c-1.3,0-2.4-1.4-2.5-3.2c0-0.1,0-0.3,0-0.8c0.2-14.4-0.7-86.5-35.8-94.1
					c-3.8-0.8-10.5,1.2-17,9.6c-6.9,9.1-18,31.8-14,82.4c0.1,1.9-0.8,3.6-2.2,3.8c-1.4,0.2-2.6-1.2-2.7-3
					c-4.2-53.5,7.9-78.2,15.5-88.1c7.7-10.1,16-12.5,21.2-11.4c39.2,8.5,40.2,85.6,40,101l0,0.4c0,1.8-1,3.4-2.4,3.5
					C3603.6,2146.3,3603.5,2146.3,3603.5,2146.3z"/>
				<polygon class="st15" points="3498.3,2125.5 3471.2,2576.5 3581,2576.5 3567.7,2125.5 				"/>
				<polygon class="st16" points="3584.5,2125.5 3581,2576.5 3761.2,2576.5 3734.5,2125.5 				"/>
				<polygon class="st17" points="3549.5,2125.5 3530.9,2521.1 3581,2576.5 3584.5,2125.5 				"/>
				<polygon class="st17" points="3530.9,2521.1 3471.2,2576.5 3581,2576.5 				"/>
				<path class="st10" d="M3693.7,2146.3c-1.3,0-2.4-1.4-2.5-3.2c0-0.1,0-0.3,0-0.8c0.2-14.4-0.7-86.5-35.8-94.1
					c-3.8-0.8-10.5,1.2-17,9.6c-6.9,9.1-18,31.8-14,82.5c0.1,1.9-0.8,3.6-2.2,3.8c-1.4,0.2-2.6-1.2-2.7-3
					c-4.2-53.5,7.9-78.2,15.5-88.1c7.7-10.1,16-12.5,21.2-11.4c39.2,8.5,40.2,85.6,40,101l0,0.4c0,1.8-1,3.4-2.4,3.5
					C3693.8,2146.3,3693.8,2146.3,3693.7,2146.3z"/>
				<polygon class="st15" points="3733.2,2125.8 3671.1,2125.8 3645.4,2576.8 3759.9,2576.8 				"/>
			</g>
			<g>
				<path class="st10" d="M3781.7,2146.3c-1.3,0-2.4-1.4-2.5-3.2c0-0.1,0-0.3,0-0.8c0.2-14.4-0.7-86.5-35.8-94.1
					c-3.8-0.8-10.5,1.2-17,9.6c-6.9,9.1-18,31.8-14,82.4c0.1,1.9-0.8,3.6-2.2,3.8c-1.4,0.2-2.6-1.2-2.7-3
					c-4.2-53.5,7.9-78.2,15.5-88.1c7.7-10.1,16-12.5,21.2-11.4c39.2,8.5,40.2,85.6,40,101l0,0.4c0,1.8-1,3.4-2.4,3.5
					C3781.8,2146.3,3781.8,2146.3,3781.7,2146.3z"/>
				<polygon class="st11" points="3677.1,2126.1 3649.4,2576.5 3759.8,2577.2 3746.5,2126.1 				"/>
				<polygon class="st12" points="3763.3,2126.1 3759.8,2577.2 3940,2577.2 3913.3,2126.1 				"/>
				<polygon class="st13" points="3728.3,2126.1 3709.7,2521.7 3759.8,2577.2 3763.3,2126.1 				"/>
				<polygon class="st13" points="3709.1,2521.1 3649.4,2576.5 3759.2,2576.5 				"/>
				<path class="st10" d="M3796.7,2139.9c1.3-0.1,2.5,1.3,2.6,3.1c0,0.1,0,0.3,0,0.8c0.5,14.4,4.7,86.3,40.2,92
					c3.8,0.6,10.5-1.8,16.5-10.6c6.5-9.4,16.4-32.8,10.1-83.1c-0.2-1.9,0.7-3.6,2-3.9c1.4-0.3,2.6,1,2.9,2.9
					c6.7,53.2-4.2,78.5-11.4,88.9c-7.3,10.5-15.4,13.4-20.6,12.6c-39.6-6.3-44.2-83.3-44.7-98.6l0-0.4c-0.1-1.8,0.9-3.4,2.2-3.6
					C3796.6,2139.9,3796.7,2139.9,3796.7,2139.9z"/>
			</g>
		</g>
		<path class="st18" d="M2647.2,1972.5c0,0-85.7,51.4-101.1,123.4c-15.4,72-1.7,304.2-1.7,304.2l-200.7,345.9l41.5,31.6
			c0,0,263.7-294.3,299.7-369.8c18.4-89.1,42.9-414.8,42.9-414.8L2647.2,1972.5z"/>
		<path class="st18" d="M2774.7,2030.3l172.3,798.3c-3.1,12.2-41.9,21.5-49.4,11.4c0,0-291.8-671.7-291.7-776.3
			S2750.1,1955.4,2774.7,2030.3z"/>
		<path class="st3" d="M2897.6,2839.9c84-9.4,82.5-60.7,132.3-35.6c4.5,14.6-38.6,76.3-126.1,76.3
			C2892.5,2862.1,2897.6,2839.9,2897.6,2839.9z"/>
		<path class="st19" d="M2822.3,1852.4c-5.9,25.1-12.4,46-19,65.2c-10,29-20.3,53.9-29.6,82.8c-3.5,10.9-6.8,22.4-9.9,35
			c0,0.1-0.1,0.3-0.1,0.4c0,0-69.4,10.3-140.5-28.9c1.7-11.5,3.1-22.6,4.2-33.3c13-123.2-7.3-195.6,63.3-235.3
			c39.2,10.1,50.6,15.8,89.8,25.6C2796.2,1785.1,2820,1822.5,2822.3,1852.4z"/>
		<path class="st20" d="M2780.5,1763.8c-0.3-2.4,12.7-96.9,12.7-96.9l-64.4-23.1l-38.1,94.4
			C2720.8,1746.3,2750.7,1755,2780.5,1763.8z"/>
		<path class="st19" d="M2801.5,2154.6c-84.1,62.4-260.3,9.4-260.3,9.4c-18.1-107.7,86.3-190.5,86.3-190.5h0l112.4,20.6l33.9,6.2
			l0.2,0l13.4,75.2L2801.5,2154.6z"/>
		<path class="st21" d="M2774,2000.4l13.4,75.2c-31-53.1-103.1-176.6-135.1-231.3c57.3-19.1,112.3,26.6,151,73.3
			c-10,29-20.3,53.9-29.6,82.8L2774,2000.4z"/>
		<g>
			<path class="st20" d="M2808.7,1709.1c-44.7,15.1-108.8-39.2-115.8-92.8c-7-53.6,25.2-102,72-108.1c24-3.1,45.1,4.6,60.9,20.1
				c15.1,14.8,25.4,36.5,28.8,62.7c0.5,3.5,0.8,7.1,1,10.6C2859.1,1651.4,2840.1,1698.5,2808.7,1709.1z"/>
			<path class="st22" d="M2721.1,1579.1c4.2,3.9,8.7,7.3,13.4,10.2c3.7,1.6,7.4,3,11.3,4.3c6,1.4,12.2,2.4,18.3,3.3
				c18,2.5,36.2,2.7,54.3,0.7c12.2-1.3,24.4-3.5,36.5-6.6c0,0,0,0,0,0c-3.4-26.1-13.7-47.9-28.8-62.7c-17-5.3-34.1-7.1-45.6-3.6
				c-32.3,10-68.2,32.3-64,53C2717.9,1577.4,2719.6,1577.7,2721.1,1579.1z"/>
			<path class="st10" d="M2729.8,1483.6c52.1-9,99.4,6.7,123.4,49.5c37.8,67.4-127.8,55.1-127.8,55.1s-32.3,90.8,55.5,133.5
				c0,0-95.9,29.9-137.3-27.1C2596.9,1573.7,2643.6,1498.5,2729.8,1483.6z"/>
			
				<ellipse transform="matrix(3.598214e-02 -0.9994 0.9994 3.598214e-02 998.6801 4280.2998)" class="st20" cx="2717.9" cy="1622.5" rx="21.3" ry="18.4"/>
		</g>
		<path class="st20" d="M3067.2,1996.6l-42.6,18.7c-5.7,32,59.7,52.5,68.2,22.5C3099.2,2014.7,3067.2,1996.6,3067.2,1996.6z"/>
		<path class="st20" d="M3022.8,2042.4c0,0,8,16.9,21.5,19.9c8.1,1.8,29.1,7.2,24.6-14.3C3062.5,2017.3,3027.5,2030.7,3022.8,2042.4
			z"/>
		<g>
			<g>
				
					<ellipse transform="matrix(0.9239 -0.3827 0.3827 0.9239 -825.403 1498.9589)" class="st23" cx="3355.2" cy="2824.3" rx="58.9" ry="58.9"/>
				
					<ellipse transform="matrix(0.1602 -0.9871 0.9871 0.1602 29.9426 5683.7324)" class="st24" cx="3355.2" cy="2824.3" rx="35.6" ry="35.6"/>
				<path class="st10" d="M3361.9,2811.9l-35.4-17.6v-52h-50.1v59.9l70.8,35.4C3369.2,2845.4,3379.1,2819.8,3361.9,2811.9z"/>
			</g>
			<g>
				
					<ellipse transform="matrix(0.7071 -0.7071 0.7071 0.7071 -858.345 3576.3108)" class="st23" cx="3887.8" cy="2824.3" rx="58.9" ry="58.9"/>
				
					<ellipse transform="matrix(0.1602 -0.9871 0.9871 0.1602 477.256 6209.4863)" class="st24" cx="3887.8" cy="2824.3" rx="35.6" ry="35.6"/>
				<path class="st10" d="M3894.5,2811.9l-35.4-17.6v-52h-50.1v59.9l70.8,35.4C3901.9,2845.4,3911.7,2819.8,3894.5,2811.9z"/>
			</g>
			<g>
				
					<ellipse transform="matrix(0.2298 -0.9732 0.9732 0.2298 373.994 4565.1763)" class="st10" cx="3071.2" cy="2046.3" rx="21.8" ry="21.8"/>
				<g>
					<g>
						<path class="st10" d="M3953.2,2586.7l-710.8-0.3c-2.1,0-3.5-0.9-3.5-2.4l1.4-402.3c0-1.3,1.1-2.8,2.8-4c1.8-1.2,4-1.9,5.8-1.9
							l808,2.7c2.6,0,4,1.2,3.6,3l-98.1,399.8c-0.3,1.3-1.6,2.6-3.4,3.6c-1.1,0.7-2.4,1.1-3.7,1.4
							C3954.7,2586.6,3953.9,2586.7,3953.2,2586.7z M3252.3,2184.1l-1.5,394.4l700-0.1l95.8-391.1L3252.3,2184.1z"/>
						<polygon class="st10" points="4019,2320.7 4022.6,2315.6 3247.4,2309.2 3244.3,2314 						"/>
						<polygon class="st10" points="3985.7,2456.6 3989.2,2451.5 3246.9,2446.1 3243.8,2450.9 						"/>
					</g>
					<g>
						<path class="st10" d="M3892.1,2583.8c1.1-0.2,2.1-0.9,2.2-1.6l98.1-399.9c0.2-0.7-0.6-1.1-1.8-0.9c-1.2,0.2-2.3,1-2.4,1.7
							l-98,399.8c-0.2,0.7,0.6,1.1,1.8,0.9C3892,2583.8,3892,2583.8,3892.1,2583.8z"/>
						<path class="st10" d="M3833.1,2583.7c1.1-0.2,2.1-0.9,2.2-1.6l89.2-400.1c0.2-0.7-0.7-1.1-1.8-0.9c-1.1,0.2-2.2,1-2.4,1.7
							l-89.1,400c-0.2,0.7,0.6,1.1,1.8,0.9C3833,2583.8,3833.1,2583.8,3833.1,2583.7z"/>
						<path class="st10" d="M3774,2583.7c1.1-0.2,2.1-0.9,2.2-1.6l80.2-400.4c0.1-0.7-0.7-1.1-1.8-0.8c-1.2,0.3-2.2,1-2.3,1.8
							l-80.2,400.2C3772,2583.6,3772.8,2584,3774,2583.7C3774,2583.7,3774,2583.7,3774,2583.7z"/>
						<path class="st10" d="M3714.9,2583.7c1.1-0.2,2.1-1,2.2-1.6l71.3-400.6c0.1-0.7-0.7-1.1-1.8-0.8c-1.1,0.2-2.2,1-2.3,1.8
							l-71.2,400.5C3712.9,2583.6,3713.7,2584,3714.9,2583.7C3714.9,2583.7,3714.9,2583.7,3714.9,2583.7z"/>
						<path class="st10" d="M3655.7,2583.7c1.1-0.2,2.1-1,2.2-1.6l62.3-400.9c0.1-0.7-0.7-1-1.9-0.8c-1.2,0.3-2.1,1.1-2.2,1.8
							l-62.2,400.7C3653.8,2583.6,3654.6,2583.9,3655.7,2583.7C3655.7,2583.7,3655.7,2583.7,3655.7,2583.7z"/>
						<path class="st10" d="M3596.5,2583.7c1.1-0.2,2.1-1,2.2-1.6l53.3-401.1c0.1-0.7-0.7-1-1.9-0.8c0,0,0,0,0,0
							c-1.1,0.3-2.1,1.1-2.2,1.8l-53.3,401C3594.6,2583.6,3595.4,2583.9,3596.5,2583.7C3596.5,2583.7,3596.5,2583.7,3596.5,2583.7z"
							/>
						<path class="st10" d="M3537.2,2583.7C3537.2,2583.7,3537.2,2583.7,3537.2,2583.7c1.1-0.3,2.1-1,2.1-1.7l44.3-401.4
							c0.1-0.7-0.8-1-1.9-0.7c0,0,0,0,0,0c-1.1,0.3-2.1,1.1-2.2,1.8l-44.3,401.2C3535.3,2583.6,3536.1,2583.9,3537.2,2583.7z"/>
						<path class="st10" d="M3477.8,2583.7C3477.8,2583.7,3477.8,2583.7,3477.8,2583.7c1.1-0.3,2.1-1,2.1-1.7l35.3-401.6
							c0.1-0.7-0.7-1-1.9-0.7c-1.1,0.3-2,1.1-2.1,1.8l-35.2,401.5C3475.9,2583.6,3476.7,2583.9,3477.8,2583.7z"/>
						<path class="st10" d="M3418.4,2583.6C3418.4,2583.6,3418.4,2583.6,3418.4,2583.6c1.1-0.3,2.1-1,2.1-1.7l26.2-401.8
							c0-0.7-0.8-1-1.9-0.7c-1.1,0.3-2,1.1-2.1,1.8l-26.2,401.7C3416.5,2583.6,3417.3,2583.9,3418.4,2583.6z"/>
						<path class="st10" d="M3358.9,2583.6C3358.9,2583.6,3358.9,2583.6,3358.9,2583.6c1.2-0.3,2-1,2.1-1.7l17.2-402.1
							c0-0.7-0.8-1-1.9-0.6c-1.1,0.3-2,1.1-2,1.8l-17.1,401.9C3357.1,2583.5,3357.9,2583.9,3358.9,2583.6z"/>
						<path class="st10" d="M3299.3,2583.6c0,0,0.1,0,0.1,0c1.1-0.3,1.9-1,1.9-1.7l8.1-402.3c0-0.7-0.9-0.9-1.9-0.6
							c-1.1,0.3-1.9,1.1-2,1.8l-8,402.2C3297.5,2583.5,3298.3,2583.8,3299.3,2583.6z"/>
					</g>
				</g>
				<path class="st10" d="M3924.5,2742.2h-664.2c-21.3,0-41.3-8.3-56.4-23.4c-15-15.1-23.3-35.1-23.2-56.5
					c0.1-43.7,35.8-79.3,79.6-79.3h695.3c4.7,0,8.5,3.8,8.5,8.5c0,4.7-3.8,8.5-8.5,8.5h-695.3c-34.4,0-62.5,28-62.6,62.4
					c-0.1,16.8,6.4,32.6,18.3,44.4c11.8,11.9,27.6,18.4,44.4,18.4h664.2c4.7,0,8.5,3.8,8.5,8.5
					C3933,2738.4,3929.2,2742.2,3924.5,2742.2z"/>
				<path class="st10" d="M3238.9,2603.3c-4.7,0-8.5-3.8-8.5-8.5v-500.3c0-21.9-17.8-39.7-39.7-39.7h-119.6c-4.7,0-8.5-3.8-8.5-8.5
					c0-4.7,3.8-8.5,8.5-8.5h119.6c31.2,0,56.6,25.4,56.6,56.6v500.3C3247.4,2599.5,3243.6,2603.3,3238.9,2603.3z"/>
			</g>
		</g>
		<path class="st25" d="M2739.5,2074.5l-2.9-0.5c0.5-2.9,45.2-285.4-23.6-308.8c-16.5-5.6-30.1-4.7-41.8,2.7
			c-35.9,22.9-44.5,103.2-52.8,180.8c-4,37.3-7.8,72.6-14.5,100.5l-2.8-0.7c6.7-27.7,10.4-62.9,14.4-100.1
			c8.4-78.3,17-159.3,54.1-183c12.3-7.8,27.1-8.8,44.3-3c30,10.2,43.4,65.9,39.8,165.7C2751.1,2002,2739.6,2073.8,2739.5,2074.5z"/>
		<g>
			<path class="st26" d="M2732.3,2171.2c-25.9,15.1-143-5.4-158.9-27.9c2.9-37.2,12.4-69,27.8-95.8c47.6-1.4,93.4,7,137.6,24.1
				C2744.8,2099.6,2742.1,2142.8,2732.3,2171.2z"/>
			<path class="st27" d="M2601.1,2047.5c0,0-0.5,56.5,63.3,67.3s74.3-43.1,74.3-43.1S2676.1,2044.1,2601.1,2047.5z"/>
			<path class="st28" d="M2656.9,2133.5L2656.9,2133.5c-3.4-0.6-5.7-3.9-5.1-7.3l4-22.6c0.6-3.4,3.9-5.7,7.3-5.1l0,0
				c3.4,0.6,5.7,3.9,5.1,7.3l-4,22.5C2663.6,2131.8,2660.4,2134.1,2656.9,2133.5z"/>
		</g>
		<g>
			<path class="st20" d="M3061.9,2019.2l-58.3-19l-11.4,47c32,4.4,54.9,7.5,54.9,7.5C3085,2059.9,3085,2027.7,3061.9,2019.2z"/>
			<path class="st19" d="M2845.1,1948.6l-99.9-155.2c-57.5-61.9-118.1,18.7-86.7,63.3c0,0,107.1,154.7,143,162.2
				c24,5,125.9,19.4,190.6,28.3l11.4-47L2845.1,1948.6z"/>
		</g>
	</g>
	<g>
		<g>
			<path class="st29" d="M1025.4,546.1c19.9-117.9,201.4-171.1,197.8-94.1l832,4.9c57.6,0.3,104.3,52.2,104.4,115.8l1.7,2188.1
				c0.1,66-47.5,119.9-106.2,120.4l-849.3,7.3c-5.3,11.1-15.1,21.1-30.7,29.6c-97.4,2.1-144.1-46-161.2-100.4
				c-5.6-14.6-8.6-30.7-8.4-47.7C1008.9,2741.4,1019.3,573.8,1025.4,546.1z"/>
			<g>
				<g>
					<path class="st30" d="M1184.2,2918.4l974.9-6.3c60.8-0.4,110-55.8,109.9-123.6l-3.7-2250.2c-0.1-65.4-48.5-118.6-108.2-118.8
						l-955.9-3.1c-60.1-0.2-109.3,52.9-109.8,118.6l-17.3,2260.6C1073.6,2863.7,1122.9,2918.7,1184.2,2918.4z"/>
					<path class="st31" d="M1170.7,2902c4,0.5,8.2,0.8,12.3,0.8l974.6-7.4c52.3-0.4,95-49,94.9-108.2l-3.4-2247.8
						c-0.1-57.1-42.1-103.8-93.4-104l-955.9-4.2c-1.5,0-3,0-4.5,0.1c-24.1,1.1-46.5,12.1-63.3,30.8c-17.2,19.2-26.7,44.6-26.9,71.6
						l-17.1,2262.9C1087.6,2850.3,1123.1,2895.6,1170.7,2902z"/>
					<polygon class="st3" points="1138.7,545.1 1122.2,2800.2 2220.1,2793.6 2217.3,545.1 					"/>
				</g>
			</g>
		</g>
		<g>
			<g>
				<path class="st32" d="M1456.6,545.2l260.3,353.6c0,0.2,0,0.3,0,0.5c-2.6,69.4,145.9,69.6,150.4,0.2c0-0.2,0-0.3,0-0.5
					l-256.8-353.7L1456.6,545.2z"/>
				<path class="st33" d="M1610.6,545.2l256.8,353.7c0,0.2,0,0.3,0,0.5c-3.3,69.4,145.1,69.6,150.4,0.2c0-0.2,0-0.3,0-0.5
					l-253.2-353.9L1610.6,545.2z"/>
				<path class="st33" d="M1302.5,545.1l263.9,353.4l0,0.5c0,0.3,0,0.5,0,0.8c-2.3,64.6,146.6,72.5,150.5-0.6c0-0.2,0-0.3,0-0.5
					l-260.3-353.6L1302.5,545.1z"/>
				<path class="st32" d="M1137.7,545.1l273.4,353.3l0,0.5c-1.7,90.1,150.9,79.4,155.2,1c0-0.3,0-0.5,0-0.8l0-0.5l-263.9-353.4
					L1137.7,545.1z"/>
				<path class="st32" d="M2226.3,545.2l-153.9,0l246,354.2c0,0.2,0,0.3,0,0.5c-5.4,69.4,148.1,69.5,155.5,0.2c0-0.2,0-0.3,0.1-0.5
					L2226.3,545.2z"/>
				<path class="st32" d="M1764.6,545.2L2017.8,899c0,0.2,0,0.3,0,0.5c-4,69.4,144.4,69.6,150.3,0.2c0-0.2,0-0.3,0-0.5l-249.6-354
					L1764.6,545.2z"/>
				<path class="st33" d="M1918.6,545.2l249.6,354c0,0.2,0,0.3,0,0.5c-4.7,69.4,143.6,69.5,150.3,0.2c0-0.2,0-0.3,0.1-0.5
					l-246-354.2L1918.6,545.2z"/>
			</g>
			<path class="st34" d="M1716.9,899.2c-4,73.1-152.8,65.3-150.5,0.6c-4.4,78.5-157,89.1-155.2-1L1716.9,899.2z"/>
			<path class="st34" d="M1716.9,899.2l150.4,0.2C1862.8,968.8,1714.3,968.6,1716.9,899.2z"/>
			<path class="st34" d="M1867.4,899.3l150.4,0.2C2012.5,968.9,1864.1,968.8,1867.4,899.3z"/>
			<path class="st34" d="M2017.8,899.5l150.3,0.2C2162.1,969,2013.8,968.9,2017.8,899.5z"/>
			<path class="st34" d="M2168.1,899.6l150.3,0.2C2311.8,969.2,2163.4,969,2168.1,899.6z"/>
			<path class="st34" d="M2474,900c-7.4,69.4-160.9,69.2-155.5-0.2L2474,900z"/>
		</g>
		<g>
			<polygon class="st19" points="2165.4,2662.9 1207.6,2662.9 1207.6,2625.8 2165.4,2625.9 			"/>
			<polygon class="st19" points="2165.4,2302.3 1207.6,2300.9 1207.6,2263.8 2165.4,2265.4 			"/>
			<polygon class="st19" points="2165.4,1941.7 1207.6,1938.9 1207.6,1901.8 2165.4,1904.8 			"/>
			<polygon class="st19" points="2165.4,1581.2 1207.6,1576.9 1207.6,1539.8 2165.4,1544.2 			"/>
			<g>
				<path class="st19" d="M2079.8,1151.5l-785.1-4.6c-28.3-0.2-51.3-23.7-51.3-52.5s23-52.1,51.3-51.9l785.1,5.2
					c27.9,0.2,50.7,23.6,50.7,52.3C2130.5,1128.5,2107.8,1151.7,2079.8,1151.5z M1294.8,1045.9c-26.4-0.2-47.9,21.6-47.9,48.5
					c0,26.9,21.5,48.9,47.9,49.1l785.1,4.6c26.1,0.2,47.3-21.5,47.3-48.2s-21.2-48.6-47.3-48.8L1294.8,1045.9z"/>
				<path class="st19" d="M2079.8,1049.3l-81.7-0.5v100.5l81.7,0.5c27.1,0.2,49-22.2,49-49.9
					C2128.8,1072.1,2106.9,1049.5,2079.8,1049.3z"/>
				<g>
					<path class="st3" d="M2049.6,1113.9c-6.8,0-13.2-2.8-18-7.7c-9.9-10.2-9.9-26.7,0-36.8c4.8-4.9,11.2-7.5,18-7.5
						c6.8,0,13.2,2.8,18,7.7l0,0c9.9,10.2,9.9,26.7,0,36.8C2062.7,1111.3,2056.4,1114,2049.6,1113.9z M2049.6,1068.2
						c-5.1,0-10,2-13.6,5.7c-7.5,7.6-7.5,20.2,0,27.9c3.6,3.8,8.5,5.8,13.6,5.9c5.1,0,10-2,13.6-5.7c7.5-7.6,7.5-20.2,0-27.9
						C2059.6,1070.3,2054.7,1068.2,2049.6,1068.2z"/>
					<polygon class="st3" points="2082.4,1126.4 2063.2,1106.4 2067.5,1102 2086.8,1122 					"/>
					<path class="st3" d="M2091,1130.8L2091,1130.8c-2.2,2.2-5.6,2.2-7.8,0l-16.1-16.6l7.8-7.9l16.1,16.6
						C2093.2,1125,2093.2,1128.6,2091,1130.8z"/>
				</g>
			</g>
			<polygon class="st35" points="1512.1,1509.6 1243.5,1508.3 1243.5,1234 1512.1,1235.5 			"/>
			<polygon class="st35" points="1824.8,1511.1 1556.9,1509.8 1556.9,1235.8 1824.8,1237.4 			"/>
			<polygon class="st35" points="2129.7,1512.5 1862.4,1511.3 1862.4,1237.6 2129.7,1239.1 			"/>
			<polygon class="st35" points="1512.1,1877.6 1243.5,1876.7 1243.5,1602.3 1512.1,1603.5 			"/>
			<polygon class="st35" points="1824.8,1878.6 1556.9,1877.7 1556.9,1603.7 1824.8,1604.8 			"/>
			<polygon class="st35" points="2129.7,1879.5 1862.4,1878.7 1862.4,1605 2129.7,1606.2 			"/>
			<polygon class="st35" points="1512.1,2239.1 1243.5,2238.6 1243.5,1964.2 1512.1,1965 			"/>
			<polygon class="st35" points="1824.8,2239.6 1556.9,2239.2 1556.9,1965.1 1824.8,1965.9 			"/>
			<polygon class="st35" points="2129.7,2240.2 1862.4,2239.7 1862.4,1966 2129.7,1966.8 			"/>
			<polygon class="st35" points="1512.1,2600.6 1243.5,2600.6 1243.5,2326.2 1512.1,2326.5 			"/>
			<polygon class="st35" points="1824.8,2600.7 1556.9,2600.6 1556.9,2326.6 1824.8,2327 			"/>
			<polygon class="st35" points="2129.7,2600.8 1862.4,2600.7 1862.4,2327 2129.7,2327.4 			"/>
			<g>
				<path class="st36" d="M1451.4,1441.7l-6-1.8c0.1-0.4,10.5-45.9,11.3-63.1c1-20.8-5.4-39.2-18.4-53.3
					c-14.9-16.1-37.6-25.4-62.3-25.5c-24.1-0.1-45.2,8.1-59.2,23.1c-12.9,13.8-19,32.8-17.8,54.9c1,17.4,9.7,61.3,9.8,61.8l-6.1,1.2
					c-0.4-1.8-8.9-44.8-9.9-62.7c-1.3-23.9,5.5-44.5,19.5-59.6c15.2-16.3,37.8-25.2,63.7-25.1c26.4,0.1,50.8,10.2,66.9,27.5
					c14.3,15.4,21.2,35.4,20.1,58C1462.1,1395.1,1452,1439.9,1451.4,1441.7z"/>
				<g>
					<g>
						<path class="st36" d="M1303,1409.3l8.2,44.4c0.9,4.8,5.1,8.1,9.8,7.8l-11.5-63.1C1305,1399.8,1302.2,1404.5,1303,1409.3z"/>
						<path class="st36" d="M1322.1,1461.4l17.6-3.3l-11.6-63.2l-17.6,3.3c-0.3,0.1-0.7,0.1-1,0.2l11.5,63.1
							C1321.4,1461.5,1321.7,1461.4,1322.1,1461.4z"/>
					</g>
					<g>
						<path class="st37" d="M1344.3,1464.3L1344.3,1464.3c-5.4,1-10.5-2.6-11.5-8.1l-10.5-57c-1-5.5,2.5-10.7,7.9-11.7l0,0
							c5.4-1,10.5,2.6,11.5,8.1l10.5,57C1353.2,1458.1,1349.7,1463.3,1344.3,1464.3z"/>
					</g>
				</g>
				<g>
					<g>
						<path class="st36" d="M1451.7,1410.7l-9.2,44.1c-1,4.8-5.3,7.9-10,7.4l13-62.6C1450,1401.2,1452.7,1405.9,1451.7,1410.7z"/>
						<path class="st36" d="M1431.4,1462l-17.4-3.9l13.1-62.7l17.4,3.9c0.3,0.1,0.7,0.2,1,0.3l-13,62.6
							C1432.1,1462.2,1431.8,1462.1,1431.4,1462z"/>
					</g>
					<g>
						<path class="st37" d="M1409.2,1464.2L1409.2,1464.2c5.3,1.2,10.6-2.3,11.7-7.7l11.9-56.6c1.1-5.4-2.3-10.8-7.6-12v0
							c-5.3-1.2-10.6,2.2-11.7,7.7l-11.9,56.6C1400.4,1457.6,1403.8,1463,1409.2,1464.2z"/>
					</g>
				</g>
			</g>
			<g>
				<polygon class="st38" points="1724.8,1333.7 1718.4,1345.1 1603.4,1344.5 1603.4,1445.1 1778.4,1446 1778.4,1346.7 
					1771.4,1333.9 				"/>
				<polygon class="st38" points="1711.1,1350.2 1670.7,1349.9 1670.7,1333.4 1711.1,1333.6 				"/>
				<polygon class="st38" points="1657.3,1349.9 1616.9,1349.7 1616.9,1333.1 1657.3,1333.3 				"/>
				<polygon class="st36" points="1778.4,1426.5 1603.4,1425.6 1603.4,1367.6 1778.4,1368.5 				"/>
				<path class="st36" d="M1766.2,1397.4c0,22.6-17.9,40.9-40.1,40.8c-22.1-0.1-40.1-18.6-40.1-41.2s18-40.9,40.1-40.8
					C1748.3,1356.3,1766.2,1374.8,1766.2,1397.4z"/>
				<path class="st38" d="M1757.2,1397.4c0,17.6-13.9,31.7-31.1,31.6c-17.2-0.1-31.1-14.4-31.1-31.9s13.9-31.7,31.1-31.6
					C1743.3,1365.5,1757.2,1379.8,1757.2,1397.4z"/>
				<path class="st36" d="M1741,1397.3c0,8.4-6.7,15.2-14.9,15.1c-8.2,0-14.9-6.9-14.9-15.3c0-8.4,6.7-15.2,14.9-15.1
					C1734.3,1382.1,1741,1388.9,1741,1397.3z"/>
			</g>
			<g>
				<path class="st36" d="M1481.8,2181.9c-1.4-27.6-63.1-45-63.1-45s-56.5-62.2-80.1-93.4c-40.2,15.7-49.8,35.1-43.8,69
					c19.6-16.7,53.1,14,93.7,69.2L1481.8,2181.9z"/>
				<path class="st36" d="M1294.8,2112.5l13.4,72l6.5,0c1.8-32.4,5.8-69.1,27.3-57.3C1341.9,2098.3,1294.8,2098.2,1294.8,2112.5z"/>
			</g>
			<g>
				<g>
					<path class="st39" d="M1396,1645.5c-1.2-3.6-2-7.3-2.3-11.2l-3,0c-0.1,3.4-0.8,7-1.4,9c-2.1,7.9-8,13.8-15,14.2
						c-7-0.4-12.9-6.4-15-14.3c-0.5-1.9-1.3-5.6-1.4-9l-3,0c-0.4,3.8-1.1,7.6-2.3,11.1c-3,8.8-8.2,16.2-14.4,22.3l4.8,45l30,0.1
						l2.6,0l30,0.1l4.8-44.9C1404.2,1661.7,1399,1654.3,1396,1645.5z"/>
					<path class="st39" d="M1444.1,1830.7c-13.3,13.7-123,14.7-139.6-0.5c7.5-42.5,17.3-83.6,38.5-117.6l62.6,0.2
						C1424.6,1742.3,1435.4,1784.8,1444.1,1830.7z"/>
				</g>
				<path class="st36" d="M1379.7,1723.5c-25.4-0.1-37.4-11-37.9-11.4c-0.4-0.4-0.4-1-0.1-1.3c0.3-0.4,0.9-0.4,1.3-0.1
					c0.1,0.1,12,10.8,36.6,10.9c0,0,0,0,0,0c21.9,0.1,24.9-8.9,24.9-9c0.2-0.5,0.7-0.8,1.2-0.6c0.5,0.2,0.8,0.7,0.6,1.2
					C1406.4,1713.5,1403.2,1723.6,1379.7,1723.5C1379.7,1723.5,1379.7,1723.5,1379.7,1723.5z"/>
				<path class="st36" d="M1377.1,1740.7c-0.6,0-1.3-0.3-2-1.2c-4.6-5.7,6.8-16.5,8.2-17.8l2-1.9l-0.5,2.8c-0.7,4-3.4,17-7.1,18
					C1377.5,1740.7,1377.3,1740.7,1377.1,1740.7z M1382.4,1725.4c-3.5,3.8-8.2,10-5.8,13c0.2,0.2,0.5,0.5,0.7,0.4
					C1378.8,1738.4,1380.9,1732,1382.4,1725.4z"/>
				<path class="st36" d="M1382.9,1724.9l0.1-2.3c0-0.6,0.4-14,5.5-18.5c1.4-1.2,3-1.7,4.7-1.4c2,0.3,2.8,1.3,3.1,2.2
					c1.6,4.9-9.5,16.2-11.7,18.5L1382.9,1724.9z M1392.4,1704.4c-1,0-1.9,0.3-2.7,1c-3.3,2.9-4.4,10.6-4.7,14.6
					c4.7-5,10.4-12.1,9.5-14.7c-0.1-0.2-0.2-0.7-1.5-0.9C1392.8,1704.4,1392.6,1704.4,1392.4,1704.4z"/>
				<path class="st36" d="M1401.6,1738.8c-0.3,0-0.7-0.2-0.8-0.5c-5.5-11.6-17-14.8-17.1-14.8c-0.5-0.1-0.8-0.7-0.7-1.2
					c0.1-0.5,0.6-0.8,1.1-0.7c0.5,0.1,12.5,3.5,18.4,15.8c0.2,0.5,0,1-0.4,1.3C1401.9,1738.8,1401.8,1738.8,1401.6,1738.8z"/>
			</g>
			<g>
				<g>
					<path class="st39" d="M1715.9,2399.8c-1.4-4.1-2.3-8.4-2.7-12.8l-3.4,0c-0.1,3.9-1,8.1-1.5,10.3c-2.4,9-9.2,15.9-17.2,16.3
						c-8-0.5-14.8-7.3-17.2-16.3c-0.6-2.2-1.5-6.4-1.5-10.3l-3.4,0c-0.4,4.4-1.3,8.7-2.7,12.8c-3.5,10.1-9.4,18.6-16.4,25.6
						l5.5,51.6l34.4,0l3,0l34.4,0l5.5-51.6C1725.3,2418.4,1719.4,2409.9,1715.9,2399.8z"/>
					<path class="st39" d="M1746.7,2517.9c-5.6-15.1-12.1-28.9-19.8-40.9l-71.8-0.1c-8,12.8-14.5,26.5-20,40.8
						C1651.1,2534.5,1732.4,2537.3,1746.7,2517.9z"/>
				</g>
				<path class="st36" d="M1697.3,2489.3c-29.1,0-42.8-12.4-43.4-13c-0.4-0.4-0.5-1.1-0.1-1.5c0.4-0.4,1.1-0.5,1.5-0.1
					c0.1,0.1,13.8,12.4,41.9,12.4c0,0,0,0,0,0c25.1,0,28.5-10.3,28.6-10.4c0.2-0.6,0.8-0.9,1.3-0.7c0.6,0.2,0.9,0.8,0.7,1.3
					C1727.8,2477.8,1724.2,2489.3,1697.3,2489.3C1697.3,2489.3,1697.3,2489.3,1697.3,2489.3z"/>
				<path class="st36" d="M1694.3,2509.1c-0.7,0-1.5-0.3-2.3-1.3c-5.2-6.6,7.8-19,9.4-20.4l2.3-2.2l-0.6,3.2
					c-0.8,4.6-3.8,19.5-8.2,20.6C1694.8,2509.1,1694.5,2509.1,1694.3,2509.1z M1700.3,2491.5c-4.1,4.4-9.4,11.5-6.7,14.9
					c0.2,0.3,0.5,0.6,0.8,0.5C1696.2,2506.4,1698.7,2499.1,1700.3,2491.5z"/>
				<path class="st36" d="M1700.9,2490.9l0.1-2.7c0-0.7,0.4-16.1,6.3-21.2c1.6-1.4,3.4-1.9,5.4-1.7c2.3,0.3,3.2,1.5,3.5,2.5
					c1.8,5.6-10.9,18.7-13.4,21.2L1700.9,2490.9z M1711.8,2467.4c-1.1,0-2.1,0.4-3.1,1.2c-3.8,3.3-5,12.2-5.4,16.8
					c5.4-5.7,11.9-13.9,10.9-16.9c-0.1-0.2-0.3-0.8-1.7-1C1712.2,2467.4,1712,2467.4,1711.8,2467.4z"/>
				<path class="st36" d="M1722.4,2506.8c-0.4,0-0.8-0.2-1-0.6c-6.3-13.2-19.5-16.9-19.6-16.9c-0.6-0.2-0.9-0.8-0.8-1.3
					c0.1-0.6,0.7-0.9,1.3-0.8c0.6,0.2,14.3,3.9,21,18.1c0.3,0.5,0,1.2-0.5,1.5C1722.7,2506.8,1722.5,2506.8,1722.4,2506.8z"/>
			</g>
			<g>
				<path class="st38" d="M1660,1675.1c0,0,18.8,6.3,46.4-0.8c17.7,21.8-13.5,32.3-32.9,27.5C1654.1,1697.1,1660,1675.1,1660,1675.1
					z"/>
				<path class="st36" d="M1706.4,1674.3c-1.5,5.9-4.6,11.2-10.2,14.5c-13.2,7.8-30.3-0.6-36.2-13.7c-10.5,1.4-19.6,3.4-26.2,5.8
					v150.7l104.1,0.4v-150.6C1728.5,1677.7,1717.7,1675.4,1706.4,1674.3z"/>
				<polygon class="st36" points="1633.8,1680.9 1588.9,1716.2 1618.4,1755.7 1662.3,1722.4 				"/>
				<polygon class="st36" points="1738.2,1681.3 1783,1717 1753.5,1756.2 1709.6,1722.6 				"/>
			</g>
			<g>
				<g>
					<path class="st36" d="M1896.6,1807.4l-2.1,0v9c0,0,112,8.1,156.1,0.5c44.1-7.6,47.1-22.4,47.1-22.4v-9.2l-1.5,0L1896.6,1807.4z
						"/>
					<path class="st39" d="M2096,1789.6c-11.5,15.3-46.5,19.8-90.4,20.4c-18,0.3-37.6-0.2-57.6-0.8c-17-0.6-34.4-1.3-51.4-1.8
						c-1.7-12.8,2.8-36.6,6.3-49.8c1.1-4.2,2.2-7.4,2.8-8.7l0.7-0.2c5.8,8.1,20.2,13,28.6,12.8c13.9-0.3,29.5-10,25-21.7
						c-0.7-1.6-1.3-3-1.7-4.3c-3.6-11.6,6.2-11.7,20.8-2.6c25.9,16.5,48.9,22.4,67.5,25.4c3.9,0.6,7.5,1.1,11,1.6
						C2083.7,1763.4,2098.3,1763.5,2096,1789.6z"/>
					<path class="st36" d="M2094.5,1789.6c-11.5,15.3-46.5,19.8-90.4,20.4c-1.3-6.4-2.4-23.4,20.2-27.5
						c17.1-3.1,26.8-14.3,31.8-22.5C2082.2,1763.4,2096.8,1763.5,2094.5,1789.6z"/>
					<path class="st36" d="M1946.6,1809.2c-17-0.6-34.4-1.3-51.4-1.8c-1.7-12.8,2.8-36.6,6.3-49.8
						C1915.9,1762.8,1941.7,1776.5,1946.6,1809.2z"/>
					<path class="st36" d="M2046.6,1758.5c-3.3,5.3-8.4,5.4-13.4,5.4c-44.3-3.1-66.8-20.7-74.9-28.3c-3.6-11.6,6.2-11.7,20.8-2.6
						C2005,1749.5,2028,1755.5,2046.6,1758.5z"/>
				</g>
				<path class="st39" d="M1994,1811.7c-22.7-0.1-45.5-1.4-64-2.4c-16.3-0.9-29.2-1.7-34.5-1l-0.9,0.1l-0.2-1.7l0.9-0.1
					c5.4-0.7,18.4,0.1,34.8,1c52,2.9,148.8,8.4,165.4-22.7l0.4-0.8l1.5,0.8l-0.4,0.8C2085.5,1807.1,2039.8,1811.9,1994,1811.7z"/>
			</g>
			<g>
				<polygon class="st36" points="2026.7,1465.5 1970.4,1465.2 1970.4,1290 2026.7,1290.3 				"/>
				<g>
					<path class="st38" d="M2045.9,1375.4c0,28.1-22.3,50.8-49.8,50.7c-27.5-0.1-49.8-23.1-49.8-51.2c0-28.1,22.3-50.8,49.8-50.7
						C2023.7,1324.3,2045.9,1347.3,2045.9,1375.4z"/>
					<path class="st36" d="M2036.2,1375.3c0,22.7-17.9,40.9-40.1,40.8c-22.1-0.1-40.1-18.6-40.1-41.2s18-40.9,40.1-40.8
						C2018.3,1334.2,2036.2,1352.7,2036.2,1375.3z"/>
					<polygon class="st38" points="1955.6,1352.4 1949.2,1347.7 1956.8,1336.7 1963.2,1341.3 					"/>
					
						<rect x="1942.8" y="1375.2" transform="matrix(0.9914 -0.1308 0.1308 0.9914 -164.0101 266.4621)" class="st38" width="7.8" height="13.5"/>
					<polygon class="st38" points="2036.4,1352.5 2042.9,1348.1 2035.4,1336.9 2029,1341.3 					"/>
					<polygon class="st38" points="2040.7,1389.2 2048.4,1390.3 2050.1,1376.9 2042.4,1375.8 					"/>
					<path class="st38" d="M1996.3,1377.3l-19.6-10.4c-0.9-0.5-1.3-1.6-0.8-2.6c0.5-0.9,1.6-1.3,2.5-0.8l17.6,9.4l24.9-16.2
						c0.9-0.6,2-0.3,2.6,0.6c0.6,0.9,0.3,2.1-0.6,2.6L1996.3,1377.3z"/>
				</g>
			</g>
			<g>
				<path class="st36" d="M1594.5,2144.7c9.3,2.9,22.7,5.3,38,6.9c25.1,2.8,55.4,3.8,81.4,2.7c25.7-1,47.1-4,55.1-9.3
					c0,0,17.1-103.9-83.8-106.4c-1.1,0-2.3,0-3.4-0.1C1577,2038.3,1594.5,2144.7,1594.5,2144.7z"/>
				<path class="st38" d="M1632.5,2151.7c25.1,2.8,55.4,3.8,81.4,2.7c14.3-94.3-26.5-114.7-28.7-115.7c-0.1,0-0.1,0-0.1,0l-3.4,0
					C1628.7,2068.8,1631.3,2136.6,1632.5,2151.7z"/>
				<path class="st40" d="M1758.2,2149c0,0-28.5,48.5-161,37.2c-56.7-4.8-2.6-41.6-2.6-41.6C1630.2,2153.5,1699,2157.7,1758.2,2149z
					"/>
			</g>
			<g>
				<g>
					<path class="st36" d="M1964.3,2067.7l61,0.1c34.7,0.1,63.7,28.7,63.5,64.2c-0.1,14.2-4.5,26.8-15.2,33.3l-161-0.3
						c-10.2-4.9-14.1-21.7-11.4-41.9C1905.7,2091.2,1932.8,2067.6,1964.3,2067.7z"/>
					<path class="st36" d="M1973.6,2069.4l0-0.5c1-12,11.2-21.4,23.1-21.4c12,0,22.1,9.5,23.1,21.5l0,0.5l7.9,0l-0.1-1.2
						c-1.3-16.2-14.9-28.9-31-28.9c-16,0-29.6,12.6-31,28.7l-0.1,1.2L1973.6,2069.4z"/>
				</g>
				<polygon class="st39" points="1989.4,2165.3 1974.3,2165.2 1974.3,2104.8 1989.4,2104.8 				"/>
				<polygon class="st39" points="2019.3,2165.3 2004.2,2165.3 2004.2,2104.9 2019.3,2104.9 				"/>
			</g>
			<g>
				<path class="st36" d="M1463.7,2530c-23.6,20.3-145.8,20.2-165.9-0.1c-3.7-39,0.3-73.6,11.1-104.1c48-10,95.9-9.5,143.7,0.1
					C1463.8,2453.8,1468.6,2498.9,1463.7,2530z"/>
				<path class="st40" d="M1309,2425.8c0,0,9.5,58.5,76.1,58.2c66.6-0.4,67.6-58,67.6-58S1384.3,2408.8,1309,2425.8z"/>
				<path class="st38" d="M1380.8,2504.7L1380.8,2504.7c-3.6,0-6.5-3-6.5-6.6v-24c0-3.6,2.9-6.6,6.5-6.6l0,0c3.6,0,6.5,3,6.5,6.6v24
					C1387.3,2501.7,1384.3,2504.7,1380.8,2504.7z"/>
			</g>
			<g>
				<g>
					<path class="st36" d="M1978.4,2397c0,0,17.2,5.7,42.3-0.8c16.1,19.9-12.3,29.4-29.9,25.2C1973.1,2417,1978.4,2397,1978.4,2397z
						"/>
					<path class="st39" d="M2020.7,2396.1c-1.4,5.4-4.2,10.2-9.3,13.2c-12,7.1-27.6-0.4-33-12.4c-9.5,1.3-17.9,3.2-23.9,5.4v137.3
						l94.7,0v-137.3C2040.8,2399.2,2030.9,2397.1,2020.7,2396.1z"/>
					<polygon class="st39" points="1954.6,2402.3 1913.8,2434.6 1940.6,2470.5 1980.5,2440.1 					"/>
					<polygon class="st39" points="2049.6,2402.4 2090.4,2434.8 2063.6,2470.6 2023.6,2440.2 					"/>
				</g>
				<rect x="2006.9" y="2442.2" class="st36" width="27.7" height="28.4"/>
			</g>
		</g>
	</g>
	<g>
		<circle class="st3" cx="1617.5" cy="308.9" r="45.8"/>
		<g>
			<path class="st3" d="M1779.5,165.5l19.4-22.1c-108.9-109.4-278.7-105.3-382.3,9l20.5,21.1C1529.9,71.4,1681.8,67.8,1779.5,165.5z
				"/>
			<path class="st3" d="M1739.1,211.4l19.4-22.1c-85.5-85.2-218.1-82-299.5,7l20.5,21.1C1550.2,140.6,1665,137.9,1739.1,211.4z"/>
			<path class="st3" d="M1700.1,255.9l19.4-22.1c-62.8-61.8-159.4-59.5-219.2,5l20.5,21.1C1569.8,207.6,1648.6,205.7,1700.1,255.9z"
				/>
		</g>
	</g>
	<g>
		<path class="st3" d="M3128.6,1194.9h-627.1c-43,0-77.8-34.8-77.8-77.8v0c0-43,34.8-77.8,77.8-77.8h627.1c43,0,77.8,34.8,77.8,77.8
			v0C3206.4,1160,3171.6,1194.9,3128.6,1194.9z"/>
		<polygon class="st41" points="2548.7,1084 2556.8,1109.2 2583.4,1109.2 2561.9,1124.8 2570.1,1150 2548.7,1134.4 2527.2,1150 
			2535.4,1124.8 2514,1109.2 2540.5,1109.2 		"/>
		<polygon class="st41" points="2679,1084 2687.1,1109.2 2713.6,1109.2 2692.2,1124.8 2700.4,1150 2679,1134.4 2657.5,1150 
			2665.7,1124.8 2644.3,1109.2 2670.8,1109.2 		"/>
		<polygon class="st41" points="2809.2,1084 2817.4,1109.2 2843.9,1109.2 2822.5,1124.8 2830.7,1150 2809.2,1134.4 2787.8,1150 
			2796,1124.8 2774.6,1109.2 2801.1,1109.2 		"/>
		<polygon class="st41" points="2939.5,1084 2947.7,1109.2 2974.2,1109.2 2952.8,1124.8 2961,1150 2939.5,1134.4 2918.1,1150 
			2926.3,1124.8 2904.9,1109.2 2931.4,1109.2 		"/>
		<polygon class="st41" points="3069.8,1084 3078,1109.2 3104.5,1109.2 3083.1,1124.8 3091.3,1150 3069.8,1134.4 3048.4,1150 
			3056.6,1124.8 3035.1,1109.2 3061.6,1109.2 		"/>
	</g>
	<g>
		<path class="st35" d="M2838.2,595.2h-466c-16.2,0-29.4-13.2-29.4-29.4V299.5c0-16.2,13.2-29.4,29.4-29.4h466
			c16.2,0,29.4,13.2,29.4,29.4v266.3C2867.6,582.1,2854.5,595.2,2838.2,595.2z"/>
		<path class="st42" d="M2431.5,352.3h38.5v-15.4c0-5.1-4.2-9.3-9.3-9.3h-53.9v37.3c0,2.2-1.2,4-3.4,4l0,0c-2.2,0-3.1-1.8-3.1-4
			v-37.3h-9.3c-5.1,0-9.3,4.2-9.3,9.3V382h50.6c1.6,0,3,1.1,3.2,2.7c0.2,1.8-1.2,3.3-3,3.3h-50.8v18.6c0,5.1,4.2,9.3,9.3,9.3h69.8
			c5.1,0,9.3-4.2,9.3-9.3v-48.2h-38.7c-1.8,0-3.2-1.5-3-3.4C2428.4,353.4,2429.9,352.3,2431.5,352.3z"/>
		<rect x="2721.3" y="504.7" class="st19" width="106.9" height="53.9"/>
		<g>
			<rect x="2381.6" y="448.8" class="st19" width="99.8" height="25.2"/>
			<rect x="2495.4" y="448.8" class="st19" width="101.6" height="25.2"/>
			<rect x="2723.8" y="448.8" class="st19" width="103.8" height="25.2"/>
			<rect x="2612.9" y="448.8" class="st19" width="96" height="25.2"/>
		</g>
		<rect x="2382.2" y="504.7" class="st19" width="307.7" height="32.5"/>
		<rect x="2695.8" y="300.7" class="st19" width="132.4" height="37.9"/>
	</g>
	<g>
		<path class="st3" d="M943.2,377c-35-89.4-85-88.2-469.4-88.2c-35.4,0-64-28.7-64-64V116.2c0-35.4,28.7-64,64-64h405.4
			c35.4,0,64,28.7,64,64V377z"/>
		
			<ellipse transform="matrix(0.1712 -0.9852 0.9852 0.1712 249.1739 628.2654)" class="st29" cx="498" cy="166" rx="21.7" ry="21.7"/>
		
			<ellipse transform="matrix(0.3305 -0.9438 0.9438 0.3305 252.7459 688.3432)" class="st29" cx="611.5" cy="166" rx="21.7" ry="21.7"/>
		
			<ellipse transform="matrix(0.2298 -0.9732 0.9732 0.2298 396.8815 833.5428)" class="st29" cx="725.1" cy="166" rx="21.7" ry="21.7"/>
		
			<ellipse transform="matrix(0.7071 -0.7071 0.7071 0.7071 128.2116 641.5919)" class="st29" cx="838.6" cy="166" rx="21.7" ry="21.7"/>
	</g>
	<g>
		
			<ellipse transform="matrix(0.2298 -0.9732 0.9732 0.2298 1512.0681 4144.6377)" class="st43" cx="3374.5" cy="1117" rx="73.2" ry="73.2"/>
		<polygon class="st3" points="3370.1,1151.4 3336.7,1097.6 3342.5,1091.7 3370.4,1118.8 3456.9,1043.8 3462.4,1051 		"/>
	</g>
</g>
</svg>
