<?xml version="1.0" encoding="utf-8"?>
<!-- Generator: Adobe Illustrator 23.0.0, SVG Export Plug-In . SVG Version: 6.00 Build 0)  -->
<svg version="1.1" id="Layer_1" xmlns="http://www.w3.org/2000/svg" xmlns:xlink="http://www.w3.org/1999/xlink" x="0px" y="0px"
	 viewBox="0 0 3836 2696" style="enable-background:new 0 0 3836 2696;" xml:space="preserve">
<style type="text/css">
	.st0{fill:#82BFE8;}
	.st1{fill:#103558;}
	.st2{fill:#2EABB2;}
	.st3{fill:#A8DDE7;}
	.st4{fill:#5FC7D3;}
	.st5{fill:#4DC2CB;}
	.st6{fill:#17A272;}
	.st7{fill:#5DBF8F;}
	.st8{fill:#47BA88;}
	.st9{fill:#466B8C;}
	.st10{fill:#4D4E4E;}
	.st11{fill:#97C4E1;}
	.st12{fill:#395873;}
	.st13{fill:#3881C3;}
	.st14{fill:#3376B3;}
	.st15{fill:#595959;}
	.st16{fill:#FFFFFF;}
	.st17{clip-path:url(#SVGID_2_);}
	.st18{fill:#4B93CF;}
	.st19{fill:#4489C8;}
	.st20{fill:#87BAE4;}
	.st21{fill:#C2DEF3;}
	.st22{fill:#D4E7F7;}
	.st23{fill:#CBE2F5;}
	.st24{fill:#5E9DD4;}
	.st25{fill:#FFD88B;}
	.st26{fill:#56A66B;}
	.st27{fill:#4F9963;}
	.st28{fill:#5BB072;}
	.st29{fill:#4CC3D1;}
	.st30{fill:#26BDC5;}
	.st31{fill:#6FCBD8;}
	.st32{fill:#F7A28A;}
	.st33{fill:#3D3D3D;}
	.st34{fill:#EB8A6E;}
	.st35{fill:#99584C;}
	.st36{fill:#895147;}
	.st37{fill:#C27061;}
	.st38{fill:#E78374;}
	.st39{fill:#FFD58F;}
	.st40{fill:#9B4E89;}
	.st41{fill:#F0896C;}
	.st42{fill:#613156;}
	.st43{fill:#225782;}
	.st44{fill:#FFA88F;}
	.st45{fill:#DB7EA2;}
	.st46{fill:#ECCE84;}
	.st47{fill:#ECEAE9;}
	.st48{fill:#FFE4A6;}
	.st49{fill:#40B883;}
</style>
<g>
	<g>
		<path class="st0" d="M3681.9,2613.3c-382.3,0-3133.1,0-3503.4,0c-206,0-162.6-143.6-10.9-143.6c123.6,0,3255.3-7.4,3290.9,3.8
			C3546.5,2496.3,3982.4,2613.3,3681.9,2613.3z"/>
		<g>
			<g>
				<g>
					<path class="st1" d="M365.8,2049.4c-0.7,0-1.4-0.8-1.4-1.8c0,0,0-0.2,0-0.4c0.1-8.1-0.4-48.8-20.2-53.1
						c-2.1-0.5-5.9,0.7-9.6,5.4c-3.9,5.1-10.1,18-7.9,46.5c0.1,1.1-0.5,2-1.2,2.1c-0.8,0.1-1.5-0.7-1.5-1.7
						c-2.4-30.2,4.5-44.1,8.7-49.7c4.4-5.7,9-7.1,11.9-6.4c22.1,4.8,22.7,48.3,22.6,57l0,0.2
						C367.2,2048.5,366.6,2049.4,365.8,2049.4C365.8,2049.4,365.8,2049.4,365.8,2049.4z"/>
					<polygon class="st2" points="306.4,2037.7 291.2,2292.1 353.1,2292.1 345.6,2037.7 					"/>
					<polygon class="st3" points="355.1,2037.7 353.1,2292.1 454.7,2292.1 439.6,2037.7 					"/>
					<polygon class="st4" points="335.3,2037.7 324.8,2260.8 353.1,2292.1 355.1,2037.7 					"/>
					<polygon class="st4" points="324.8,2260.8 291.2,2292.1 353.1,2292.1 					"/>
					<path class="st1" d="M416.6,2049.4c-0.7,0-1.4-0.8-1.4-1.8c0,0,0-0.2,0-0.4c0.1-8.1-0.4-48.8-20.2-53.1
						c-2.2-0.5-5.9,0.7-9.6,5.4c-3.9,5.1-10.1,18-7.9,46.5c0.1,1.1-0.5,2-1.2,2.1c-0.8,0.1-1.5-0.7-1.5-1.7
						c-2.4-30.2,4.5-44.1,8.7-49.7c4.4-5.7,9-7.1,11.9-6.4c22.1,4.8,22.7,48.3,22.6,57l0,0.2
						C418.1,2048.5,417.5,2049.4,416.6,2049.4C416.7,2049.4,416.7,2049.4,416.6,2049.4z"/>
					<polygon class="st5" points="439.6,2037.7 401.8,2037.7 384.5,2292.1 454.7,2292.1 					"/>
				</g>
				<g>
					<path class="st1" d="M464.9,2049.4c-0.7,0-1.4-0.8-1.4-1.8c0,0,0-0.2,0-0.4c0.1-8.1-0.4-48.8-20.2-53.1
						c-2.1-0.5-5.9,0.7-9.6,5.4c-3.9,5.1-10.1,18-7.9,46.5c0.1,1.1-0.5,2-1.2,2.1c-0.8,0.1-1.5-0.7-1.5-1.7
						c-2.4-30.2,4.5-44.1,8.7-49.7c4.4-5.7,9-7.1,11.9-6.4c22.1,4.8,22.7,48.3,22.6,57l0,0.2
						C466.3,2048.5,465.7,2049.4,464.9,2049.4C464.9,2049.4,464.9,2049.4,464.9,2049.4z"/>
					<polygon class="st6" points="405.5,2037.7 390.3,2292.1 452.2,2292.1 444.7,2037.7 					"/>
					<polygon class="st7" points="454.2,2037.7 452.2,2292.1 553.8,2292.1 538.7,2037.7 					"/>
					<polygon class="st8" points="434.4,2037.7 423.9,2260.8 452.2,2292.1 454.2,2037.7 					"/>
					<polygon class="st8" points="423.9,2260.8 390.3,2292.1 452.2,2292.1 					"/>
					<path class="st1" d="M515.7,2049.4c-0.7,0-1.4-0.8-1.4-1.8c0,0,0-0.2,0-0.4c0.1-8.1-0.4-48.8-20.2-53.1
						c-2.2-0.5-5.9,0.7-9.6,5.4c-3.9,5.1-10.1,18-7.9,46.5c0.1,1.1-0.5,2-1.2,2.1c-0.8,0.1-1.5-0.7-1.5-1.7
						c-2.4-30.2,4.5-44.1,8.7-49.7c4.4-5.7,9-7.1,11.9-6.4c22.1,4.8,22.7,48.3,22.6,57l0,0.2
						C517.2,2048.5,516.6,2049.4,515.7,2049.4C515.8,2049.4,515.8,2049.4,515.7,2049.4z"/>
					<polygon class="st6" points="538,2037.8 503,2037.8 488.5,2292.2 553.1,2292.2 					"/>
				</g>
				<g>
					<path class="st1" d="M565.4,2049.4c-0.7,0-1.4-0.8-1.4-1.8c0,0,0-0.2,0-0.4c0.1-8.1-0.4-48.8-20.2-53.1
						c-2.1-0.5-5.9,0.7-9.6,5.4c-3.9,5.1-10.1,18-7.9,46.5c0.1,1.1-0.5,2-1.2,2.1c-0.8,0.1-1.5-0.7-1.5-1.7
						c-2.4-30.2,4.5-44.1,8.7-49.7c4.4-5.7,9-7.1,11.9-6.4c22.1,4.8,22.7,48.3,22.6,57l0,0.2
						C566.8,2048.5,566.2,2049.4,565.4,2049.4C565.4,2049.4,565.4,2049.4,565.4,2049.4z"/>
					<polygon class="st2" points="506.3,2038 490.8,2292.1 553,2292.4 545.5,2038 					"/>
					<polygon class="st3" points="555,2038 553,2292.4 654.6,2292.4 639.6,2038 					"/>
					<polygon class="st4" points="535.2,2038 524.7,2261.2 553,2292.4 555,2038 					"/>
					<polygon class="st4" points="524.4,2260.8 490.8,2292.1 552.6,2292.1 					"/>
					<path class="st1" d="M573.8,2045.8c0.7,0,1.4,0.7,1.5,1.7c0,0,0,0.2,0,0.4c0.3,8.1,2.7,48.7,22.7,51.9c2.2,0.3,5.9-1,9.3-6
						c3.7-5.3,9.3-18.5,5.7-46.9c-0.1-1.1,0.4-2,1.1-2.2c0.8-0.2,1.5,0.6,1.6,1.6c3.8,30-2.4,44.3-6.4,50.1
						c-4.1,5.9-8.7,7.6-11.6,7.1c-22.3-3.6-24.9-46.9-25.2-55.6l0-0.2C572.5,2046.8,573,2045.9,573.8,2045.8
						C573.8,2045.8,573.8,2045.8,573.8,2045.8z"/>
				</g>
			</g>
			<g>
				<path class="st9" d="M218.5,2406h328.8c14.5,0,28-5.6,38.2-15.9c10.2-10.2,15.8-23.8,15.8-38.3c-0.1-29.7-24.3-53.8-54-53.8
					h-350c-3.2,0-5.8,2.6-5.8,5.8s2.6,5.8,5.8,5.8h350c23.4,0,42.4,19,42.5,42.4c0,11.4-4.4,22.1-12.4,30.1
					c-8,8.1-18.7,12.5-30.1,12.5H218.5c-3.2,0-5.8,2.6-5.8,5.8C212.7,2403.4,215.3,2406,218.5,2406z"/>
				<g>
					<circle class="st10" cx="597.6" cy="2463.7" r="40"/>
					
						<ellipse transform="matrix(0.7071 -0.7071 0.7071 0.7071 -1567.0697 1144.1606)" class="st11" cx="597.6" cy="2463.7" rx="24.1" ry="24.1"/>
					<circle class="st10" cx="499.4" cy="2463.7" r="40"/>
					
						<ellipse transform="matrix(0.9871 -0.1602 0.1602 0.9871 -388.1917 111.8148)" class="st11" cx="499.4" cy="2463.7" rx="24.1" ry="24.1"/>
					<circle class="st10" cx="281.3" cy="2463.7" r="40"/>
					
						<ellipse transform="matrix(0.7071 -0.7071 0.7071 0.7071 -1659.7123 920.5016)" class="st11" cx="281.3" cy="2463.7" rx="24.1" ry="24.1"/>
					<circle class="st10" cx="207.6" cy="2463.7" r="40"/>
					
						<ellipse transform="matrix(0.9679 -0.2514 0.2514 0.9679 -612.8051 131.3524)" class="st11" cx="207.6" cy="2463.7" rx="24.1" ry="24.1"/>
				</g>
				<path class="st9" d="M596.2,2452.8l24-12v-35.3h34v40.6l-48,24C591.2,2475.5,584.5,2458.2,596.2,2452.8z"/>
				<path class="st9" d="M498,2452.8l24-12v-35.3h34v40.6l-48,24C493,2475.5,486.4,2458.2,498,2452.8z"/>
				<path class="st9" d="M279.9,2452.8l24-12v-35.3h34v40.6l-48,24C274.9,2475.5,268.2,2458.2,279.9,2452.8z"/>
				<path class="st9" d="M206.2,2452.8l24-12v-35.3h34v40.6l-48,24C201.2,2475.5,194.5,2458.2,206.2,2452.8z"/>
				<g>
					<g>
						<g>
							<path class="st9" d="M363.2,2297.8c-0.6-0.2-1.3-0.5-1.9-1c-0.9-0.7-1.6-1.6-1.7-2.5l-50-271.3c-0.2-1.2,0.5-2,1.8-2
								l411.7-1.9c0.9,0,2.1,0.5,3,1.3c0.9,0.8,1.4,1.8,1.4,2.7l0.7,272.9c0,1-0.7,1.6-1.8,1.6l-362.2,0.2
								C363.9,2298,363.5,2297.9,363.2,2297.8z M316.7,2027l48.8,265.4l356.7,0.1l-0.8-267.6L316.7,2027z"/>
							<polygon class="st9" points="330.8,2117.5 328.9,2114 723.9,2109.7 725.5,2113 							"/>
							<polygon class="st9" points="347.7,2209.7 345.9,2206.3 724.2,2202.6 725.8,2205.8 							"/>
						</g>
						<g>
							<path class="st9" d="M395.4,2296c-0.6-0.2-1.1-0.6-1.1-1.1l-50-271.3c-0.1-0.5,0.3-0.8,0.9-0.6c0.6,0.2,1.2,0.7,1.2,1.2
								l49.9,271.2C396.5,2295.9,396.1,2296.2,395.4,2296C395.5,2296,395.5,2296,395.4,2296z"/>
							<path class="st9" d="M425.5,2296c-0.6-0.2-1.1-0.6-1.1-1.1l-45.4-271.5c-0.1-0.5,0.3-0.7,0.9-0.6c0.6,0.2,1.1,0.7,1.2,1.2
								l45.4,271.4C426.5,2295.9,426.1,2296.1,425.5,2296C425.5,2296,425.5,2296,425.5,2296z"/>
							<path class="st9" d="M455.6,2296c-0.6-0.2-1.1-0.6-1.1-1.1l-40.9-271.7c-0.1-0.5,0.3-0.7,0.9-0.6c0.6,0.2,1.1,0.7,1.2,1.2
								l40.8,271.6C456.6,2295.9,456.2,2296.1,455.6,2296C455.6,2296,455.6,2296,455.6,2296z"/>
							<path class="st9" d="M485.7,2296c-0.6-0.2-1.1-0.7-1.1-1.1L448.3,2023c-0.1-0.5,0.4-0.7,0.9-0.5c0.6,0.2,1.1,0.7,1.2,1.2
								l36.3,271.7C486.7,2295.9,486.3,2296.1,485.7,2296C485.7,2296,485.7,2296,485.7,2296z"/>
							<path class="st9" d="M515.9,2296c-0.6-0.2-1.1-0.7-1.1-1.1l-31.8-272c-0.1-0.5,0.4-0.7,0.9-0.5c0.6,0.2,1.1,0.7,1.1,1.2
								l31.7,271.9C516.9,2295.9,516.5,2296.1,515.9,2296C515.9,2296,515.9,2296,515.9,2296z"/>
							<path class="st9" d="M546.1,2296c-0.6-0.2-1.1-0.7-1.1-1.1l-27.2-272.2c0-0.5,0.4-0.7,1-0.5c0,0,0,0,0,0
								c0.6,0.2,1.1,0.7,1.1,1.2l27.1,272.1C547.1,2295.9,546.6,2296.1,546.1,2296C546.1,2296,546.1,2296,546.1,2296z"/>
							<path class="st9" d="M576.3,2295.9C576.3,2295.9,576.3,2295.9,576.3,2295.9c-0.6-0.2-1-0.7-1.1-1.1l-22.6-272.3
								c0-0.5,0.4-0.7,0.9-0.5c0,0,0,0,0,0c0.6,0.2,1.1,0.7,1.1,1.2l22.6,272.2C577.3,2295.9,576.8,2296.1,576.3,2295.9z"/>
							<path class="st9" d="M606.5,2295.9C606.5,2295.9,606.5,2295.9,606.5,2295.9c-0.6-0.2-1-0.7-1.1-1.1l-18-272.5
								c0-0.5,0.4-0.7,1-0.5c0.6,0.2,1,0.7,1.1,1.2l18,272.4C607.5,2295.9,607.1,2296.1,606.5,2295.9z"/>
							<path class="st9" d="M636.8,2295.9C636.8,2295.9,636.8,2295.9,636.8,2295.9c-0.6-0.2-1-0.7-1.1-1.1l-13.4-272.7
								c0-0.5,0.4-0.7,1-0.5c0.6,0.2,1,0.7,1,1.2l13.3,272.6C637.8,2295.9,637.4,2296.1,636.8,2295.9z"/>
							<path class="st9" d="M667.1,2295.9C667.1,2295.9,667.1,2295.9,667.1,2295.9c-0.6-0.2-1-0.7-1.1-1.1l-8.7-272.8
								c0-0.5,0.4-0.7,1-0.4c0.6,0.2,1,0.7,1,1.2l8.7,272.7C668.1,2295.9,667.7,2296.1,667.1,2295.9z"/>
							<path class="st9" d="M697.5,2295.9C697.5,2295.9,697.5,2295.9,697.5,2295.9c-0.6-0.2-1-0.7-1-1.1l-4.1-273
								c0-0.4,0.4-0.6,1-0.4c0.5,0.2,1,0.7,1,1.2l4.1,272.9C698.4,2295.9,698,2296.1,697.5,2295.9z"/>
						</g>
					</g>
				</g>
				<g>
					<g>
						<g>
							<path class="st9" d="M171.3,2297.9c-0.4-0.2-0.7-0.6-1.1-1.1c-0.6-0.8-1-1.8-1.2-2.8l-49-269.6c-0.2-1.1,0.1-1.8,0.7-1.8
								l192.4-1.7c0.4,0,1,0.4,1.6,1.1c0.5,0.7,1,1.6,1.1,2.4l48,271.7c0.2,1.1-0.1,1.8-0.6,1.8l-191.3,0.1
								C171.7,2298.1,171.5,2298,171.3,2297.9z M123.7,2027.9l48.3,263.9l187.9,0.3L313.3,2026L123.7,2027.9z"/>
							<polygon class="st9" points="138.5,2121.2 137.4,2117.9 328.9,2113.8 330.2,2116.9 							"/>
							<polygon class="st9" points="155.1,2213.3 153.9,2209.8 344.9,2206.1 346.3,2209.4 							"/>
						</g>
						<g>
							<path class="st9" d="M188.1,2295.9c-0.3-0.2-0.6-0.7-0.7-1.2l-51.1-269.7c-0.1-0.4,0.1-0.7,0.4-0.5c0.3,0.1,0.6,0.6,0.7,1
								l51.2,269.8C188.7,2295.7,188.5,2296.1,188.1,2295.9C188.2,2295.9,188.2,2295.9,188.1,2295.9z"/>
							<path class="st9" d="M204,2295.9c-0.3-0.2-0.6-0.7-0.7-1.2l-50.7-269.9c-0.1-0.4,0.1-0.7,0.4-0.5c0.3,0.1,0.6,0.6,0.7,1
								l50.8,269.9C204.5,2295.8,204.4,2296.1,204,2295.9C204,2295.9,204,2295.9,204,2295.9z"/>
							<path class="st9" d="M219.9,2295.9c-0.3-0.2-0.6-0.7-0.7-1.2l-50.4-270.1c-0.1-0.4,0.1-0.7,0.4-0.5c0.3,0.2,0.6,0.6,0.7,1
								l50.5,270.1C220.4,2295.8,220.2,2296.1,219.9,2295.9C219.9,2295.9,219.9,2295.9,219.9,2295.9z"/>
							<path class="st9" d="M235.8,2295.9c-0.3-0.2-0.6-0.7-0.7-1.2l-50-270.2c-0.1-0.4,0.1-0.6,0.4-0.5c0.3,0.1,0.6,0.6,0.7,1.1
								l50.2,270.3C236.3,2295.8,236.1,2296.1,235.8,2295.9C235.8,2295.9,235.8,2295.9,235.8,2295.9z"/>
							<path class="st9" d="M251.7,2295.9c-0.3-0.2-0.6-0.7-0.7-1.2l-49.7-270.4c-0.1-0.4,0.1-0.6,0.4-0.5c0.3,0.2,0.6,0.6,0.7,1.1
								l49.8,270.4C252.2,2295.8,252,2296.1,251.7,2295.9C251.7,2295.9,251.7,2295.9,251.7,2295.9z"/>
							<path class="st9" d="M267.6,2295.9c-0.3-0.2-0.7-0.7-0.7-1.3l-49.4-270.5c-0.1-0.4,0.1-0.6,0.4-0.5c0,0,0,0,0,0
								c0.3,0.2,0.6,0.6,0.7,1.1l49.5,270.6C268.1,2295.8,267.9,2296.1,267.6,2295.9C267.6,2295.9,267.6,2295.9,267.6,2295.9z"/>
							<path class="st9" d="M283.5,2295.9C283.5,2295.9,283.5,2295.9,283.5,2295.9c-0.3-0.2-0.7-0.8-0.8-1.3l-49-270.7
								c-0.1-0.4,0.1-0.6,0.4-0.4c0,0,0,0,0,0c0.3,0.2,0.6,0.6,0.7,1.1l49.1,270.8C284.1,2295.8,283.9,2296.1,283.5,2295.9z"/>
							<path class="st9" d="M299.5,2295.9C299.5,2295.9,299.5,2295.9,299.5,2295.9c-0.3-0.2-0.7-0.8-0.8-1.3l-48.7-270.9
								c-0.1-0.4,0.1-0.6,0.4-0.4c0.3,0.2,0.6,0.6,0.7,1.1l48.8,270.9C300,2295.8,299.8,2296.1,299.5,2295.9z"/>
							<path class="st9" d="M315.5,2295.9C315.5,2295.9,315.5,2295.9,315.5,2295.9c-0.3-0.2-0.7-0.8-0.8-1.3l-48.3-271
								c-0.1-0.4,0.1-0.6,0.4-0.4c0.3,0.2,0.6,0.7,0.7,1.1l48.4,271.1C316,2295.8,315.8,2296.1,315.5,2295.9z"/>
							<path class="st9" d="M331.5,2295.9C331.5,2295.9,331.5,2295.9,331.5,2295.9c-0.3-0.2-0.7-0.8-0.8-1.3l-48-271.2
								c-0.1-0.4,0.1-0.6,0.4-0.4c0.3,0.2,0.6,0.7,0.6,1.1l48.1,271.3C332,2295.9,331.8,2296.1,331.5,2295.9z"/>
							<path class="st9" d="M347.5,2295.9C347.5,2295.9,347.5,2295.9,347.5,2295.9c-0.4-0.2-0.7-0.8-0.8-1.3l-47.6-271.3
								c-0.1-0.4,0.1-0.6,0.4-0.4c0.3,0.2,0.6,0.7,0.6,1.1l47.7,271.4C348,2295.9,347.8,2296.1,347.5,2295.9z"/>
						</g>
					</g>
				</g>
				<g>
					<g>
						<g>
							<path class="st9" d="M538.5,2297.8c-0.3-0.2-0.6-0.6-0.9-1.1c-0.4-0.8-0.7-1.8-0.7-2.8l-4.2-271.9c0-1.1,0.4-1.8,1-1.8
								l191.1-1.6c0.4,0,1,0.4,1.4,1.2c0.4,0.7,0.7,1.6,0.7,2.4l2.8,274c0,1.1-0.4,1.8-0.9,1.8l-189.6,0
								C538.9,2298,538.7,2297.9,538.5,2297.8z M535.8,2025.5l4.4,266.2l186.3,0.3l-2.4-268.4L535.8,2025.5z"/>
							<polygon class="st9" points="535.1,2119.6 534.5,2116.3 725,2112.2 725.8,2115.4 							"/>
							<polygon class="st9" points="536.4,2212.5 535.8,2208.9 725.7,2205.3 726.5,2208.7 							"/>
						</g>
						<g>
							<path class="st9" d="M555.5,2295.8c-0.3-0.2-0.5-0.7-0.5-1.2l-6.2-272.1c0-0.4,0.2-0.7,0.5-0.5c0.3,0.1,0.5,0.6,0.5,1.1
								l6.3,272.1C556.1,2295.6,555.9,2296,555.5,2295.8C555.6,2295.8,555.5,2295.8,555.5,2295.8z"/>
							<path class="st9" d="M571.2,2295.8c-0.3-0.2-0.5-0.7-0.5-1.2l-5.8-272.2c0-0.4,0.2-0.7,0.5-0.5c0.3,0.1,0.5,0.6,0.5,1.1
								l5.9,272.3C571.8,2295.7,571.6,2296,571.2,2295.8C571.3,2295.8,571.3,2295.8,571.2,2295.8z"/>
							<path class="st9" d="M587,2295.8c-0.3-0.2-0.5-0.7-0.5-1.2l-5.5-272.4c0-0.4,0.2-0.7,0.5-0.5c0.3,0.2,0.5,0.6,0.5,1.1
								l5.6,272.4C587.5,2295.7,587.3,2296,587,2295.8C587,2295.8,587,2295.8,587,2295.8z"/>
							<path class="st9" d="M602.7,2295.8c-0.3-0.2-0.5-0.7-0.5-1.3l-5.1-272.6c0-0.4,0.2-0.6,0.5-0.5c0.3,0.1,0.5,0.6,0.5,1.1
								l5.2,272.6C603.3,2295.7,603,2296,602.7,2295.8C602.7,2295.8,602.7,2295.8,602.7,2295.8z"/>
							<path class="st9" d="M618.5,2295.8c-0.3-0.2-0.5-0.7-0.5-1.3l-4.7-272.7c0-0.4,0.2-0.6,0.5-0.5c0.3,0.2,0.5,0.6,0.5,1.1
								l4.8,272.8C619,2295.7,618.8,2296,618.5,2295.8C618.5,2295.8,618.5,2295.8,618.5,2295.8z"/>
							<path class="st9" d="M634.3,2295.8c-0.3-0.2-0.5-0.7-0.5-1.3l-4.4-272.9c0-0.4,0.2-0.6,0.5-0.5c0,0,0,0,0,0
								c0.3,0.2,0.5,0.6,0.5,1.1l4.5,272.9C634.8,2295.8,634.6,2296,634.3,2295.8C634.3,2295.8,634.3,2295.8,634.3,2295.8z"/>
							<path class="st9" d="M650.1,2295.9C650.1,2295.9,650.1,2295.9,650.1,2295.9c-0.3-0.2-0.5-0.8-0.5-1.3l-4-273
								c0-0.4,0.2-0.6,0.5-0.4c0,0,0,0,0,0c0.3,0.2,0.5,0.6,0.5,1.1l4.1,273.1C650.6,2295.8,650.4,2296,650.1,2295.9z"/>
							<path class="st9" d="M665.9,2295.9C665.9,2295.9,665.9,2295.9,665.9,2295.9c-0.3-0.2-0.5-0.8-0.5-1.3l-3.6-273.2
								c0-0.4,0.2-0.6,0.5-0.4c0.3,0.2,0.5,0.7,0.5,1.1l3.7,273.3C666.4,2295.8,666.2,2296,665.9,2295.9z"/>
							<path class="st9" d="M681.8,2295.9C681.8,2295.9,681.8,2295.9,681.8,2295.9c-0.3-0.2-0.5-0.8-0.5-1.3l-3.3-273.4
								c0-0.4,0.2-0.6,0.5-0.4c0.3,0.2,0.5,0.7,0.5,1.1l3.4,273.4C682.3,2295.8,682.1,2296.1,681.8,2295.9z"/>
							<path class="st9" d="M697.7,2295.9C697.6,2295.9,697.6,2295.9,697.7,2295.9c-0.3-0.2-0.5-0.8-0.5-1.3l-2.9-273.5
								c0-0.4,0.2-0.6,0.5-0.4c0.3,0.2,0.5,0.7,0.5,1.1l3,273.6C698.1,2295.8,697.9,2296.1,697.7,2295.9z"/>
							<path class="st9" d="M713.5,2295.9C713.5,2295.9,713.5,2295.9,713.5,2295.9c-0.3-0.2-0.5-0.8-0.6-1.3l-2.5-273.7
								c0-0.4,0.2-0.6,0.5-0.4c0.3,0.2,0.5,0.7,0.5,1.1l2.6,273.8C714,2295.8,713.8,2296.1,713.5,2295.9z"/>
						</g>
					</g>
				</g>
				<path class="st9" d="M728,2298c3.2,0,5.8-2.6,5.8-5.8v-339.5c0-14.8,12.1-26.9,26.9-26.9h81.1c3.2,0,5.8-2.6,5.8-5.8
					c0-3.2-2.6-5.8-5.8-5.8h-81.1c-21.2,0-38.4,17.2-38.4,38.4v339.5C722.2,2295.4,724.8,2298,728,2298z"/>
				<path class="st9" d="M540.2,2298c3.2,0,5.8-2.6,5.8-5.8v-339.5c0-14.8,12.1-26.9,26.9-26.9H654c3.2,0,5.8-2.6,5.8-5.8
					c0-3.2-2.6-5.8-5.8-5.8h-81.1c-21.2,0-38.4,17.2-38.4,38.4v339.5C534.4,2295.4,537,2298,540.2,2298z"/>
				<path class="st9" d="M350.4,2406h328.8c14.5,0,28-5.6,38.2-15.9c10.2-10.2,15.8-23.8,15.8-38.3c-0.1-29.7-24.3-53.8-54-53.8
					h-350c-3.2,0-5.8,2.6-5.8,5.8s2.6,5.8,5.8,5.8h350c23.4,0,42.4,19,42.5,42.4c0,11.4-4.4,22.1-12.4,30.1
					c-8,8.1-18.7,12.5-30.1,12.5H350.4c-3.2,0-5.8,2.6-5.8,5.8C344.7,2403.4,347.3,2406,350.4,2406z"/>
				<path class="st12" d="M648,1930.3h178.1c5.7,0,10.3-4.6,10.3-10.3l0,0c0-5.7-4.6-10.3-10.3-10.3H648c-5.7,0-10.3,4.6-10.3,10.3
					l0,0C637.7,1925.7,642.3,1930.3,648,1930.3z"/>
			</g>
		</g>
		<path class="st13" d="M3436.3,2442.5v40.1c0,2-0.1,4.1-0.4,6c-3,26-25,46.1-51.8,46.1H522.8c-26.8,0-48.8-20.2-51.8-46.1
			c-0.3-2-0.4-4-0.4-6v-40.1H3436.3z"/>
		<path class="st14" d="M3435.9,2488.7c-3,26-25,46.1-51.8,46.1H522.8c-26.8,0-48.8-20.2-51.8-46.1H3435.9z"/>
	</g>
	<path class="st13" d="M3199.9,2442.5H740.2c-33.1,0-59.9-26.8-59.9-59.9V856.2c0-33.1,26.8-59.9,59.9-59.9h2459.7
		c33.1,0,59.9,26.8,59.9,59.9v1526.4C3259.9,2415.7,3233,2442.5,3199.9,2442.5z"/>
	<path class="st15" d="M740.2,2431.4c-26.9,0-48.8-21.9-48.8-48.8V856.2c0-26.9,21.9-48.8,48.8-48.8h2459.7
		c26.9,0,48.8,21.9,48.8,48.8v1526.4c0,26.9-21.9,48.8-48.8,48.8H740.2z"/>
	<g>
		<rect x="767.5" y="870.6" class="st16" width="2407.9" height="1505.5"/>
		<g>
			<defs>
				<rect id="SVGID_1_" x="766.1" y="871.9" width="2407.9" height="1505.5"/>
			</defs>
			<clipPath id="SVGID_2_">
				<use xlink:href="#SVGID_1_"  style="overflow:visible;"/>
			</clipPath>
			<g class="st17">
				<rect x="870" y="1130.7" class="st18" width="2184.8" height="366.6"/>
				<g>
					<g>
						<path class="st16" d="M2601.6,1353.2h-141.2c-2.8,0-5.3-1.8-6.2-4.5l-27-84.2c-0.6-2-0.3-4.1,0.9-5.8c1.2-1.7,3.2-2.7,5.2-2.7
							h195.3c2.1,0,4,1,5.2,2.7c1.2,1.7,1.6,3.8,0.9,5.8l-27,84.2C2606.9,1351.4,2604.4,1353.2,2601.6,1353.2z M2465.2,1340.3h131.7
							l22.9-71.3h-177.5L2465.2,1340.3z"/>
						<path class="st16" d="M2590,1388.9h-120.4c-3.6,0-6.5-2.9-6.5-6.5c0-3.6,2.9-6.5,6.5-6.5h115.7c7.9-0.2,11.4-5.7,12-11.2
							c0.5-5-1.4-10.1-4.7-11.5l40.6-127.3c0.9-2.7,3.3-4.5,6.2-4.5h42c3.6,0,6.5,2.9,6.5,6.5s-2.9,6.5-6.5,6.5h-37.3l-37.3,118.2
							C2616.7,1368.8,2603.2,1388.9,2590,1388.9z"/>
						<circle class="st16" cx="2494.2" cy="1410.5" r="14.9"/>
						<circle class="st16" cx="2569.1" cy="1410.5" r="14.9"/>
						<path class="st16" d="M2534.5,1353.2c-3.6,0-6.5-2.9-6.5-6.5v-84.2c0-3.6,2.9-6.5,6.5-6.5s6.5,2.9,6.5,6.5v84.2
							C2541,1350.3,2538.1,1353.2,2534.5,1353.2z"/>
						<path class="st16" d="M2498.5,1353.2c-3,0-5.6-2-6.3-5l-19.1-84.2c-0.8-3.5,1.4-6.9,4.9-7.7c3.5-0.8,6.9,1.4,7.7,4.9
							l19.1,84.2c0.8,3.5-1.4,6.9-4.9,7.7C2499.5,1353.2,2499,1353.2,2498.5,1353.2z"/>
						<path class="st16" d="M2569.1,1353.2c-0.3,0-0.6,0-0.9-0.1c-3.5-0.5-6-3.8-5.5-7.3l12.3-84.2c0.5-3.5,3.8-6,7.3-5.5
							c3.5,0.5,6,3.8,5.5,7.3l-12.3,84.2C2575,1350.9,2572.2,1353.2,2569.1,1353.2z"/>
						<path class="st16" d="M2615.1,1311.6h-168c-3.6,0-6.5-2.9-6.5-6.5c0-3.6,2.9-6.5,6.5-6.5h168c3.6,0,6.5,2.9,6.5,6.5
							C2621.6,1308.7,2618.7,1311.6,2615.1,1311.6z"/>
					</g>
					<path class="st16" d="M2686.8,1237.4H2649V1218h37.9c4.9,0,8.8,4,8.8,8.8v1.8C2695.7,1233.5,2691.7,1237.4,2686.8,1237.4z"/>
				</g>
				<g>
					<path class="st16" d="M1123.4,1343.7l-8.5,29.5h-28.1l36.6-114.9h35.5l37.1,114.9h-29.1l-9.2-29.5H1123.4z M1153.8,1324.3
						l-7.5-24.4c-2.1-6.8-4.3-15.3-6-22.2h-0.4c-1.8,6.8-3.6,15.5-5.5,22.2l-7.1,24.4H1153.8z"/>
					<path class="st16" d="M1212,1259.8c9.9-1.5,22.9-2.4,36.6-2.4c22.7,0,37.5,3.9,49,12.3c12.4,8.9,20.2,23,20.2,43.3
						c0,22-8.3,37.2-19.9,46.5c-12.6,10.1-31.8,14.8-55.2,14.8c-14,0-24-0.9-30.7-1.7V1259.8z M1239.2,1353.6c2.3,0.5,6,0.5,9.4,0.5
						c24.5,0.2,40.5-12.8,40.5-40.2c0.2-23.9-14.4-36.5-37.6-36.5c-6,0-9.9,0.5-12.3,1V1353.6z"/>
					<path class="st16" d="M1335.6,1259.8c9.9-1.5,22.9-2.4,36.6-2.4c22.7,0,37.5,3.9,49,12.3c12.4,8.9,20.2,23,20.2,43.3
						c0,22-8.3,37.2-19.9,46.5c-12.6,10.1-31.8,14.8-55.2,14.8c-14,0-24-0.9-30.7-1.7V1259.8z M1362.8,1353.6c2.3,0.5,6,0.5,9.4,0.5
						c24.5,0.2,40.5-12.8,40.5-40.2c0.2-23.9-14.4-36.5-37.6-36.5c-6,0-9.9,0.5-12.3,1V1353.6z"/>
					<path class="st16" d="M1547.2,1280.1H1515v-21.8h92v21.8h-32.7v93.1h-27.2V1280.1z"/>
					<path class="st16" d="M1725.8,1314.5c0,37.7-23.8,60.5-58.8,60.5c-35.5,0-56.3-25.7-56.3-58.5c0-34.4,22.9-60.2,58.2-60.2
						C1705.7,1256.4,1725.8,1282.8,1725.8,1314.5z M1639.3,1316.1c0,22.5,11,38.4,29.1,38.4c18.3,0,28.8-16.7,28.8-39
						c0-20.6-10.3-38.4-28.9-38.4C1650,1277,1639.3,1293.7,1639.3,1316.1z"/>
					<path class="st16" d="M1867.4,1370c-5,2.4-16.2,4.9-30.7,4.9c-41.4,0-62.7-24.7-62.7-57.5c0-39.2,29.1-61,65.4-61
						c14,0,24.7,2.7,29.5,5.1l-5.5,20.6c-5.5-2.2-13.1-4.3-22.7-4.3c-21.5,0-38.2,12.4-38.2,38c0,23,14.2,37.5,38.4,37.5
						c8.2,0,17.2-1.7,22.6-3.8L1867.4,1370z"/>
					<path class="st16" d="M1914.8,1343.7l-8.5,29.5h-28.1l36.6-114.9h35.5l37.1,114.9h-29.1l-9.2-29.5H1914.8z M1945.1,1324.3
						l-7.5-24.4c-2.1-6.8-4.3-15.3-6-22.2h-0.4c-1.8,6.8-3.6,15.5-5.5,22.2l-7.1,24.4H1945.1z"/>
					<path class="st16" d="M2003.4,1259.8c8.7-1.4,21.7-2.4,36.1-2.4c17.8,0,30.2,2.6,38.7,9c7.1,5.5,11,13.5,11,24
						c0,14.7-10.8,24.7-21.1,28.3v0.5c8.3,3.2,13,10.9,16,21.5c3.7,13,7.5,28,9.8,32.4h-27.7c-2-3.2-4.8-12.6-8.3-26.8
						c-3.2-14.3-8.3-18.2-19.4-18.4h-8.2v45.2h-26.8V1259.8z M2030.2,1309.3h10.7c13.5,0,21.5-6.5,21.5-16.5
						c0-10.6-7.5-15.9-19.9-16c-6.6,0-10.3,0.5-12.3,0.9V1309.3z"/>
					<path class="st16" d="M2108.7,1259.8c9.9-1.5,22.9-2.4,36.6-2.4c22.7,0,37.5,3.9,49,12.3c12.4,8.9,20.2,23,20.2,43.3
						c0,22-8.3,37.2-19.9,46.5c-12.6,10.1-31.8,14.8-55.2,14.8c-14,0-24-0.9-30.7-1.7V1259.8z M2135.9,1353.6c2.3,0.5,6,0.5,9.4,0.5
						c24.5,0.2,40.5-12.8,40.5-40.2c0.2-23.9-14.4-36.5-37.6-36.5c-6,0-9.9,0.5-12.3,1V1353.6z"/>
				</g>
				<g>
					<polygon class="st19" points="3100.2,2074.5 851.9,2071.6 851.9,2046.2 3100.2,2049.2 					"/>
					<polygon class="st19" points="3100.2,2569.2 851.9,2566.3 851.9,2540.9 3100.2,2543.9 					"/>
					<g>
						<path class="st19" d="M1922.1,1071.4l-987.6-5.8c-35.6-0.2-64.5-29.9-64.5-66.1s28.9-65.5,64.5-65.3l987.6,6.5
							c35.2,0.2,63.7,29.7,63.7,65.7C1985.9,1042.4,1957.3,1071.6,1922.1,1071.4z M934.5,938.5c-33.2-0.2-60.2,27.1-60.2,61
							c0,33.8,27,61.5,60.2,61.7l987.6,5.8c32.8,0.2,59.5-27,59.5-60.6c0-33.6-26.7-61.2-59.5-61.4L934.5,938.5z"/>
						<path class="st19" d="M1922.1,942.8l-102.8-0.7v126.4l102.8,0.6c34,0.2,61.6-27.9,61.6-62.8
							C1983.8,971.5,1956.2,943.1,1922.1,942.8z"/>
						<g>
							<path class="st16" d="M1884.1,1024.1c-8.5-0.1-16.6-3.5-22.6-9.7c-12.5-12.8-12.5-33.6,0-46.3c6-6.1,14.1-9.5,22.6-9.4
								c8.5,0.1,16.6,3.5,22.6,9.7l0,0c12.5,12.8,12.5,33.6,0,46.3C1900.6,1020.8,1892.6,1024.2,1884.1,1024.1z M1884.1,966.6
								c-6.5,0-12.6,2.5-17.1,7.2c-9.5,9.6-9.5,25.4,0,35.1c4.6,4.7,10.7,7.3,17.1,7.4c6.5,0,12.6-2.5,17.1-7.2
								c9.4-9.6,9.4-25.4,0-35.1C1896.6,969.2,1890.5,966.6,1884.1,966.6z"/>
							<polygon class="st16" points="1925.4,1039.8 1901.2,1014.6 1906.7,1009.1 1930.9,1034.3 							"/>
							<path class="st16" d="M1936.2,1045.4L1936.2,1045.4c-2.7,2.8-7.1,2.7-9.8-0.1l-20.3-20.9l9.8-10l20.3,20.9
								C1938.9,1038.1,1938.9,1042.6,1936.2,1045.4z"/>
						</g>
					</g>
					<g>
						<polygon class="st20" points="1268.1,2004.9 901,2003.2 901,1628.2 1268.1,1630.4 						"/>
						<g>
							<path class="st19" d="M1185.2,1912.1l-8.2-2.5c0.2-0.6,14.4-62.7,15.5-86.3c1.4-28.4-7.3-53.6-25.2-72.8
								c-20.4-22-51.4-34.7-85.2-34.9c-33-0.2-61.7,11-80.9,31.6c-17.6,18.9-26,44.8-24.4,75c1.3,23.8,13.2,83.8,13.4,84.4l-8.4,1.7
								c-0.5-2.5-12.2-61.2-13.5-85.7c-1.8-32.6,7.5-60.8,26.7-81.4c20.8-22.3,51.7-34.5,87.1-34.3c36.1,0.2,69.4,13.9,91.4,37.6
								c19.5,21,29,48.4,27.5,79.3C1199.8,1848.4,1185.9,1909.6,1185.2,1912.1z"/>
							<g>
								<g>
									<path class="st19" d="M982.4,1867.8l11.2,60.7c1.2,6.6,7,11.1,13.4,10.6l-15.7-86.2
										C985.1,1854.9,981.2,1861.2,982.4,1867.8z"/>
									<path class="st19" d="M1008.4,1939l24-4.5l-15.9-86.3l-24,4.5c-0.5,0.1-0.9,0.2-1.3,0.3l15.7,86.2
										C1007.4,1939.1,1007.9,1939.1,1008.4,1939z"/>
								</g>
								<g>
									<path class="st21" d="M1038.8,1943L1038.8,1943c-7.3,1.4-14.4-3.6-15.8-11.1l-14.3-78c-1.4-7.5,3.4-14.7,10.8-16h0
										c7.3-1.4,14.4,3.6,15.8,11.1l14.3,78C1050.9,1934.5,1046.1,1941.7,1038.8,1943z"/>
								</g>
							</g>
							<g>
								<g>
									<path class="st19" d="M1185.6,1869.7l-12.6,60.2c-1.4,6.5-7.3,10.8-13.6,10.2l17.8-85.5
										C1183.2,1856.7,1186.9,1863.2,1185.6,1869.7z"/>
									<path class="st19" d="M1157.8,1939.9l-23.8-5.3l18-85.7l23.8,5.3c0.5,0.1,0.9,0.2,1.3,0.4l-17.8,85.5
										C1158.8,1940.1,1158.3,1940,1157.8,1939.9z"/>
								</g>
								<g>
									<path class="st21" d="M1127.4,1942.9L1127.4,1942.9c7.3,1.6,14.5-3.1,16-10.5l16.2-77.4c1.6-7.4-3.1-14.8-10.4-16.4l0,0
										c-7.3-1.6-14.5,3.1-16,10.5l-16.2,77.4C1115.5,1933.9,1120.1,1941.2,1127.4,1942.9z"/>
								</g>
							</g>
						</g>
					</g>
					<g>
						<polygon class="st20" points="1711.6,2006.9 1345.4,2005.2 1345.4,1630.7 1711.6,1632.9 						"/>
					</g>
					<g>
						<polygon class="st20" points="1710.2,2511.9 1343,2511.3 1343,2136.3 1710.2,2137.3 						"/>
					</g>
					<g>
						<polygon class="st20" points="2599.8,2010.1 2232.7,2009 2232.7,1634 2599.8,1635.6 						"/>
						<g>
							<g>
								<path class="st22" d="M2441.1,1693c-1.7-4.9-2.7-10-3.2-15.3l-4.1,0c-0.1,4.7-1.1,9.6-1.8,12.3c-2.9,10.8-11,18.9-20.6,19.4
									c-9.6-0.6-17.7-8.7-20.6-19.5c-0.7-2.6-1.7-7.6-1.8-12.3l-4.1,0c-0.5,5.2-1.5,10.3-3.2,15.2c-4.1,12-11.2,22.1-19.6,30.5
									l6.5,61.5l41,0.2l3.6,0l41,0.2l6.5-61.4C2452.4,1715.2,2445.3,1705,2441.1,1693z"/>
								<path class="st22" d="M2506.8,1946.1c-18.2,18.7-168.1,20-190.8-0.7c10.2-58.1,23.6-114.3,52.6-160.8l85.6,0.3
									C2381.3,1623.3,2495,1883.3,2506.8,1946.1z"/>
							</g>
							<path class="st19" d="M2418.8,1799.6c-34.7-0.1-51.1-15-51.8-15.6c-0.5-0.5-0.6-1.3-0.1-1.8c0.5-0.5,1.3-0.6,1.8-0.1
								c0.2,0.1,16.4,14.8,50,14.9c0,0,0,0,0.1,0c29.9,0.1,34.1-12.2,34.1-12.3c0.2-0.7,0.9-1.1,1.6-0.9c0.7,0.2,1.1,0.9,0.9,1.6
								C2455.3,1786,2451,1799.7,2418.8,1799.6C2418.9,1799.6,2418.9,1799.6,2418.8,1799.6z"/>
							<path class="st19" d="M2415.3,1823.2c-0.8,0-1.8-0.4-2.8-1.6c-6.3-7.8,9.4-22.6,11.2-24.3l2.8-2.6l-0.7,3.8
								c-1,5.4-4.6,23.2-9.7,24.5C2415.9,1823.1,2415.6,1823.2,2415.3,1823.2z M2422.5,1802.2c-4.8,5.2-11.2,13.6-8,17.7
								c0.3,0.3,0.6,0.7,0.9,0.6C2417.6,1820,2420.5,1811.2,2422.5,1802.2z"/>
							<path class="st19" d="M2423.2,1801.4l0.1-3.2c0-0.8,0.5-19.1,7.6-25.3c1.9-1.6,4.1-2.3,6.5-2c2.8,0.4,3.8,1.8,4.2,3
								c2.2,6.7-13,22.2-16,25.2L2423.2,1801.4z M2436.2,1773.5c-1.3,0-2.6,0.5-3.7,1.4c-4.5,3.9-6,14.5-6.5,20
								c6.4-6.8,14.2-16.6,13-20.1c-0.1-0.2-0.3-1-2.1-1.2C2436.7,1773.5,2436.5,1773.5,2436.2,1773.5z"/>
							<path class="st19" d="M2448.8,1820.5c-0.5,0-0.9-0.3-1.1-0.7c-7.5-15.8-23.3-20.2-23.4-20.2c-0.7-0.2-1.1-0.9-0.9-1.6
								c0.2-0.7,0.9-1.1,1.6-0.9c0.7,0.2,17,4.8,25.1,21.6c0.3,0.6,0,1.4-0.6,1.7C2449.2,1820.5,2449,1820.5,2448.8,1820.5z"/>
						</g>
					</g>
					<g>
						<polygon class="st20" points="1267.8,3015.8 901.6,3015.7 901.6,2641.2 1267.8,2641.7 						"/>
						<g>
							<g>
								<path class="st22" d="M1119,2741.2c-1.9-5.6-3.1-11.5-3.7-17.5l-4.7,0c-0.4,47.3-51,47.1-51.3-0.1l-4.7,0
									c-1.6,20-12.5,39.1-26.1,52.5l7.5,70.5c25.5,0,72.5,0.1,98,0.1l7.5-70.5C1131.9,2766.7,1123.8,2755,1119,2741.2z"/>
								<path class="st22" d="M1161.1,2902.6c-7.7-20.7-16.6-39.6-27.1-55.8l-98.1-0.1c-10.9,17.5-19.8,36.2-27.4,55.8
									C1030.5,2925.4,1141.5,2929.2,1161.1,2902.6z"/>
							</g>
							<path class="st19" d="M1093.5,2863.6c-39,0.4-67.1-19.7-57.3-19.9c0.1,0.2,19,17,57.4,16.9c37.8-0.3,36.3-14.4,40.9-15.3
								C1137.5,2848.3,1130.8,2862.9,1093.5,2863.6z"/>
							<path class="st19" d="M1089.5,2890.7c-15.4-7,9.6-29.9,12.8-32.6C1100.5,2865.8,1097.9,2888.7,1089.5,2890.7z M1097.7,2866.6
								c-5.6,6.1-14.2,17.1-8.1,21.1C1092,2887,1095.4,2877,1097.7,2866.6z"/>
							<path class="st19" d="M1098.5,2865.7c0.2-2.8-0.2-36.5,16.2-35C1131,2835.7,1102.1,2861.4,1098.5,2865.7z M1113.4,2833.6
								c-9.6,1.1-10.6,17.3-11.6,24.6C1108.7,2850.2,1123.4,2834.8,1113.4,2833.6z"/>
							<path class="st19" d="M1127.8,2887.5c-12.8-21.8-28.5-22-29.2-25.8c2.3-3,20.1,4,30.5,23.6
								C1129.6,2886.3,1128.9,2887.5,1127.8,2887.5z"/>
						</g>
					</g>
					<g>
						<polygon class="st20" points="2590.6,3015.8 2224.4,3015.7 2224.4,2641.2 2590.6,2641.7 						"/>
						<path class="st19" d="M2465.1,2711.9h-115.9c-13.3,55.5,12.7,155.8,21.8,268.4h30.1c0,0-2.9-203.7,6.4-203.7
							s3.7,203.7,3.7,203.7h30.1C2449.9,2881,2480.6,2783.9,2465.1,2711.9z"/>
					</g>
					<g>
						<polygon class="st20" points="3031,3015.8 2664.8,3015.7 2664.8,2641.2 3031,2641.7 						"/>
						<path class="st19" d="M2761.3,2954.9h65.2l56.1-51.8l7.1,49.1h12.5l11.7-55.5l-9.6-34.3l1.9-160.3h-87.3l10.3,170
							c0,0-11.6,40.4-24.1,47.3c-12.5,6.9-27.5,12.9-35.6,19.7C2761.3,2945.8,2761.3,2954.9,2761.3,2954.9z"/>
					</g>
					<g>
						<polygon class="st20" points="3043.3,2006.7 2677.1,2005.5 2677.1,1631 3043.3,1632.6 						"/>
						<g>
							<path class="st23" d="M2818,1728.6c0,0,25.8,8.7,63.5-1c24.2,29.9-18.4,44.1-45,37.6C2809.9,1758.6,2818,1728.6,2818,1728.6z
								"/>
							<path class="st19" d="M2881.5,1727.5c-2.1,8.1-6.3,15.2-14,19.8c-18.1,10.6-41.4-0.8-49.5-18.7c-14.3,1.9-26.8,4.7-35.8,8
								v206l142.2,0.5v-205.9C2911.7,1732.1,2896.8,1729.1,2881.5,1727.5z"/>
							<polygon class="st19" points="2782.2,1736.5 2720.9,1784.8 2761.2,1838.8 2821.2,1793.3 							"/>
							<polygon class="st19" points="2924.8,1737.1 2986.1,1785.8 2945.8,1839.4 2885.8,1793.5 							"/>
						</g>
					</g>
					<g>
						<polygon class="st20" points="1267.2,2511.7 901.9,2510.5 901.9,2136.5 1267.2,2138.1 						"/>
						<g>
							<g>
								<path class="st19" d="M948.6,2413.1l-2.8,0v12.3c0,0,153.1,11.1,213.3,0.7c60.2-10.4,64.4-30.7,64.4-30.7v-12.6l-2.1,0
									L948.6,2413.1z"/>
								<path class="st22" d="M1221.1,2388.8c-15.8,20.9-63.6,27.1-123.5,27.9c-24.7,0.4-51.3-0.2-78.7-1.1
									c-23.3-0.8-47-1.7-70.3-2.5c-2.3-17.5,3.8-50.1,8.6-68c1.5-5.8,3-10.1,3.9-11.8l0.9-0.3c8,11.1,27.6,17.8,39.1,17.6
									c19-0.4,40.3-13.6,34.2-29.6c-1-2.2-1.8-4.2-2.3-5.9c-4.9-15.9,8.5-16,28.4-3.5c35.4,22.6,66.8,30.7,92.2,34.8
									c5.3,0.8,10.2,1.5,15,2.1C1204.2,2352.9,1224.3,2353.1,1221.1,2388.8z"/>
								<path class="st19" d="M1219.1,2388.8c-15.8,20.9-63.6,27.1-123.5,27.9c-1.7-8.8-3.2-31.9,27.6-37.6
									c23.4-4.3,36.7-19.6,43.4-30.8C1202.2,2352.9,1222.3,2353.1,1219.1,2388.8z"/>
								<path class="st19" d="M1016.9,2415.6c-23.3-0.8-47-1.7-70.3-2.5c-2.3-17.5,3.8-50.1,8.6-68
									C975,2352.2,1010.2,2370.8,1016.9,2415.6z"/>
								<path class="st19" d="M1153.6,2346.2c-4.5,7.2-11.5,7.4-18.3,7.4c-60.5-4.2-91.2-28.4-102.4-38.6c-4.9-15.9,8.5-16,28.4-3.5
									C1096.8,2334,1128.2,2342.1,1153.6,2346.2z"/>
							</g>
							<path class="st22" d="M1081.7,2419c-31-0.1-62.1-1.9-87.5-3.3c-22.3-1.3-40-2.3-47.2-1.4l-1.2,0.1l-0.3-2.4l1.2-0.1
								c7.4-0.9,25.1,0.1,47.6,1.4c71.1,4,203.3,11.5,226.1-31l0.6-1.1l2.1,1.2l-0.6,1C1206.8,2412.7,1144.3,2419.2,1081.7,2419z"/>
						</g>
					</g>
					<g>
						<polygon class="st20" points="2155,2008.9 1789.7,2007.2 1789.7,1633.2 2155,1635.3 						"/>
						<g>
							<polygon class="st19" points="2014.2,1944.7 1937.3,1944.3 1937.3,1704.8 2014.2,1705.2 							"/>
							<g>
								<path class="st23" d="M2040.5,1821.5c0,38.5-30.5,69.5-68,69.3c-37.6-0.2-68.1-31.5-68.1-70s30.5-69.5,68.1-69.3
									C2010,1751.7,2040.5,1783,2040.5,1821.5z"/>
								<path class="st19" d="M2027.2,1821.4c0,31-24.5,55.9-54.8,55.8c-30.3-0.2-54.8-25.4-54.8-56.3c0-31,24.5-55.9,54.8-55.8
									C2002.7,1765.2,2027.2,1790.5,2027.2,1821.4z"/>
								<polygon class="st23" points="1917,1790 1908.3,1783.7 1918.6,1768.6 1927.4,1775 								"/>
								
									<rect x="1899.6" y="1821.2" transform="matrix(0.9914 -0.1308 0.1308 0.9914 -223.0287 264.8512)" class="st23" width="10.7" height="18.5"/>
								<polygon class="st23" points="2027.5,1790.2 2036.3,1784.1 2026.1,1768.8 2017.3,1774.9 								"/>
								<polygon class="st23" points="2033.3,1840.3 2043.8,1841.8 2046.2,1823.6 2035.7,1822.1 								"/>
								<path class="st23" d="M1972.6,1824.2l-26.7-14.2c-1.3-0.7-1.7-2.2-1.1-3.5c0.6-1.3,2.2-1.8,3.4-1.1l24.1,12.9l34-22.1
									c1.2-0.8,2.8-0.4,3.5,0.8c0.8,1.2,0.4,2.8-0.8,3.6L1972.6,1824.2z"/>
							</g>
						</g>
					</g>
					<g>
						<polygon class="st20" points="2151.8,2511.7 1785.6,2511 1785.6,2136.5 2151.8,2137.6 						"/>
						<g>
							<path class="st19" d="M1837,2381.9c12.7,4,31,7.2,51.9,9.5c34.3,3.8,75.8,5.2,111.3,3.7c35.1-1.4,64.3-5.5,75.4-12.7
								c0,0,23.4-142-114.5-145.5c-1.5,0-3.1-0.1-4.7-0.1C1813.1,2236.5,1837,2381.9,1837,2381.9z"/>
							<path class="st23" d="M1888.9,2391.4c34.3,3.8,75.8,5.2,111.3,3.7c19.5-128.9-36.2-156.8-39.2-158.2c-0.1,0-0.1-0.1-0.1-0.1
								l-4.6,0C1883.7,2278.2,1887.2,2370.8,1888.9,2391.4z"/>
							<path class="st24" d="M2060.7,2387.8c0,0-39,66.2-220.1,50.9c-77.5-6.6-3.5-56.8-3.5-56.8
								C1885.8,2393.9,1979.8,2399.6,2060.7,2387.8z"/>
						</g>
					</g>
					<g>
						<polygon class="st20" points="2151.8,3011.7 1785.6,3011 1785.6,2636.5 2151.8,2637.6 						"/>
						<path class="st19" d="M1905.1,2751l129.5,3.5l16.3,79.3l59.9,54.8c-15.1,22.5-237,24.2-275.9,0l51.2-53.2L1905.1,2751z"/>
						<polygon class="st22" points="1889.9,2818.5 1886.1,2835.4 2050.9,2833.7 2047.8,2818.5 						"/>
					</g>
					<g>
						<polygon class="st20" points="2593.3,2511.4 2228.1,2510.8 2228.1,2136.7 2593.3,2137.8 						"/>
						<g>
							<g>
								<path class="st19" d="M2365.9,2268.8l83.4,0.2c47.5,0.1,87.1,39.2,86.8,87.8c-0.1,19.4-6.2,36.6-20.8,45.6l-220-0.4
									c-13.9-6.6-19.3-29.7-15.6-57.3C2285.7,2300.9,2322.8,2268.7,2365.9,2268.8z"/>
								<path class="st19" d="M2378.5,2271.1l0.1-0.7c1.4-16.4,15.3-29.3,31.6-29.3c16.4,0,30.3,13,31.6,29.4l0.1,0.7l10.8,0
									l-0.1-1.7c-1.8-22.1-20.4-39.4-42.3-39.5c-21.9-0.1-40.5,17.2-42.3,39.3l-0.1,1.7L2378.5,2271.1z"/>
							</g>
							<polygon class="st22" points="2400.1,2402.1 2379.5,2402.1 2379.5,2319.5 2400.1,2319.6 							"/>
							<polygon class="st22" points="2441,2402.2 2420.3,2402.2 2420.3,2319.6 2441,2319.7 							"/>
						</g>
					</g>
					<g>
						<polygon class="st20" points="3036.3,2511.6 2669.2,2511.5 2669.2,2136.5 3036.3,2137.1 						"/>
						<g>
							<path class="st19" d="M2970.1,2415.2c-32.2,27.7-199.3,27.6-226.7-0.1c-5.1-53.4,0.4-100.6,15.2-142.3
								c65.6-13.7,131-13.1,196.4,0.2C2970.2,2310.9,2976.8,2372.7,2970.1,2415.2z"/>
							<path class="st24" d="M2758.6,2272.7c0,0,13,80,104,79.5c91-0.5,92.4-79.3,92.4-79.3S2861.7,2249.5,2758.6,2272.7z"/>
							<path class="st23" d="M2856.8,2380.5L2856.8,2380.5c-4.9,0-8.9-4.1-8.9-9.1v-32.8c0-5,4-9.1,8.9-9.1l0,0
								c4.9,0,8.9,4.1,8.9,9.1v32.8C2865.6,2376.5,2861.6,2380.5,2856.8,2380.5z"/>
						</g>
					</g>
					<polygon class="st19" points="3100.2,3074.1 851.9,3071.2 851.9,3045.9 3100.2,3048.9 					"/>
					<g>
						<polygon class="st20" points="1705.5,3015.6 1340.2,3015.5 1340.2,2641.5 1705.5,2642 						"/>
						<g>
							<g>
								<path class="st19" d="M1498.7,2737c0,0,23.4,7.8,57.8-1.1C1588.5,2778.1,1482.3,2788.8,1498.7,2737z"/>
								<path class="st22" d="M1556.4,2735.9c-6,29.9-47.8,26.7-57.8,1.1c-13,1.7-24.4,4.3-32.6,7.4v187.7l129.4,0.1v-187.6
									C1583.9,2740,1570.4,2737.3,1556.4,2735.9z"/>
								<polygon class="st22" points="1466.1,2744.4 1410.3,2788.5 1447,2837.6 1501.6,2796 								"/>
								<polygon class="st22" points="1595.9,2744.5 1651.7,2788.7 1615,2837.7 1560.4,2796.1 								"/>
							</g>
							<rect x="1537.6" y="2798.9" class="st19" width="37.9" height="38.8"/>
						</g>
					</g>
				</g>
			</g>
		</g>
	</g>
	<g>
		<path class="st16" d="M585.8,1697.6c-24-61.4-58.4-60.5-322.3-60.5c-24.3,0-43.9-19.7-43.9-43.9v-74.6c0-24.3,19.7-43.9,43.9-43.9
			h278.3c24.3,0,43.9,19.7,43.9,43.9L585.8,1697.6z"/>
		
			<ellipse transform="matrix(0.1854 -0.9827 0.9827 0.1854 -1297.5826 1540.131)" class="st13" cx="280.2" cy="1552.7" rx="14.9" ry="14.9"/>
		
			<ellipse transform="matrix(0.7847 -0.6198 0.6198 0.7847 -885.3589 556.2211)" class="st13" cx="358.1" cy="1552.7" rx="14.9" ry="14.9"/>
		
			<ellipse transform="matrix(0.7071 -0.7071 0.7071 0.7071 -970.2294 763.0862)" class="st13" cx="436" cy="1552.7" rx="14.9" ry="14.9"/>
		
			<ellipse transform="matrix(0.7071 -0.7071 0.7071 0.7071 -947.4043 818.1909)" class="st13" cx="513.9" cy="1552.7" rx="14.9" ry="14.9"/>
	</g>
	<g>
		<circle class="st16" cx="3522.7" cy="1769" r="32.8"/>
		<g>
			<path class="st16" d="M3638.9,1666.1l13.9-15.9c-78.2-78.5-200-75.6-274.3,6.5l14.7,15.2
				C3459.8,1598.6,3568.8,1596,3638.9,1666.1z"/>
			<path class="st16" d="M3609.9,1699.1l13.9-15.9c-61.3-61.1-156.5-58.9-214.9,5l14.7,15.2
				C3474.4,1648.3,3556.7,1646.3,3609.9,1699.1z"/>
			<path class="st16" d="M3581.9,1731l13.9-15.9c-45-44.3-114.4-42.7-157.3,3.6l14.7,15.2C3488.5,1696.3,3545,1695,3581.9,1731z"/>
		</g>
	</g>
	<g>
		<path class="st0" d="M2517.9,157.8c0.1-1.7,0.2-3.4,0.2-5.1c0-35.8-28.2-64.8-62.9-64.8c-34.7,0-62.9,29-62.9,64.8
			c0,1.7,0.1,3.4,0.2,5.1H2517.9z"/>
		<path class="st0" d="M2724.5,157.8c0.1-1.7,0.2-3.4,0.2-5.1c0-35.8-28.2-64.8-62.9-64.8s-62.9,29-62.9,64.8c0,1.7,0.1,3.4,0.2,5.1
			H2724.5z"/>
		<path class="st0" d="M2778,157.8c0.2-1.7,0.3-3.4,0.3-5.1c0-25.3-19.9-45.9-44.5-45.9c-24.6,0-44.5,20.5-44.5,45.9
			c0,1.7,0.1,3.4,0.3,5.1H2778z"/>
		<path class="st0" d="M2652.1,157.8c0.5-4,0.7-8,0.7-12.1c0-52.5-41.2-95-92.1-95c-50.9,0-92.1,42.5-92.1,95
			c0,4.1,0.3,8.1,0.7,12.1H2652.1z"/>
	</g>
	<g>
		<path class="st0" d="M998.8,610.5c0.1-1.3,0.2-2.5,0.2-3.8c0-26.9-21.8-48.6-48.6-48.6c-26.9,0-48.6,21.8-48.6,48.6
			c0,1.3,0.1,2.6,0.2,3.8H998.8z"/>
		<path class="st0" d="M1158.6,610.5c0.1-1.3,0.2-2.5,0.2-3.8c0-26.9-21.8-48.6-48.6-48.6c-26.9,0-48.6,21.8-48.6,48.6
			c0,1.3,0.1,2.6,0.2,3.8H1158.6z"/>
		<path class="st0" d="M1200,610.5c0.1-1.3,0.2-2.5,0.2-3.8c0-19-15.4-34.4-34.4-34.4s-34.4,15.4-34.4,34.4c0,1.3,0.1,2.6,0.2,3.8
			H1200z"/>
		<path class="st0" d="M1102.7,610.5c0.4-3,0.6-6,0.6-9.1c0-39.4-31.9-71.3-71.3-71.3c-39.4,0-71.3,31.9-71.3,71.3
			c0,3.1,0.2,6.1,0.6,9.1H1102.7z"/>
	</g>
	<g>
		<path class="st25" d="M1525.1,1690.1c0,0-28-7.8-59.1,12.7c-26.3,17.3-60.5,86.2-72.2,104.7c-11.7,18.5-47.4,109.5-47.4,109.5
			l23.4,14.6l66.9-99.4l60.3-69.7C1497,1762.6,1572.5,1713.4,1525.1,1690.1z"/>
		<g>
			<g>
				<path class="st1" d="M1330.1,1984.6c-0.2,0-0.3-0.1-0.4-0.2c-0.3-0.2-0.3-0.6,0-0.9c0.2-0.3,24.1-26.4,22.6-40.9
					c-0.3-2.8-1.5-5-3.7-6.6c-14.8-10.7-51.2,28.7-51.6,29.1c-0.2,0.3-0.6,0.3-0.9,0c-0.3-0.2-0.3-0.6,0-0.9
					c1.5-1.7,37.6-40.7,53.3-29.3c2.5,1.8,3.9,4.3,4.2,7.5c1.5,15.1-22,40.8-23,41.9C1330.5,1984.5,1330.3,1984.6,1330.1,1984.6z"/>
				<path class="st1" d="M1317.3,1976.1c-0.2,0-0.4-0.1-0.5-0.3c-0.2-0.3-0.1-0.7,0.1-0.9c0.3-0.2,30.7-22.7,30.7-36
					c0-2.4-1-4.3-3.1-5.8c-14.9-10.8-60,23.2-60.4,23.5c-0.3,0.2-0.7,0.2-0.9-0.1c-0.2-0.3-0.2-0.7,0.1-0.9
					c1.9-1.4,46.3-34.9,61.9-23.5c2.4,1.7,3.6,4,3.6,6.8c0,13.9-29.9,36-31.2,37C1317.6,1976.1,1317.4,1976.1,1317.3,1976.1z"/>
				<g>
					<polygon class="st26" points="1256.3,1936.4 1129.2,2094.4 1175.2,2123.3 1280.5,1951.6 					"/>
					<polygon class="st27" points="1286.1,1955.2 1174.9,2123.2 1250.4,2170.8 1347.4,1993.8 					"/>
					<polygon class="st28" points="1274.2,1947.6 1170.6,2086.1 1175.2,2123.3 1286.3,1955.3 					"/>
				</g>
				<polygon class="st26" points="1170.6,2086.1 1129,2094.2 1174.9,2123.2 				"/>
			</g>
			<g>
				<g>
					<polygon class="st29" points="1304.5,1969.8 1199.2,2148 1249.9,2170.6 1331.1,1981.7 					"/>
					<polygon class="st30" points="1337.4,1984.4 1249.6,2170.4 1332.8,2207.5 1404.9,2014.5 					"/>
					<polygon class="st31" points="1324.2,1978.6 1239.8,2133.6 1249.9,2170.6 1337.6,1984.5 					"/>
				</g>
				<polygon class="st29" points="1239.8,2133.6 1198.9,2147.9 1249.6,2170.4 				"/>
			</g>
		</g>
		<path class="st32" d="M1370.8,1930.1l-8,14.8c0,0,7.3,6.9,4.3,11.7c-8.6,10.1-30.8,7.1-35.5,3.2s-9.3-14.2-6-22.1
			c3.3-7.9,20.8-20.7,20.8-20.7S1368.2,1921.3,1370.8,1930.1z"/>
		<path class="st32" d="M1343.9,1921.7l14.3-34.1c4.6,9.5,25,17.1,30.2,16.4l-19.9,30.3L1343.9,1921.7z"/>
		<path class="st33" d="M1511.5,1862.1c-6.6,5.5-37.1,37-48.7,97.7c-3.5,18.2-23.1,365.9-29.4,450.4h37.7
			c39-180.2,73.7-318.3,117.4-519.2C1596,1845.5,1543.5,1820.6,1511.5,1862.1z"/>
		<path class="st33" d="M1543.8,1878.1c-5.3,10.3,6.2,73.1,6.2,113.4c0,48.8-1,437-1,437l32,0c21.3-141.2,55-316.2,62.3-433.2
			c4.2-66.3-1.2-76.7-19.5-144.3C1610.3,1812,1562.8,1837.2,1543.8,1878.1z"/>
		<polygon class="st32" points="1577.4,1722.7 1513.9,1724.6 1524.7,1632.9 1575.4,1631.3 		"/>
		<g>
			<path class="st34" d="M1852,1733.8c6.3-10.6-2.4-26.2-3.1-27.4l-30.8,12.7c-4.9,2.9,0.3,16.7,8.5,20.5
				C1826.6,1739.6,1845.5,1743.3,1852,1733.8z"/>
			<path class="st34" d="M1849.7,1717.2c12.6-7.4,21.6-15.2,20.3-17.5c-1.3-2.3-12.5,1.6-25.3,8.8
				C1835.8,1713.7,1843.2,1720.2,1849.7,1717.2z"/>
		</g>
		<path class="st16" d="M1434.4,2396.2c3.4-4.4,26.1,8.8,39.2,0c0,0,59.8,15.6,37,32.3c-30.5,0-78.6,0-78.6,0
			C1427.2,2423.3,1426.1,2413.6,1434.4,2396.2z"/>
		<path class="st16" d="M1548.6,2396.2c3.4-4.4,26.1,8.8,39.2,0c0,0,59.8,15.6,37,32.3c-30.5,0-78.6,0-78.6,0
			C1541.3,2423.3,1540.2,2413.6,1548.6,2396.2z"/>
		<g>
			<g>
				<path class="st32" d="M1633.9,1588c-0.4,43-16.6,64.4-47.8,63.5c-31.2-0.9-66.2-34-65.2-66.9c1-32.9,27.1-58.8,58.3-57.9
					S1634.2,1555,1633.9,1588z"/>
			</g>
			<path class="st35" d="M1572,1506.3c0,0,62.1,4.6,66.1,51.9c5.9,41.5-24.4,10.3-37.7,37.8c-15.3,31.4-1.1,55,17.6,61.8
				c-17.3,23-113.1,19.7-136.8-21.9C1465.6,1583.9,1491.4,1507.1,1572,1506.3z"/>
			<path class="st32" d="M1613.4,1594.5c0.4,6.4-4.5,11.9-10.9,12.2c-6.4,0.4-11.9-4.5-12.2-10.9c-0.4-6.4,4.5-11.9,10.9-12.2
				C1607.6,1583.2,1613.1,1588.1,1613.4,1594.5z"/>
		</g>
		<path class="st34" d="M1830.9,1733.3l-8.1-15.8c-8.7,2.7-22.7,6.9-38.1,11.6l10.6,25.6C1809.9,1746.3,1822.5,1738.6,1830.9,1733.3
			z"/>
		<path class="st25" d="M1637.1,1762c-0.3,12-12.1,100.1-12.1,100.1s-64.4,0.8-113.4,0c-22.4-93.7-55.4-148.8-0.3-180
			C1589,1652.9,1644.5,1691.9,1637.1,1762z"/>
		<g>
			<path class="st36" d="M1572,1948.9c-0.1-0.6-10-62.5-12.3-126.1c-3.1-85.9,8.4-134,34.3-142.8c14.7-5,27.6-4.1,38.1,2.6
				c31.9,20.4,39.4,90.2,46.6,157.7c3.4,32.1,6.7,62.4,12.4,86.3l-2.4,0.6c-5.8-24-9-54.4-12.5-86.6
				c-7.2-66.9-14.6-136.1-45.5-155.9c-10-6.4-21.8-7.2-36-2.4c-59.3,20.2-20.7,263.7-20.3,266.2L1572,1948.9z"/>
			<g>
				<path class="st37" d="M1578.2,2032.2c22.3,13,123.3-4.7,136.9-24c-2.5-32.1-10.7-59.4-23.9-82.6c-41-1.2-80.5,6.1-118.6,20.8
					C1567.4,1970.5,1569.8,2007.7,1578.2,2032.2z"/>
				<path class="st38" d="M1691.2,1925.6c0,0,0.5,48.7-54.5,58s-64.1-37.2-64.1-37.2S1626.6,1922.7,1691.2,1925.6z"/>
				<path class="st39" d="M1643.1,1999.7L1643.1,1999.7c2.9-0.5,4.9-3.4,4.4-6.3l-3.4-19.4c-0.5-2.9-3.4-4.9-6.3-4.4l0,0
					c-2.9,0.5-4.9,3.4-4.4,6.3l3.4,19.4C1637.3,1998.3,1640.2,2000.3,1643.1,1999.7z"/>
			</g>
		</g>
		<path class="st32" d="M1589.8,1676.9c-57,18.8-78.7,5.2-78.7,5.2C1523.5,1672.6,1569.2,1665.8,1589.8,1676.9z"/>
		<path class="st1" d="M1392.3,2009.5c-0.3,0-0.6-0.2-0.6-0.5c-0.1-0.5-7.8-46.4-27-61.7c-0.3-0.2-0.3-0.6-0.1-0.9
			c0.2-0.3,0.6-0.3,0.9-0.1c19.5,15.6,27.1,60.6,27.4,62.5c0.1,0.3-0.2,0.7-0.5,0.7C1392.4,2009.5,1392.3,2009.5,1392.3,2009.5z"/>
		<path class="st1" d="M1353,1993.4c-0.1,0-0.2,0-0.4-0.1c-0.2-0.1-21-14.7-26-39.9c-0.1-0.3,0.2-0.7,0.5-0.7
			c0.3-0.1,0.7,0.2,0.7,0.5c4.9,24.7,25.3,39,25.5,39.1c0.3,0.2,0.4,0.6,0.2,0.9C1353.4,1993.3,1353.2,1993.4,1353,1993.4z"/>
		<path class="st25" d="M1710.6,1751.7c15.8-4.8,47.2-14.4,74.1-22.6l10.6,25.6c-33.9,19.4-54.5,30.1-78.6,35.4
			c-6.9,1.7-32.5,0-37-4.1l31-34.7L1710.6,1751.7z"/>
		<path class="st25" d="M1577.4,1713.3c13.8-36.8,51.1-23.3,51.1-23.3l82.2,61.3c0,0-7.1,41.6-26.5,36.1c-37.9-10.8-80-33.4-80-33.4
			S1564.7,1746.9,1577.4,1713.3z"/>
	</g>
	<g>
		<path class="st40" d="M2260.3,795.4l-38.8-123.8c-75.4,14.6-103.6,31.9-166.1,38.7l8.9,85H2260.3z"/>
		<path class="st40" d="M2140.8,682.4c0,0-132,27.3-180.7,45.2c-27.9,10.3-34.9,33.4-24.1,51.2c16,26.3,205.3,7.7,205.3,7.7
			C2206.6,768.2,2172,681.3,2140.8,682.4z"/>
		<path class="st32" d="M1936,768.9c0,0-3.3,32,55.7,37.2c67.2,5.8,124,4.1,124,4.1l6-25.4c0,0-119.3-40.5-148.5-42.2
			C1938.5,740.5,1936,768.9,1936,768.9z"/>
		<path class="st40" d="M2068.6,733.8c0,0-26.6-40.4,39.4-71.8c66-31.3,110.3,0,99.3,37.9c-11,37.9-49.9,63.2-49.9,63.2
			S2091.7,763.5,2068.6,733.8z"/>
		<path class="st32" d="M2147.8,723.2c-38.6,1.2-53.9-40.8-53.9-40.8l-4-25.6l-3.3-21.3l54.7-15.2l15.6,37.2c0,0,3.4,8.9,4.9,20.6
			C2163.5,693,2162.5,712.2,2147.8,723.2z"/>
		<path class="st41" d="M2161.6,678.1c-30.2,2-55.4-10.2-71.8-21.4l-3.3-21.3l54.7-15.2l15.6,37.2
			C2156.8,657.5,2160.1,666.5,2161.6,678.1z"/>
		<g>
			<path class="st40" d="M2314.6,636.8l-0.1,1.1l-152.9,40.2l61.9,94.8c0,0,121.9-73.3,139.3-110.7c0.6-1.3,1.1-3,1.6-4.9
				L2314.6,636.8z"/>
			<path class="st32" d="M2349.9,498.1l-28.9,1.8l-6.5,137l49.9,20.5C2372.7,623.2,2349.9,498.1,2349.9,498.1z"/>
		</g>
		<g>
			<path class="st33" d="M2126,522.2c0,0,9.5-4.2,18.1,4.2c8.6,8.4,2.4,19.6,2.4,19.6s15.4,6.7,6.4,21.7
				C2134.5,598.3,2091.9,540.1,2126,522.2z"/>
			<path class="st32" d="M2150.8,571.7c13.4,36.5,14.8,79.7-6.9,86.1c-36.8,10.9-84.8-1.3-99.5-43.1c-14.7-41.7-2.1-76.5,31.5-88.3
				C2109.5,514.6,2135.6,530.1,2150.8,571.7z"/>
			<path class="st33" d="M2132.9,525.4c-1.9,9.6-15.3,33.9-77.5,48.2c-3.1,11.3-2.1,24,1.5,36.1c-5,2.4-8.5,1.6-8.5,7.5
				c0,8.2,6.7,20.8,14.9,20.8c2.1,0,4.1-0.4,5.9-1.2c6.5,10.5,14.2,19,21.2,23.6c-15.7,0-28.8-3.5-39.4-9.5
				c-17.4,1.1-31.2-15.9-26-27.8c-14.9-1.1-18.7-26.8-6.6-37.5c-7.8-9.6-9.4-36.7,14.1-39c-8.8-10,4.6-31.9,27-24.9
				c-0.8-17.8,29.5-31,40.5-15.4C2113,491.7,2136.1,506.9,2132.9,525.4z"/>
		</g>
		<path class="st32" d="M2120.3,784.3l37.7-7.9c0,0,24.3,11.6,31.8,26.7c-5.5,6.2-20.6-6.9-20.6-6.9s1.5,25.2-2.2,30
			c-3.7,4.8-22.2,8-28.3,2.8c-6.1-5.2,4.5-11.4,4.5-11.4l-27.6-7.5C2115.7,810.2,2102.9,791,2120.3,784.3z"/>
		<g>
			<path class="st33" d="M2313.8,330.5c-22.4-30.6-65.4-37.3-96-14.9c-30.6,22.4-37.3,65.4-15,96c22.4,30.6,65.4,37.4,96,15
				C2329.5,404.1,2336.2,361.1,2313.8,330.5z M2217.6,400.8c-16.4-22.5-11.5-54.1,11-70.5c22.5-16.4,54.1-11.5,70.5,11
				c16.4,22.5,11.5,54.1-11,70.5C2265.6,428.2,2234,423.3,2217.6,400.8z"/>
			
				<rect x="2277.6" y="435.5" transform="matrix(0.5899 0.8075 -0.8075 0.5899 1309.9622 -1685.116)" class="st33" width="72.5" height="23"/>
			<path class="st33" d="M2340.9,512.9l-36.2-49.5c-5-6.9-3.5-16.5,3.4-21.5l2.9-2.1c6.9-5,16.5-3.5,21.5,3.4l36.2,49.5
				c5,6.9,3.5,16.5-3.4,21.5l-2.9,2.1C2355.5,521.3,2345.9,519.8,2340.9,512.9z"/>
		</g>
		<path class="st32" d="M2319.6,512.4c-1-0.4-13.3-18.1-8.5-34.8c4.8-16.6,14.5-19.9,14.5-19.9s10.3,4.7,4.1,15.3
			c-6.1,10.6,26.5,32.3,8.7,42.2C2327.8,521.1,2319.6,512.4,2319.6,512.4z"/>
		<path class="st32" d="M2346.2,456.9c0,0-3.8-0.6-2.5,5.4c1.3,6,18.1,31.7,24.9,30.3C2375.4,491.2,2362,459.8,2346.2,456.9z"/>
		<path class="st32" d="M2140.9,569.3c0-0.6-0.5-1-1-1c-0.6,0-1,0.5-1,1c0,0.6,0.5,1,1,1C2140.4,570.4,2140.9,569.9,2140.9,569.3z"
			/>
	</g>
	<path class="st16" d="M2296.7,403.7c4.6-5.4,8.2-11.9,10.2-19.2c7.5-26.9-8.3-54.7-35.1-62.1c-12.7-3.5-25.6-1.9-36.5,3.7
		L2296.7,403.7z"/>
	<g>
		<g>
			<path class="st42" d="M3379.6,1907.2c-20.3,11.8-94.6,124.1-133.6,267.8c45.9,56.4,115.8,28.5,115.8,28.5l60.3-249.8
				C3422.1,1953.7,3423.4,1903.8,3379.6,1907.2z"/>
			<path class="st43" d="M3334.5,2317.1c0,0,226.2-117.6,271.9-86.6c24.3,16.5,39.5,282,39.5,282l-45.5,0.3l-44.9-185.6L3395.3,2438
				C3292.7,2480.5,3262.2,2360.1,3334.5,2317.1z"/>
			<path class="st16" d="M3599.9,2507.7l45.4-3c0,0,88.8-2.9,79.5,52c-44-0.3-122.8,1-122.8,1L3599.9,2507.7z"/>
			<path class="st43" d="M3675.5,2522.5L3675.5,2522.5c-0.9-0.6-1.1-1.9-0.5-2.8l8.5-12.1c0.6-0.9,1.9-1.1,2.8-0.5l0,0
				c0.9,0.6,1.1,1.9,0.5,2.8l-8.5,12.1C3677.6,2522.9,3676.3,2523.2,3675.5,2522.5z"/>
			<path class="st43" d="M3664.7,2519L3664.7,2519c-0.9-0.6-1.1-1.9-0.5-2.8l8.5-12.1c0.6-0.9,1.9-1.1,2.8-0.5l0,0
				c0.9,0.6,1.1,1.9,0.5,2.8l-8.5,12.1C3666.8,2519.4,3665.6,2519.6,3664.7,2519z"/>
			<path class="st43" d="M3652.3,2517.4L3652.3,2517.4c-0.9-0.6-1.1-1.9-0.5-2.8l8.5-12.1c0.6-0.9,1.9-1.1,2.8-0.5l0,0
				c0.9,0.6,1.1,1.9,0.5,2.8l-8.5,12.1C3654.4,2517.8,3653.2,2518,3652.3,2517.4z"/>
			<path class="st43" d="M3299.3,2271.5c-1.4,1.8-82.3,171.4,54.6,175.5S3380.8,2170.8,3299.3,2271.5z"/>
			<polygon class="st44" points="3426.9,2020.8 3402.4,2098.9 3347.4,2063.6 3393.2,2001 			"/>
			<g>
				<path class="st44" d="M3478.9,1925.5c0,0,7.3,19.1,5.4,51.3c2.1,8.9,5.6,15,4.4,19.4c-1.2,4.4-5.3,3.7-10.6,5.6
					c-5,17.9-23.8,55.8-63.2,35.3c-55.6-28.9-49.2-120.5-4.3-133.7C3451.4,1891.4,3471.3,1910.8,3478.9,1925.5z"/>
				<path class="st42" d="M3484.9,1942.8c0,0-71.1,6.7-98.3,67.2c-37.8-24.5-37.9-91.9,9.8-114.2
					C3460.6,1869.5,3485.7,1923.9,3484.9,1942.8z"/>
			</g>
			<path class="st16" d="M3273.6,2376.5c0.4,3,3.9,4.5,6.4,2.8l108.4-75.3l31.9-22.2c2.7-1.9,2.2-6.1-1-7.2l0,0
				c-2.3-0.8-3.4-3.4-2.4-5.5c14.4-31.4,35.3-81.4,34.2-104.7c-1.3-28.2-32.3-83.9-36.3-90.8c-0.3-0.5-0.6-0.9-1.1-1.2
				c-4.4-3.4-30.8-23.8-45.5-33.3c-1.2-0.8-2.8-0.9-4.1-0.2c-1.5,0.8-3,1.6-4.5,2.4c-71.6,41.1-35.9,121.7-60.7,224.7
				c-0.1,0.2-0.1,0.5-0.2,0.7C3271.3,2328.2,3271.8,2363.2,3273.6,2376.5z"/>
			<path class="st45" d="M3274.9,2382.8c15.7,7.5,106.6-10.8,113.5-78.8c-10.5-37.3,43.6-157.3,25.6-205.1
				c-10.1-26.8-41.1-51.9-54.3-57.6c-71.7,41.2-35.8,121.9-60.8,225C3262.5,2347.6,3274.9,2382.8,3274.9,2382.8z"/>
			<path class="st44" d="M3420.5,1974c3.5,6.9,1,15.5-5.4,19.1c-6.4,3.7-14.5,1-17.9-5.9c-3.5-6.9-1-15.5,5.4-19.1
				C3409,1964.4,3417.1,1967.1,3420.5,1974z"/>
			<polygon class="st43" points="3727.1,2546.5 3597.7,2547.2 3598.4,2557.9 3727.2,2557.4 			"/>
		</g>
		<g>
			
				<rect x="3564.8" y="1959.6" transform="matrix(-0.8672 -0.4979 0.4979 -0.8672 5666.9014 5515.7173)" class="st15" width="8.1" height="85.3"/>
			<path class="st44" d="M3536.9,2052.6l20.5,5.2c0,0,0.7,32.6-1.9,69.9l-39-12.3L3536.9,2052.6z"/>
			<path class="st45" d="M3393.7,2086.8l104.4,85.3l18.4-56.7l39,12.3c-3.1,44.5-11,95.8-30.4,106.3c-35.7,19.4-182.8-89-182.8-89
				L3393.7,2086.8z"/>
			<path class="st44" d="M3557.4,2058.9c0.7,0,21.7-15.8,23-30.8c1.2-15-9.9-20.5-9.9-20.5s-11.7,18.6-17.2,16.2
				c-2.8-1.2,9.3-12.4,2.3-14.9c-5.8,5.2-12.9,14.2-17.1,22.2c-3.2,6.2-2,23.1-2,23.1L3557.4,2058.9z"/>
		</g>
	</g>
	<g>
		<g>
			<path class="st18" d="M2003.3,429.2h-540.4c-37,0-67.1-30-67.1-67.1v0c0-37,30-67.1,67.1-67.1h540.4c37,0,67.1,30,67.1,67.1v0
				C2070.3,399.2,2040.3,429.2,2003.3,429.2z"/>
			<polygon class="st16" points="1503.5,333.7 1510.6,355.4 1533.4,355.4 1514.9,368.8 1522,390.6 1503.5,377.1 1485,390.6 
				1492.1,368.8 1473.6,355.4 1496.5,355.4 			"/>
			<polygon class="st16" points="1615.8,333.7 1622.9,355.4 1645.7,355.4 1627.2,368.8 1634.3,390.6 1615.8,377.1 1597.3,390.6 
				1604.4,368.8 1585.9,355.4 1608.7,355.4 			"/>
			<polygon class="st16" points="1728.1,333.7 1735.1,355.4 1758,355.4 1739.5,368.8 1746.6,390.6 1728.1,377.1 1709.6,390.6 
				1716.7,368.8 1698.2,355.4 1721,355.4 			"/>
			<polygon class="st16" points="1840.4,333.7 1847.4,355.4 1870.2,355.4 1851.8,368.8 1858.8,390.6 1840.4,377.1 1821.9,390.6 
				1828.9,368.8 1810.5,355.4 1833.3,355.4 			"/>
			<polygon class="st16" points="1952.6,333.7 1959.7,355.4 1982.5,355.4 1964,368.8 1971.1,390.6 1952.6,377.1 1934.2,390.6 
				1941.2,368.8 1922.7,355.4 1945.6,355.4 			"/>
		</g>
	</g>
	<g>
		<path class="st18" d="M587.4,1048.7H125.1c-16.1,0-29.2-13.1-29.2-29.2V755.4c0-16.1,13.1-29.2,29.2-29.2h462.3
			c16.1,0,29.2,13.1,29.2,29.2v264.2C616.6,1035.7,603.5,1048.7,587.4,1048.7z"/>
		<path class="st46" d="M184,807.7h38.2v-15.3c0-5.1-4.1-9.2-9.2-9.2h-53.5v37c0,2.2-1.2,4-3.4,4l0,0c-2.2,0-3.1-1.8-3.1-4v-37h-9.3
			c-5.1,0-9.2,4.1-9.2,9.2v44.8h50.2c1.6,0,3,1.1,3.1,2.7c0.2,1.8-1.2,3.3-3,3.3h-50.3v18.5c0,5.1,4.1,9.2,9.2,9.2H213
			c5.1,0,9.2-4.1,9.2-9.2v-47.8h-38.4c-1.8,0-3.2-1.5-3-3.4C180.9,808.8,182.4,807.7,184,807.7z"/>
		<rect x="471.4" y="958.9" class="st47" width="106.1" height="53.5"/>
		<g>
			<rect x="134.5" y="903.5" class="st47" width="99" height="25"/>
			<rect x="247.4" y="903.5" class="st47" width="100.8" height="25"/>
			<rect x="473.9" y="903.5" class="st47" width="103" height="25"/>
			<rect x="364" y="903.5" class="st47" width="95.3" height="25"/>
		</g>
		<rect x="135.1" y="958.9" class="st46" width="305.2" height="32.2"/>
		<rect x="446.2" y="756.5" class="st47" width="131.3" height="37.6"/>
	</g>
	<g>
		<path class="st20" d="M3414.1,650.4h-360.1c-12.5,0-22.7-10.2-22.7-22.7V421.8c0-12.5,10.2-22.7,22.7-22.7h360.1
			c12.5,0,22.7,10.2,22.7,22.7v205.8C3436.8,640.2,3426.6,650.4,3414.1,650.4z"/>
		<path class="st48" d="M3099.8,462.6h29.8v-11.9c0-4-3.2-7.2-7.2-7.2h-41.7v28.8c0,1.7-0.9,3.1-2.6,3.1l0,0c-1.7,0-2.4-1.4-2.4-3.1
			v-28.8h-7.2c-4,0-7.2,3.2-7.2,7.2v34.9h39.1c1.2,0,2.3,0.9,2.4,2.1c0.1,1.4-0.9,2.6-2.3,2.6h-39.2v14.4c0,4,3.2,7.2,7.2,7.2h53.9
			c4,0,7.2-3.2,7.2-7.2v-37.3h-29.9c-1.4,0-2.5-1.2-2.4-2.6C3097.4,463.5,3098.5,462.6,3099.8,462.6z"/>
		<rect x="3323.7" y="580.4" class="st19" width="82.6" height="41.7"/>
		<g>
			<rect x="3061.2" y="537.2" class="st19" width="77.1" height="19.5"/>
			<rect x="3149.2" y="537.2" class="st19" width="78.5" height="19.5"/>
			<rect x="3325.6" y="537.2" class="st19" width="80.2" height="19.5"/>
			<rect x="3240" y="537.2" class="st19" width="74.2" height="19.5"/>
		</g>
		<rect x="3061.7" y="580.4" class="st19" width="237.8" height="25.1"/>
		<rect x="3304" y="422.8" class="st19" width="102.3" height="29.3"/>
	</g>
	<g>
		
			<ellipse transform="matrix(0.7071 -0.7071 0.7071 0.7071 485.8523 1914.931)" class="st49" cx="2554.5" cy="371" rx="63.1" ry="63.1"/>
		<polygon class="st16" points="2550.6,400.6 2521.9,354.3 2526.9,349.1 2550.9,372.5 2625.4,307.9 2630.1,314.1 		"/>
	</g>
</g>
</svg>
