<?xml version="1.0" encoding="utf-8"?>
<!-- Generator: Adobe Illustrator 23.0.1, SVG Export Plug-In . SVG Version: 6.00 Build 0)  -->
<svg version="1.1" id="Layer_1" xmlns="http://www.w3.org/2000/svg" xmlns:xlink="http://www.w3.org/1999/xlink" x="0px" y="0px"
	 viewBox="0 0 125.8 126.3" style="enable-background:new 0 0 125.8 126.3;" xml:space="preserve">
<style type="text/css">
	.st0{display:none;}
	.st1{display:inline;opacity:0.33;fill:#840036;stroke:#000000;stroke-width:2;stroke-miterlimit:10;enable-background:new    ;}
	.st2{display:inline;}
	.st3{fill:url(#SVGID_1_);}
	.st4{fill:url(#SVGID_2_);}
	.st5{fill:url(#SVGID_3_);}
	.st6{fill:url(#SVGID_4_);}
	.st7{fill:url(#SVGID_5_);}
	.st8{fill:url(#SVGID_6_);}
	.st9{display:inline;fill:#0E3CA5;}
	.st10{fill:#2D88E2;}
	.st11{fill:#FFFFFF;}
</style>
<g class="st0">
	<polygon class="st1" points="189.3,142.2 109.5,96.6 189.3,49.5 269.2,96.1 	"/>
	<polygon class="st1" points="185,93.6 109.4,45.7 187,4.6 267.2,48.7 	"/>
	<polygon class="st1" points="188.3,188.5 108.5,142.9 188.3,95.9 268.2,142.4 	"/>
</g>
<g class="st0">
	<g class="st2">
		
			<linearGradient id="SVGID_1_" gradientUnits="userSpaceOnUse" x1="44.7" y1="529.445" x2="191.55" y2="529.445" gradientTransform="matrix(1 0 0 1 0 -384)">
			<stop  offset="0" style="stop-color:#FFFFFF"/>
			<stop  offset="1" style="stop-color:#EFEFEF"/>
		</linearGradient>
		<polygon class="st3" points="191.6,147.6 122.1,103.4 44.7,141.9 49,148.6 121.7,187.1 127.4,187.5 191.2,151.1 		"/>
		
			<linearGradient id="SVGID_2_" gradientUnits="userSpaceOnUse" x1="151.3013" y1="624.7976" x2="65.6044" y2="539.1006" gradientTransform="matrix(0.9707 -1.330000e-02 2.030000e-02 0.9099 0.2193 -381.5165)">
			<stop  offset="0" style="stop-color:#4B88EC"/>
			<stop  offset="8.567870e-03" style="stop-color:#4A87EB"/>
			<stop  offset="0.6759" style="stop-color:#1F51B9"/>
			<stop  offset="1" style="stop-color:#0E3CA5"/>
		</linearGradient>
		<path class="st4" d="M192.3,144.3L121,99.8c-1.6-1-3.6-1.1-5.3-0.2l-73.2,40.2c-1.7,0.9-2.7,2.7-2.7,4.6c0,1.9,1,3.7,2.8,4.6
			l78.6,41.8l0,0c0.7,0.4,1.5,0.6,2.3,0.6c0.9,0,1.9-0.2,2.7-0.7l66-37.4c1.6-0.9,2.6-2.6,2.6-4.4
			C194.8,147,193.9,145.3,192.3,144.3z M188.1,152l-16.2,8.5c-3.1-6.1-9.8-10.5-17.8-10.9c-11.3-0.6-20.9,7.2-21.4,17.4
			c-0.2,4,5.4,6.7,8.4,9.7l-15.7,8.2c-0.6,0.3-1.4,0.3-2,0l-73.4-39.4c-0.7-0.4-1.1-1-1.1-1.8s0.4-1.4,1.1-1.8l69.6-35.3
			c0.7-0.3,1.5-0.3,2.1,0.1l66.5,41.8c0.6,0.4,1,1.1,0.9,1.8S188.7,151.6,188.1,152z"/>
	</g>
	<g class="st2">
		
			<linearGradient id="SVGID_3_" gradientUnits="userSpaceOnUse" x1="43.28" y1="495.05" x2="194.05" y2="495.05" gradientTransform="matrix(1 0 0 1 0 -384)">
			<stop  offset="0" style="stop-color:#FFFFFF"/>
			<stop  offset="1" style="stop-color:#EFEFEF"/>
		</linearGradient>
		<polygon class="st5" points="193.3,109.8 117.1,67.7 43.3,106.6 44.3,111.2 115.6,154.4 122.8,152.9 187.3,119.1 193.7,115.5 
			194.1,111.6 		"/>
		
			<linearGradient id="SVGID_4_" gradientUnits="userSpaceOnUse" x1="168.8089" y1="545.8695" x2="90.5358" y2="467.5965" gradientTransform="matrix(1.0191 3.210000e-02 -3.030000e-02 0.9639 1.2777 -382.2903)">
			<stop  offset="0" style="stop-color:#4B88EC"/>
			<stop  offset="8.567870e-03" style="stop-color:#4A87EB"/>
			<stop  offset="0.6759" style="stop-color:#1F51B9"/>
			<stop  offset="1" style="stop-color:#0E3CA5"/>
		</linearGradient>
		<path class="st6" d="M193.2,107.9l-71.1-44.5c-1.6-1-3.6-1.1-5.3-0.2l-73.7,40.4c-1.7,0.9-2.7,2.6-2.7,4.4s0.9,3.6,2.5,4.6
			l71,43.6c0.8,0.5,1.7,0.7,2.6,0.8s1.8-0.2,2.6-0.6l73.8-39.5c1.7-0.9,2.7-2.5,2.8-4.4C195.7,110.7,194.8,108.9,193.2,107.9z
			 M191.7,115.8l-72.5,36.6c-0.7,0.4-1.5,0.3-2.2-0.1l-39.7-23.1c0.6-0.2,1.3-0.4,1.9-0.6c8.2-3,13.1-10.7,10.9-17.2
			S79.4,102,71.2,105c-6.9,2.5-11.4,8.3-11.4,14l-12.6-7.3c-0.7-0.4-1.1-1.1-1-1.8s0.4-1.4,1.1-1.8l72.4-37.5
			c0.3-0.2,0.7-0.3,1.1-0.3c0.4,0,0.8,0.1,1.1,0.3l70,41.5c0.7,0.4,1.1,1.1,1,1.8S192.4,115.4,191.7,115.8z"/>
	</g>
	<g class="st2">
		
			<linearGradient id="SVGID_5_" gradientUnits="userSpaceOnUse" x1="154.0425" y1="492.9214" x2="79.7175" y2="418.0486" gradientTransform="matrix(1 0 0 1 0 -384)">
			<stop  offset="0" style="stop-color:#FFFFFF"/>
			<stop  offset="1" style="stop-color:#EFEFEF"/>
		</linearGradient>
		<polygon class="st7" points="126.3,37.5 117.1,30 44.7,68.8 62.9,83.4 113.5,116.2 189.1,74.2 		"/>
		
			<linearGradient id="SVGID_6_" gradientUnits="userSpaceOnUse" x1="137.2843" y1="502.242" x2="54.4601" y2="419.4176" gradientTransform="matrix(0.9992 -4.050000e-02 4.050000e-02 0.9992 2.4501 -385.2292)">
			<stop  offset="0" style="stop-color:#4B88EC"/>
			<stop  offset="8.567870e-03" style="stop-color:#4A87EB"/>
			<stop  offset="0.6759" style="stop-color:#1F51B9"/>
			<stop  offset="1" style="stop-color:#0E3CA5"/>
		</linearGradient>
		<path class="st8" d="M190.7,68.1l-72.5-39.9c-1.6-0.9-3.4-0.9-5,0L43.2,65.4c-1.7,0.9-2.7,2.5-2.8,4.4c-0.1,1.9,0.8,3.6,2.4,4.6
			l68.3,43.2c0.8,0.5,1.8,0.8,2.8,0.8c0.9,0,1.7-0.2,2.5-0.6l74.3-40.5c1.7-0.9,2.7-2.6,2.7-4.6S192.4,69.1,190.7,68.1z M184.4,75.6
			l-69.9,36.7c-0.7,0.3-1.5,0.3-2.1-0.1l-63-41.3c-0.6-0.4-1-1.1-0.9-1.8c0-0.8,0.5-1.4,1.1-1.7l65.9-33.6c0.6-0.3,1.4-0.3,2,0
			l13.9,7.9c-1.4,0.2-2.6,0.8-3.7,1.8c0,0,0,0,0,0c-11.5,11.1-14.3,27-6.2,35.3s24,6.1,35.5-5.1c1.5-1.4,2.8-3,4-4.5
			c0.8-1.1,1.3-2.4,1.3-3.8l0.1-3.8c0-0.9-0.1-1.8-0.5-2.5l22.7,13c0.7,0.4,1.1,1.1,1,1.8C185.4,74.6,185,75.3,184.4,75.6z"/>
	</g>
</g>
<g>
	<g>
		<g>
			<rect x="10" y="10.3" class="st10" width="106.2" height="106.2"/>
			<g>
				<path class="st11" d="M32,79.8l-6.7,6.9v14.1h22L32,79.8z"/>
				<path class="st11" d="M100.9,26.1H25.3v43.2L51.6,41h17.9L42,69.7l23,31.2h35.9V26.1z"/>
			</g>
		</g>
	</g>
</g>
</svg>
