<?xml version="1.0" encoding="utf-8"?>
<!-- Generator: Adobe Illustrator 23.0.1, SVG Export Plug-In . SVG Version: 6.00 Build 0)  -->
<svg version="1.0" id="Layer_1" xmlns="http://www.w3.org/2000/svg" xmlns:xlink="http://www.w3.org/1999/xlink" x="0px" y="0px"
	 viewBox="0 0 348.21 126.3" style="enable-background:new 0 0 348.21 126.3;" xml:space="preserve">
<style type="text/css">
	.st0{display:none;}
	.st1{display:inline;opacity:0.33;fill:#840036;stroke:#000000;stroke-width:2;stroke-miterlimit:10;}
	.st2{display:inline;}
	.st3{fill:url(#SVGID_1_);}
	.st4{fill:url(#SVGID_2_);}
	.st5{fill:url(#SVGID_3_);}
	.st6{fill:url(#SVGID_4_);}
	.st7{fill:url(#SVGID_5_);}
	.st8{fill:url(#SVGID_6_);}
	.st9{display:none;fill:#3A3434;}
	.st10{display:inline;fill:#0E3CA5;}
	.st11{fill:#0E3CA5;}
	.st12{fill:#FFFFFF;}
	.st13{fill:#3D3D3D;}
</style>
<g class="st0">
	<polygon class="st1" points="189.26,142.2 109.5,96.57 189.26,49.52 269.19,96.1 	"/>
	<polygon class="st1" points="185.02,93.56 109.45,45.72 187.01,4.61 267.24,48.72 	"/>
	<polygon class="st1" points="188.26,188.53 108.5,142.91 188.26,95.86 268.19,142.44 	"/>
</g>
<g class="st0">
	<g class="st2">
		<linearGradient id="SVGID_1_" gradientUnits="userSpaceOnUse" x1="44.703" y1="145.4455" x2="191.5545" y2="145.4455">
			<stop  offset="0" style="stop-color:#FFFFFF"/>
			<stop  offset="1" style="stop-color:#EFEFEF"/>
		</linearGradient>
		<polygon class="st3" points="191.55,147.58 122.05,103.39 44.7,141.88 48.98,148.65 121.69,187.15 127.4,187.5 191.2,151.15 		"/>
		
			<linearGradient id="SVGID_2_" gradientUnits="userSpaceOnUse" x1="158.8359" y1="187.4829" x2="73.1371" y2="101.7841" gradientTransform="matrix(0.9707 -0.0133 0.0203 0.9099 1.7769 16.4987)">
			<stop  offset="0" style="stop-color:#4B88EC"/>
			<stop  offset="8.567870e-03" style="stop-color:#4A87EB"/>
			<stop  offset="0.6759" style="stop-color:#1F51B9"/>
			<stop  offset="1" style="stop-color:#0E3CA5"/>
		</linearGradient>
		<path class="st4" d="M192.34,144.32l-71.3-44.57c-1.6-1-3.62-1.06-5.28-0.15l-73.22,40.19c-1.71,0.94-2.72,2.66-2.71,4.61
			c0.01,1.95,1.05,3.66,2.77,4.58l78.56,41.76l0,0c0.72,0.38,1.5,0.59,2.29,0.61c0.94,0.03,1.88-0.2,2.73-0.68l65.96-37.38
			c1.62-0.92,2.61-2.57,2.65-4.43C194.83,147,193.91,145.3,192.34,144.32z M188.05,151.97l-16.19,8.48
			c-3.1-6.12-9.81-10.54-17.78-10.93c-11.33-0.55-20.92,7.22-21.42,17.36c-0.2,3.99,5.45,6.73,8.39,9.7l-15.74,8.24
			c-0.63,0.33-1.39,0.33-2.02-0.01L49.89,145.4c-0.68-0.37-1.09-1.04-1.08-1.79s0.42-1.41,1.12-1.77l69.62-35.27
			c0.67-0.34,1.48-0.3,2.12,0.1l66.52,41.83c0.63,0.4,0.98,1.05,0.95,1.78C189.11,151.01,188.72,151.62,188.05,151.97z"/>
	</g>
	<g class="st2">
		<linearGradient id="SVGID_3_" gradientUnits="userSpaceOnUse" x1="43.2772" y1="111.0495" x2="194.0495" y2="111.0495">
			<stop  offset="0" style="stop-color:#FFFFFF"/>
			<stop  offset="1" style="stop-color:#EFEFEF"/>
		</linearGradient>
		<polygon class="st5" points="193.34,109.8 117.06,67.74 43.28,106.59 44.35,111.23 115.63,154.36 122.76,152.93 187.28,119.07 
			193.69,115.5 194.05,111.58 		"/>
		
			<linearGradient id="SVGID_4_" gradientUnits="userSpaceOnUse" x1="155.7125" y1="147.7468" x2="77.4478" y2="69.4821" gradientTransform="matrix(1.0191 0.0321 -0.0303 0.9639 2.5493 1.8605)">
			<stop  offset="0" style="stop-color:#4B88EC"/>
			<stop  offset="8.567870e-03" style="stop-color:#4A87EB"/>
			<stop  offset="0.6759" style="stop-color:#1F51B9"/>
			<stop  offset="1" style="stop-color:#0E3CA5"/>
		</linearGradient>
		<path class="st6" d="M193.23,107.93l-71.13-44.5c-1.6-1-3.62-1.06-5.28-0.15l-73.66,40.39c-1.65,0.9-2.66,2.57-2.71,4.45
			c-0.05,1.88,0.88,3.59,2.49,4.58l71,43.64c0.78,0.48,1.67,0.74,2.57,0.77c0.9,0.03,1.81-0.18,2.63-0.61l73.8-39.52
			c1.66-0.89,2.69-2.54,2.75-4.43C195.74,110.65,194.82,108.93,193.23,107.93z M191.7,115.75l-72.51,36.64
			c-0.68,0.35-1.51,0.32-2.17-0.06l-39.7-23.12c0.63-0.16,1.25-0.35,1.88-0.58c8.24-3,13.12-10.72,10.9-17.24
			c-2.22-6.52-10.7-9.38-18.93-6.38c-6.89,2.51-11.41,8.32-11.41,13.96l-12.62-7.35c-0.67-0.39-1.06-1.07-1.04-1.81
			c0.02-0.74,0.44-1.4,1.13-1.76l72.37-37.45c0.35-0.18,0.73-0.26,1.12-0.25c0.38,0.01,0.76,0.12,1.09,0.32l70.03,41.52
			c0.67,0.4,1.05,1.08,1.03,1.82S192.4,115.4,191.7,115.75z"/>
	</g>
	<g class="st2">
		<linearGradient id="SVGID_5_" gradientUnits="userSpaceOnUse" x1="154.0419" y1="108.9197" x2="79.7205" y2="34.0506">
			<stop  offset="0" style="stop-color:#FFFFFF"/>
			<stop  offset="1" style="stop-color:#EFEFEF"/>
		</linearGradient>
		<polygon class="st7" points="126.33,37.45 117.06,29.96 44.7,68.81 62.88,83.43 113.5,116.22 189.06,74.16 		"/>
		
			<linearGradient id="SVGID_6_" gradientUnits="userSpaceOnUse" x1="158.3945" y1="112.7726" x2="75.5614" y2="29.9395" gradientTransform="matrix(0.9992 -0.0405 0.0405 0.9992 -2.8601 4.791)">
			<stop  offset="0" style="stop-color:#4B88EC"/>
			<stop  offset="8.567870e-03" style="stop-color:#4A87EB"/>
			<stop  offset="0.6759" style="stop-color:#1F51B9"/>
			<stop  offset="1" style="stop-color:#0E3CA5"/>
		</linearGradient>
		<path class="st8" d="M190.74,68.13l-72.51-39.87c-1.55-0.85-3.4-0.86-4.96-0.04L43.15,65.39c-1.66,0.88-2.7,2.53-2.77,4.41
			c-0.07,1.88,0.83,3.6,2.42,4.61l68.3,43.24c0.85,0.54,1.82,0.81,2.79,0.81c0.86,0,1.72-0.21,2.5-0.64l74.33-40.54
			c1.7-0.93,2.72-2.64,2.72-4.57S192.44,69.06,190.74,68.13z M184.35,75.64l-69.9,36.66c-0.67,0.35-1.47,0.31-2.1-0.1L49.34,70.86
			c-0.62-0.41-0.97-1.1-0.93-1.84c0.04-0.75,0.46-1.39,1.13-1.73l65.92-33.58c0.62-0.32,1.36-0.3,1.97,0.05l13.87,7.92
			c-1.35,0.17-2.65,0.77-3.69,1.77c-0.01,0.01-0.03,0.03-0.04,0.04c-11.52,11.15-14.31,26.96-6.23,35.3s23.97,6.07,35.49-5.08
			c1.49-1.44,2.83-2.96,4.02-4.53c0.83-1.09,1.27-2.43,1.3-3.8l0.06-3.79c0.01-0.89-0.15-1.75-0.47-2.54l22.69,12.96
			c0.67,0.38,1.06,1.07,1.04,1.84C185.44,74.62,185.03,75.29,184.35,75.64z"/>
	</g>
</g>
<rect x="93.18" y="197.49" class="st9" width="99.98" height="65.76"/>
<g>
	<g>
		<g class="st0">
			<path class="st10" d="M129.75,107.89l2.88-3.72c1.87,1.61,3.89,2.42,6.05,2.42c1.39,0,2.13-0.49,2.13-1.38v-0.06
				c0-0.81-0.61-1.33-3.15-1.93c-3.95-0.98-7.04-2.16-7.04-6.34v-0.06c0-3.78,2.75-6.46,7.23-6.46c3.2,0,5.65,0.92,7.68,2.68
				l-2.59,3.95c-1.71-1.3-3.55-1.99-5.23-1.99c-1.25,0-1.87,0.58-1.87,1.3v0.06c0,0.89,0.67,1.36,3.23,1.96
				c4.29,1.01,6.96,2.51,6.96,6.29v0.06c0,4.12-3.01,6.57-7.55,6.57C135.17,111.24,132.07,110.11,129.75,107.89z"/>
			<path class="st10" d="M147.67,103.16v-0.06c0-4.47,3.39-8.16,8-8.16c4.61,0,7.95,3.66,7.95,8.1v0.06c0,4.47-3.39,8.16-8,8.16
				S147.67,107.63,147.67,103.16z M158.69,103.16v-0.06c0-1.9-1.28-3.52-3.07-3.52c-1.84,0-3.01,1.59-3.01,3.46v0.06
				c0,1.9,1.28,3.52,3.07,3.52C157.52,106.62,158.69,105.04,158.69,103.16z"/>
			<path class="st10" d="M165.86,89.84h5.07v21.05h-5.07V89.84z"/>
			<path class="st10" d="M173.65,105.5V95.29h5.07v8.45c0,1.73,0.8,2.62,2.05,2.62c1.2,0,2.11-0.89,2.11-2.62v-8.45h5.07v15.6h-5.07
				v-2.13c-0.93,1.3-2.27,2.48-4.32,2.48C175.46,111.24,173.65,109.07,173.65,105.5z"/>
			<path class="st10" d="M191.55,106.05V99.7h-1.71v-4.41h1.71v-3.95h5.07v3.95h3.36v4.41h-3.36v5.28c0,1.12,0.45,1.56,1.39,1.56
				c0.67,0,1.31-0.2,1.92-0.52v4.3c-0.93,0.55-2.11,0.89-3.52,0.89C193.33,111.21,191.55,109.77,191.55,106.05z"/>
			<path class="st10" d="M202.16,89.84h5.28v4.04h-5.28V89.84z M202.27,95.29h5.07v15.6h-5.07V95.29z"/>
			<path class="st10" d="M209.57,103.16v-0.06c0-4.47,3.39-8.16,8-8.16c4.61,0,7.95,3.66,7.95,8.1v0.06c0,4.47-3.39,8.16-8,8.16
				C212.91,111.27,209.57,107.63,209.57,103.16z M220.59,103.16v-0.06c0-1.9-1.28-3.52-3.07-3.52c-1.84,0-3.01,1.59-3.01,3.46v0.06
				c0,1.9,1.28,3.52,3.07,3.52C219.41,106.62,220.59,105.04,220.59,103.16z"/>
			<path class="st10" d="M227.66,95.29h5.07v2.19c0.93-1.3,2.27-2.54,4.32-2.54c3.09,0,4.91,2.16,4.91,5.74v10.21h-5.07v-8.45
				c0-1.73-0.83-2.62-2.03-2.62c-1.25,0-2.13,0.89-2.13,2.62v8.45h-5.07V95.29z"/>
		</g>
		<g>
			<path class="st11" d="M146.45,19.07h15.07v23.85l18.72-23.85h17.86l-20.58,25.28l21.28,33.51h-18.1l-13.67-21.83l-5.51,6.63v15.2
				h-15.07V19.07z"/>
			<path class="st11" d="M213.09,64.84v-0.17c0-9.4,6.6-14.28,16.47-14.28c3.96,0,7.69,0.84,10.1,1.76V51.4
				c0-4.7-2.72-7.39-8.39-7.39c-4.43,0-7.84,0.92-11.57,2.52l-3.03-11.25c4.74-2.1,9.79-3.53,17.01-3.53c7.53,0,12.66,1.93,16,5.54
				c3.18,3.36,4.5,8.06,4.5,14.44v26.12h-14.6v-4.7c-2.87,3.44-6.76,5.71-12.35,5.71C219.23,78.86,213.09,73.91,213.09,64.84z
				 M239.81,61.39v-2.1c-1.48-0.67-3.57-1.18-5.75-1.18c-4.35,0-6.76,2.27-6.76,5.63v0.17c0,3.11,2.17,4.95,5.2,4.95
				C236.86,68.87,239.81,66.01,239.81,61.39z"/>
			<path class="st11" d="M270.83,32.42h14.76v6.38c2.72-3.78,6.6-7.39,12.58-7.39c9.01,0,14.29,6.3,14.29,16.71v29.73H297.7v-24.6
				c0-5.04-2.41-7.64-5.9-7.64c-3.65,0-6.21,2.6-6.21,7.64v24.6h-14.76V32.42z"/>
		</g>
		<g>
			<path class="st11" d="M107.31,15.03H21.34c-2.76,0-5,2.24-5,5V106c0,2.76,2.24,5,5,5h85.96c2.76,0,5-2.24,5-5V20.03
				C112.31,17.27,110.07,15.03,107.31,15.03z"/>
			<g>
				<path class="st12" d="M36.21,77.77l-6.05,6.28v7.87c0,2.67,2.17,4.84,4.84,4.84h15.04L36.21,77.77z"/>
				<path class="st12" d="M93.65,29.27H35c-2.67,0-4.84,2.17-4.84,4.84v34.2L53.9,42.73h16.21L45.27,68.62l20.81,28.14h27.57
					c2.67,0,4.84-2.17,4.84-4.84v-57.8C98.49,31.44,96.33,29.27,93.65,29.27z"/>
			</g>
		</g>
	</g>
	<g>
		<g>
			<path class="st13" d="M147.06,104.69l1.74-2.09c1.22,0.99,2.47,1.63,4,1.63c1.22,0,1.93-0.48,1.93-1.26v-0.04
				c0-0.75-0.46-1.15-2.7-1.7c-2.72-0.67-4.44-1.45-4.44-4.09v-0.04c0-2.43,1.93-4.04,4.69-4.04c1.97,0,3.6,0.61,4.97,1.7
				l-1.53,2.22c-1.21-0.82-2.33-1.32-3.48-1.32s-1.72,0.5-1.72,1.17v0.04c0,0.9,0.57,1.15,2.89,1.76c2.72,0.73,4.25,1.68,4.25,4.02
				v0.04c0,2.66-2.03,4.15-4.92,4.15C150.7,106.83,148.67,106.14,147.06,104.69z"/>
			<path class="st13" d="M172.92,101.57v-0.04c0-2.95,2.37-5.34,5.57-5.34c3.16,0,5.53,2.33,5.53,5.3v0.04
				c0,2.95-2.37,5.34-5.57,5.34C175.29,106.87,172.92,104.53,172.92,101.57z M181.15,101.57v-0.04c0-1.51-1.09-2.83-2.7-2.83
				c-1.66,0-2.66,1.26-2.66,2.79v0.04c0,1.51,1.09,2.83,2.7,2.83C180.15,104.36,181.15,103.1,181.15,101.57z"/>
			<path class="st13" d="M198.84,92.67h2.91v13.97h-2.91V92.67z"/>
			<path class="st13" d="M216.99,103.02v-6.64h2.91v5.72c0,1.38,0.63,2.08,1.76,2.08s1.82-0.71,1.82-2.08v-5.72h2.91v10.25h-2.91
				v-1.45c-0.67,0.86-1.55,1.65-3,1.65C218.25,106.83,216.99,105.39,216.99,103.02z"/>
			<path class="st13" d="M242.05,103.73v-4.86h-1.22v-2.49h1.22v-2.62h2.91v2.62h2.41v2.49h-2.41v4.38c0,0.67,0.31,0.99,0.94,0.99
				c0.52,0,0.99-0.12,1.43-0.36v2.33c-0.61,0.36-1.32,0.59-2.3,0.59C243.28,106.81,242.05,106.1,242.05,103.73z"/>
			<path class="st13" d="M261.24,92.67h3.06v2.58h-3.06V92.67z M261.32,96.38h2.91v10.25h-2.91V96.38z"/>
			<path class="st13" d="M279.05,101.57v-0.04c0-2.95,2.37-5.34,5.57-5.34c3.16,0,5.53,2.33,5.53,5.3v0.04
				c0,2.95-2.37,5.34-5.57,5.34C281.43,106.87,279.05,104.53,279.05,101.57z M287.28,101.57v-0.04c0-1.51-1.09-2.83-2.7-2.83
				c-1.66,0-2.66,1.26-2.66,2.79v0.04c0,1.51,1.09,2.83,2.7,2.83C286.28,104.36,287.28,103.1,287.28,101.57z"/>
			<path class="st13" d="M303.02,96.38h2.91v1.45c0.67-0.86,1.55-1.65,3-1.65c2.22,0,3.48,1.43,3.48,3.81v6.64h-2.91v-5.72
				c0-1.38-0.63-2.08-1.76-2.08s-1.82,0.71-1.82,2.08v5.72h-2.91V96.38z"/>
		</g>
	</g>
</g>
</svg>
