<?xml version="1.0" encoding="utf-8"?>
<!-- Generator: Adobe Illustrator 23.0.1, SVG Export Plug-In . SVG Version: 6.00 Build 0)  -->
<svg version="1.1" id="Layer_1" xmlns="http://www.w3.org/2000/svg" xmlns:xlink="http://www.w3.org/1999/xlink" x="0px" y="0px"
	 viewBox="0 0 1186 432" style="enable-background:new 0 0 1186 432;" xml:space="preserve">
<style type="text/css">
	.st0{display:none;fill:#6633FF;}
	.st1{fill:#0033CC;}
	.st2{fill:#0066FF;}
	.st3{fill:#000033;}
</style>
<g>
	<path class="st0" d="M124.9,52.6L100.4,77c-0.6,0.6-1,1.4-1,2.3v16.9c0,2.9,3.5,4.4,5.6,2.3l41.3-41.3c2.1-2.1,0.6-5.6-2.3-5.6
		h-16.9C126.3,51.6,125.5,52,124.9,52.6z"/>
	<path class="st1" d="M242.3,335.3l0-148.5c0-5-4-9-9-9l-148.6,0c-8,0-12,9.7-6.4,15.4C112.2,227,193,307.6,226.9,341.6
		C232.5,347.3,242.3,343.3,242.3,335.3z"/>
	<path class="st1" d="M387.8,31.1c-1.6-1.3-3.6-2.1-5.8-2.1l-279.9,0c-2.7,0-5.3,1.2-7,3.3L18,127c-4.8,5.9-0.6,14.7,7,14.7h252.3
		L387.8,31.1z"/>
	<path class="st2" d="M387.8,31.1L277.3,141.7l0,253.5c0,7.6,8.8,11.8,14.7,7l95.7-77.3c2.1-1.7,3.3-4.3,3.3-7L391,38
		C391,35.2,389.8,32.8,387.8,31.1z"/>
</g>
<g>
	<path class="st3" d="M665,312c-1.3,0-2.5-0.7-3.2-1.7l-62-98.1h-0.6v96.1c0,2.1-1.7,3.7-3.7,3.7H544c-2.1,0-3.7-1.7-3.7-3.7V84.7
		c0-2.1,1.7-3.7,3.7-3.7h51.5c2.1,0,3.7,1.7,3.7,3.7v100.2h0.6L664,82.7c0.7-1.1,1.9-1.8,3.2-1.8h50.2c4.1,0,6.6,4.6,4.3,8
		L651.9,194c-0.9,1.3-0.8,3,0.1,4.2l75.8,107.8c1.7,2.5,0,5.9-3.1,5.9H665z"/>
	<path class="st3" d="M892.8,312c-2.8,0-5.1-2.3-5.1-5.1v-13.6H887c-4.4,8.3-11.6,14.7-21.8,19c-8.7,3.8-18.3,5.6-28.8,5.6
		c-26.1,0-47.3-9-63.5-27c-15.6-17.5-23.5-39.4-23.5-65.7c0-25.9,8-47.6,23.9-65.2c16.6-18.2,37.6-27.3,63.1-27.3
		c10.4,0,19.9,1.9,28.6,5.8c9.8,4.3,17.1,10.5,21.9,18.6h0.6v-13.3c0-2.8,2.3-5.1,5.1-5.1h41.5c2.8,0,5.1,2.3,5.1,5.1v163
		c0,2.8-2.3,5.1-5.1,5.1H892.8z M875.3,193.7c-8.2-8.3-18.6-12.5-31.2-12.5c-12.5,0-22.8,4.4-30.9,13.1
		c-7.9,8.4-11.9,18.9-11.9,31.5c0,12.1,4.1,22.3,12.3,30.8c8.4,8.5,18.7,12.8,30.8,12.8c12.5,0,22.9-4.2,31.1-12.6
		c8.1-8.4,12.2-18.9,12.2-31.5C887.6,212.6,883.5,202.1,875.3,193.7z"/>
	<path class="st3" d="M1097.8,312c-0.8,0-1.4-0.6-1.4-1.4v-93.2c0-11.3-1.6-19.7-4.9-25.1c-4.2-7.1-11.6-10.7-22.2-10.7
		c-11.3,0-19.3,3.5-23.9,10.4c-3.9,5.7-5.8,14.3-5.8,25.9v92.8c0,0.8-0.6,1.4-1.4,1.4h-49c-0.8,0-1.4-0.6-1.4-1.4V140.1
		c0-0.8,0.6-1.4,1.4-1.4h45.5c0.8,0,1.4,0.6,1.4,1.4v17.1l0,0c0.5,0,0.9-0.2,1.2-0.6c10-15.8,25.5-23.7,46.7-23.7
		c17.6,0,32.4,5,44.3,15.1c7.5,6.3,12.9,14.8,16.2,25.4c2.5,8.3,3.8,18.4,3.8,30.3v107c0,0.8-0.6,1.4-1.4,1.4H1097.8z"/>
</g>
</svg>
