<?xml version="1.0" encoding="utf-8"?>
<!-- Generator: Adobe Illustrator 23.0.0, SVG Export Plug-In . SVG Version: 6.00 Build 0)  -->
<svg version="1.1" id="Layer_1" xmlns="http://www.w3.org/2000/svg" xmlns:xlink="http://www.w3.org/1999/xlink" x="0px" y="0px"
	 viewBox="0 0 774 200" style="enable-background:new 0 0 774 200;" xml:space="preserve">
<style type="text/css">
	.st0{fill:#FFFFFF;}
	.st1{fill:#163B96;}
</style>
<rect x="6" y="11" class="st0" width="179" height="179"/>
<g>
	<path class="st1" d="M94.1,165.9c0.3-0.3,0.7-0.5,1.1-0.5s0.7,0.2,1.1,0.5c0.3,0.3,0.5,0.7,0.5,1.2s-0.2,0.9-0.5,1.2
		s-0.7,0.4-1.1,0.4s-0.8-0.1-1.1-0.4c-0.3-0.3-0.5-0.7-0.5-1.2C93.6,166.6,93.8,166.2,94.1,165.9z"/>
	<path class="st1" d="M102.1,168.9c-0.8,0-1.6-0.1-2.3-0.4c-0.7-0.3-1.3-0.7-1.8-1.2l1.3-1.8c0.5,0.4,0.9,0.8,1.4,1
		c0.4,0.2,0.8,0.3,1.1,0.3c0.3,0,0.5,0,0.7-0.1s0.4-0.1,0.5-0.3c0.1-0.1,0.2-0.3,0.2-0.4c0-0.3-0.1-0.5-0.3-0.6s-0.5-0.3-0.8-0.4
		c-0.3-0.1-0.7-0.2-1-0.3c-0.9-0.3-1.6-0.7-2-1.3s-0.6-1.2-0.6-1.8c0-0.5,0.1-1,0.4-1.5s0.7-0.9,1.3-1.3c0.6-0.3,1.4-0.5,2.3-0.5
		c0.8,0,1.6,0.1,2.1,0.3c0.6,0.2,1.1,0.4,1.7,0.8l-1.2,1.9c-0.3-0.2-0.6-0.4-1-0.6c-0.4-0.2-0.7-0.2-1-0.3c-0.3,0-0.5,0-0.7,0.1
		s-0.3,0.2-0.4,0.3s-0.2,0.3-0.2,0.4c0,0.3,0.1,0.5,0.3,0.7c0.2,0.2,0.5,0.3,0.9,0.4c0.4,0.1,0.7,0.2,1.1,0.3
		c0.5,0.2,0.9,0.4,1.3,0.6c0.4,0.3,0.6,0.6,0.8,0.9c0.2,0.4,0.3,0.8,0.3,1.3c0,0.6-0.2,1.2-0.5,1.7s-0.8,1-1.4,1.3
		C103.9,168.8,103.1,168.9,102.1,168.9z"/>
	<path class="st1" d="M110.1,154.3h3.2v4.4h2.4v2.5h-2.4v7.6h-3.2v-7.6h-1.6v-2.5h1.6V154.3z"/>
	<path class="st1" d="M121.5,169.2c-0.9,0-1.7-0.3-2.3-0.8c-0.6-0.6-0.9-1.3-1-2.2v-7.5h3.2v6.3c0,0.4,0.1,0.8,0.3,1.1
		c0.2,0.3,0.5,0.4,1,0.4s0.9-0.2,1.2-0.5c0.3-0.3,0.6-0.8,0.8-1.3c0.2-0.6,0.3-1.2,0.3-1.9v-4.1h3.2v10.1h-2.9L125,167v0.2
		c-0.2,0.4-0.5,0.8-0.9,1.1s-0.8,0.6-1.3,0.7S122.1,169.2,121.5,169.2z"/>
	<path class="st1" d="M135.7,169c-0.9,0-1.8-0.2-2.5-0.7c-0.7-0.4-1.3-1.1-1.7-1.9c-0.4-0.8-0.6-1.8-0.6-2.9c0-1.1,0.2-2.1,0.7-2.9
		c0.5-0.8,1.1-1.4,1.9-1.8c0.8-0.4,1.7-0.6,2.7-0.6c0.6,0,1.3,0.1,1.9,0.3c0.6,0.2,1.1,0.5,1.5,0.9v1v-9.8h3.2v18.1h-3.2v-2l0.3,0.7
		c-0.5,0.4-1.1,0.8-1.7,1.1C137.3,168.9,136.6,169,135.7,169z M136.8,166.3c0.4,0,0.8-0.1,1.1-0.2c0.3-0.1,0.6-0.3,0.9-0.5
		c0.3-0.2,0.5-0.5,0.7-0.8v-2.5c-0.1-0.3-0.3-0.6-0.6-0.9s-0.6-0.4-0.9-0.6c-0.4-0.1-0.8-0.2-1.2-0.2c-0.5,0-0.9,0.1-1.3,0.4
		s-0.7,0.6-1,1s-0.4,0.9-0.4,1.4s0.1,1,0.4,1.4s0.6,0.8,1,1C135.9,166.2,136.3,166.3,136.8,166.3z"/>
	<path class="st1" d="M145.9,155.1c0-0.5,0.2-0.9,0.6-1.2c0.4-0.3,0.8-0.5,1.2-0.5s0.8,0.2,1.2,0.5s0.5,0.7,0.5,1.2
		s-0.2,0.9-0.5,1.2c-0.4,0.3-0.8,0.4-1.2,0.4s-0.8-0.1-1.2-0.4C146.1,156,145.9,155.6,145.9,155.1z M146,158.7h3.2v10.1H146V158.7z"
		/>
	<path class="st1" d="M151.7,163.6c0-1,0.2-1.9,0.7-2.8c0.5-0.8,1.2-1.5,2-1.9c0.9-0.5,1.9-0.7,3-0.7s2.1,0.2,3,0.7
		c0.8,0.5,1.5,1.1,1.9,1.9c0.5,0.8,0.7,1.7,0.7,2.8s-0.2,2-0.7,2.8s-1.1,1.5-1.9,1.9c-0.8,0.5-1.9,0.7-3,0.7s-2.1-0.2-3-0.6
		c-0.9-0.4-1.5-1-2-1.9C152,165.7,151.7,164.7,151.7,163.6z M155,163.6c0,0.5,0.1,1,0.3,1.4s0.5,0.8,0.9,1s0.8,0.4,1.2,0.4
		c0.5,0,0.9-0.1,1.3-0.4c0.4-0.2,0.7-0.6,0.9-1s0.3-0.9,0.3-1.4s-0.1-1-0.3-1.4s-0.5-0.7-0.9-1c-0.4-0.2-0.8-0.4-1.3-0.4
		s-0.9,0.1-1.2,0.4c-0.4,0.2-0.7,0.6-0.9,1S155,163.1,155,163.6z"/>
</g>
<g>
	<path class="st1" d="M52.1,43.4c-1.5-0.8-2.9-1.5-4.4-2s-2.9-0.8-4.2-0.8c-1.6,0-2.9,0.3-3.8,1c-0.9,0.7-1.4,1.6-1.4,3
		c0,0.9,0.4,1.7,1.1,2.4c0.7,0.7,1.6,1.3,2.8,1.9c1.1,0.6,2.3,1.1,3.5,1.5c1.1,0.4,2.2,0.9,3.3,1.5s2.1,1.3,2.9,2.1
		c0.9,0.8,1.6,1.9,2.1,3.2s0.8,2.8,0.8,4.7s-0.5,3.7-1.5,5.4s-2.5,3-4.4,4s-4.3,1.5-7.2,1.5c-1.5,0-2.9-0.1-4.4-0.4s-3-0.7-4.4-1.4
		s-2.9-1.4-4.2-2.3l3.3-5.9c0.9,0.7,1.9,1.2,2.9,1.7c1.1,0.5,2.1,0.9,3.2,1.2c1.1,0.3,2.1,0.4,3,0.4s1.8-0.1,2.7-0.4
		s1.7-0.7,2.3-1.3c0.6-0.6,0.9-1.5,0.9-2.6c0-0.8-0.3-1.5-0.8-2.1s-1.2-1.2-2-1.7s-1.8-1-2.8-1.4c-1.2-0.5-2.4-1-3.6-1.6
		s-2.7-1.2-3.8-2s-2-1.9-2.7-3.2s-1-2.8-1-4.7c0-2.2,0.5-4.1,1.5-5.8c1-1.6,2.4-2.9,4.2-3.9s3.9-1.5,6.2-1.6c3.1,0,5.6,0.4,7.5,1.1
		c1.9,0.7,3.6,1.6,5.2,2.6L52.1,43.4z"/>
	<path class="st1" d="M59,60.8c0-2.3,0.5-4.4,1.6-6.2s2.6-3.3,4.6-4.3c2-1.1,4.2-1.6,6.8-1.6c2.6,0,4.9,0.5,6.8,1.6s3.4,2.5,4.4,4.3
		s1.5,3.9,1.5,6.2s-0.5,4.4-1.5,6.3s-2.5,3.3-4.4,4.4c-1.9,1-4.2,1.5-6.8,1.5c-2.5,0-4.7-0.5-6.7-1.5s-3.5-2.4-4.6-4.2
		C59.6,65.5,59,63.3,59,60.8z M66.4,60.8c0,1.2,0.2,2.2,0.7,3.2s1.1,1.7,2,2.3s1.8,0.8,2.8,0.8c1.1,0,2.1-0.3,3-0.8s1.5-1.3,1.9-2.3
		c0.5-1,0.7-2,0.7-3.2s-0.2-2.3-0.7-3.2s-1.1-1.7-1.9-2.2s-1.8-0.8-3-0.8c-1,0-2,0.3-2.8,0.8s-1.5,1.3-2,2.2S66.4,59.6,66.4,60.8z"
		/>
	<path class="st1" d="M97.8,73.5c-2,0-3.8-0.6-5.1-1.9c-1.4-1.3-2.1-2.9-2.2-4.9v-17h7.3V64c0.1,1,0.3,1.8,0.8,2.4
		c0.4,0.6,1.2,0.9,2.3,0.9c1.1,0,2-0.4,2.8-1.1s1.4-1.7,1.8-3c0.4-1.3,0.7-2.7,0.7-4.3v-9.3h7.3v22.7h-6.6l-0.6-4.2l0.1,0.5
		c-0.5,0.9-1.2,1.8-2,2.5s-1.7,1.3-2.8,1.7C100.4,73.3,99.2,73.5,97.8,73.5z"/>
	<path class="st1" d="M123,39.7h7.3v9.9h5.5v5.7h-5.5v17.2H123V55.3h-3.5v-5.7h3.5V39.7z"/>
	<path class="st1" d="M141.3,72.4v-41h7.1v22.9l-0.1-0.9c0.8-1.4,1.9-2.6,3.4-3.5s3.2-1.3,5.4-1.3c2.1,0,3.9,0.6,5.4,1.9
		c1.4,1.3,2.2,2.9,2.2,4.9v17h-7.3V58.1c0-1-0.3-1.8-0.8-2.4c-0.5-0.6-1.3-0.9-2.5-0.9c-1.1,0-2.1,0.4-2.9,1.1
		c-0.8,0.7-1.5,1.7-1.9,3c-0.5,1.2-0.7,2.7-0.7,4.3v9.3L141.3,72.4L141.3,72.4z"/>
	<path class="st1" d="M29.1,96.5h25.8v7.3h-9.3v31H38v-31h-8.9V96.5z"/>
	<path class="st1" d="M66.9,135.4c-2.8,0-5.1-0.5-7-1.6c-1.9-1-3.4-2.5-4.4-4.3s-1.5-4-1.5-6.3s0.6-4.4,1.8-6.2
		c1.2-1.8,2.8-3.3,4.7-4.4s4.2-1.6,6.6-1.6c3.3,0,5.9,0.9,8,2.8s3.5,4.6,4.1,8.2l-17.7,5.6l-1.6-4l12.8-4.3l-1.5,0.7
		c-0.3-0.9-0.8-1.7-1.5-2.4c-0.7-0.7-1.8-1-3.2-1c-1.1,0-2,0.3-2.8,0.8s-1.4,1.2-1.9,2.1c-0.4,0.9-0.6,2-0.6,3.3
		c0,1.4,0.3,2.6,0.8,3.6s1.2,1.7,2.1,2.2c0.9,0.5,1.9,0.7,3,0.7c0.8,0,1.6-0.1,2.3-0.4c0.7-0.3,1.5-0.6,2.2-1.1l3.2,5.4
		c-1.2,0.7-2.5,1.2-3.9,1.7C69.5,135.2,68.2,135.4,66.9,135.4z"/>
	<path class="st1" d="M94.1,135.4c-2.1,0-4-0.4-5.7-1.3c-1.7-0.8-3.1-2.2-4.1-3.9c-1-1.8-1.5-4-1.5-6.8c0-2.6,0.5-4.8,1.6-6.7
		s2.4-3.3,4.1-4.3s3.5-1.5,5.4-1.5c2.3,0,4,0.4,5.1,1.1c1.2,0.7,2.1,1.6,2.9,2.5l-0.3,0.9l0.7-3.3h6.8v22.7h-7.3v-4.9l0.6,1.6
		c-0.1,0-0.3,0.2-0.6,0.6c-0.3,0.4-0.9,0.9-1.5,1.4c-0.7,0.5-1.5,1-2.5,1.4C96.6,135.2,95.4,135.4,94.1,135.4z M96.1,129.5
		c0.9,0,1.6-0.1,2.3-0.4c0.7-0.3,1.3-0.6,1.8-1.1s1-1.1,1.4-1.9v-5.6c-0.3-0.8-0.7-1.4-1.2-2c-0.6-0.5-1.2-1-2-1.2
		c-0.8-0.3-1.6-0.4-2.5-0.4c-1,0-2,0.3-2.9,0.8s-1.6,1.3-2.1,2.2c-0.5,0.9-0.8,2-0.8,3.2s0.3,2.3,0.8,3.3c0.6,1,1.3,1.7,2.2,2.3
		C94.1,129.2,95.1,129.5,96.1,129.5z"/>
	<path class="st1" d="M123,112.1l0.6,4l-0.1-0.3c0.9-1.5,2-2.7,3.4-3.6c1.4-0.8,3-1.3,4.9-1.3c1.2,0,2.3,0.2,3.3,0.5
		s1.8,0.9,2.4,1.5c0.7,0.7,1.1,1.6,1.4,2.6l-0.3,0.1c1-1.4,2.1-2.6,3.5-3.4c1.4-0.9,2.8-1.3,4.3-1.3c2.3,0,4,0.6,5.4,1.9
		c1.3,1.3,2,2.9,2.1,4.9v17.1h-7.2v-14c0-1-0.2-1.8-0.5-2.5c-0.3-0.6-0.9-1-1.9-1.1c-1.2,0-2.2,0.4-3,1.2c-0.8,0.8-1.4,1.9-1.8,3.1
		c-0.4,1.3-0.6,2.6-0.6,3.9v9.3h-7.3v-14c0-1-0.2-1.8-0.5-2.5c-0.3-0.6-1-1-2-1.1c-1.1,0-2.1,0.4-2.9,1.2c-0.8,0.8-1.4,1.8-1.8,3.1
		c-0.4,1.2-0.6,2.5-0.6,3.8v9.4h-7.3v-22.7h6.5V112.1z"/>
</g>
<g>
	<path class="st0" d="M252.7,36.5c-2.3-1.3-4.6-2.3-7-3.1s-4.6-1.2-6.7-1.2c-2.6,0-4.6,0.5-6.1,1.6c-1.5,1-2.2,2.6-2.2,4.7
		c0,1.4,0.6,2.7,1.7,3.8c1.1,1.1,2.6,2.1,4.3,3c1.8,0.9,3.6,1.7,5.5,2.4c1.7,0.7,3.5,1.4,5.2,2.3c1.7,0.9,3.3,2,4.6,3.4
		c1.4,1.3,2.5,3,3.3,5s1.2,4.4,1.2,7.3c0,3.1-0.8,5.9-2.4,8.5c-1.6,2.6-3.9,4.7-7,6.4c-3.1,1.6-6.8,2.4-11.3,2.4
		c-2.3,0-4.6-0.2-7-0.7s-4.7-1.2-7-2.1c-2.3-1-4.5-2.2-6.6-3.6l5.2-9.3c1.4,1,3,2,4.6,2.7c1.7,0.8,3.3,1.4,5,1.8s3.3,0.7,4.7,0.7
		s2.9-0.2,4.3-0.6c1.4-0.4,2.7-1.1,3.6-2.1c1-1,1.4-2.4,1.4-4.1c0-1.2-0.4-2.3-1.2-3.3s-1.9-1.9-3.2-2.7s-2.8-1.5-4.4-2.1
		c-1.9-0.7-3.8-1.5-5.7-2.5c-2-0.9-3.8-2.1-5.5-3.4c-1.7-1.3-3.1-3-4.2-5c-1.1-2-1.6-4.4-1.6-7.3c0-3.5,0.8-6.5,2.3-9.1
		c1.6-2.6,3.8-4.6,6.6-6.1s6.1-2.3,9.8-2.5c4.9,0,8.8,0.6,11.8,1.7s5.8,2.5,8.2,4.1L252.7,36.5z"/>
	<path class="st0" d="M264.5,52.1c0-4.2,0.8-8.1,2.4-11.8s3.8-7,6.6-9.9c2.8-2.9,6.1-5.1,9.8-6.8c3.7-1.6,7.7-2.5,12-2.5
		c4.2,0,8.2,0.8,11.9,2.5c3.7,1.6,7,3.9,9.9,6.8s5.1,6.2,6.7,9.9c1.6,3.7,2.4,7.7,2.4,11.8c0,4.3-0.8,8.3-2.4,12s-3.9,7-6.7,9.8
		c-2.9,2.8-6.2,5-9.9,6.6c-3.7,1.6-7.7,2.4-11.9,2.4c-4.3,0-8.3-0.8-12-2.4s-7-3.8-9.8-6.6c-2.8-2.8-5-6.1-6.6-9.8
		C265.3,60.4,264.5,56.4,264.5,52.1z M276.8,52.1c0,2.7,0.5,5.2,1.4,7.5c1,2.3,2.3,4.4,4,6.1c1.7,1.8,3.7,3.2,6,4.1
		c2.3,1,4.7,1.5,7.4,1.5c2.6,0,5-0.5,7.2-1.5s4.1-2.4,5.8-4.1c1.6-1.8,2.9-3.8,3.9-6.1c0.9-2.3,1.4-4.8,1.4-7.5s-0.5-5.3-1.4-7.6
		c-1-2.3-2.3-4.4-3.9-6.2c-1.7-1.8-3.6-3.2-5.9-4.1c-2.2-1-4.7-1.5-7.3-1.5s-5.1,0.5-7.3,1.5c-2.2,1-4.2,2.4-5.9,4.1
		c-1.7,1.8-3,3.8-3.9,6.2C277.3,46.8,276.8,49.4,276.8,52.1z"/>
	<path class="st0" d="M348.8,59.9c0,1.9,0.6,3.7,1.7,5.5c1.1,1.8,2.7,3.2,4.6,4.3c1.9,1.1,3.9,1.6,6.2,1.6c2.5,0,4.6-0.5,6.6-1.6
		c1.9-1.1,3.4-2.5,4.6-4.3c1.1-1.7,1.7-3.6,1.7-5.5v-38h11.7v38.3c0,4.4-1.1,8.4-3.3,11.8c-2.2,3.4-5.1,6.1-8.9,8
		c-3.7,1.9-7.8,2.9-12.4,2.9c-4.5,0-8.6-1-12.3-2.9c-3.7-1.9-6.6-4.6-8.8-8c-2.2-3.4-3.3-7.3-3.3-11.8V21.9h11.9L348.8,59.9
		L348.8,59.9z"/>
	<path class="st0" d="M396,21.9h40.7v11.5H422v48.9h-11.9v-49H396V21.9z"/>
	<path class="st0" d="M498.9,21.9v60.4H487V57.7h-27v24.5h-11.9V21.9H460v24.4h27V21.9H498.9z"/>
	<path class="st0" d="M537,21.9h40.7v11.5H563v48.9h-11.9v-49H537V21.9z"/>
	<path class="st0" d="M589.2,21.9h41.2v11.5h-29.3v12.9H627v11.5h-25.9v13h30.4v11.5h-42.3V21.9z"/>
	<path class="st0" d="M637,82.2l27.2-62.7h0.7l27.2,62.7h-13.8l-17.4-44.1l8.6-5.9l-20.8,50H637z M655.6,60.4h18.1l4.2,10h-26
		L655.6,60.4z"/>
	<path class="st0" d="M700.9,82.2V19.4h0.1L734.5,67l-5.1-1.1l33.5-46.4h0.2v62.8h-11.9v-36l0.7,6.1l-20.4,29h-0.2l-21-29l2-5.7
		v35.5H700.9z"/>
	<path class="st0" d="M252.7,134.9c-2.3-1.3-4.6-2.3-7-3.1s-4.6-1.2-6.7-1.2c-2.6,0-4.6,0.5-6.1,1.6c-1.5,1-2.2,2.6-2.2,4.7
		c0,1.4,0.6,2.7,1.7,3.8c1.1,1.1,2.6,2.1,4.3,3c1.8,0.9,3.6,1.7,5.5,2.4c1.7,0.7,3.5,1.4,5.2,2.3c1.7,0.9,3.3,2,4.6,3.4
		c1.4,1.3,2.5,3,3.3,5s1.2,4.4,1.2,7.3c0,3.1-0.8,5.9-2.4,8.5c-1.6,2.6-3.9,4.7-7,6.4s-6.8,2.4-11.3,2.4c-2.3,0-4.6-0.2-7-0.7
		s-4.7-1.2-7-2.1c-2.3-1-4.5-2.2-6.6-3.6l5.2-9.3c1.4,1,3,2,4.6,2.7c1.7,0.8,3.3,1.4,5,1.8c1.7,0.4,3.3,0.7,4.7,0.7s2.9-0.2,4.3-0.6
		c1.4-0.4,2.7-1.1,3.6-2.1c1-1,1.4-2.3,1.4-4.1c0-1.2-0.4-2.3-1.2-3.3s-1.9-1.9-3.2-2.7s-2.8-1.5-4.4-2.1c-1.9-0.7-3.8-1.5-5.7-2.5
		c-2-0.9-3.8-2.1-5.5-3.4c-1.7-1.3-3.1-3-4.2-5c-1.1-2-1.6-4.4-1.6-7.3c0-3.5,0.8-6.5,2.3-9.1c1.6-2.6,3.8-4.6,6.6-6.1
		s6.1-2.3,9.8-2.5c4.9,0,8.8,0.6,11.8,1.7s5.8,2.5,8.2,4.1L252.7,134.9z"/>
	<path class="st0" d="M264.1,120.3h40.7v11.5h-14.7v48.9h-11.9v-48.9h-14.1V120.3z"/>
	<path class="st0" d="M326.9,158.3c0,1.9,0.6,3.7,1.7,5.5s2.7,3.2,4.6,4.3s3.9,1.6,6.2,1.6c2.5,0,4.6-0.5,6.6-1.6
		c1.9-1.1,3.4-2.5,4.6-4.3c1.1-1.7,1.7-3.6,1.7-5.5v-38H364v38.3c0,4.4-1.1,8.4-3.3,11.8c-2.2,3.4-5.1,6.1-8.9,8
		c-3.7,1.9-7.8,2.9-12.4,2.9c-4.5,0-8.6-1-12.3-2.9c-3.7-1.9-6.6-4.6-8.8-8c-2.2-3.4-3.3-7.3-3.3-11.8v-38.3h11.9L326.9,158.3
		L326.9,158.3z"/>
	<path class="st0" d="M378.3,180.6v-60.4h18c6.1,0,11.2,0.9,15.5,2.7s7.7,4.2,10.3,7.2c2.6,3,4.5,6.4,5.7,10.1
		c1.2,3.7,1.8,7.5,1.8,11.2c0,4.5-0.8,8.5-2.4,12.1s-3.8,6.6-6.6,9.2c-2.8,2.5-6,4.5-9.7,5.8s-7.5,2-11.6,2L378.3,180.6L378.3,180.6
		z M390.2,169.1h7.1c3,0,5.7-0.4,8.2-1.2s4.6-2,6.4-3.5s3.1-3.5,4.1-5.8s1.4-5,1.4-8c0-3.9-0.6-7.1-1.9-9.6s-2.9-4.4-4.8-5.8
		c-1.9-1.4-3.8-2.3-5.8-2.8s-3.6-0.8-5-0.8h-9.7L390.2,169.1L390.2,169.1z"/>
	<path class="st0" d="M441.5,120.3h11.9v60.4h-11.9V120.3z"/>
	<path class="st0" d="M465.3,150.5c0-4.2,0.8-8.1,2.4-11.8s3.8-7,6.6-9.9c2.8-2.9,6.1-5.1,9.8-6.8c3.7-1.6,7.7-2.5,12-2.5
		c4.2,0,8.2,0.8,11.9,2.5c3.7,1.6,7,3.9,9.9,6.8c2.9,2.9,5.1,6.2,6.7,9.9c1.6,3.7,2.4,7.7,2.4,11.8c0,4.3-0.8,8.3-2.4,12
		c-1.6,3.7-3.9,7-6.7,9.8c-2.9,2.8-6.2,5-9.9,6.6c-3.7,1.6-7.7,2.4-11.9,2.4c-4.3,0-8.3-0.8-12-2.4c-3.7-1.6-7-3.8-9.8-6.6
		s-5-6.1-6.6-9.8C466.1,158.8,465.3,154.8,465.3,150.5z M477.6,150.5c0,2.7,0.5,5.2,1.4,7.5c1,2.3,2.3,4.4,4,6.1
		c1.7,1.8,3.7,3.2,6,4.1c2.3,1,4.7,1.5,7.4,1.5c2.6,0,5-0.5,7.2-1.5s4.1-2.4,5.8-4.1c1.6-1.8,2.9-3.8,3.9-6.1
		c0.9-2.3,1.4-4.8,1.4-7.5s-0.5-5.3-1.4-7.6c-1-2.3-2.3-4.4-3.9-6.2c-1.7-1.8-3.6-3.2-5.9-4.1c-2.2-1-4.7-1.5-7.3-1.5
		s-5.1,0.5-7.3,1.5c-2.2,1-4.2,2.4-5.9,4.1c-1.7,1.8-3,3.8-3.9,6.2C478,145.2,477.6,147.8,477.6,150.5z"/>
</g>
</svg>
