<svg width="762" height="555" viewBox="0 0 762 555" fill="none" xmlns="http://www.w3.org/2000/svg">
<g clip-path="url(#clip0_18_153)">
<path opacity="0.18" d="M614.923 546.876H526.543C524.562 546.876 522.955 548.484 522.955 550.467V551.409C522.955 553.392 524.562 555 526.543 555H614.923C616.905 555 618.512 553.392 618.512 551.409V550.467C618.512 548.484 616.905 546.876 614.923 546.876Z" fill="#1D2741"/>
<path d="M355.506 4.98039C326.306 14.0179 300.518 31.3841 275.429 48.8622C208.73 95.3586 143.83 144.311 80.7285 195.719C59.1344 213.3 37.4191 231.552 22.526 255.102C-4.02622 297.072 -5.34032 351.427 9.39436 398.853C24.129 446.279 53.2722 487.848 84.7826 526.209C91.5954 534.5 98.8463 542.922 108.539 547.501C118.232 552.081 129.583 552.323 140.413 551.997C202.213 550.131 262.652 534.136 324.014 526.815C419.263 515.408 515.583 524.95 611.475 527.747C648.037 528.801 686.966 528.242 717.787 508.497C748.607 488.753 766.25 450.234 761.068 413.981C756.566 382.392 736.78 354.972 729.381 323.933C719.707 283.39 731.934 240.608 726.38 199.291C718.374 139.088 672.828 89.2185 619.583 60.1381C575.929 36.2712 526.301 23.102 477.596 14.1671C437.269 6.78043 396.205 -7.6199 355.506 4.98039Z" fill="#AED0FF"/>
<path d="M437.539 375.444H274.395V502.416H437.539V375.444Z" fill="#1E90FF"/>
<path d="M437.539 375.444H274.395V502.416H437.539V375.444Z" fill="url(#paint0_linear_18_153)"/>
<path d="M694.422 86.4579V410.624C694.422 422.408 689.744 433.709 681.417 442.042C673.091 450.375 661.798 455.056 650.022 455.056H89.1909C77.4145 455.056 66.1203 450.375 57.7923 442.042C49.4642 433.71 44.7843 422.409 44.7819 410.624V86.4579C44.7819 80.6222 45.9306 74.8437 48.1625 69.4523C50.3944 64.061 53.6657 59.1624 57.7895 55.0364C61.9134 50.9104 66.8091 47.6377 72.197 45.4053C77.5849 43.173 83.3595 42.0246 89.1909 42.0258H650.022C655.853 42.0246 661.627 43.173 667.015 45.4055C672.402 47.638 677.297 50.9108 681.42 55.0369C685.543 59.1631 688.814 64.0617 691.044 69.453C693.275 74.8443 694.423 80.6227 694.422 86.4579Z" fill="#1E90FF"/>
<path d="M694.422 86.4579V410.624C694.422 422.408 689.744 433.709 681.417 442.042C673.091 450.375 661.798 455.056 650.022 455.056H89.1909C79.4191 455.078 69.915 451.861 62.1634 445.906C56.2096 438.151 52.9941 428.639 53.0206 418.859V94.7306C53.0206 82.9465 57.6984 71.645 66.025 63.3124C74.3516 54.9798 85.6448 50.2985 97.4204 50.2985H658.298C668.071 50.2699 677.577 53.4879 685.326 59.448C691.251 67.2011 694.449 76.6971 694.422 86.4579Z" fill="url(#paint1_linear_18_153)"/>
<path d="M694.422 375.444V410.624C694.422 422.408 689.744 433.709 681.417 442.042C673.091 450.375 661.798 455.056 650.022 455.056H89.1909C83.3595 455.057 77.5849 453.909 72.197 451.676C66.8091 449.444 61.9134 446.171 57.7895 442.045C53.6657 437.919 50.3944 433.021 48.1625 427.629C45.9306 422.238 44.7819 416.459 44.7819 410.624V375.444H694.422Z" fill="url(#paint2_linear_18_153)"/>
<path opacity="0.33" d="M608.726 399.432C608.883 411.545 607.403 423.623 604.327 435.339C602.743 441.364 600.673 447.464 596.796 452.304C596.001 453.31 595.122 454.246 594.168 455.102H530.542C533.123 443.91 536.73 429.864 535.462 428.214C529.703 420.678 527.503 411.081 525.509 401.801C523.841 394.032 522.219 386.057 523.309 378.176C523.44 377.244 523.598 376.311 523.785 375.481C526.497 363.039 546.842 360.437 555.584 360.316L563.04 375.481C563.04 382.812 594.578 355.998 600.105 361.883C603.274 365.259 605.268 370.137 606.526 375.481C608.4 383.576 608.642 392.819 608.726 399.432Z" fill="url(#paint3_linear_18_153)"/>
<path d="M543.235 390.198L533.282 368.822C540.059 364.483 547.647 361.57 555.584 360.26C556.35 360.045 557.168 360.114 557.886 360.456C558.349 360.816 558.709 361.292 558.93 361.836C563.012 369.801 567.094 377.775 570.365 386.085C571.894 389.965 573.245 394.246 572.006 398.21C570.486 403.078 565.612 405.97 561.12 408.376C546.889 416.07 547.513 399.432 543.235 390.198Z" fill="white"/>
<path opacity="0.09" d="M563.925 384.369C560.962 389.275 559.014 394.722 556.311 399.777C555.854 400.626 555.165 401.596 554.205 401.493C553.801 401.423 553.422 401.249 553.105 400.989C550.197 399 547.477 396.749 544.978 394.265C544.978 399.758 548.324 404.627 551.502 409.113C551.707 409.453 551.991 409.738 552.331 409.943C552.627 410.062 552.945 410.116 553.263 410.101C556.976 410.127 560.625 409.133 563.813 407.229C564.019 407.133 564.193 406.981 564.317 406.79C564.415 406.574 564.453 406.336 564.429 406.1C564.326 400.737 563.804 395.141 565.91 390.245C566.553 388.734 567.439 387.326 567.951 385.759C568.287 384.724 568.958 381.403 567.299 381.04C566.013 380.713 564.466 383.474 563.925 384.369Z" fill="url(#paint4_linear_18_153)"/>
<path d="M494.837 505.69C494.842 507.123 494.577 508.544 494.054 509.878C493.214 512.076 491.725 513.967 489.786 515.3C487.847 516.632 485.549 517.343 483.197 517.339H228.765C226.414 517.339 224.117 516.627 222.179 515.295C220.241 513.963 218.751 512.074 217.907 509.878C217.385 508.544 217.119 507.123 217.124 505.69C217.123 504.16 217.424 502.645 218.008 501.231C218.593 499.817 219.45 498.532 220.531 497.45C221.612 496.368 222.896 495.51 224.309 494.925C225.722 494.34 227.236 494.04 228.765 494.041H483.197C484.725 494.041 486.239 494.342 487.651 494.928C489.064 495.513 490.347 496.371 491.428 497.453C492.509 498.535 493.366 499.819 493.951 501.232C494.536 502.646 494.837 504.16 494.837 505.69Z" fill="#1E90FF"/>
<path d="M494.837 505.69C494.842 507.123 494.577 508.544 494.054 509.878C493.214 512.076 491.725 513.967 489.786 515.3C487.847 516.632 485.549 517.343 483.197 517.339H228.765C226.414 517.339 224.117 516.627 222.179 515.295C220.241 513.963 218.751 512.074 217.907 509.878C217.385 508.544 217.119 507.123 217.124 505.69C217.123 504.16 217.424 502.645 218.008 501.231C218.593 499.817 219.45 498.532 220.531 497.45C221.612 496.368 222.896 495.51 224.309 494.925C225.722 494.34 227.236 494.04 228.765 494.041H483.197C484.725 494.041 486.239 494.342 487.651 494.928C489.064 495.513 490.347 496.371 491.428 497.453C492.509 498.535 493.366 499.819 493.951 501.232C494.536 502.646 494.837 504.16 494.837 505.69Z" fill="url(#paint5_linear_18_153)"/>
<path d="M494.054 509.878C493.214 512.076 491.725 513.967 489.786 515.3C487.847 516.632 485.549 517.343 483.197 517.339H228.765C226.414 517.339 224.117 516.627 222.179 515.295C220.241 513.963 218.751 512.074 217.907 509.878C218.484 508.353 219.38 506.97 220.536 505.821C221.615 504.737 222.898 503.878 224.31 503.292C225.722 502.706 227.236 502.406 228.765 502.407H483.197C485.549 502.407 487.846 503.122 489.785 504.455C491.723 505.789 493.212 507.68 494.054 509.878Z" fill="#2F80ED"/>
<path d="M269.232 218.281C269.243 229.41 266.805 240.405 262.09 250.484C257.375 260.564 250.5 269.48 241.953 276.6L225.671 257.312C233.693 250.654 239.469 241.683 242.21 231.62C244.952 221.558 244.527 210.894 240.992 201.082C237.457 191.27 230.985 182.788 222.457 176.791C213.93 170.795 203.762 167.575 193.34 167.572C192.52 167.572 191.709 167.572 190.898 167.637V142.38C191.709 142.38 192.52 142.38 193.34 142.38C213.46 142.38 232.756 150.375 246.987 164.608C261.218 178.841 269.219 198.146 269.232 218.281Z" fill="url(#paint6_linear_18_153)"/>
<path d="M241.953 276.6C228.324 288.013 211.111 294.255 193.34 294.227C192.52 294.227 191.709 294.227 190.898 294.181V268.924C191.709 268.924 192.52 268.98 193.34 268.98C205.149 268.994 216.589 264.866 225.671 257.312L241.953 276.6Z" fill="url(#paint7_linear_18_153)"/>
<path d="M645.166 237.876H326.39V239.732H645.166V237.876Z" fill="url(#paint8_linear_18_153)"/>
<path d="M322.905 171.144C322.905 171.144 383.549 162.069 398.88 134.872C414.211 107.676 445.582 101.39 470.643 153.003C495.704 204.617 536.171 209.504 550.794 192.063C565.416 174.623 584.252 111.854 610.04 110.455C635.828 109.056 645.129 159.28 645.129 159.28V222.757H326.39L322.905 171.144Z" fill="#1E90FF"/>
<path d="M425.367 262.992H328.711V269.969H425.367V262.992Z" fill="url(#paint9_linear_18_153)"/>
<path d="M425.367 283.539H328.711V290.515H425.367V283.539Z" fill="url(#paint10_linear_18_153)"/>
<path d="M425.367 304.086H328.711V311.062H425.367V304.086Z" fill="url(#paint11_linear_18_153)"/>
<path d="M481.594 262.992H469.515V269.969H481.594V262.992Z" fill="#1E90FF"/>
<path d="M481.594 283.539H469.515V290.515H481.594V283.539Z" fill="#1E90FF"/>
<path d="M481.594 304.086H469.515V311.062H481.594V304.086Z" fill="#1E90FF"/>
<path d="M584.224 338.948C584.224 338.948 596.032 316.63 604.234 318.271C612.435 319.913 620.637 328.447 618.008 335.013C615.38 341.579 601.782 353.731 601.363 359.635C600.944 365.539 591.111 362.918 591.111 362.918L589.471 350.439C589.471 350.439 583.562 345.188 584.224 338.948Z" fill="url(#paint12_linear_18_153)"/>
<path d="M605.352 313.011C607.775 312.228 610.403 312.573 612.882 313.104C615.362 313.636 618.055 314.476 619.835 316.369C622.361 319.055 622.556 323.131 624.038 326.516C625.315 329.445 627.608 331.944 628.316 335.059C628.855 337.751 628.338 340.546 626.872 342.866C625.404 345.159 623.385 347.048 621 348.359C618.912 349.572 616.629 350.448 614.607 351.773C612.584 353.097 611.018 354.72 609.136 356.072C607.313 357.549 605.021 358.32 602.677 358.245C601.776 358.187 600.92 357.829 600.245 357.229C598.987 356.016 599.052 354.011 599.192 352.267C599.378 350.159 599.558 348.048 599.732 345.934C601.013 345.996 602.294 345.829 603.516 345.44C604.125 345.235 604.669 344.875 605.094 344.393C605.519 343.912 605.811 343.327 605.939 342.698C606.191 340.833 604.29 339.182 602.388 338.967C600.487 338.753 598.66 339.592 596.927 340.394C596.2 338.893 597.272 337.167 598.344 335.88C599.862 334.075 601.5 332.374 603.246 330.788C603.864 330.332 604.342 329.712 604.625 328.997C605.11 327.281 603.386 325.854 602.649 324.502C602.102 323.358 601.686 322.157 601.41 320.92C600.366 317.357 601.577 314.224 605.352 313.011Z" fill="#3F3D56"/>
<path d="M615.073 430.443C614.607 433.53 614.019 436.682 612.454 439.387C607.794 447.399 596.862 448.592 587.598 448.397C583.115 448.313 578.185 447.884 574.401 445.748C572.946 444.962 571.675 443.874 570.673 442.558C568.138 439.154 567.877 434.603 567.998 430.359C568.138 425.966 568.557 421.471 568.623 417.05C568.706 411.575 568.231 406.212 565.994 401.278C564.773 398.574 570.151 388.846 571.279 386.095C573.096 381.683 567.458 384.435 569.275 380.023C571.279 375.164 573.404 370.137 577.337 366.686C583.432 361.37 592.248 361.043 600.357 360.997C601.661 360.997 603.469 361.594 603.153 362.862C609.369 364.569 612.687 374.614 613.936 380.928C617.162 397.244 617.547 413.996 615.073 430.443Z" fill="#1E90FF"/>
<path d="M581.316 445.328C579.031 445.702 576.714 445.842 574.401 445.748C572.946 444.962 571.675 443.874 570.673 442.558C568.138 439.154 567.877 434.603 567.998 430.359C568.138 425.966 568.557 421.471 568.623 417.05L581.288 391.597C581.288 391.597 585.79 444.368 581.316 445.328Z" fill="url(#paint13_linear_18_153)"/>
<path d="M596.685 447.986L606.004 445.328C606.004 445.328 608.586 448.024 606.004 458.609C603.423 469.195 602.612 542.81 602.612 542.81L594.224 542.763L586.768 474.362C586.768 474.362 570.533 532.467 569.545 542.81H559.62C559.62 542.81 563.087 450.15 570.701 442.558C570.701 442.558 575.202 444.759 596.685 447.986Z" fill="#3F3D56"/>
<path d="M566.246 387.746C566.246 387.746 562.695 414.028 558.156 413.618C553.618 413.207 545.789 397.333 545.789 397.333C544.015 398.003 542.499 399.219 541.461 400.807C540.422 402.394 539.914 404.271 540.011 406.166C540.011 413.207 547.019 419.81 547.019 419.81C547.019 419.81 567.234 434.257 572.984 422.748C578.735 411.239 582.584 383.53 582.584 383.53C582.584 383.53 591.102 362.079 582.518 363.543C570.775 365.455 566.246 387.746 566.246 387.746Z" fill="#1E90FF"/>
<path d="M540.076 395.169C538.587 391.378 538.442 387.191 539.666 383.306C540.223 383.674 540.635 384.224 540.831 384.863L543.347 390.581C544.188 389.843 544.919 388.988 545.519 388.044C545.824 388.227 546.066 388.5 546.211 388.825C546.356 389.151 546.397 389.513 546.329 389.863C546.176 390.559 545.957 391.24 545.677 391.896C545.237 393.717 545.212 395.613 545.602 397.445C544.976 398.017 544.313 398.547 543.617 399.031C543.021 399.441 542.238 400.224 541.753 399.711C541.269 399.198 541.222 397.902 540.98 397.324C540.737 396.746 540.365 395.897 540.076 395.169Z" fill="url(#paint14_linear_18_153)"/>
<path d="M569.461 542.81L568.231 552.696H546.087C546.087 552.696 547.569 545.767 559.619 542.81H569.461ZM602.957 542.81L603.74 552.696H579.583C579.583 552.696 581.055 545.767 593.115 542.81H602.957Z" fill="#3F3D56"/>
</g>
<defs>
<linearGradient id="paint0_linear_18_153" x1="354.965" y1="367.208" x2="356.86" y2="502.23" gradientUnits="userSpaceOnUse">
<stop offset="0.01"/>
<stop offset="0.97" stop-color="#3F3D56" stop-opacity="0"/>
</linearGradient>
<linearGradient id="paint1_linear_18_153" x1="381.555" y1="392.996" x2="355.104" y2="-80.981" gradientUnits="userSpaceOnUse">
<stop offset="0.03" stop-color="white" stop-opacity="0.34"/>
<stop offset="1" stop-color="white"/>
</linearGradient>
<linearGradient id="paint2_linear_18_153" x1="579679" y1="-35165.8" x2="572321" y2="71252.8" gradientUnits="userSpaceOnUse">
<stop offset="0.01" stop-color="#2D9CDB"/>
<stop offset="0.97" stop-color="#3F3D56" stop-opacity="0"/>
</linearGradient>
<linearGradient id="paint3_linear_18_153" x1="522.955" y1="407.667" x2="608.744" y2="407.667" gradientUnits="userSpaceOnUse">
<stop stop-color="#183866"/>
<stop offset="1" stop-color="#1A7FC1"/>
</linearGradient>
<linearGradient id="paint4_linear_18_153" x1="14300.2" y1="12681.2" x2="14887.8" y2="12681.2" gradientUnits="userSpaceOnUse">
<stop stop-color="#183866"/>
<stop offset="1" stop-color="#1A7FC1"/>
</linearGradient>
<linearGradient id="paint5_linear_18_153" x1="107525" y1="12128.1" x2="107523" y2="13239.2" gradientUnits="userSpaceOnUse">
<stop offset="0.01" stop-color="#569EFF"/>
<stop offset="0.97" stop-color="#3F3D56" stop-opacity="0"/>
</linearGradient>
<linearGradient id="paint6_linear_18_153" x1="25534.9" y1="17722.5" x2="20922.6" y2="20556.3" gradientUnits="userSpaceOnUse">
<stop offset="0.03" stop-color="#8E6B00"/>
<stop offset="1" stop-color="white"/>
</linearGradient>
<linearGradient id="paint7_linear_18_153" x1="10197.5" y1="7808.63" x2="11958.4" y2="13997" gradientUnits="userSpaceOnUse">
<stop offset="0.03" stop-color="white" stop-opacity="0"/>
<stop offset="1" stop-color="white"/>
</linearGradient>
<linearGradient id="paint8_linear_18_153" x1="424.65" y1="99.1979" x2="511.766" y2="297.865" gradientUnits="userSpaceOnUse">
<stop stop-color="#68E1FD"/>
<stop offset="1" stop-color="white"/>
</linearGradient>
<linearGradient id="paint9_linear_18_153" x1="39198" y1="893.021" x2="39199.5" y2="2602.4" gradientUnits="userSpaceOnUse">
<stop offset="0.03" stop-color="white" stop-opacity="0"/>
<stop offset="1" stop-color="white"/>
</linearGradient>
<linearGradient id="paint10_linear_18_153" x1="376.447" y1="239.219" x2="379.285" y2="467.712" gradientUnits="userSpaceOnUse">
<stop offset="0.03" stop-color="white" stop-opacity="0"/>
<stop offset="0.45" stop-color="white" stop-opacity="0.45"/>
<stop offset="1" stop-color="white"/>
</linearGradient>
<linearGradient id="paint11_linear_18_153" x1="39343.9" y1="2093.43" x2="39345.5" y2="3802.82" gradientUnits="userSpaceOnUse">
<stop offset="0.03" stop-color="white" stop-opacity="0"/>
<stop offset="1" stop-color="white"/>
</linearGradient>
<linearGradient id="paint12_linear_18_153" x1="584.168" y1="340.842" x2="618.512" y2="340.842" gradientUnits="userSpaceOnUse">
<stop stop-color="#ECC4D7"/>
<stop offset="0.16" stop-color="#EDCBD5"/>
<stop offset="0.42" stop-color="#EFD4D1"/>
<stop offset="0.7" stop-color="#F2EAC9"/>
</linearGradient>
<linearGradient id="paint13_linear_18_153" x1="9191.11" y1="25231.5" x2="10349.2" y2="25175" gradientUnits="userSpaceOnUse">
<stop offset="0.01"/>
<stop offset="0.97" stop-color="#3F3D56" stop-opacity="0"/>
</linearGradient>
<linearGradient id="paint14_linear_18_153" x1="4909.66" y1="7321.22" x2="4970.18" y2="7321.22" gradientUnits="userSpaceOnUse">
<stop stop-color="#ECC4D7"/>
<stop offset="0.16" stop-color="#EDCBD5"/>
<stop offset="0.42" stop-color="#EFD4D1"/>
<stop offset="0.7" stop-color="#F2EAC9"/>
</linearGradient>
<clipPath id="clip0_18_153">
<rect width="762" height="555" fill="white"/>
</clipPath>
</defs>
</svg>
