<?xml version="1.0" encoding="utf-8"?>
<!-- Generator: Adobe Illustrator 23.0.0, SVG Export Plug-In . SVG Version: 6.00 Build 0)  -->
<svg version="1.1" id="Objects" xmlns="http://www.w3.org/2000/svg" xmlns:xlink="http://www.w3.org/1999/xlink" x="0px" y="0px"
	 viewBox="0 0 288.7 263.7" style="enable-background:new 0 0 288.7 263.7;" xml:space="preserve">
<style type="text/css">
	.st0{fill:#5CB3C4;}
	.st1{fill:#E7F9FF;}
	.st2{fill:#C0E5F0;}
	.st3{fill:#9BC8D3;}
	.st4{fill:#71A5DC;}
	.st5{fill:#020D31;}
	.st6{fill:url(#SVGID_1_);}
	.st7{fill:#1F76B7;}
	.st8{fill:url(#SVGID_2_);}
	.st9{fill:#4299CE;}
	.st10{fill:#12567F;}
	.st11{fill:#196084;}
	.st12{fill:#9693D1;}
	.st13{fill:#8780C2;}
	.st14{fill:#5A5A84;}
	.st15{fill:#FCE9A1;}
	.st16{fill:#DA9429;}
	.st17{fill:#FCD14A;}
	.st18{fill:#BBE4EF;}
	.st19{fill:#FFFFFF;}
	.st20{fill:#083449;}
	.st21{fill:url(#SVGID_3_);}
</style>
<g>
	<path class="st0" d="M128.2,209.4l130.9-8.3c6.3-0.4,9.7-7,6.2-11.8l-58.1-79.4l-156.6,9.9l59.6,81.5
		C114.3,206.7,121.1,209.8,128.2,209.4z"/>
	<path class="st0" d="M265.9,197c0,0,2.4-4.5,2.4-4.5l-2.5-0.5l-2.6,4.9L265.9,197z"/>
	<polygon class="st0" points="50.7,119.8 52.8,115.7 60.9,126.7 58.7,130.7 	"/>
	<path class="st1" d="M130.3,205.3l130.9-8.3c6.3-0.4,9.7-7,6.2-11.8l-58.1-79.4l-156.6,9.9l59.6,81.5
		C116.4,202.7,123.2,205.8,130.3,205.3z"/>
	<polygon class="st2" points="110.3,174.6 240.6,166.3 201.3,113.7 71,122 	"/>
	<polygon class="st3" points="238.5,166.4 240.6,166.3 201.3,113.7 71,122 72.2,123.5 200.4,115.4 	"/>
	<g>
		<g>
			<polygon class="st4" points="80.7,125.9 83.9,130.3 89.7,130 86.5,125.6 			"/>
			<polygon class="st4" points="88.1,125.4 91.3,129.9 97.1,129.5 93.9,125.1 			"/>
			<polygon class="st4" points="95.5,124.9 98.7,129.4 104.5,129.1 101.3,124.6 			"/>
			<polygon class="st4" points="102.9,124.4 106.1,128.9 111.9,128.6 108.7,124.1 			"/>
			<polygon class="st4" points="110.3,124 113.5,128.4 119.3,128.1 116.1,123.7 			"/>
			<polygon class="st4" points="117.8,123.5 121,128 126.7,127.6 123.5,123.2 			"/>
			<polygon class="st4" points="125.2,123 128.4,127.5 134.2,127.2 131,122.7 			"/>
			<polygon class="st4" points="132.6,122.5 135.8,127 141.6,126.7 138.4,122.2 			"/>
			<polygon class="st4" points="141.2,122.3 144.4,126.7 150.2,126.4 147,122 			"/>
			<polygon class="st4" points="148.6,121.8 151.8,126.3 157.6,125.9 154.4,121.5 			"/>
			<polygon class="st4" points="156,121.3 159.2,125.8 165,125.5 161.8,121 			"/>
			<polygon class="st4" points="163.4,120.8 166.6,125.3 172.4,125 169.2,120.5 			"/>
			<polygon class="st4" points="170.8,120.4 174,124.8 179.8,124.5 176.6,120.1 			"/>
			<polygon class="st4" points="178.2,119.9 181.4,124.4 187.2,124 184,119.6 			"/>
			<polygon class="st4" points="185.6,119.4 188.8,123.9 194.6,123.6 191.4,119.1 			"/>
			<polygon class="st4" points="193,118.9 196.3,123.4 202,123.1 198.8,118.6 			"/>
		</g>
		<g>
			<polygon class="st4" points="86.8,134.1 90,138.6 95.7,138.3 92.5,133.8 			"/>
			<polygon class="st4" points="94.2,133.6 97.4,138.1 103.2,137.8 100,133.3 			"/>
			<polygon class="st4" points="101.6,133.2 104.8,137.6 110.6,137.3 107.4,132.9 			"/>
			<polygon class="st4" points="109,132.7 112.2,137.2 118,136.8 114.8,132.4 			"/>
			<polygon class="st4" points="116.4,132.2 119.6,136.7 125.4,136.4 122.2,131.9 			"/>
			<polygon class="st4" points="123.8,131.7 127,136.2 132.8,135.9 129.6,131.4 			"/>
			<polygon class="st4" points="131.2,131.3 134.4,135.7 140.2,135.4 137,131 			"/>
			<polygon class="st4" points="138.6,130.8 141.8,135.3 147.6,134.9 144.4,130.5 			"/>
			<polygon class="st4" points="147.2,130.5 150.4,135 156.2,134.7 153,130.2 			"/>
			<polygon class="st4" points="154.6,130.1 157.8,134.5 163.6,134.2 160.4,129.7 			"/>
			<polygon class="st4" points="162,129.6 165.3,134 171,133.7 167.8,129.3 			"/>
			<polygon class="st4" points="169.5,129.1 172.7,133.6 178.5,133.2 175.2,128.8 			"/>
			<polygon class="st4" points="176.9,128.6 180.1,133.1 185.9,132.8 182.7,128.3 			"/>
			<polygon class="st4" points="184.3,128.1 187.5,132.6 193.3,132.3 190.1,127.8 			"/>
			<polygon class="st4" points="191.7,127.7 194.9,132.1 200.7,131.8 197.5,127.4 			"/>
			<polygon class="st4" points="199.1,127.2 202.3,131.7 208.1,131.3 204.9,126.9 			"/>
		</g>
		<g>
			<polygon class="st4" points="92.8,142.4 96,146.8 101.8,146.5 98.6,142.1 			"/>
			<polygon class="st4" points="100.2,141.9 103.4,146.4 109.2,146 106,141.6 			"/>
			<polygon class="st4" points="107.6,141.4 110.8,145.9 116.6,145.6 113.4,141.1 			"/>
			<polygon class="st4" points="115,141 118.2,145.4 124,145.1 120.8,140.6 			"/>
			<polygon class="st4" points="122.4,140.5 125.6,144.9 131.4,144.6 128.2,140.2 			"/>
			<polygon class="st4" points="129.9,140 133.1,144.5 138.8,144.1 135.6,139.7 			"/>
			<polygon class="st4" points="137.3,139.5 140.5,144 146.3,143.7 143.1,139.2 			"/>
			<polygon class="st4" points="144.7,139 147.9,143.5 153.7,143.2 150.5,138.7 			"/>
			<polygon class="st4" points="153.3,138.8 156.5,143.2 162.3,142.9 159.1,138.5 			"/>
			<polygon class="st4" points="160.7,138.3 163.9,142.8 169.7,142.5 166.5,138 			"/>
			<polygon class="st4" points="168.1,137.8 171.3,142.3 177.1,142 173.9,137.5 			"/>
			<polygon class="st4" points="175.5,137.4 178.7,141.8 184.5,141.5 181.3,137 			"/>
			<polygon class="st4" points="182.9,136.9 186.1,141.3 191.9,141 188.7,136.6 			"/>
			<polygon class="st4" points="190.3,136.4 193.5,140.9 199.3,140.5 196.1,136.1 			"/>
			<polygon class="st4" points="197.7,135.9 200.9,140.4 206.7,140.1 203.5,135.6 			"/>
			<polygon class="st4" points="205.1,135.5 208.4,139.9 214.1,139.6 210.9,135.1 			"/>
		</g>
		<g>
			<polygon class="st4" points="99.5,151.3 102.7,155.8 116.5,154.8 113.3,150.4 			"/>
			<polygon class="st4" points="114.3,150.3 117.5,154.8 123.3,154.5 120.1,150 			"/>
			<polygon class="st4" points="121.7,149.9 124.9,154.3 130.7,154 127.5,149.6 			"/>
			<polygon class="st4" points="129.1,149.4 132.4,153.9 138.1,153.5 134.9,149.1 			"/>
			<polygon class="st4" points="136.6,148.9 139.8,153.4 145.6,153.1 142.3,148.6 			"/>
			<polygon class="st4" points="144,148.4 147.2,152.9 153,152.6 149.8,148.1 			"/>
			<polygon class="st4" points="151.4,148 154.6,152.4 160.4,152.1 157.2,147.7 			"/>
			<polygon class="st4" points="160,147.7 163.2,152.2 169,151.8 165.8,147.4 			"/>
			<polygon class="st4" points="167.4,147.2 170.6,151.7 176.4,151.4 173.2,146.9 			"/>
			<polygon class="st4" points="174.8,146.8 178,151.2 183.8,150.9 180.6,146.4 			"/>
			<polygon class="st4" points="182.2,146.3 185.4,150.7 191.2,150.4 188,146 			"/>
			<polygon class="st4" points="189.6,145.8 192.8,150.3 198.6,149.9 195.4,145.5 			"/>
			<polygon class="st4" points="197.6,145.4 200.8,149.8 220.8,148.5 217.6,144.1 			"/>
		</g>
		<g>
			<polygon class="st4" points="106.2,160.2 109.4,164.7 115.2,164.4 112,159.9 			"/>
			<polygon class="st4" points="113.6,159.7 116.8,164.2 122.6,163.9 119.4,159.4 			"/>
			<polygon class="st4" points="121,159.3 124.2,163.7 130,163.4 126.8,158.9 			"/>
			<polygon class="st4" points="128.4,158.8 131.6,163.3 137.4,162.9 134.2,158.5 			"/>
			<polygon class="st4" points="135.9,158.3 139.1,162.8 144.8,162.5 141.6,158 			"/>
			<polygon class="st4" points="143.9,157.9 147.1,162.3 190.8,159.8 187.5,155.3 			"/>
			<polygon class="st4" points="188.9,155.2 192.1,159.7 197.9,159.3 194.7,154.9 			"/>
			<polygon class="st4" points="196.3,154.7 199.5,159.2 205.3,158.9 202.1,154.4 			"/>
			<polygon class="st4" points="203.7,154.2 206.9,158.7 212.7,158.4 209.5,153.9 			"/>
			<polygon class="st4" points="211.1,153.8 214.4,158.2 220.1,157.9 216.9,153.4 			"/>
			<polygon class="st4" points="218.6,153.3 221.8,157.8 227.6,157.4 224.3,153 			"/>
		</g>
	</g>
	<polygon class="st2" points="163.2,178.4 174.7,194.2 215.7,191.6 204.1,175.9 	"/>
	<polygon class="st3" points="214.6,191.7 215.7,191.6 204.1,175.9 163.2,178.4 163.9,179.4 203.7,177 	"/>
	<path class="st5" d="M52.5,105.6l-2.9-90.9c-0.2-5.4,4.5-9.9,10.4-10l141.9-1.2c5.9-0.1,10.7,4.5,10.6,10L209.7,97
		c-0.2,5-4.4,9-9.8,9.4l-134.8,8.5l-1.5,0.1C57.8,115.4,52.7,111.1,52.5,105.6z"/>
	<polyline class="st5" points="209.7,96 209.7,97 209.4,105.8 198.3,106.5 	"/>
	
		<linearGradient id="SVGID_1_" gradientUnits="userSpaceOnUse" x1="714.391" y1="113.764" x2="881.0186" y2="113.764" gradientTransform="matrix(-0.8991 -0.4378 -0.4378 0.8991 896.5173 304.9123)">
		<stop  offset="0" style="stop-color:#BBE4EF"/>
		<stop  offset="1" style="stop-color:#33ABD4"/>
	</linearGradient>
	<polygon class="st6" points="201.4,100.7 203.8,11 59.4,11.6 63.1,108.7 	"/>
	<g>
		<polygon class="st7" points="148.9,89.1 166.5,88.1 163.9,50.7 146.3,51.7 		"/>
		<polygon class="st7" points="128.2,90.4 145.8,89.3 144,62.6 126.4,63.6 		"/>
		<polygon class="st7" points="107.5,91.6 125.2,90.5 123.9,72.7 106.3,73.8 		"/>
		<path class="st7" d="M141.8,29.4l5.8,2.2c-10.3,27.5-41.9,27-41.9,27c30.9,4.4,41.9-11.1,48.7-23.5l5.8,2.8l-3.9-15.2L141.8,29.4z
			"/>
		<polygon class="st7" points="104.4,97.3 170.7,93.4 170.5,90.4 104.2,94.3 		"/>
	</g>
	
		<linearGradient id="SVGID_2_" gradientUnits="userSpaceOnUse" x1="732.6453" y1="108.6769" x2="954.3436" y2="108.6769" gradientTransform="matrix(-0.8991 -0.4378 -0.4378 0.8991 896.5173 304.9123)">
		<stop  offset="0" style="stop-color:#BBE4EF"/>
		<stop  offset="1" style="stop-color:#33ABD4"/>
	</linearGradient>
	<path class="st8" d="M203.8,11l-0.5,19.4C173.1,36,99.3,51.7,62.7,97.2l-3.2-85.6L203.8,11z"/>
	<g>
		<g>
			<g>
				<polygon class="st9" points="271.8,93.4 262,94.1 256.6,86.6 266.3,85.9 				"/>
				<polygon class="st10" points="262,94.1 230.2,154.7 240,154.1 271.8,93.4 				"/>
				<polygon class="st7" points="256.6,86.6 224.7,147.2 230.2,154.7 262,94.1 				"/>
			</g>
		</g>
		<g>
			<g>
				<polygon class="st9" points="252.6,98.4 242.9,99 237.4,91.5 247.2,90.9 				"/>
				<polygon class="st11" points="242.9,99 213.1,155.8 222.8,155.2 252.6,98.4 				"/>
				<polygon class="st7" points="237.4,91.5 207.6,148.3 213.1,155.8 242.9,99 				"/>
			</g>
		</g>
		<g>
			<g>
				<polygon class="st12" points="233.2,103.8 223.5,104.5 218,96.9 227.8,96.3 				"/>
				<polygon class="st13" points="223.5,104.5 196,156.7 205.8,156.1 233.2,103.8 				"/>
				<polygon class="st14" points="218,96.9 190.5,149.2 196,156.7 223.5,104.5 				"/>
			</g>
		</g>
		<g>
			<g>
				<polygon class="st15" points="213.8,109.3 204,109.9 198.6,102.4 208.3,101.8 				"/>
				<polygon class="st16" points="204,109.9 178.9,157.7 188.7,157.1 213.8,109.3 				"/>
				<polygon class="st17" points="198.6,102.4 173.4,150.3 178.9,157.7 204,109.9 				"/>
			</g>
		</g>
		<g>
			<g>
				<polygon class="st9" points="193.4,116.5 183.7,117.2 178.2,109.7 188,109 				"/>
				<polygon class="st10" points="183.7,117.2 161.8,158.8 171.5,158.2 193.4,116.5 				"/>
				<polygon class="st7" points="178.2,109.7 156.3,151.3 161.8,158.8 183.7,117.2 				"/>
			</g>
		</g>
		<g>
			<g>
				<polygon class="st9" points="173.9,122.1 164.2,122.8 158.7,115.2 168.5,114.6 				"/>
				<polygon class="st11" points="164.2,122.8 144.7,159.9 154.4,159.3 173.9,122.1 				"/>
				<polygon class="st7" points="158.7,115.2 139.2,152.4 144.7,159.9 164.2,122.8 				"/>
			</g>
		</g>
		<g>
			<g>
				<polygon class="st12" points="153.9,128.8 144.1,129.4 138.6,121.9 148.4,121.3 				"/>
				<polygon class="st13" points="144.1,129.4 127.6,160.9 137.3,160.3 153.9,128.8 				"/>
				<polygon class="st14" points="138.6,121.9 122.1,153.4 127.6,160.9 144.1,129.4 				"/>
			</g>
		</g>
		<g>
			<g>
				<polygon class="st15" points="133.7,135.7 123.9,136.3 118.4,128.8 128.2,128.2 				"/>
				<polygon class="st16" points="123.9,136.3 110.5,161.8 120.3,161.2 133.7,135.7 				"/>
				<polygon class="st17" points="118.4,128.8 105,154.3 110.5,161.8 123.9,136.3 				"/>
			</g>
		</g>
		<g>
			<g>
				<polygon class="st9" points="113.5,142.7 103.7,143.3 98.2,135.8 108,135.2 				"/>
				<polygon class="st10" points="103.7,143.3 93.3,163 103.1,162.4 113.5,142.7 				"/>
				<polygon class="st7" points="98.2,135.8 87.8,155.6 93.3,163 103.7,143.3 				"/>
			</g>
		</g>
	</g>
	<g>
		<path class="st10" d="M72.8,167.6l63-4.1c3.3-0.2,5.7,3,4.2,5.8l-11.5,22c-0.7,1.3-2.1,2.2-3.6,2.3l-40.7,2.7l0.2,9.5L72.1,197
			l-10.2,0.7c-3.3,0.2-5.7-3-4.2-5.8l11.6-22C69.9,168.6,71.3,167.7,72.8,167.6z"/>
		<path class="st10" d="M143,169.4l-3.8-4.7c0,0-3.9,0.7-3.8,0.8C135.4,165.6,143,169.4,143,169.4z"/>
		<polygon class="st10" points="61.2,199.9 58.2,196.2 62.1,196.7 		"/>
		<path class="st7" d="M75.9,171.4l63-4.1c3.3-0.2,5.7,3,4.2,5.8l-11.5,22c-0.7,1.3-2.1,2.2-3.6,2.3L87.2,200l0.2,9.5l-12.2-8.8
			l-10.2,0.7c-3.3,0.2-5.7-3-4.2-5.8l11.6-22C73,172.3,74.3,171.5,75.9,171.4z"/>
	</g>
	<g>
		<path class="st18" d="M14.9,126.4l24.3,23.1c0,0,6.2,4.6,9.7-0.4l2.1-4.3c0,0,0.3-2.2-4.4-6.7c-4.7-4.5-18.7-17.3-18.7-17.3
			S19,122,14.9,126.4z"/>
		<path class="st5" d="M44.4,143.1c-4.2-3.9-15.8-14.9-22.2-20.9c3-1,5.6-1.3,5.6-1.3s14,12.8,18.7,17.3c4.7,4.5,4.4,6.7,4.4,6.7
			l-2.1,4.3c-0.4,0.5-0.7,0.9-1.1,1.2C48.2,149.9,49.6,147.9,44.4,143.1z"/>
		<path class="st19" d="M63.2,69.4L25,95.3l-10.7,1c0,0-11.2,3.9-10.3,17.8c0.9,13.9,13,15,21.4,12.1l39.9,16.2
			c0,0,21.7,8,29.7-20.2S89.4,56.4,63.2,69.4z"/>
		<path class="st7" d="M48.5,108.7c-2.3-18.1,5.2-30.4,12.2-37.6l2.5-1.7c26.2-13,39.9,24.5,31.8,52.7c-8,28.2-29.7,20.2-29.7,20.2
			l-4.7-1.9C54.3,134.8,50.4,124.4,48.5,108.7z"/>
		<path class="st20" d="M54.5,98.8c1.5-28.2,20.2-32,20.2-32c18.5,1.3,27.1,31.6,20.3,55.3c-2.8,9.7-7.2,15.2-11.8,18.1
			C62.1,149.1,53.1,123.4,54.5,98.8z"/>
		<path class="st7" d="M4,114c-0.9-13.9,10.3-17.8,10.3-17.8l10.7-1c0,0-14.3,16,0.4,30.8C17,129.1,4.9,127.9,4,114z"/>
		<path class="st1" d="M54.4,100.8l20-2.2c0,0,0.9,13.4,1.1,14.7c0.2,1.3-20.2,2.3-20.2,2.3S53.7,105.7,54.4,100.8z"/>
		<path class="st7" d="M70.3,106.6c0.3,4.1,2.6,7.1,5.1,6.7s4.3-4,4-8c-0.3-4.1-2.6-7.1-5.1-6.7C71.8,98.9,70,102.5,70.3,106.6z"/>
	</g>
	<g>
		<g>
			<path class="st10" d="M185.8,33.9l54.1-3.5c2.9-0.2,4.9,2.6,3.6,5l-9.9,18.9c-0.6,1.1-1.8,1.9-3.1,1.9l-35,2.3l0.1,8.2l-10.5-7.5
				l-8.8,0.6c-2.9,0.2-4.9-2.6-3.6-5l10-18.9C183.3,34.7,184.5,34,185.8,33.9z"/>
			<path class="st10" d="M246.1,35.4l-3.3-4c0,0-3.3,0.6-3.3,0.7C239.6,32.2,246.1,35.4,246.1,35.4z"/>
			<polygon class="st10" points="175.8,61.7 173.2,58.5 176.6,58.9 			"/>
			<path class="st7" d="M188.5,37.1l54.1-3.5c2.9-0.2,4.9,2.6,3.6,5l-9.9,18.9c-0.6,1.1-1.8,1.9-3.1,1.9l-35,2.3l0.1,8.2l-10.5-7.5
				L179,63c-2.9,0.2-4.9-2.6-3.6-5l10-18.9C185.9,37.9,187.1,37.2,188.5,37.1z"/>
		</g>
		<g>
			<path class="st19" d="M203.4,44.6c-1.3,2.5-0.8,4.8,1.1,6.2L202,56c-0.3,0.6,0.1,1.2,0.9,1.3c0,0.7,1,1.2,2.5,1.3
				c1.5,0.1,3-0.3,3.7-0.9c0.8,0,1.6-0.5,2-1.1l3-5.1c3.2-1.1,6.1-3.2,7.5-5.7c2-3.9-0.4-7.2-5.3-7.6
				C211.1,37.9,205.5,40.8,203.4,44.6z M203.8,55.4l5.6,1.3l0,0c0,0,0,0,0,0l-6-0.4c0,0,0,0,0,0L203.8,55.4z M204.4,54.3l5.7,1.3
				l-0.4,0.6L204,55L204.4,54.3z M204.9,53.2l5.8,1.3l-0.4,0.6l-5.7-1.3L204.9,53.2z M207.7,45.3c0.1,0,0.1,0,0.2,0c0,0,0.1,0,0.1,0
				l8.7,0.6c0.1,0,0.1,0,0.1,0.1c0,0,0,0,0,0c0,0,0,0,0,0c0,0,0,0,0,0c0.1,0.1,0,0.2-0.1,0.3l-4.7,3.6l-1.8,3.2l1.3,0.1l-0.6,1
				l-5.8-1.4l0-0.1l1.5,0.1l1.5-3.2l-0.7-3.9C207.4,45.5,207.5,45.4,207.7,45.3z"/>
			<path class="st19" d="M208.8,49.5c0,0,0-0.1,0-0.1l-0.5-2.6l0,0l-0.1-0.3l-0.1-0.8l7.7,0.5L215,47l0,0l-0.3,0.3l0,0l-3.1,2.3
				c0,0-0.1,0.1-0.1,0.1l-1.9,3.2l-2.3-0.1L208.8,49.5z"/>
		</g>
	</g>
	<g>
		<path class="st19" d="M111.8,176.9c0.2,0.4,0.3,0.8,0.4,1.3c-1.2,0.4-2.4,0.7-3.7,0.9c0-0.2,0.1-0.3,0.1-0.5
			c0.4-1.5,0.5-2.7,0.2-3.7c-0.1-0.3-0.2-0.6-0.3-0.9c0.5,0.2,1,0.4,1.4,0.6C110.7,175.2,111.4,176,111.8,176.9z"/>
		<path class="st19" d="M107.5,179.6c-0.4,1.1-0.9,2.3-1.5,3.6l-8.5-0.5c0.7-1.3,1.5-2.5,2.3-3.6c1.1,0.3,2.3,0.5,3.7,0.6
			C104.8,179.8,106.2,179.7,107.5,179.6z"/>
		<path class="st19" d="M99.9,186.7c-1.4-0.1-2.8,0-4.2,0.1c0.4-1.1,0.9-2.3,1.5-3.6l8.5,0.5c-0.7,1.3-1.4,2.4-2.2,3.5
			C102.4,187,101.2,186.8,99.9,186.7z"/>
		<path class="st19" d="M111.1,183.5l-4.4-0.3c0.7-1.3,1.2-2.6,1.6-3.8c1.1-0.2,2.1-0.4,3.1-0.6c0.3-0.1,0.6-0.2,0.8-0.2
			C112.3,180.1,112,181.7,111.1,183.5z"/>
		<path class="st19" d="M106.9,188.8c-0.8-0.5-1.7-1-2.8-1.3c0.8-1.1,1.6-2.3,2.3-3.7l4.4,0.3C109.9,185.8,108.5,187.4,106.9,188.8z
			"/>
		<path class="st19" d="M105.8,173.8c0.3-0.1,0.6-0.1,0.8-0.1c0.3,0,0.5,0.1,0.7,0.2c0.2,0.1,0.4,0.3,0.5,0.6
			c0.3,0.5,0.4,1.2,0.3,2.1c0,0.7-0.2,1.6-0.5,2.5c-1.3,0.1-2.6,0.2-3.9,0.1c-1.3-0.1-2.5-0.3-3.6-0.6c0.1-0.2,0.2-0.3,0.4-0.5
			c1.1-1.4,2.3-2.5,3.3-3.3C104.6,174.3,105.3,174,105.8,173.8z"/>
		<path class="st19" d="M102.8,188.2c-1.1,1.4-2.3,2.5-3.3,3.3c-0.7,0.5-1.4,0.9-1.9,1c-0.3,0.1-0.6,0.1-0.8,0.1
			c-0.3,0-0.5-0.1-0.7-0.2c-0.2-0.1-0.4-0.3-0.5-0.6c-0.3-0.5-0.4-1.2-0.3-2.1c0-0.7,0.2-1.6,0.5-2.5c1.3-0.2,2.7-0.2,4.1-0.1
			c1.3,0.1,2.4,0.3,3.5,0.6C103,187.9,102.9,188.1,102.8,188.2z"/>
		<path class="st19" d="M105.1,190.7c0.6-0.4,1.2-0.8,1.8-1.2c0.3,0.3,0.6,0.5,0.8,0.8c-2.2,1.2-4.8,2.1-7.3,2.5
			c0.1,0,0.2-0.1,0.4-0.1C102.2,192.3,103.7,191.6,105.1,190.7z"/>
		<path class="st19" d="M94.5,191.5c0.1,0.3,0.2,0.6,0.3,0.9c-0.5-0.2-1-0.4-1.4-0.6c-0.9-0.5-1.5-1.3-1.9-2.2
			c-0.2-0.4-0.3-0.8-0.4-1.3c1.2-0.4,2.4-0.7,3.7-0.9c0,0.2-0.1,0.3-0.1,0.5C94.4,189.3,94.3,190.6,94.5,191.5z"/>
		<path class="st19" d="M113.6,177.6c-0.2,0.1-0.5,0.2-0.7,0.3c-0.3-1.6-1.1-2.8-2.4-3.7c-0.1,0-0.2-0.1-0.2-0.1
			c2,0.7,3.4,1.8,4.2,3.2C114.2,177.4,113.9,177.5,113.6,177.6z"/>
		<path class="st19" d="M108.3,189.9c-0.1-0.1-0.3-0.3-0.4-0.4c-0.2-0.2-0.3-0.3-0.5-0.4c1.7-1.4,3.2-3.1,4.2-5l2.6,0.2
			C112.9,186.5,110.8,188.4,108.3,189.9z"/>
		<path class="st19" d="M102.6,173.7c-1.5,0.4-2.9,1.1-4.3,2c-0.6,0.4-1.2,0.8-1.7,1.2c-0.3-0.3-0.6-0.5-0.8-0.8
			c2.2-1.2,4.7-2.1,7.2-2.4C102.8,173.6,102.7,173.7,102.6,173.7z"/>
		<path class="st19" d="M103.8,187.9c0.8,0.3,1.5,0.6,2.2,1c0.2,0.1,0.3,0.2,0.5,0.3c-1.8,1.4-3.8,2.5-5.8,3c-0.7,0.2-1.3,0.3-2,0.4
			c0.1,0,0.1-0.1,0.2-0.1c0.9-0.5,1.8-1.2,2.7-2.1C102.3,189.7,103,188.8,103.8,187.9z"/>
		<path class="st19" d="M96,177.3c-1.7,1.4-3.2,3.1-4.3,5l-2.6-0.2c1.3-2.2,3.4-4.2,5.9-5.7c0.1,0.2,0.3,0.3,0.4,0.5
			C95.7,177,95.9,177.1,96,177.3z"/>
		<path class="st19" d="M88.6,188.8c-0.9-1.7-0.9-3.9,0.3-6.1l2.6,0.2c-0.9,1.9-1.3,3.7-1.1,5.3C89.8,188.3,89.2,188.5,88.6,188.8z"
			/>
		<path class="st19" d="M111.8,183.6c0.9-1.9,1.3-3.7,1.1-5.2c0.6-0.2,1.2-0.4,1.7-0.7c0.9,1.7,0.8,3.8-0.3,6.1L111.8,183.6z"/>
		<path class="st19" d="M92.1,187.5c-0.3,0.1-0.7,0.2-1,0.3c-0.2-1.5,0.2-3.2,1.1-5l4.4,0.3c-0.7,1.3-1.2,2.6-1.6,3.8
			C94,187.1,93,187.3,92.1,187.5z"/>
		<path class="st19" d="M92.9,192.2c0.1,0,0.2,0.1,0.2,0.1c-1.9-0.7-3.4-1.8-4.2-3.1c0.3-0.1,0.6-0.3,1-0.4c0.2-0.1,0.4-0.2,0.6-0.2
			C90.7,190.1,91.5,191.3,92.9,192.2z"/>
		<path class="st19" d="M104.6,173.8c-0.1,0-0.1,0.1-0.2,0.1c-0.9,0.5-1.8,1.2-2.7,2.1c-0.7,0.7-1.5,1.6-2.2,2.5
			c-0.8-0.3-1.5-0.6-2.1-0.9c-0.2-0.1-0.4-0.2-0.5-0.3c1.8-1.4,3.7-2.4,5.7-3C103.3,174,104,173.9,104.6,173.8z"/>
		<path class="st19" d="M96.9,182.6l-4.4-0.3c1-1.8,2.4-3.4,4-4.8c0.8,0.5,1.7,1,2.8,1.3C98.4,180,97.6,181.3,96.9,182.6z"/>
	</g>
	<g>
		<g>
			<path class="st14" d="M34.5,8.8l54.7-1.4c2.9-0.1,4.8,2.8,3.4,5.2L81.7,31.3c-0.6,1.1-1.9,1.8-3.2,1.8L43.1,34l-0.2,8.3l-10.2-8
				l-8.9,0.2c-2.9,0.1-4.8-2.8-3.4-5.2l10.9-18.7C31.9,9.6,33.1,8.9,34.5,8.8z"/>
			<path class="st14" d="M95.1,12.8L92,8.6c0,0-3.4,0.5-3.3,0.6C88.7,9.2,95.1,12.8,95.1,12.8z"/>
			<polygon class="st14" points="23.1,36.4 20.7,33.1 24,33.6 			"/>
			<path class="st13" d="M37,12.2l54.7-1.4c2.9-0.1,4.8,2.8,3.4,5.2L84.2,34.6c-0.6,1.1-1.9,1.8-3.2,1.8l-35.4,0.9l-0.2,8.3l-10.2-8
				l-8.9,0.2c-2.9,0.1-4.8-2.8-3.4-5.2L33.8,14C34.4,12.9,35.6,12.2,37,12.2z"/>
		</g>
		<g>
			<path class="st19" d="M56.4,17.9c1.1,0.6,2,0.9,2.9,0.8c-0.7-0.3-2-0.9-2-2.2c0-0.1,0.5-0.3,0.7-0.3c0.2,0,0.3,0,0.3,0.1
				c0,1.1,0.6,1.6,1.1,1.9c-0.2-1.1,0.2-2.7,0.9-3.8l6.5-0.1l6.8-0.1c-0.9,1.5-3,3.7-4.9,4.7l-9,0.1c0,0,0,0,0,0
				c-0.4,0.1-0.9,0.1-1.4,0.1c-0.9,0-1.8-0.1-2.8-0.6c-0.1-0.1,0.3-0.5,0.4-0.6C56.1,17.9,56.3,17.9,56.4,17.9z"/>
			<path class="st19" d="M46.7,27.9c-2.9,4.9,2.5,5.3,9.3,5.2c6.9-0.1,12.7-0.5,15.5-5.4c2.2-3.7,0.8-6.9-3-8.2l-0.1,0l-9,0.1
				l-0.1,0C54,20.9,48.9,24.1,46.7,27.9z M58,25.8c0.5-0.2,1.9-0.5,3-0.8c0.9-0.3,1.3-1.1,0.3-1.1c-1,0-2.7,0.3-2.7,0.3l0.3-1.2
				c0.7-0.3,2.4-0.4,2.4-0.4l0.6-1l1.5,0l-0.6,1.1c1.8,0.3,2,1.1,1.2,2.1c-0.7,1-2.8,1.5-3.9,1.8c-1.1,0.2-1.7,0.4-1.8,0.9
				c-0.1,0.5,1.2,0.6,2.1,0.4c0.9-0.1,1.7-0.4,1.7-0.4l-0.2,1.3c-1.2,0.4-3,0.5-3,0.5l-0.6,1l-1.5,0l0.7-1.1c-1.1-0.1-2-0.7-1.5-1.8
				C56.3,26.5,57.5,26,58,25.8z"/>
		</g>
	</g>
	<g>
		<polygon class="st0" points="272,256.5 270.3,259.6 238.3,261.4 202,212.3 203.5,209.5 		"/>
		<polygon class="st1" points="272,256.5 239.8,258.6 203.5,209.5 235.5,207.6 		"/>
		
			<linearGradient id="SVGID_3_" gradientUnits="userSpaceOnUse" x1="591.761" y1="222.6075" x2="660.0691" y2="222.6075" gradientTransform="matrix(-0.8991 -0.4378 -0.4378 0.8991 896.5173 304.9123)">
			<stop  offset="0" style="stop-color:#BBE4EF"/>
			<stop  offset="1" style="stop-color:#33ABD4"/>
		</linearGradient>
		<polygon class="st21" points="264.8,250.5 238.1,252.3 207.9,211.4 234.6,209.8 		"/>
		<path class="st0" d="M253.5,253c-0.3,0.5,0.2,1.2,1,1.6c0.8,0.4,1.7,0.2,2-0.3c0.3-0.5-0.2-1.2-1-1.6
			C254.6,252.3,253.7,252.5,253.5,253z"/>
	</g>
	<g>
		<g>
			<path class="st17" d="M226,194.4l52.7-3.4c2.8-0.2,4.8,2.5,3.5,4.8l-9.7,18.4c-0.6,1.1-1.7,1.8-3,1.9l-34.1,2.2l0.1,8l-10.2-7.3
				l-8.5,0.6c-2.8,0.2-4.8-2.5-3.5-4.8l9.7-18.4C223.5,195.2,224.7,194.5,226,194.4z"/>
			<path class="st17" d="M284.7,195.9l-3.2-3.9c0,0-3.2,0.6-3.2,0.7C278.3,192.8,284.7,195.9,284.7,195.9z"/>
			<polygon class="st17" points="216.2,221.5 213.7,218.4 216.9,218.8 			"/>
			<path class="st16" d="M228.5,197.6l52.7-3.4c2.8-0.2,4.8,2.5,3.5,4.8l-9.7,18.4c-0.6,1.1-1.7,1.8-3,1.9l-34.1,2.2l0.1,8
				l-10.2-7.3l-8.5,0.6c-2.8,0.2-4.8-2.5-3.5-4.8l9.7-18.4C226.1,198.4,227.2,197.6,228.5,197.6z"/>
		</g>
		<g>
			<path class="st19" d="M242.6,204.6c0.9-0.2,1.5,0.2,1.4,0.7l-1.2,5.4l13.1-0.7l8-9.3c0.3-0.3,0.7-0.6,1.1-0.7l3.5-1.3
				c0.9-0.3,1.7-0.2,1.8,0.3c0.1,0.5-0.5,1.2-1.4,1.5l-2.8,1l-8.1,9.5l1.2,0.9c0.1,0.1,0.2,0.3,0.1,0.5l-0.8,1.6
				c-0.2,0.3-0.7,0.6-1.2,0.7l-2.4,0.1c0.2,0.2,0.3,0.5,0.1,0.9c-0.4,0.7-1.4,1.3-2.4,1.3c-0.9,0-1.4-0.5-1.1-1.2
				c0.2-0.3,0.5-0.7,1-0.9l-11.4,0.7c0.1,0.2,0.1,0.5,0,0.8c-0.4,0.7-1.4,1.3-2.4,1.3c-0.9,0-1.4-0.5-1.1-1.2
				c0.1-0.3,0.4-0.5,0.7-0.8l-1.5,0.1c0,0,0,0,0,0c-0.5,0-0.7-0.2-0.5-0.6c0.2-0.3,0.7-0.6,1.2-0.7l19.5-1.2l0.3-0.6l-1-0.8
				c-0.1,0-0.3,0.1-0.4,0.1l-15.5,0.9c0,0,0,0,0,0c-0.7,0-1.1-0.3-1-0.8l1.3-6.3C240.9,205.4,241.7,204.8,242.6,204.6z"/>
			<path class="st19" d="M248.9,204.8l1.4-0.1l1.5-2.9c0.2-0.4,0.7-0.7,1.2-0.7l2.7-0.1c0.5,0,0.7,0.2,0.6,0.6l-1.5,2.9l1.4-0.1
				c0.6,0,0.7,0.3,0.1,0.6l-1.6,1.1c-0.6,0.4-1.5,1-2,1.4l-1.6,1.1c-0.6,0.4-1.2,0.4-1.3,0.1l-0.5-1c-0.2-0.3-0.5-0.9-0.7-1.2
				l-0.5-1C247.9,205.1,248.3,204.8,248.9,204.8z"/>
		</g>
	</g>
</g>
</svg>
