<svg width="823" height="494" viewBox="0 0 823 494" fill="none" xmlns="http://www.w3.org/2000/svg">
<path d="M73.7667 496.115C-89.6148 263.538 39.471 8.33647 260.677 0.277782C441.25 -6.32122 430.777 107.382 595.567 51.4885C817.037 -7.53763 889.002 305.048 756.836 496.115C288.812 496.115 73.7667 496.115 73.7667 496.115Z" fill="#DAECFA"/>
<path d="M632.855 279.139C632.855 279.139 624.083 281.48 618.538 279.747C612.964 278.013 603.4 280.872 601.845 282.97C600.29 285.069 600.877 285.92 603.634 286.65C606.392 287.38 616.132 291.698 622.557 289.204C628.982 286.711 637.343 286.62 637.343 286.62L632.855 279.139Z" fill="#E49963"/>
<path d="M708.546 200.285C708.546 200.285 698.718 272.783 682.406 279.26C674.368 282.454 638.84 289.722 628.337 290.451C628.337 290.451 625.755 288.292 626.4 279.473C626.4 279.473 663.63 265.302 668.911 257.608C676.773 246.144 664.011 210.777 673.898 200.012C683.785 189.246 700.419 184.594 708.546 200.285Z" fill="#4A75CB"/>
<path d="M702.854 487.692H698.102C695.667 487.692 693.672 485.624 693.672 483.1V368.849C693.672 366.325 695.667 364.257 698.102 364.257H702.854C705.29 364.257 707.284 366.325 707.284 368.849V483.1C707.284 485.624 705.29 487.692 702.854 487.692Z" fill="#2B478B"/>
<path d="M742.49 495.811C738.089 486.354 720.956 479.329 700.508 479.329C680.059 479.329 662.926 486.384 658.525 495.811H742.49Z" fill="#2B478B"/>
<path d="M731.312 463.79H669.703C669.057 463.79 668.529 463.243 668.529 462.573V460.049C668.529 459.38 669.057 458.833 669.703 458.833H731.312C731.958 458.833 732.486 459.38 732.486 460.049V462.573C732.486 463.243 731.958 463.79 731.312 463.79Z" fill="#2B478B"/>
<path d="M705.231 353.005C702.356 358.054 699.041 362.767 695.608 367.268C685.046 381.104 673.517 392.508 671.522 403.304C671.111 405.463 670.495 407.774 669.674 410.207C668.823 412.67 667.796 415.285 666.593 417.962C662.104 428.058 655.386 439.401 648.697 449.679C637.109 467.469 626.224 482.309 626.224 482.309L606.246 481.427C607.038 479.36 615.751 454.788 627.398 424.773C632.121 412.579 637.167 399.624 642.008 387.126C642.654 385.453 643.299 383.78 643.944 382.138C645.441 378.307 646.878 374.536 648.316 370.887C659.259 342.696 667.972 320.254 667.972 320.254C667.972 320.254 711.714 303.072 716.262 314.202C720.046 323.356 716.995 332.357 705.231 353.005Z" fill="#163560"/>
<path d="M625.608 478.538C625.608 478.538 624.582 495.629 621.384 495.872C620.973 495.902 605.219 495.902 605.219 495.902L585.122 495.781C585.122 495.781 585.24 490.763 591.137 489.699C597.004 488.634 606.862 484.347 610.411 476.318C614.137 467.834 625.608 478.538 625.608 478.538Z" fill="#163560"/>
<path d="M671.874 429.73C671.874 429.73 685.78 438.975 684.431 441.986C684.255 442.381 676.568 456.643 676.568 456.643L666.652 474.768C666.652 474.768 662.486 472.213 664.452 466.375C666.417 460.536 667.62 449.558 662.574 442.412C657.264 434.87 671.874 429.73 671.874 429.73Z" fill="#163560"/>
<path d="M652.306 312.59C652.306 312.59 598.178 347.531 592.046 371.342C585.914 395.153 665.067 445.969 665.067 445.969C665.067 445.969 673.751 438.032 675.277 432.193C675.277 432.193 639.485 387.764 631.74 377.789C626.987 371.677 702.209 356.624 711.421 341.784C720.604 326.974 717.318 314.475 717.318 314.475L652.306 312.59Z" fill="#1C468A"/>
<path d="M756.66 389.376H644.296C642.037 389.376 640.219 387.46 640.219 385.149V361.854C640.219 359.513 642.067 357.627 644.296 357.627H756.66C758.919 357.627 760.738 359.543 760.738 361.854V385.149C760.767 387.46 758.919 389.376 756.66 389.376Z" fill="#EE9849"/>
<path d="M678.446 187.848C673.047 191.314 670.084 195.693 670.084 195.693C683.228 199.221 705.025 186.601 705.025 186.601C705.025 186.601 696.547 180.701 693.437 167.746C693.29 167.108 693.144 166.408 692.997 165.739C692.586 163.55 692.322 161.208 692.293 158.654L686.249 164.249L676.216 173.585C676.216 173.585 676.451 177.447 677.712 184.107C677.917 185.263 678.152 186.51 678.446 187.848Z" fill="#E49963"/>
<path d="M718.961 252.227C717.083 278.501 719.548 318.429 717.406 325.363C715.558 331.323 694.552 327.796 686.161 325.789C683.051 325.059 679.296 323.994 675.424 322.748C664.598 319.281 652.775 314.294 651.513 310.614C651.455 310.462 651.425 310.34 651.396 310.188C651.279 309.641 651.308 309.154 651.425 308.637C651.836 306.752 653.479 304.714 653.655 300.062C653.86 294.862 653.831 288.749 654.036 282.18C654.036 281.451 654.066 280.63 654.124 279.9V279.626C654.124 279.474 654.124 279.352 654.124 279.2C654.3 271.871 654.682 264.147 655.093 256.514C655.357 251.71 655.679 246.966 656.031 242.404C656.97 230.635 658.261 220.174 659.933 213.575C662.691 202.78 668.764 195.755 674.279 190.616L678.269 187.058C682.729 188.061 688.01 187.392 692.762 185.05C697.926 182.496 699.715 180.702 700.595 181.371C712.624 190.889 721.191 220.113 718.961 252.227Z" fill="#739AF0"/>
<path d="M675.424 322.747C664.598 319.28 652.775 314.293 651.513 310.614C651.455 310.462 651.425 310.34 651.396 310.188C651.396 309.671 651.396 309.154 651.425 308.637C651.836 306.751 653.479 304.714 653.655 300.061C653.86 294.861 653.831 288.749 654.036 282.18C654.036 281.45 654.066 280.629 654.124 279.899V279.626C654.124 279.474 654.124 279.352 654.124 279.2L695.051 259.95C695.08 259.981 697.427 294.162 675.424 322.747Z" fill="#4A75CB"/>
<path d="M693.232 166.834C693.144 166.469 693.085 166.105 693.026 165.74C691.647 165.435 689.036 164.858 686.279 164.25L676.245 173.585C676.245 173.585 676.392 175.897 677.037 180.032C686.865 176.931 691.794 170.575 693.232 166.834Z" fill="#D68D5D"/>
<path d="M672.226 173.494C672.226 173.494 693.789 176.018 695.08 162.091C696.4 148.163 700.038 139.101 686.337 136.881C672.637 134.691 669.468 139.739 667.913 144.27C666.417 148.801 666.652 172.46 672.226 173.494Z" fill="#E49963"/>
<path d="M694.112 166.834C690.855 165.527 691.354 158.076 689.095 152.298C687.218 147.554 682.582 143.297 674.045 142.628C660.579 141.594 668.089 129.339 669.527 127.423C669.527 127.423 679.824 128.883 690.386 130.707C712.507 134.478 696.283 163.945 694.112 166.834Z" fill="#2B478B"/>
<path d="M688.508 156.191C690.21 152.846 693.701 151.69 694.376 155.34C695.051 158.989 691.912 162.395 690.709 161.513C689.095 160.296 688.508 156.191 688.508 156.191Z" fill="#E49963"/>
<path d="M574.652 246.089L572.755 246.728L588.804 297.951L590.702 297.312L574.652 246.089Z" fill="#4A75CB"/>
<path d="M643.248 293.356L588.749 294.562L588.819 297.937L643.317 296.731L643.248 293.356Z" fill="#4A75CB"/>
<path d="M637.373 290.299C637.373 290.299 628.924 293.614 623.203 292.519C617.482 291.425 608.27 295.347 606.95 297.628C605.629 299.909 606.304 300.669 609.121 301.065C611.937 301.46 622.088 304.653 628.19 301.429C634.292 298.206 642.595 297.172 642.595 297.172L637.373 290.299Z" fill="#E49963"/>
<path d="M704.204 203.266C704.204 203.266 702.121 276.432 686.631 284.765C678.974 288.87 644.443 300.152 634.087 302.068C634.087 302.068 631.3 300.213 630.977 291.394C630.977 291.394 666.476 273.057 670.906 264.785C677.507 252.5 661.078 218.805 669.732 206.945C678.416 195.116 694.435 188.608 704.204 203.266Z" fill="#739AF0"/>
<path d="M488.953 495.69H302.601C296.762 495.69 291.98 490.733 291.98 484.681V98.4421C291.98 92.3904 296.762 87.4336 302.601 87.4336H488.953C494.792 87.4336 499.574 92.3904 499.574 98.4421V484.712C499.574 490.763 494.792 495.69 488.953 495.69Z" fill="#78ACEA"/>
<path d="M510.546 98.4422V484.712C510.546 490.764 505.764 495.72 499.926 495.72H313.573C307.735 495.72 302.953 490.764 302.953 484.712V98.4422C302.953 92.3906 307.735 87.4337 313.573 87.4337H499.926C505.764 87.4033 510.546 92.3602 510.546 98.4422Z" fill="#AFCDFB"/>
<path opacity="0.4" d="M437.173 102.882H383.221C382.076 102.882 381.108 101.909 381.108 100.692C381.108 99.5065 382.047 98.5029 383.221 98.5029H437.173C438.317 98.5029 439.285 99.4761 439.285 100.692C439.255 101.878 438.317 102.882 437.173 102.882Z" fill="#5E92DD"/>
<path opacity="0.4" d="M373.627 102.882C372.483 102.882 371.515 101.909 371.515 100.692C371.515 99.5065 372.454 98.5029 373.627 98.5029C374.771 98.5029 375.739 99.4761 375.739 100.692C375.71 101.878 374.771 102.882 373.627 102.882Z" fill="#5E92DD"/>
<path d="M422.856 473.156C422.856 477.018 421.36 480.516 418.924 483.04C416.46 485.594 413.057 487.206 409.302 487.206C401.821 487.206 395.748 480.911 395.748 473.156C395.748 468.169 398.241 463.79 402.026 461.296C404.109 459.898 406.603 459.107 409.272 459.107C416.783 459.107 422.856 465.402 422.856 473.156Z" fill="#95C0F4"/>
<path d="M499.486 112.583H315.392V452.234H499.486V112.583Z" fill="#95C0F4"/>
<path d="M418.924 483.039C416.46 485.594 413.057 487.205 409.302 487.205C401.821 487.205 395.748 480.91 395.748 473.156C395.748 468.169 398.241 463.79 402.026 461.296C403.375 467.287 407.336 477.261 418.924 483.039Z" fill="#8CBAF1"/>
<path opacity="0.9" d="M496.816 153.18H496.376H411.15H325.484C324.017 153.18 322.844 154.792 322.844 156.738V270.259C322.844 272.206 324.046 273.817 325.484 273.817H411.15H496.376H496.816C498.283 273.817 499.456 272.206 499.456 270.259V156.738C499.456 154.762 498.283 153.18 496.816 153.18Z" fill="#78ACEA"/>
<path opacity="0.9" d="M432.919 291.09H432.596H366.146H299.373C298.229 291.09 297.32 292.702 297.32 294.648V408.169C297.32 410.116 298.259 411.727 299.373 411.727H366.146H432.596H432.919C434.063 411.727 434.972 410.116 434.972 408.169V294.648C434.972 292.702 434.033 291.09 432.919 291.09Z" fill="#78ACEA"/>
<path d="M561.946 146.49V260.011C561.946 261.957 560.391 263.569 558.513 263.569H336.691C334.813 263.569 333.258 261.957 333.258 260.011V146.49C333.258 144.544 334.813 142.932 336.691 142.932H558.513C560.391 142.932 561.946 144.544 561.946 146.49Z" fill="white"/>
<path d="M561.946 146.49V260.011C561.946 261.957 560.156 263.569 557.956 263.569H447.617V142.962H557.956C560.156 142.962 561.946 144.544 561.946 146.49Z" fill="#1E90FF"/>
<path d="M501.774 187.027H462.726C461.347 187.027 460.232 185.871 460.232 184.442C460.232 183.013 461.347 181.857 462.726 181.857H501.774C503.153 181.857 504.268 183.013 504.268 184.442C504.268 185.871 503.153 187.027 501.774 187.027Z" fill="#FCECDB"/>
<path d="M492.122 194.751H462.432C461.229 194.751 460.232 193.717 460.232 192.47V191.862C460.232 190.615 461.229 189.581 462.432 189.581H492.122C493.325 189.581 494.322 190.615 494.322 191.862V192.47C494.322 193.717 493.325 194.751 492.122 194.751Z" fill="#FCECDB"/>
<path d="M463.254 158.137C464.193 156.86 465.425 156.221 466.921 156.221C468.417 156.221 469.649 156.86 470.559 158.107C471.498 159.353 471.938 160.935 471.938 162.82C471.938 164.706 471.468 166.287 470.559 167.534C469.62 168.781 468.417 169.45 466.921 169.45C465.425 169.45 464.193 168.811 463.254 167.534C462.315 166.287 461.875 164.706 461.875 162.82C461.845 160.965 462.315 159.414 463.254 158.137ZM469.62 159.019C468.916 157.985 468.006 157.498 466.921 157.498C465.835 157.498 464.926 158.015 464.222 159.019C463.518 160.053 463.166 161.33 463.166 162.851C463.166 164.371 463.518 165.679 464.193 166.682C464.897 167.686 465.806 168.203 466.921 168.203C468.036 168.203 468.945 167.686 469.62 166.682C470.324 165.648 470.676 164.371 470.676 162.851C470.676 161.33 470.324 160.053 469.62 159.019Z" fill="#FCECDB"/>
<path d="M482.03 157.803C482.851 158.836 483.291 160.327 483.291 162.212C483.35 166.196 481.267 169.48 477.923 169.45C476.925 169.45 476.045 169.206 475.311 168.659V167.351C476.074 167.899 476.925 168.172 477.805 168.172C480.739 168.172 481.942 165.405 482 162.699C481.355 163.854 480.064 164.614 478.392 164.614C477.277 164.614 476.338 164.219 475.546 163.489C474.783 162.729 474.402 161.725 474.402 160.539C474.402 159.293 474.813 158.259 475.605 157.438C476.426 156.617 477.424 156.221 478.597 156.221C480.064 156.221 481.208 156.738 482.03 157.803ZM476.544 158.35C475.986 158.928 475.693 159.658 475.693 160.539C475.693 161.421 475.986 162.121 476.544 162.638C477.13 163.155 477.835 163.428 478.685 163.428C479.419 163.428 480.064 163.185 480.71 162.729C481.326 162.242 481.736 161.665 481.971 160.965C481.766 158.776 480.592 157.498 478.685 157.498C477.835 157.498 477.13 157.772 476.544 158.35Z" fill="#FCECDB"/>
<path d="M485.902 160.935C486.254 160.57 486.841 160.57 487.193 160.935C487.545 161.3 487.545 161.908 487.193 162.273C486.841 162.638 486.254 162.638 485.902 162.273C485.55 161.908 485.55 161.3 485.902 160.935ZM485.902 167.716C486.254 167.351 486.841 167.351 487.193 167.716C487.545 168.081 487.545 168.689 487.193 169.054C486.841 169.419 486.254 169.419 485.902 169.054C485.55 168.72 485.55 168.081 485.902 167.716Z" fill="#FCECDB"/>
<path d="M491.975 169.237V157.894L489.217 159.536V158.228L492.122 156.434H493.266V169.237H491.975V169.237Z" fill="#FCECDB"/>
<path d="M497.784 158.137C498.723 156.86 499.955 156.221 501.451 156.221C502.948 156.221 504.18 156.86 505.089 158.107C506.028 159.353 506.468 160.935 506.468 162.82C506.468 164.706 505.999 166.287 505.089 167.534C504.15 168.781 502.948 169.45 501.451 169.45C499.955 169.45 498.723 168.811 497.784 167.534C496.845 166.287 496.405 164.706 496.405 162.82C496.376 160.965 496.845 159.414 497.784 158.137ZM504.15 159.019C503.446 157.985 502.537 157.498 501.451 157.498C500.366 157.498 499.456 158.015 498.752 159.019C498.048 160.053 497.696 161.33 497.696 162.851C497.696 164.371 498.048 165.679 498.723 166.682C499.427 167.686 500.337 168.203 501.451 168.203C502.566 168.203 503.476 167.686 504.15 166.682C504.855 165.648 505.207 164.371 505.207 162.851C505.207 161.33 504.855 160.053 504.15 159.019Z" fill="#FCECDB"/>
<path d="M514.067 169.237V156.434H519.259C521.724 156.434 523.22 157.863 523.22 159.992C523.22 162.182 521.753 163.58 519.259 163.58H515.387V169.237H514.067ZM515.387 162.364H519.171C520.902 162.364 521.929 161.513 521.929 160.022C521.929 158.502 520.931 157.65 519.171 157.65H515.387V162.364Z" fill="#FCECDB"/>
<path d="M525.802 169.237V156.434H527.093L531.552 162.638L536.011 156.434H537.273V169.237H535.982V158.502L531.933 164.097H531.141L527.063 158.502V169.237H525.802Z" fill="#FCECDB"/>
<path d="M399.122 263.6H336.72C334.843 263.6 333.288 261.988 333.288 260.042V182.891C350.304 203.722 383.602 244.563 399.122 263.6Z" fill="#E5F2FF"/>
<path d="M390.027 157.894C377.529 157.894 367.407 168.386 367.407 181.34C367.407 194.295 390.027 223.063 390.027 223.063C390.027 223.063 412.646 194.295 412.646 181.34C412.646 168.386 402.525 157.894 390.027 157.894ZM390.027 192.045C384.189 192.045 379.465 187.149 379.465 181.097C379.465 175.045 384.189 170.149 390.027 170.149C395.865 170.149 400.588 175.045 400.588 181.097C400.588 187.149 395.865 192.045 390.027 192.045Z" fill="#FFA502"/>
<path d="M388.12 242.495H349.071C347.693 242.495 346.578 241.34 346.578 239.911C346.578 238.481 347.693 237.326 349.071 237.326H388.12C389.499 237.326 390.614 238.481 390.614 239.911C390.614 241.34 389.499 242.495 388.12 242.495Z" fill="#1E90FF"/>
<path d="M378.468 250.22H348.778C347.575 250.22 346.578 249.186 346.578 247.939V247.331C346.578 246.084 347.575 245.05 348.778 245.05H378.468C379.671 245.05 380.668 246.084 380.668 247.331V247.939C380.668 249.216 379.671 250.22 378.468 250.22Z" fill="#1E90FF"/>
<path d="M452.428 285.951V399.472C452.428 401.418 450.873 403.03 448.996 403.03H227.203C225.325 403.03 223.77 401.418 223.77 399.472V285.951C223.77 284.005 225.325 282.393 227.203 282.393H448.996C450.873 282.393 452.428 283.974 452.428 285.951Z" fill="#1E90FF"/>
<path d="M452.428 285.951V399.472C452.428 401.418 450.873 403.03 448.996 403.03H350.333V282.393H448.996C450.873 282.393 452.428 283.974 452.428 285.951Z" fill="white"/>
<path d="M400.618 367.298C398.652 367.298 396.833 366.234 395.836 364.47L381.255 338.652C379.7 335.915 380.609 332.418 383.25 330.806C385.89 329.194 389.264 330.137 390.819 332.874L400.178 349.447L417.78 311.891C419.13 309.032 422.416 307.846 425.173 309.245C427.931 310.644 429.075 314.05 427.726 316.908L405.576 364.105C404.696 366.021 402.847 367.237 400.823 367.328C400.764 367.298 400.706 367.298 400.618 367.298Z" fill="#2ED573"/>
<path d="M400.618 380.587C381.695 380.587 366.293 364.622 366.293 345.007C366.293 325.393 381.695 309.427 400.618 309.427C419.54 309.427 434.943 325.393 434.943 345.007C434.972 364.622 419.57 380.587 400.618 380.587ZM400.618 313.563C383.895 313.563 370.312 327.673 370.312 344.977C370.312 362.311 383.925 376.39 400.618 376.39C417.34 376.39 430.923 362.28 430.923 344.977C430.953 327.673 417.34 313.563 400.618 313.563Z" fill="#2ED573"/>
<path d="M288.724 403.031H227.173C225.296 403.031 223.741 401.419 223.741 399.473V311.618L288.724 403.031Z" fill="#F9E5D1"/>
<path d="M253.519 302.068C246.712 302.068 241.226 307.785 241.226 314.81C241.226 321.865 246.742 327.552 253.519 327.552C260.325 327.552 265.811 321.834 265.811 314.81C265.811 307.785 260.296 302.068 253.519 302.068ZM262.027 315.235H253.519C253.313 315.235 253.137 315.053 253.137 314.84V305.352C253.137 305.139 253.313 304.957 253.519 304.957C253.724 304.957 253.9 305.139 253.9 305.352V314.445H262.027C262.232 314.445 262.408 314.627 262.408 314.84C262.437 315.053 262.261 315.235 262.027 315.235Z" fill="white"/>
<path d="M316.8 310.096H277.752C276.373 310.096 275.258 308.94 275.258 307.511C275.258 306.082 276.373 304.926 277.752 304.926H316.8C318.179 304.926 319.294 306.082 319.294 307.511C319.294 308.91 318.179 310.096 316.8 310.096Z" fill="white"/>
<path d="M307.148 317.82H277.458C276.255 317.82 275.258 316.786 275.258 315.539V314.931C275.258 313.684 276.255 312.65 277.458 312.65H307.148C308.351 312.65 309.348 313.684 309.348 314.931V315.539C309.348 316.786 308.351 317.82 307.148 317.82Z" fill="white"/>
<path d="M252.286 351.424C246.184 351.424 241.226 356.563 241.226 362.888C241.226 369.214 252.286 383.324 252.286 383.324C252.286 383.324 263.347 369.244 263.347 362.888C263.347 356.563 258.389 351.424 252.286 351.424ZM252.286 368.149C249.441 368.149 247.123 365.747 247.123 362.797C247.123 359.847 249.441 357.445 252.286 357.445C255.132 357.445 257.45 359.847 257.45 362.797C257.45 365.747 255.132 368.149 252.286 368.149Z" fill="#FFA502"/>
<path d="M313.837 359.787H274.788C273.41 359.787 272.295 358.631 272.295 357.202C272.295 355.773 273.41 354.617 274.788 354.617H313.837C315.216 354.617 316.331 355.773 316.331 357.202C316.301 358.631 315.186 359.787 313.837 359.787Z" fill="white"/>
<path d="M304.185 367.511H274.495C273.292 367.511 272.295 366.477 272.295 365.23V364.622C272.295 363.375 273.292 362.341 274.495 362.341H304.185C305.388 362.341 306.385 363.375 306.385 364.622V365.23C306.385 366.508 305.388 367.511 304.185 367.511Z" fill="white"/>
<path d="M531.904 253.077H480.152C475.634 253.077 471.967 249.246 471.967 244.593V242.191C471.967 237.507 475.663 233.706 480.152 233.706H531.904C536.422 233.706 540.089 237.538 540.089 242.191V244.593C540.118 249.276 536.422 253.077 531.904 253.077Z" fill="#FCECDB"/>
<path d="M505.911 247.634C505.559 247.634 505.207 247.421 505.03 247.117L502.302 242.282C502.009 241.765 502.185 241.127 502.683 240.822C503.182 240.518 503.798 240.701 504.092 241.218L505.823 244.32L509.108 237.325C509.372 236.808 509.989 236.565 510.487 236.839C510.986 237.082 511.221 237.751 510.957 238.268L506.82 247.087C506.644 247.452 506.321 247.665 505.94 247.695C505.94 247.634 505.94 247.634 505.911 247.634Z" fill="#F99746"/>
<path d="M505.911 250.128C502.39 250.128 499.515 247.148 499.515 243.499C499.515 239.85 502.39 236.87 505.911 236.87C509.431 236.87 512.306 239.85 512.306 243.499C512.336 247.148 509.46 250.128 505.911 250.128ZM505.911 237.63C502.801 237.63 500.248 240.245 500.248 243.499C500.248 246.723 502.771 249.368 505.911 249.368C509.02 249.368 511.573 246.753 511.573 243.499C511.573 240.245 509.05 237.63 505.911 237.63Z" fill="#F99746"/>
<path d="M135.317 181.157C135.317 181.157 109.148 208.404 107.857 219.321C106.596 230.239 120.795 247.268 120.795 247.268L135.317 181.157Z" fill="#ED7D2B"/>
<path d="M148.314 479.998C148.314 479.998 149.253 495.385 152.128 495.598C152.509 495.628 166.679 495.598 166.679 495.598L184.78 495.446C184.78 495.446 184.663 490.915 179.353 489.972C174.072 489.029 165.183 485.198 161.985 477.96C158.611 470.327 148.314 479.998 148.314 479.998Z" fill="#163560"/>
<path d="M108.004 480.089C108.004 480.089 108.943 495.477 111.818 495.689C112.199 495.72 126.369 495.689 126.369 495.689L144.47 495.537C144.47 495.537 144.353 491.006 139.043 490.064C133.762 489.121 124.873 485.289 121.675 478.051C118.301 470.419 108.004 480.089 108.004 480.089Z" fill="#163560"/>
<path d="M168.029 314.596C168.029 314.596 163.364 346.01 145.82 401.782C128.247 457.524 125.9 481.67 125.9 481.67L106.948 481.153C106.948 481.153 106.654 420.241 114.751 392.203C122.849 364.165 116.306 291.181 116.306 291.181L168.029 314.596Z" fill="#163560"/>
<path d="M177.211 292.762C177.211 292.762 177.974 340.08 170.2 398.164C162.425 456.278 165.154 480.91 165.154 480.91L146.231 481.609C146.231 481.609 134.818 423.526 137.987 394.454C141.155 365.382 122.291 294.739 122.291 294.739L177.211 292.762Z" fill="#1C468A"/>
<path d="M140.363 182.13L150.455 188.942L165.007 186.084C164.802 184.867 163.833 179.819 162.953 175.257C162.895 174.984 162.836 174.71 162.807 174.467C162.044 170.574 161.398 167.229 161.398 167.229L147.786 161.026L142.71 158.714C142.71 158.806 143.121 163.033 143.18 163.641C144.118 174.68 140.363 182.13 140.363 182.13Z" fill="#FFB27D"/>
<path d="M161.252 178.633C160.958 178.511 143.708 173.281 141.83 173.919C139.952 174.558 138.867 178.329 138.867 178.329L167.09 184.867C167.09 184.897 164.86 180.214 161.252 178.633Z" fill="#9E332E"/>
<path d="M115.045 298.753C118.008 312.589 166.679 314.11 179.206 301.52C180.644 300.091 180.673 293.431 180.116 284.46C179.03 266.913 175.598 240.548 175.422 227.076C175.334 220.568 174.454 213.908 173.309 207.857C170.845 194.993 167.09 184.867 167.09 184.867C167.09 184.867 143.297 176.96 138.867 178.329C117.451 184.897 112.111 284.916 115.045 298.753Z" fill="#B5453C"/>
<path d="M180.116 284.46C179.03 266.913 175.598 240.548 175.422 227.076C175.334 220.568 174.454 213.908 173.309 207.857L158.993 205.272C159.022 205.272 145.145 264.511 180.116 284.46Z" fill="#9E332E"/>
<path d="M144.852 256.453C154.621 251.374 170.258 233.493 171.344 228.566C178.297 229.692 178.708 235.774 178.708 235.774C168.733 257.456 148.988 270.441 144.881 272.479C145.439 263.751 144.852 256.453 144.852 256.453Z" fill="#D46B1F"/>
<path d="M172.341 260.041C172.341 260.041 171.373 262.443 173.427 264.086C175.48 265.697 176.801 268.313 176.331 270.259C175.862 272.175 171.373 275.337 169.818 274.82C168.263 274.334 165.095 271.81 165.418 270.776C165.77 269.772 163.276 261.896 167.061 258.855C170.874 255.784 172.341 260.041 172.341 260.041Z" fill="#FFB27D"/>
<path d="M156.118 182.1C156.118 182.1 170.552 184.168 181.26 200.985C192.174 218.106 199.743 230.543 197.718 236.656C195.694 242.768 177.065 264.055 173.838 264.055C170.61 264.055 165.418 261.653 165.124 256.179C165.124 256.179 179.001 235.652 176.39 232.581C175.275 231.273 158.523 217.984 156.264 224.066C152.538 234.132 156.118 182.1 156.118 182.1Z" fill="#B5453C"/>
<path d="M144.177 163.884C147.17 169.114 158.318 173.645 162.953 175.288C162.895 175.014 162.836 174.74 162.807 174.497C162.044 170.604 161.398 167.259 161.398 167.259L147.786 161.056C144.764 161.025 142.916 161.725 144.177 163.884Z" fill="#FCA56B"/>
<path d="M166.503 166.378C166.503 166.378 144.617 173.524 140.539 159.323C136.461 145.121 130.887 136.485 144.705 131.315C158.523 126.145 162.807 130.737 165.271 135.146C167.735 139.526 172.107 164.158 166.503 166.378Z" fill="#FFB27D"/>
<path d="M164.391 133.748C164.391 133.748 163.041 150.291 159.726 149.591C156.44 148.892 153.418 148.344 153.917 153.332C154.416 158.319 158.67 164.249 146.436 165.648C136.285 166.803 123.993 138.735 126.78 133.565C134.818 118.725 176.008 115.623 164.391 133.748Z" fill="#163560"/>
<path d="M143.297 196.453C148.783 186.783 158.259 183.286 164.655 184.107C171.667 186.54 172.957 191.04 172.957 191.04C162.689 187.33 146.113 204.36 143.942 217.953C140.745 214.486 143.297 196.453 143.297 196.453Z" fill="#D46B1F"/>
<path d="M152.216 279.352H96.0633C92.2788 279.352 89.1983 276.159 89.1983 272.236V191.527C89.1983 187.604 92.2788 184.411 96.0633 184.411H152.216C156 184.411 159.081 187.604 159.081 191.527V272.236C159.11 276.159 156.03 279.352 152.216 279.352Z" fill="#ECC762"/>
<path d="M117.832 279.352H61.6796C57.895 279.352 54.8146 276.159 54.8146 272.236V191.527C54.8146 187.604 57.895 184.411 61.6796 184.411H117.832C121.616 184.411 124.697 187.604 124.697 191.527V272.236C124.697 276.159 121.616 279.352 117.832 279.352Z" fill="#FCD66F"/>
<path d="M100.787 215.247C93.4816 215.247 87.5848 221.39 87.5848 228.932C87.5848 236.504 100.787 253.321 100.787 253.321C100.787 253.321 113.989 236.504 113.989 228.932C114.018 221.39 108.092 215.247 100.787 215.247ZM100.787 235.196C97.3835 235.196 94.5965 232.338 94.5965 228.78C94.5965 225.252 97.3542 222.363 100.787 222.363C104.19 222.363 106.977 225.222 106.977 228.78C106.977 232.338 104.219 235.196 100.787 235.196Z" fill="#B5453C"/>
<path d="M63.0584 252.833V255.418C62.3837 255.418 61.7089 255.418 61.0635 255.418V247.42C62.6477 247.42 64.2906 247.42 65.8749 247.42C65.8749 248.089 65.8749 248.576 65.8749 249.245H63.0584V251.009H65.5522C65.5522 251.708 65.5522 252.134 65.5522 252.833H63.0584Z" fill="#B5453C"/>
<path d="M71.4784 254.415H68.4273L67.9872 255.418H66.0509V255.114L69.5128 247.299H70.3636L73.8547 255.114V255.418H71.9184L71.4784 254.415ZM69.9528 250.553L69.102 252.651H70.8329L69.9528 250.553Z" fill="#B5453C"/>
<path d="M78.6661 253.046C78.6661 252.499 78.0207 252.408 77.2579 252.347C75.5856 252.225 74.4708 251.617 74.4414 249.884C74.3828 246.417 80.3677 246.417 80.3383 249.884C79.6342 249.884 79.1355 249.884 78.4607 249.884C78.4607 248.819 76.3777 248.911 76.3191 249.853C76.2604 250.461 76.8471 250.583 77.5513 250.674C79.0768 250.857 80.573 251.039 80.573 253.046C80.573 256.422 74.2948 256.513 74.3241 252.986C74.9989 252.986 75.5563 252.986 76.2311 252.986C76.2604 253.989 78.6661 253.989 78.6661 253.046Z" fill="#B5453C"/>
<path d="M81.2771 249.245C81.2771 248.637 81.2771 248.029 81.2771 247.42H87.0273C87.0273 248.029 87.0273 248.637 87.0273 249.245H85.1204V255.418C84.475 255.418 83.8295 255.418 83.1548 255.418V249.245H81.2771Z" fill="#B5453C"/>
<path d="M63.9386 265.727H61.0342V257.729H63.9386C68.9847 257.729 68.9847 265.697 63.9386 265.727ZM62.9998 263.842H63.9386C66.403 263.842 66.403 259.554 63.9386 259.554H62.9998V263.842Z" fill="#B5453C"/>
<path d="M74.0601 259.554C72.9159 259.554 72.3292 259.554 71.2143 259.554V260.679H73.8547C73.8547 261.288 73.8547 261.896 73.8547 262.504H71.2143C71.2143 262.96 71.2143 263.416 71.2143 263.903C72.3585 263.903 73.0039 263.903 74.1774 263.903C74.1774 264.511 74.1774 265.119 74.1774 265.727C72.3585 265.727 71.0383 265.727 69.2487 265.727C69.2487 263.051 69.2487 260.375 69.2487 257.729C71.0383 257.729 72.2705 257.729 74.0601 257.729C74.0601 258.307 74.0601 258.915 74.0601 259.554Z" fill="#B5453C"/>
<path d="M77.8153 263.872H80.6317C80.6317 264.572 80.6317 265.028 80.6317 265.727C79.0475 265.727 77.4046 265.727 75.8497 265.727V257.729C76.5244 257.729 77.1699 257.729 77.8446 257.729C77.8153 261.865 77.8153 260.466 77.8153 263.872Z" fill="#B5453C"/>
<path d="M85.2671 263.933C85.2671 264.602 85.2671 265.028 85.2671 265.728C83.9469 265.728 82.656 265.728 81.3358 265.728C81.3358 265.028 81.3358 264.602 81.3358 263.933H82.304V259.493H81.3945C81.3945 258.794 81.3945 258.399 81.3945 257.699C82.656 257.699 83.8882 257.699 85.1497 257.699C85.1497 258.368 85.1497 258.794 85.1497 259.493H84.2403V263.933H85.2671Z" fill="#B5453C"/>
<path d="M89.433 262.261H89.4917L91.2519 257.729H93.1589V258.034L89.8731 265.819H89.0223L85.7071 258.034V257.729H87.6141L89.433 262.261Z" fill="#B5453C"/>
<path d="M99.1438 259.554C97.9996 259.554 97.4129 259.554 96.298 259.554V260.679H98.9384C98.9384 261.288 98.9384 261.896 98.9384 262.504H96.298C96.298 262.96 96.298 263.416 96.298 263.903C97.4422 263.903 98.0876 263.903 99.2611 263.903C99.2611 264.511 99.2611 265.119 99.2611 265.727C97.4422 265.727 96.122 265.727 94.3324 265.727C94.3324 263.051 94.3324 260.375 94.3324 257.729C96.122 257.729 97.3542 257.729 99.1438 257.729C99.1438 258.307 99.1438 258.915 99.1438 259.554Z" fill="#B5453C"/>
<path d="M107.446 265.423V265.727H105.246L103.926 263.386H102.899V265.727C102.224 265.727 101.549 265.727 100.933 265.727C100.933 263.051 100.933 260.406 100.933 257.729C102.048 257.729 103.192 257.729 104.307 257.729C107.329 257.729 107.886 261.531 105.95 262.899L107.446 265.423ZM104.307 259.554C103.838 259.554 103.368 259.554 102.899 259.554C102.899 260.193 102.899 260.892 102.899 261.531H104.307C105.393 261.531 105.451 259.554 104.307 259.554Z" fill="#B5453C"/>
<path d="M112.199 265.728H110.233V262.352L107.652 258.003V257.699H109.793L111.202 260.375H111.29L112.698 257.699H114.839V258.003L112.228 262.352V265.728H112.199Z" fill="#B5453C"/>
</svg>
