<?xml version="1.0" encoding="utf-8"?>
<!-- Generator: Adobe Illustrator 23.0.0, SVG Export Plug-In . SVG Version: 6.00 Build 0)  -->
<svg version="1.1" xmlns="http://www.w3.org/2000/svg" xmlns:xlink="http://www.w3.org/1999/xlink" x="0px" y="0px"
	 viewBox="0 0 4074.9 4277.1" style="enable-background:new 0 0 4074.9 4277.1;" xml:space="preserve">
<style type="text/css">
	.st0{fill:#6F95D1;}
	.st1{fill:#FFFFFF;stroke:#6F95D1;stroke-width:5;stroke-miterlimit:10;}
	.st2{fill:url(#SVGID_1_);}
	.st3{opacity:0.3;}
	.st4{fill:#91B3FA;}
	.st5{fill:#BDD0FB;}
	.st6{fill:url(#SVGID_2_);}
	.st7{fill:url(#SVGID_3_);}
	.st8{fill:url(#SVGID_4_);}
	.st9{fill:url(#SVGID_5_);}
	.st10{fill:url(#SVGID_6_);}
	.st11{fill:#7D97F4;}
	.st12{opacity:0.56;fill:#FFFFFF;}
	.st13{fill:url(#SVGID_7_);}
	.st14{fill:#163B96;}
	.st15{fill:url(#SVGID_8_);}
	.st16{fill:url(#SVGID_9_);}
	.st17{fill:url(#SVGID_10_);}
	.st18{fill:url(#SVGID_11_);}
	.st19{fill:url(#SVGID_12_);}
	.st20{fill:url(#SVGID_13_);}
	.st21{fill:url(#SVGID_14_);}
	.st22{fill:url(#SVGID_15_);}
	.st23{fill:url(#SVGID_16_);}
	.st24{fill:url(#SVGID_17_);}
	.st25{fill:url(#SVGID_18_);}
	.st26{fill:url(#SVGID_19_);}
	.st27{fill:url(#SVGID_20_);}
	.st28{fill:url(#SVGID_21_);}
	.st29{fill:url(#SVGID_22_);}
	.st30{fill:url(#SVGID_23_);}
	.st31{opacity:0.47;fill:#FFFFFF;}
</style>
<g id="Background">
	
		<ellipse transform="matrix(0.2298 -0.9732 0.9732 0.2298 -550.9765 3596.0974)" class="st0" cx="1996.4" cy="2146.1" rx="2113" ry="1837.3"/>
	
		<ellipse transform="matrix(0.7394 -0.6733 0.6733 0.7394 -914.0693 1915.0001)" class="st1" cx="2016.4" cy="2138.1" rx="1837.3" ry="2113"/>
</g>
<g id="Illustration">
	<g>
		
			<linearGradient id="SVGID_1_" gradientUnits="userSpaceOnUse" x1="1458.9127" y1="3885.0105" x2="-578.9628" y2="1685.3984" gradientTransform="matrix(-1 0 0 1 1932.8577 0)">
			<stop  offset="0" style="stop-color:#DAE3FE"/>
			<stop  offset="1" style="stop-color:#E9EFFD"/>
		</linearGradient>
		<path class="st2" d="M755.5,2630.7c280.6,653.4,1021.2,934.1,1601.4,886.2c158.4-13.1,477.2-39.4,726.1-273.9
			c478-450.4,404.4-1391.9-53.2-1946.2c-58.9-71.4-466.8-549.6-1102.4-543.2c-465.4,4.7-792,266.6-831.7,299.2
			c-50.2,41.2-160.8,139.2-260.6,294.6C600.8,1712.6,580.2,2222.3,755.5,2630.7z"/>
		<g>
			<g>
				<g class="st3">
					<path class="st4" d="M1312.3,992.3c-3.7,4.3-10.2,4.7-14.4,1c-8.3-7.2-17-14.2-25.9-20.7c-4.5-3.3-5.5-9.6-2.3-14.1
						c0-0.1,0.1-0.1,0.1-0.2c3.3-4.6,9.7-5.5,14.3-2.2c9.4,6.9,18.5,14.2,27.2,21.8c4,3.5,4.6,9.3,1.7,13.6
						C1312.7,991.7,1312.5,992,1312.3,992.3z M1226.5,943.9c-9.7-5.2-19.7-10.1-29.8-14.5c-5.2-2.2-7.6-8.3-5.3-13.4
						c2.3-5.2,8.3-7.6,13.4-5.3c10.6,4.6,21.1,9.7,31.3,15.2c5,2.7,6.8,8.9,4.1,13.8c-0.2,0.4-0.4,0.7-0.6,1
						C1236.8,945,1231.1,946.4,1226.5,943.9z M1146,911.5c-10.6-2.9-21.4-5.4-32.2-7.5c-5.5-1-9.2-6.4-8.2-11.9
						c1-5.5,6.4-9.2,11.9-8.2c11.4,2.1,22.8,4.8,34,7.9c5.4,1.5,8.6,7.1,7.1,12.6c-0.3,1.2-0.8,2.2-1.5,3.1
						C1154.7,911,1150.3,912.7,1146,911.5z M1060.4,897.9c-11-0.5-22.1-0.5-33.1-0.1c-5.6,0.2-10.4-4.2-10.6-9.8
						c-0.2-5.6,4.2-10.4,9.8-10.6c11.6-0.5,23.3-0.4,34.9,0.1c5.6,0.3,10,5,9.8,10.7c-0.1,2-0.8,3.9-1.8,5.4
						C1067.2,896.3,1064,898,1060.4,897.9z M973.8,903.7c-10.8,2-21.7,4.4-32.3,7.3c-5.5,1.5-11.1-1.8-12.5-7.2
						c-1.5-5.5,1.8-11.1,7.2-12.5c11.2-3,22.6-5.6,34-7.6c5.6-1,10.9,2.7,11.9,8.2c0.5,2.8-0.2,5.5-1.7,7.7
						C978.8,901.7,976.5,903.2,973.8,903.7z M890.7,928.5c-10.1,4.3-20.2,9.1-29.9,14.2c-5,2.6-11.2,0.7-13.8-4.2
						c-2.6-5-0.7-11.2,4.2-13.8c10.2-5.4,20.8-10.5,31.5-15c5.2-2.2,11.2,0.2,13.4,5.4c1.4,3.4,0.9,7.1-1,9.9
						C894,926.5,892.5,927.8,890.7,928.5z M649.5,1221.6c-5.5-1-9.2-6.4-8.2-11.9c2.1-11.4,4.8-22.8,7.9-34
						c1.5-5.4,7.2-8.6,12.6-7.1c5.4,1.5,8.6,7.2,7.1,12.6c-3,10.6-5.5,21.5-7.5,32.2c-0.3,1.5-0.9,2.8-1.7,4
						C657.5,1220.6,653.6,1222.4,649.5,1221.6z M815.2,971.2c-8.9,6.4-17.6,13.3-25.9,20.5c-4.3,3.7-10.7,3.2-14.4-1.1
						c-3.7-4.3-3.2-10.7,1.1-14.4c8.8-7.6,18-14.8,27.3-21.6c4.6-3.3,11-2.3,14.3,2.3c2.6,3.6,2.5,8.4,0.1,11.9
						C816.9,969.7,816.1,970.5,815.2,971.2z M673.6,1135.9c-5.2-2.3-7.5-8.3-5.3-13.5c4.6-10.6,9.8-21.1,15.3-31.3
						c2.7-5,8.9-6.8,13.9-4.1c5,2.7,6.8,8.9,4.1,13.9c-5.2,9.7-10.1,19.7-14.5,29.8c-0.3,0.6-0.6,1.2-1,1.8
						C683.3,1136.3,678.1,1137.8,673.6,1135.9z M751.1,1029.6c-7.2,8.3-14.2,16.9-20.7,25.8c-3.3,4.6-9.7,5.5-14.3,2.2
						c-4.5-3.3-5.5-9.6-2.3-14.1c0-0.1,0.1-0.1,0.1-0.2c6.9-9.3,14.2-18.5,21.8-27.2c3.7-4.2,10.2-4.7,14.4-1
						c4,3.5,4.6,9.3,1.6,13.6C751.6,1029,751.3,1029.3,751.1,1029.6z"/>
					<path class="st4" d="M652.9,1288.9c1.2-1.6,1.8-3.7,1.9-5.8c0-5.3,0.2-10.6,0.4-15.9c0.3-5.6-4.1-10.4-9.7-10.7
						c-5.6-0.3-10.4,4.1-10.7,9.7c-0.3,5.6-0.4,11.2-0.4,16.8c0,5.6,4.5,10.2,10.2,10.3C648,1293.3,651.1,1291.6,652.9,1288.9z"/>
				</g>
				<g class="st3">
					<path class="st4" d="M773.2,1576.4c2.8-4,2.4-9.6-1.2-13.2c-3.8-3.7-7.5-7.5-11.2-11.3c-3.9-4.1-10.4-4.3-14.4-0.4
						c-4.1,3.9-4.3,10.4-0.4,14.4c3.8,4.1,7.8,8.1,11.8,11.9c4,3.9,10.5,3.8,14.5-0.2C772.6,1577.2,772.9,1576.8,773.2,1576.4z"/>
					<path class="st4" d="M1364.5,1536.6c-3.5,4.5-9.9,5.3-14.3,1.8c-4.5-3.5-5.2-9.9-1.8-14.3c6.6-8.5,12.9-17.4,18.9-26.5
						c3.1-4.7,9.4-6.1,14.1-3s6.1,9.4,3,14.1c-2.6,4-5.2,7.9-7.9,11.7C1372.6,1525.9,1368.5,1531.3,1364.5,1536.6z M1398,1464.9
						c-5.1-2.4-7.3-8.5-4.8-13.6c4.6-9.8,8.9-19.9,12.7-30c2-5.3,7.9-8,13.2-6c5.3,2,8,7.9,6,13.2c-4,10.6-8.5,21.3-13.4,31.6
						c-0.3,0.5-0.5,1-0.9,1.5C1407.9,1465.6,1402.6,1467.1,1398,1464.9z M1327.3,1578.1c-8.1,7.9-16.7,15.6-25.6,22.9
						c-4.4,3.6-10.8,3-14.4-1.4c-3.6-4.4-2.9-10.8,1.4-14.4c8.4-6.9,16.5-14.2,24.3-21.7c4-3.9,10.5-3.9,14.5,0.2
						c3.5,3.6,3.8,9.1,1,13C1328.2,1577.1,1327.8,1577.6,1327.3,1578.1z M1428.8,1382.8c-5.5-1.2-9-6.7-7.7-12.2
						c2.4-10.6,4.3-21.3,5.8-32c0.8-5.6,5.9-9.5,11.5-8.7c5.6,0.8,9.5,5.9,8.7,11.5c-1.6,11.3-3.6,22.6-6.1,33.8
						c-0.3,1.3-0.9,2.6-1.6,3.6C1437.1,1382,1432.9,1383.8,1428.8,1382.8z M1256.4,1633.2c-9.7,5.9-19.8,11.6-30,16.7
						c-5,2.5-11.2,0.5-13.7-4.5c-2.5-5-0.5-11.2,4.5-13.7c9.7-4.9,19.2-10.2,28.4-15.8c4.8-3,11.1-1.4,14.1,3.4
						c2.2,3.6,1.9,8-0.3,11.2C1258.7,1631.5,1257.6,1632.5,1256.4,1633.2z M1175.2,1671.5c-10.8,3.7-21.8,7-32.9,9.7
						c-5.5,1.4-11-1.9-12.4-7.4c-1.4-5.5,1.9-11,7.4-12.4c10.5-2.6,21-5.8,31.2-9.3c5.3-1.8,11.2,1,13,6.4c1.1,3.2,0.5,6.6-1.3,9.2
						C1179,1669.4,1177.3,1670.7,1175.2,1671.5z M1087.5,1691.1c-11.3,1.3-22.8,2-34.2,2.4c-5.6,0.2-10.3-4.3-10.5-9.9
						c-0.2-5.7,4.3-10.3,9.9-10.5c10.8-0.3,21.7-1,32.5-2.2c5.6-0.6,10.7,3.4,11.3,9c0.3,2.6-0.4,5-1.8,7
						C1093.1,1689.2,1090.5,1690.8,1087.5,1691.1z M997.6,1691.2c-11.3-1.2-22.7-3-33.9-5.2c-5.5-1.1-9.1-6.5-8.1-12
						c1.1-5.5,6.5-9.1,12-8c10.6,2.1,21.4,3.7,32.2,4.9c5.6,0.6,9.7,5.7,9,11.3c-0.2,1.8-0.8,3.4-1.8,4.7
						C1005,1689.8,1001.4,1691.6,997.6,1691.2z M909.9,1671.5c-10.8-3.7-21.5-7.9-31.9-12.5c-5.2-2.3-7.5-8.3-5.2-13.5
						c2.3-5.1,8.3-7.5,13.5-5.2c9.9,4.4,20.1,8.4,30.3,11.9c5.3,1.8,8.2,7.7,6.3,13c-0.3,0.9-0.8,1.8-1.3,2.5
						C919,1671.3,914.3,1673,909.9,1671.5z M828.7,1633c-7.1-4.4-14.2-9.1-21.1-13.9c-2.5-1.7-4.9-3.5-7.4-5.3
						c-4.5-3.3-5.7-9.8-2.2-14.3c3.3-4.5,9.7-5.5,14.3-2.2c2.3,1.7,4.6,3.4,7,5c6.5,4.6,13.2,9,20,13.2c4.8,3,6.3,9.3,3.3,14.1
						c-0.1,0.2-0.2,0.4-0.3,0.5C839.3,1634.6,833.3,1635.9,828.7,1633z"/>
					<path class="st4" d="M1449.1,1291.4c1.2-1.7,1.9-3.7,1.9-5.9c0-5.5-0.1-11.2-0.3-16.8c-0.2-5.6-5-10-10.6-9.8
						c-5.6,0.2-10,5-9.8,10.6c0.2,5.3,0.3,10.7,0.3,15.9c0,5.6,4.6,10.2,10.2,10.2C1444.2,1295.7,1447.2,1294,1449.1,1291.4z"/>
				</g>
				<g>
					<path class="st4" d="M1325.3,1167.4c-0.6-2-2.3-3.4-4.3-3.5l-58-3.4c-13.1-23.8-30.1-45.6-50.7-64.5l10.4-57.2
						c0.4-2-0.6-4-2.4-5l-60.8-34.1c-1.8-1-4-0.8-5.5,0.6l-43.4,38.6c-26.8-7.8-54.4-10.9-81.5-9.7l-33.1-47.8
						c-1.2-1.7-3.3-2.4-5.2-1.9l-67.1,18.9c-2,0.6-3.4,2.3-3.5,4.3l-3.4,58c-23.8,13.1-45.6,30.1-64.5,50.7l-57.2-10.4
						c-2-0.4-4,0.6-5,2.4l-34.1,60.8c-1,1.8-0.8,4,0.6,5.5l38.6,43.4c-7.8,26.8-10.9,54.4-9.7,81.5l-47.8,33.1
						c-1.7,1.2-2.4,3.3-1.9,5.2l18.9,67.1c0.6,2,2.3,3.4,4.3,3.5l58,3.4c13.1,23.8,30.1,45.6,50.7,64.5l-10.4,57.2
						c-0.4,2,0.6,4,2.4,5l60.8,34.1c1.8,1,4,0.8,5.5-0.6l43.4-38.6c26.8,7.8,54.4,10.9,81.5,9.7l33.1,47.8c1.2,1.7,3.3,2.4,5.2,1.9
						l67.1-18.9c2-0.6,3.4-2.3,3.5-4.3l3.4-58c23.8-13.1,45.6-30.1,64.5-50.7l57.2,10.4c2,0.4,4-0.6,5-2.4l34.1-60.8
						c1-1.8,0.8-4-0.6-5.5l-38.6-43.4c7.8-26.8,10.9-54.4,9.7-81.5l47.8-33.1c1.7-1.2,2.4-3.3,1.9-5.2L1325.3,1167.4z"/>
					<g>
						<path class="st5" d="M1090.8,1332c-26.6,28-71.1,29.2-99.1,2.6c-13.6-12.9-21.3-30.3-21.8-49c-0.5-18.7,6.3-36.5,19.2-50.1
							c26.6-28,71.1-29.2,99.1-2.6c25.5,24.2,28.8,63.2,9.2,91.1C1095.4,1326.8,1093.2,1329.5,1090.8,1332z M986.2,1285.2
							c0.4,14.4,6.3,27.7,16.7,37.6c21.5,20.4,55.6,19.5,76-2c20.4-21.5,19.5-55.6-2-76c-21.5-20.4-55.6-19.5-76,2
							c-1.8,2-3.5,4-5,6.2C989.3,1262.3,985.9,1273.5,986.2,1285.2z"/>
					</g>
					<g>
						<path class="st5" d="M1179.3,1383.4c3.4-4.8,6.5-9.8,9.4-15l0,0c0.9-1.6,1.8-3.3,2.7-4.9c4.3-8.2,7.9-16.7,10.7-25.4
							c0-0.1,0.1-0.2,0.1-0.4c0.1-0.3,0.2-0.7,0.3-1c0.2-0.7,0.4-1.3,0.6-2c0.5-1.7-0.1-3.6-1.6-4.5c-0.3-0.2-0.7-0.4-1.2-0.6
							c-2.2-0.7-4.4,0.5-5.1,2.7c-3.4,11.1-8.1,21.9-13.8,32.1c-28.5,50.7-80.1,80.5-134.3,83.5c-30.1,1.7-61.1-4.9-89.3-20.7
							c-4.9-2.8-9.7-5.8-14.3-9c-30.8-21.7-53.1-53-63.4-89.8c-11.9-42.2-6.6-86.5,14.9-124.8c44.3-79,144.6-107.1,223.5-62.8
							c4.9,2.7,9.6,5.7,14.1,8.9c19.7,13.8,36.1,31.8,48,52.7c0.3,0.5,0.7,1,1.2,1.3c1.3,0.9,3,1,4.4,0.2c2-1.1,2.6-3.6,1.5-5.6
							c-12.5-21.9-29.8-40.8-50.4-55.3c-4.8-3.3-9.7-6.5-14.8-9.3c-82.9-46.5-188.2-16.9-234.7,65.9c-22.5,40.1-28.1,86.7-15.6,131
							c10.8,38.6,34.2,71.5,66.5,94.2c4.8,3.4,9.8,6.5,15,9.5c40.1,22.5,86.7,28.1,131,15.6
							C1123.7,1439.1,1156.6,1415.8,1179.3,1383.4z"/>
					</g>
				</g>
			</g>
			<g>
				<g class="st3">
					<path class="st4" d="M1733.8,860.9c1.6-2.2,1.6-5.3-0.2-7.6c-3.3-4.2-6.9-8.3-10.4-12.3c-2.3-2.6-6.3-2.8-8.9-0.5
						c-2.6,2.3-2.8,6.3-0.5,8.9c3.4,3.8,6.8,7.8,10,11.8c2.2,2.7,6.1,3.2,8.9,1C1733.1,861.8,1733.5,861.4,1733.8,860.9z"/>
					<path class="st4" d="M1699.8,826.4c-2.3,2.6-6.3,2.9-8.9,0.6c-6.7-5.8-13.7-11.3-20.9-16.3c-1.5-1.1-3.1-2.1-4.6-3.2
						c-2.9-1.9-3.7-5.9-1.7-8.8c1.9-2.7,5.9-3.7,8.8-1.7c1.6,1.1,3.2,2.2,4.8,3.3c7.5,5.3,14.9,11.1,21.9,17.1
						c2.5,2.1,2.9,5.8,1,8.4C1700.1,826,1700,826.2,1699.8,826.4z M1637.8,791.3c-9.5-4.8-19.4-9.1-29.4-12.7
						c-3.3-1.2-5-4.8-3.8-8.1c1.2-3.3,4.8-5,8.1-3.8c10.5,3.8,20.9,8.3,30.8,13.3c3.1,1.6,4.4,5.4,2.8,8.5c-0.1,0.3-0.3,0.5-0.5,0.8
						C1644,791.9,1640.6,792.8,1637.8,791.3z M1577.6,769.6c-10.4-2.3-21-4.1-31.7-5.1c-3.5-0.3-6-3.4-5.7-6.9
						c0.3-3.5,3.4-6,6.9-5.7c11.1,1.1,22.3,2.9,33.2,5.4c3.4,0.8,5.5,4.1,4.8,7.5c-0.2,0.8-0.5,1.6-1,2.2
						C1582.7,769.1,1580.2,770.2,1577.6,769.6z M1513.9,763.3c-10.7,0.3-21.4,1.2-31.9,2.8c-3.5,0.5-6.7-1.9-7.2-5.3
						c-0.5-3.4,1.9-6.7,5.3-7.2c11-1.7,22.3-2.6,33.5-2.9c3.5-0.1,6.4,2.7,6.5,6.2c0,1.4-0.4,2.7-1.1,3.8
						C1517.8,762.2,1516,763.3,1513.9,763.3z M1450.6,772.8c-10.3,2.9-20.5,6.4-30.3,10.5c-3.2,1.3-6.9-0.2-8.3-3.4
						c-1.3-3.2,0.2-6.9,3.4-8.3c10.3-4.3,21-8,31.8-11c3.4-0.9,6.8,1,7.8,4.4c0.5,1.9,0.1,3.8-0.9,5.3
						C1453.3,771.5,1452.1,772.4,1450.6,772.8z M1391.6,797.4c-9.3,5.3-18.3,11.2-26.8,17.5c-2.8,2.1-6.7,1.5-8.8-1.3
						c-2.1-2.8-1.5-6.7,1.3-8.8c8.9-6.7,18.4-12.9,28.1-18.4c3-1.7,6.9-0.7,8.6,2.4c1.2,2.2,1,4.8-0.3,6.8
						C1393.1,796.3,1392.4,796.9,1391.6,797.4z M1340.3,835.6c-7.7,7.4-15,15.3-21.7,23.6c-2.2,2.7-6.2,3.1-8.9,0.9
						c-2.7-2.2-3.1-6.1-0.9-8.9c7.1-8.7,14.7-17,22.8-24.7c2.5-2.4,6.5-2.3,8.9,0.2c2.1,2.2,2.3,5.6,0.6,8
						C1340.9,835,1340.6,835.3,1340.3,835.6z M1276.3,916.5c-3.2-1.5-4.5-5.2-3-8.4c4.1-8.7,8.7-17.4,13.7-25.8
						c0.8-1.3,1.5-2.5,2.3-3.8c1.8-3,5.7-3.8,8.7-2c3,1.9,3.8,5.7,2,8.7c-0.7,1.2-1.5,2.4-2.2,3.6c-4.8,8-9.2,16.2-13.1,24.6
						c-0.2,0.3-0.3,0.7-0.6,1C1282.4,916.9,1279.1,917.8,1276.3,916.5z"/>
				</g>
				<g class="st3">
					<path class="st4" d="M1741.2,1183.2c-6.4,8.9-13.5,17.5-20.9,25.6c-2.4,2.6-6.4,2.7-8.9,0.3c-2.6-2.4-2.7-6.4-0.3-8.9
						c7.1-7.7,13.8-15.9,20-24.4c2-2.8,6-3.5,8.8-1.4C1742.6,1176.4,1743.2,1180.3,1741.2,1183.2
						C1741.3,1183.1,1741.2,1183.1,1741.2,1183.2z M1750.4,1157.7c-3-1.7-4.2-5.5-2.5-8.6c5.1-9.2,9.7-18.8,13.6-28.5
						c1.3-3.2,5-4.8,8.2-3.5c3.2,1.3,4.8,5,3.5,8.2c-4.1,10.2-8.9,20.2-14.2,29.8c-0.1,0.2-0.2,0.4-0.4,0.6
						C1756.7,1158.4,1753.2,1159.3,1750.4,1157.7z M1696.4,1231.6c-8.4,7.1-17.3,13.8-26.5,19.8c-2.9,1.9-6.8,1.1-8.7-1.8
						c-1.9-2.9-1.1-6.8,1.8-8.7c8.8-5.7,17.3-12.1,25.3-18.8c2.7-2.2,6.6-1.9,8.9,0.7c1.9,2.2,2,5.4,0.3,7.7
						C1697.2,1230.8,1696.8,1231.2,1696.4,1231.6z M1776,1098.5c-3.4-0.9-5.4-4.4-4.5-7.7c2.7-10.1,4.8-20.5,6.3-30.9
						c0.5-3.4,3.7-5.9,7.1-5.4c3.5,0.5,5.9,3.7,5.4,7.1c-1.5,10.9-3.8,21.8-6.6,32.4c-0.2,0.7-0.5,1.4-0.9,2
						C1781.3,1098.2,1778.6,1099.2,1776,1098.5z M1641.2,1267.7c-9.8,4.9-20.1,9.2-30.5,12.8c-3.3,1.2-6.9-0.6-8-3.9
						c-1.2-3.3,0.6-6.9,3.9-8c9.9-3.5,19.7-7.6,29.1-12.2c3.1-1.5,6.9-0.3,8.5,2.9c1.1,2.1,0.8,4.6-0.5,6.4
						C1643,1266.5,1642.2,1267.3,1641.2,1267.7z M1578.9,1289.6c-10.7,2.4-21.7,4.1-32.7,5.1c-3.5,0.3-6.6-2.2-6.9-5.7
						c-0.3-3.5,2.2-6.6,5.7-6.9c10.4-1,20.9-2.7,31.2-4.9c3.4-0.7,6.8,1.4,7.5,4.8c0.4,1.8,0,3.6-1,5
						C1581.9,1288.3,1580.5,1289.2,1578.9,1289.6z M1513.2,1295.9c-11-0.3-22.1-1.2-32.9-2.8c-3.5-0.5-5.8-3.7-5.3-7.2
						c0.5-3.4,3.7-5.8,7.2-5.3c10.4,1.5,20.9,2.4,31.4,2.7c3.5,0.1,6.2,3,6.2,6.5c0,1.3-0.4,2.5-1.1,3.5
						C1517.4,1294.9,1515.4,1296,1513.2,1295.9z"/>
					<path class="st4" d="M1791.8,1031.9c0.7-1,1.1-2.2,1.1-3.5c0.1-5.4,0-10.8-0.2-16.1c-0.1-3.5-3.1-6.2-6.6-6
						c-3.5,0.2-6.2,3.1-6,6.6c0.2,5.1,0.3,10.2,0.2,15.4c-0.1,3.5,2.7,6.4,6.2,6.4C1788.7,1034.6,1790.7,1033.6,1791.8,1031.9z"/>
				</g>
				<g>
					<path class="st4" d="M1709.5,944.4c-0.4-1.3-1.5-2.2-2.9-2.3l-38.8-2.3c-8.8-15.9-20.1-30.5-33.9-43.2l6.9-38.3
						c0.2-1.3-0.4-2.7-1.6-3.4l-40.7-22.8c-1.2-0.7-2.7-0.5-3.7,0.4l-29,25.8c-18-5.2-36.4-7.3-54.5-6.5l-22.2-32
						c-0.8-1.1-2.2-1.6-3.5-1.3l-44.9,12.6c-1.3,0.4-2.2,1.5-2.3,2.9l-2.3,38.8c-15.9,8.8-30.5,20.1-43.2,33.9l-38.3-6.9
						c-1.3-0.2-2.7,0.4-3.4,1.6l-22.8,40.7c-0.7,1.2-0.5,2.7,0.4,3.7l25.8,29c-5.2,18-7.3,36.4-6.5,54.5l-32,22.2
						c-1.1,0.8-1.6,2.2-1.3,3.5l12.6,44.9c0.4,1.3,1.5,2.2,2.9,2.3l38.8,2.3c8.8,15.9,20.1,30.5,33.9,43.2l-6.9,38.3
						c-0.2,1.3,0.4,2.7,1.6,3.4l40.7,22.8c1.2,0.7,2.7,0.5,3.7-0.4l29-25.8c18,5.2,36.4,7.3,54.5,6.5l22.2,32
						c0.8,1.1,2.2,1.6,3.5,1.3l44.9-12.6c1.3-0.4,2.2-1.5,2.3-2.9l2.3-38.8c15.9-8.8,30.5-20.1,43.2-33.9l38.3,6.9
						c1.3,0.2,2.7-0.4,3.4-1.6l22.8-40.7c0.7-1.2,0.5-2.7-0.4-3.7l-25.8-29c5.2-18,7.3-36.4,6.5-54.5l32-22.2
						c1.1-0.8,1.6-2.2,1.3-3.5L1709.5,944.4z"/>
					<g>
						<path class="st5" d="M1553.2,1055.1c-8.8,9.3-20.6,14.5-33.4,14.9c-12.7,0.3-24.9-4.3-34.1-13.1
							c-19.1-18.1-19.9-48.3-1.8-67.5c18.1-19.1,48.4-19.9,67.5-1.8c9.3,8.8,14.5,20.6,14.9,33.4c0.3,10.4-2.7,20.3-8.6,28.6
							C1556.3,1051.5,1554.8,1053.4,1553.2,1055.1z M1494.3,1047.7c6.8,6.5,15.7,9.9,25.1,9.6c9.4-0.2,18.1-4.1,24.6-10.9l0,0
							c6.4-6.8,9.9-15.7,9.6-25.1c-0.2-9.4-4.1-18.1-10.9-24.6c-14.1-13.3-36.3-12.7-49.7,1.3c-1.2,1.3-2.3,2.6-3.3,4
							C1479.9,1016.1,1481.6,1035.6,1494.3,1047.7z"/>
					</g>
					<g>
						<path class="st5" d="M1614.8,1090.9c2.3-3.3,4.4-6.7,6.4-10.2c4-7.1,7.2-14.5,9.7-22.2c0.1-0.3,0.2-0.7,0.3-1
							c0.8-2.7-0.2-5.5-2.4-7c-0.5-0.4-1.1-0.7-1.8-0.9c-3.3-1-6.9,0.9-7.9,4.2c-2.2,7.2-5.2,14.2-8.9,20.8l0,0
							c-0.2,0.4-0.4,0.7-0.6,1.1c-8.9,15.5-21.4,28.2-36.2,37.4c-8.1,5-16.9,8.9-26.2,11.6c-0.1,0-0.2,0-0.2,0.1
							c-0.2,0.1-0.5,0.1-0.7,0.2c-27.3,7.7-56,4.3-80.8-9.6c-3.2-1.8-6.3-3.7-9.3-5.8c-20-14-34.4-34.3-41-58.1
							c-7.7-27.3-4.2-56,9.7-80.8c13.9-24.7,36.6-42.6,63.9-50.3c27.3-7.7,56-4.3,80.8,9.6c3.2,1.8,6.2,3.7,9.1,5.8
							c12.7,8.9,23.4,20.6,31.1,34.1c0.5,0.8,1.1,1.5,1.9,2c1.9,1.4,4.6,1.6,6.8,0.3c3-1.7,4.1-5.6,2.3-8.6
							c-8.6-15.1-20.5-28.1-34.8-38.2c-3.3-2.3-6.7-4.5-10.2-6.4c-27.7-15.6-59.8-19.4-90.4-10.8c-30.6,8.6-56,28.5-71.5,56.3
							c-15.6,27.7-19.4,59.8-10.8,90.4c7.5,26.6,23.6,49.3,45.9,65c3.3,2.3,6.8,4.5,10.4,6.5
							C1512.9,1156.2,1580.2,1140.2,1614.8,1090.9z"/>
					</g>
				</g>
			</g>
		</g>
		<g>
			<linearGradient id="SVGID_2_" gradientUnits="userSpaceOnUse" x1="2438.627" y1="2242.1208" x2="2568.7581" y2="2242.1208">
				<stop  offset="0" style="stop-color:#FE7062"/>
				<stop  offset="1" style="stop-color:#FF928E"/>
			</linearGradient>
			<path class="st6" d="M2568.8,961.1v2510.1c0,16.6-6.7,31.6-18.1,40.8c-8.7,7-19.6,11.5-31.7,11l-27.5-1
				c-27.8-1-52.8-26.5-52.8-55.5V965.4L2568.8,961.1z"/>
			<g>
				
					<linearGradient id="SVGID_3_" gradientUnits="userSpaceOnUse" x1="-433.8866" y1="644.5011" x2="-721.4317" y2="1125.8267" gradientTransform="matrix(-1 0 0 1 1932.8577 0)">
					<stop  offset="0" style="stop-color:#E1473D"/>
					<stop  offset="1" style="stop-color:#E9605A"/>
				</linearGradient>
				<path class="st7" d="M2621.1,871.1c0,42.4-21.5,80.3-53.9,102.6c-18.2,12.6-39.9,20.2-63.1,20.9c-11.5,0.3-22.7-1-33.2-3.9
					c-7.9-2.2-15.4-5.2-22.6-8.9c-1.8-1-3.6-2-5.3-3c-33.2-20-55.2-56.9-55.2-99.7c0-65.8,52-121.1,116.3-123.4
					C2568.6,753,2621.1,804.8,2621.1,871.1z"/>
				
					<linearGradient id="SVGID_4_" gradientUnits="userSpaceOnUse" x1="-436.8869" y1="690.5762" x2="-660.4454" y2="1064.7937" gradientTransform="matrix(-1 0 0 1 1932.8577 0)">
					<stop  offset="0" style="stop-color:#FE7062"/>
					<stop  offset="1" style="stop-color:#FF928E"/>
				</linearGradient>
				<path class="st8" d="M2567.5,866.7c0,32.9-16.7,62.4-41.9,79.8c-14.2,9.8-31,15.7-49.1,16.2c-9,0.3-17.6-0.8-25.8-3
					c-6.1-1.7-12-4-17.5-6.9c-1.4-0.8-2.8-1.5-4.2-2.4c-25.8-15.5-42.9-44.2-42.9-77.5c0-51.2,40.4-94.1,90.4-96
					C2526.7,775,2567.5,815.2,2567.5,866.7z"/>
			</g>
			<g>
				
					<linearGradient id="SVGID_5_" gradientUnits="userSpaceOnUse" x1="2694.7441" y1="472.5156" x2="2694.7441" y2="1340.3324" gradientTransform="matrix(0.946 0.1287 -0.1364 0.9906 -172.8675 -148.3128)">
					<stop  offset="0" style="stop-color:#E1473D"/>
					<stop  offset="1" style="stop-color:#E9605A"/>
				</linearGradient>
				<path class="st9" d="M1628.1,1050.8l10,5.2l189.3-116.1l927.1,137.1l129.7,14.8l-7.7,24.2c-1,2.6-148.6,110.1-148.6,110.1
					l114.8,150.7l-5.5,15.5c-0.7,1.8-2.5,3-4.3,2.7l-119.2-18.5l-927.6-143.7c-2.6-0.4-5-1.7-6.8-3.6l-149.2-156.2
					c-2-2-3-4.9-2.8-7.8L1628.1,1050.8z"/>
				
					<linearGradient id="SVGID_6_" gradientUnits="userSpaceOnUse" x1="-557.8018" y1="707.4141" x2="-616.0997" y2="1436.7825" gradientTransform="matrix(-0.9434 -0.1461 -0.1531 0.9882 1850.3969 146.9254)">
					<stop  offset="0" style="stop-color:#FE7062"/>
					<stop  offset="1" style="stop-color:#FF928E"/>
				</linearGradient>
				<path class="st10" d="M1837.9,929.7l1046.3,162.1c1,0.2,1.3,1.5,0.4,2.1l-147.4,107.9c-2,1.5-2.5,4.3-1.2,6.4l105.4,166.6
					c0.5,0.8-0.2,1.9-1.1,1.8l-1047-162.2c-3-0.5-5.7-1.9-7.9-4.1l-156-158c-0.7-0.7-0.5-1.8,0.3-2.3l198.7-118.3
					C1831.3,929.9,1834.7,929.2,1837.9,929.7z"/>
			</g>
			<g>
				<path class="st11" d="M1719.2,2029.3l10.6,2.6l152.1-153.3l906.6-83l121-15.1c2.5-0.3,4.7,1.7,4.6,4.2l-1,19.8
					c-0.4,2.7-115.4,138.4-115.4,138.4l143,116.3l-1.7,15.9c-0.2,1.9-1.6,3.4-3.4,3.5l-116.8,9.9l-908.6,76.9
					c-2.5,0.2-5.1-0.4-7.3-1.8l-176.6-113.6c-2.3-1.5-3.9-3.9-4.4-6.7L1719.2,2029.3z"/>
				<path class="st4" d="M1889.4,1866.5l1021.8-86.5c2.1-0.2,3.4,2.3,2,3.9l-112.5,133.7c-1.5,1.8-1.4,4.7,0.3,6.4l137.8,133.5
					c0.7,0.7,0.3,1.8-0.7,1.9l-1025.5,86.8c-2.9,0.2-5.9-0.5-8.4-2l-183.5-113.8c-0.8-0.5-0.9-1.6-0.2-2.2l160.4-157.6
					C1883.2,1868.2,1886.2,1866.8,1889.4,1866.5z"/>
				<g>
					<path class="st12" d="M2496.3,1931.1l-569.5,44.5c-2.1,0.2-4-1.4-4.1-3.5l-2.1-26.2c-0.2-2.1,1.4-4,3.5-4.1l569.5-44.5
						c2.1-0.2,4,1.4,4.1,3.5l2.1,26.2C2499.9,1929.1,2498.4,1930.9,2496.3,1931.1z"/>
					<path class="st12" d="M2496.7,2021l-565,44.2c-2.1,0.2-4-1.4-4.1-3.5l-1.9-24.5c-0.2-2.1,1.4-4,3.5-4.1l565-44.2
						c2.1-0.2,4,1.4,4.1,3.5l1.9,24.5C2500.3,2018.9,2498.8,2020.8,2496.7,2021z"/>
				</g>
			</g>
			<g>
				<linearGradient id="SVGID_7_" gradientUnits="userSpaceOnUse" x1="2687.4128" y1="-137.4673" x2="2694.1123" y2="619.5982">
					<stop  offset="0" style="stop-color:#4F52FF"/>
					<stop  offset="1" style="stop-color:#4042E2"/>
				</linearGradient>
				<path class="st13" d="M3368.6,1517.2l-11,4.4L3166.7,1398l-993.2,76.2l-138.3,7.9l5.6,21.6c0.9,2.6,148.4,116.1,148.4,116.1
					l-134.1,138.6l4.6,15.3c0.5,1.8,2.4,3,4.3,2.8l127.8-10.6l994.3-82.6c2.8-0.2,5.4-1.3,7.5-3.1l171-141.8
					c2.2-1.9,3.6-4.5,3.6-7.4L3368.6,1517.2z"/>
				<path class="st14" d="M3156.5,1387.5l-1119.2,93c-1.8,0.2-2.5,2.5-1.1,3.6l145.3,111.6c2,1.5,2.3,4.3,0.7,6.3l-125.5,154.4
					c-0.6,0.8,0,1.9,1,1.8L3180,1665c3.2-0.3,6.2-1.5,8.7-3.4l178.4-143.2c0.7-0.6,0.7-1.7-0.1-2.2l-200.6-126.2
					C3163.5,1388.1,3160,1387.2,3156.5,1387.5z"/>
				<g>
					<path class="st12" d="M3140.9,1496.5l-556.3,43.5c-2.1,0.2-4-1.4-4.1-3.5l-2.1-27.3c-0.2-2.1,1.4-4,3.5-4.1l556.3-43.5
						c2.1-0.2,4,1.4,4.1,3.5l2.1,27.3C3144.6,1494.5,3143,1496.3,3140.9,1496.5z"/>
					<path class="st12" d="M3141.7,1589.1l-551.8,43.1c-2.1,0.2-4-1.4-4.1-3.5l-2-25.5c-0.2-2.1,1.4-4,3.5-4.1l551.8-43.1
						c2.1-0.2,4,1.4,4.1,3.5l2,25.5C3145.4,1587.1,3143.8,1589,3141.7,1589.1z"/>
				</g>
			</g>
			<g>
				<linearGradient id="SVGID_8_" gradientUnits="userSpaceOnUse" x1="2528.6638" y1="1067.6967" x2="2413.0659" y2="1600.5293">
					<stop  offset="0" style="stop-color:#E1473D"/>
					<stop  offset="1" style="stop-color:#E9605A"/>
				</linearGradient>
				<circle class="st15" cx="2503.5" cy="1183.9" r="39.7"/>
				<linearGradient id="SVGID_9_" gradientUnits="userSpaceOnUse" x1="2504.1716" y1="1086.6001" x2="2506.7454" y2="1203.8536">
					<stop  offset="0" style="stop-color:#E1473D"/>
					<stop  offset="1" style="stop-color:#E9605A"/>
				</linearGradient>
				<circle class="st16" cx="2506.2" cy="1177.6" r="24.4"/>
			</g>
			<g>
				<linearGradient id="SVGID_10_" gradientUnits="userSpaceOnUse" x1="2521.4421" y1="1475.5851" x2="2410.1003" y2="1988.8002">
					<stop  offset="0" style="stop-color:#E1473D"/>
					<stop  offset="1" style="stop-color:#E9605A"/>
				</linearGradient>
				<circle class="st17" cx="2497.2" cy="1587.5" r="38.3"/>
				<linearGradient id="SVGID_11_" gradientUnits="userSpaceOnUse" x1="2497.8518" y1="1493.7928" x2="2500.3308" y2="1606.7291">
					<stop  offset="0" style="stop-color:#E1473D"/>
					<stop  offset="1" style="stop-color:#E9605A"/>
				</linearGradient>
				<circle class="st18" cx="2499.8" cy="1581.4" r="23.5"/>
			</g>
			<g>
				<linearGradient id="SVGID_12_" gradientUnits="userSpaceOnUse" x1="2524.7371" y1="1833.246" x2="2409.0708" y2="2366.395">
					<stop  offset="0" style="stop-color:#E1473D"/>
					<stop  offset="1" style="stop-color:#E9605A"/>
				</linearGradient>
				<circle class="st19" cx="2499.5" cy="1949.5" r="39.8"/>
				<linearGradient id="SVGID_13_" gradientUnits="userSpaceOnUse" x1="2500.2305" y1="1852.1608" x2="2502.8059" y2="1969.4838">
					<stop  offset="0" style="stop-color:#E1473D"/>
					<stop  offset="1" style="stop-color:#E9605A"/>
				</linearGradient>
				<circle class="st20" cx="2502.2" cy="1943.2" r="24.4"/>
			</g>
			<g>
				<path class="st12" d="M2384.5,1121.1l-509-80.3c-2.1-0.3-3.5-2.3-3.2-4.4l3.9-24.4c0.3-2.1,2.3-3.5,4.4-3.2l509,80.3
					c2.1,0.3,3.5,2.3,3.2,4.4l-3.9,24.4C2388.5,1120,2386.6,1121.4,2384.5,1121.1z"/>
				<path class="st12" d="M2365.3,1204.6l-505-79.7c-2.1-0.3-3.5-2.3-3.2-4.4l3.6-22.8c0.3-2.1,2.3-3.5,4.4-3.2l505,79.7
					c2.1,0.3,3.5,2.3,3.2,4.4l-3.6,22.8C2369.3,1203.5,2367.3,1204.9,2365.3,1204.6z"/>
			</g>
		</g>
		<g>
			<g>
				<path class="st14" d="M1650.2,2252.9c-315.1-8.2-663.7,76.4-663.7,76.4c-83,457.9-46.5,975.9-32.3,1132.8
					c2.6,29.4,24.6,53.2,53.6,58.6c162.8,29.9,334.6,11.8,420.9-1.4c33.6-5.1,60.5-30.5,67.6-63.7
					c57.1-265.7,220.2-851.9,220.2-851.9c154.2-17.6,281.4-60.9,386.5-118.6c-78.8-93.1-115.2-211-130.9-280.6
					C1860.3,2238,1747.3,2255.4,1650.2,2252.9z"/>
				
					<linearGradient id="SVGID_14_" gradientUnits="userSpaceOnUse" x1="12931.3936" y1="2062.218" x2="13540.9365" y2="2062.218" gradientTransform="matrix(1 9.500000e-03 -9.500000e-03 1 -10938.9697 -65.0464)">
					<stop  offset="0" style="stop-color:#FEBBBA"/>
					<stop  offset="1" style="stop-color:#FF928E"/>
				</linearGradient>
				<path class="st21" d="M2585.5,1797.5c-30.6-37.7-59.3-36.1-59.3-36.1c-48.2,195.5-303.6,367.7-554.1,442.9
					c15.7,69.6,52.1,187.5,130.9,280.6C2519.8,2255.9,2585.5,1797.5,2585.5,1797.5z"/>
			</g>
			<g>
				
					<linearGradient id="SVGID_15_" gradientUnits="userSpaceOnUse" x1="-2627.5298" y1="1964.9348" x2="-2218.52" y2="2895.5239" gradientTransform="matrix(-1 -9.500000e-03 -9.500000e-03 1 -161.3499 38.2734)">
					<stop  offset="0" style="stop-color:#FEBBBA"/>
					<stop  offset="1" style="stop-color:#FF928E"/>
				</linearGradient>
				<path class="st22" d="M2577.9,1807c3.1,10.3-34.5,25.7-56.2-16.7c-0.6-20.2-12-106.8,0.2-123.1c65.1-87,190.7-195.6,190.7-195.6
					c20.9,21,3.3,41.2,3.3,41.2l-61,62.4c12.4,23,27.7,42.4,34.6,70.1c5.3,21,1.7,43.3-9,62.2c-10.8,19-25.5,43.7-39.4,63
					C2614.8,1807.1,2577.9,1807,2577.9,1807z"/>
				
					<linearGradient id="SVGID_16_" gradientUnits="userSpaceOnUse" x1="13538.0146" y1="1655.9479" x2="13708.6807" y2="1393.5492" gradientTransform="matrix(1 9.500000e-03 -9.500000e-03 1 -10938.9697 -65.0464)">
					<stop  offset="0" style="stop-color:#FEBBBA"/>
					<stop  offset="1" style="stop-color:#FF928E"/>
				</linearGradient>
				<path class="st23" d="M2628,1615.8l-55.5,46.2l-17.7,46.3l48.6,54.9c0,0,17.4-92.1,29.8-111.9
					C2645.7,1631.4,2639.4,1621.7,2628,1615.8z"/>
			</g>
			<path class="st14" d="M1104.4,2635.6l-118-306.3c0,0-296.3,197.2-347.1,450.3c55.6,4.6,156.7,20.1,255.3,71
				C917.5,2731.1,1104.4,2635.6,1104.4,2635.6z"/>
			
				<linearGradient id="SVGID_17_" gradientUnits="userSpaceOnUse" x1="11597.5898" y1="2931.3459" x2="12368.9482" y2="2931.3459" gradientTransform="matrix(1 9.500000e-03 -9.500000e-03 1 -10938.9697 -65.0464)">
				<stop  offset="0" style="stop-color:#FEBBBA"/>
				<stop  offset="1" style="stop-color:#FF928E"/>
			</linearGradient>
			<path class="st24" d="M1358.9,2925.2c0,0-332.3,183.6-442.3,23.1c-22.8-33.3-28.1-66.3-22.1-97.6c-98.6-51-199.7-66.4-255.3-71
				c-15.3,76.3-8.4,157.7,35.8,240.3c191.9,359.2,726.8-12.8,726.8-12.8L1358.9,2925.2z"/>
			
				<linearGradient id="SVGID_18_" gradientUnits="userSpaceOnUse" x1="12189.9131" y1="2106.7317" x2="12494.8965" y2="2106.7317" gradientTransform="matrix(1 9.500000e-03 -9.500000e-03 1 -10938.9697 -65.0464)">
				<stop  offset="0" style="stop-color:#FEBBBA"/>
				<stop  offset="1" style="stop-color:#FF928E"/>
			</linearGradient>
			<path class="st25" d="M1333.4,1994l-103,289c-1.7,4.8,0.2,10.1,4.6,12.6c27.2,15.4,125.3,60,244.7-14.1c12.4-7.7,21-20.4,23-34.9
				l34.9-250.7L1333.4,1994z"/>
			<g>
				
					<linearGradient id="SVGID_19_" gradientUnits="userSpaceOnUse" x1="3972.8462" y1="6943.6592" x2="3858.8789" y2="6567.7676" gradientTransform="matrix(0.7523 -0.6588 0.6588 0.7523 -5952.9604 -639.342)">
					<stop  offset="0" style="stop-color:#FEBBBA"/>
					<stop  offset="1" style="stop-color:#FF928E"/>
				</linearGradient>
				<path class="st26" d="M1554.1,1727.5c0,0,108.1,208.3,93.2,291.9c-14.9,83.6-151.3,76.3-269.8,7.1l-81.1-224.6L1554.1,1727.5z"
					/>
				
					<linearGradient id="SVGID_20_" gradientUnits="userSpaceOnUse" x1="3870.033" y1="6288.7236" x2="3965.3647" y2="6832.4678" gradientTransform="matrix(0.7523 -0.6588 0.6588 0.7523 -5952.9604 -639.342)">
					<stop  offset="0" style="stop-color:#09005D"/>
					<stop  offset="1" style="stop-color:#1A0F91"/>
				</linearGradient>
				<path class="st27" d="M1383.8,1916.7c4.9-2.1,6.7-8,3.8-12.5c-8.7-13.6-25-41.2-30-65.3c0,0-19.7-12.9,50.7-29
					c70.3-16.1,175.2-41.2,197.8-100.7c22-58-33-205-124-89.2c-3.5,4.4-10.2,4.4-13.5,0c-14.6-19.3-52.9-59.5-106.9-35.9
					c-50.6,22.1-56.6,58.9-56.1,77.5c0.2,5.5-4.8,9.7-10.1,8.6c-25.4-5.1-86.4-9.8-115.6,52.5c-24,51.4-9,80.7,4.8,95.2
					c4.5,4.7,2.4,12.3-3.8,14.1c-16.8,5-38.5,18.9-36.7,58.2c2.5,54.2,63.1,50,80.4,47.7c2.8-0.4,5.7,0.6,7.6,2.8
					c14.6,16.5,80.6,86.6,152.6,95.7c6.2,0.8,11.1-5.3,9.1-11.3l-30.3-91c-1.4-4.2,0.7-8.8,4.7-10.6L1383.8,1916.7z"/>
				
					<linearGradient id="SVGID_21_" gradientUnits="userSpaceOnUse" x1="3856.3459" y1="6941.9048" x2="3753.8074" y2="6603.7085" gradientTransform="matrix(0.7523 -0.6588 0.6588 0.7523 -5952.9604 -639.342)">
					<stop  offset="0" style="stop-color:#FEBBBA"/>
					<stop  offset="1" style="stop-color:#FF928E"/>
				</linearGradient>
				<path class="st28" d="M1396.2,1929.7c0,0-77.9-54.5-84.1-9.3c-6.2,45.2,70,66.3,107.9,49.8L1396.2,1929.7z"/>
			</g>
			<g>
				<g>
					
						<linearGradient id="SVGID_22_" gradientUnits="userSpaceOnUse" x1="12282.3252" y1="2486.3535" x2="12707.96" y2="4259.834" gradientTransform="matrix(1 0 0 1 -10673.3584 0)">
						<stop  offset="0" style="stop-color:#09005D"/>
						<stop  offset="1" style="stop-color:#1A0F91"/>
					</linearGradient>
					<path class="st29" d="M1291,3215.4l181-632.1c2.1-7.2,8.2-12.4,15.6-13.3c32.8-3.8,127.8-14.6,237.5-23.9
						c132.2-11.2,285.6-20.2,377.4-12.5c13,1.1,20.9,14.9,15.1,26.6c-52.2,105.5-266.7,534.7-374.1,675.3c-3.6,4.7-9.1,7.4-14.9,7.3
						l-420-3.9C1296.4,3238.9,1287.7,3227.2,1291,3215.4z"/>
					
						<linearGradient id="SVGID_23_" gradientUnits="userSpaceOnUse" x1="11990.668" y1="2955.5332" x2="12231.8232" y2="2955.5332" gradientTransform="matrix(1 0 0 1 -10673.3584 0)">
						<stop  offset="0" style="stop-color:#FEBBBA"/>
						<stop  offset="1" style="stop-color:#FF928E"/>
					</linearGradient>
					<path class="st30" d="M1334.8,3062.7c0,0-25.2-103.7-15-140.5c10.2-36.8,29.9-84.1,95.6-73.6c65.7,10.5,143.2,38.2,143.2,38.2
						s-3.9,47.9-53.8,32.5l31,24c0,0-4.4,38.4-46.6,17.9l28.8,31.8c0,0-18.1,31.5-49.1,11.3
						C1437.6,2984,1422.8,3075.2,1334.8,3062.7z"/>
				</g>
				<path class="st4" d="M1713.1,2734.9c0,29.3,23.8,53.1,53.1,53.1c29.3,0,53.1-23.8,53.1-53.1c0-29.3-23.8-53.1-53.1-53.1
					C1736.9,2681.7,1713.1,2705.5,1713.1,2734.9z"/>
				<path class="st5" d="M1492.5,2769.9l36.9-125c4.5-15.4,16.9-26.9,32.2-30.1c115.5-24.1,431.7-29.2,434.9-29.3l-0.2-14.1
					c-13,0.2-320.7,5.2-437.5,29.6c-20.4,4.3-36.9,19.6-42.9,39.9l-36.9,125L1492.5,2769.9z"/>
			</g>
		</g>
		<g>
			<path class="st4" d="M2555,3519.2c-3.7-0.6-7-2.7-9.2-5.8c-31.4-45.3-258.9-398.9,68.7-705.1c311-290.6,449.6-347.9,473.4-523.8
				c2.8-20.5,30.8-24.6,39.4-5.7c64.1,141,160.4,468.3-199.5,669.7c-397,222.1-373.3,480.2-356.8,553.9
				C2573.2,3512.1,2564.9,3520.9,2555,3519.2L2555,3519.2z"/>
			<path class="st4" d="M2603.1,3527.3c-8.8-1.5-15.6-8.5-16.7-17.4c-7.4-60.5-23-286.1,144.5-340.4
				c184.5-59.8,326.3,114.7,464.6-13.9c7.3-6.8,18.9-0.3,16.9,9.4c-14.2,69.1-72.4,228.2-309.9,253
				c-254.2,26.5-283.6,54.7-279.6,90.8C2624.1,3520,2614.2,3529.2,2603.1,3527.3L2603.1,3527.3z"/>
			<path class="st31" d="M3071.5,2463.5c-3.8,12.6-8.6,24.6-14.2,36.4c-5.5,11.8-11.6,23.2-18.1,34.5c-6.5,11.2-13.5,22.2-21.1,32.8
				c-7.5,10.6-15.3,21-23.7,31c-33.2,40.1-72.5,75-115.4,104.4c-21.4,14.7-44.1,27.9-66.7,40.1c-22.3,12-43.9,25.6-64.6,40.3
				c-41.3,29.5-79.3,63.9-112.7,102.3c-33.4,38.3-62,80.8-84.7,126.2c-22.8,45.4-39.2,94-48.1,144.1c-8.9,50.1-10.2,101.4-4.4,152.1
				c5.7,50.7,18.9,100.5,37,148.4c0.5,1.4-0.2,2.9-1.5,3.4c-1.3,0.5-2.8-0.1-3.4-1.5c-19.8-47.6-34.2-97.8-41.2-149.2
				c-3.6-25.7-5.2-51.7-5-77.6c0.4-26,2.5-51.9,6.8-77.6c8.4-51.3,24.5-101.4,47.3-148.2c22.7-46.9,52.1-90.3,86-129.7
				c34-39.4,72.6-74.7,114.8-105.1c21.1-15.2,43.1-29.2,66-41.6l16.9-9.2c5.6-3,11.1-6.2,16.5-9.4l8.2-4.8l8.1-5.1l8.1-5.1l7.9-5.3
				c21-14.2,41.4-29.5,60.5-46.2c19.2-16.7,37.4-34.4,54.1-53.6c16.9-19,32.3-39.3,46.3-60.6c13.8-21.3,26.3-43.9,35.5-67.4l0.1-0.2
				c0.5-1.2,1.9-1.9,3.1-1.4C3071.2,2461,3071.8,2462.3,3071.5,2463.5z"/>
			<path class="st31" d="M2595.5,3486.1c0.4-2.1,0.3-4.2,0.3-6.2l0-6.2c0-4.1,0.2-8.2,0.3-12.4c0.3-8.2,0.8-16.5,1.4-24.7
				c1.3-16.4,3.3-32.8,6.1-49.1c5.7-32.5,14.2-64.7,28.5-94.8c7.1-15,15.8-29.3,26.3-42.3c10.5-13,23.1-24.4,37.4-33.2
				c14.3-8.7,30.4-14.7,46.9-17.5c8.3-1.4,16.6-2.2,25-2.3c8.4-0.2,16.7,0.4,25,1.4c8.3,1,16.4,2.5,24.5,3.8l24.3,4.3
				c16.2,2.9,32.4,6.1,48.5,9.3c32.3,6.4,64.4,13.4,96.7,19.4c16.1,2.9,32.3,5.6,48.6,7.2c16.2,1.6,32.6,2.2,48.7,0.3
				c16.1-1.7,31.8-6.3,46-14c14.2-7.6,26.8-18.2,38-30c0.8-0.9,2.2-0.9,3.1-0.1c0.9,0.8,0.9,2.2,0.1,3
				c-11.3,12.2-24.1,23.2-38.8,31.3c-14.7,8.2-31.1,13.1-47.7,15.1c-16.6,2-33.4,1.4-49.8-0.2c-16.5-1.6-32.8-4.2-49-7.1
				c-32.4-5.9-64.6-12.8-96.9-19.1c-32.2-6.3-64.7-12.4-96.9-17.2c-8-1-16.1-1.6-24.2-1.5c-8.1,0-16.1,0.7-24.1,2
				c-15.9,2.6-31.3,8.2-45.1,16.5c-13.8,8.4-26,19.2-36.2,31.8c-10.3,12.5-18.8,26.5-25.9,41.1c-14.3,29.4-23.1,61.2-29,93.4
				c-2.9,16.1-5.1,32.4-6.6,48.7c-0.7,8.2-1.3,16.4-1.7,24.5c-0.2,4.1-0.3,8.2-0.4,12.3l-0.1,6.1c0,2-0.1,4.1,0.4,6.1
				c0.3,1-0.4,2-1.4,2.3c-1,0.3-2-0.4-2.3-1.4C2595.5,3486.7,2595.4,3486.4,2595.5,3486.1z"/>
		</g>
	</g>
</g>
</svg>
