<svg xmlns="http://www.w3.org/2000/svg" xmlns:xlink="http://www.w3.org/1999/xlink" viewBox="0 0 903.34 26.4"><defs><style>.cls-1{mask:url(#mask);filter:url(#luminosity-noclip-2);}.cls-2{mix-blend-mode:multiply;fill:url(#linear-gradient);}.cls-3{fill:url(#linear-gradient-2);}.cls-4{fill:url(#linear-gradient-3);}.cls-5{fill:url(#linear-gradient-4);}.cls-6{fill:url(#linear-gradient-5);}.cls-7{fill:url(#linear-gradient-6);}.cls-8{fill:url(#linear-gradient-7);}.cls-9{mask:url(#mask-2);}.cls-10{fill:url(#linear-gradient-8);}.cls-11{fill:url(#linear-gradient-9);}.cls-12{filter:url(#luminosity-noclip);}</style><filter id="luminosity-noclip" x="386.87" y="-7982.66" width="129.59" height="32766" filterUnits="userSpaceOnUse" color-interpolation-filters="sRGB"><feFlood flood-color="#fff" result="bg"/><feBlend in="SourceGraphic" in2="bg"/></filter><mask id="mask" x="386.87" y="-7982.66" width="129.59" height="32766" maskUnits="userSpaceOnUse"><g class="cls-12"/></mask><linearGradient id="linear-gradient" x1="386.87" y1="5.62" x2="516.46" y2="5.62" gradientUnits="userSpaceOnUse"><stop offset="0" stop-color="#ccc"/><stop offset="0.52" stop-color="#b3b3b3"/><stop offset="0.77" stop-color="#b5b5b5"/><stop offset="0.89" stop-color="#bdbdbd"/><stop offset="0.99" stop-color="#cacaca"/><stop offset="1" stop-color="#ccc"/></linearGradient><linearGradient id="linear-gradient-2" y1="7.52" x2="451.67" y2="7.52" gradientUnits="userSpaceOnUse"><stop offset="0" stop-color="#929292"/><stop offset="0.01" stop-color="#c1c1c1"/><stop offset="0.03" stop-color="#b2b2b2"/><stop offset="0.05" stop-color="#9c9c9c"/><stop offset="0.07" stop-color="#a4a4a4"/><stop offset="0.09" stop-color="#afafaf"/><stop offset="1" stop-color="#cfcfcf"/></linearGradient><linearGradient id="linear-gradient-3" y1="0.34" x2="903.34" y2="0.34" gradientUnits="userSpaceOnUse"><stop offset="0" stop-color="#666"/><stop offset="0.01" stop-color="#d5d5d5"/><stop offset="0.02" stop-color="#d2d2d2"/><stop offset="0.09" stop-color="#bcbcbc"/><stop offset="0.99" stop-color="#fff"/></linearGradient><linearGradient id="linear-gradient-4" x1="451.67" y1="7.52" x2="903.34" y2="7.52" gradientUnits="userSpaceOnUse"><stop offset="0" stop-color="#cfcfcf"/><stop offset="0.91" stop-color="#afafaf"/><stop offset="0.93" stop-color="#a4a4a4"/><stop offset="0.95" stop-color="#9c9c9c"/><stop offset="0.97" stop-color="#b2b2b2"/><stop offset="0.99" stop-color="#c1c1c1"/><stop offset="1" stop-color="#929292"/></linearGradient><linearGradient id="linear-gradient-5" y1="7.11" x2="451.67" y2="7.11" xlink:href="#linear-gradient-3"/><linearGradient id="linear-gradient-6" x1="451.67" y1="7.11" x2="903.34" y2="7.11" gradientUnits="userSpaceOnUse"><stop offset="0" stop-color="#f1f1f1"/><stop offset="0.91" stop-color="#bcbcbc"/><stop offset="0.91" stop-color="#b2b2b2"/><stop offset="0.93" stop-color="#8e8e8e"/><stop offset="0.94" stop-color="#787878"/><stop offset="0.95" stop-color="#707070"/><stop offset="0.96" stop-color="#868686"/><stop offset="0.98" stop-color="#bdbdbd"/><stop offset="0.99" stop-color="#d5d5d5"/><stop offset="1" stop-color="#666"/></linearGradient><linearGradient id="linear-gradient-7" x1="387.38" y1="5.24" x2="515.96" y2="5.24" gradientUnits="userSpaceOnUse"><stop offset="0" stop-color="#9f9f9f"/><stop offset="0.04" stop-color="#acacac"/><stop offset="0.51" stop-color="#e5e5e5"/><stop offset="0.96" stop-color="#acacac"/><stop offset="1" stop-color="#9f9f9f"/></linearGradient><filter id="luminosity-noclip-2" x="386.87" y="0" width="129.59" height="11.24" filterUnits="userSpaceOnUse" color-interpolation-filters="sRGB"><feFlood flood-color="#fff" result="bg"/><feBlend in="SourceGraphic" in2="bg"/></filter><mask id="mask-2" x="386.87" y="0" width="129.59" height="11.24" maskUnits="userSpaceOnUse"><g class="cls-1"><path class="cls-2" d="M516,0a10.4,10.4,0,0,1-3.07,7.4,10.39,10.39,0,0,1-7.4,3.07H397.84A10.47,10.47,0,0,1,387.38,0h-.51V.78a10.46,10.46,0,0,0,10.47,10.46H506A10.46,10.46,0,0,0,516.46.78V0Z"/></g></mask><linearGradient id="linear-gradient-8" x1="386.87" y1="5.62" x2="516.46" y2="5.62" gradientUnits="userSpaceOnUse"><stop offset="0" stop-color="#f7f7f7"/><stop offset="0.52" stop-color="#f8f8f8"/><stop offset="1" stop-color="#f7f7f7"/></linearGradient><linearGradient id="linear-gradient-9" x1="451.67" y1="26.4" x2="451.67" y2="14.35" gradientUnits="userSpaceOnUse"><stop offset="0" stop-color="#575757"/><stop offset="0.74" stop-color="#b9b9b9"/><stop offset="0.85" stop-color="#b6b6b6"/><stop offset="0.94" stop-color="#acacac"/><stop offset="1" stop-color="#9f9f9f"/></linearGradient></defs><title>bottom-desktop</title><g id="Layer_2" data-name="Layer 2"><g id="object"><rect class="cls-3" y="0.68" width="451.67" height="13.67"/><rect class="cls-4" width="903.34" height="0.68"/><rect class="cls-5" x="451.67" y="0.68" width="451.67" height="13.67"/><rect class="cls-6" y="0.68" width="451.67" height="12.86"/><rect class="cls-7" x="451.67" y="0.68" width="451.67" height="12.86"/><path class="cls-8" d="M516,0a10.4,10.4,0,0,1-3.07,7.4,10.42,10.42,0,0,1-7.4,3.07H397.84A10.46,10.46,0,0,1,387.38,0Z"/><g class="cls-9"><path class="cls-10" d="M516,0a10.4,10.4,0,0,1-3.07,7.4,10.39,10.39,0,0,1-7.4,3.07H397.84A10.47,10.47,0,0,1,387.38,0h-.51V.78a10.46,10.46,0,0,0,10.47,10.46H506A10.46,10.46,0,0,0,516.46.78V0Z"/></g><path class="cls-11" d="M0,14.35a402.89,402.89,0,0,0,98.11,12H805.23a402.89,402.89,0,0,0,98.11-12H0Z"/></g></g></svg>