<svg width="29" height="29" viewBox="0 0 29 29" fill="none" xmlns="http://www.w3.org/2000/svg">
<path opacity="0.4" d="M23.0036 12.1847V20.5682C22.9684 23.9099 22.0538 24.7541 18.5715 24.7541H7.503C3.96201 24.7541 3.07086 23.8747 3.07086 20.3806V12.1847C3.07086 9.01893 3.80955 7.99885 6.5884 7.8347C6.86981 7.82297 7.1747 7.81124 7.503 7.81124H18.5715C22.1125 7.81124 23.0036 8.69063 23.0036 12.1847Z" fill="#80CC28"/>
<path d="M26.5211 8.0223V16.2182C26.5211 19.384 25.7825 20.4041 23.0036 20.5682V12.1847C23.0036 8.69064 22.1125 7.81125 18.5715 7.81125H7.503C7.1747 7.81125 6.86981 7.82298 6.58841 7.8347C6.62358 4.49304 7.53818 3.64883 11.0205 3.64883H22.089C25.63 3.64883 26.5211 4.52821 26.5211 8.0223Z" fill="#80CC28"/>
<path d="M8.88653 21.8931H6.86977C6.38904 21.8931 5.99039 21.4945 5.99039 21.0138C5.99039 20.533 6.38904 20.1344 6.86977 20.1344H8.88653C9.36726 20.1344 9.76592 20.533 9.76592 21.0138C9.76592 21.4945 9.37899 21.8931 8.88653 21.8931Z" fill="#80CC28"/>
<path d="M15.4409 21.8931H11.4074C10.9267 21.8931 10.528 21.4945 10.528 21.0138C10.528 20.533 10.9267 20.1344 11.4074 20.1344H15.4409C15.9216 20.1344 16.3203 20.533 16.3203 21.0138C16.3203 21.4945 15.9333 21.8931 15.4409 21.8931Z" fill="#80CC28"/>
<path d="M23.0036 14.0373H3.07086V15.7961H23.0036V14.0373Z" fill="#80CC28"/>
</svg>
