<svg width="29" height="29" viewBox="0 0 29 29" fill="none" xmlns="http://www.w3.org/2000/svg">
<path opacity="0.4" d="M26.4333 9.28863V17.9066C26.0933 17.7425 25.7181 17.6252 25.296 17.5549L24.9325 17.4962L24.6276 16.8631C23.9827 15.5499 22.9275 14.7877 21.7433 14.7877C20.559 14.7877 19.5038 15.5499 18.8589 16.8631L18.5423 17.4962L18.1905 17.5549C16.7952 17.7894 15.7869 18.5632 15.4234 19.6654C15.0716 20.7793 15.4351 21.9987 16.4318 23.007L16.7952 23.3705L16.7601 23.5112C16.5256 24.5548 16.6194 25.3521 16.8422 25.9266H9.79534C5.52738 25.9266 2.98303 23.3822 2.98303 19.1143V9.28863C2.98303 5.02068 5.52738 2.47632 9.79534 2.47632H19.621C23.889 2.47632 26.4333 5.02068 26.4333 9.28863Z" fill="#FB3F6C"/>
<path d="M23.0564 17.6486L23.4317 18.4108C23.6193 18.786 24.1 19.1377 24.4986 19.2081L25.0028 19.2902C26.5388 19.5481 26.8906 20.6737 25.8001 21.7759L25.3311 22.2449C25.0145 22.5615 24.8504 23.1712 24.9442 23.6167L25.0028 23.8981C25.4249 25.7507 24.44 26.4659 22.8337 25.4928L22.4937 25.2817C22.0833 25.0355 21.4032 25.0355 20.9928 25.2817L20.6528 25.4928C19.0347 26.4659 18.0615 25.7507 18.4836 23.8981L18.5423 23.6167C18.6361 23.1829 18.4719 22.5615 18.1553 22.2449L17.6863 21.7759C16.5959 20.662 16.9476 19.5481 18.4836 19.2902L18.9878 19.2081C19.3982 19.1377 19.8672 18.786 20.0548 18.4108L20.43 17.6486C21.157 16.183 22.3295 16.183 23.0564 17.6486Z" fill="#FB3F6C"/>
<path fill-rule="evenodd" clip-rule="evenodd" d="M19.5501 9.41435C19.934 9.7119 20.0039 10.2643 19.7064 10.6481L16.9926 14.1489C16.2951 15.0311 15.0091 15.1919 14.1119 14.4986L14.1058 14.4939L11.9641 12.8086C11.8318 12.7081 11.6472 12.7331 11.5467 12.8628C11.5467 12.8629 11.5468 12.8626 11.5467 12.8628L8.75672 16.4851C8.46036 16.8699 7.90819 16.9415 7.52342 16.6452C7.13866 16.3488 7.06699 15.7967 7.36335 15.4119L10.1548 11.7877C10.8511 10.8865 12.1423 10.7237 13.0416 11.4185L13.0477 11.4233L15.1894 13.1085C15.3231 13.2101 15.5115 13.1839 15.6112 13.0602L18.3163 9.57061C18.6139 9.18676 19.1663 9.1168 19.5501 9.41435Z" fill="#FB3F6C"/>
</svg>
