<svg xmlns="http://www.w3.org/2000/svg" xmlns:xlink="http://www.w3.org/1999/xlink" viewBox="0 0 903.34 512.64"><defs><style>.cls-1{mask:url(#mask);filter:url(#luminosity-noclip-2);}.cls-2{mix-blend-mode:multiply;fill:url(#linear-gradient);}.cls-3{fill:url(#linear-gradient-2);}.cls-4{fill:url(#linear-gradient-3);}.cls-5{fill:#ebebeb;}.cls-6{fill:#fff;}.cls-7{fill:url(#linear-gradient-4);}.cls-8{fill:url(#linear-gradient-5);}.cls-9{fill:url(#linear-gradient-6);}.cls-10{fill:url(#linear-gradient-7);}.cls-11{fill:url(#linear-gradient-8);}.cls-12{fill:url(#linear-gradient-9);}.cls-13{fill:url(#linear-gradient-10);}.cls-14{mask:url(#mask-2);}.cls-15{fill:url(#linear-gradient-11);}.cls-16{fill:url(#linear-gradient-12);}.cls-17{fill:#f5f6f7;}.cls-18{filter:url(#luminosity-noclip);}</style><filter id="luminosity-noclip" x="386.87" y="-8468.9" width="129.59" height="32766" filterUnits="userSpaceOnUse" color-interpolation-filters="sRGB"><feFlood flood-color="#fff" result="bg"/><feBlend in="SourceGraphic" in2="bg"/></filter><mask id="mask" x="386.87" y="-8468.9" width="129.59" height="32766" maskUnits="userSpaceOnUse"><g class="cls-18"/></mask><linearGradient id="linear-gradient" x1="386.87" y1="491.86" x2="516.46" y2="491.86" gradientUnits="userSpaceOnUse"><stop offset="0" stop-color="#ccc"/><stop offset="0.52" stop-color="#b3b3b3"/><stop offset="0.77" stop-color="#b5b5b5"/><stop offset="0.89" stop-color="#bdbdbd"/><stop offset="0.99" stop-color="#cacaca"/><stop offset="1" stop-color="#ccc"/></linearGradient><linearGradient id="linear-gradient-2" x1="366.52" y1="455.87" x2="363.95" y2="461.75" gradientUnits="userSpaceOnUse"><stop offset="0" stop-color="#efefef"/><stop offset="0.31" stop-color="#e7e7e7"/><stop offset="0.45" stop-color="#e2e2e2"/></linearGradient><linearGradient id="linear-gradient-3" x1="455.33" y1="25.15" x2="455.33" gradientUnits="userSpaceOnUse"><stop offset="0" stop-color="#efefef"/><stop offset="0.31" stop-color="#e7e7e7"/><stop offset="0.45" stop-color="#e2e2e2"/><stop offset="1" stop-color="#c5c5c5"/></linearGradient><linearGradient id="linear-gradient-4" x1="89.29" y1="485.65" x2="821.42" y2="485.65" xlink:href="#linear-gradient-3"/><linearGradient id="linear-gradient-5" y1="493.75" x2="451.67" y2="493.75" gradientUnits="userSpaceOnUse"><stop offset="0" stop-color="#929292"/><stop offset="0.01" stop-color="#c1c1c1"/><stop offset="0.03" stop-color="#b2b2b2"/><stop offset="0.05" stop-color="#9c9c9c"/><stop offset="0.07" stop-color="#a4a4a4"/><stop offset="0.09" stop-color="#afafaf"/><stop offset="1" stop-color="#cfcfcf"/></linearGradient><linearGradient id="linear-gradient-6" y1="486.58" x2="903.34" y2="486.58" gradientUnits="userSpaceOnUse"><stop offset="0" stop-color="#666"/><stop offset="0.01" stop-color="#d5d5d5"/><stop offset="0.02" stop-color="#d2d2d2"/><stop offset="0.09" stop-color="#bcbcbc"/><stop offset="0.99" stop-color="#fff"/></linearGradient><linearGradient id="linear-gradient-7" x1="451.67" y1="493.75" x2="903.34" y2="493.75" gradientUnits="userSpaceOnUse"><stop offset="0" stop-color="#cfcfcf"/><stop offset="0.91" stop-color="#afafaf"/><stop offset="0.93" stop-color="#a4a4a4"/><stop offset="0.95" stop-color="#9c9c9c"/><stop offset="0.97" stop-color="#b2b2b2"/><stop offset="0.99" stop-color="#c1c1c1"/><stop offset="1" stop-color="#929292"/></linearGradient><linearGradient id="linear-gradient-8" y1="493.35" x2="451.67" y2="493.35" xlink:href="#linear-gradient-6"/><linearGradient id="linear-gradient-9" x1="451.67" y1="493.35" x2="903.34" y2="493.35" gradientUnits="userSpaceOnUse"><stop offset="0" stop-color="#f1f1f1"/><stop offset="0.91" stop-color="#bcbcbc"/><stop offset="0.91" stop-color="#b2b2b2"/><stop offset="0.93" stop-color="#8e8e8e"/><stop offset="0.94" stop-color="#787878"/><stop offset="0.95" stop-color="#707070"/><stop offset="0.96" stop-color="#868686"/><stop offset="0.98" stop-color="#bdbdbd"/><stop offset="0.99" stop-color="#d5d5d5"/><stop offset="1" stop-color="#666"/></linearGradient><linearGradient id="linear-gradient-10" x1="387.38" y1="491.47" x2="515.96" y2="491.47" gradientUnits="userSpaceOnUse"><stop offset="0" stop-color="#9f9f9f"/><stop offset="0.04" stop-color="#acacac"/><stop offset="0.51" stop-color="#e5e5e5"/><stop offset="0.96" stop-color="#acacac"/><stop offset="1" stop-color="#9f9f9f"/></linearGradient><filter id="luminosity-noclip-2" x="386.87" y="486.24" width="129.59" height="11.24" filterUnits="userSpaceOnUse" color-interpolation-filters="sRGB"><feFlood flood-color="#fff" result="bg"/><feBlend in="SourceGraphic" in2="bg"/></filter><mask id="mask-2" x="386.87" y="486.24" width="129.59" height="11.24" maskUnits="userSpaceOnUse"><g class="cls-1"><path class="cls-2" d="M516,486.24a10.48,10.48,0,0,1-10.47,10.47H397.84a10.47,10.47,0,0,1-10.46-10.47h-.51V487a10.46,10.46,0,0,0,10.47,10.46H506A10.46,10.46,0,0,0,516.46,487v-.78Z"/></g></mask><linearGradient id="linear-gradient-11" x1="386.87" y1="491.86" x2="516.46" y2="491.86" gradientUnits="userSpaceOnUse"><stop offset="0" stop-color="#f7f7f7"/><stop offset="0.52" stop-color="#f8f8f8"/><stop offset="1" stop-color="#f7f7f7"/></linearGradient><linearGradient id="linear-gradient-12" x1="451.67" y1="512.64" x2="451.67" y2="500.59" gradientUnits="userSpaceOnUse"><stop offset="0" stop-color="#575757"/><stop offset="0.74" stop-color="#b9b9b9"/><stop offset="0.85" stop-color="#b6b6b6"/><stop offset="0.94" stop-color="#acacac"/><stop offset="1" stop-color="#9f9f9f"/></linearGradient></defs><title>laptop-2</title><g id="Layer_2" data-name="Layer 2"><g id="object"><path class="cls-3" d="M799.16,3.15H111.6a22.16,22.16,0,0,0-22.31,22V485.06h3.19V22a18.09,18.09,0,0,1,.22-2.86c0-.31.1-.62.16-.92s.14-.61.22-.91.16-.6.26-.89A18.61,18.61,0,0,1,97.13,9.7c.2-.23.41-.45.62-.67s.21-.21.32-.32a18.84,18.84,0,0,1,3.21-2.55c.38-.25.78-.48,1.19-.7s.81-.42,1.24-.6h0l.85-.35h0a19.34,19.34,0,0,1,7-1.31H799.11a19.34,19.34,0,0,1,9.09,2.27c.4.22.8.45,1.19.7s1,.68,1.49,1h0c.24.18.48.38.71.57h0c.35.3.68.61,1,.93l.32.32c.22.22.42.44.62.67A18.57,18.57,0,0,1,818.19,22V485.06h3.23V23.77A22.17,22.17,0,0,0,799.16,3.15Z"/><path class="cls-4" d="M89.24,22A22.16,22.16,0,0,1,111.55,0H799.11a22.16,22.16,0,0,1,22.31,22v1.76A22.17,22.17,0,0,0,799.16,3.15H111.6a22.16,22.16,0,0,0-22.31,22Z"/><rect class="cls-5" x="92.48" y="472.18" width="725.71" height="12.88"/><path class="cls-6" d="M818.19,22.11V472.18H92.48V22.11A19,19,0,0,1,111.55,3.19H799.11A19,19,0,0,1,818.19,22.11Z"/><polygon class="cls-7" points="821.42 485.06 821.42 486.24 818.19 486.24 818.19 486.23 92.48 486.23 92.48 486.24 89.29 486.24 89.29 485.06 821.42 485.06"/><rect class="cls-8" y="486.92" width="451.67" height="13.67"/><rect class="cls-9" y="486.24" width="903.34" height="0.68"/><rect class="cls-10" x="451.67" y="486.92" width="451.67" height="13.67"/><rect class="cls-11" y="486.92" width="451.67" height="12.86"/><rect class="cls-12" x="451.67" y="486.92" width="451.67" height="12.86"/><path class="cls-13" d="M516,486.24a10.48,10.48,0,0,1-10.47,10.47H397.84a10.46,10.46,0,0,1-10.46-10.47Z"/><g class="cls-14"><path class="cls-15" d="M516,486.24a10.48,10.48,0,0,1-10.47,10.47H397.84a10.47,10.47,0,0,1-10.46-10.47h-.51V487a10.46,10.46,0,0,0,10.47,10.46H506A10.46,10.46,0,0,0,516.46,487v-.78Z"/></g><path class="cls-16" d="M0,500.59a403.38,403.38,0,0,0,98.11,12.05H805.23a403.38,403.38,0,0,0,98.11-12.05H0Z"/><rect class="cls-17" x="107.49" y="30.61" width="695.68" height="430.45"/></g></g></svg>