<svg xmlns="http://www.w3.org/2000/svg" xmlns:xlink="http://www.w3.org/1999/xlink" viewBox="0 0 812.05 473.84"><defs><style>.cls-1{mask:url(#mask);filter:url(#luminosity-noclip-3);}.cls-2,.cls-4,.cls-7{mix-blend-mode:multiply;}.cls-2{fill:url(#radial-gradient);}.cls-3{mask:url(#mask-2);filter:url(#luminosity-noclip-4);}.cls-4{fill:url(#linear-gradient);}.cls-5{isolation:isolate;}.cls-6{mask:url(#mask-3);}.cls-7{opacity:0.4;fill:url(#radial-gradient-2);}.cls-8{fill:url(#linear-gradient-2);}.cls-9{fill:url(#linear-gradient-3);}.cls-10{fill:url(#linear-gradient-4);}.cls-11{fill:url(#linear-gradient-5);}.cls-12{fill:url(#linear-gradient-6);}.cls-13{fill:url(#linear-gradient-7);}.cls-14{fill:url(#linear-gradient-8);}.cls-15{fill:url(#linear-gradient-9);}.cls-16{mask:url(#mask-4);}.cls-17{fill:url(#linear-gradient-10);}.cls-18{fill:url(#linear-gradient-11);}.cls-19{fill:url(#linear-gradient-12);}.cls-20{filter:url(#luminosity-noclip-2);}.cls-21{filter:url(#luminosity-noclip);}</style><filter id="luminosity-noclip" x="62.67" y="-8496.67" width="686.72" height="32766" filterUnits="userSpaceOnUse" color-interpolation-filters="sRGB"><feFlood flood-color="#fff" result="bg"/><feBlend in="SourceGraphic" in2="bg"/></filter><mask id="mask" x="62.67" y="-8496.67" width="686.72" height="32766" maskUnits="userSpaceOnUse"><g class="cls-21"/></mask><radialGradient id="radial-gradient" cx="844.39" cy="-24401.9" r="174.72" gradientTransform="translate(-1409.85 2144.56) scale(2.15 0.07)" gradientUnits="userSpaceOnUse"><stop offset="0" stop-color="#fff"/><stop offset="0.09" stop-color="#f5f5f5"/><stop offset="0.23" stop-color="#dbdbdb"/><stop offset="0.41" stop-color="#afafaf"/><stop offset="0.63" stop-color="#747474"/><stop offset="0.88" stop-color="#282828"/><stop offset="1"/></radialGradient><filter id="luminosity-noclip-2" x="347.78" y="-8496.67" width="116.49" height="32766" filterUnits="userSpaceOnUse" color-interpolation-filters="sRGB"><feFlood flood-color="#fff" result="bg"/><feBlend in="SourceGraphic" in2="bg"/></filter><mask id="mask-2" x="347.78" y="-8496.67" width="116.49" height="32766" maskUnits="userSpaceOnUse"><g class="cls-20"/></mask><linearGradient id="linear-gradient" x1="347.78" y1="442.16" x2="464.27" y2="442.16" gradientUnits="userSpaceOnUse"><stop offset="0" stop-color="#ccc"/><stop offset="0.52" stop-color="#b3b3b3"/><stop offset="0.77" stop-color="#b5b5b5"/><stop offset="0.89" stop-color="#bdbdbd"/><stop offset="0.99" stop-color="#cacaca"/><stop offset="1" stop-color="#ccc"/></linearGradient><filter id="luminosity-noclip-3" x="62.67" y="447.82" width="686.72" height="26.02" filterUnits="userSpaceOnUse" color-interpolation-filters="sRGB"><feFlood flood-color="#fff" result="bg"/><feBlend in="SourceGraphic" in2="bg"/></filter><mask id="mask-3" x="62.67" y="447.82" width="686.72" height="26.02" maskUnits="userSpaceOnUse"><g class="cls-1"><path class="cls-2" d="M749.39,460.54c0,7.18-122.94,13.3-346.82,13.3s-339.9-5.82-339.9-13,116-13,339.9-13S749.39,453.35,749.39,460.54Z"/></g></mask><radialGradient id="radial-gradient-2" cx="844.39" cy="-24401.9" r="174.72" gradientTransform="translate(-1409.85 2144.56) scale(2.15 0.07)" gradientUnits="userSpaceOnUse"><stop offset="0"/><stop offset="1"/></radialGradient><linearGradient id="linear-gradient-2" x1="409.34" y1="436.04" x2="409.34" y2="2.83" gradientUnits="userSpaceOnUse"><stop offset="0" stop-color="#9a9a9a"/><stop offset="0.09" stop-color="#a2a2a2"/><stop offset="0.24" stop-color="#b8b8b8"/><stop offset="0.42" stop-color="#dbdbdb"/><stop offset="0.45" stop-color="#e2e2e2"/><stop offset="1" stop-color="#c5c5c5"/></linearGradient><linearGradient id="linear-gradient-3" x1="409.32" y1="22.61" x2="409.32" gradientUnits="userSpaceOnUse"><stop offset="0" stop-color="#404040"/><stop offset="0.28" stop-color="#434343"/><stop offset="0.45" stop-color="#4b4b4b"/><stop offset="0.59" stop-color="#595959"/><stop offset="0.71" stop-color="#6d6d6d"/><stop offset="0.82" stop-color="#888"/><stop offset="0.92" stop-color="#a7a7a7"/><stop offset="1" stop-color="#c5c5c5"/></linearGradient><linearGradient id="linear-gradient-4" y1="443.86" x2="406.03" y2="443.86" gradientUnits="userSpaceOnUse"><stop offset="0" stop-color="#929292"/><stop offset="0.01" stop-color="#c1c1c1"/><stop offset="0.03" stop-color="#b2b2b2"/><stop offset="0.05" stop-color="#9c9c9c"/><stop offset="0.07" stop-color="#a4a4a4"/><stop offset="0.09" stop-color="#afafaf"/><stop offset="1" stop-color="#cfcfcf"/></linearGradient><linearGradient id="linear-gradient-5" y1="437.41" x2="812.05" y2="437.41" gradientUnits="userSpaceOnUse"><stop offset="0.01" stop-color="#f8f8f8"/><stop offset="0.06" stop-color="#d0d0d0"/><stop offset="0.5" stop-color="#f8f8f8"/><stop offset="0.87" stop-color="#d0d0d0"/><stop offset="0.88" stop-color="#d3d3d3"/><stop offset="0.95" stop-color="#e9e9e9"/><stop offset="1" stop-color="#f1f1f1"/></linearGradient><linearGradient id="linear-gradient-6" x1="406.03" y1="443.86" x2="812.05" y2="443.86" gradientUnits="userSpaceOnUse"><stop offset="0" stop-color="#cfcfcf"/><stop offset="0.91" stop-color="#afafaf"/><stop offset="0.93" stop-color="#a4a4a4"/><stop offset="0.95" stop-color="#9c9c9c"/><stop offset="0.97" stop-color="#b2b2b2"/><stop offset="0.99" stop-color="#c1c1c1"/><stop offset="1" stop-color="#929292"/></linearGradient><linearGradient id="linear-gradient-7" y1="443.5" x2="406.03" y2="443.5" gradientUnits="userSpaceOnUse"><stop offset="0" stop-color="#666"/><stop offset="0.01" stop-color="#d5d5d5"/><stop offset="0.02" stop-color="#bdbdbd"/><stop offset="0.04" stop-color="#868686"/><stop offset="0.05" stop-color="#707070"/><stop offset="0.06" stop-color="#787878"/><stop offset="0.07" stop-color="#8e8e8e"/><stop offset="0.09" stop-color="#b2b2b2"/><stop offset="0.09" stop-color="#bcbcbc"/><stop offset="1" stop-color="#f1f1f1"/></linearGradient><linearGradient id="linear-gradient-8" x1="406.03" y1="443.5" x2="812.05" y2="443.5" gradientUnits="userSpaceOnUse"><stop offset="0" stop-color="#f1f1f1"/><stop offset="0.91" stop-color="#bcbcbc"/><stop offset="0.91" stop-color="#b2b2b2"/><stop offset="0.93" stop-color="#8e8e8e"/><stop offset="0.94" stop-color="#787878"/><stop offset="0.95" stop-color="#707070"/><stop offset="0.96" stop-color="#868686"/><stop offset="0.98" stop-color="#bdbdbd"/><stop offset="0.99" stop-color="#d5d5d5"/><stop offset="1" stop-color="#666"/></linearGradient><linearGradient id="linear-gradient-9" x1="348.23" y1="441.81" x2="463.82" y2="441.81" gradientUnits="userSpaceOnUse"><stop offset="0" stop-color="#9f9f9f"/><stop offset="0.04" stop-color="#acacac"/><stop offset="0.51" stop-color="#e5e5e5"/><stop offset="0.96" stop-color="#acacac"/><stop offset="1" stop-color="#9f9f9f"/></linearGradient><filter id="luminosity-noclip-4" x="347.78" y="437.1" width="116.49" height="10.1" filterUnits="userSpaceOnUse" color-interpolation-filters="sRGB"><feFlood flood-color="#fff" result="bg"/><feBlend in="SourceGraphic" in2="bg"/></filter><mask id="mask-4" x="347.78" y="437.1" width="116.49" height="10.1" maskUnits="userSpaceOnUse"><g class="cls-3"><path class="cls-4" d="M463.82,437.1a9.41,9.41,0,0,1-9.41,9.41H357.64a9.4,9.4,0,0,1-9.4-9.41h-.46v.71a9.41,9.41,0,0,0,9.41,9.4h97.67a9.4,9.4,0,0,0,9.41-9.4v-.71Z"/></g></mask><linearGradient id="linear-gradient-10" x1="347.78" y1="442.16" x2="464.27" y2="442.16" gradientUnits="userSpaceOnUse"><stop offset="0" stop-color="#f7f7f7"/><stop offset="0.52" stop-color="#f8f8f8"/><stop offset="1" stop-color="#f7f7f7"/></linearGradient><linearGradient id="linear-gradient-11" x1="406.03" y1="460.83" x2="406.03" y2="450" gradientUnits="userSpaceOnUse"><stop offset="0" stop-color="#575757"/><stop offset="0.74" stop-color="#b9b9b9"/><stop offset="0.85" stop-color="#b6b6b6"/><stop offset="0.94" stop-color="#acacac"/><stop offset="1" stop-color="#9f9f9f"/></linearGradient><linearGradient id="linear-gradient-12" x1="156.23" y1="-32.09" x2="662.4" y2="474.07" gradientUnits="userSpaceOnUse"><stop offset="0" stop-color="#f2f3f4"/><stop offset="0.36" stop-color="#edeeef"/><stop offset="0.78" stop-color="#dfe0e0"/><stop offset="1" stop-color="#d5d6d6"/></linearGradient></defs><title>Asset 1</title><g class="cls-5"><g id="Layer_2" data-name="Layer 2"><g id="shadow"><g class="cls-6"><path class="cls-7" d="M749.39,460.54c0,7.18-122.94,13.3-346.82,13.3s-339.9-5.82-339.9-13,116-13,339.9-13S749.39,453.35,749.39,460.54Z"/></g></g><g id="object"><path class="cls-8" d="M718.4,2.83H100.32A19.92,19.92,0,0,0,80.26,22.61V436h2.87V19.78a16.81,16.81,0,0,1,.2-2.57c0-.28.09-.56.15-.83s.12-.55.19-.82.15-.54.23-.8a16.83,16.83,0,0,1,3.42-6c.18-.21.36-.41.55-.6a4,4,0,0,1,.29-.29A17.25,17.25,0,0,1,91,5.54c.35-.22.71-.43,1.07-.63s.74-.38,1.12-.54h0L94,4.05h0a17.43,17.43,0,0,1,6.28-1.17H718.36a17.29,17.29,0,0,1,8.17,2c.36.2.72.41,1.07.63s.9.61,1.34.94h0l.63.51h0c.31.26.61.54.9.83a4,4,0,0,1,.29.29c.19.19.37.39.55.6a16.67,16.67,0,0,1,4.19,11.06V436h2.9V21.37A19.94,19.94,0,0,0,718.4,2.83Z"/><path class="cls-9" d="M80.22,19.78A19.92,19.92,0,0,1,100.28,0H718.36a19.92,19.92,0,0,1,20,19.78v1.59a19.94,19.94,0,0,0-20-18.54H100.32A19.92,19.92,0,0,0,80.26,22.61Z"/><rect x="83.13" y="424.47" width="652.38" height="11.58"/><path d="M735.51,19.87v404.6H83.13V19.87a17.1,17.1,0,0,1,17.15-17H718.36A17.1,17.1,0,0,1,735.51,19.87Z"/><polygon points="738.41 436.04 738.41 437.1 735.51 437.1 735.51 437.1 83.13 437.1 83.13 437.1 80.26 437.1 80.26 436.04 738.41 436.04"/><rect class="cls-10" y="437.71" width="406.03" height="12.29"/><rect class="cls-11" y="437.1" width="812.05" height="0.61"/><rect class="cls-12" x="406.03" y="437.71" width="406.03" height="12.29"/><rect class="cls-13" y="437.71" width="406.03" height="11.56"/><rect class="cls-14" x="406.03" y="437.71" width="406.03" height="11.56"/><path class="cls-15" d="M463.82,437.1a9.41,9.41,0,0,1-9.41,9.41H357.64a9.41,9.41,0,0,1-9.41-9.41Z"/><g class="cls-16"><path class="cls-17" d="M463.82,437.1a9.41,9.41,0,0,1-9.41,9.41H357.64a9.4,9.4,0,0,1-9.4-9.41h-.46v.71a9.41,9.41,0,0,0,9.41,9.4h97.67a9.4,9.4,0,0,0,9.41-9.4v-.71Z"/></g><path class="cls-18" d="M0,450a362.3,362.3,0,0,0,88.19,10.83H723.86A362.24,362.24,0,0,0,812.05,450H0Z"/><rect class="cls-19" x="96.63" y="27.51" width="625.38" height="386.95"/></g></g></g></svg>