<?xml version="1.0" encoding="utf-8"?>
<!-- Generator: Adobe Illustrator 25.0.0, SVG Export Plug-In . SVG Version: 6.00 Build 0)  -->
<svg version="1.1" id="Layer_1" xmlns="http://www.w3.org/2000/svg" xmlns:xlink="http://www.w3.org/1999/xlink" x="0px" y="0px"
	 viewBox="0 0 256 256" style="enable-background:new 0 0 256 256;" xml:space="preserve">
<style type="text/css">
	.st0{fill-rule:evenodd;clip-rule:evenodd;fill:#FFFFFF;}
	.st1{fill-rule:evenodd;clip-rule:evenodd;}
	.st2{fill-rule:evenodd;clip-rule:evenodd;fill:#2abff8;}
	.st3{fill-rule:evenodd;clip-rule:evenodd;fill:#0E163A;}
	.st4{fill-rule:evenodd;clip-rule:evenodd;fill:#F7941D;}
	.st5{fill-rule:evenodd;clip-rule:evenodd;fill:#009444;}
	.st6{opacity:0.39;fill-rule:evenodd;clip-rule:evenodd;fill:#D3D4D7;}
	.st7{clip-path:url(#SVGID_2_);fill-rule:evenodd;clip-rule:evenodd;fill:#F04D52;}
	.st8{fill:#F04D52;}
	.st9{fill:#FFFFFF;}
	.st10{fill:#F7941D;}
	.st11{fill:#009444;}
	.st12{fill:#0E163A;}
	.st13{clip-path:url(#SVGID_4_);fill-rule:evenodd;clip-rule:evenodd;fill:#F04D52;}
	.st14{clip-path:url(#SVGID_6_);fill-rule:evenodd;clip-rule:evenodd;fill:#0E163A;}
	.st15{clip-path:url(#SVGID_8_);fill-rule:evenodd;clip-rule:evenodd;fill:#0E163A;}
</style>
<g>
	<circle class="st2" cx="128" cy="128" r="128"/>
	<path class="st0" d="M186.38,176.15c-0.32-0.29-11.37-11.91-18.07-18.88c-0.17-0.16-0.35-0.32-0.54-0.46
		c-0.47-0.55-1.03-0.98-1.63-1.34c-2.34-1.51-5.45-1.48-7.75,0.35l-4.95,3.93l-6.97,5.18c-1.95,1.25-4.06,2.18-6.2-0.19
		l-14.81-17.81l-30.07-38.49c-0.91-1.67-0.52-2.99,1.3-4.52l7.3-6.38l4.19-3.43c0.51-0.41,0.91-0.9,1.27-1.42
		c2.08-2.34,2.27-5.86,0.34-8.42c-0.09-0.22-0.21-0.42-0.33-0.63c-5.39-8.03-14.4-21.29-14.62-21.66l-3.5-5.35
		c-8.28,4.41-25.41,17.07-26.11,34.3c-0.6,5.84,1.6,13.68,5.57,22.4c5.39,12.8,15,27.71,26.12,41.37
		c17.93,22.03,40.51,42.61,54.89,44.23c16.99,2.97,32.99-11.08,39.06-18.24L186.38,176.15z"/>
</g>
</svg>
