<svg width="28" height="21" viewBox="0 0 28 21" fill="none" xmlns="http://www.w3.org/2000/svg">
<path d="M10.3293 19.0596C9.20153 20.1477 7.77124 20.6918 6.03839 20.6918C4.33304 20.6918 2.98527 20.0661 1.99507 18.8148C1.00486 17.5635 0.509764 15.3329 0.509763 12.123C0.509763 8.88597 2.6552 4.94163 6.94607 0.290031L10.6593 2.94226C9.28405 5.60809 8.41762 7.86588 8.06005 9.71564C9.24279 10.0965 10.2055 10.7765 10.9481 11.7558C11.6633 12.7351 12.0209 13.932 12.0209 15.3465C12.0209 16.7338 11.457 17.9715 10.3293 19.0596ZM26.2963 19.0188C25.196 20.1069 23.7932 20.651 22.0879 20.651C20.3826 20.6782 19.0348 20.0661 18.0446 18.8148C17.0544 17.5635 16.5593 15.3193 16.5593 12.0822C16.5593 8.81796 18.6772 4.88722 22.9131 0.29003L26.7088 2.94226C25.251 5.49927 24.3846 7.75707 24.1096 9.71563C25.2648 10.0965 26.2 10.7765 26.9151 11.7558C27.6028 12.7079 27.9466 13.8368 27.9466 15.1425C27.9466 15.1969 27.9466 15.5777 27.9466 16.285C27.9466 17.0195 27.3965 17.9307 26.2963 19.0188Z" fill="#FB3F6C"/>
</svg>
