<svg xmlns="http://www.w3.org/2000/svg" xmlns:xlink="http://www.w3.org/1999/xlink" viewBox="0 0 732.18 486.24"><defs><style>.cls-1{fill:url(#linear-gradient);}.cls-2{fill:url(#linear-gradient-2);}.cls-3{fill:#ebebeb;}.cls-4{fill:#fff;}.cls-5{fill:url(#linear-gradient-3);}</style><linearGradient id="linear-gradient" x1="277.28" y1="455.87" x2="274.71" y2="461.75" gradientUnits="userSpaceOnUse"><stop offset="0" stop-color="#efefef"/><stop offset="0.31" stop-color="#e7e7e7"/><stop offset="0.45" stop-color="#e2e2e2"/></linearGradient><linearGradient id="linear-gradient-2" x1="366.09" y1="25.15" x2="366.09" gradientUnits="userSpaceOnUse"><stop offset="0" stop-color="#efefef"/><stop offset="0.31" stop-color="#e7e7e7"/><stop offset="0.45" stop-color="#e2e2e2"/><stop offset="1" stop-color="#c5c5c5"/></linearGradient><linearGradient id="linear-gradient-3" x1="0.05" y1="485.65" x2="732.18" y2="485.65" xlink:href="#linear-gradient-2"/></defs><title>screen-desktop</title><g id="Layer_2" data-name="Layer 2"><g id="object"><path class="cls-1" d="M709.92,3.15H22.36a22.16,22.16,0,0,0-22.31,22V485.06H3.24V22a18.09,18.09,0,0,1,.22-2.86c0-.31.1-.62.16-.92s.14-.61.22-.91.16-.6.25-.89A18.64,18.64,0,0,1,7.89,9.7c.2-.23.4-.45.62-.67l.32-.32A18.84,18.84,0,0,1,12,6.16c.38-.25.78-.48,1.19-.7S14,5,14.46,4.86h0l.85-.35h0a19.34,19.34,0,0,1,7-1.31H709.87A19.34,19.34,0,0,1,719,5.46c.4.22.8.45,1.19.7s1,.68,1.49,1h0c.24.18.48.38.71.57h0c.35.3.68.61,1,.93.11.11.22.21.32.32s.42.44.62.67A18.57,18.57,0,0,1,729,22V485.06h3.23V23.77A22.19,22.19,0,0,0,709.92,3.15Z"/><path class="cls-2" d="M0,22A22.16,22.16,0,0,1,22.31,0H709.87a22.16,22.16,0,0,1,22.31,22v1.76A22.19,22.19,0,0,0,709.92,3.15H22.36a22.16,22.16,0,0,0-22.31,22Z"/><rect class="cls-3" x="3.24" y="472.18" width="725.71" height="12.88"/><path class="cls-4" d="M728.94,22.11V472.18H3.23V22.11A19,19,0,0,1,22.31,3.19H709.87A19,19,0,0,1,728.94,22.11Z"/><polygon class="cls-5" points="732.18 485.06 732.18 486.24 728.95 486.24 728.95 486.23 3.23 486.23 3.23 486.24 0.05 486.24 0.05 485.06 732.18 485.06"/></g></g></svg>