<svg width="29" height="29" viewBox="0 0 29 29" fill="none" xmlns="http://www.w3.org/2000/svg">
<path opacity="0.4" d="M25.5333 13.4862V20.5096C25.5333 23.7457 22.9068 26.3721 19.6707 26.3721H9.42293C6.18679 26.3721 3.56036 23.7457 3.56036 20.5096V13.5683C4.45147 14.5298 5.71779 15.0808 7.08963 15.0808C8.567 15.0808 9.98574 14.3422 10.8769 13.1579C11.6742 14.3422 13.0343 15.0808 14.5468 15.0808C16.0476 15.0808 17.3843 14.3773 18.1933 13.2048C19.0962 14.3656 20.4915 15.0808 21.9454 15.0808C23.3641 15.0808 24.6539 14.5063 25.5333 13.4862Z" fill="#593FFB"/>
<path d="M18.0526 1.59694H11.0176L10.1499 10.2266C10.0795 11.0239 10.1968 11.7744 10.4899 12.4544C11.17 14.049 12.7646 15.0808 14.5468 15.0808C16.3525 15.0808 17.9119 14.0725 18.6155 12.4661C18.8265 11.962 18.9555 11.3757 18.9672 10.7777V10.5549L18.0526 1.59694Z" fill="#593FFB"/>
<path opacity="0.6" d="M26.6941 9.82798L26.354 6.58012C25.8616 3.03913 24.2552 1.59694 20.8198 1.59694H16.3173L17.185 10.3908C17.1967 10.508 17.2084 10.637 17.2084 10.8598C17.2788 11.4695 17.4664 12.0323 17.7478 12.5365C18.592 14.0842 20.2335 15.0808 21.9454 15.0808C23.5048 15.0808 24.9118 14.3891 25.7912 13.1696C26.4947 12.2316 26.8113 11.0474 26.6941 9.82798Z" fill="#593FFB"/>
<path opacity="0.6" d="M8.20351 1.59694C4.75632 1.59694 3.1617 3.03913 2.65752 6.6153L2.34094 9.83971C2.22369 11.0943 2.56372 12.3137 3.3024 13.2634C4.19351 14.4242 5.56535 15.0808 7.08962 15.0808C8.80149 15.0808 10.443 14.0842 11.2755 12.5599C11.5804 12.0323 11.7797 11.4226 11.8383 10.7894L12.7529 1.60866H8.20351V1.59694Z" fill="#593FFB"/>
<path d="M13.7847 19.6654C12.2956 19.8178 11.17 21.0841 11.17 22.5849V26.3721H17.9119V22.9953C17.9237 20.5447 16.4815 19.384 13.7847 19.6654Z" fill="#593FFB"/>
</svg>
