<svg width="313" height="639" viewBox="0 0 313 639" fill="none" xmlns="http://www.w3.org/2000/svg">
<path d="M231.647 80.2103C210.73 80.0358 190.722 71.6349 175.95 56.8242C168.534 49.4108 162.654 40.6074 158.645 30.9179C154.637 21.2285 152.579 10.8435 152.59 0.357666V0.357666H231.647V80.2103Z" fill="#8F7CFF"/>
<path d="M152.271 0.421509H72.1788V80.5168H152.271V0.421509Z" fill="#FFE9A3"/>
<path d="M152.884 319.781C142.303 319.774 132.158 315.566 124.678 308.082C117.199 300.597 112.997 290.449 112.997 279.868V279.868C112.997 269.282 117.202 259.13 124.687 251.644C132.172 244.159 142.324 239.954 152.909 239.954C163.495 239.954 173.646 244.159 181.131 251.644C188.616 259.13 192.821 269.282 192.821 279.868C192.821 285.111 191.788 290.303 189.781 295.148C187.773 299.992 184.831 304.393 181.122 308.1C177.413 311.806 173.011 314.746 168.165 316.75C163.32 318.755 158.127 319.784 152.884 319.781V319.781Z" fill="#D1D4FF"/>
<path d="M312.25 559.173V638.987C291.08 638.987 270.776 630.577 255.806 615.606C240.836 600.636 232.426 580.332 232.426 559.16H312.25V559.173Z" fill="#B5E0E9"/>
<path d="M271.7 40.5394H231.609V80.2614H271.7V40.5394Z" fill="#FFE9A3"/>
<path d="M271.7 0.459839H231.609V40.5394H271.7V0.459839Z" fill="#B5E0E9"/>
<path d="M232.529 200.155H192.706V239.967H232.529V200.155Z" fill="#FFE9A3"/>
<path d="M272.504 119.626L232.682 159.437V119.626H272.504Z" fill="#FFE9A3"/>
<path d="M311.906 479.461L232.49 558.854V479.461H311.906Z" fill="#FFE9A3"/>
<path d="M232.529 439.688H192.706V479.499H232.529V439.688Z" fill="#D1D4FF"/>
<path d="M72.2554 0.395996H32.4329V40.2074H72.2554V0.395996Z" fill="#D1D4FF"/>
<path d="M192.834 280.033H153.011V319.845H192.834V280.033Z" fill="#B5E0E9"/>
<path d="M192.285 160.063H152.462V199.874H192.285V160.063Z" fill="#B5E0E9"/>
<path d="M272.185 319.819C272.182 330.377 267.987 340.501 260.521 347.966C253.056 355.432 242.933 359.627 232.375 359.631V359.631V319.819H272.185Z" fill="#B5E0E9"/>
<path d="M72.1277 80.4658C72.3295 101.598 80.8588 121.798 95.8639 136.679C110.869 151.561 131.138 159.922 152.271 159.948V159.948V80.4658H72.1277Z" fill="#FFE9A3"/>
<path d="M172.003 266.176V179.783H169.04V266.176H172.003Z" fill="#D1D4FF"/>
<path d="M163.701 266.163V179.771H160.738V266.163H163.701Z" fill="#D1D4FF"/>
<path d="M155.4 266.176V179.783H152.437V266.176H155.4Z" fill="#D1D4FF"/>
<path d="M33.4035 54.0909C33.4035 54.6239 33.2455 55.1449 32.9494 55.5881C32.6533 56.0313 32.2324 56.3767 31.74 56.5807C31.2476 56.7847 30.7057 56.838 30.183 56.734C29.6602 56.6301 29.18 56.3734 28.8032 55.9965C28.4263 55.6196 28.1696 55.1394 28.0656 54.6166C27.9617 54.0939 28.015 53.552 28.219 53.0595C28.4229 52.5671 28.7683 52.1462 29.2115 51.8501C29.6547 51.554 30.1757 51.3959 30.7087 51.3959C31.0631 51.3942 31.4143 51.4628 31.742 51.5976C32.0697 51.7324 32.3674 51.9309 32.618 52.1815C32.8686 52.4321 33.067 52.7298 33.2019 53.0575C33.3367 53.3853 33.4052 53.7365 33.4035 54.0909V54.0909Z" fill="#8F7CFF"/>
<path d="M33.4035 68.1788C33.4035 68.7118 33.2455 69.2328 32.9494 69.676C32.6533 70.1192 32.2324 70.4646 31.74 70.6686C31.2476 70.8726 30.7057 70.9259 30.183 70.8219C29.6602 70.7179 29.18 70.4613 28.8032 70.0844C28.4263 69.7075 28.1696 69.2273 28.0656 68.7045C27.9617 68.1817 28.015 67.6399 28.219 67.1474C28.4229 66.655 28.7683 66.2341 29.2115 65.938C29.6547 65.6419 30.1757 65.4838 30.7087 65.4838C31.0631 65.4821 31.4143 65.5507 31.742 65.6855C32.0697 65.8203 32.3674 66.0188 32.618 66.2694C32.8686 66.5199 33.067 66.8177 33.2019 67.1454C33.3367 67.4732 33.4052 67.8244 33.4035 68.1788V68.1788Z" fill="#8F7CFF"/>
<path d="M47.1205 54.0909C47.1205 54.6239 46.9624 55.1449 46.6663 55.5881C46.3702 56.0313 45.9493 56.3767 45.4569 56.5807C44.9645 56.7847 44.4226 56.838 43.8999 56.734C43.3771 56.6301 42.8969 56.3734 42.5201 55.9965C42.1432 55.6196 41.8865 55.1394 41.7826 54.6166C41.6786 54.0939 41.732 53.552 41.9359 53.0595C42.1399 52.5671 42.4853 52.1462 42.9285 51.8501C43.3716 51.554 43.8926 51.3959 44.4256 51.3959C44.78 51.3942 45.1312 51.4628 45.4589 51.5976C45.7866 51.7324 46.0844 51.9309 46.335 52.1815C46.5855 52.4321 46.784 52.7298 46.9188 53.0575C47.0536 53.3853 47.1222 53.7365 47.1205 54.0909V54.0909Z" fill="#8F7CFF"/>
<path d="M47.1205 68.1788C47.1205 68.7118 46.9624 69.2328 46.6663 69.676C46.3702 70.1192 45.9493 70.4646 45.4569 70.6686C44.9645 70.8726 44.4226 70.9259 43.8999 70.8219C43.3771 70.7179 42.8969 70.4613 42.5201 70.0844C42.1432 69.7075 41.8865 69.2273 41.7826 68.7045C41.6786 68.1817 41.732 67.6399 41.9359 67.1474C42.1399 66.655 42.4853 66.2341 42.9285 65.938C43.3716 65.6419 43.8926 65.4838 44.4256 65.4838C44.78 65.4821 45.1312 65.5507 45.4589 65.6855C45.7866 65.8203 46.0844 66.0188 46.335 66.2694C46.5855 66.5199 46.784 66.8177 46.9188 67.1454C47.0536 67.4732 47.1222 67.8244 47.1205 68.1788V68.1788Z" fill="#8F7CFF"/>
<path d="M5.63764 54.0909C5.64017 54.6269 5.48351 55.1517 5.18754 55.5987C4.89156 56.0456 4.46958 56.3947 3.97506 56.6016C3.48053 56.8085 2.93571 56.8639 2.40965 56.7609C1.88358 56.6579 1.39993 56.401 1.01998 56.0228C0.640036 55.6446 0.38089 55.1622 0.275376 54.6366C0.169862 54.111 0.222753 53.5659 0.427306 53.0704C0.631859 52.5749 0.978863 52.1512 1.4244 51.8531C1.86994 51.555 2.39396 51.3959 2.93002 51.3959C3.28499 51.3942 3.63677 51.4627 3.9652 51.5974C4.29363 51.732 4.59221 51.9303 4.8438 52.1807C5.0954 52.4311 5.29507 52.7288 5.4313 53.0566C5.56752 53.3844 5.63764 53.7359 5.63764 54.0909V54.0909Z" fill="#8F7CFF"/>
<path d="M2.9301 70.8737C4.41842 70.8737 5.62493 69.6671 5.62493 68.1787C5.62493 66.6903 4.41842 65.4838 2.9301 65.4838C1.44178 65.4838 0.235229 66.6903 0.235229 68.1787C0.235229 69.6671 1.44178 70.8737 2.9301 70.8737Z" fill="#8F7CFF"/>
<path d="M19.3545 54.0908C19.3545 54.6238 19.1965 55.1449 18.9004 55.5881C18.6043 56.0313 18.1834 56.3767 17.691 56.5807C17.1986 56.7846 16.6567 56.838 16.1339 56.734C15.6112 56.63 15.131 56.3734 14.7541 55.9965C14.3773 55.6196 14.1206 55.1394 14.0166 54.6166C13.9126 54.0938 13.966 53.552 14.17 53.0595C14.3739 52.5671 14.7193 52.1462 15.1625 51.8501C15.6057 51.5539 16.1267 51.3959 16.6597 51.3959C17.3744 51.3959 18.0598 51.6798 18.5652 52.1852C19.0706 52.6906 19.3545 53.3761 19.3545 54.0908V54.0908Z" fill="#8F7CFF"/>
<path d="M16.6597 70.8737C18.148 70.8737 19.3545 69.6671 19.3545 68.1787C19.3545 66.6903 18.148 65.4838 16.6597 65.4838C15.1714 65.4838 13.9648 66.6903 13.9648 68.1787C13.9648 69.6671 15.1714 70.8737 16.6597 70.8737Z" fill="#8F7CFF"/>
<path d="M88.897 54.0909C88.897 54.6228 88.7396 55.1428 88.4446 55.5854C88.1496 56.028 87.7302 56.3734 87.2393 56.5781C86.7483 56.7829 86.2078 56.8377 85.6858 56.7358C85.1637 56.6338 84.6835 56.3797 84.3056 56.0053C83.9278 55.631 83.6691 55.1532 83.5623 54.6321C83.4554 54.111 83.5052 53.57 83.7052 53.0771C83.9053 52.5843 84.2467 52.1616 84.6865 51.8625C85.1263 51.5633 85.6448 51.4009 86.1766 51.3959C86.5331 51.3908 86.8871 51.4568 87.2178 51.5902C87.5485 51.7235 87.8492 51.9214 88.1025 52.1723C88.3558 52.4232 88.5566 52.7221 88.693 53.0516C88.8294 53.381 88.8988 53.7343 88.897 54.0909Z" fill="#8F7CFF"/>
<path d="M88.897 68.1788C88.897 68.7107 88.7396 69.2307 88.4446 69.6733C88.1496 70.1159 87.7302 70.4613 87.2393 70.666C86.7483 70.8707 86.2078 70.9256 85.6858 70.8237C85.1637 70.7217 84.6835 70.4676 84.3056 70.0932C83.9278 69.7189 83.6691 69.2411 83.5623 68.72C83.4554 68.1989 83.5052 67.6579 83.7052 67.165C83.9053 66.6722 84.2467 66.2495 84.6865 65.9503C85.1263 65.6512 85.6448 65.4888 86.1766 65.4838C86.5331 65.4787 86.8871 65.5447 87.2178 65.678C87.5485 65.8114 87.8492 66.0093 88.1025 66.2602C88.3558 66.5111 88.5566 66.81 88.693 67.1395C88.8294 67.4689 88.8988 67.8222 88.897 68.1788Z" fill="#8F7CFF"/>
<path d="M102.614 54.0909C102.614 54.6239 102.456 55.1449 102.16 55.5881C101.864 56.0313 101.443 56.3767 100.95 56.5807C100.458 56.7847 99.9161 56.838 99.3933 56.734C98.8706 56.6301 98.3904 56.3734 98.0135 55.9965C97.6367 55.6196 97.38 55.1394 97.276 54.6166C97.172 54.0939 97.2254 53.552 97.4294 53.0595C97.6333 52.5671 97.9787 52.1462 98.4219 51.8501C98.8651 51.554 99.3861 51.3959 99.9191 51.3959C100.273 51.3942 100.625 51.4628 100.952 51.5976C101.28 51.7324 101.578 51.9309 101.828 52.1815C102.079 52.4321 102.277 52.7298 102.412 53.0575C102.547 53.3853 102.616 53.7365 102.614 54.0909V54.0909Z" fill="#8F7CFF"/>
<path d="M102.614 68.1788C102.614 68.7118 102.456 69.2328 102.16 69.676C101.864 70.1192 101.443 70.4646 100.95 70.6686C100.458 70.8726 99.9161 70.9259 99.3933 70.8219C98.8706 70.7179 98.3904 70.4613 98.0135 70.0844C97.6367 69.7075 97.38 69.2273 97.276 68.7045C97.172 68.1817 97.2254 67.6399 97.4294 67.1474C97.6333 66.655 97.9787 66.2341 98.4219 65.938C98.8651 65.6419 99.3861 65.4838 99.9191 65.4838C100.273 65.4821 100.625 65.5507 100.952 65.6855C101.28 65.8203 101.578 66.0188 101.828 66.2694C102.079 66.5199 102.277 66.8177 102.412 67.1454C102.547 67.4732 102.616 67.8244 102.614 68.1788V68.1788Z" fill="#8F7CFF"/>
<path d="M61.1184 54.0909C61.1184 54.6239 60.9604 55.1449 60.6643 55.5881C60.3681 56.0313 59.9472 56.3767 59.4548 56.5807C58.9624 56.7847 58.4206 56.838 57.8978 56.734C57.3751 56.6301 56.8949 56.3734 56.518 55.9965C56.1411 55.6196 55.8845 55.1394 55.7805 54.6166C55.6765 54.0939 55.7299 53.552 55.9338 53.0595C56.1378 52.5671 56.4832 52.1462 56.9264 51.8501C57.3695 51.554 57.8906 51.3959 58.4235 51.3959C58.7779 51.3942 59.1291 51.4628 59.4569 51.5976C59.7846 51.7324 60.0823 51.9309 60.3329 52.1815C60.5835 52.4321 60.7819 52.7298 60.9167 53.0575C61.0515 53.3853 61.1201 53.7365 61.1184 54.0909V54.0909Z" fill="#8F7CFF"/>
<path d="M58.4235 70.8737C59.9119 70.8737 61.1184 69.6671 61.1184 68.1787C61.1184 66.6903 59.9119 65.4838 58.4235 65.4838C56.9352 65.4838 55.7287 66.6903 55.7287 68.1787C55.7287 69.6671 56.9352 70.8737 58.4235 70.8737Z" fill="#8F7CFF"/>
<path d="M74.8481 68.1787C74.8481 68.7106 74.6906 69.2307 74.3956 69.6733C74.1006 70.1159 73.6812 70.4613 73.1903 70.666C72.6994 70.8707 72.1589 70.9256 71.6368 70.8236C71.1148 70.7217 70.6346 70.4675 70.2567 70.0932C69.8788 69.7189 69.6201 69.2411 69.5133 68.72C69.4065 68.1989 69.4562 67.6578 69.6563 67.165C69.8563 66.6721 70.1977 66.2495 70.6375 65.9503C71.0773 65.6511 71.5958 65.4888 72.1277 65.4838C72.4837 65.4804 72.8369 65.5476 73.1668 65.6815C73.4967 65.8155 73.7968 66.0134 74.0498 66.264C74.3027 66.5146 74.5035 66.8128 74.6405 67.1415C74.7776 67.4701 74.8481 67.8227 74.8481 68.1787V68.1787Z" fill="#8F7CFF"/>
<path d="M187.84 487.558C187.84 488.091 187.682 488.612 187.386 489.056C187.09 489.499 186.669 489.844 186.177 490.048C185.684 490.252 185.142 490.306 184.62 490.202C184.097 490.098 183.617 489.841 183.24 489.464C182.863 489.087 182.606 488.607 182.502 488.084C182.398 487.561 182.452 487.02 182.656 486.527C182.86 486.035 183.205 485.614 183.648 485.318C184.091 485.021 184.612 484.863 185.145 484.863C185.5 484.862 185.851 484.93 186.179 485.065C186.506 485.2 186.804 485.398 187.055 485.649C187.305 485.9 187.504 486.197 187.638 486.525C187.773 486.853 187.842 487.204 187.84 487.558V487.558Z" fill="#8F7CFF"/>
<path d="M187.84 501.646C187.84 502.179 187.682 502.7 187.386 503.144C187.09 503.587 186.669 503.932 186.177 504.136C185.684 504.34 185.142 504.393 184.62 504.289C184.097 504.186 183.617 503.929 183.24 503.552C182.863 503.175 182.606 502.695 182.502 502.172C182.398 501.649 182.452 501.107 182.656 500.615C182.86 500.123 183.205 499.702 183.648 499.405C184.091 499.109 184.612 498.951 185.145 498.951C185.5 498.95 185.851 499.018 186.179 499.153C186.506 499.288 186.804 499.486 187.055 499.737C187.305 499.987 187.504 500.285 187.638 500.613C187.773 500.941 187.842 501.292 187.84 501.646V501.646Z" fill="#8F7CFF"/>
<path d="M181.607 100.902C181.61 102.307 181.196 103.681 180.417 104.85C179.638 106.02 178.53 106.932 177.233 107.471C175.935 108.011 174.507 108.153 173.129 107.881C171.751 107.608 170.484 106.933 169.49 105.94C168.495 104.948 167.818 103.682 167.543 102.304C167.268 100.927 167.407 99.498 167.945 98.1997C168.482 96.9013 169.392 95.7915 170.56 95.0106C171.728 94.2297 173.101 93.8129 174.506 93.8129C175.438 93.8112 176.361 93.9933 177.223 94.3488C178.084 94.7043 178.867 95.2262 179.527 95.8846C180.186 96.543 180.71 97.325 181.067 98.1859C181.424 99.0467 181.607 99.9696 181.607 100.902V100.902Z" fill="#D1D4FF"/>
<path d="M181.607 137.941C181.61 139.346 181.196 140.721 180.417 141.89C179.638 143.06 178.53 143.972 177.233 144.511C175.935 145.051 174.507 145.193 173.129 144.921C171.751 144.648 170.484 143.973 169.49 142.98C168.495 141.987 167.818 140.722 167.543 139.344C167.268 137.966 167.407 136.538 167.945 135.239C168.482 133.941 169.392 132.831 170.56 132.05C171.728 131.269 173.101 130.853 174.506 130.853C176.387 130.853 178.192 131.599 179.523 132.928C180.855 134.257 181.604 136.06 181.607 137.941V137.941Z" fill="#D1D4FF"/>
<path d="M217.726 100.902C217.726 102.304 217.311 103.674 216.532 104.84C215.753 106.005 214.646 106.914 213.351 107.451C212.055 107.987 210.63 108.127 209.255 107.854C207.88 107.58 206.617 106.905 205.626 105.914C204.634 104.923 203.959 103.66 203.686 102.284C203.412 100.909 203.553 99.4841 204.089 98.1888C204.626 96.8935 205.534 95.7864 206.7 95.0075C207.865 94.2286 209.236 93.8129 210.638 93.8129C211.569 93.8112 212.492 93.9934 213.352 94.349C214.213 94.7047 214.995 95.2268 215.654 95.8853C216.312 96.5439 216.834 97.326 217.19 98.1868C217.546 99.0476 217.728 99.9702 217.726 100.902V100.902Z" fill="#D1D4FF"/>
<path d="M217.726 137.941C217.726 139.343 217.311 140.714 216.532 141.88C215.753 143.045 214.646 143.954 213.351 144.49C212.055 145.027 210.63 145.167 209.255 144.894C207.88 144.62 206.617 143.945 205.626 142.954C204.634 141.962 203.959 140.699 203.686 139.324C203.412 137.949 203.553 136.524 204.089 135.229C204.626 133.933 205.534 132.826 206.7 132.047C207.865 131.268 209.236 130.853 210.638 130.853C212.518 130.853 214.321 131.599 215.65 132.929C216.979 134.258 217.726 136.061 217.726 137.941V137.941Z" fill="#D1D4FF"/>
</svg>
