<svg xmlns="http://www.w3.org/2000/svg" xmlns:xlink="http://www.w3.org/1999/xlink" viewBox="0 0 761.69 596.94"><defs><style>.cls-1{fill:url(#linear-gradient);}</style><linearGradient id="linear-gradient" x1="134.69" y1="680.91" x2="646.25" y2="-57.32" gradientUnits="userSpaceOnUse"><stop offset="0" stop-color="#c8cacc"/><stop offset="0.14" stop-color="#d5d6d7"/><stop offset="0.38" stop-color="#e4e6e6"/><stop offset="0.57" stop-color="#eaebeb"/><stop offset="0.75" stop-color="#eeefef"/><stop offset="0.93" stop-color="#fafbfb"/><stop offset="0.98" stop-color="#fff"/></linearGradient></defs><title>Asset 1</title><g id="Layer_2" data-name="Layer 2"><g id="OBJECTS"><path class="cls-1" d="M395.4,545.45V514.57l-29.13-16.83v33.07l-27.14,15.67V514L310.5,530.52l-27.64-15.95V484.26a2,2,0,0,0,1.46-1.89,2.25,2.25,0,0,0-.07-.52l26.5-15.29.25-.15V432.77L282.36,449.3l-28.14-16.24L226.09,449.3l-27.64-15.95V401.44l28.64-16.54-28.64-16.53V335.3L169.57,352l-.25.15V384l-25.75-14.87a2.09,2.09,0,0,0,.07-.51,2,2,0,0,0-1.46-1.89V304l27.89-16.1.25-.14V254.08l-28.89,16.68-.25.15V303.4l-27.64,16L86.41,303.68l27.38-15.81.25-.14V254.08L85.16,270.76l-.25.15v64.4L59.16,320.44a2.09,2.09,0,0,0,.07-.51A2,2,0,0,0,57.77,318V287.15L30.14,271.2l27.13-15.67.5.29v-.58l.5-.29-.5-.29V222.17L31,206.73a1.7,1.7,0,0,0,.08-.51,2,2,0,1,0-2.46,1.89v30.31L0,255,28.14,271.2.75,287l-.25.14v32.49l-.5.29.5.29v32.49l27.62,16L.73,384.47l-.25.15v33.64l28.88-16.68.25-.14V369.52h0V336.46l26.24-15.15a1.9,1.9,0,0,0,.89.51v30.89l27.64,16L57,384.47l-.25.14v32.51L30.55,432.26a2,2,0,1,0-1.89,3.27v62.76L.73,514.41l-.25.15V548.2l0,0v31.94l28.14,16.24v.58l.5-.29.5.29v-.57l27.88-16.11.25-.14V546.47L30.55,562.2a1.94,1.94,0,0,0-1.39-.58,2,2,0,0,0-1.4.58L2,547.32l26.66-15.39v0l28.63-16.53L85.93,532V498.89l27.86-16.09.25-.14V451.77a2,2,0,1,0-2.46-1.89,1.7,1.7,0,0,0,.08.51l-26.5,15.3-.25.14v31.9L57.79,482.08V417.67l27.62-15.95L114,418.26V385.19L140.29,370a1.9,1.9,0,0,0,.89.51v30.89l26.75,15.44a1.75,1.75,0,0,0-.08.51,1.7,1.7,0,0,0,.08.51l-26.5,15.3-.25.15v64.94L115.1,513.35a2,2,0,1,0-2.1,3V548.2L141.14,532v31.91l29.13,16.82V547l-27.61-15.93,27.15-15.68,26.25,15.15a2.25,2.25,0,0,0-.07.52,2,2,0,1,0,2.46-1.89v-62.8l27.64-16,27.13,15.66-27.38,15.81-.25.15v32.49l-.5.29.5.28v31.92l-27.89,16.1-.25.14v33.64l28.89-16.68.25-.14V548.21l27.13,15.67v.58l.5-.29,28.64,16.53V549.24a2,2,0,0,0,.89-.52L310,563.87v33.06l28.13-16.24h0L367,564l.25-.14V532L393,546.83a1.81,1.81,0,0,0-.08.51,2,2,0,1,0,2.46-1.89Zm-309.49-274L113,255.82v31.33L85.91,302.82ZM28.61,400.86,1.48,416.53V385.2l27.13-15.67ZM56.79,548.2v31.33L29.66,595.2V565.47a2,2,0,0,0,1.46-1.89,2.09,2.09,0,0,0-.07-.51ZM28.66,565.47V595.2L1.52,579.53V548.2l25.75,14.87a2.09,2.09,0,0,0-.08.51A2,2,0,0,0,28.66,565.47Zm309.47-18.42L311,562.71V531.39l27.13-15.67Zm-56.27-1.6a2,2,0,0,0-.89.51L255.22,531.1l26.64-15.38Zm-27.14-47.13V467l25.75,14.87a2.09,2.09,0,0,0-.07.51,2,2,0,0,0,1.46,1.89V514Zm27.14-17.84a1.9,1.9,0,0,0-.89.51l-25.75-14.87,26.64-15.38Zm-27.64,18.71,27.14,15.67L269,522l-14.81,8.55-27.13-15.66,12.33-7.12Zm.5,32.78,25.75,14.86a1.93,1.93,0,0,0,0,1l-25.75,14.86ZM310,465.83,283.75,481a2,2,0,0,0-.89-.5V450.17L310,434.5ZM170.32,415.5V385.77l27.13,15.67v31.33L171.7,417.9a1.7,1.7,0,0,0,.08-.51A2,2,0,0,0,170.32,415.5Zm0,3.78a1.9,1.9,0,0,0,.89-.51L197,433.64,170.32,449ZM198,400.57,170.82,384.9l13.3-7.68,13.83-8,27.14,15.66ZM170.32,352.7,197.45,337v31.33L170.32,384Zm-28.14-81.22,27.14-15.66v31.33l-27.14,15.67Zm-1,64.4L132.3,341,114,351.55V320.22l27.14-15.67ZM113,384,99.48,376.2l-13.57-7.83V337l13.57,7.83L113,352.71ZM85.91,304.55,113,320.22v31.33l-13.56-7.83-13.57-7.84ZM56.77,318a1.9,1.9,0,0,0-.89.51L29.64,303.4V272.06l27.13,15.67Zm0-95.29v31.34L29.64,238.42V208.11a1.9,1.9,0,0,0,.89-.51ZM29.14,239.29,56.27,255,29.64,270.33h0l-.5.29-.5-.29h0L2,255ZM1.5,287.73l27.14-15.67V303.4L1.5,319.06Zm0,33.07,27.14,15.66V367.8L1.5,352.13Zm27.64,14.8L2,319.93l12.33-7.12,14.81-8.55,26.24,15.16a1.89,1.89,0,0,0,0,1Zm28.63-13.78a2,2,0,0,0,.9-.51l26.24,15.15v31.33L57.77,352.13Zm0,63.37,27.14-15.66v31.33L57.77,416.52ZM29.66,435.53a2,2,0,0,0,1.46-1.89,2.09,2.09,0,0,0-.07-.51l25.74-14.87v31.33L29.66,465.26Zm27.13,46.55L29.66,497.74V466.41l27.13-15.66ZM28.61,530.8,1.48,546.47V515.13l27.13-15.66Zm1.05-31.9,27.13-15.67v31.33L29.66,530.23Zm56.25-32.49,26.24-15.15a1.9,1.9,0,0,0,.89.51v30.31L85.91,497.74Zm-1,33v30.77L57.79,514.56V483.23l27.12,15.66v.59ZM113,416.52,85.91,400.86V369.53l13.57,7.83L113,385.19ZM114,384V352.71l15.51-9L141.18,337v29.73a2,2,0,0,0-1.46,1.89,2.09,2.09,0,0,0,.07.51Zm28.14,16.82V370.55a1.9,1.9,0,0,0,.89-.51l26.25,15.15V415.5a2,2,0,0,0-.9.51Zm0,33.07,26.24-15.16a1.88,1.88,0,0,0,.9.51v30.31l-.5.29h0l-26.64,15.38Zm0,65,27.14-15.67v31.33l-27.14,15.67Zm27.14-16.82-27.14,15.66V466.41l27.14-15.66ZM114,546.47v-30.1a2,2,0,0,0,1.46-1.89,1.1,1.1,0,0,0,0-.18l25.7-14.83V530.8ZM169.27,579l-27.13-15.67V532l27.13,15.66Zm28.18-49.75a2,2,0,0,0-.89.5l-26.24-15.15V483.23l27.13,15.67Zm-27.13-47.13V450.74l27.13,15.67v31.33ZM198,465.55l-27.13-15.67L198,434.21l.5.29h0l26.64,15.38Zm56.27-31.34,27.14,15.67-26.64,15.38h0l-.5.29-.5-.29h0l-26.63-15.38Zm-27.63,48.45L253.72,467v31.33L226.59,514Zm-1,96.88-27.14,15.67V563.88l27.14-15.67Zm1-32.48V515.72l27.13,15.67v31.33Zm28.63,16.53L281,548.73a2,2,0,0,0,.89.5V579Zm27.64-18.14V515.72L310,531.39v31.33l-25.75-14.87a2.09,2.09,0,0,0,.07-.51A2,2,0,0,0,282.86,545.45ZM311,595.2V563.87l27.13-15.66v31.32Zm55.27-31.9L339.13,579V547.63L366.27,532Zm1-32.49V499.48l27.13,15.66v30.31a2,2,0,0,0-.89.51ZM761.69,342l-28.13-16.25,27.38-15.81.25-.14V277.3l.5-.29-.5-.29V244.23l-27.62-15.95L761,212.47l.25-.15V178.68l-28.89,16.68-.25.14v31.92h0v33.07l-26.25,15.15a1.9,1.9,0,0,0-.89-.51V211.75l-28.13-16.24V163L650,147.58a2.25,2.25,0,0,0,.07-.52,2.09,2.09,0,0,0-.07-.51l26.5-15.3.25-.14V99.21l27.11,15.65v65.55l27.24-15.72a2,2,0,0,0,1.4.58,2,2,0,0,0,.5-3.86V98.65L761,82.53l.25-.15V48.74L733,65v0L704.4,81.51,675.76,65V98.05L647.9,114.14l-.25.15v30.88a2,2,0,0,0,0,3.78v30.89l28.14,16.24V228l-27.14,15.67V211.75L620.51,195.5v-.58l-.5.29-.5-.29v.58l-27.88,16.1-.25.15v33.64l27.24-15.73a1.94,1.94,0,0,0,1.39.58,2,2,0,0,0,1.4-.58l26.24,15.15v65.56l28.64-16.54,27.63,16h0l27.64,15.95-27.14,15.67-.5-.29v.58l-.5.29.5.29v32.49L732.06,391v30.31a2,2,0,1,0,2.46,1.89,1.7,1.7,0,0,0-.08-.51l26.5-15.3.25-.15V373.61l-28.13,16.24V358.52ZM733.08,196.08l27.14-15.67v31.34l-27.14,15.66Zm27.11,113.13-27.13,15.67V293.54l27.13-15.66Zm0-33.07-27.13-15.66V229.14l27.13,15.67Zm-27.63-14.8L759.69,277l-12.32,7.12-14.81,8.55-26.25-15.16a1.89,1.89,0,0,0,0-1Zm-28.64-16.52v30.3a2,2,0,0,0-.89.51l-12.68-7.32-13.56-7.83V229.15L690.35,237Zm1-130L732,99.2v31.33L704.9,146.2Zm0,63.82V147.35L732,131.68v29.73a2,2,0,0,0-1.47,1.89,1.82,1.82,0,0,0,.08.52ZM733.08,66.14l27.14-15.67V81.81L733.08,97.47ZM732,98,704.9,113.71V82.38L732,66.71ZM676.76,66.71,703.9,82.38v31.33L676.79,98.05v-.59l0,0Zm-1,32.49v31.33l-26.25,15.15a2,2,0,0,0-.89-.51V114.86Zm-27.14,80.06V149a2,2,0,0,0,.89-.5l26.25,15.15v31.33Zm55.27,33.07v31.33l-13.57-7.83L676.79,228V196.66ZM592.38,243.66V212.32l27.13-15.66v29.73a2,2,0,0,0-1.46,1.89,1.7,1.7,0,0,0,.08.51Zm28.13-17.27V196.66l27.14,15.66v31.34L621.9,228.79a1.7,1.7,0,0,0,.08-.51A2,2,0,0,0,620.51,226.39Zm28.14,18.43,27.14-15.67v31.33l-27.14,15.67Zm0,32.48,27.14-15.66V293l-27.14,15.66ZM676.79,293V261.64l13.56,7.83,12.18,7a2.09,2.09,0,0,0-.07.51,2,2,0,0,0,1.46,1.89v29.73Zm28.13-14.07a1.9,1.9,0,0,0,.89-.51l26.25,15.15v31.34l-27.14-15.67Zm27.14,47.71h0l.5-.29.5.29h0L759.69,342l-27.13,15.66L705.42,342Zm-27.14,16.24,27.14,15.67v31.33l-27.14-15.66Zm55.27,32.49v31.34L734,421.83a1.9,1.9,0,0,0-.89-.51V391ZM593.84,179.55a1.7,1.7,0,0,0-.08-.51l26.5-15.3.25-.15V98.65L646.6,83.59a1.94,1.94,0,0,0,1.59.83,2,2,0,0,0,.5-3.85V48.74L620.56,65V33.07L591.42,16.25V49.9L619,65.84,591.88,81.51,565.63,66.36a2.25,2.25,0,0,0,.07-.52,2,2,0,1,0-2.46,1.9V97.46h0v33.07l-27.63,16-27.14-15.67L535.86,115l.25-.15V82.37l.5-.28-.5-.29V49.89L564,33.79l.25-.15V0L535.36,16.68l-.25.14V48.73L508,33.06v-.57l-.5.28L478.83,16.24V47.71a1.9,1.9,0,0,0-.89.51L451.7,33.07V0L423.56,16.25h0L394.68,32.92l-.25.15V65L367.29,49.31v-.58l-.5.29-.5-.29v.58l-27.64,16L310,48.73V81.8L282.88,97.46V65.55L253.75,48.73h0L225.61,32.48V65.55L199.37,80.7a2,2,0,1,0-1.4,3.35,2,2,0,0,0,1.4-.58l26.24,15.15v33.06L254.5,115l.25-.14V83l27.13,15.67v33.06L309.12,116a1.93,1.93,0,0,0,.9.51v30.89l29.13,16.82V131.68l28.14,16.24V114.28l-27.64-16,27.14-15.67L395.43,99.2V66.13l27.13-15.67v63.83l-27.88,16.1-.25.14v33.65l27.24-15.73a2,2,0,1,0,1.89-3.27V114.86l27.89-16.1.25-.14V66.71l27.13,15.66v30.31a2,2,0,0,0-1.46,1.89,1.82,1.82,0,0,0,.08.52L451,130.39l-.25.14v33.64l28.63-16.53,28.14,16.24,28.14-16.24,28.13,16.24,27.64-15.95v29.73a2,2,0,1,0,2.46,1.89ZM619.51,163l-26.24,15.15a1.9,1.9,0,0,0-.89-.51V147.35l.5-.29h0l26.63-15.38ZM564.24,99.2l27.14,15.66V146.2l-27.14-15.67Zm28.14,15.66L619.51,99.2v31.33L592.38,146.2ZM619.51,98l-27.13,15.67V82.38l27.13-15.67Zm28.18-47.57v30.1a2,2,0,0,0-1.46,1.89,1.1,1.1,0,0,0,0,.18L620.56,97.47V66.14ZM592.42,18l27.14,15.67V65L592.42,49.32ZM564.24,67.74a2.08,2.08,0,0,0,.89-.51l26.25,15.15v31.33L564.24,98Zm-56.77,30L480.33,82.09,492.66,75l14.81-8.55L534.6,82.09,522.28,89.2ZM479.83,51.49a2,2,0,0,0,.9-.51l25.74,14.86L479.83,81.22ZM507,65,481.22,50.11a1.81,1.81,0,0,0,.08-.51,1.7,1.7,0,0,0-.08-.51L507,34.22Zm0,33.65V130l-25.75-14.86a1.82,1.82,0,0,0,.08-.52,2,2,0,0,0-1.47-1.89V83Zm-27.14,17.85a2.06,2.06,0,0,0,.9-.51l25.74,14.86L479.83,146.2Zm55.28-2.19L508,130V98.62L535.11,83Zm1-96.88L563.24,1.73V33.06L536.11,48.73Zm-1,32.49V81.22L508,65.55V34.22ZM506.47,33.35,480.73,48.22a1.88,1.88,0,0,0-.9-.51V18ZM450.7,1.74V33.07L423.56,48.73V17.41ZM366.29,50.46V81.79L339.15,97.46V66.13Zm-55.27,0,27.13,15.67V97.46l-13.56-7.83L311,81.79ZM338.15,130l-13.56-7.84-12.19-7a1.7,1.7,0,0,0,.08-.51,2,2,0,0,0-1.46-1.89V83l13.57,7.83,13.56,7.84ZM281.88,97.46,254.75,81.79V50.46l27.13,15.67ZM226.61,34.22l27.14,15.66V81.22L226.61,65.55ZM199.86,81.57l26.25-15.15,27.14,15.66L240.92,89.2l-14.81,8.55L199.86,82.6a1.7,1.7,0,0,0,0-1Zm53.89,32.71L226.61,130V98.62L253.75,83ZM282.88,130V98.62L310,83v29.73a2,2,0,0,0-1.47,1.89,2.09,2.09,0,0,0,.08.51Zm55.27,32.48L311,146.77V116.46a1.9,1.9,0,0,0,.89-.51l12.68,7.32,13.56,7.83Zm28.14-16.24-27.14-15.67V99.19l27.14,15.67Zm28.14-48.73L367.29,81.8V50.46l27.14,15.67Zm1-32.48V33.64L422.56,18V49.31ZM450.7,34.23V65.55L423.56,81.22V49.89ZM395.43,162.44V131.11l27.13-15.67v29.74a2,2,0,0,0-1.46,1.89,2.24,2.24,0,0,0,.07.51ZM450.7,98l-27.14,15.67V82.38L450.7,66.71Zm1-63.82,25.75,14.87a1.7,1.7,0,0,0-.08.51,2,2,0,0,0,1.46,1.89V81.22L451.7,65.55Zm0,96.89L477.94,116a2.08,2.08,0,0,0,.89.51v30.3L451.7,162.44Zm55.77,31.62-27.14-15.67L507,131.68h0l.5-.28.5.28h0l26.64,15.38Zm29.14-15.67,27.13-15.66,27.14,15.66-27.14,15.67Z"/></g></g></svg>