<svg width="80" height="89" viewBox="0 0 80 89" fill="none" xmlns="http://www.w3.org/2000/svg">
<path opacity="0.2" d="M38.1641 49.8485C40.5736 48.6518 42.8248 47.1326 44.8373 45.3452C46.815 43.5427 48.5554 41.5233 50.0085 39.3451C51.4632 37.2346 52.6663 35.0019 53.5916 32.6954C54.5274 30.3927 55.0466 28.0106 55.1256 25.6581C55.16 24.4726 55.0115 23.3139 54.6846 22.218C54.3615 21.0729 53.7619 20.047 52.9286 19.2132C51.9859 18.2939 50.6945 17.7476 49.26 17.6614C47.7844 17.6099 46.2616 17.9608 44.8681 18.6736C44.2122 18.9934 43.5774 19.3599 42.9702 19.7697C42.4003 20.177 41.8492 20.6093 41.3192 21.065C40.8084 21.5022 40.3237 21.9665 39.8682 22.4549L39.1413 23.1929L38.5108 23.928C36.9378 25.8218 35.543 27.83 34.346 29.9241C33.1452 31.9648 32.2347 34.1149 31.6415 36.3103C31.0808 38.3928 30.8344 40.4973 30.91 42.558L30.9266 43.3034L31.0166 44.0301C31.0717 44.5074 31.1282 45.0048 31.1952 45.4635C31.3526 46.388 31.5624 47.2971 31.8238 48.187C31.9782 48.7016 32.1627 49.2062 32.3472 49.7108C31.8044 49.8712 31.3021 49.9828 30.7195 50.1389C28.5626 50.6353 26.387 50.8623 24.2511 50.8138C22.2109 50.7423 20.2402 50.3725 18.4072 49.7172C14.9629 48.3574 12.0087 46.2244 9.76649 43.4785C7.66769 40.9038 6.00644 38.0093 4.83065 34.8786C3.74294 32.0166 2.91751 29.0411 2.36244 25.9813C1.84424 23.3082 1.52266 20.5787 1.39983 17.811C1.19708 13.7573 1.7106 9.60128 2.92005 5.50762C3.8463 2.57382 4.73646 0.957244 4.55181 0.957196C4.2461 1.29588 3.99584 1.67276 3.81149 2.07214C3.20437 3.1681 2.68141 4.29454 2.24724 5.44151C0.754609 9.58976 0.024537 13.8494 0.0911598 18.0214C0.104733 20.8719 0.329597 23.689 0.764131 26.4524C1.23262 29.6225 1.98369 32.7123 3.00982 35.6909C4.14683 39.0091 5.80503 42.0874 7.93499 44.834C10.2798 47.8694 13.4217 50.2447 17.1168 51.7751C19.1492 52.5521 21.3443 53.0066 23.6244 53.1227C26.0105 53.2184 28.4479 52.9972 30.8677 52.4653C31.7023 52.2928 32.5328 52.0767 33.3551 51.818C34.2486 53.6644 35.3302 55.4056 36.5868 57.0205C39.9732 61.2846 44.0884 64.9553 48.7993 67.9141C52.1934 70.0831 55.8095 71.9616 59.6126 73.5313C63.8071 75.3035 68.2606 76.6108 72.896 77.4306L74.3605 77.6287L72.9461 78.153C71.4359 78.7531 69.9998 79.4078 68.6371 80.0439C66.2384 81.1988 63.9105 82.514 61.6739 83.978C57.8473 86.4854 55.8198 88.437 56.0128 88.6836C56.2057 88.9302 58.5919 87.5218 62.447 85.4889C64.3952 84.4847 66.7099 83.3142 69.3351 82.184C70.6537 81.6096 72.0387 81.0423 73.4783 80.5009C74.2072 80.2345 74.9444 79.9623 75.6915 79.7045C76.0692 79.5728 76.4099 79.4768 76.9569 79.2505C77.6778 78.9708 78.3158 78.4873 78.7737 77.8735C79.0114 77.5407 79.1805 77.1748 79.2706 76.7986C79.3365 76.5035 79.3617 76.2072 79.3457 75.9172C79.3102 75.4914 79.2255 75.0771 79.0929 74.6816C78.9036 74.0437 78.6975 73.4173 78.5095 72.7994C78.1119 71.5681 77.7136 70.3898 77.3279 69.266C76.5229 67.0412 75.7206 65.1089 74.9811 63.4489C73.5274 60.2378 72.3369 58.3498 71.9668 58.5289C71.5968 58.708 72.0843 60.9183 73.0407 64.3743L74.7824 70.4048C75.1131 71.5382 75.4547 72.7236 75.8073 73.9612C75.982 74.5776 76.1664 75.2083 76.3509 75.839C76.3569 75.8556 76.3669 75.8703 76.3802 75.882C75.8487 75.6984 75.085 75.4631 73.9745 75.1704C69.6699 73.9902 65.4947 72.5297 61.4759 70.7984C57.8686 69.1959 54.4275 67.3307 51.1796 65.2172C46.7306 62.3693 42.8354 58.8674 39.6124 54.8182C38.568 53.463 37.6504 52.0164 36.8679 50.4917C37.3114 50.294 37.7549 50.0963 38.1886 49.8843L38.1641 49.8485ZM35.2975 46.6772C35.0534 45.8935 34.8554 45.0921 34.7045 44.2762C34.6368 43.8705 34.5943 43.4477 34.5384 43.0234L34.4638 42.3913L34.4493 41.7391C34.3627 39.9718 34.5632 38.1627 35.0441 36.3728C35.5427 34.4766 36.3167 32.6178 37.3427 30.8522C38.3968 28.9633 39.6332 27.1511 41.0338 25.4423L41.5698 24.8032L42.1351 24.2071C42.5057 23.8117 42.8963 23.4329 43.3049 23.0722C43.7009 22.6967 44.1003 22.4345 44.5544 22.072C44.9699 21.7868 45.4051 21.5318 45.8555 21.3098C46.6014 20.8633 47.448 20.6429 48.2634 20.6831C49.0788 20.7232 49.8173 21.0216 50.3639 21.5317C51.4984 22.823 52.0589 24.5171 51.9493 26.3238C51.9011 28.3324 51.4801 30.3694 50.7052 32.3435C49.8938 34.4232 48.8322 36.4393 47.5434 38.3483C46.2919 40.2844 44.7815 42.0833 43.0564 43.6921C41.3051 45.266 39.3424 46.606 37.2388 47.6638C36.7848 47.9002 36.321 48.1222 35.8608 48.3314C35.6469 47.7838 35.4464 47.2376 35.2514 46.6456" fill="#5B1727"/>
</svg>
