<?xml version="1.0" encoding="utf-8"?>
<!-- Generator: Adobe Illustrator 23.0.0, SVG Export Plug-In . SVG Version: 6.00 Build 0)  -->
<svg version="1.1" id="Layer_1" xmlns="http://www.w3.org/2000/svg" xmlns:xlink="http://www.w3.org/1999/xlink" x="0px" y="0px"
	 viewBox="0 0 996 996" style="enable-background:new 0 0 996 996;" xml:space="preserve">
<style type="text/css">
	.st0{fill:url(#SVGID_1_);}
	.st1{fill:url(#SVGID_2_);}
	.st2{fill:url(#SVGID_3_);}
	.st3{fill:#F0F3F5;}
	.st4{fill:url(#SVGID_4_);}
	.st5{fill:url(#SVGID_5_);}
	.st6{fill:#946CCF;}
	.st7{opacity:0.1;fill:#FFFFFF;}
	.st8{fill:#FCA70C;}
	.st9{fill:#EBEBEA;}
	.st10{fill:#EFEFEF;}
	.st11{fill:#EFD387;}
	.st12{fill:#9ED7C4;}
	.st13{fill:#4738B3;}
</style>
<g>
	<g>
		<g>
			
				<linearGradient id="SVGID_1_" gradientUnits="userSpaceOnUse" x1="54.9536" y1="853.0774" x2="616.2831" y2="853.0774" gradientTransform="matrix(-1 0 0 1 1023.9155 0)">
				<stop  offset="0" style="stop-color:#9ED7C4"/>
				<stop  offset="0.9694" style="stop-color:#729DAE;stop-opacity:0"/>
			</linearGradient>
			<path class="st0" d="M407.6,926.6c17.3-0.3,26.8-15.3,32.8-25.6c9.7-16.8,15.6-34.8,22.2-52.4c6.2-16.7,12.2-33.8,22.2-49.5
				c6.3-9.9,15.8-21.8,31.4-23.5c15.1-1.6,26.3,7.2,33.5,16.2c11.3,14.1,17.4,30.6,23.4,46.3c6.9,17.9,12.8,36,21.2,53.5
				c5.6,11.5,13.6,28.8,30,33.9c16.4,5,28.7-7.1,35.5-16.7c10.9-15.4,16.9-32.9,23.2-49.7c6.6-17.6,12.5-35.4,21.7-52.4
				c5.9-10.9,13.9-24.5,28.9-29.6c35.6-12.1,52.8,33.4,59.9,50.7c7.4,18,13.3,36.3,21,54.3c5.8,13.4,12.3,30,26.8,39.7
				c34.7,23.1,56.1-36.4,62-51.7c6.9-17.8,12.8-35.8,20.9-53.3c5.8-12.6,12.7-27.5,26.7-36.3c5.1-3.2,11.1-5.1,17.8-5.2
				c3.5-0.1,3.5,4.1,0,4.1c-17.3,0.3-26.8,15.3-32.8,25.6c-9.7,16.8-15.6,34.8-22.2,52.4c-6.2,16.7-12.2,33.8-22.2,49.5
				c-6.3,9.9-15.8,21.8-31.4,23.5c-15.1,1.6-26.3-7.2-33.5-16.2c-11.3-14.1-17.4-30.6-23.4-46.3c-6.9-17.9-12.8-36-21.2-53.6
				c-5.6-11.5-13.6-28.8-30-33.9c-16.4-5-28.7,7.1-35.5,16.7c-10.9,15.4-16.9,32.9-23.2,49.7c-6.6,17.6-12.5,35.4-21.7,52.4
				c-5.9,10.9-13.9,24.5-28.9,29.6c-35.6,12.1-52.8-33.4-59.9-50.7c-7.4-18-13.3-36.3-21-54.3c-5.8-13.4-12.3-30-26.8-39.7
				c-34.7-23.1-56.1,36.4-62,51.7c-6.9,17.8-12.8,35.8-20.9,53.3c-5.8,12.6-12.7,27.5-26.7,36.3c-5.1,3.2-11.1,5.1-17.8,5.2
				C404.2,930.8,404.2,926.7,407.6,926.6L407.6,926.6z"/>
		</g>
		<g>
			
				<linearGradient id="SVGID_2_" gradientUnits="userSpaceOnUse" x1="392.9536" y1="173.0774" x2="954.2831" y2="173.0774" gradientTransform="matrix(-1 0 0 1 1023.9155 0)">
				<stop  offset="0" style="stop-color:#9ED7C4"/>
				<stop  offset="0.9694" style="stop-color:#729DAE;stop-opacity:0"/>
			</linearGradient>
			<path class="st1" d="M69.6,246.6c17.3-0.3,26.8-15.3,32.8-25.6c9.7-16.8,15.6-34.8,22.2-52.4c6.2-16.7,12.2-33.8,22.2-49.5
				c6.3-9.9,15.8-21.8,31.4-23.5c15.1-1.6,26.3,7.2,33.5,16.2c11.3,14.1,17.4,30.6,23.4,46.3c6.9,17.9,12.8,36,21.2,53.5
				c5.6,11.5,13.6,28.8,30,33.9c16.4,5,28.7-7.1,35.5-16.7c10.9-15.4,16.9-32.9,23.2-49.7c6.6-17.6,12.5-35.4,21.7-52.4
				c5.9-10.9,13.9-24.5,28.9-29.6c35.6-12.1,52.8,33.4,59.9,50.7c7.4,18,13.3,36.3,21,54.3c5.8,13.4,12.3,30,26.8,39.7
				c34.7,23.1,56.1-36.4,62-51.7c6.9-17.8,12.8-35.8,20.9-53.3c5.8-12.6,12.7-27.5,26.7-36.3c5.1-3.2,11.1-5.1,17.8-5.2
				c3.5-0.1,3.5,4.1,0,4.1c-17.3,0.3-26.8,15.3-32.8,25.6c-9.7,16.8-15.6,34.8-22.2,52.4c-6.2,16.7-12.2,33.8-22.2,49.5
				c-6.3,9.9-15.8,21.8-31.4,23.5c-15.1,1.6-26.3-7.2-33.5-16.2c-11.3-14.1-17.4-30.6-23.4-46.3c-6.9-17.9-12.8-36-21.2-53.6
				c-5.6-11.5-13.6-28.8-30-33.9c-16.4-5-28.7,7.1-35.5,16.7c-10.9,15.4-16.9,32.9-23.2,49.7c-6.6,17.6-12.5,35.4-21.7,52.4
				c-5.9,10.9-13.9,24.5-28.9,29.6c-35.6,12.1-52.8-33.4-59.9-50.7c-7.4-18-13.3-36.3-21-54.3c-5.8-13.4-12.3-30-26.8-39.7
				c-34.7-23.1-56.1,36.4-62,51.7c-6.9,17.8-12.8,35.8-20.9,53.3c-5.8,12.6-12.7,27.5-26.7,36.3c-5.1,3.2-11.1,5.1-17.8,5.2
				C66.2,250.8,66.2,246.7,69.6,246.6L69.6,246.6z"/>
		</g>
		<linearGradient id="SVGID_3_" gradientUnits="userSpaceOnUse" x1="201.1035" y1="652.93" x2="208.0793" y2="659.6733">
			<stop  offset="7.153450e-02" style="stop-color:#9ED7C4"/>
			<stop  offset="0.9732" style="stop-color:#729DAE"/>
		</linearGradient>
		<path class="st2" d="M205.4,656.1c0,0.5-0.4,0.9-0.9,0.9c-0.5,0-0.9-0.4-0.9-0.9c0-0.5,0.4-0.9,0.9-0.9
			C205,655.2,205.4,655.6,205.4,656.1z"/>
		<path class="st3" d="M832.4,189.8c0,1.5-1.2,2.6-2.6,2.6c-1.5,0-2.6-1.2-2.6-2.6c0-1.5,1.2-2.6,2.6-2.6
			C831.2,187.1,832.4,188.3,832.4,189.8z"/>
		
			<linearGradient id="SVGID_4_" gradientUnits="userSpaceOnUse" x1="204.37" y1="735.9384" x2="224.0936" y2="755.0045" gradientTransform="matrix(-4.0393 0 0 -4.0393 1214.12 3128.905)">
			<stop  offset="7.153450e-02" style="stop-color:#9ED7C4"/>
			<stop  offset="0.9732" style="stop-color:#729DAE"/>
		</linearGradient>
		<path class="st4" d="M339.9,119.4c0-5.9,4.8-10.7,10.7-10.7c5.9,0,10.7,4.8,10.7,10.7c0,5.9-4.8,10.7-10.7,10.7
			C344.7,130.1,339.9,125.4,339.9,119.4z"/>
		<linearGradient id="SVGID_5_" gradientUnits="userSpaceOnUse" x1="971.0507" y1="677.0697" x2="990.7787" y2="696.1402">
			<stop  offset="7.153450e-02" style="stop-color:#9ED7C4"/>
			<stop  offset="0.9732" style="stop-color:#729DAE"/>
		</linearGradient>
		<path class="st5" d="M983.1,686.2c0,1.5-1.2,2.6-2.6,2.6c-1.5,0-2.6-1.2-2.6-2.6c0-1.5,1.2-2.6,2.6-2.6
			C981.9,683.5,983.1,684.7,983.1,686.2z"/>
		<g>
			
				<image style="overflow:visible;" width="90" height="91" xlink:href="FD4F25D1.png"  transform="matrix(1 0 0 1 860.0213 85.0213)">
			</image>
		</g>
		<g>
			
				<image style="overflow:visible;" width="91" height="90" xlink:href="FD4F25D3.png"  transform="matrix(1 0 0 1 47.0213 731.0213)">
			</image>
		</g>
		<g>
			
				<image style="overflow:visible;" width="75" height="75" xlink:href="FD4F25D6.png"  transform="matrix(1 0 0 1 -157.9787 265.0213)">
			</image>
		</g>
		<path class="st6" d="M940,241.5c0,2.8-2.2,5-5,5c-2.8,0-5-2.2-5-5c0-2.8,2.2-5,5-5C937.7,236.5,940,238.7,940,241.5z"/>
		<path class="st7" d="M210.1,154c0,2.8-2.2,5-5,5c-2.8,0-5-2.2-5-5c0-2.8,2.2-5,5-5C207.9,148.9,210.1,151.2,210.1,154z"/>
		<g>
			<polygon class="st8" points="656.9,778.8 648,881.9 534.4,881.9 514.1,915.2 514.1,881.9 483.8,881.9 483.8,775 			"/>
			<polygon class="st6" points="551.1,735.5 560,838.6 673.7,838.6 693.9,871.9 693.9,838.6 724.2,838.6 724.2,731.7 			"/>
			<g>
				<path class="st9" d="M616.4,788.6c0,2.9-2.4,5.3-5.3,5.3c-2.9,0-5.3-2.4-5.3-5.3c0-2.9,2.4-5.3,5.3-5.3
					C614.1,783.4,616.4,785.7,616.4,788.6z"/>
				<path class="st9" d="M648.5,788.6c0,2.9-2.4,5.3-5.3,5.3s-5.3-2.4-5.3-5.3c0-2.9,2.4-5.3,5.3-5.3S648.5,785.7,648.5,788.6z"/>
				<path class="st9" d="M680.6,788.6c0,2.9-2.4,5.3-5.3,5.3c-2.9,0-5.3-2.4-5.3-5.3c0-2.9,2.4-5.3,5.3-5.3
					C678.2,783.4,680.6,785.7,680.6,788.6z"/>
			</g>
		</g>
		<path class="st10" d="M364.6,763.9l-25.1,7.9c-1.2,0.4-2.2,1-3.1,1.8l-5.1,1.6c0.3-11.4-7.8-29.9-7.8-29.9
			c-1.2-3.7-5.4-5.7-9.4-4.4c-4,1.3-6.4,5.3-5.2,9l2.2,7.1c5.5,24.2-10.5,35.9-10.5,35.9l-2.1-6.6l-33,10.3l17.7,56.4l33-10.3
			l-2.2-7.1c0,0,9.2,2.9,30.6-3.5c1.2,0.2,2.4,0.1,3.6-0.3l25.1-7.9c4.2-1.3,6.6-5.8,5.3-10.1c-0.8-2.6-2.9-4.6-5.4-5.3
			c3.5-1.7,5.3-5.8,4.1-9.6c-0.8-2.6-2.9-4.6-5.4-5.3c3.5-1.7,5.3-5.8,4.1-9.6c-0.8-2.6-2.9-4.6-5.4-5.3c3.5-1.7,5.3-5.8,4.1-9.6
			C373.3,764.9,368.8,762.6,364.6,763.9z"/>
		<polygon class="st11" points="414.3,478.7 413,518 444.9,529.9 412.5,539.9 412.5,576 391.4,546.2 357.8,556.8 379,528.2 
			359.7,504.3 392.3,510.7 		"/>
		<g>
			<g>
				<g>
					<polygon class="st3" points="451.4,280.3 458.6,382.4 579.5,376.1 579.5,262.9 					"/>
					<path class="st3" d="M532.3,375.4c0,0,4.4,33.5,18.4,30.4c13.9-3.2,28.9-11.4,28.9-11.4s-26.1,4.5-28.6,0.6
						c-2.5-3.9-2.8-19.6-2.8-19.6H532.3z"/>
				</g>
				<g>
					<g>
						<path class="st12" d="M531.8,326.8c-1.5,27.9-43.6,28.1-43.6,0C488.2,298.7,530.3,298.9,531.8,326.8c0.2,4.3,7,4.3,6.7,0
							c-0.8-15.5-12.4-28.5-28.5-28.5c-15.5,0-28.6,13-28.5,28.5c0.1,15,12.1,27.7,27.1,28.4c16.7,0.8,29-12.4,29.9-28.4
							C538.7,322.5,532,322.5,531.8,326.8z"/>
					</g>
					<g>
						<path class="st12" d="M529.4,343.5c7.7,4.4,15.3,8.7,23,13.1c3.8,2.1,7.2-3.7,3.4-5.8c-7.7-4.4-15.3-8.7-23-13.1
							C529,335.5,525.6,341.3,529.4,343.5L529.4,343.5z"/>
					</g>
				</g>
			</g>
			<g>
				<g>
					<polygon class="st3" points="733.8,215.4 732.4,295.2 638.1,295.2 633.5,207.2 					"/>
					<path class="st3" d="M701.7,290.8c0,0,4,33.6-10.3,34c-14.3,0.4-30.8-3.9-30.8-3.9s26.4-2.1,27.9-6.5
						c1.5-4.4-2.1-19.7-2.1-19.7L701.7,290.8z"/>
				</g>
			</g>
			<g>
				<g>
					<path class="st6" d="M699.8,238.6c0.5,6.4-4.3,11.9-10.7,12.4c-6.4,0.5-11.9-4.3-12.4-10.7c-0.5-6.4,4.3-11.9,10.7-12.4
						C693.8,227.4,699.4,232.2,699.8,238.6z"/>
					<path class="st6" d="M689.2,255h-1.8c-11.3,0-20.4,16-20.4,31.5l42.6-3.4C707.2,266.3,700.4,255,689.2,255z"/>
				</g>
				<path class="st13" d="M715.2,277.5c0,3.1-2.5,5.6-5.6,5.6c-3.1,0-5.6-2.5-5.6-5.6c0-3.1,2.5-5.6,5.6-5.6
					C712.7,271.9,715.2,274.4,715.2,277.5z"/>
				<polygon class="st6" points="712,277 710.1,277 710.1,275.1 709.1,275.1 709.1,277 707.2,277 707.2,278 709.1,278 709.1,279.9 
					710.1,279.9 710.1,278 712,278 				"/>
			</g>
		</g>
	</g>
</g>
</svg>
