<?xml version="1.0" encoding="utf-8"?>
<!-- Generator: Adobe Illustrator 23.0.0, SVG Export Plug-In . SVG Version: 6.00 Build 0)  -->
<svg version="1.1" id="Layer_1" xmlns="http://www.w3.org/2000/svg" xmlns:xlink="http://www.w3.org/1999/xlink" x="0px" y="0px"
	 viewBox="0 0 996 996" style="enable-background:new 0 0 996 996;" xml:space="preserve">
<style type="text/css">
	.st0{fill:#FCA70C;}
	.st1{fill:#0F1735;}
	.st2{fill:#BDBCC4;}
	.st3{fill:#DEDEDE;}
	.st4{fill:#9F9EA8;}
	.st5{fill:#EFEFEF;}
	.st6{clip-path:url(#SVGID_10_);fill:#0F1735;}
	.st7{opacity:0.36;fill:#DEDEDE;}
	.st8{fill:#FFFFFF;}
	.st9{fill:#090E19;}
	.st10{fill:url(#SVGID_11_);}
	.st11{opacity:0.34;fill:#FFFFFF;}
</style>
<g>
	<g>
		<g>
			<g>
				<g>
					<g>
						<g>
							<defs>
								<path id="SVGID_1_" d="M686.6,391.7c0,0,72.6,96.8,166.2,147.8l106.4,58.9L927.5,689c0,0-77.2-15-128.7-22.2
									c-71.7-10-206.1,0.3-206.1,0.3L686.6,391.7z"/>
							</defs>
							<clipPath id="SVGID_2_">
								<use xlink:href="#SVGID_1_"  style="overflow:visible;"/>
							</clipPath>
						</g>
					</g>
					<g>
						<g>
							<defs>
								<path id="SVGID_3_" d="M686.6,391.7c0,0,72.6,96.8,166.2,147.8l106.4,58.9L927.5,689c0,0-77.2-15-128.7-22.2
									c-71.7-10-206.1,0.3-206.1,0.3L686.6,391.7z"/>
							</defs>
							<clipPath id="SVGID_4_">
								<use xlink:href="#SVGID_3_"  style="overflow:visible;"/>
							</clipPath>
						</g>
					</g>
					<g>
						<g>
							<defs>
								<path id="SVGID_5_" d="M686.6,391.7c0,0,72.6,96.8,166.2,147.8l106.4,58.9L927.5,689c0,0-77.2-15-128.7-22.2
									c-71.7-10-206.1,0.3-206.1,0.3L686.6,391.7z"/>
							</defs>
							<clipPath id="SVGID_6_">
								<use xlink:href="#SVGID_5_"  style="overflow:visible;"/>
							</clipPath>
						</g>
					</g>
				</g>
			</g>
		</g>
	</g>
	<g>
		<path class="st0" d="M414.5,608.2c-9.5-4.7-10.3-17.9-1.4-23.7l208.5-137.8L830,308.9c8.8-5.8,20.6,0.1,21.3,10.6l15.1,249.4
			l15.1,249.4c0.6,10.5-10.4,17.8-19.8,13.1L638,719.8L414.5,608.2z"/>
		<g>
			<g>
				
					<image style="overflow:visible;opacity:0.35;" width="531" height="527" xlink:href="6A4D0FE8.png"  transform="matrix(1 0 0 1 490.0213 344.0213)">
				</image>
				<g>
					<g>
						<g>
							<defs>
								<path id="SVGID_7_" d="M686.6,391.7c0,0,72.6,96.8,166.2,147.8l106.4,58.9L927.5,689c0,0-77.2-15-128.7-22.2
									c-71.7-10-206.1,0.3-206.1,0.3L686.6,391.7z"/>
							</defs>
							<clipPath id="SVGID_8_">
								<use xlink:href="#SVGID_7_"  style="overflow:visible;"/>
							</clipPath>
						</g>
					</g>
					<g>
						<g>
							<path class="st1" d="M842.2,659.2c0,0-5.6,20.7-8.4,25.5c-2.8,4.8-33.7,98.2-40,101.8c-6.4,3.6-30.6,5-28.7,21.5
								c1.9,16.5,61.7,28.1,69.2,12.4l65.1-142.2L842.2,659.2z"/>
							<g>
								<polygon class="st2" points="810.7,712.6 821.3,721.2 834.4,725.4 849.3,684.9 846,678.1 								"/>
								<polygon class="st3" points="823,674 810.7,712.6 830.2,718.3 846,678.1 								"/>
								<polygon class="st4" points="830.2,718.3 834.4,725.4 849.3,684.9 846,678.1 								"/>
							</g>
						</g>
						<path class="st5" d="M686.6,391.7c0,0,69.2,98.5,166.2,147.8l106.4,58.9L927.5,689c0,0-77.9-16.8-129.4-24
							c-71.7-10-205.5,2.1-205.5,2.1L686.6,391.7z"/>
						<g>
							<defs>
								<path id="SVGID_9_" d="M686.6,391.7c0,0,72.6,96.8,166.2,147.8l106.4,58.9L927.5,689c0,0-77.2-15-128.7-22.2
									c-71.7-10-206.1,0.3-206.1,0.3L686.6,391.7z"/>
							</defs>
							<clipPath id="SVGID_10_">
								<use xlink:href="#SVGID_9_"  style="overflow:visible;"/>
							</clipPath>
							<path class="st6" d="M812.2,502.1c0,0-12.9,105.3-58.3,161l175.6,43.2l58.4-108.7L812.2,502.1z"/>
						</g>
						<path class="st7" d="M710.8,437c0,0,32.6,126.8-29.1,225.8l-64.2,1.4C617.5,664.3,716.4,498.2,710.8,437z"/>
						<path class="st8" d="M539.2,503.3c-34,92.2-28.1,179.3,13.2,194.6c41.3,15.3,102.4-47.1,136.5-139.3
							c34-92.2,28.1-179.3-13.2-194.6C634.3,348.7,573.2,411.1,539.2,503.3z"/>
						<path class="st3" d="M546.9,504.2c-32.8,88.9-30.4,171.6,5.4,184.8c35.8,13.2,91.4-48.1,124.1-137
							c32.8-88.9,30.4-171.6-5.4-184.8C635.2,354,579.6,415.3,546.9,504.2z"/>
						<path class="st9" d="M957.6,603.2c0,0,9.1,1.6,7.3,4.1c-1.9,2.5-27.9,77.2-27.9,77.2l-7.4-1.3L957.6,603.2z"/>
						<g>
							<path class="st9" d="M935.1,616.6c-0.5,0.6-12-7.2-25.8-17.5c-13.8-10.3-24.5-19.1-24-19.8c0.5-0.6,12,7.2,25.8,17.5
								C924.8,607.1,935.6,615.9,935.1,616.6z"/>
						</g>
						<g>
							<path class="st9" d="M925.7,636.1c-0.3,0.8-13.6-3.2-29.8-8.8c-16.2-5.6-29.2-10.8-28.9-11.6c0.3-0.8,13.6,3.2,29.9,8.8
								C913,630.2,926,635.4,925.7,636.1z"/>
						</g>
						<g>
							<path class="st9" d="M918.4,656.8c-0.1,0.8-14,0-31.1-1.8c-17.1-1.8-30.9-3.9-30.8-4.7c0.1-0.8,14,0,31.1,1.8
								C904.7,653.9,918.5,656,918.4,656.8z"/>
						</g>
						<g>
							<path class="st9" d="M821.5,521.4c0.2,0,0,2.2-0.5,6c-0.5,3.8-1.5,9.3-2.9,16.1c-2.8,13.5-7.7,32-15.2,51.8
								c-7.5,19.7-16,36.9-22.9,48.9c-3.4,6-6.3,10.8-8.5,14c-2.1,3.2-3.4,4.9-3.6,4.8c-0.4-0.2,3.9-7.6,10.3-19.8
								c6.3-12.2,14.5-29.3,21.9-48.9c7.4-19.6,12.6-37.9,15.9-51.2C819.5,529.7,821.1,521.3,821.5,521.4z"/>
						</g>
						<g>
							<path class="st9" d="M809.4,523c0.2,0,0,2.2-0.5,6c-0.5,3.8-1.5,9.3-2.9,16.1c-2.8,13.5-7.7,32-15.2,51.8
								c-7.5,19.7-16,36.9-22.9,48.9c-3.4,6-6.3,10.8-8.5,14c-2.1,3.2-3.4,4.9-3.6,4.8c-0.4-0.2,3.9-7.6,10.3-19.8
								c6.3-12.2,14.5-29.3,21.9-48.9c7.4-19.6,12.6-37.9,15.9-51.2C807.3,531.3,808.9,522.9,809.4,523z"/>
						</g>
						
							<linearGradient id="SVGID_11_" gradientUnits="userSpaceOnUse" x1="603.0092" y1="558.4244" x2="684.1497" y2="558.4244" gradientTransform="matrix(0.9844 0.1758 -0.1758 0.9844 106.1137 -115.5008)">
							<stop  offset="7.153450e-02" style="stop-color:#62DEC6"/>
							<stop  offset="0.9732" style="stop-color:#42A1B4"/>
						</linearGradient>
						<path class="st10" d="M689.1,511.5l-68.5-11l-21.4,53.1l58.8,41.1C657.9,594.7,682.8,540.7,689.1,511.5z"/>
						<path class="st1" d="M622.5,532.1c-5.9,14.7-16.4,24.3-23.4,21.5c-7-2.8-7.9-17-1.9-31.7c5.9-14.7,16.4-24.3,23.4-21.5
							C627.6,503.3,628.5,517.5,622.5,532.1z"/>
						<path class="st9" d="M838.2,672.9l58.9,10.4l-6.2,13.6l-53.5-21.5C838.2,672.9,838.2,672.9,838.2,672.9z"/>
					</g>
					<g>
						<g>
							<defs>
								<path id="SVGID_12_" d="M686.6,391.7c0,0,72.6,96.8,166.2,147.8l106.4,58.9L927.5,689c0,0-77.2-15-128.7-22.2
									c-71.7-10-206.1,0.3-206.1,0.3L686.6,391.7z"/>
							</defs>
							<clipPath id="SVGID_13_">
								<use xlink:href="#SVGID_12_"  style="overflow:visible;"/>
							</clipPath>
						</g>
					</g>
				</g>
			</g>
			<g>
				<path class="st11" d="M699.3,428.6L337.2,25L28,664.6L581.3,686C581.3,686,699.9,610.8,699.3,428.6z"/>
			</g>
		</g>
	</g>
	<g>
		<g>
			<g>
				<g>
					<g>
						<g>
							<defs>
								<path id="SVGID_14_" d="M686.6,391.7c0,0,72.6,96.8,166.2,147.8l106.4,58.9L927.5,689c0,0-77.2-15-128.7-22.2
									c-71.7-10-206.1,0.3-206.1,0.3L686.6,391.7z"/>
							</defs>
							<clipPath id="SVGID_15_">
								<use xlink:href="#SVGID_14_"  style="overflow:visible;"/>
							</clipPath>
						</g>
					</g>
					<g>
						<g>
							<defs>
								<path id="SVGID_16_" d="M686.6,391.7c0,0,72.6,96.8,166.2,147.8l106.4,58.9L927.5,689c0,0-77.2-15-128.7-22.2
									c-71.7-10-206.1,0.3-206.1,0.3L686.6,391.7z"/>
							</defs>
							<clipPath id="SVGID_17_">
								<use xlink:href="#SVGID_16_"  style="overflow:visible;"/>
							</clipPath>
						</g>
					</g>
					<g>
						<g>
							<defs>
								<path id="SVGID_18_" d="M686.6,391.7c0,0,72.6,96.8,166.2,147.8l106.4,58.9L927.5,689c0,0-77.2-15-128.7-22.2
									c-71.7-10-206.1,0.3-206.1,0.3L686.6,391.7z"/>
							</defs>
							<clipPath id="SVGID_19_">
								<use xlink:href="#SVGID_18_"  style="overflow:visible;"/>
							</clipPath>
						</g>
					</g>
				</g>
			</g>
		</g>
	</g>
</g>
</svg>
