<svg width="41" height="44" viewBox="0 0 41 44" fill="none" xmlns="http://www.w3.org/2000/svg">
<path d="M36.4867 22.5753C35.8856 20.3247 35.1421 18.1419 34.1125 16.1148L33.9245 15.7338C33.8585 15.6068 33.784 15.4882 33.7146 15.3646L33.298 14.6263L32.8374 13.915C32.7612 13.7965 32.6883 13.6763 32.6071 13.5611L32.3564 13.2224C31.7061 12.3029 30.961 11.4579 30.1533 10.6806C29.9534 10.4858 29.7536 10.286 29.5351 10.1099L29.2168 9.83553C29.1101 9.74408 29.0051 9.65264 28.8916 9.56797L28.2244 9.05485L27.5318 8.57392C26.5936 7.95412 25.5996 7.41391 24.5649 6.9516C23.5285 6.49098 22.4549 6.0998 21.3507 5.80175C20.8004 5.63918 20.2398 5.51725 19.6742 5.40041C19.5066 5.36484 19.3389 5.33436 19.1713 5.30388C19.0985 5.29033 19.0256 5.28017 18.9528 5.26831C18.9088 5.26154 18.8648 5.25477 18.8207 5.2463C18.792 5.24122 18.7632 5.23614 18.7344 5.23275V5.07865C18.8072 5.07526 18.8817 5.07526 18.9528 5.07526C19.0256 5.07188 19.0985 5.07188 19.1713 5.07526C19.3525 5.07696 19.532 5.08034 19.7115 5.08881C19.9249 5.09728 20.1382 5.11083 20.3516 5.12945C20.7225 5.15994 21.0933 5.20566 21.4642 5.25815C22.0467 5.34283 22.6242 5.46814 23.2 5.60362C23.7724 5.75095 24.3397 5.92029 24.8968 6.1235C26.0128 6.52485 27.0932 7.04304 28.1127 7.66623C29.1321 8.28772 30.077 9.03284 30.9407 9.86093L31.2642 10.1742C31.3742 10.2758 31.4691 10.3927 31.5707 10.5011C31.7705 10.7229 31.9788 10.938 32.1701 11.1683L32.7256 11.8727C32.8204 11.9879 32.9051 12.1115 32.9881 12.2334L33.2421 12.6026L33.4944 12.9718C33.574 13.0971 33.6468 13.2275 33.723 13.3562C33.8738 13.6119 34.0245 13.8693 34.1701 14.1284L34.5664 14.926C34.629 15.0598 34.6985 15.1919 34.7577 15.3274L34.9271 15.7389C35.8297 17.9285 36.3546 20.2485 36.4867 22.5753Z" fill="#F7528E"/>
<path d="M16.9395 5.08539V5.37497C16.8972 5.38343 16.8548 5.3919 16.8125 5.40037C16.782 5.40545 16.7515 5.41392 16.7211 5.419C16.6482 5.43424 16.5754 5.44948 16.5026 5.46641C16.0437 5.56294 15.5848 5.66963 15.136 5.80172C14.0302 6.09976 12.9565 6.49094 11.9218 6.95156C10.8871 7.41218 9.8914 7.95239 8.95493 8.57388L8.2623 9.05482L7.59509 9.56793C7.48332 9.6526 7.37663 9.74405 7.26995 9.83549L6.95158 10.1098C6.73313 10.286 6.53499 10.4858 6.33347 10.6805C5.5257 11.4578 4.78059 12.3028 4.13031 13.2224L3.87967 13.5611C3.79839 13.6762 3.72557 13.7965 3.64937 13.915L3.18875 14.6262L2.77216 15.3646C2.70273 15.4882 2.62653 15.6084 2.56218 15.7338L2.3742 16.1148C1.34459 18.1418 0.601172 20.3247 0 22.5753C0.132089 20.2485 0.655357 17.9285 1.56135 15.7388L1.73069 15.3273C1.78827 15.1919 1.8594 15.0598 1.92205 14.926L2.31832 14.1284C2.46396 13.8693 2.61467 13.6119 2.76538 13.3562C2.84159 13.2275 2.91441 13.0971 2.99401 12.9718L3.24633 12.6026L3.50034 12.2334C3.58502 12.1115 3.66799 11.9879 3.76282 11.8727L4.31828 11.1682C4.50964 10.9379 4.71793 10.7229 4.91775 10.501C5.01936 10.3909 5.11589 10.2741 5.22427 10.1742L5.54772 9.8609C6.41138 9.0328 7.35631 8.28769 8.37576 7.66619C9.39521 7.04301 10.4756 6.52482 11.5916 6.12347C12.1488 5.92195 12.7161 5.75091 13.2884 5.60358C13.8642 5.46811 14.44 5.34279 15.0242 5.25812C15.3934 5.20393 15.7659 5.1599 16.1368 5.12942C16.2587 5.11926 16.3807 5.11079 16.506 5.10402C16.5788 5.09894 16.6516 5.09555 16.7244 5.09216C16.7431 5.09047 16.76 5.09047 16.7786 5.08877C16.8311 5.08708 16.8853 5.08539 16.9395 5.08539Z" fill="#F7528E"/>
<path d="M28.0923 28.5317L24.275 38.3675H13.7129L10.022 28.2494L16.6954 10.4793H18.7038V25.3218C17.8122 25.5703 17.1604 26.3639 17.1604 27.3085C17.1604 28.4518 18.1143 29.3768 19.2933 29.3768C20.4687 29.3768 21.4244 28.4518 21.4244 27.3085C21.4244 26.3639 20.7744 25.5721 19.8828 25.3218V10.4793H21.9663L28.0923 28.5317Z" fill="#F7528E"/>
<path d="M24.0275 40.2104H14.1025V43.7967H24.0275V40.2104Z" fill="#0158DB"/>
<path d="M1.95337 5.19217C1.95337 5.71414 1.5158 6.13846 0.977534 6.13846C0.43927 6.13846 0.00170898 5.71414 0.00170898 5.19217C0.00170898 4.6702 0.43927 4.24588 0.977534 4.24588C1.5158 4.24588 1.95337 4.6702 1.95337 5.19217Z" fill="#0158DB"/>
<path d="M40.0017 5.19217C40.0017 5.71414 39.5642 6.13846 39.0259 6.13846C38.4876 6.13846 38.05 5.71414 38.05 5.19217C38.05 4.6702 38.4876 4.24588 39.0259 4.24588C39.5642 4.24588 40.0017 4.6702 40.0017 5.19217Z" fill="#0158DB"/>
<path d="M38.3739 4.8371H20.2542V5.54726H38.3739V4.8371Z" fill="#0158DB"/>
<path d="M18.3154 4.8371H0.19751V5.54726H18.3154V4.8371Z" fill="#0158DB"/>
<path d="M18.0793 4.02576V6.36042H20.4905V4.02576H18.0793ZM20.2544 6.1314H18.3155V4.25301H20.2544V6.1314Z" fill="#FFE6FE"/>
<path d="M17.843 3.79669V6.58941H20.7248V3.79669H17.843ZM20.2542 6.13136H18.3154V4.25297H20.2542V6.13136Z" fill="#0158DB"/>
<path d="M25.1867 0.414896C25.1867 0.64351 25.0004 0.829786 24.7718 0.829786C24.5432 0.829786 24.3569 0.64351 24.3569 0.414896C24.3569 0.186281 24.5432 0 24.7718 0C25.0004 0 25.1867 0.186281 25.1867 0.414896Z" fill="#F7528E"/>
</svg>
