<svg width="120" height="120" viewBox="0 0 120 120" fill="none" xmlns="http://www.w3.org/2000/svg">
<path d="M110.006 7.49136H9.99488C4.48353 7.49136 0 11.9752 0 17.4865V82.6686C0 88.1799 4.48353 92.6638 9.99488 92.6638H42.2187L36.1026 106.15C35.4711 107.543 35.5899 109.162 36.4185 110.447C37.2471 111.732 38.6715 112.509 40.2006 112.509H79.7997C79.8015 112.509 79.8039 112.509 79.8057 112.509C82.2912 112.509 84.3057 110.494 84.3057 108.009C84.3057 107.261 84.1242 106.554 83.7999 105.934L77.7813 92.6638H110.005C115.516 92.6638 120 88.1799 120 82.6686V17.4865C120.001 11.9752 115.517 7.49136 110.006 7.49136ZM111.001 82.6689C111.001 83.2176 110.554 83.6637 110.006 83.6637H9.99488C9.44647 83.6637 9.00007 83.2176 9.00007 82.6689V17.4865C9.00007 16.9378 9.44647 16.4914 9.99488 16.4914H110.006C110.554 16.4914 111.001 16.9378 111.001 17.4865L111.001 82.6689Z" fill="#1E90FF"/>
<path d="M73.86 28.9304C73.5429 28.6136 72.9837 28.6604 72.6102 29.0336L67.7282 33.915C67.3541 34.2891 67.3082 34.8498 67.6238 35.1663L74.5548 42.0972C74.7123 42.255 74.9331 42.3225 75.1587 42.3036C75.3855 42.2847 75.6177 42.1797 75.8058 41.9922L80.6871 37.1106C81.0603 36.7371 81.1071 36.1773 80.79 35.8608L73.86 28.9304Z" fill="#1E90FF"/>
<path d="M43.9011 59.2751C43.6959 59.0699 43.3767 59.0105 43.0638 59.1182C42.7512 59.2259 42.4932 59.486 42.3867 59.7995L39.0513 69.6797C38.9454 69.9908 39.0069 70.3064 39.2109 70.5101C39.3645 70.6652 39.5829 70.7379 39.8142 70.718C39.8886 70.7117 39.9651 70.6961 40.041 70.67L49.9213 67.334C50.2345 67.2278 50.4949 66.9695 50.6023 66.6572C50.7109 66.3449 50.6509 66.0251 50.446 65.8196L43.9011 59.2751Z" fill="#1E90FF"/>
<path d="M68.8517 54.6688C69.287 54.4702 69.6047 54.0793 69.7094 53.6131C69.8144 53.1466 69.6953 52.6576 69.3881 52.2916C68.8121 51.6067 68.2094 50.9104 67.589 50.2093L73.0125 44.7861C73.1913 44.607 73.3041 44.3736 73.3224 44.139C73.3419 43.9053 73.2669 43.6875 73.1157 43.536L66.1844 36.6057C65.8676 36.2883 65.3084 36.3348 64.9346 36.7089L59.6456 41.9988C56.0983 38.6361 52.5358 35.6361 49.396 33.3792C47.1853 31.7903 43.1409 29.1194 40.8894 29.0852C40.4784 29.078 40.0809 29.2388 39.789 29.5289C39.4962 29.8187 39.3333 30.2144 39.3366 30.626C39.3483 32.1602 40.695 34.9284 43.1283 38.4192C45.4443 41.7417 48.6262 45.5599 52.2562 49.3882L45.3561 56.2888C44.9817 56.6629 44.9352 57.2221 45.2523 57.5386L52.1833 64.469C52.3408 64.6283 52.5595 64.6955 52.7866 64.6763C53.0122 64.6574 53.2465 64.5521 53.4331 64.3658L60.467 57.3316C61.0811 57.8749 61.6901 58.4029 62.2907 58.9121C62.5694 59.1482 62.9198 59.2748 63.2795 59.2748C63.3608 59.2748 63.4424 59.2682 63.524 59.2553C63.9653 59.1836 64.3535 58.9226 64.5857 58.5403C64.9961 57.8659 65.5307 57.1966 66.176 56.5525C66.9848 55.7422 67.8857 55.1083 68.8517 54.6688Z" fill="#1E90FF"/>
<path d="M72.6881 55.9489C70.9067 55.9489 69.2063 56.7083 67.7693 58.145C66.0449 59.8694 65.2922 61.6781 65.5922 63.3764C65.8901 65.0576 67.226 66.5645 69.2582 67.5077C71.0063 68.3198 72.5996 68.5715 74.0045 68.7938C75.4842 69.0272 76.8801 69.2486 78.1224 70.0913C78.3795 70.2668 78.6801 70.3559 78.9816 70.3559C79.1934 70.3559 79.4061 70.3121 79.6053 70.2227C80.0892 70.007 80.4273 69.5552 80.4984 69.0296C81.0309 65.0573 80.2689 61.4897 78.3528 58.9868C76.8741 57.0563 74.8095 55.9489 72.6881 55.9489Z" fill="#1E90FF"/>
</svg>
