<svg width="120" height="120" viewBox="0 0 120 120" fill="none" xmlns="http://www.w3.org/2000/svg">
<path d="M60.0024 37.1248C38.2068 37.1248 20.54 55.6777 20.54 78.5624C20.54 101.447 38.2068 120 60.0024 120C81.7968 120 99.4624 101.446 99.4624 78.5624C99.4624 55.6777 81.798 37.1248 60.0024 37.1248ZM60.0024 111.446C42.7316 111.446 28.6851 96.6931 28.6851 78.5636C28.6851 60.4329 42.7328 45.6791 60.0024 45.6791C77.2684 45.6791 91.3173 60.4329 91.3173 78.5636C91.3173 96.6931 77.2684 111.446 60.0024 111.446Z" fill="#1E90FF"/>
<path d="M80.0944 65.8456L63.7389 69.3307C61.1781 68.1915 58.1898 68.1826 55.5406 69.646C50.8475 72.2385 49.0507 78.3249 51.5159 83.2542C53.9823 88.1785 59.7808 90.0666 64.4715 87.4767C67.1207 86.0107 68.8086 83.4208 69.3655 80.56L81.3682 68.3822C81.8223 67.9219 81.9336 67.1997 81.6382 66.6111C81.344 66.0262 80.7168 65.7134 80.0944 65.8456Z" fill="#1E90FF"/>
<path d="M74.2015 95.9952H45.7961V101.689H74.2015V95.9952Z" fill="#1E90FF"/>
<path d="M95.9753 19.2891C95.1265 19.2153 94.3456 18.7589 93.8407 18.0405C88.9514 11.0844 81.0958 6.79459 72.7352 6.79459C72.2037 6.79459 71.6685 6.81239 71.1369 6.84672C70.4323 6.89122 69.7397 6.67126 69.1767 6.22498C64.0925 2.18815 57.9271 0 51.4699 0C39.9068 0 29.6464 7.04252 24.8626 17.7048C24.4364 18.6533 23.5828 19.3119 22.5947 19.4556C9.84623 21.3132 0 32.8325 0 46.723C0 58.0261 6.52621 67.7513 15.8252 71.9852C16.324 68.2676 17.243 64.6948 18.524 61.3102C13.6421 58.4596 10.3269 52.9924 10.3269 46.7242C10.3269 37.5253 17.4549 30.0416 26.215 30.0416C26.6558 30.0416 27.0929 30.0785 27.5239 30.1154C30.0484 30.3214 32.3344 28.6011 32.9495 26.0302C35.0854 17.0907 42.7013 10.8467 51.4687 10.8467C56.4778 10.8467 61.2181 12.8784 64.8178 16.5669C66.0479 17.8269 67.7927 18.3634 69.4781 17.9947C70.5509 17.7608 71.6467 17.6413 72.7352 17.6413C78.8691 17.6413 84.3468 21.2623 87.0311 27.0906C87.9719 29.1402 90.0339 30.3595 92.194 30.1268C92.7291 30.0709 93.2679 30.0429 93.7862 30.0429C102.546 30.0429 109.673 37.5266 109.673 46.7255C109.673 52.9937 106.36 58.4596 101.477 61.3128C102.761 64.6961 103.676 68.2714 104.176 71.9865C113.479 67.7539 120 58.0286 120 46.7268C120.004 32.3163 109.412 20.4588 95.9753 19.2891Z" fill="#1E90FF"/>
</svg>
