<svg width="120" height="120" viewBox="0 0 120 120" fill="none" xmlns="http://www.w3.org/2000/svg">
<path d="M23.75 35.4546H3.75C1.75 35.4546 0 37.3637 0 39.5455V109.091C0 115.091 4.5 120 10 120H23.75C25.75 120 27.5 118.091 27.5 115.909V39.5455C27.5 37.3637 25.75 35.4546 23.75 35.4546Z" fill="#1E90FF"/>
<path d="M116.25 35.4546H41.25C39.25 35.4546 37.5 37.3637 37.5 39.5455V115.909C37.5 118.091 39.25 120 41.25 120H110C115.5 120 120 115.091 120 109.091V39.5455C120 37.3637 118.25 35.4546 116.25 35.4546Z" fill="#1E90FF"/>
<path d="M110 0H10C4.5 0 0 4.90909 0 10.9091V20.4545C0 22.6364 1.75 24.5455 3.75 24.5455H116.25C118.25 24.5455 120 22.6364 120 20.4545V10.9091C120 4.90909 115.5 0 110 0Z" fill="#1E90FF"/>
</svg>
