<svg width="120" height="120" viewBox="0 0 120 120" fill="none" xmlns="http://www.w3.org/2000/svg">
<path d="M50.5451 96.9702H4C1.79086 96.9702 0 98.7611 0 100.97V116C0 118.209 1.79086 120 4 120H50.5451C52.7543 120 54.5451 118.209 54.5451 116V100.97C54.5451 98.7611 52.7543 96.9702 50.5451 96.9702Z" fill="#1E90FF"/>
<path d="M116 96.9702H69.4548C67.2457 96.9702 65.4548 98.7611 65.4548 100.97V116C65.4548 118.209 67.2457 120 69.4548 120H116C118.209 120 120 118.209 120 116V100.97C120 98.7611 118.209 96.9702 116 96.9702Z" fill="#1E90FF"/>
<rect width="120" height="85.5" rx="4" fill="#1E90FF"/>
</svg>
