<svg width="120" height="120" viewBox="0 0 120 120" fill="none" xmlns="http://www.w3.org/2000/svg">
<path d="M110.006 0H9.99488C4.48353 0 0 5.12354 0 11.4212V85.9027C0 92.2004 4.48353 97.3239 9.99488 97.3239H42.2187L36.1026 112.735C35.4711 114.326 35.5899 116.175 36.4185 117.644C37.2471 119.113 38.6715 120 40.2006 120H79.7997H79.8057C82.2912 120 84.3057 117.698 84.3057 114.858C84.3057 114.003 84.1242 113.196 83.7999 112.487L77.7813 97.3239H110.005C115.516 97.3239 120 92.2004 120 85.9027V11.4212C120.001 5.12354 115.517 0 110.006 0ZM111.001 85.9031C111.001 86.5301 110.554 87.0398 110.006 87.0398H70.7999H49.201H9.99488C9.44647 87.0398 9.00007 86.5301 9.00007 85.9031V11.4212C9.00007 10.7942 9.44647 10.2841 9.99488 10.2841H110.006C110.554 10.2841 111.001 10.7942 111.001 11.4212L111.001 85.9031Z" fill="#1E90FF"/>
<path d="M96.1879 15.2059C91.3285 15.2059 87.3757 19.7234 87.3757 25.2761C87.3757 25.7886 87.4099 26.2922 87.4747 26.7844L66.8915 40.5075C65.2865 38.5964 63.0323 37.4028 60.5363 37.4028C57.4225 37.4028 54.6823 39.2594 53.1151 42.0525L32.5865 32.8719C32.6111 32.5672 32.6252 32.2593 32.6252 31.9477C32.6252 26.395 28.6724 21.8772 23.813 21.8772C18.9535 21.8772 15.0001 26.395 15.0001 31.9477C15.0001 37.5005 18.9535 42.0176 23.813 42.0176C26.2526 42.0176 28.4633 40.8781 30.0611 39.0417L51.7984 48.7633C52.3546 53.7082 56.0596 57.5428 60.5363 57.5428C65.3957 57.5428 69.3491 53.0253 69.3491 47.4729C69.3491 47.2316 69.338 46.9927 69.3239 46.7558L90.3055 32.7667C91.8664 34.3689 93.9283 35.3463 96.1873 35.3463C101.047 35.3463 105 30.8288 105 25.2761C105 19.7234 101.047 15.2059 96.1879 15.2059ZM23.813 35.2205C22.2335 35.2205 20.9489 33.7522 20.9489 31.9477C20.9489 30.1429 22.2335 28.6746 23.813 28.6746C25.3916 28.6746 26.6768 30.1429 26.6768 31.9477C26.6768 33.7522 25.3916 35.2205 23.813 35.2205ZM60.5363 50.7453C58.9564 50.7453 57.6721 49.2775 57.6721 47.4729C57.6721 45.6681 58.9564 44.2002 60.5363 44.2002C62.1161 44.2002 63.4004 45.6684 63.4004 47.4729C63.4004 49.2775 62.1161 50.7453 60.5363 50.7453ZM96.1879 28.5488C94.609 28.5488 93.3235 27.0806 93.3235 25.2761C93.3235 23.4716 94.609 22.003 96.1879 22.003C97.7671 22.003 99.0521 23.4716 99.0521 25.2761C99.0521 27.0806 97.7671 28.5488 96.1879 28.5488Z" fill="#1E90FF"/>
<path d="M90.1237 39.1483L72.585 50.8417C71.9789 57.321 67.4459 62.4771 61.7666 63.135V80.849H102.234V39.1562C100.452 40.3334 98.389 41.0108 96.1879 41.0108C94.0414 41.0105 91.9552 40.3605 90.1237 39.1483Z" fill="#1E90FF"/>
<path d="M48.9571 53.4359L30.6647 45.2552C28.6616 46.8332 26.2943 47.682 23.8127 47.682C21.6113 47.682 19.5475 47.0046 17.7667 45.8281V80.8489H58.2337V62.9518C53.8648 61.982 50.2708 58.3078 48.9571 53.4359Z" fill="#1E90FF"/>
</svg>
