<svg width="120" height="120" viewBox="0 0 120 120" fill="none" xmlns="http://www.w3.org/2000/svg">
<path d="M95.4222 0H24.5779C18.988 0 14.4556 4.53032 14.4556 10.1202V103.738C14.4556 108.315 17.514 112.137 21.685 113.388V83.9845C21.685 82.0429 22.3022 80.2566 23.3123 78.7545V10.8434C23.3123 9.62463 24.2988 8.6361 25.5175 8.6361H94.4823C95.7012 8.6361 96.6879 9.62463 96.6879 10.8434V93.0282C96.6879 94.2471 95.7012 95.2354 94.4823 95.2354H78.601L66.1519 113.859H95.4226C101.012 113.859 105.544 109.328 105.544 103.738V10.1202C105.544 4.53032 101.011 0 95.4222 0Z" fill="#1E90FF"/>
<path d="M69.0216 65.1595C69.1467 65.1751 69.269 65.2325 69.3947 65.2325C70.1653 65.2325 70.9398 64.9374 71.5299 64.3478C74.6515 61.2278 76.3689 57.0775 76.3689 52.6628C76.3689 48.2483 74.6515 44.0971 71.5299 40.9778C68.4126 37.8568 64.2615 36.139 59.8472 36.139C55.4327 36.139 51.2855 37.8589 48.1639 40.9778C45.0429 44.0971 43.3251 48.2479 43.3251 52.6628C43.3251 56.8945 44.9406 60.8567 47.8185 63.9286C48.2466 63.8683 48.6597 63.768 49.0992 63.768C49.4611 63.768 49.819 63.7898 50.1724 63.8287V56.712C49.642 55.446 49.3629 54.0763 49.3629 52.6628C49.3629 49.8621 50.4517 47.2283 52.4334 45.2469C56.3955 41.2886 63.2982 41.2886 67.2608 45.2469C69.242 47.2283 70.3309 49.8617 70.3309 52.6628C70.3309 54.4397 69.8468 56.1256 69.0216 57.6452V65.1595Z" fill="#1E90FF"/>
<path d="M76.3919 72.1799C77.6658 72.1799 78.8809 72.5239 80.0356 73.0151C80.0638 72.9897 80.1024 72.9803 80.1303 72.9522C85.5514 67.5338 88.535 60.3282 88.535 52.6624C88.535 44.997 85.5514 37.7918 80.1303 32.373C68.9426 21.1894 50.7464 21.1894 39.5591 32.373C34.1387 37.7918 31.1546 44.9972 31.1546 52.6624C31.1546 58.1085 32.6881 63.3091 35.5066 67.8164C36.3909 67.5396 37.3228 67.3643 38.3012 67.3643C39.3587 67.3643 40.3808 67.5396 41.3323 67.8641C41.6033 67.4708 41.9451 67.1385 42.2719 66.7929C39.0405 62.783 37.1925 57.887 37.1925 52.6628C37.1925 46.6112 39.5473 40.9212 43.8281 36.642C52.6609 27.8133 67.0284 27.8093 75.8615 36.642C80.1421 40.9212 82.4963 46.6108 82.4963 52.6628C82.4963 58.7145 80.1421 64.4049 75.8615 68.6835C74.8786 69.666 74.7644 71.1367 75.4212 72.29C75.7475 72.2568 76.0616 72.1799 76.3919 72.1799Z" fill="#1E90FF"/>
<path d="M79.3797 77.1098C78.4601 76.4983 77.4225 76.2054 76.3923 76.2054C74.6517 76.2054 72.9367 77.0486 71.8956 78.6115L65.873 87.6504C65.7825 87.7859 65.6339 87.8622 65.4761 87.8622C65.4288 87.8622 65.3851 87.8572 65.3385 87.8423C65.1342 87.7816 64.9966 87.5947 64.9966 87.3846V51.9374C64.9966 48.9559 62.5749 46.5381 59.5988 46.5381C56.6193 46.5381 54.1978 48.9557 54.1978 51.9374V71.4917C53.4863 69.3476 51.4813 67.7928 49.099 67.7928C46.1154 67.7928 43.7017 70.2081 43.7017 73.188V76.7888C43.7017 73.8069 41.2842 71.3897 38.3008 71.3897C35.3251 71.3897 32.9075 73.8073 32.9075 76.7888V78.9176C32.3415 78.7151 31.7439 78.5869 31.107 78.5869C28.1275 78.5869 25.7098 81.0024 25.7098 83.9841V117.864C25.7098 119.043 26.6649 120 27.848 120H56.0605C56.7728 120 57.4404 119.644 57.8337 119.051L80.8769 84.5935C82.5326 82.1137 81.8639 78.763 79.3797 77.1098Z" fill="#1E90FF"/>
</svg>
