<svg width="120" height="120" viewBox="0 0 120 120" fill="none" xmlns="http://www.w3.org/2000/svg">
<path d="M120 40.0001H0V55.0001H120V40.0001Z" fill="#1E90FF"/>
<path d="M115 0H4.99992C2.235 0 0 2.23992 0 4.99992V30H120V4.99992C120 2.23992 117.765 0 115 0ZM19.9999 25.0001C17.2399 25.0001 15 22.7599 15 19.9999C15 17.2399 17.2399 15 19.9999 15C22.7599 15 24.9998 17.2399 24.9998 19.9999C24.9998 22.7599 22.7599 25.0001 19.9999 25.0001ZM34.9999 25.0001C32.2399 25.0001 30 22.7602 30 20.0002C30 17.2402 32.2399 15 34.9999 15C37.7599 15 39.9998 17.2399 39.9998 19.9999C39.9998 22.7599 37.7599 25.0001 34.9999 25.0001ZM49.9999 25.0001C47.2399 25.0001 45 22.7602 45 20.0002C45 17.2402 47.2399 15 49.9999 15C52.7599 15 54.9998 17.2399 54.9998 19.9999C54.9998 22.7599 52.7599 25.0001 49.9999 25.0001Z" fill="#1E90FF"/>
<path d="M0 115C0 117.76 2.235 120 4.99992 120H115C117.765 120 120 117.76 120 115V64.9999H0V115Z" fill="#1E90FF"/>
</svg>
