<svg width="120" height="120" viewBox="0 0 120 120" fill="none" xmlns="http://www.w3.org/2000/svg">
<path d="M115.951 0H66.2767C64.0403 0 62.2272 1.76513 62.2272 3.94237V116.058C62.2272 118.235 64.0403 120 66.2767 120H115.951C118.187 120 120 118.235 120 116.058V3.94237C120 1.76513 118.187 0 115.951 0Z" fill="#1E90FF"/>
<path d="M50.0118 0H4.04949C1.81309 0 0 1.76513 0 3.94237V30.8159C0 32.9932 1.81309 34.7583 4.04949 34.7583H50.0118C52.2482 34.7583 54.0613 32.9932 54.0613 30.8159V3.94237C54.0613 1.76513 52.2482 0 50.0118 0Z" fill="#1E90FF"/>
<path d="M50.0118 85.2417H4.04949C1.81309 85.2417 0 87.0068 0 89.1841V116.058C0 118.235 1.81309 120 4.04949 120H50.0118C52.2482 120 54.0613 118.235 54.0613 116.058V89.1841C54.0613 87.0068 52.2482 85.2417 50.0118 85.2417Z" fill="#1E90FF"/>
<path d="M50.0118 42.6209H4.04949C1.81309 42.6209 0 44.3861 0 46.5633V73.4366C0 75.6139 1.81309 77.379 4.04949 77.379H50.0118C52.2482 77.379 54.0613 75.6139 54.0613 73.4366V46.5633C54.0613 44.3861 52.2482 42.6209 50.0118 42.6209Z" fill="#1E90FF"/>
</svg>
