<?xml version="1.0" encoding="utf-8"?>
<!-- Generator: Adobe Illustrator 23.0.0, SVG Export Plug-In . SVG Version: 6.00 Build 0)  -->
<svg version="1.1" id="Marketing" xmlns="http://www.w3.org/2000/svg" xmlns:xlink="http://www.w3.org/1999/xlink" x="0px" y="0px"
	 viewBox="0 0 512 512" style="enable-background:new 0 0 512 512;" xml:space="preserve">
<g>
	<path d="M500,390.5c-3.3,8.8-8.5,15.6-18.2,17.6c-2.6,0.5-5.4,0.6-8.1,0.6c-68.1,0-136.1,0-204.2,0c-1.9,0-3.8,0-5.9,0
		c0,15.3,0,30.3,0,45.8c1.9,0,3.6,0,5.3,0c36.3,0,72.5,0,108.8,0c1.6,0,3.2-0.2,4.8,0.1c4.1,0.7,6.5,3.2,6.8,7.4
		c0.2,3.9-2.8,7.2-6.9,7.7c-1.4,0.2-2.9,0.1-4.3,0.1c-81.6,0-163.1,0-244.7,0c-1.4,0-2.9,0.1-4.3-0.1c-4.1-0.5-7.1-3.9-6.8-7.8
		c0.3-4.2,2.7-6.7,6.9-7.3c1.4-0.2,2.9-0.1,4.3-0.1c36.3,0,72.5,0,108.8,0c1.7,0,3.5,0,5.6,0c0-15.2,0-30.2,0-45.8
		c-1.8,0-3.6,0-5.5,0c-68.2,0-136.4,0-204.7,0c-17.2,0-26.2-8.9-26.2-26.1c0-104.8,0-209.6,0-314.4c0-16.9,9-26,25.8-26
		c144.5,0,289.1,0.1,433.6-0.2c14.3,0,24.3,4.4,29.1,18.3C500,170.4,500,280.5,500,390.5z M255.7,393.4c72.5,0,145.1,0,217.6,0
		c9.4,0,11.5-2.1,11.5-11.5c0-104.3,0-208.7,0-313c0-9.4-2-11.5-11.5-11.5c-145.1,0-290.1,0-435.2,0c-9.4,0-11.5,2-11.5,11.4
		c0,104.3,0,208.7,0,313c0,9.4,2,11.5,11.4,11.5C110.6,393.4,183.2,393.4,255.7,393.4z"/>
	<path d="M350.7,214c-35.6,0-71.3,0-106.9,0c-8.8,0-11-2.2-11-11c0-39.8,0-79.5,0-119.3c0-8.8,2.2-11,11-11c71.6,0,143.1,0,214.7,0
		c8.8,0,11,2.2,11,11c0,39.8,0,79.5,0,119.3c0,8.8-2.2,11-11,11C422.5,214,386.6,214,350.7,214z M454,117.9
		c-10.7,7.1-20.9,13.6-30.8,20.4c-4,2.8-7.8,3.5-12.5,2.1c-9.7-3-19.6-5.4-29.3-8.3c-3.6-1.1-6-0.6-8.7,2.2
		c-11,11.4-22.4,22.5-33.5,33.9c-3.6,3.7-7.2,4.5-12,2.5c-12.2-5.3-24.6-10.4-36.9-15.3c-1.5-0.6-4.1-0.4-5.4,0.5
		c-11.6,8.3-23.1,16.8-34.6,25.4c-1,0.7-2.1,2.1-2.1,3.3c-0.2,4.6-0.1,9.1-0.1,13.9c68.9,0,137.3,0,205.9,0
		C454,171.7,454,145.2,454,117.9z M454.2,88.3c-68.9,0-137.3,0-205.8,0c0,25.1,0,49.9,0,75.3c10.7-7.9,21-15.4,31.1-23.1
		c3.8-2.9,7.4-3.4,11.9-1.5c11.6,5.1,23.5,9.7,35.1,14.8c2.8,1.2,4.5,0.8,6.6-1.3c10.9-11.1,22.1-21.9,32.9-33.2
		c4.1-4.2,8.1-5.2,13.6-3.5c10.5,3.2,21.1,6,31.7,8.7c1.8,0.4,4.2,0.3,5.7-0.6c11.6-7.5,23.1-15.1,34.6-22.9
		c1.1-0.8,2.2-2.3,2.4-3.6C454.4,94.5,454.2,91.5,454.2,88.3z"/>
	<path d="M409.9,256.9c8.9-15.7,20.5-22.2,34.4-19.5c13.5,2.7,23.3,13.1,25,26.6c1.7,14.2-5.7,25.2-22.7,33.3c0,20.7,0,41.5,0,62.3
		c0,0.9,0.1,1.8,0.2,3.2c4.7,0,9.1,0,13.5,0c5.7,0.1,9.1,2.9,9.2,7.5c0.1,4.6-3.4,7.7-8.9,7.7c-73,0-146,0-219,0
		c-5.3,0-8.6-3-8.7-7.4c-0.1-4.6,3.3-7.7,8.9-7.8c4.4-0.1,8.9,0,14,0c0-10.2,0.1-20.1-0.2-30c0-1-2.3-2.2-3.7-2.8
		c-11.9-5.1-19.4-16.7-18.9-29.4c0.5-12.7,8.9-23.9,21.1-27.8c11.3-3.6,21.4-1.2,30.1,6.7c2.3,2.1,3.9,2.2,6.6,0.9
		c8.8-4.4,17.7-8.7,26.6-12.8c2.7-1.2,3.6-2.6,3.5-5.7c-0.8-16.4,9.7-29.4,25.6-32.3c14.6-2.6,28.8,6.3,34.1,21.4
		c0.5,1.4,2.2,3,3.6,3.2C392.6,255.3,401.1,256.1,409.9,256.9z M358.9,362.5c24.4,0,48.3,0,72.3,0c0-21.9,0-43.6,0-65.4
		c-11.3-3.8-19-11.1-22-22.9c-0.2-0.8-1.3-1.9-2.1-2c-9-1-18-1.9-26.9-2.8c-3.9,10.5-11.2,16.9-21.3,20.1
		C358.9,313.9,358.9,338,358.9,362.5z M271.1,362.5c24.4,0,48.2,0,72.1,0c0-24.6,0-48.8,0-72.1c-4.8-3.1-9.3-5.6-13.2-8.7
		c-2.1-1.7-3.5-1.8-5.8-0.7c-8.8,4.4-17.7,8.7-26.6,12.8c-2.9,1.3-4.2,2.7-3.9,6.3c0.8,13.1-6.4,24.5-18.2,29.7
		c-1.4,0.6-2.9,1.2-4.3,1.9C271.1,341.9,271.1,352,271.1,362.5z M278.6,301.6c-0.1-8.3-7-15.1-15.3-15.1c-8.5,0-15.4,7.1-15.2,15.6
		c0.2,8.2,7.3,15,15.5,14.9C271.9,316.8,278.7,309.9,278.6,301.6z M366.4,259.9c0.1-8.3-6.7-15.2-15-15.4
		c-8.3-0.1-15.3,6.6-15.5,14.9c-0.2,8.5,6.7,15.6,15.3,15.6C359.5,275,366.3,268.2,366.4,259.9z M454.2,267.2
		c-0.1-8.3-7-15.1-15.3-15.1c-8.3,0-15.2,6.9-15.2,15.2c0,8.5,7,15.5,15.5,15.3C447.5,282.5,454.3,275.5,454.2,267.2z"/>
	<path d="M114.7,72.7c15.9,0,31.8,0,47.7,0c15,0,24.6,9.5,24.6,24.3c0,30.8,0,61.7,0,92.5c0,14.9-9.6,24.4-24.6,24.4
		c-32,0-63.9,0-95.9,0c-15.2,0-24.6-9.5-24.6-24.8c0-30.5,0-61.1,0-91.6c0-15.5,9.4-24.8,25-24.8C82.9,72.7,98.8,72.7,114.7,72.7z
		 M114.5,88c-15.9,0-31.8,0-47.7,0c-6.9,0-9.5,2.7-9.5,9.5c0,30.5,0,61.1,0,91.6c0,6.8,2.7,9.5,9.5,9.5c31.8,0,63.6,0,95.4,0
		c6.8,0,9.5-2.7,9.5-9.5c0-30.5,0-61.1,0-91.6c0-6.8-2.7-9.5-9.5-9.5C146.3,88,130.4,88,114.5,88z"/>
	<path d="M114.9,324.7c20.7,0,41.3,0,62,0c7.5,0,10,2.5,10,10c0,11.3,0,22.6,0,33.9c0,6.8-2.7,9.5-9.5,9.5c-42,0-84,0-126,0
		c-6.8,0-9.5-2.7-9.5-9.5c0-11.5,0-22.9,0-34.4c0-6.9,2.7-9.5,9.5-9.5C72.6,324.6,93.8,324.7,114.9,324.7z M171.5,340.3
		c-38.3,0-76.1,0-113.9,0c0,7.7,0,15.1,0,22.3c38.2,0,75.9,0,113.9,0C171.5,355.1,171.5,347.9,171.5,340.3z"/>
	<path d="M217.5,225.9c0,46.9,0,93.8,0,140.8c0,1.6,0.2,3.2-0.1,4.8c-0.8,4.1-3.3,6.6-7.5,6.6c-4.2,0-6.7-2.5-7.5-6.6
		c-0.3-1.4-0.1-2.9-0.1-4.3c0-94.5,0-188.9,0-283.4c0-1.4-0.1-2.9,0.1-4.3c0.8-4.1,3.3-6.6,7.5-6.6c4.2,0,6.8,2.5,7.5,6.6
		c0.3,1.5,0.1,3.2,0.1,4.8C217.5,131.4,217.5,178.7,217.5,225.9z"/>
	<path d="M114.9,248.3c20.4,0,40.7,0,61.1,0c1.4,0,2.9-0.1,4.3,0.1c4.1,0.8,6.6,3.3,6.6,7.5c0,4.2-2.5,6.8-6.6,7.5
		c-1.5,0.3-3.2,0.1-4.8,0.1c-40.7,0-81.4,0-122.1,0c-1.4,0-2.9,0.1-4.3-0.1c-4.2-0.4-7.1-3.6-7.1-7.6c0-4,2.9-7.1,7.1-7.6
		c1.3-0.1,2.5-0.1,3.8-0.1C73.6,248.3,94.2,248.3,114.9,248.3z"/>
	<path d="M91.1,286.5c12.9,0,25.7,0,38.6,0c6.2,0,9.5,2.6,9.6,7.5c0.1,5-3.4,7.8-9.8,7.8c-26,0-52.1,0-78.1,0
		c-6.1,0-9.8-3.3-9.4-8.2c0.3-4.3,3.5-7,8.6-7.1C64.1,286.5,77.6,286.5,91.1,286.5z"/>
	<path d="M78.9,141.4c0-9.9-0.1-19.7,0-29.6c0.1-8.2,5.6-11.4,12.8-7.4c17.3,9.7,34.6,19.5,51.8,29.5c7.4,4.2,7.4,10.8,0,15
		c-17.2,9.9-34.5,19.7-51.8,29.5c-7.2,4.1-12.7,0.9-12.7-7.4C78.8,161.2,78.9,151.3,78.9,141.4z M94.7,123.7c0,12.1,0,23.5,0,35.5
		c10.6-6,20.5-11.7,31.2-17.8C115.1,135.3,105.1,129.6,94.7,123.7z"/>
</g>
</svg>
