<svg width="40" height="40" viewBox="0 0 40 40" fill="none" xmlns="http://www.w3.org/2000/svg">
<path d="M33.2275 0.302774L33.2955 15.7441L21.5772 2.08548C21.0964 1.52392 20.2663 1.18831 19.3591 1.18831C18.867 1.18831 18.3839 1.28966 17.9666 1.48238L17.6582 1.62526L17.6854 0.895915C17.7058 0.387519 18.2842 -0.0145489 18.9804 0.000403924" fill="#0158DB"/>
<path d="M34.4454 18.9573L38.6025 23.8036L38.539 25.4817C38.5208 25.9917 37.9402 26.3921 37.2463 26.3789L33.8648 26.3107L33.3432 26.2991L17.9939 25.9867C17.2977 25.9718 16.7511 25.5481 16.7692 25.0381L17.6129 2.82315L18.6902 2.32639C18.8988 2.23002 19.1301 2.18515 19.3592 2.18515C19.7788 2.18515 20.187 2.33802 20.4251 2.61714L33.3046 17.6298L33.8739 18.2927L34.4454 18.9506V18.9573V18.9573Z" fill="#0158DB"/>
<path d="M39.4556 1.33951L38.6709 22.011L34.4366 17.0732L34.3618 0.314423L38.2331 0.392505C38.9271 0.407458 39.476 0.831113 39.4556 1.33951Z" fill="#0158DB"/>
<path d="M34.4772 26.3091L33.8649 26.3108H33.3432V26.2991L33.3047 17.6298L33.8739 18.2927L34.4455 18.9506V18.9573L34.4772 26.3091Z" fill="white"/>
<path d="M39.8069 25.2075L38.6026 23.8036L34.4455 18.9573V18.9506L33.874 18.2927L33.3047 17.6298L20.4252 2.61714C20.1871 2.33802 19.7789 2.18515 19.3593 2.18515C19.1303 2.18515 18.8989 2.23002 18.6903 2.32639L17.613 2.82315L0.587762 10.6601C0.000371038 10.9326 -0.176524 11.5008 0.193146 11.9327L19.5725 34.5231C19.8129 34.8023 20.2211 34.9551 20.6407 34.9551C20.8698 34.9551 21.1011 34.9103 21.3075 34.8139L39.4122 26.4802C39.9996 26.2077 40.1765 25.6395 39.8069 25.2075ZM7.01731 16.1744L3.85583 12.5226L4.62013 12.167L7.78387 15.8188L7.01731 16.1744ZM8.04467 10.8561L10.6256 9.66656C10.8251 9.57518 11.086 9.61839 11.2107 9.76459L14.1408 13.1788C14.2656 13.3234 14.2043 13.5161 14.007 13.6075L11.4239 14.797C11.2266 14.8884 10.9635 14.8436 10.8388 14.699L7.91087 11.2848C7.78613 11.1386 7.8451 10.9475 8.04467 10.8561ZM11.8344 21.8016L8.67289 18.1498L9.43945 17.7943L12.6009 21.4461L11.8344 21.8016ZM16.4541 27.0683L13.2926 23.4165L14.0569 23.061L17.2207 26.7111L16.4541 27.0683ZM20.9627 32.34L17.799 28.6882L18.5655 28.3327L21.727 31.9845L20.9627 32.34Z" fill="#F7528E"/>
<path d="M4.01015 40C5.06801 40 5.92557 39.2506 5.92557 38.3262C5.92557 37.4017 5.06801 36.6523 4.01015 36.6523C2.95229 36.6523 2.09473 37.4017 2.09473 38.3262C2.09473 39.2506 2.95229 40 4.01015 40Z" fill="#0158DB"/>
<path d="M10.6612 2.1006C11.1894 2.1006 11.6175 1.72642 11.6175 1.26485C11.6175 0.803288 11.1894 0.429108 10.6612 0.429108C10.133 0.429108 9.70483 0.803288 9.70483 1.26485C9.70483 1.72642 10.133 2.1006 10.6612 2.1006Z" fill="#0158DB"/>
</svg>
