<svg width="40" height="40" viewBox="0 0 40 40" fill="none" xmlns="http://www.w3.org/2000/svg">
<path d="M11.045 21.8849C9.48162 22.5697 8.69682 23.9318 8.829 25.6795L5.8798 26.96L4.17389 23.7637C3.88476 23.2223 3.57703 23.0344 3.21768 23.0344C3.04419 23.0344 2.85832 23.0764 2.66006 23.1481C1.7245 23.4695 0.683603 23.1358 0.291203 22.3892C0.161091 22.1396 0.128045 21.8874 0.192068 21.6377C0.28707 21.2694 0.582401 20.9307 1.00371 20.7058C1.22883 20.5871 1.60678 20.3869 1.73069 19.8974C1.85254 19.4179 1.63568 19.0124 1.53242 18.8172C1.04295 17.9 0.55349 16.9829 0.0578271 16.0534L0 15.9422L1.98678 15.0794C2.45973 14.8767 2.93061 14.6715 3.40149 14.4639C3.59149 14.3798 3.98595 14.2068 4.14085 13.7346C4.28955 13.2773 4.114 12.862 4.04585 12.7038C3.92193 12.4146 3.90335 12.1327 3.99009 11.8682C4.10987 11.5024 4.43412 11.181 4.87402 10.9907C5.76415 10.6026 6.81536 10.8992 7.31516 11.6754C7.67038 12.2267 8.16605 12.3997 8.71334 12.1624C9.48162 11.8287 10.2478 11.4974 11.014 11.1637L12.4824 10.5284L14.1842 13.7124C14.6179 14.5232 15.0764 14.5554 15.7228 14.3329C16.6295 14.0239 17.6828 14.3625 18.069 15.0918C18.2012 15.3415 18.2363 15.5986 18.1702 15.8532C18.0752 16.2215 17.786 16.5552 17.373 16.7728C17.1272 16.9013 16.7575 17.0966 16.6316 17.5836C16.5097 18.0632 16.7245 18.4661 16.8278 18.6565C17.3028 19.5513 17.7798 20.4413 18.2631 21.3485L18.3684 21.5463L15.5617 22.7625C14.1842 21.398 12.3399 21.3164 11.045 21.8849Z" fill="#F7528E"/>
<path d="M25.4707 34.3662L25.5905 34.5912L22.7838 35.8074C21.4063 34.4404 19.5661 34.3588 18.2671 34.9273C16.7037 35.6121 15.9209 36.9717 16.051 38.7219L13.1018 40L11.3959 36.8061C11.1068 36.2647 10.7991 36.0768 10.4397 36.0768C10.2662 36.0768 10.0804 36.1189 9.88003 36.1881C8.94653 36.5119 7.90564 36.1782 7.51324 35.4317C7.38313 35.182 7.34802 34.9298 7.41411 34.6801C7.50704 34.3118 7.80444 33.9731 8.22575 33.7482C8.45087 33.6295 8.82881 33.4293 8.95273 32.9399C9.07458 32.4603 8.85772 32.0549 8.75446 31.8596L7.21997 28.9821L9.19023 28.1292C9.66937 27.9216 10.1465 27.7139 10.6235 27.5063C10.8115 27.4222 11.208 27.2492 11.3629 26.7771C11.5116 26.3197 11.334 25.9044 11.2679 25.7462C11.1419 25.4545 11.1254 25.1752 11.2121 24.9107C11.3319 24.5473 11.6562 24.2259 12.0961 24.0331C12.9862 23.6475 14.0374 23.9416 14.5372 24.7203C14.8924 25.2716 15.3881 25.4422 15.9354 25.2048C16.6913 24.8785 17.4472 24.5498 18.203 24.2234L19.7045 23.5733L21.4063 26.7573C21.84 27.5681 22.2984 27.5978 22.9449 27.3778C23.8515 27.0663 24.9048 27.4074 25.291 28.1367C25.4232 28.3863 25.4583 28.6434 25.3922 28.898C25.2972 29.2664 25.0081 29.6001 24.595 29.8177C24.3493 29.9462 23.9796 30.139 23.8536 30.6285C23.7317 31.108 23.9465 31.5085 24.0498 31.7014C24.5227 32.5863 24.9916 33.4664 25.4707 34.3662Z" fill="#0158DB"/>
<path d="M35.9024 30.6458C35.7558 31.1081 35.9375 31.5185 36.0346 31.736C36.1502 31.9956 36.1668 32.2551 36.0842 32.5097C35.9664 32.883 35.6525 33.2118 35.2229 33.4046C34.3617 33.7903 33.2733 33.5233 32.7921 32.8064C32.2944 32.0623 31.8483 32.0747 31.2452 32.3466C30.2622 32.7916 29.2791 33.234 28.2775 33.6864L27.6207 33.9855L26.3051 31.6272C27.0218 30.94 27.3027 30.1984 27.4101 29.6521C27.5711 28.8264 27.4286 27.9389 27.0218 27.2171C26.4352 26.1764 25.2333 25.0442 22.8045 25.3433L21.5261 23.0517L24.845 21.5512C25.0784 21.4474 25.4708 21.2694 25.6215 20.7898C25.7682 20.3251 25.5844 19.9147 25.4956 19.7169C25.3758 19.4475 25.3572 19.178 25.4398 18.9185C25.5575 18.5477 25.8735 18.2214 26.3093 18.0285C27.1788 17.6429 28.2465 17.9124 28.7401 18.6416C29.2337 19.3709 29.7004 19.3536 30.2932 19.0866L33.9032 17.455L34.9792 19.3857C35.2188 19.8183 35.4584 20.246 35.698 20.6736C36.1461 21.4696 36.6852 21.4029 37.154 21.2323C38.1143 20.8837 39.1552 21.1878 39.5765 21.9418C39.7149 22.189 39.7562 22.4386 39.6984 22.6834C39.6116 23.0542 39.3039 23.4077 38.8578 23.6524C38.7256 23.7241 38.3208 23.9441 38.1969 24.4633C38.1432 24.6857 38.1267 25.0294 38.3436 25.4199C38.7153 26.0849 39.0871 26.7524 39.4588 27.4173L39.9999 28.3864L36.6934 29.8844C36.4353 29.9981 36.0511 30.1737 35.9024 30.6458Z" fill="#F7528E"/>
<path d="M31.3629 11.4851C31.303 11.7001 31.2699 12.0413 31.4661 12.4393C31.7635 13.035 32.0589 13.6308 32.3542 14.229C32.5173 14.5578 32.6805 14.8891 32.8437 15.2178L32.5958 15.3464L29.374 16.8024C29.3616 16.8074 29.3534 16.8098 29.343 16.8148C28.4612 15.5639 26.811 15.1115 25.3963 15.7419C24.5785 16.1053 23.9837 16.7604 23.7214 17.5885C23.5541 18.1151 23.5376 18.6737 23.6677 19.2102C22.5566 19.6551 21.4413 20.1026 20.3034 20.5599L19.1179 18.1695C19.8841 17.5045 20.2022 16.7604 20.3344 16.2091C20.5244 15.4008 20.4252 14.5207 20.0576 13.789C19.5227 12.7211 18.3744 11.5345 15.9354 11.7273L14.7788 9.39618C15.4851 9.11189 16.1894 8.8301 16.8936 8.54829L18.1906 8.02916C18.4302 7.93276 18.8267 7.77453 18.994 7.30732C19.1551 6.85494 18.9961 6.43718 18.9176 6.23941C18.8143 5.96996 18.8102 5.70544 18.9031 5.45082C19.0415 5.0726 19.3781 4.75125 19.8346 4.57326C20.7206 4.22223 21.7697 4.53123 22.2241 5.27531C22.6867 6.0367 23.1555 6.03669 23.7606 5.79443L27.4451 4.31616L28.3971 6.23694C28.6202 6.68685 28.8412 7.13922 29.0684 7.58666C29.4814 8.41479 30.0266 8.37278 30.5058 8.21952C31.4785 7.91051 32.4988 8.25164 32.8788 9.01303C33.0006 9.26023 33.0275 9.50743 32.9614 9.74474C32.854 10.1254 32.5256 10.474 32.0547 10.7014C31.9184 10.7706 31.5074 10.9734 31.3629 11.4851Z" fill="#0158DB"/>
<path d="M12.4472 2.33359C12.9856 2.33359 13.422 1.8112 13.422 1.16679C13.422 0.522387 12.9856 0 12.4472 0C11.9088 0 11.4724 0.522387 11.4724 1.16679C11.4724 1.8112 11.9088 2.33359 12.4472 2.33359Z" fill="#0158DB"/>
<path d="M25.9604 3.50287C26.4988 3.50287 26.9352 2.98048 26.9352 2.33607C26.9352 1.69167 26.4988 1.16928 25.9604 1.16928C25.422 1.16928 24.9856 1.69167 24.9856 2.33607C24.9856 2.98048 25.422 3.50287 25.9604 3.50287Z" fill="#F7528E"/>
</svg>
