<?xml version="1.0" encoding="utf-8"?>
<!-- Generator: Adobe Illustrator 23.0.0, SVG Export Plug-In . SVG Version: 6.00 Build 0)  -->
<svg version="1.1" id="Seo" xmlns="http://www.w3.org/2000/svg" xmlns:xlink="http://www.w3.org/1999/xlink" x="0px" y="0px"
	 viewBox="0 0 512 512" style="enable-background:new 0 0 512 512;" xml:space="preserve">
<g>
	<path d="M261.4,4c2.5,0.8,5,1.5,7.4,2.3c18,6.4,28.8,25.3,25.2,44.2c-0.3,1.6-0.6,3.2-1,5.2c38.8,22.4,77.7,44.8,116.7,67.2
		c14.1-13.3,30.1-17.3,47.6-8.4c14.5,7.4,21.8,20.1,20.9,36.5c-1.1,19.3-12.3,30.9-30.7,36.8c0,44.8,0,89.5,0,134.7
		c19,6,30.8,18.6,30.7,39.7c-0.1,16.6-8.7,28.5-23.8,35.2c-15.1,6.7-30.4,3.2-44.6-9.8c-38.7,22.2-77.6,44.6-116.7,67.1
		c4.6,19.8-0.5,36.2-18.5,46.6c-14,8.1-28.5,7.2-41.6-2.2c-15.2-11-19.5-26.3-14.8-44.5c-38.9-22.4-77.8-44.7-116.7-67.1
		c-13.9,13.3-29.7,17.2-46.9,8.7c-15-7.4-22.6-20.3-21.6-37.1c1.1-19,12.2-30.6,30.1-36.4c0-45,0-89.9,0-135
		c-18.9-6.2-30.3-18.6-30.3-39.1c0-16.4,8.2-28.6,23.1-35.2c16.8-7.4,31.9-3.5,45.4,9.4c38.7-22.3,77.6-44.6,115.4-66.3
		c0-6.8-0.7-12.8,0.1-18.7c2.4-17,13.9-29,30.6-33c0.8-0.2,1.5-0.6,2.2-0.9C253.6,4,257.5,4,261.4,4z M109.7,136.1
		c0.6,5.3,2.5,10.1,1.3,13.9c-3.9,11.8,3,16.1,11.8,19.9c0.9,0.4,1.7,1,2.6,1.4c32.3,18.6,64.6,37.1,96.9,55.6
		c1.9,1.1,3.4,2.6,5.9,0.3c17.5-15.3,37.2-15.2,54.8-0.2c1,0.8,3.4,1.2,4.5,0.6c37.3-21.3,74.6-42.6,111.8-64.2
		c1.1-0.7,1.8-3,1.8-4.5c0.2-6.3-0.5-12.7,0.2-18.9c0.3-3-0.2-4.3-2.6-5.7c-36.7-21-73.4-42.1-110-63.3c-2.5-1.5-4-1.4-6.3,0.7
		c-15.3,14.1-37.7,14.3-52.9,0.4c-2.9-2.6-4.6-2.3-7.5-0.6c-22.6,13.1-45.3,26.1-68,39.1C139.1,119.2,124.2,127.8,109.7,136.1z
		 M247.5,426.8c0-43.2,0-88,0-133c-11.1-2.9-20-8.8-25.8-18.8c-5.9-10.1-6.8-20.9-3.5-32.2c-39.2-22.5-78.1-44.9-115.9-66.6
		c-8.1,4.6-15.4,8.7-23.2,13.1c0,43.6,0,88.3,0,133c23.4,6.7,35.7,25.6,30.8,47.4c-0.8,3.6,0.2,4.8,3,6.4
		c15.6,8.8,31.2,17.9,46.8,26.8c21,12.1,41.9,24.2,62.9,36.1c1.4,0.8,3.8,1.1,5,0.4C234.1,435.6,240.4,431.4,247.5,426.8z
		 M263.5,294.1c0,44.7,0,89.5,0,132.7c7.2,4.6,13.4,8.8,19.9,12.7c1.1,0.7,3.4,0.6,4.6-0.1c37-21.1,74-42.3,111-63.5
		c2.2-1.2,2.8-2.3,2.1-5c-3.2-13.1-0.3-24.9,8.4-35.3c5.6-6.7,13.1-10.6,22-13c0-44.9,0-89.8,0-133.3c-7.8-4.4-14.9-8.5-23-13
		c-37.8,21.7-76.8,44.1-115.6,66.5C298.7,267.7,289.5,283.7,263.5,294.1z M48.3,361.2c0,13.2,10.6,23.7,23.7,23.5
		c12.8-0.1,23.4-10.8,23.4-23.6c0-13-10.8-23.6-23.9-23.5C58.6,337.7,48.3,348.2,48.3,361.2z M48.4,149.4
		c0.1,12.9,10.5,23.3,23.4,23.3c13,0,23.8-10.8,23.6-23.7c-0.1-12.8-10.7-23.3-23.5-23.3C58.7,125.7,48.3,136.2,48.4,149.4z
		 M462.6,149.5c0.1-13.2-10.3-23.8-23.4-23.8c-12.8-0.1-23.5,10.4-23.7,23.2c-0.2,13,10.5,23.8,23.5,23.9
		C452,172.8,462.5,162.4,462.6,149.5z M462.7,361.2c0-13.1-10.5-23.7-23.6-23.6c-12.8,0.1-23.4,10.7-23.4,23.5
		c0,13,10.8,23.7,23.8,23.6C452.3,384.6,462.7,374.2,462.7,361.2z M232,255.3c0.1,13,10.8,23.5,23.9,23.4
		c12.7-0.1,23.3-10.9,23.2-23.6c-0.1-12.9-10.6-23.4-23.4-23.4C242.6,231.6,232,242.3,232,255.3z M279.1,467.1
		c-0.1-13.1-10.8-23.6-23.9-23.4c-12.8,0.2-23.2,10.8-23.2,23.6c0.1,13,10.8,23.5,23.9,23.4C268.7,490.6,279.2,479.8,279.1,467.1z
		 M279,43.9c0.3-13-10.1-23.9-23.1-24.2c-12.8-0.3-23.7,10.1-23.9,22.8c-0.3,13.1,10.1,24,23.1,24.2C268,67,278.7,56.7,279,43.9z"/>
</g>
</svg>
