<?xml version="1.0" encoding="utf-8"?>
<!-- Generator: Adobe Illustrator 23.0.0, SVG Export Plug-In . SVG Version: 6.00 Build 0)  -->
<svg version="1.1" id="OBJECTS" xmlns="http://www.w3.org/2000/svg" xmlns:xlink="http://www.w3.org/1999/xlink" x="0px" y="0px"
	 viewBox="0 0 334.8 296" style="enable-background:new 0 0 334.8 296;" xml:space="preserve">
<style type="text/css">
	.st0{opacity:0.12;fill:#1B1E23;}
	.st1{fill:#2A85B7;}
	.st2{fill:#247591;}
	.st3{clip-path:url(#XMLID_2_);fill:#1B566B;}
	.st4{opacity:0.1;clip-path:url(#XMLID_2_);}
	.st5{opacity:0.1;}
	.st6{fill:none;stroke:#212121;stroke-width:1.5836;stroke-linecap:round;stroke-linejoin:round;stroke-miterlimit:10;}
	.st7{fill:#1B566B;}
	.st8{clip-path:url(#XMLID_5_);fill:#2A81BC;}
	.st9{clip-path:url(#XMLID_5_);}
	.st10{fill:#FFFFFF;}
	.st11{font-family:'OpenSans-Bold';}
	.st12{font-size:5.1724px;}
	.st13{font-size:3px;}
	.st14{font-size:5px;}
	.st15{clip-path:url(#XMLID_5_);fill:#2673A8;}
	.st16{clip-path:url(#XMLID_5_);fill:#2776B7;}
	.st17{opacity:2.000000e-02;clip-path:url(#XMLID_7_);}
	.st18{opacity:0.13;clip-path:url(#XMLID_7_);fill:#FFFFFF;}
	.st19{font-size:10.5057px;}
	.st20{fill:none;stroke:#212121;stroke-width:0.5;stroke-linecap:round;stroke-linejoin:round;stroke-miterlimit:10;}
	.st21{opacity:0.4;fill:#F9A40D;}
	.st22{fill:#FCAF15;}
	.st23{fill:#212121;}
	.st24{opacity:2.000000e-02;clip-path:url(#XMLID_18_);}
	.st25{opacity:0.13;clip-path:url(#XMLID_18_);fill:#FFFFFF;}
	.st26{font-size:4.3974px;}
	.st27{fill:#2776B7;}
	.st28{clip-path:url(#XMLID_19_);fill:#B2C8D8;}
	.st29{clip-path:url(#XMLID_20_);fill:#3A4149;}
	.st30{fill:#FCFFFF;}
	.st31{fill:#EFEFEF;}
	.st32{fill:#54A0FF;}
	.st33{font-size:4.9039px;}
	.st34{fill:#B2C8D8;}
	.st35{opacity:0.3;fill:#FFFFFD;}
	.st36{clip-path:url(#XMLID_21_);fill:#34A1EA;}
	.st37{fill:#2A81BC;}
	.st38{fill:#37ADEF;}
	.st39{fill:#BAD1E5;}
	.st40{fill:none;stroke:#000000;stroke-width:2.5763;stroke-miterlimit:10;}
	.st41{opacity:0.12;clip-path:url(#XMLID_26_);}
	.st42{clip-path:url(#XMLID_27_);fill:#277BAA;}
	.st43{opacity:0.2;}
	.st44{opacity:0.12;clip-path:url(#XMLID_28_);fill:#FFFFFF;}
	.st45{font-family:'Montserrat-Bold';}
	.st46{font-size:10.6937px;}
	.st47{opacity:3.000000e-02;clip-path:url(#XMLID_29_);}
	.st48{opacity:3.000000e-02;clip-path:url(#XMLID_30_);fill:#010102;}
	.st49{opacity:4.000000e-02;clip-path:url(#XMLID_40_);}
	.st50{fill:#FF7C10;}
	.st51{opacity:0.3;clip-path:url(#XMLID_41_);}
	.st52{opacity:0.3;}
	.st53{fill:none;stroke:#212121;stroke-width:0.9542;stroke-linecap:round;stroke-linejoin:round;stroke-miterlimit:10;}
	.st54{opacity:0.3;clip-path:url(#XMLID_43_);}
	.st55{fill:none;stroke:#212121;stroke-width:1.188;stroke-linecap:round;stroke-linejoin:round;stroke-miterlimit:10;}
</style>
<g id="elements">
	<ellipse class="st0" cx="188.3" cy="272.2" rx="134.3" ry="15.9"/>
	<g>
		<path class="st1" d="M165.3,20.7l20.3,56.9c0.5,1.4,0.1,2.9-0.9,4L174.4,92L165.3,20.7z"/>
		<g>
			<path class="st2" d="M101.9,30.2L101.9,30.2c2.2-2.7,5.2-4.4,8.5-4.8l47.6-6c2.6-0.3,5.1,1.3,6.1,4l0,0L101.9,30.2z"/>
			<g>
				<defs>
					<path id="XMLID_35_" d="M172,92.6l-60.5,6.7c-3.9,0.4-7.4-2.5-7.6-6.5l-2.7-62.3c-0.1-1.3,0.9-2.4,2.2-2.6l59.8-7.5
						c1.3-0.2,2.5,0.7,2.8,2l12,62.1C178.7,88.4,176,92.2,172,92.6z"/>
				</defs>
				<use xlink:href="#XMLID_35_"  style="overflow:visible;fill:#2E8CCC;"/>
				<clipPath id="XMLID_2_">
					<use xlink:href="#XMLID_35_"  style="overflow:visible;"/>
				</clipPath>
				
					<rect x="78.9" y="48.9" transform="matrix(0.9943 -0.1069 0.1069 0.9943 -4.5589 14.4103)" class="st3" width="106.3" height="1.7"/>
				
					<rect x="83.6" y="43.7" transform="matrix(0.9943 -0.1069 0.1069 0.9943 -3.9732 14.8837)" class="st3" width="106.3" height="1.7"/>
				<g class="st4">
					<defs>
						<path id="XMLID_34_" class="st5" d="M169.1,20.6c4.1-1.1-9.3-5.1-12.3-4.7l-0.2,0c-1.4,0.2-2.3,1.5-2,2.9l0.7,3.3
							c8.1,36.6-17.4,72.1-54.6,76.3h0c-1.2,0.1-2.1,1.1-2.1,2.4l0,0c0,3.6,3.1,6.3,6.6,5.9l68.8-7.6c3.5-0.4,5.9-3.7,5.2-7.2
							L169.1,20.6z"/>
					</defs>
					<use xlink:href="#XMLID_34_"  style="overflow:visible;opacity:0.4;fill:#FFFFFF;"/>
					<clipPath id="XMLID_3_">
						<use xlink:href="#XMLID_34_"  style="overflow:visible;opacity:0.4;"/>
					</clipPath>
				</g>
			</g>
			<path class="st6" d="M120.5,37.7c-2.5-16.4-5-31.3,10.5-33.2c14.8-1.8,17.9,11.8,19.5,29.7"/>
			<g>
				<path class="st7" d="M122.8,39.6c0.1,1.2-0.7,2.2-1.9,2.4c-1.2,0.1-2.2-0.7-2.4-1.9c-0.1-1.2,0.7-2.2,1.9-2.4
					C121.6,37.6,122.7,38.4,122.8,39.6z"/>
			</g>
			<g>
				<path class="st7" d="M152.8,36.1c0.1,1.2-0.7,2.2-1.9,2.4c-1.2,0.1-2.2-0.7-2.4-1.9c-0.1-1.2,0.7-2.2,1.9-2.4
					C151.6,34.1,152.7,34.9,152.8,36.1z"/>
			</g>
		</g>
	</g>
	<g>
		<defs>
			<path id="XMLID_25_" d="M225,40.7l56.6-28.4c5.9-3,13.1-0.5,16.1,5.4L312.9,48c3,5.9,0.5,13.1-5.4,16.1l-56.6,28.4
				c-5.9,3-13.1,0.5-16.1-5.4l-15.2-30.3C216.7,50.9,219.1,43.7,225,40.7z"/>
		</defs>
		<use xlink:href="#XMLID_25_"  style="overflow:visible;fill:#2776B7;"/>
		<clipPath id="XMLID_5_">
			<use xlink:href="#XMLID_25_"  style="overflow:visible;"/>
		</clipPath>
		<polygon class="st8" points="212.8,65.3 310.8,19.3 298.1,4 206.1,43.3 		"/>
		<g class="st9">
			<text transform="matrix(0.8893 -0.4574 0.4574 0.8893 242.1678 65.7927)" class="st10 st11 st12">XXXX XXXX XXXX XXX</text>
		</g>
		<g class="st9">
			<text transform="matrix(0.8644 -0.5029 0.5029 0.8644 294.3173 54.1515)" class="st10 st11 st13">VALID</text>
		</g>
		<g class="st9">
			<text transform="matrix(0.8644 -0.5029 0.5029 0.8644 291.8264 61.1079)" class="st10 st11 st14">XX-XX</text>
		</g>
		<circle class="st15" cx="272.9" cy="27.8" r="4.1"/>
		<circle class="st16" cx="277.9" cy="25" r="4.1"/>
	</g>
	<g>
		<g>
			<defs>
				<path id="XMLID_16_" d="M183.8,28.4c-0.7,6-5.9,10.3-11.8,9.6c-5.8-0.7-10-6.3-9.4-12.3c0.7-6,5.9-10.3,11.8-9.6
					c2.9,0.4,5.4,1.9,7.1,4.2C183.2,22.4,184.1,25.3,183.8,28.4z"/>
			</defs>
			<use xlink:href="#XMLID_16_"  style="overflow:visible;fill:#FCAF15;"/>
			<clipPath id="XMLID_6_">
				<use xlink:href="#XMLID_16_"  style="overflow:visible;"/>
			</clipPath>
		</g>
		<g>
			<defs>
				<path id="XMLID_15_" d="M181.7,28.3c-0.7,4.9-5,8.2-9.8,7.5c-4.7-0.7-8-5.3-7.3-10.2c0.7-4.9,5-8.2,9.8-7.5
					c2.4,0.4,4.4,1.7,5.7,3.5C181.4,23.5,182.1,25.9,181.7,28.3z"/>
			</defs>
			<use xlink:href="#XMLID_15_"  style="overflow:visible;fill:#FECA57;"/>
			<clipPath id="XMLID_7_">
				<use xlink:href="#XMLID_15_"  style="overflow:visible;"/>
			</clipPath>
			<path class="st17" d="M182.2,28.6c0.3-2.5-0.3-5-1.6-7c0.6,1.5,0.8,3.2,0.5,4.9c-0.7,5.4-5.6,9.1-10.8,8.3
				c-2.8-0.4-5.1-2.1-6.5-4.3c1.2,3.3,4,5.8,7.6,6.3C176.6,37.7,181.5,33.9,182.2,28.6z"/>
			<path class="st18" d="M163.8,30c0.7,2.5,2.3,4.4,4.2,5.7c-1.1-1.1-2-2.6-2.5-4.3c-1.5-5.2,1.4-10.7,6.4-12.2
				c2.7-0.8,5.4-0.3,7.7,1.1c-2.4-2.5-6-3.5-9.4-2.5C165.1,19.3,162.3,24.8,163.8,30z"/>
		</g>
		<g>
			<text transform="matrix(0.9402 0.2342 -0.225 0.9744 169.9802 29.7022)" class="st10 st11 st19">$</text>
		</g>
	</g>
	<g>
		<path class="st20" d="M248,31.1c1.1-0.8,3.9-0.2,5.7,2.2c1.8,2.4,2.4,5,0.7,6.3"/>
		<g>
			<defs>
				<path id="XMLID_4_" d="M252,82.6h-56.4c-0.9,0-1.7-0.7-1.7-1.7V32.8c0-0.9,0.7-1.7,1.7-1.7H252c0.9,0,1.7,0.7,1.7,1.7V81
					C253.7,81.9,252.9,82.6,252,82.6z"/>
			</defs>
			<use xlink:href="#XMLID_4_"  style="overflow:visible;fill:#FECA57;"/>
			<clipPath id="XMLID_9_">
				<use xlink:href="#XMLID_4_"  style="overflow:visible;"/>
			</clipPath>
		</g>
		<rect x="223.1" y="44.1" class="st21" width="1.5" height="43.8"/>
		<rect x="215.5" y="31.1" class="st22" width="16.7" height="23.1"/>
		<path class="st22" d="M262.2,40.8c-0.1-0.3-0.3-0.6-0.5-0.8l-5-3.8c-0.4-0.3-0.9-0.4-1.3-0.2l-3.9,1.1c-0.5,0.1-0.9,0.5-1,1
			l-1.9,6c-0.1,0.3-0.1,0.6,0,0.9l3.6,12.5c0.2,0.8,1.1,1.3,1.9,1l11-3.2c0.8-0.2,1.3-1.1,1-1.9L262.2,40.8z M254.7,40.5
			c-0.7,0.2-1.4-0.2-1.5-0.9c-0.2-0.7,0.2-1.4,0.9-1.5c0.7-0.2,1.4,0.2,1.5,0.9C255.8,39.6,255.4,40.3,254.7,40.5z"/>
		<g>
			<path class="st23" d="M254.6,39.8c0,0-0.1,0-0.2,0.1c-0.1,0.1-0.2,0.2-0.5,0.3c-0.4,0.2-1.2,0.3-1.9,0c-0.8-0.3-1.5-0.8-2.2-1.5
				c-0.7-0.7-1.3-1.5-1.9-2.3c-0.6-0.8-1.2-1.7-1.4-2.6c-0.1-0.5-0.1-1,0.1-1.5c0.2-0.4,0.5-0.8,0.7-1.1c0.3-0.3,0.7-0.5,1-0.6
				c0.1-0.1,0.3-0.1,0.5-0.1c0.1,0,0.3,0,0.4,0c0.4,0,0.7,0,0.7,0c0.1,0,0.2,0.1,0.2,0.2c0,0.1-0.1,0.2-0.2,0.2c0,0,0,0,0,0
				c0,0-0.2,0-0.7,0c-0.1,0-0.2,0-0.3,0.1c-0.1,0-0.2,0-0.3,0.1c-0.3,0.1-0.6,0.2-0.8,0.5c-0.3,0.2-0.5,0.5-0.6,0.9
				c-0.1,0.3-0.1,0.8,0,1.2c0.2,0.8,0.8,1.7,1.3,2.5c0.6,0.8,1.2,1.6,1.8,2.2c0.6,0.6,1.3,1.1,2,1.4c0.7,0.2,1.2,0.2,1.6,0
				c0.2-0.1,0.3-0.1,0.4-0.2c0.1-0.1,0.2-0.1,0.2-0.1c0.1-0.1,0.3,0,0.3,0.1C254.7,39.6,254.7,39.7,254.6,39.8L254.6,39.8z"/>
		</g>
	</g>
	<g>
		<g>
			<defs>
				<path id="XMLID_22_" d="M198.7,47.6c1.8,5.8-1.3,11.9-6.9,13.5c-5.6,1.7-11.7-1.7-13.6-7.5c-1.8-5.8,1.3-11.9,6.9-13.5
					c2.8-0.8,5.8-0.4,8.2,0.9C195.8,42.4,197.8,44.7,198.7,47.6z"/>
			</defs>
			<use xlink:href="#XMLID_22_"  style="overflow:visible;fill:#FCAF15;"/>
			<clipPath id="XMLID_14_">
				<use xlink:href="#XMLID_22_"  style="overflow:visible;"/>
			</clipPath>
		</g>
		<g>
			<defs>
				<path id="XMLID_17_" d="M196.9,48.4c1.4,4.7-1.3,9.6-5.9,10.8s-9.5-1.6-10.8-6.3c-1.4-4.7,1.3-9.6,5.9-10.8
					c2.3-0.6,4.7-0.2,6.6,0.9C194.6,44.2,196.2,46.1,196.9,48.4z"/>
			</defs>
			<use xlink:href="#XMLID_17_"  style="overflow:visible;fill:#FECA57;"/>
			<clipPath id="XMLID_18_">
				<use xlink:href="#XMLID_17_"  style="overflow:visible;"/>
			</clipPath>
			<path class="st24" d="M197.4,48.4c-0.7-2.5-2.3-4.4-4.2-5.7c1.1,1.2,2,2.6,2.5,4.3c1.5,5.2-1.4,10.6-6.5,12
				c-2.7,0.7-5.5,0.2-7.7-1.3c2.4,2.5,6,3.7,9.5,2.7C196,59,198.9,53.7,197.4,48.4z"/>
			<path class="st25" d="M181.1,57.2c1.6,2,3.9,3.1,6.2,3.5c-1.5-0.6-2.9-1.6-4-2.9c-3.5-4.2-3.1-10.4,0.9-13.8
				c2.1-1.8,4.8-2.5,7.4-2.1c-3.2-1.3-6.9-0.8-9.6,1.5C178,46.9,177.6,53,181.1,57.2z"/>
		</g>
		<g>
			<text transform="matrix(0.9286 -0.2767 0.3021 0.9533 186.2215 54.9933)" class="st10 st11 st19">$</text>
		</g>
	</g>
	<g>
		<text transform="matrix(0.9283 -0.2766 0.3019 0.9533 251.0204 47.5456)" class="st10 st11 st26">SALE</text>
	</g>
	<path class="st27" d="M56.9,105.6H14.1c-2.4,0-4.3,2-4.3,4.3v30.3c0,2.4,2,4.3,4.3,4.3h29.4l7.2,4.7c1.7,1.1,4,0,4.1-2.1l0.1-2.7h2
		c2.4,0,4.3-2,4.3-4.3V110C61.3,107.6,59.3,105.6,56.9,105.6z"/>
	<g>
		<g>
			<defs>
				<path id="XMLID_10_" d="M174.2,225.1c0,0,1.9,23.6-6.5,36.8c-2.3,3.6,0.2,8.3,4.5,8.3l63-3c4.4,0,8-0.9,5.3-4.4
					c-5.7-7.6-8.1-25.5-6.8-38.6L174.2,225.1z"/>
			</defs>
			<use xlink:href="#XMLID_10_"  style="overflow:visible;fill:#BAD1E5;"/>
			<clipPath id="XMLID_19_">
				<use xlink:href="#XMLID_10_"  style="overflow:visible;"/>
			</clipPath>
			<rect x="171.6" y="229.3" class="st28" width="76.5" height="12.1"/>
		</g>
		<g>
			<defs>
				<path id="XMLID_8_" d="M309.5,237.1H98.8c-6.6,0-12-5.4-12-12V81.6c0-6.6,5.4-12,12-12h210.7c6.6,0,12,5.4,12,12v143.4
					C321.5,231.7,316.1,237.1,309.5,237.1z"/>
			</defs>
			<use xlink:href="#XMLID_8_"  style="overflow:visible;fill:#BAD1E5;"/>
			<clipPath id="XMLID_20_">
				<use xlink:href="#XMLID_8_"  style="overflow:visible;"/>
			</clipPath>
			<rect x="71.8" y="27.4" class="st29" width="263" height="180.6"/>
		</g>
		<rect x="99.8" y="80.6" class="st30" width="210" height="117"/>
		<g>
			<g>
				<g>
					<path class="st31" d="M134.7,125.6h-23.5c-1.2,0-2.1-0.9-2.1-2.1V100c0-1.2,0.9-2.1,2.1-2.1h23.5c1.2,0,2.1,0.9,2.1,2.1v23.5
						C136.7,124.7,135.8,125.6,134.7,125.6z"/>
					<path class="st31" d="M133.3,129.2h-20.7c-0.3,0-0.6-0.3-0.6-0.6l0,0c0-0.3,0.3-0.6,0.6-0.6h20.7c0.3,0,0.6,0.3,0.6,0.6l0,0
						C133.9,129,133.6,129.2,133.3,129.2z"/>
				</g>
				<path class="st32" d="M133,136.3h-20.3c-1.5,0-2.7-1.2-2.7-2.7l0,0c0-1.5,1.2-2.7,2.7-2.7H133c1.5,0,2.7,1.2,2.7,2.7l0,0
					C135.7,135.1,134.5,136.3,133,136.3z"/>
			</g>
			<g>
				<circle class="st32" cx="109.4" cy="99.8" r="4"/>
				<text transform="matrix(1 0 0 1 108.2617 101.3583)" class="st30 st11 st33">$</text>
			</g>
		</g>
		<g>
			<g>
				<g>
					<path class="st31" d="M134.7,175.8h-23.5c-1.2,0-2.1-0.9-2.1-2.1v-23.5c0-1.2,0.9-2.1,2.1-2.1h23.5c1.2,0,2.1,0.9,2.1,2.1v23.5
						C136.7,174.8,135.8,175.8,134.7,175.8z"/>
					<path class="st31" d="M133.3,179.4h-20.7c-0.3,0-0.6-0.3-0.6-0.6l0,0c0-0.3,0.3-0.6,0.6-0.6h20.7c0.3,0,0.6,0.3,0.6,0.6l0,0
						C133.9,179.1,133.6,179.4,133.3,179.4z"/>
				</g>
				<path class="st32" d="M133,186.5h-20.3c-1.5,0-2.7-1.2-2.7-2.7l0,0c0-1.5,1.2-2.7,2.7-2.7H133c1.5,0,2.7,1.2,2.7,2.7l0,0
					C135.7,185.3,134.5,186.5,133,186.5z"/>
			</g>
			<g>
				<circle class="st32" cx="109.4" cy="150" r="4"/>
				<text transform="matrix(1 0 0 1 108.2617 151.5249)" class="st30 st11 st33">$</text>
			</g>
		</g>
		<g>
			<g>
				<g>
					<path class="st31" d="M176.1,125.6h-23.5c-1.2,0-2.1-0.9-2.1-2.1V100c0-1.2,0.9-2.1,2.1-2.1h23.5c1.2,0,2.1,0.9,2.1,2.1v23.5
						C178.2,124.7,177.2,125.6,176.1,125.6z"/>
					<path class="st31" d="M174.7,129.2H154c-0.3,0-0.6-0.3-0.6-0.6l0,0c0-0.3,0.3-0.6,0.6-0.6h20.7c0.3,0,0.6,0.3,0.6,0.6l0,0
						C175.3,129,175,129.2,174.7,129.2z"/>
				</g>
				<path class="st32" d="M174.4,136.3h-20.3c-1.5,0-2.7-1.2-2.7-2.7l0,0c0-1.5,1.2-2.7,2.7-2.7h20.3c1.5,0,2.7,1.2,2.7,2.7l0,0
					C177.1,135.1,175.9,136.3,174.4,136.3z"/>
			</g>
			<g>
				<circle class="st32" cx="150.8" cy="99.8" r="4"/>
				<text transform="matrix(1 0 0 1 149.6784 101.3583)" class="st30 st11 st33">$</text>
			</g>
		</g>
		<g>
			<g>
				<g>
					<path class="st31" d="M176.1,175.8h-23.5c-1.2,0-2.1-0.9-2.1-2.1v-23.5c0-1.2,0.9-2.1,2.1-2.1h23.5c1.2,0,2.1,0.9,2.1,2.1v23.5
						C178.2,174.8,177.2,175.8,176.1,175.8z"/>
					<path class="st31" d="M174.7,179.4H154c-0.3,0-0.6-0.3-0.6-0.6l0,0c0-0.3,0.3-0.6,0.6-0.6h20.7c0.3,0,0.6,0.3,0.6,0.6l0,0
						C175.3,179.1,175,179.4,174.7,179.4z"/>
				</g>
				<path class="st32" d="M174.4,186.5h-20.3c-1.5,0-2.7-1.2-2.7-2.7l0,0c0-1.5,1.2-2.7,2.7-2.7h20.3c1.5,0,2.7,1.2,2.7,2.7l0,0
					C177.1,185.3,175.9,186.5,174.4,186.5z"/>
			</g>
			<g>
				<circle class="st32" cx="150.8" cy="150" r="4"/>
				<text transform="matrix(1 0 0 1 149.6784 151.5249)" class="st30 st11 st33">$</text>
			</g>
		</g>
		<g>
			<g>
				<g>
					<path class="st31" d="M218,125.6h-23.5c-1.2,0-2.1-0.9-2.1-2.1V100c0-1.2,0.9-2.1,2.1-2.1H218c1.2,0,2.1,0.9,2.1,2.1v23.5
						C220.1,124.7,219.1,125.6,218,125.6z"/>
					<path class="st31" d="M216.6,129.2h-20.7c-0.3,0-0.6-0.3-0.6-0.6l0,0c0-0.3,0.3-0.6,0.6-0.6h20.7c0.3,0,0.6,0.3,0.6,0.6l0,0
						C217.2,129,217,129.2,216.6,129.2z"/>
				</g>
				<path class="st32" d="M216.4,136.3H196c-1.5,0-2.7-1.2-2.7-2.7l0,0c0-1.5,1.2-2.7,2.7-2.7h20.3c1.5,0,2.7,1.2,2.7,2.7l0,0
					C219,135.1,217.8,136.3,216.4,136.3z"/>
			</g>
			<g>
				<circle class="st32" cx="192.7" cy="99.8" r="4"/>
				<text transform="matrix(1 0 0 1 191.5951 101.3583)" class="st30 st11 st33">$</text>
			</g>
		</g>
		<g>
			<g>
				<g>
					<path class="st31" d="M218,175.8h-23.5c-1.2,0-2.1-0.9-2.1-2.1v-23.5c0-1.2,0.9-2.1,2.1-2.1H218c1.2,0,2.1,0.9,2.1,2.1v23.5
						C220.1,174.8,219.1,175.8,218,175.8z"/>
					<path class="st31" d="M216.6,179.4h-20.7c-0.3,0-0.6-0.3-0.6-0.6l0,0c0-0.3,0.3-0.6,0.6-0.6h20.7c0.3,0,0.6,0.3,0.6,0.6l0,0
						C217.2,179.1,217,179.4,216.6,179.4z"/>
				</g>
				<path class="st32" d="M216.4,186.5H196c-1.5,0-2.7-1.2-2.7-2.7l0,0c0-1.5,1.2-2.7,2.7-2.7h20.3c1.5,0,2.7,1.2,2.7,2.7l0,0
					C219,185.3,217.8,186.5,216.4,186.5z"/>
			</g>
			<g>
				<circle class="st32" cx="192.7" cy="150" r="4"/>
				<text transform="matrix(1 0 0 1 191.5951 151.5249)" class="st30 st11 st33">$</text>
			</g>
		</g>
		<g>
			<g>
				<g>
					<path class="st31" d="M259.4,125.6h-23.5c-1.2,0-2.1-0.9-2.1-2.1V100c0-1.2,0.9-2.1,2.1-2.1h23.5c1.2,0,2.1,0.9,2.1,2.1v23.5
						C261.5,124.7,260.6,125.6,259.4,125.6z"/>
					<path class="st31" d="M258.1,129.2h-20.7c-0.3,0-0.6-0.3-0.6-0.6l0,0c0-0.3,0.3-0.6,0.6-0.6h20.7c0.3,0,0.6,0.3,0.6,0.6l0,0
						C258.6,129,258.4,129.2,258.1,129.2z"/>
				</g>
				<path class="st32" d="M257.8,136.3h-20.3c-1.5,0-2.7-1.2-2.7-2.7l0,0c0-1.5,1.2-2.7,2.7-2.7h20.3c1.5,0,2.7,1.2,2.7,2.7l0,0
					C260.4,135.1,259.2,136.3,257.8,136.3z"/>
			</g>
			<g>
				<circle class="st32" cx="234.1" cy="99.8" r="4"/>
				<text transform="matrix(1 0 0 1 233.0117 101.3583)" class="st30 st11 st33">$</text>
			</g>
		</g>
		<g>
			<g>
				<g>
					<path class="st31" d="M259.4,175.8h-23.5c-1.2,0-2.1-0.9-2.1-2.1v-23.5c0-1.2,0.9-2.1,2.1-2.1h23.5c1.2,0,2.1,0.9,2.1,2.1v23.5
						C261.5,174.8,260.6,175.8,259.4,175.8z"/>
					<path class="st31" d="M258.1,179.4h-20.7c-0.3,0-0.6-0.3-0.6-0.6l0,0c0-0.3,0.3-0.6,0.6-0.6h20.7c0.3,0,0.6,0.3,0.6,0.6l0,0
						C258.6,179.1,258.4,179.4,258.1,179.4z"/>
				</g>
				<path class="st32" d="M257.8,186.5h-20.3c-1.5,0-2.7-1.2-2.7-2.7l0,0c0-1.5,1.2-2.7,2.7-2.7h20.3c1.5,0,2.7,1.2,2.7,2.7l0,0
					C260.4,185.3,259.2,186.5,257.8,186.5z"/>
			</g>
			<g>
				<circle class="st32" cx="234.1" cy="150" r="4"/>
				<text transform="matrix(1 0 0 1 233.0117 151.5249)" class="st30 st11 st33">$</text>
			</g>
		</g>
		<g>
			<g>
				<g>
					<path class="st31" d="M298.1,125.6h-23.5c-1.2,0-2.1-0.9-2.1-2.1V100c0-1.2,0.9-2.1,2.1-2.1h23.5c1.2,0,2.1,0.9,2.1,2.1v23.5
						C300.2,124.7,299.2,125.6,298.1,125.6z"/>
					<path class="st31" d="M296.7,129.2H276c-0.3,0-0.6-0.3-0.6-0.6l0,0c0-0.3,0.3-0.6,0.6-0.6h20.7c0.3,0,0.6,0.3,0.6,0.6l0,0
						C297.3,129,297,129.2,296.7,129.2z"/>
				</g>
				<path class="st32" d="M296.4,136.3h-20.3c-1.5,0-2.7-1.2-2.7-2.7l0,0c0-1.5,1.2-2.7,2.7-2.7h20.3c1.5,0,2.7,1.2,2.7,2.7l0,0
					C299.1,135.1,297.9,136.3,296.4,136.3z"/>
			</g>
			<g>
				<circle class="st32" cx="272.8" cy="99.8" r="4"/>
				<text transform="matrix(1 0 0 1 271.6784 101.3583)" class="st30 st11 st33">$</text>
			</g>
		</g>
		<g>
			<g>
				<g>
					<path class="st31" d="M298.1,175.8h-23.5c-1.2,0-2.1-0.9-2.1-2.1v-23.5c0-1.2,0.9-2.1,2.1-2.1h23.5c1.2,0,2.1,0.9,2.1,2.1v23.5
						C300.2,174.8,299.2,175.8,298.1,175.8z"/>
					<path class="st31" d="M296.7,179.4H276c-0.3,0-0.6-0.3-0.6-0.6l0,0c0-0.3,0.3-0.6,0.6-0.6h20.7c0.3,0,0.6,0.3,0.6,0.6l0,0
						C297.3,179.1,297,179.4,296.7,179.4z"/>
				</g>
				<path class="st32" d="M296.4,186.5h-20.3c-1.5,0-2.7-1.2-2.7-2.7l0,0c0-1.5,1.2-2.7,2.7-2.7h20.3c1.5,0,2.7,1.2,2.7,2.7l0,0
					C299.1,185.3,297.9,186.5,296.4,186.5z"/>
			</g>
			<g>
				<circle class="st32" cx="272.8" cy="150" r="4"/>
				<text transform="matrix(1 0 0 1 271.6784 151.525)" class="st30 st11 st33">$</text>
			</g>
		</g>
		<path class="st34" d="M239.1,270.1h-70c-2.5,0-4.5-2-4.5-4.5l0,0c0-2.5,2-4.5,4.5-4.5h70c2.5,0,4.5,2,4.5,4.5l0,0
			C243.6,268.1,241.6,270.1,239.1,270.1z"/>
		<circle class="st35" cx="204.1" cy="222.6" r="7.5"/>
		<g>
			<defs>
				<polygon id="XMLID_11_" points="99.8,80.6 66.6,112.7 331.9,113 309.8,80.6 				"/>
			</defs>
			<use xlink:href="#XMLID_11_"  style="overflow:visible;fill:#2776B7;"/>
			<clipPath id="XMLID_21_">
				<use xlink:href="#XMLID_11_"  style="overflow:visible;"/>
			</clipPath>
			<polygon class="st36" points="86.7,113.1 113,79.9 128.5,80.5 107.1,113.1 			"/>
			<polygon class="st36" points="127.4,113.1 142.8,78.9 158.2,79.9 147.8,113.1 			"/>
			<polygon class="st36" points="168.8,113.1 176.7,79.2 191.7,79.6 189.2,113.1 			"/>
			<polygon class="st36" points="230.1,112.7 222.2,78.9 207.2,79.2 209.7,112.7 			"/>
			<polygon class="st36" points="311.3,112.7 288.4,79.2 273.1,78.9 290.8,112.7 			"/>
			<polygon class="st36" points="270.6,112.7 255.2,78.5 239.8,79.6 250.2,112.7 			"/>
		</g>
		<g>
			<path class="st37" d="M87.2,112.7c0,5.7-4.6,10.3-10.3,10.3c-5.7,0-10.3-4.6-10.3-10.3H87.2z"/>
			<path class="st38" d="M107.6,112.7c0,5.7-4.6,10.3-10.3,10.3c-5.7,0-10.3-4.6-10.3-10.3H107.6z"/>
			<path class="st37" d="M128,112.7c0,5.7-4.6,10.3-10.3,10.3c-5.7,0-10.3-4.6-10.3-10.3H128z"/>
			<path class="st38" d="M148.4,112.7c0,5.7-4.6,10.3-10.3,10.3c-5.7,0-10.3-4.6-10.3-10.3H148.4z"/>
			<path class="st37" d="M168.8,112.7c0,5.7-4.6,10.3-10.3,10.3c-5.7,0-10.3-4.6-10.3-10.3H168.8z"/>
			<path class="st38" d="M189.3,112.7c0,5.7-4.6,10.3-10.3,10.3s-10.3-4.6-10.3-10.3H189.3z"/>
			<path class="st37" d="M209.7,112.7c0,5.7-4.6,10.3-10.3,10.3c-5.7,0-10.3-4.6-10.3-10.3H209.7z"/>
			<path class="st38" d="M230.1,112.7c0,5.7-4.6,10.3-10.3,10.3c-5.7,0-10.3-4.6-10.3-10.3H230.1z"/>
			<path class="st37" d="M250.5,112.7c0,5.7-4.6,10.3-10.3,10.3c-5.7,0-10.3-4.6-10.3-10.3H250.5z"/>
			<path class="st38" d="M270.9,112.7c0,5.7-4.6,10.3-10.3,10.3c-5.7,0-10.3-4.6-10.3-10.3H270.9z"/>
		</g>
		<g>
			<path class="st37" d="M291.1,113c0,5.7-4.6,10.3-10.3,10.3c-5.7,0-10.3-4.6-10.3-10.3H291.1z"/>
			<path class="st38" d="M311.5,113c0,5.7-4.6,10.3-10.3,10.3c-5.7,0-10.3-4.6-10.3-10.3H311.5z"/>
			<path class="st37" d="M331.9,113c0,5.7-4.6,10.3-10.3,10.3s-10.3-4.6-10.3-10.3H331.9z"/>
		</g>
	</g>
	<g>
		<circle cx="82.4" cy="268.3" r="6.8"/>
		<path class="st39" d="M86.9,268.3c0,2.5-2,4.5-4.5,4.5c-2.5,0-4.5-2-4.5-4.5c0-2.5,2-4.5,4.5-4.5
			C84.9,263.8,86.9,265.9,86.9,268.3z"/>
		<circle cx="130.7" cy="269.3" r="6.8"/>
		<g>
			<polygon class="st40" points="65.3,186.9 158.1,186 147.8,238.4 76.8,239.3 			"/>
			<g>
				<g>
					<defs>
						<path id="XMLID_24_" d="M140.1,262.4c0,0.7-0.6,1.3-1.3,1.3l-69.4-0.4l-0.1-1.2c-0.7-8.6,5.3-11.9,7.9-13
							c-1.7-7.9-11.7-56.1-14.8-70.1c-1.3-5.8-5.2-9.3-11.6-10.4c-5-0.8-9.6,0.2-9.7,0.2l-0.6-2.5c0.2,0,5.1-1.1,10.6-0.2
							c7.4,1.2,12.2,5.5,13.7,12.4c3.4,15.3,14.9,70.7,15,71.3l0.3,1.2l-1.2,0.3c-0.3,0.1-6.5,1.7-7.2,8.3c-0.1,0.7,0.4,1.2,1.1,1.2
							l65.9,0.4C139.5,261.1,140.1,261.7,140.1,262.4L140.1,262.4z"/>
					</defs>
					<use xlink:href="#XMLID_24_"  style="overflow:visible;"/>
					<clipPath id="XMLID_26_">
						<use xlink:href="#XMLID_24_"  style="overflow:visible;"/>
					</clipPath>
					<g class="st41">
						<path class="st10" d="M77.9,248.6c-1.7-7.9-11.7-56.1-14.8-70.1c-1.3-5.8-5.2-9.3-11.6-10.4c-5-0.8-9.6,0.2-9.7,0.2l-0.4-1.7
							c-0.7,0.1-1.1,0.2-1.2,0.2l0.6,2.5c0,0,4.7-1,9.7-0.2c6.4,1.1,10.3,4.6,11.6,10.4c3.1,13.8,12.8,60.4,14.7,69.6
							C77.2,248.9,77.6,248.8,77.9,248.6z"/>
						<path class="st10" d="M74.7,253.9c1.9-1.6,3.9-2.2,4-2.2l1.2-0.3l-0.2-0.7l-0.1,0C79.5,250.8,76.7,251.5,74.7,253.9z"/>
						<path class="st10" d="M70.1,262.8l-0.1-1.2c-0.4-4.4,1-7.4,2.8-9.5c-2.3,2-4.3,5.3-3.8,10.5l0.1,1.2l70.7,0.4l0-1L70.1,262.8z
							"/>
					</g>
				</g>
			</g>
			<line class="st40" x1="80.9" y1="186.8" x2="88.8" y2="239.4"/>
			<line class="st40" x1="95.6" y1="186.8" x2="101.9" y2="239"/>
			<line class="st40" x1="142.5" y1="185.6" x2="133.7" y2="239"/>
			<line class="st40" x1="126.3" y1="186.8" x2="121.3" y2="239.2"/>
			<line class="st40" x1="67.9" y1="200.4" x2="155.8" y2="200.4"/>
			<line class="st40" x1="71.5" y1="215.8" x2="151.6" y2="216.2"/>
			<line class="st40" x1="111.6" y1="186.5" x2="111.6" y2="239.5"/>
			<g>
				<defs>
					<path id="XMLID_23_" d="M48.2,169.6H37.7c-1.4,0-2.5-1.1-2.5-2.5l0,0c0-1.4,1.1-2.5,2.5-2.5h10.5c1.4,0,2.5,1.1,2.5,2.5l0,0
						C50.7,168.5,49.6,169.6,48.2,169.6z"/>
				</defs>
				<use xlink:href="#XMLID_23_"  style="overflow:visible;fill:#2A81BC;"/>
				<clipPath id="XMLID_27_">
					<use xlink:href="#XMLID_23_"  style="overflow:visible;"/>
				</clipPath>
				<path class="st42" d="M49.7,167.7H37.9c-1.5,0-2.8-1.3-2.8-2.9c0-0.1,0-0.3,0-0.4c-0.7,0.5-1.2,1.4-1.2,2.3
					c0,1.6,1.3,2.9,2.8,2.9h11.8c1.4,0,2.6-1.1,2.8-2.5C50.9,167.5,50.3,167.7,49.7,167.7z"/>
			</g>
			<path class="st43" d="M84.5,268.3c0,1.2-0.9,2.1-2.1,2.1c-1.2,0-2.1-0.9-2.1-2.1c0-1.2,0.9-2.1,2.1-2.1
				C83.6,266.2,84.5,267.2,84.5,268.3z"/>
			<path class="st39" d="M135.2,269.3c0,2.5-2,4.5-4.5,4.5c-2.5,0-4.5-2-4.5-4.5c0-2.5,2-4.5,4.5-4.5
				C133.2,264.8,135.2,266.8,135.2,269.3z"/>
		</g>
		<path class="st43" d="M132.8,269.3c0,1.2-0.9,2.1-2.1,2.1s-2.1-0.9-2.1-2.1c0-1.2,0.9-2.1,2.1-2.1
			C131.8,267.2,132.8,268.2,132.8,269.3z"/>
	</g>
	<g>
		<g>
			<defs>
				<path id="XMLID_33_" d="M10.6,102.5L10.6,102.5c0.3-2.7,3.9-3.3,5.1-0.9l0,0l0,0c1.8-2,5.1-0.4,4.7,2.3l0,0l0,0
					c2.6-0.5,4.4,2.7,2.4,4.6l0,0v0c2.5,1.1,1.9,4.7-0.7,5.1l0,0l0,0c1.3,2.3-1.2,5-3.6,3.7l0,0l0,0c-0.3,2.7-3.9,3.3-5.1,0.9l0,0
					l0,0c-1.8,2-5.1,0.4-4.7-2.3l0,0l0,0c-2.6,0.5-4.4-2.7-2.4-4.6l0,0l0,0c-2.5-1.1-1.9-4.7,0.7-5.1l0,0l0,0
					C5.7,103.8,8.2,101.2,10.6,102.5L10.6,102.5z"/>
			</defs>
			<use xlink:href="#XMLID_33_"  style="overflow:visible;fill:#FCAF15;"/>
			<clipPath id="XMLID_28_">
				<use xlink:href="#XMLID_33_"  style="overflow:visible;"/>
			</clipPath>
			<path class="st44" d="M23.8,108.9L23.8,108.9c2-2,0.2-5.4-2.6-4.9c0.5-2.6-2.5-4.3-4.5-2.8c2.6-0.2,4.1,3,2.2,4.9l0,0
				c2.6,1.2,2,5-0.8,5.4c1.4,2.5-1.3,5.3-3.8,3.9c-0.3,2.8-4.1,3.5-5.4,0.9h0c-0.1,0.1-0.3,0.3-0.4,0.4c0.1,0,0.3,0,0.4,0
				c-0.5,2.8,3,4.5,4.9,2.4h0c1.3,2.6,5.1,1.9,5.4-0.9c2.5,1.3,5.2-1.4,3.8-3.9C25.9,113.9,26.4,110,23.8,108.9z"/>
		</g>
		<g>
			<text transform="matrix(0.9524 -0.1779 0.2005 0.9797 10.6078 114.837)" class="st10 st45 st46">%</text>
		</g>
	</g>
	<g>
		<g>
			<g>
				<defs>
					<path id="XMLID_36_" d="M24.4,140.4c-0.3,0-0.7-0.1-1-0.3c-0.6-0.5-0.7-1.5-0.2-2.1l8.2-9.9c0.5-0.6,1.5-0.7,2.1-0.2
						c0.6,0.5,0.7,1.5,0.2,2.1l-8.3,9.9C25.2,140.2,24.8,140.4,24.4,140.4z"/>
				</defs>
				<use xlink:href="#XMLID_36_"  style="overflow:visible;fill:#FFFFFF;"/>
				<clipPath id="XMLID_29_">
					<use xlink:href="#XMLID_36_"  style="overflow:visible;"/>
				</clipPath>
				<path id="XMLID_37_" class="st47" d="M37.1,132.5c-5.2,0-9.5-4.3-9.5-9.5s4.3-9.5,9.5-9.5s9.5,4.3,9.5,9.5
					S42.3,132.5,37.1,132.5z M37.1,116.5c-3.6,0-6.5,2.9-6.5,6.5s2.9,6.5,6.5,6.5s6.5-2.9,6.5-6.5S40.7,116.5,37.1,116.5z"/>
			</g>
		</g>
		<g>
			<defs>
				<path id="XMLID_13_" d="M30.7,135.6l-3.8,4.3c-1,1.1-2.7,1.2-3.8,0.3l0,0c-1.1-1-1.2-2.7-0.3-3.8l3.8-4.3L30.7,135.6z"/>
			</defs>
			<use xlink:href="#XMLID_13_"  style="overflow:visible;fill:#FFFFFF;"/>
			<clipPath id="XMLID_30_">
				<use xlink:href="#XMLID_13_"  style="overflow:visible;"/>
			</clipPath>
			<path class="st48" d="M30.4,134.4l-3.9,4.5c-1.1,1.3-3.2,1.4-4.5,0.3c-0.2-0.2-0.4-0.4-0.5-0.7c0,0.8,0.4,1.6,1.1,2.2
				c1.3,1.1,3.3,1,4.5-0.3l4.5-5.1L30.4,134.4z"/>
		</g>
		<g>
			<g>
				<defs>
					<path id="XMLID_12_" d="M37.5,131.9c-5.2,0-9.5-4.3-9.5-9.5c0-5.2,4.3-9.5,9.5-9.5c5.2,0,9.5,4.3,9.5,9.5
						C47,127.6,42.8,131.9,37.5,131.9z M37.5,115.9c-3.6,0-6.5,2.9-6.5,6.5s2.9,6.5,6.5,6.5s6.5-2.9,6.5-6.5S41.1,115.9,37.5,115.9z
						"/>
				</defs>
				<use xlink:href="#XMLID_12_"  style="overflow:visible;fill:#FFFFFF;"/>
				<clipPath id="XMLID_40_">
					<use xlink:href="#XMLID_12_"  style="overflow:visible;"/>
				</clipPath>
				<g class="st49">
					<path d="M29.7,122.1c0,2.9,2,5.4,4.8,6.2c-2.1-1.1-3.6-3.2-3.6-5.7c0-3.6,3.1-6.5,6.9-6.5c0.7,0,1.4,0.1,2.1,0.3
						c-1-0.5-2.1-0.8-3.3-0.8C32.8,115.6,29.7,118.5,29.7,122.1z"/>
					<path d="M41.1,113.6c3.2,1.6,5.5,4.8,5.5,8.5c0,5.2-4.5,9.5-10,9.5c-1.2,0-2.3-0.2-3.3-0.5c1.4,0.7,2.9,1,4.6,1
						c5.5,0,10-4.3,10-9.5C47.8,118.4,45,114.9,41.1,113.6z"/>
				</g>
			</g>
		</g>
	</g>
	<g>
		<path class="st22" d="M280.4,234.1l8,35.5c0.2,0.9-0.1,1.8-0.8,2.3l-7,5.4L280.4,234.1z"/>
		<g>
			<path class="st50" d="M276.2,240.2l-30.4,0.2c-2,0-3.6-1.6-3.6-3.5v0c0-2,1.6-3.6,3.5-3.6l30.4-0.2c2,0,3.6,1.6,3.6,3.5l0,0
				C279.7,238.6,278.1,240.2,276.2,240.2z"/>
			<g>
				<defs>
					<path id="XMLID_39_" d="M279.1,277.6l-36.7-0.4c-2.4,0-4.2-2.1-4.1-4.4l2.9-37.5c0.1-0.8,0.7-1.4,1.5-1.4l36.3-0.1
						c0.8,0,1.5,0.6,1.5,1.4l2.6,38C283.4,275.6,281.5,277.6,279.1,277.6z"/>
				</defs>
				<use xlink:href="#XMLID_39_"  style="overflow:visible;fill:#FF9F43;"/>
				<clipPath id="XMLID_41_">
					<use xlink:href="#XMLID_39_"  style="overflow:visible;"/>
				</clipPath>
				<g class="st51">
					<defs>
						<path id="XMLID_38_" class="st52" d="M282.7,234.3c2.5-0.4-5.2-3.7-7-3.7l-0.1,0c-0.8,0-1.5,0.7-1.4,1.6l0.2,2
							c2.1,22.5-15.7,41.9-38.3,41.6h0c-0.7,0-1.4,0.5-1.4,1.3l0,0c-0.3,2.1,1.4,4,3.5,4l41.7,0.5c2.1,0,3.8-1.8,3.6-3.9
							L282.7,234.3z"/>
					</defs>
					<use xlink:href="#XMLID_38_"  style="overflow:visible;opacity:0.4;fill:#FFFFFF;"/>
					<clipPath id="XMLID_42_">
						<use xlink:href="#XMLID_38_"  style="overflow:visible;opacity:0.4;"/>
					</clipPath>
				</g>
			</g>
			<path class="st53" d="M252.3,240.9c-0.3-10-0.7-19.1,8.7-19.1c9,0,9.9,8.4,9.5,19.2"/>
			<g>
				<path class="st50" d="M253.6,242.3c0,0.7-0.6,1.3-1.3,1.3c-0.7,0-1.3-0.6-1.3-1.3c0-0.7,0.6-1.3,1.3-1.3
					C253.1,241,253.6,241.5,253.6,242.3z"/>
			</g>
			<g>
				<path class="st50" d="M271.8,242.4c0,0.7-0.6,1.3-1.3,1.3c-0.7,0-1.3-0.6-1.3-1.3c0-0.7,0.6-1.3,1.3-1.3
					C271.2,241.1,271.8,241.7,271.8,242.4z"/>
			</g>
		</g>
	</g>
	<g>
		<path class="st22" d="M309.6,223.3l10.4,44.1c0.3,1.1-0.1,2.2-1,2.9l-8.6,6.9L309.6,223.3z"/>
		<g>
			<path class="st22" d="M304.4,230.9l-37.9,0.6c-2.4,0-4.4-1.9-4.5-4.3v0c0-2.4,1.9-4.4,4.3-4.5l37.9-0.6c2.4,0,4.4,1.9,4.5,4.3
				l0,0C308.8,228.9,306.9,230.9,304.4,230.9z"/>
			<g>
				<defs>
					<path id="XMLID_32_" d="M308.6,277.4l-45.7-0.1c-3,0-5.3-2.5-5.1-5.5l3.2-46.7c0.1-1,0.9-1.8,1.9-1.8l45.2-0.6
						c1,0,1.8,0.8,1.9,1.7l3.8,47.3C314,274.8,311.6,277.4,308.6,277.4z"/>
				</defs>
				<use xlink:href="#XMLID_32_"  style="overflow:visible;fill:#FECA57;"/>
				<clipPath id="XMLID_43_">
					<use xlink:href="#XMLID_32_"  style="overflow:visible;"/>
				</clipPath>
				<g class="st54">
					<defs>
						<path id="XMLID_31_" class="st52" d="M312.5,223.5c3.2-0.5-6.5-4.6-8.8-4.6l-0.2,0c-1.1,0-1.9,0.9-1.8,2l0.3,2.5
							c3,28-19,52.3-47.1,52.3l0,0c-0.9,0-1.7,0.7-1.8,1.6l0,0c-0.3,2.7,1.8,5,4.4,5l51.9,0.1c2.7,0,4.7-2.3,4.4-4.9L312.5,223.5z"
							/>
					</defs>
					<use xlink:href="#XMLID_31_"  style="overflow:visible;opacity:0.4;fill:#FFFFFF;"/>
					<clipPath id="XMLID_44_">
						<use xlink:href="#XMLID_31_"  style="overflow:visible;opacity:0.4;"/>
					</clipPath>
				</g>
			</g>
			<path class="st55" d="M274.8,232.1c-0.5-12.5-1.1-23.7,10.6-23.9c11.2-0.1,12.4,10.3,12.1,23.8"/>
			<g>
				<path class="st22" d="M276.4,233.8c0,0.9-0.7,1.6-1.6,1.6c-0.9,0-1.6-0.7-1.6-1.6s0.7-1.6,1.6-1.6
					C275.7,232.1,276.4,232.9,276.4,233.8z"/>
			</g>
			<g>
				<path class="st22" d="M299,233.7c0,0.9-0.7,1.6-1.6,1.6c-0.9,0-1.6-0.7-1.6-1.6c0-0.9,0.7-1.6,1.6-1.6
					C298.3,232.1,299,232.8,299,233.7z"/>
			</g>
		</g>
	</g>
</g>
</svg>
