<?xml version="1.0" encoding="utf-8"?>
<!-- Generator: Adobe Illustrator 23.0.0, SVG Export Plug-In . SVG Version: 6.00 Build 0)  -->
<svg version="1.1" id="Layer_1" xmlns="http://www.w3.org/2000/svg" xmlns:xlink="http://www.w3.org/1999/xlink" x="0px" y="0px"
	 viewBox="0 0 512 512" style="enable-background:new 0 0 512 512;" xml:space="preserve">
<g>
	<path d="M496.6,418.3c-12,0-24,0-35.2,0c0-5.4,0-10.3,0-15.2c0-35.8,0-71.5,0-107.3c0-1.5,0.1-3,0-4.4c-0.4-4.7-3.6-7.7-8-7.6
		c-4.2,0.1-7.3,3-7.7,7.5c-0.1,1.5-0.1,3-0.1,4.4c0,37.1,0,74.2,0,111.3c0,9.3-2.1,11.4-11.2,11.4c-119.2,0-238.4,0-357.5,0
		c-8.8,0-11-2.2-11-11.1c0-82.3,0-164.5,0-246.8c0-8.9,2.2-11.1,11-11.1c48.8,0,97.6,0,146.4,0c1.5,0,3,0.1,4.4,0
		c5-0.3,8.3-3.5,8.2-8c-0.1-4.3-3.3-7.4-8-7.8c-1-0.1-2,0-3,0c-49.6,0-99.2,0-148.9,0c-16.4,0-26.1,9.6-26.1,26.1
		c0,38.1,0,76.2,0,114.2c0,48,0,96.1,0,144.5c-11.7,0-23.8,0.2-36-0.1c-4.8-0.1-8.7,1-11.5,5c0,3.6,0,7.3,0,10.9
		c0.4,1.2,0.9,2.4,1.3,3.6c5.1,18.2,18.1,28,36.9,28c143.4,0,286.8,0,430.2,0c3.1,0,6.3,0,9.3-0.5c14.8-2.8,26.6-16.9,28.5-33.5
		C509.9,421.5,507.1,418.3,496.6,418.3z M472.8,450c-144.7,0-289.5,0-434.2,0c-9.5,0-16.6-5.9-18.8-15.7c157.2,0,314.5,0,471.7,0
		C489.4,444.1,482.4,450,472.8,450z"/>
	<path d="M149.4,61.5c0.6,0.3,1.1,0.7,1.7,1.1c93.9,61.9,187.8,123.8,281.8,185.7c20.8,13.7,41.5,27.4,62.3,41.1
		c3,2,6.6,3.8,9.5,1.1c2.2-2.1,3-5.7,4.3-8.7c0.2-0.4,0-1,0-1.5c0-74.2,0-148.3,0-222.5c0-9.1-2.3-11.4-11.4-11.4
		c-56.9,0-113.7,0-170.6,0c-40.7,0-81.4,0-122.1,0c-17,0-34,0-50.9,0c-4.3,0-7.4,1.7-8.6,5.9C144.1,56.3,146,59.4,149.4,61.5z
		 M239.6,62.4c1,6.2-1.9,15.5,8.3,15.4c9.8-0.1,7.3-8.9,8-15.3c15.7,0,31.1,0,47.3,0c0,2.5-0.1,5.1,0,7.6c0.3,4.7,3.5,7.9,7.8,7.9
		c4.3,0,7.6-3.2,7.9-7.8c0.2-2.4,0-4.9,0-7.6c15.9,0,31.4,0,47.3,0c0.7,6.3-1.9,14.8,8.4,15.4c5.4,0.3,7.1-3.3,7.8-15.3
		c15.5,0,31.1,0,47,0c1,6-1.9,15.3,8.3,15.2c9.8-0.1,7.3-9,7.9-15.3c15.7,0,31.1,0,46.9,0c0,68.5,0,136.9,0,206.4
		C388.5,200.1,284.6,131.7,179.5,62.4C200.4,62.4,219.8,62.4,239.6,62.4z"/>
	<path d="M206.5,219c-8.5-5-14.1-1.7-14.1,8.1c0,20.9,0,41.8,0,62.7c0,20.9,0,41.8,0,62.7c0,9.5,5.7,12.9,13.8,8.1
		c35.6-20.9,71.2-41.9,106.7-62.9c8.1-4.8,8-11.3-0.2-16.1C277.4,260.7,242,239.8,206.5,219z M208.6,341c0-34.3,0-68,0-102.5
		c28.9,17,57.5,33.9,87,51.2C266,307.1,237.6,323.9,208.6,341z"/>
	<path d="M451.1,93.9c-22.2,0-44.5,0-66.7,0c-22.4,0-44.8,0-67.2,0c-4.6,0-8.3,1.1-9.7,5.8c-1.3,4.5,1.1,7.4,4.8,9.8
		c45,29.5,90,59.1,134.9,88.7c3.2,2.1,6.3,3.7,10.1,1.5c3.7-2.1,4.2-5.5,4.2-9.3c-0.1-28.7,0-57.3,0-86
		C461.4,96.5,458.8,93.9,451.1,93.9z M445.5,178c-34.4-22.6-68.4-44.9-103.2-67.8c35,0,68.9,0,103.2,0
		C445.5,132.6,445.5,154.8,445.5,178z"/>
</g>
</svg>
