<?xml version="1.0" encoding="utf-8"?>
<!-- Generator: Adobe Illustrator 23.0.0, SVG Export Plug-In . SVG Version: 6.00 Build 0)  -->
<svg version="1.1" id="Decoration" xmlns="http://www.w3.org/2000/svg" xmlns:xlink="http://www.w3.org/1999/xlink" x="0px" y="0px"
	 viewBox="0 0 1386.2 1386.2" style="enable-background:new 0 0 1386.2 1386.2;" xml:space="preserve">
<style type="text/css">
	.st0{fill:none;stroke:#00CEB5;stroke-linecap:round;stroke-linejoin:round;stroke-miterlimit:10;}
	.st1{fill:#101011;}
	.st2{fill:none;stroke:#101011;stroke-width:0.5;stroke-linecap:round;stroke-linejoin:round;stroke-miterlimit:10;}
	.st3{fill:none;stroke:#101011;stroke-miterlimit:10;}
	.st4{fill:#00CEB5;}
	.st5{fill:none;stroke:#00CEB5;stroke-width:0.6416;stroke-linecap:round;stroke-linejoin:round;stroke-miterlimit:10;}
	.st6{clip-path:url(#XMLID_2_);}
	.st7{fill:none;stroke:#101011;stroke-width:0.7565;stroke-miterlimit:10;}
	.st8{fill:none;stroke:#101011;stroke-width:2;stroke-linecap:round;stroke-linejoin:round;stroke-miterlimit:10;}
	.st9{fill:none;stroke:#101011;stroke-width:1.0345;stroke-linecap:round;stroke-linejoin:round;stroke-miterlimit:10;}
	.st10{fill:none;stroke:#00CEB5;stroke-width:2;stroke-linecap:round;stroke-linejoin:round;stroke-miterlimit:10;}
	.st11{fill:none;stroke:#00CEB5;stroke-width:0.889;stroke-miterlimit:10;}
	.st12{fill:none;stroke:#00CEB5;stroke-width:0.5451;stroke-linecap:round;stroke-linejoin:round;stroke-miterlimit:10;}
	.st13{fill:none;stroke:#101011;stroke-width:0.5451;stroke-linecap:round;stroke-linejoin:round;stroke-miterlimit:10;}
	.st14{fill:none;stroke:#00CEB5;stroke-width:0.7065;stroke-miterlimit:10;}
</style>
<g id="XMLID_1633_">
	<path id="XMLID_1634_" class="st0" d="M594,1329.2c10.6,8.8,23.5,8.8,34.1,0l0,0c10.6-8.8,23.5-8.8,34.1,0l0,0
		c10.6,8.8,23.5,8.8,34.1,0l0,0c10.6-8.8,23.5-8.8,34.1,0l0,0c10.6,8.8,23.5,8.8,34.1,0"/>
</g>
<g id="XMLID_1421_">
	<g id="XMLID_1450_">
		<circle id="XMLID_1458_" class="st1" cx="1289.2" cy="1058.5" r="7.8"/>
	</g>
	<g id="XMLID_1441_">
		<path id="XMLID_1449_" class="st1" d="M1297,1011.5c0,4.3-3.5,7.8-7.8,7.8c-4.3,0-7.8-3.5-7.8-7.8c0-4.3,3.5-7.8,7.8-7.8
			C1293.5,1003.7,1297,1007.2,1297,1011.5z"/>
	</g>
</g>
<g id="XMLID_1319_">
	<g id="XMLID_1329_">
		<path id="XMLID_1333_" class="st2" d="M56.6,407.8c-2.5,0-4.5-2-4.5-4.5c0-2.5,2-4.5,4.5-4.5c2.5,0,4.5,2,4.5,4.5
			C61.1,405.7,59,407.8,56.6,407.8z"/>
		<path id="XMLID_1332_" class="st2" d="M56.6,436.6c-2.5,0-4.5-2-4.5-4.5c0-2.5,2-4.5,4.5-4.5c2.5,0,4.5,2,4.5,4.5
			C61.1,434.6,59,436.6,56.6,436.6z"/>
		<path id="XMLID_1331_" class="st2" d="M56.6,465.4c-2.5,0-4.5-2-4.5-4.5c0-2.5,2-4.5,4.5-4.5c2.5,0,4.5,2,4.5,4.5
			C61.1,463.4,59,465.4,56.6,465.4z"/>
		<path id="XMLID_1330_" class="st2" d="M56.6,494.2c-2.5,0-4.5-2-4.5-4.5c0-2.5,2-4.5,4.5-4.5c2.5,0,4.5,2,4.5,4.5
			C61.1,492.2,59,494.2,56.6,494.2z"/>
	</g>
	<g id="XMLID_1325_">
		<path id="XMLID_1328_" class="st2" d="M83.7,407.8c-2.5,0-4.5-2-4.5-4.5c0-2.5,2-4.5,4.5-4.5c2.5,0,4.5,2,4.5,4.5
			C88.2,405.7,86.2,407.8,83.7,407.8z"/>
		<path id="XMLID_1327_" class="st2" d="M83.7,436.6c-2.5,0-4.5-2-4.5-4.5c0-2.5,2-4.5,4.5-4.5c2.5,0,4.5,2,4.5,4.5
			C88.2,434.6,86.2,436.6,83.7,436.6z"/>
		<path id="XMLID_1326_" class="st2" d="M83.7,465.4c-2.5,0-4.5-2-4.5-4.5c0-2.5,2-4.5,4.5-4.5c2.5,0,4.5,2,4.5,4.5
			C88.2,463.4,86.2,465.4,83.7,465.4z"/>
	</g>
	<g id="XMLID_1322_">
		<path id="XMLID_1324_" class="st2" d="M110.9,407.8c-2.5,0-4.5-2-4.5-4.5c0-2.5,2-4.5,4.5-4.5c2.5,0,4.5,2,4.5,4.5
			C115.4,405.7,113.4,407.8,110.9,407.8z"/>
		<path id="XMLID_1323_" class="st2" d="M110.9,436.6c-2.5,0-4.5-2-4.5-4.5c0-2.5,2-4.5,4.5-4.5c2.5,0,4.5,2,4.5,4.5
			C115.4,434.6,113.4,436.6,110.9,436.6z"/>
	</g>
	<g id="XMLID_1320_">
		<path id="XMLID_1321_" class="st2" d="M138.1,407.8c-2.5,0-4.5-2-4.5-4.5c0-2.5,2-4.5,4.5-4.5c2.5,0,4.5,2,4.5,4.5
			C142.6,405.7,140.6,407.8,138.1,407.8z"/>
	</g>
</g>
<g id="XMLID_1268_">
	<line id="XMLID_1273_" class="st3" x1="335.7" y1="1046.7" x2="480.6" y2="1191.6"/>
	<g id="XMLID_1269_">
		<line id="XMLID_1272_" class="st3" x1="460.2" y1="1212" x2="315.2" y2="1067.1"/>
		<path id="XMLID_1271_" class="st3" d="M335.7,1067.1c-5.6,5.6-14.8,5.6-20.4,0c-5.6-5.6-5.6-14.8,0-20.4c5.6-5.6,14.8-5.6,20.4,0
			S341.3,1061.4,335.7,1067.1z"/>
		<path id="XMLID_1270_" class="st3" d="M480.6,1191.6c5.6,5.6,5.6,14.8,0,20.4c-5.6,5.6-14.8,5.6-20.4,0"/>
	</g>
</g>
<g id="XMLID_1256_">
	<polygon id="XMLID_1654_" class="st4" points="1117.5,380.5 1149.2,398.8 1117.5,417.1 	"/>
	<polygon id="XMLID_645_" class="st4" points="1163.3,380.5 1195,398.8 1163.3,417.1 	"/>
	<polygon id="XMLID_644_" class="st4" points="1209.1,380.5 1240.8,398.8 1209.1,417.1 	"/>
</g>
<g id="XMLID_1224_">
	<g id="XMLID_1225_">
		<line id="XMLID_1234_" class="st5" x1="446.6" y1="81.4" x2="471.1" y2="106"/>
		<line id="XMLID_1233_" class="st5" x1="471.9" y1="66.8" x2="565.6" y2="160.5"/>
		<line id="XMLID_1232_" class="st5" x1="497.2" y1="52.2" x2="657.3" y2="212.3"/>
		<line id="XMLID_1231_" class="st5" x1="522.5" y1="37.6" x2="657.3" y2="172.3"/>
		<line id="XMLID_1230_" class="st5" x1="547.9" y1="22.9" x2="657.3" y2="132.4"/>
	</g>
</g>
<g id="XMLID_1112_">
	<defs>
		
			<rect id="XMLID_1113_" x="820.9" y="997.5" transform="matrix(0.7071 0.7071 -0.7071 0.7071 1019.5875 -318.8889)" width="147.7" height="147.7"/>
	</defs>
	<clipPath id="XMLID_2_">
		<use xlink:href="#XMLID_1113_"  style="overflow:visible;"/>
	</clipPath>
	<g id="XMLID_1114_" class="st6">
		<g id="XMLID_1115_">
			<circle id="XMLID_1120_" class="st7" cx="894.7" cy="1071.3" r="96.3"/>
			<circle id="XMLID_1119_" class="st7" cx="894.7" cy="1071.3" r="76.7"/>
			<circle id="XMLID_1118_" class="st7" cx="894.7" cy="1071.3" r="57.1"/>
			<circle id="XMLID_1117_" class="st7" cx="894.7" cy="1071.3" r="37.5"/>
			<circle id="XMLID_1116_" class="st7" cx="894.7" cy="1071.3" r="17.9"/>
		</g>
	</g>
</g>
<g id="XMLID_1106_">
	<rect id="XMLID_1108_" x="259.8" y="609.4" class="st1" width="9.2" height="42.6"/>
	
		<rect id="XMLID_1107_" x="259.8" y="609.4" transform="matrix(-1.836970e-16 1 -1 -1.836970e-16 895.0929 366.3029)" class="st1" width="9.2" height="42.6"/>
</g>
<g id="XMLID_1100_">
	
		<rect id="XMLID_1102_" x="733.6" y="364.7" transform="matrix(0.7071 0.7071 -0.7071 0.7071 494.6071 -407.9318)" class="st1" width="12.2" height="56.8"/>
	
		<rect id="XMLID_1101_" x="733.6" y="364.7" transform="matrix(-0.7071 0.7071 -0.7071 -0.7071 1540.7347 147.9789)" class="st1" width="12.2" height="56.8"/>
</g>
<circle id="XMLID_1096_" class="st8" cx="1292.3" cy="210.5" r="21.7"/>
<path id="XMLID_1095_" class="st9" d="M1010.4,1269.8c0,6.2-5,11.2-11.2,11.2c-6.2,0-11.2-5-11.2-11.2s5-11.2,11.2-11.2
	C1005.4,1258.5,1010.4,1263.6,1010.4,1269.8z"/>
<path id="XMLID_1092_" class="st10" d="M382.3,269.8c0,6.2-5,11.2-11.2,11.2s-11.2-5-11.2-11.2c0-6.2,5-11.2,11.2-11.2
	S382.3,263.6,382.3,269.8z"/>
<path id="XMLID_643_" class="st10" d="M1303.1,599.9c0,6.2-5,11.2-11.2,11.2s-11.2-5-11.2-11.2c0-6.2,5-11.2,11.2-11.2
	S1303.1,593.7,1303.1,599.9z"/>
<circle id="XMLID_1091_" class="st10" cx="1198.1" cy="1097.8" r="11.2"/>
<path id="XMLID_1090_" class="st4" d="M652.1,1083.7c0,8.4-6.8,15.2-15.2,15.2c-8.4,0-15.2-6.8-15.2-15.2s6.8-15.2,15.2-15.2
	C645.3,1068.5,652.1,1075.3,652.1,1083.7z"/>
<circle id="XMLID_1088_" class="st4" cx="1139.3" cy="951.4" r="10.2"/>
<g id="XMLID_1013_">
	<g id="XMLID_1015_">
		<g id="XMLID_1079_">
			<path id="XMLID_1087_" class="st1" d="M31,1119.5c0,1.6-1.3,3-3,3c-1.6,0-3-1.3-3-3s1.3-3,3-3C29.7,1116.6,31,1117.9,31,1119.5z"
				/>
			<path id="XMLID_1086_" class="st1" d="M50,1119.5c0,1.6-1.3,3-3,3c-1.6,0-3-1.3-3-3s1.3-3,3-3C48.7,1116.6,50,1117.9,50,1119.5z"
				/>
			<path id="XMLID_1085_" class="st1" d="M68.9,1119.5c0,1.6-1.3,3-3,3c-1.6,0-3-1.3-3-3s1.3-3,3-3
				C67.6,1116.6,68.9,1117.9,68.9,1119.5z"/>
			<path id="XMLID_1084_" class="st1" d="M87.9,1119.5c0,1.6-1.3,3-3,3c-1.6,0-3-1.3-3-3s1.3-3,3-3
				C86.6,1116.6,87.9,1117.9,87.9,1119.5z"/>
			<path id="XMLID_1083_" class="st1" d="M106.9,1119.5c0,1.6-1.3,3-3,3c-1.6,0-3-1.3-3-3s1.3-3,3-3
				C105.6,1116.6,106.9,1117.9,106.9,1119.5z"/>
			<path id="XMLID_1082_" class="st1" d="M125.9,1119.5c0,1.6-1.3,3-3,3c-1.6,0-3-1.3-3-3s1.3-3,3-3
				C124.5,1116.6,125.9,1117.9,125.9,1119.5z"/>
			<path id="XMLID_1081_" class="st1" d="M144.8,1119.5c0,1.6-1.3,3-3,3c-1.6,0-3-1.3-3-3s1.3-3,3-3
				C143.5,1116.6,144.8,1117.9,144.8,1119.5z"/>
			<path id="XMLID_1080_" class="st1" d="M163.8,1119.5c0,1.6-1.3,3-3,3c-1.6,0-3-1.3-3-3s1.3-3,3-3
				C162.5,1116.6,163.8,1117.9,163.8,1119.5z"/>
		</g>
		<g id="XMLID_1070_">
			<path id="XMLID_1078_" class="st1" d="M31,1101.6c0,1.6-1.3,3-3,3c-1.6,0-3-1.3-3-3s1.3-3,3-3C29.7,1098.7,31,1100,31,1101.6z"/>
			<path id="XMLID_1077_" class="st1" d="M50,1101.6c0,1.6-1.3,3-3,3c-1.6,0-3-1.3-3-3s1.3-3,3-3C48.7,1098.7,50,1100,50,1101.6z"/>
			<path id="XMLID_1076_" class="st1" d="M68.9,1101.6c0,1.6-1.3,3-3,3c-1.6,0-3-1.3-3-3s1.3-3,3-3
				C67.6,1098.7,68.9,1100,68.9,1101.6z"/>
			<path id="XMLID_1075_" class="st1" d="M87.9,1101.6c0,1.6-1.3,3-3,3c-1.6,0-3-1.3-3-3s1.3-3,3-3
				C86.6,1098.7,87.9,1100,87.9,1101.6z"/>
			<path id="XMLID_1074_" class="st1" d="M106.9,1101.6c0,1.6-1.3,3-3,3c-1.6,0-3-1.3-3-3s1.3-3,3-3
				C105.6,1098.7,106.9,1100,106.9,1101.6z"/>
			<path id="XMLID_1073_" class="st1" d="M125.9,1101.6c0,1.6-1.3,3-3,3c-1.6,0-3-1.3-3-3s1.3-3,3-3
				C124.5,1098.7,125.9,1100,125.9,1101.6z"/>
			<path id="XMLID_1072_" class="st1" d="M144.8,1101.6c0,1.6-1.3,3-3,3c-1.6,0-3-1.3-3-3s1.3-3,3-3
				C143.5,1098.7,144.8,1100,144.8,1101.6z"/>
			<path id="XMLID_1071_" class="st1" d="M163.8,1101.6c0,1.6-1.3,3-3,3c-1.6,0-3-1.3-3-3s1.3-3,3-3
				C162.5,1098.7,163.8,1100,163.8,1101.6z"/>
		</g>
		<g id="XMLID_1061_">
			<path id="XMLID_1069_" class="st1" d="M31,1083.7c0,1.6-1.3,3-3,3c-1.6,0-3-1.3-3-3s1.3-3,3-3C29.7,1080.8,31,1082.1,31,1083.7z"
				/>
			<path id="XMLID_1068_" class="st1" d="M50,1083.7c0,1.6-1.3,3-3,3c-1.6,0-3-1.3-3-3s1.3-3,3-3C48.7,1080.8,50,1082.1,50,1083.7z"
				/>
			<path id="XMLID_1067_" class="st1" d="M68.9,1083.7c0,1.6-1.3,3-3,3c-1.6,0-3-1.3-3-3s1.3-3,3-3
				C67.6,1080.8,68.9,1082.1,68.9,1083.7z"/>
			<path id="XMLID_1066_" class="st1" d="M87.9,1083.7c0,1.6-1.3,3-3,3c-1.6,0-3-1.3-3-3s1.3-3,3-3
				C86.6,1080.8,87.9,1082.1,87.9,1083.7z"/>
			<path id="XMLID_1065_" class="st1" d="M106.9,1083.7c0,1.6-1.3,3-3,3c-1.6,0-3-1.3-3-3s1.3-3,3-3
				C105.6,1080.8,106.9,1082.1,106.9,1083.7z"/>
			<path id="XMLID_1064_" class="st1" d="M125.9,1083.7c0,1.6-1.3,3-3,3c-1.6,0-3-1.3-3-3s1.3-3,3-3
				C124.5,1080.8,125.9,1082.1,125.9,1083.7z"/>
			<path id="XMLID_1063_" class="st1" d="M144.8,1083.7c0,1.6-1.3,3-3,3c-1.6,0-3-1.3-3-3s1.3-3,3-3
				C143.5,1080.8,144.8,1082.1,144.8,1083.7z"/>
			<path id="XMLID_1062_" class="st1" d="M163.8,1083.7c0,1.6-1.3,3-3,3c-1.6,0-3-1.3-3-3s1.3-3,3-3
				C162.5,1080.8,163.8,1082.1,163.8,1083.7z"/>
		</g>
		<g id="XMLID_1052_">
			<path id="XMLID_1060_" class="st1" d="M31,1065.8c0,1.6-1.3,3-3,3c-1.6,0-3-1.3-3-3s1.3-3,3-3C29.7,1062.9,31,1064.2,31,1065.8z"
				/>
			<path id="XMLID_1059_" class="st1" d="M50,1065.8c0,1.6-1.3,3-3,3c-1.6,0-3-1.3-3-3s1.3-3,3-3C48.7,1062.9,50,1064.2,50,1065.8z"
				/>
			<path id="XMLID_1058_" class="st1" d="M68.9,1065.8c0,1.6-1.3,3-3,3c-1.6,0-3-1.3-3-3s1.3-3,3-3
				C67.6,1062.9,68.9,1064.2,68.9,1065.8z"/>
			<path id="XMLID_1057_" class="st1" d="M87.9,1065.8c0,1.6-1.3,3-3,3c-1.6,0-3-1.3-3-3s1.3-3,3-3
				C86.6,1062.9,87.9,1064.2,87.9,1065.8z"/>
			<path id="XMLID_1056_" class="st1" d="M106.9,1065.8c0,1.6-1.3,3-3,3c-1.6,0-3-1.3-3-3s1.3-3,3-3
				C105.6,1062.9,106.9,1064.2,106.9,1065.8z"/>
			<path id="XMLID_1055_" class="st1" d="M125.9,1065.8c0,1.6-1.3,3-3,3c-1.6,0-3-1.3-3-3s1.3-3,3-3
				C124.5,1062.9,125.9,1064.2,125.9,1065.8z"/>
			<path id="XMLID_1054_" class="st1" d="M144.8,1065.8c0,1.6-1.3,3-3,3c-1.6,0-3-1.3-3-3s1.3-3,3-3
				C143.5,1062.9,144.8,1064.2,144.8,1065.8z"/>
			<path id="XMLID_1053_" class="st1" d="M163.8,1065.8c0,1.6-1.3,3-3,3c-1.6,0-3-1.3-3-3s1.3-3,3-3
				C162.5,1062.9,163.8,1064.2,163.8,1065.8z"/>
		</g>
		<g id="XMLID_1043_">
			<path id="XMLID_1051_" class="st1" d="M31,1047.9c0,1.6-1.3,3-3,3c-1.6,0-3-1.3-3-3s1.3-3,3-3C29.7,1045,31,1046.3,31,1047.9z"/>
			<path id="XMLID_1050_" class="st1" d="M50,1047.9c0,1.6-1.3,3-3,3c-1.6,0-3-1.3-3-3s1.3-3,3-3C48.7,1045,50,1046.3,50,1047.9z"/>
			<path id="XMLID_1049_" class="st1" d="M68.9,1047.9c0,1.6-1.3,3-3,3c-1.6,0-3-1.3-3-3s1.3-3,3-3
				C67.6,1045,68.9,1046.3,68.9,1047.9z"/>
			<path id="XMLID_1048_" class="st1" d="M87.9,1047.9c0,1.6-1.3,3-3,3c-1.6,0-3-1.3-3-3s1.3-3,3-3
				C86.6,1045,87.9,1046.3,87.9,1047.9z"/>
			<path id="XMLID_1047_" class="st1" d="M106.9,1047.9c0,1.6-1.3,3-3,3c-1.6,0-3-1.3-3-3s1.3-3,3-3
				C105.6,1045,106.9,1046.3,106.9,1047.9z"/>
			<path id="XMLID_1046_" class="st1" d="M125.9,1047.9c0,1.6-1.3,3-3,3c-1.6,0-3-1.3-3-3s1.3-3,3-3
				C124.5,1045,125.9,1046.3,125.9,1047.9z"/>
			<path id="XMLID_1045_" class="st1" d="M144.8,1047.9c0,1.6-1.3,3-3,3c-1.6,0-3-1.3-3-3s1.3-3,3-3
				C143.5,1045,144.8,1046.3,144.8,1047.9z"/>
			<path id="XMLID_1044_" class="st1" d="M163.8,1047.9c0,1.6-1.3,3-3,3c-1.6,0-3-1.3-3-3s1.3-3,3-3
				C162.5,1045,163.8,1046.3,163.8,1047.9z"/>
		</g>
		<g id="XMLID_1034_">
			<path id="XMLID_1042_" class="st1" d="M31,1030c0,1.6-1.3,3-3,3c-1.6,0-3-1.3-3-3s1.3-3,3-3C29.7,1027.1,31,1028.4,31,1030z"/>
			<path id="XMLID_1041_" class="st1" d="M50,1030c0,1.6-1.3,3-3,3c-1.6,0-3-1.3-3-3s1.3-3,3-3C48.7,1027.1,50,1028.4,50,1030z"/>
			<path id="XMLID_1040_" class="st1" d="M68.9,1030c0,1.6-1.3,3-3,3c-1.6,0-3-1.3-3-3s1.3-3,3-3C67.6,1027.1,68.9,1028.4,68.9,1030
				z"/>
			<path id="XMLID_1039_" class="st1" d="M87.9,1030c0,1.6-1.3,3-3,3c-1.6,0-3-1.3-3-3s1.3-3,3-3C86.6,1027.1,87.9,1028.4,87.9,1030
				z"/>
			<path id="XMLID_1038_" class="st1" d="M106.9,1030c0,1.6-1.3,3-3,3c-1.6,0-3-1.3-3-3s1.3-3,3-3
				C105.6,1027.1,106.9,1028.4,106.9,1030z"/>
			<path id="XMLID_1037_" class="st1" d="M125.9,1030c0,1.6-1.3,3-3,3c-1.6,0-3-1.3-3-3s1.3-3,3-3
				C124.5,1027.1,125.9,1028.4,125.9,1030z"/>
			<path id="XMLID_1036_" class="st1" d="M144.8,1030c0,1.6-1.3,3-3,3c-1.6,0-3-1.3-3-3s1.3-3,3-3
				C143.5,1027.1,144.8,1028.4,144.8,1030z"/>
			<path id="XMLID_1035_" class="st1" d="M163.8,1030c0,1.6-1.3,3-3,3c-1.6,0-3-1.3-3-3s1.3-3,3-3
				C162.5,1027.1,163.8,1028.4,163.8,1030z"/>
		</g>
		<g id="XMLID_1025_">
			<path id="XMLID_1033_" class="st1" d="M31,1012.1c0,1.6-1.3,3-3,3c-1.6,0-3-1.3-3-3s1.3-3,3-3C29.7,1009.1,31,1010.5,31,1012.1z"
				/>
			<path id="XMLID_1032_" class="st1" d="M50,1012.1c0,1.6-1.3,3-3,3c-1.6,0-3-1.3-3-3s1.3-3,3-3C48.7,1009.1,50,1010.5,50,1012.1z"
				/>
			<path id="XMLID_1031_" class="st1" d="M68.9,1012.1c0,1.6-1.3,3-3,3c-1.6,0-3-1.3-3-3s1.3-3,3-3
				C67.6,1009.1,68.9,1010.5,68.9,1012.1z"/>
			<path id="XMLID_1030_" class="st1" d="M87.9,1012.1c0,1.6-1.3,3-3,3c-1.6,0-3-1.3-3-3s1.3-3,3-3
				C86.6,1009.1,87.9,1010.5,87.9,1012.1z"/>
			<path id="XMLID_1029_" class="st1" d="M106.9,1012.1c0,1.6-1.3,3-3,3c-1.6,0-3-1.3-3-3s1.3-3,3-3
				C105.6,1009.1,106.9,1010.5,106.9,1012.1z"/>
			<path id="XMLID_1028_" class="st1" d="M125.9,1012.1c0,1.6-1.3,3-3,3c-1.6,0-3-1.3-3-3s1.3-3,3-3
				C124.5,1009.1,125.9,1010.5,125.9,1012.1z"/>
			<path id="XMLID_1027_" class="st1" d="M144.8,1012.1c0,1.6-1.3,3-3,3c-1.6,0-3-1.3-3-3s1.3-3,3-3
				C143.5,1009.1,144.8,1010.5,144.8,1012.1z"/>
			<path id="XMLID_1026_" class="st1" d="M163.8,1012.1c0,1.6-1.3,3-3,3c-1.6,0-3-1.3-3-3s1.3-3,3-3
				C162.5,1009.1,163.8,1010.5,163.8,1012.1z"/>
		</g>
		<g id="XMLID_1016_">
			<path id="XMLID_1024_" class="st1" d="M31,994.2c0,1.6-1.3,3-3,3c-1.6,0-3-1.3-3-3c0-1.6,1.3-3,3-3C29.7,991.2,31,992.6,31,994.2
				z"/>
			<path id="XMLID_1023_" class="st1" d="M50,994.2c0,1.6-1.3,3-3,3c-1.6,0-3-1.3-3-3c0-1.6,1.3-3,3-3C48.7,991.2,50,992.6,50,994.2
				z"/>
			<path id="XMLID_1022_" class="st1" d="M68.9,994.2c0,1.6-1.3,3-3,3c-1.6,0-3-1.3-3-3c0-1.6,1.3-3,3-3
				C67.6,991.2,68.9,992.6,68.9,994.2z"/>
			<path id="XMLID_1021_" class="st1" d="M87.9,994.2c0,1.6-1.3,3-3,3c-1.6,0-3-1.3-3-3c0-1.6,1.3-3,3-3
				C86.6,991.2,87.9,992.6,87.9,994.2z"/>
			<path id="XMLID_1020_" class="st1" d="M106.9,994.2c0,1.6-1.3,3-3,3c-1.6,0-3-1.3-3-3c0-1.6,1.3-3,3-3
				C105.6,991.2,106.9,992.6,106.9,994.2z"/>
			<path id="XMLID_1019_" class="st1" d="M125.9,994.2c0,1.6-1.3,3-3,3c-1.6,0-3-1.3-3-3c0-1.6,1.3-3,3-3
				C124.5,991.2,125.9,992.6,125.9,994.2z"/>
			<path id="XMLID_1018_" class="st1" d="M144.8,994.2c0,1.6-1.3,3-3,3c-1.6,0-3-1.3-3-3c0-1.6,1.3-3,3-3
				C143.5,991.2,144.8,992.6,144.8,994.2z"/>
			<path id="XMLID_1017_" class="st1" d="M163.8,994.2c0,1.6-1.3,3-3,3c-1.6,0-3-1.3-3-3c0-1.6,1.3-3,3-3
				C162.5,991.2,163.8,992.6,163.8,994.2z"/>
		</g>
	</g>
	<path id="XMLID_1014_" class="st11" d="M221.6,1185.5H93.2c-0.9,0-1.6-0.7-1.6-1.6v-128.4c0-0.9,0.7-1.6,1.6-1.6h128.4
		c0.9,0,1.6,0.7,1.6,1.6v128.4C223.2,1184.7,222.5,1185.5,221.6,1185.5z"/>
</g>
<g id="XMLID_938_">
	<g id="XMLID_940_">
		<g id="XMLID_1004_">
			<path id="XMLID_1012_" class="st1" d="M955.4,250.6c1.6,0,3,1.3,3,3s-1.3,3-3,3c-1.6,0-3-1.3-3-3S953.7,250.6,955.4,250.6z"/>
			<path id="XMLID_1011_" class="st1" d="M955.4,231.6c1.6,0,3,1.3,3,3s-1.3,3-3,3c-1.6,0-3-1.3-3-3S953.7,231.6,955.4,231.6z"/>
			<path id="XMLID_1010_" class="st1" d="M955.4,212.6c1.6,0,3,1.3,3,3s-1.3,3-3,3c-1.6,0-3-1.3-3-3S953.7,212.6,955.4,212.6z"/>
			<path id="XMLID_1009_" class="st1" d="M955.4,193.7c1.6,0,3,1.3,3,3s-1.3,3-3,3c-1.6,0-3-1.3-3-3S953.7,193.7,955.4,193.7z"/>
			<path id="XMLID_1008_" class="st1" d="M955.4,174.7c1.6,0,3,1.3,3,3c0,1.6-1.3,3-3,3c-1.6,0-3-1.3-3-3
				C952.4,176,953.7,174.7,955.4,174.7z"/>
			<path id="XMLID_1007_" class="st1" d="M955.4,155.7c1.6,0,3,1.3,3,3s-1.3,3-3,3c-1.6,0-3-1.3-3-3S953.7,155.7,955.4,155.7z"/>
			<path id="XMLID_1006_" class="st1" d="M955.4,136.8c1.6,0,3,1.3,3,3s-1.3,3-3,3c-1.6,0-3-1.3-3-3S953.7,136.8,955.4,136.8z"/>
			<path id="XMLID_1005_" class="st1" d="M955.4,117.8c1.6,0,3,1.3,3,3s-1.3,3-3,3c-1.6,0-3-1.3-3-3S953.7,117.8,955.4,117.8z"/>
		</g>
		<g id="XMLID_995_">
			<path id="XMLID_1003_" class="st1" d="M937.5,250.6c1.6,0,3,1.3,3,3s-1.3,3-3,3c-1.6,0-3-1.3-3-3S935.8,250.6,937.5,250.6z"/>
			<path id="XMLID_1002_" class="st1" d="M937.5,231.6c1.6,0,3,1.3,3,3s-1.3,3-3,3c-1.6,0-3-1.3-3-3S935.8,231.6,937.5,231.6z"/>
			<path id="XMLID_1001_" class="st1" d="M937.5,212.6c1.6,0,3,1.3,3,3s-1.3,3-3,3c-1.6,0-3-1.3-3-3S935.8,212.6,937.5,212.6z"/>
			<path id="XMLID_1000_" class="st1" d="M937.5,193.7c1.6,0,3,1.3,3,3s-1.3,3-3,3c-1.6,0-3-1.3-3-3S935.8,193.7,937.5,193.7z"/>
			<path id="XMLID_999_" class="st1" d="M937.5,174.7c1.6,0,3,1.3,3,3c0,1.6-1.3,3-3,3c-1.6,0-3-1.3-3-3
				C934.5,176,935.8,174.7,937.5,174.7z"/>
			<path id="XMLID_998_" class="st1" d="M937.5,155.7c1.6,0,3,1.3,3,3s-1.3,3-3,3c-1.6,0-3-1.3-3-3S935.8,155.7,937.5,155.7z"/>
			<path id="XMLID_997_" class="st1" d="M937.5,136.8c1.6,0,3,1.3,3,3s-1.3,3-3,3c-1.6,0-3-1.3-3-3S935.8,136.8,937.5,136.8z"/>
			<path id="XMLID_996_" class="st1" d="M937.5,117.8c1.6,0,3,1.3,3,3s-1.3,3-3,3c-1.6,0-3-1.3-3-3S935.8,117.8,937.5,117.8z"/>
		</g>
		<g id="XMLID_986_">
			<path id="XMLID_994_" class="st1" d="M919.6,250.6c1.6,0,3,1.3,3,3s-1.3,3-3,3c-1.6,0-3-1.3-3-3S917.9,250.6,919.6,250.6z"/>
			<path id="XMLID_993_" class="st1" d="M919.6,231.6c1.6,0,3,1.3,3,3s-1.3,3-3,3c-1.6,0-3-1.3-3-3S917.9,231.6,919.6,231.6z"/>
			<path id="XMLID_992_" class="st1" d="M919.6,212.6c1.6,0,3,1.3,3,3s-1.3,3-3,3c-1.6,0-3-1.3-3-3S917.9,212.6,919.6,212.6z"/>
			<path id="XMLID_991_" class="st1" d="M919.6,193.7c1.6,0,3,1.3,3,3s-1.3,3-3,3c-1.6,0-3-1.3-3-3S917.9,193.7,919.6,193.7z"/>
			<path id="XMLID_990_" class="st1" d="M919.6,174.7c1.6,0,3,1.3,3,3c0,1.6-1.3,3-3,3c-1.6,0-3-1.3-3-3
				C916.6,176,917.9,174.7,919.6,174.7z"/>
			<path id="XMLID_989_" class="st1" d="M919.6,155.7c1.6,0,3,1.3,3,3s-1.3,3-3,3c-1.6,0-3-1.3-3-3S917.9,155.7,919.6,155.7z"/>
			<path id="XMLID_988_" class="st1" d="M919.6,136.8c1.6,0,3,1.3,3,3s-1.3,3-3,3c-1.6,0-3-1.3-3-3S917.9,136.8,919.6,136.8z"/>
			<path id="XMLID_987_" class="st1" d="M919.6,117.8c1.6,0,3,1.3,3,3s-1.3,3-3,3c-1.6,0-3-1.3-3-3S917.9,117.8,919.6,117.8z"/>
		</g>
		<g id="XMLID_977_">
			<path id="XMLID_985_" class="st1" d="M901.7,250.6c1.6,0,3,1.3,3,3s-1.3,3-3,3s-3-1.3-3-3S900,250.6,901.7,250.6z"/>
			<path id="XMLID_984_" class="st1" d="M901.7,231.6c1.6,0,3,1.3,3,3s-1.3,3-3,3s-3-1.3-3-3S900,231.6,901.7,231.6z"/>
			<path id="XMLID_983_" class="st1" d="M901.7,212.6c1.6,0,3,1.3,3,3s-1.3,3-3,3s-3-1.3-3-3S900,212.6,901.7,212.6z"/>
			<path id="XMLID_982_" class="st1" d="M901.7,193.7c1.6,0,3,1.3,3,3s-1.3,3-3,3s-3-1.3-3-3S900,193.7,901.7,193.7z"/>
			<path id="XMLID_981_" class="st1" d="M901.7,174.7c1.6,0,3,1.3,3,3c0,1.6-1.3,3-3,3s-3-1.3-3-3C898.7,176,900,174.7,901.7,174.7z
				"/>
			<path id="XMLID_980_" class="st1" d="M901.7,155.7c1.6,0,3,1.3,3,3s-1.3,3-3,3s-3-1.3-3-3S900,155.7,901.7,155.7z"/>
			<path id="XMLID_979_" class="st1" d="M901.7,136.8c1.6,0,3,1.3,3,3s-1.3,3-3,3s-3-1.3-3-3S900,136.8,901.7,136.8z"/>
			<path id="XMLID_978_" class="st1" d="M901.7,117.8c1.6,0,3,1.3,3,3s-1.3,3-3,3s-3-1.3-3-3S900,117.8,901.7,117.8z"/>
		</g>
		<g id="XMLID_968_">
			<path id="XMLID_976_" class="st1" d="M883.8,250.6c1.6,0,3,1.3,3,3s-1.3,3-3,3c-1.6,0-3-1.3-3-3S882.1,250.6,883.8,250.6z"/>
			<path id="XMLID_975_" class="st1" d="M883.8,231.6c1.6,0,3,1.3,3,3s-1.3,3-3,3c-1.6,0-3-1.3-3-3S882.1,231.6,883.8,231.6z"/>
			<path id="XMLID_974_" class="st1" d="M883.8,212.6c1.6,0,3,1.3,3,3s-1.3,3-3,3c-1.6,0-3-1.3-3-3S882.1,212.6,883.8,212.6z"/>
			<path id="XMLID_973_" class="st1" d="M883.8,193.7c1.6,0,3,1.3,3,3s-1.3,3-3,3c-1.6,0-3-1.3-3-3S882.1,193.7,883.8,193.7z"/>
			<path id="XMLID_972_" class="st1" d="M883.8,174.7c1.6,0,3,1.3,3,3c0,1.6-1.3,3-3,3c-1.6,0-3-1.3-3-3
				C880.8,176,882.1,174.7,883.8,174.7z"/>
			<path id="XMLID_971_" class="st1" d="M883.8,155.7c1.6,0,3,1.3,3,3s-1.3,3-3,3c-1.6,0-3-1.3-3-3S882.1,155.7,883.8,155.7z"/>
			<path id="XMLID_970_" class="st1" d="M883.8,136.8c1.6,0,3,1.3,3,3s-1.3,3-3,3c-1.6,0-3-1.3-3-3S882.1,136.8,883.8,136.8z"/>
			<path id="XMLID_969_" class="st1" d="M883.8,117.8c1.6,0,3,1.3,3,3s-1.3,3-3,3c-1.6,0-3-1.3-3-3S882.1,117.8,883.8,117.8z"/>
		</g>
		<g id="XMLID_959_">
			<path id="XMLID_967_" class="st1" d="M865.9,250.6c1.6,0,3,1.3,3,3s-1.3,3-3,3s-3-1.3-3-3S864.2,250.6,865.9,250.6z"/>
			<path id="XMLID_966_" class="st1" d="M865.9,231.6c1.6,0,3,1.3,3,3s-1.3,3-3,3s-3-1.3-3-3S864.2,231.6,865.9,231.6z"/>
			<path id="XMLID_965_" class="st1" d="M865.9,212.6c1.6,0,3,1.3,3,3s-1.3,3-3,3s-3-1.3-3-3S864.2,212.6,865.9,212.6z"/>
			<path id="XMLID_964_" class="st1" d="M865.9,193.7c1.6,0,3,1.3,3,3s-1.3,3-3,3s-3-1.3-3-3S864.2,193.7,865.9,193.7z"/>
			<path id="XMLID_963_" class="st1" d="M865.9,174.7c1.6,0,3,1.3,3,3c0,1.6-1.3,3-3,3s-3-1.3-3-3
				C862.9,176,864.2,174.7,865.9,174.7z"/>
			<path id="XMLID_962_" class="st1" d="M865.9,155.7c1.6,0,3,1.3,3,3s-1.3,3-3,3s-3-1.3-3-3S864.2,155.7,865.9,155.7z"/>
			<path id="XMLID_961_" class="st1" d="M865.9,136.8c1.6,0,3,1.3,3,3s-1.3,3-3,3s-3-1.3-3-3S864.2,136.8,865.9,136.8z"/>
			<path id="XMLID_960_" class="st1" d="M865.9,117.8c1.6,0,3,1.3,3,3s-1.3,3-3,3s-3-1.3-3-3S864.2,117.8,865.9,117.8z"/>
		</g>
		<g id="XMLID_950_">
			<path id="XMLID_958_" class="st1" d="M848,250.6c1.6,0,3,1.3,3,3s-1.3,3-3,3c-1.6,0-3-1.3-3-3S846.3,250.6,848,250.6z"/>
			<path id="XMLID_957_" class="st1" d="M848,231.6c1.6,0,3,1.3,3,3s-1.3,3-3,3c-1.6,0-3-1.3-3-3S846.3,231.6,848,231.6z"/>
			<path id="XMLID_956_" class="st1" d="M848,212.6c1.6,0,3,1.3,3,3s-1.3,3-3,3c-1.6,0-3-1.3-3-3S846.3,212.6,848,212.6z"/>
			<path id="XMLID_955_" class="st1" d="M848,193.7c1.6,0,3,1.3,3,3s-1.3,3-3,3c-1.6,0-3-1.3-3-3S846.3,193.7,848,193.7z"/>
			<path id="XMLID_954_" class="st1" d="M848,174.7c1.6,0,3,1.3,3,3c0,1.6-1.3,3-3,3c-1.6,0-3-1.3-3-3
				C845,176,846.3,174.7,848,174.7z"/>
			<path id="XMLID_953_" class="st1" d="M848,155.7c1.6,0,3,1.3,3,3s-1.3,3-3,3c-1.6,0-3-1.3-3-3S846.3,155.7,848,155.7z"/>
			<path id="XMLID_952_" class="st1" d="M848,136.8c1.6,0,3,1.3,3,3s-1.3,3-3,3c-1.6,0-3-1.3-3-3S846.3,136.8,848,136.8z"/>
			<path id="XMLID_951_" class="st1" d="M848,117.8c1.6,0,3,1.3,3,3s-1.3,3-3,3c-1.6,0-3-1.3-3-3S846.3,117.8,848,117.8z"/>
		</g>
		<g id="XMLID_941_">
			<path id="XMLID_949_" class="st1" d="M830.1,250.6c1.6,0,3,1.3,3,3s-1.3,3-3,3s-3-1.3-3-3S828.4,250.6,830.1,250.6z"/>
			<path id="XMLID_948_" class="st1" d="M830.1,231.6c1.6,0,3,1.3,3,3s-1.3,3-3,3s-3-1.3-3-3S828.4,231.6,830.1,231.6z"/>
			<path id="XMLID_947_" class="st1" d="M830.1,212.6c1.6,0,3,1.3,3,3s-1.3,3-3,3s-3-1.3-3-3S828.4,212.6,830.1,212.6z"/>
			<path id="XMLID_946_" class="st1" d="M830.1,193.7c1.6,0,3,1.3,3,3s-1.3,3-3,3s-3-1.3-3-3S828.4,193.7,830.1,193.7z"/>
			<path id="XMLID_945_" class="st1" d="M830.1,174.7c1.6,0,3,1.3,3,3c0,1.6-1.3,3-3,3s-3-1.3-3-3
				C827.1,176,828.4,174.7,830.1,174.7z"/>
			<path id="XMLID_944_" class="st1" d="M830.1,155.7c1.6,0,3,1.3,3,3s-1.3,3-3,3s-3-1.3-3-3S828.4,155.7,830.1,155.7z"/>
			<path id="XMLID_943_" class="st1" d="M830.1,136.8c1.6,0,3,1.3,3,3s-1.3,3-3,3s-3-1.3-3-3S828.4,136.8,830.1,136.8z"/>
			<path id="XMLID_942_" class="st1" d="M830.1,117.8c1.6,0,3,1.3,3,3s-1.3,3-3,3s-3-1.3-3-3S828.4,117.8,830.1,117.8z"/>
		</g>
	</g>
	<path id="XMLID_939_" class="st11" d="M1021.3,60v128.4c0,0.9-0.7,1.6-1.6,1.6H891.3c-0.9,0-1.6-0.7-1.6-1.6V60
		c0-0.9,0.7-1.6,1.6-1.6h128.4C1020.6,58.4,1021.3,59.1,1021.3,60z"/>
</g>
<g id="XMLID_881_">
	
		<rect id="XMLID_884_" x="133.1" y="757.7" transform="matrix(0.7071 -0.7071 0.7071 0.7071 -523.0004 379.3746)" class="st12" width="126.7" height="126.7"/>
	
		<rect id="XMLID_883_" x="154.5" y="779.1" transform="matrix(0.7071 -0.7071 0.7071 0.7071 -523.0003 379.3746)" class="st12" width="83.8" height="83.8"/>
	
		<rect id="XMLID_882_" x="176" y="800.5" transform="matrix(0.7071 -0.7071 0.7071 0.7071 -522.9979 379.3706)" class="st13" width="41" height="41"/>
</g>
<g id="XMLID_867_">
	<path id="XMLID_869_" class="st14" d="M471,982.6l-46.8-46.8c-0.3-0.3-0.3-0.9,0-1.2l46.8-46.8c0.3-0.3,0.9-0.3,1.2,0l46.8,46.8
		c0.3,0.3,0.3,0.9,0,1.2l-46.8,46.8C471.9,982.9,471.3,982.9,471,982.6z"/>
	<path id="XMLID_868_" class="st1" d="M471.3,955.4l-19.9-19.9c-0.1-0.1-0.1-0.4,0-0.5l19.9-19.9c0.1-0.1,0.4-0.1,0.5,0l19.9,19.9
		c0.1,0.1,0.1,0.4,0,0.5l-19.9,19.9C471.7,955.5,471.5,955.5,471.3,955.4z"/>
</g>
</svg>
