<svg width="96" height="96" viewBox="0 0 96 96" fill="none" xmlns="http://www.w3.org/2000/svg">
<path d="M88.0048 5.99304H7.9959C3.58683 5.99304 0 9.58011 0 13.9892V66.1348C0 70.5439 3.58683 74.131 7.9959 74.131H33.775L28.8821 84.9203C28.3769 86.0346 28.4719 87.3292 29.1348 88.3573C29.7977 89.3857 30.9372 90.0068 32.1605 90.0068H63.8398C63.8412 90.0068 63.8431 90.0068 63.8446 90.0068C65.833 90.0068 67.4446 88.3952 67.4446 86.4068C67.4446 85.8085 67.2994 85.2433 67.0399 84.747L62.225 74.131H88.0041C92.4132 74.131 96 70.5439 96 66.1348V13.9892C96.0007 9.58011 92.4139 5.99304 88.0048 5.99304ZM88.8007 66.1351C88.8007 66.574 88.4435 66.9309 88.0048 66.9309H7.9959C7.55718 66.9309 7.20005 66.574 7.20005 66.1351V13.9892C7.20005 13.5502 7.55718 13.1931 7.9959 13.1931H88.0046C88.4433 13.1931 88.8004 13.5502 88.8004 13.9892L88.8007 66.1351Z" fill="#1E90FF"/>
<path d="M59.0879 23.1442C58.8342 22.8908 58.3869 22.9282 58.0881 23.2268L54.1825 27.1319C53.8832 27.4312 53.8465 27.8797 54.099 28.1329L59.6438 33.6777C59.7698 33.8039 59.9464 33.8579 60.1269 33.8428C60.3083 33.8277 60.4941 33.7437 60.6446 33.5937L64.5497 29.6884C64.8482 29.3896 64.8857 28.9417 64.632 28.6885L59.0879 23.1442Z" fill="#1E90FF"/>
<path d="M35.1209 47.42C34.9568 47.2558 34.7014 47.2083 34.4511 47.2944C34.201 47.3806 33.9946 47.5887 33.9094 47.8395L31.241 55.7437C31.1563 55.9926 31.2055 56.2451 31.3687 56.408C31.4916 56.5321 31.6663 56.5902 31.8514 56.5743C31.9109 56.5693 31.9721 56.5568 32.0328 56.5359L39.937 53.8671C40.1876 53.7822 40.3959 53.5755 40.4818 53.3257C40.5687 53.0758 40.5207 52.82 40.3568 52.6556L35.1209 47.42Z" fill="#1E90FF"/>
<path d="M55.0814 43.735C55.4296 43.5761 55.6838 43.2634 55.7676 42.8904C55.8516 42.5172 55.7563 42.126 55.5105 41.8332C55.0497 41.2853 54.5675 40.7283 54.0712 40.1674L58.41 35.8289C58.553 35.6856 58.6433 35.4989 58.6579 35.3112C58.6735 35.1242 58.6135 34.95 58.4925 34.8288L52.9475 29.2845C52.6941 29.0306 52.2467 29.0678 51.9477 29.3671L47.7164 33.599C44.8787 30.9088 42.0286 28.5088 39.5168 26.7033C37.7482 25.4322 34.5127 23.2955 32.7115 23.2681C32.3827 23.2624 32.0647 23.391 31.8312 23.6231C31.597 23.8549 31.4666 24.1715 31.4693 24.5008C31.4786 25.7281 32.556 27.9426 34.5027 30.7353C36.3555 33.3933 38.9009 36.4478 41.805 39.5105L36.2849 45.031C35.9854 45.3303 35.9482 45.7777 36.2019 46.0309L41.7466 51.5751C41.8726 51.7026 42.0476 51.7563 42.2293 51.741C42.4098 51.7259 42.5972 51.6416 42.7465 51.4926L48.3736 45.8653C48.8649 46.2999 49.3521 46.7223 49.8325 47.1296C50.0555 47.3185 50.3358 47.4197 50.6236 47.4197C50.6886 47.4197 50.7539 47.4145 50.8192 47.4042C51.1722 47.3468 51.4828 47.138 51.6686 46.8322C51.9969 46.2927 52.4246 45.7573 52.9408 45.242C53.5879 44.5937 54.3086 44.0866 55.0814 43.735Z" fill="#1E90FF"/>
<path d="M58.1505 44.7592C56.7254 44.7592 55.3651 45.3666 54.2155 46.516C52.8359 47.8955 52.2338 49.3425 52.4738 50.7011C52.7121 52.0461 53.7808 53.2516 55.4066 54.0062C56.8051 54.6559 58.0797 54.8572 59.2037 55.0351C60.3874 55.2218 61.5041 55.3989 62.4979 56.0731C62.7036 56.2135 62.9441 56.2848 63.1853 56.2848C63.3547 56.2848 63.5249 56.2497 63.6843 56.1782C64.0714 56.0056 64.3419 55.6442 64.3987 55.2237C64.8247 52.0458 64.2152 49.1917 62.6823 47.1894C61.4993 45.645 59.8476 44.7592 58.1505 44.7592Z" fill="#1E90FF"/>
</svg>
