<?xml version="1.0" encoding="utf-8"?>
<!-- Generator: Adobe Illustrator 23.0.0, SVG Export Plug-In . SVG Version: 6.00 Build 0)  -->
<svg version="1.1" id="OBJECTS" xmlns="http://www.w3.org/2000/svg" xmlns:xlink="http://www.w3.org/1999/xlink" x="0px" y="0px"
	 viewBox="0 0 1025 1025" style="enable-background:new 0 0 1025 1025;" xml:space="preserve">
<style type="text/css">
	.st0{fill:#262C38;}
	.st1{opacity:5.000000e-02;}
	.st2{fill:#FF0B53;}
	.st3{fill:#00F0E9;}
	.st4{fill:#FFFFFF;}
	.st5{fill:#00FFFF;}
	.st6{fill:#262C38;stroke:#FFFFFF;stroke-width:3;stroke-miterlimit:10;}
	.st7{fill:none;stroke:#FF0B53;stroke-width:4;stroke-miterlimit:10;}
	.st8{fill:none;stroke:#FFFFFF;stroke-width:4;stroke-miterlimit:10;}
</style>
<rect x="0" class="st0" width="1025" height="1025"/>
<g class="st1">
	<path class="st2" d="M1133.7,252.6c-64,56.7-161.8,50.9-218.5-13.1l-86.9,77.1l298.2,336.2c34.7,39.1,31.1,98.9-8,133.6
		c-39.1,34.7-98.9,31.1-133.6-8c-34.7-39.1-31.1-98.9,8-133.6c7.3-6.5,16.6-12.8,25.1-16.6l-78.5-88.5c-8.2,5.4-16.1,11.5-23.7,18.2
		c-87.1,77.2-95,210.4-17.8,297.5c77.2,87.1,210.4,95,297.5,17.8c87.1-77.2,95-210.4,17.8-297.5l-157.8-177.9
		c54.4-2.3,108.4-22.6,152.4-61.5L1133.7,252.6z"/>
	<path class="st3" d="M1087.2,249.9c-64,56.7-161.8,50.9-218.5-13.1l-86.9,77.1L1080.1,650c34.7,39.1,31.1,98.9-8,133.6
		c-39.1,34.7-98.9,31.1-133.6-8c-34.7-39.1-31.1-98.9,8-133.6c7.3-6.5,16.6-12.8,25.1-16.6L893.1,537c-8.2,5.4-16.1,11.5-23.7,18.2
		c-87.1,77.2-95,210.4-17.8,297.5c77.2,87.1,210.4,95,297.5,17.8c87.1-77.2,95-210.4,17.8-297.5L1009.1,395
		c54.4-2.3,108.4-22.6,152.4-61.5L1087.2,249.9z"/>
	<path class="st4" d="M1106.7,271.8c-33.4,18.8-71.9,24.1-108.1,16.4c-36.9,3.3-74.5-6.5-105.4-29.2l-64.9,57.6l298.2,336.2
		c34.7,39.1,31.1,98.9-8,133.6c-25.9,22.9-60.8,29.1-91.5,19.4c-31.7,6-65.6-4.3-88.5-30.1c-34.7-39.1-31.1-98.9,8-133.6
		c7.3-6.5,16.6-12.8,25.1-16.6l-58-65.4c-84.9,77.5-92,209.1-15.5,295.4c33.1,37.3,76.4,60,121.9,67.8
		c46.2-2.3,91.9-19.8,129.1-52.8c87.1-77.2,95-210.4,17.8-297.5L1009.1,395c54.4-2.3,108.4-22.6,152.4-61.5L1106.7,271.8z"/>
</g>
<g>
	<g>
		<rect x="422.1" y="735.6" class="st5" width="249.6" height="74.6"/>
		<rect x="385.9" y="719.7" class="st2" width="249.6" height="74.6"/>
		<rect x="414.1" y="731.3" class="st6" width="249.6" height="74.6"/>
		<g>
			<path class="st4" d="M426.8,767.1h8.8v3.6h-8.8V767.1z M428.9,779.2v-20.6h6.2c2.1,0,3.8,0.3,5.3,0.9c1.5,0.6,2.6,1.4,3.5,2.5
				c0.9,1,1.5,2.2,1.9,3.4c0.4,1.3,0.6,2.5,0.6,3.8c0,1.5-0.3,2.9-0.8,4.1c-0.6,1.2-1.3,2.3-2.3,3.1s-2.1,1.5-3.3,2
				c-1.3,0.5-2.6,0.7-4,0.7H428.9z M433,775.2h2.4c1,0,2-0.1,2.8-0.4c0.8-0.3,1.6-0.7,2.2-1.2c0.6-0.5,1.1-1.2,1.4-2
				c0.3-0.8,0.5-1.7,0.5-2.7c0-1.3-0.2-2.4-0.7-3.3c-0.4-0.8-1-1.5-1.6-2c-0.6-0.5-1.3-0.8-2-1c-0.7-0.2-1.2-0.3-1.7-0.3H433V775.2z
				"/>
			<path class="st4" d="M446.8,779.2l9.3-21.4h0.2l9.3,21.4h-4.7l-5.9-15.1l2.9-2l-7.1,17.1H446.8z M456.2,756.6
				c-0.9,0-1.6-0.2-2.3-0.6c-0.6-0.4-1.1-1-1.5-1.7c-0.4-0.8-0.7-1.8-0.9-2.9h2.6c0.1,0.5,0.2,1,0.4,1.4c0.2,0.4,0.4,0.7,0.6,0.9
				c0.3,0.2,0.6,0.3,1.1,0.3c0.4,0,0.8-0.1,1.1-0.3c0.3-0.2,0.5-0.5,0.6-0.9c0.1-0.4,0.3-0.9,0.4-1.4h2.6c-0.2,1.2-0.5,2.2-0.9,3
				s-0.9,1.3-1.5,1.7C457.8,756.5,457.1,756.6,456.2,756.6z M453.1,771.7h6.2l1.4,3.4h-8.9L453.1,771.7z"/>
			<path class="st4" d="M487,780l-15.6-14.1l1.2,0.7l0.1,12.6h-4.1v-21.4h0.2l15.3,14.1l-0.9-0.4l-0.1-12.9h4.1V780H487z"/>
			<path class="st4" d="M509.2,777.1c-0.2,0.3-0.6,0.5-1.1,0.8c-0.5,0.3-1.1,0.5-1.8,0.7c-0.7,0.2-1.4,0.4-2.1,0.5
				c-0.7,0.1-1.4,0.2-2,0.2c-1.7,0-3.2-0.2-4.5-0.7c-1.3-0.5-2.5-1.2-3.4-2.1c-1-0.9-1.7-1.9-2.2-3.2c-0.5-1.2-0.8-2.5-0.8-4
				c0-1.9,0.3-3.5,0.9-4.9s1.3-2.5,2.3-3.5c1-0.9,2.1-1.6,3.4-2.1c1.3-0.4,2.6-0.7,4-0.7c1.3,0,2.5,0.1,3.6,0.4
				c1.1,0.3,2,0.6,2.8,1.1l-1.3,3.8c-0.3-0.2-0.8-0.4-1.3-0.6s-1.1-0.3-1.7-0.5c-0.6-0.1-1.1-0.2-1.5-0.2c-1.1,0-2.1,0.1-3,0.4
				c-0.9,0.3-1.6,0.7-2.2,1.3c-0.6,0.6-1,1.3-1.3,2.1c-0.3,0.8-0.4,1.8-0.4,2.9c0,1,0.2,1.8,0.5,2.6s0.8,1.4,1.4,2
				c0.6,0.5,1.3,1,2.2,1.2s1.8,0.4,2.8,0.4c0.6,0,1.1,0,1.6-0.1s0.9-0.2,1.2-0.4v-2.5h-3.6v-3.9h7.7V777.1z"/>
			<path class="st4" d="M527,765.9l-0.1,1l0.6-0.8l6.7-7.6h5.3l-8.5,9.2l8.5,11.4h-5.2l-6.4-8.8l-1,1v7.8h-4.1v-20.6h4.1V765.9z"/>
			<path class="st4" d="M548,772.7l-7.6-14.2h5l5.3,10.7l-1.2,0.1l5.2-10.8h5l-7.7,14.2v6.4H548V772.7z M555.8,753.4l-4.1,3.8h-2.4
				l2.2-3.8H555.8z"/>
			<path class="st4" d="M590.4,780l-15.6-14.1l1.2,0.7l0.1,12.6h-4.1v-21.4h0.2l15.3,14.1l-0.9-0.4l-0.1-12.9h4.1V780H590.4z"/>
			<path class="st4" d="M612.5,777.1c-0.2,0.3-0.6,0.5-1.1,0.8c-0.5,0.3-1.1,0.5-1.8,0.7c-0.7,0.2-1.4,0.4-2.1,0.5
				c-0.7,0.1-1.4,0.2-2,0.2c-1.7,0-3.2-0.2-4.5-0.7c-1.3-0.5-2.5-1.2-3.4-2.1c-1-0.9-1.7-1.9-2.2-3.2c-0.5-1.2-0.8-2.5-0.8-4
				c0-1.9,0.3-3.5,0.9-4.9s1.3-2.5,2.3-3.5c1-0.9,2.1-1.6,3.4-2.1s2.6-0.7,4-0.7c1.3,0,2.5,0.1,3.6,0.4c1.1,0.3,2,0.6,2.8,1.1
				l-1.3,3.8c-0.3-0.2-0.8-0.4-1.3-0.6c-0.6-0.2-1.1-0.3-1.7-0.5c-0.6-0.1-1.1-0.2-1.5-0.2c-1.1,0-2.1,0.1-3,0.4
				c-0.9,0.3-1.6,0.7-2.2,1.3c-0.6,0.6-1,1.3-1.3,2.1c-0.3,0.8-0.4,1.8-0.4,2.9c0,1,0.2,1.8,0.5,2.6s0.8,1.4,1.4,2
				c0.6,0.5,1.3,1,2.2,1.2c0.8,0.3,1.8,0.4,2.8,0.4c0.6,0,1.1,0,1.6-0.1s0.9-0.2,1.2-0.4v-2.5h-3.6v-3.9h7.7V777.1z"/>
			<path class="st4" d="M614.8,779.2l9.3-21.4h0.2l9.3,21.4h-4.7l-5.9-15.1l2.9-2l-7.1,17.1H614.8z M621.2,771.7h6.2l1.4,3.4h-8.9
				L621.2,771.7z"/>
			<path class="st4" d="M639.9,772.7l-7.6-14.2h5l5.3,10.7l-1.2,0.1l5.2-10.8h5l-7.7,14.2v6.4h-4.1V772.7z"/>
		</g>
	</g>
	<g>
		<path class="st2" d="M420.7,823.8c0,0.8-0.7,1.5-1.5,1.5c-0.8,0-1.5-0.7-1.5-1.5s0.7-1.5,1.5-1.5
			C420.1,822.3,420.7,823,420.7,823.8z"/>
		<path class="st2" d="M430.7,823.8c0,0.8-0.7,1.5-1.5,1.5c-0.8,0-1.5-0.7-1.5-1.5s0.7-1.5,1.5-1.5C430,822.3,430.7,823,430.7,823.8
			z"/>
		<path class="st2" d="M440.6,823.8c0,0.8-0.7,1.5-1.5,1.5c-0.8,0-1.5-0.7-1.5-1.5s0.7-1.5,1.5-1.5C440,822.3,440.6,823,440.6,823.8
			z"/>
		<path class="st2" d="M450.6,823.8c0,0.8-0.7,1.5-1.5,1.5c-0.8,0-1.5-0.7-1.5-1.5s0.7-1.5,1.5-1.5
			C449.9,822.3,450.6,823,450.6,823.8z"/>
		<path class="st2" d="M460.5,823.8c0,0.8-0.7,1.5-1.5,1.5s-1.5-0.7-1.5-1.5s0.7-1.5,1.5-1.5S460.5,823,460.5,823.8z"/>
		<path class="st2" d="M470.5,823.8c0,0.8-0.7,1.5-1.5,1.5c-0.8,0-1.5-0.7-1.5-1.5s0.7-1.5,1.5-1.5
			C469.8,822.3,470.5,823,470.5,823.8z"/>
		<path class="st2" d="M480.4,823.8c0,0.8-0.7,1.5-1.5,1.5c-0.8,0-1.5-0.7-1.5-1.5s0.7-1.5,1.5-1.5
			C479.8,822.3,480.4,823,480.4,823.8z"/>
		<path class="st2" d="M490.4,823.8c0,0.8-0.7,1.5-1.5,1.5c-0.8,0-1.5-0.7-1.5-1.5s0.7-1.5,1.5-1.5
			C489.7,822.3,490.4,823,490.4,823.8z"/>
		<path class="st2" d="M500.3,823.8c0,0.8-0.7,1.5-1.5,1.5s-1.5-0.7-1.5-1.5s0.7-1.5,1.5-1.5S500.3,823,500.3,823.8z"/>
		<path class="st2" d="M425.8,831.7c0,0.8-0.7,1.5-1.5,1.5c-0.8,0-1.5-0.7-1.5-1.5c0-0.8,0.7-1.5,1.5-1.5
			C425.1,830.2,425.8,830.9,425.8,831.7z"/>
		<circle class="st2" cx="434.2" cy="831.7" r="1.5"/>
		<circle class="st2" cx="444.2" cy="831.7" r="1.5"/>
		<path class="st2" d="M455.6,831.7c0,0.8-0.7,1.5-1.5,1.5c-0.8,0-1.5-0.7-1.5-1.5c0-0.8,0.7-1.5,1.5-1.5
			C455,830.2,455.6,830.9,455.6,831.7z"/>
		<path class="st2" d="M465.6,831.7c0,0.8-0.7,1.5-1.5,1.5c-0.8,0-1.5-0.7-1.5-1.5c0-0.8,0.7-1.5,1.5-1.5
			C464.9,830.2,465.6,830.9,465.6,831.7z"/>
		<path class="st2" d="M475.5,831.7c0,0.8-0.7,1.5-1.5,1.5s-1.5-0.7-1.5-1.5c0-0.8,0.7-1.5,1.5-1.5S475.5,830.9,475.5,831.7z"/>
		<circle class="st2" cx="484" cy="831.7" r="1.5"/>
		<circle class="st2" cx="493.9" cy="831.7" r="1.5"/>
		<path class="st2" d="M505.4,831.7c0,0.8-0.7,1.5-1.5,1.5c-0.8,0-1.5-0.7-1.5-1.5c0-0.8,0.7-1.5,1.5-1.5
			C504.7,830.2,505.4,830.9,505.4,831.7z"/>
	</g>
	<g>
		<path class="st3" d="M580.8,707.4c0,0.5-0.4,0.9-0.9,0.9s-0.9-0.4-0.9-0.9s0.4-0.9,0.9-0.9S580.8,706.9,580.8,707.4z"/>
		<circle class="st3" cx="585.8" cy="707.4" r="0.9"/>
		<circle class="st3" cx="591.7" cy="707.4" r="0.9"/>
		<path class="st3" d="M598.5,707.4c0,0.5-0.4,0.9-0.9,0.9s-0.9-0.4-0.9-0.9s0.4-0.9,0.9-0.9S598.5,706.9,598.5,707.4z"/>
		<path class="st3" d="M604.4,707.4c0,0.5-0.4,0.9-0.9,0.9s-0.9-0.4-0.9-0.9s0.4-0.9,0.9-0.9S604.4,706.9,604.4,707.4z"/>
		<path class="st3" d="M610.3,707.4c0,0.5-0.4,0.9-0.9,0.9c-0.5,0-0.9-0.4-0.9-0.9s0.4-0.9,0.9-0.9
			C609.9,706.5,610.3,706.9,610.3,707.4z"/>
		<circle class="st3" cx="615.3" cy="707.4" r="0.9"/>
		<circle class="st3" cx="621.2" cy="707.4" r="0.9"/>
		<path class="st3" d="M628,707.4c0,0.5-0.4,0.9-0.9,0.9s-0.9-0.4-0.9-0.9s0.4-0.9,0.9-0.9S628,706.9,628,707.4z"/>
		<path class="st3" d="M583.8,712.1c0,0.5-0.4,0.9-0.9,0.9s-0.9-0.4-0.9-0.9s0.4-0.9,0.9-0.9S583.8,711.6,583.8,712.1z"/>
		<path class="st3" d="M589.7,712.1c0,0.5-0.4,0.9-0.9,0.9s-0.9-0.4-0.9-0.9s0.4-0.9,0.9-0.9S589.7,711.6,589.7,712.1z"/>
		<path class="st3" d="M595.6,712.1c0,0.5-0.4,0.9-0.9,0.9c-0.5,0-0.9-0.4-0.9-0.9s0.4-0.9,0.9-0.9
			C595.2,711.2,595.6,711.6,595.6,712.1z"/>
		<path class="st3" d="M601.5,712.1c0,0.5-0.4,0.9-0.9,0.9c-0.5,0-0.9-0.4-0.9-0.9s0.4-0.9,0.9-0.9
			C601.1,711.2,601.5,711.6,601.5,712.1z"/>
		<path class="st3" d="M607.4,712.1c0,0.5-0.4,0.9-0.9,0.9c-0.5,0-0.9-0.4-0.9-0.9s0.4-0.9,0.9-0.9
			C607,711.2,607.4,711.6,607.4,712.1z"/>
		<path class="st3" d="M613.3,712.1c0,0.5-0.4,0.9-0.9,0.9s-0.9-0.4-0.9-0.9s0.4-0.9,0.9-0.9S613.3,711.6,613.3,712.1z"/>
		<path class="st3" d="M619.2,712.1c0,0.5-0.4,0.9-0.9,0.9s-0.9-0.4-0.9-0.9s0.4-0.9,0.9-0.9S619.2,711.6,619.2,712.1z"/>
		<path class="st3" d="M625.1,712.1c0,0.5-0.4,0.9-0.9,0.9s-0.9-0.4-0.9-0.9s0.4-0.9,0.9-0.9S625.1,711.6,625.1,712.1z"/>
		<path class="st3" d="M631,712.1c0,0.5-0.4,0.9-0.9,0.9s-0.9-0.4-0.9-0.9s0.4-0.9,0.9-0.9S631,711.6,631,712.1z"/>
	</g>
</g>
<g>
	
		<ellipse transform="matrix(0.9262 -0.3771 0.3771 0.9262 -227.3109 76.2807)" class="st5" cx="81.1" cy="618.6" rx="28.2" ry="28.2"/>
	
		<ellipse transform="matrix(0.8204 -0.5718 0.5718 0.8204 -320.4193 161.3197)" class="st7" cx="96.6" cy="590.7" rx="28.2" ry="28.2"/>
</g>
<circle class="st3" cx="772.8" cy="670.4" r="26.9"/>
<circle class="st2" cx="755" cy="670.6" r="26.9"/>
<circle class="st0" cx="763.8" cy="670.6" r="26.9"/>
<path class="st5" d="M253.6,725.9l12,12l12-12l-12-12L253.6,725.9z M273.5,725.9l-7.8,7.8l-7.8-7.8l7.8-7.8L273.5,725.9z"/>
<g>
	<polygon class="st2" points="853.1,369.3 824.2,374 819.5,345.1 798,348.6 802.7,377.5 773.8,382.2 777.3,403.7 806.2,399 
		810.8,427.9 832.4,424.4 827.7,395.5 856.6,390.8 	"/>
	<polygon class="st8" points="844.9,364.9 820.5,368.9 816.6,344.5 798.4,347.5 802.3,371.9 778,375.8 780.9,394 805.3,390.1 
		809.3,414.4 827.5,411.5 823.5,387.1 847.9,383.1 	"/>
</g>
<g>
	<path class="st4" d="M176.8,289.5h32.4l-1.2,9.3h-11.5l-4.8,38.7h-9.8l4.8-38.7h-11.1L176.8,289.5z"/>
	<path class="st4" d="M212.3,337.5H203l27.8-49.9h0.5l15.5,49.9h-11l-9.5-35.1l7.4-4.7L212.3,337.5z M220,320.1h14.4l2.4,8h-20.7
		L220,320.1z M219,344.4c0-1.4,0.5-2.6,1.4-3.5c1-1,2.2-1.4,3.8-1.4c1.1,0,2.2,0.3,3.3,0.9c1.1,0.6,1.6,1.7,1.6,3.3
		c0,1.3-0.5,2.5-1.4,3.5c-1,1-2.2,1.5-3.8,1.5c-1.1,0-2.2-0.3-3.3-0.9C219.5,347,219,345.9,219,344.4z M230.7,286.7
		c-1.5-0.1-2.9-0.4-4-1c-1.1-0.6-2.1-1.4-2.8-2.5c-0.8-1.1-1.3-2.4-1.8-3.9c-0.4-1.5-0.7-3.4-0.8-5.5h6.1c0.1,1.3,0.3,2.5,0.6,3.5
		c0.2,1,0.6,1.8,1.2,2.3c0.6,0.5,1.3,0.9,2.4,0.9c1,0,1.8-0.2,2.5-0.7c0.7-0.5,1.3-1.2,1.7-2.3c0.5-1,0.9-2.3,1.3-3.9h6
		c-0.6,3.2-1.5,5.8-2.6,7.7c-1.2,1.9-2.5,3.3-4.2,4.1C234.6,286.5,232.7,286.8,230.7,286.7z"/>
	<path class="st4" d="M296.9,339.5h-0.3l-32.4-32.9l2.6,1.6l-3.4,29.4h-9.6l6.1-49.9h0.4l31.6,32.8l-2-0.9l3.5-30h9.5L296.9,339.5z"
		/>
	<path class="st4" d="M349.6,333.8c-0.8,0.7-2.1,1.4-3.9,2.1c-1.8,0.7-3.8,1.3-5.9,1.7c-2.2,0.4-4.2,0.6-6.2,0.6
		c-0.8,0-1.9-0.1-3.4-0.3c-1.5-0.2-3.1-0.6-4.9-1.1c-1.8-0.5-3.6-1.3-5.4-2.4c-1.8-1-3.5-2.4-5.1-4c-1.5-1.6-2.8-3.6-3.7-6
		c-0.9-2.4-1.4-5.1-1.4-8.4c0-2.2,0.3-4.6,0.9-7c0.6-2.5,1.5-4.9,2.8-7.2c1.3-2.4,2.9-4.5,5-6.4c2-1.9,4.5-3.4,7.3-4.5
		c2.9-1.1,6.2-1.7,10.1-1.6c2.7,0,5.5,0.4,8.5,1.1c3,0.7,5.6,1.8,8,3.3l-4.2,8.6c-1.7-1.1-3.7-2-6-2.6c-2.3-0.6-4.5-0.9-6.5-0.9
		c-2.5,0-4.7,0.4-6.5,1.2c-1.8,0.7-3.4,1.7-4.6,2.9c-1.2,1.2-2.2,2.6-2.9,4c-0.7,1.5-1.2,3-1.5,4.5c-0.3,1.5-0.5,3-0.5,4.3
		c0,2.3,0.4,4.2,1.2,5.8c0.8,1.5,1.9,2.8,3.2,3.8c1.3,1,2.7,1.7,4.1,2.2c1.4,0.5,2.8,0.8,4.1,1c1.3,0.2,2.3,0.3,3,0.3
		c1,0,2,0,2.9-0.2c0.9-0.2,1.7-0.4,2.4-0.8l0.7-6.3h-8.3l1.1-9.1h18L349.6,333.8z"/>
	<path class="st4" d="M388.7,337.5h-9.1l6.1-50h0.1l22.1,37.9l-3.9-0.9l31.1-36.9h0.1l-6.1,50h-9.5l3.5-28.7v4.9l-19.1,23.1h-0.1
		L390,313.7l2.2-4.5L388.7,337.5z"/>
	<path class="st4" d="M447.4,289.5h9.8l-5.9,48h-9.8L447.4,289.5z"/>
	<path class="st4" d="M469.6,289.5h32.8l-1,8.8h-23l-1.3,10.7h20.3l-1.1,9h-20.3l-1.3,10.4h23.9l-1.1,9.1h-33.7L469.6,289.5z
		 M490.8,286.4l-4.5-4.8l2.3-0.7l-5.8,5.5h-8.2l13.5-12h0.1l10.9,12H490.8z M492.8,273.5c-1.5-0.1-2.7-0.5-3.6-1.1
		c-0.9-0.7-1.7-1.4-2.4-2.1c-0.4-0.4-0.9-0.8-1.3-1.1c-0.4-0.3-0.9-0.5-1.4-0.5c-0.6,0-1,0.1-1.4,0.6c-0.4,0.4-0.6,0.9-0.8,1.6
		c-0.2,0.7-0.3,1.3-0.3,2l-4.6-0.3c0-1.7,0.3-3.2,1-4.7c0.7-1.5,1.6-2.7,2.9-3.6c1.2-0.9,2.7-1.3,4.3-1.2c1.1,0,2,0.4,2.8,1
		c0.8,0.7,1.5,1.3,2.2,2c0.6,0.6,1.1,1.1,1.5,1.5c0.5,0.4,0.9,0.6,1.5,0.6c0.8,0.1,1.4-0.4,1.7-1.3c0.3-1,0.4-2,0.5-3l4.6,0.3
		c0.1,1.9-0.2,3.5-0.8,5c-0.7,1.5-1.5,2.6-2.7,3.4C495.3,273.2,494.1,273.5,492.8,273.5z"/>
	<path class="st4" d="M550.2,339.5H550l-32.4-32.9l2.6,1.6l-3.4,29.4h-9.6l6.1-49.9h0.4l31.6,32.8l-2-0.9l3.5-30h9.5L550.2,339.5z"
		/>
	<path class="st4" d="M603,289.5c2.7,0,5.1,0.3,7.2,1c2.1,0.7,3.8,1.6,5.2,2.9c1.4,1.3,2.4,2.8,3.2,4.5c0.7,1.7,1.1,3.7,1.1,5.8
		c0,2.1-0.3,4.2-1,6.4c-0.7,2.2-1.8,4.2-3.2,6c-1.5,1.9-3.4,3.4-5.8,4.5c-2.4,1.2-5.4,1.7-8.8,1.7h-6.5l-1.9,15.2h-9.8l5.9-48H603z
		 M601.4,313.1c1.6,0,2.9-0.3,3.9-0.8c1-0.6,1.9-1.3,2.5-2.2c0.7-0.9,1.1-1.8,1.4-2.7c0.3-0.9,0.4-1.7,0.4-2.4
		c0-0.7-0.2-1.6-0.5-2.6c-0.3-1-0.9-1.9-1.8-2.6c-0.9-0.8-2.3-1.1-4.2-1.1h-6.1l-1.8,14.5H601.4z"/>
	<path class="st4" d="M669.2,289.5l-5.9,48h-9.8l2.4-19.5h-20.8l-2.4,19.5h-9.8l5.9-48h9.8l-2.4,19.3H657l2.4-19.3H669.2z"/>
	<path class="st4" d="M681.6,289.5h9.8l-5.9,48h-9.8L681.6,289.5z M698.4,277.6l-9.7,8.8h-5.5l5.1-8.8H698.4z"/>
</g>
<g>
	<g>
		<g>
			<g>
				
					<ellipse transform="matrix(0.9734 -0.229 0.229 0.9734 -111.6107 103.2461)" class="st4" cx="389" cy="532.4" rx="9.1" ry="9.1"/>
				<g>
					<polygon class="st4" points="321.6,524.5 376.8,524.5 371.8,539.9 357.5,539.9 357.5,597.8 339.4,597.8 339.4,539.9 
						321.6,539.9 					"/>
					<polygon class="st4" points="468.1,524.5 523.2,524.5 518.2,539.9 503.9,539.9 503.9,597.8 485.8,597.8 485.8,539.9 
						468.1,539.9 					"/>
					<rect x="379.9" y="548.4" class="st4" width="18.1" height="49.4"/>
					<polygon class="st4" points="439.8,563.1 439.6,563 462.1,540 440.2,540 423.6,556.6 423.6,524.5 405.5,524.5 405.5,597.8 
						423.6,597.8 423.6,579.4 428.4,574.5 428.4,574.5 445,597.8 464.8,597.8 					"/>
					<polygon class="st4" points="628.6,563.1 628.3,563 650.8,540 628.9,540 612.3,556.6 612.3,524.5 594.2,524.5 594.2,597.8 
						612.3,597.8 612.3,579.4 617.1,574.5 617.1,574.5 633.7,597.8 653.5,597.8 					"/>
					<path class="st4" d="M552.9,537.3c-17.1,0-30.9,13.8-30.9,30.9c0,17.1,13.8,30.9,30.9,30.9s30.9-13.8,30.9-30.9
						C583.8,551.2,570,537.3,552.9,537.3z M552.9,583.4c-8.4,0-15.2-6.8-15.2-15.2c0-8.4,6.8-15.2,15.2-15.2
						c8.4,0,15.2,6.8,15.2,15.2C568.1,576.6,561.3,583.4,552.9,583.4z"/>
					<g>
						<path class="st3" d="M522,568.2c0-16,12.2-29.2,27.9-30.7c-1-0.1-2-0.1-3-0.1c-17.1,0-30.9,13.8-30.9,30.9
							c0,17.1,13.8,30.9,30.9,30.9c1,0,2-0.1,3-0.1C534.3,597.4,522,584.2,522,568.2z"/>
					</g>
					<g>
						<path class="st2" d="M557.8,537.3c-0.8,0-1.6,0-2.4,0.1c15.9,1.2,28.4,14.5,28.4,30.8c0,16.2-12.5,29.5-28.4,30.8
							c0.8,0.1,1.6,0.1,2.4,0.1c17.1,0,30.9-13.8,30.9-30.9C588.7,551.2,574.9,537.3,557.8,537.3z"/>
					</g>
				</g>
			</g>
		</g>
	</g>
	<g>
		<path class="st2" d="M295.2,520.1c-17.6,0-31.9-14.3-31.9-31.9h-23.9v92.5c0,10.7-8.7,19.5-19.5,19.5c-10.8,0-19.5-8.7-19.5-19.5
			c0-10.8,8.7-19.5,19.5-19.5c2,0,4.3,0.3,6.1,0.9v-24.3c-2-0.3-4-0.4-6.1-0.4c-23.9,0-43.4,19.4-43.4,43.4
			c0,23.9,19.4,43.4,43.4,43.4c23.9,0,43.4-19.4,43.4-43.4v-48.9c8.7,7.1,19.8,11.3,31.9,11.3V520.1z"/>
		<path class="st3" d="M288.5,513.4c-17.6,0-31.9-14.3-31.9-31.9h-23.9V574c0,10.8-8.7,19.5-19.5,19.5c-10.7,0-19.5-8.7-19.5-19.5
			c0-10.8,8.7-19.5,19.5-19.5c2,0,4.3,0.3,6.1,0.9V531c-2-0.3-4-0.4-6.1-0.4c-23.9,0-43.4,19.4-43.4,43.4
			c0,23.9,19.4,43.4,43.4,43.4c23.9,0,43.4-19.4,43.4-43.4V525c8.7,7.1,19.8,11.3,31.9,11.3V513.4z"/>
		<path class="st4" d="M288.5,519.4c-7.7-1.7-14.4-6.1-18.9-12.2c-6.1-4.5-10.6-11.2-12.2-18.9h-17.8v92.5
			c0,10.7-8.7,19.5-19.5,19.5c-7.1,0-13.3-3.8-16.7-9.5c-5.7-3.4-9.5-9.6-9.5-16.7c0-10.8,8.7-19.5,19.5-19.5c2,0,4.3,0.3,6.1,0.9
			v-18c-23.6,0.3-42.7,19.6-42.7,43.3c0,10.2,3.6,19.7,9.5,27.1c7.4,5.9,16.8,9.5,27.1,9.5c23.9,0,43.4-19.4,43.4-43.4V525
			c8.7,7.1,19.8,11.3,31.9,11.3V519.4z"/>
	</g>
	<g>
		<g>
			<path class="st3" d="M671,598.1l26.3-62.9h0.5l26.4,62.9h-9.3L695.2,548l5.8-3.8l-22,53.9H671z M686.4,575.2h22.5l2.7,7h-27.5
				L686.4,575.2z"/>
			<path class="st3" d="M735.5,598.1v-60.3H752c6,0,11.1,0.9,15.3,2.7c4.2,1.8,7.6,4.2,10.1,7.3c2.6,3,4.5,6.4,5.6,10
				c1.2,3.6,1.8,7.3,1.8,10.9c0,4.6-0.8,8.7-2.4,12.3c-1.6,3.6-3.8,6.7-6.5,9.3c-2.8,2.6-5.9,4.5-9.5,5.9c-3.6,1.4-7.4,2-11.4,2
				H735.5z M743.6,590.4h9.8c3.3,0,6.3-0.5,9.1-1.5c2.8-1,5.3-2.4,7.3-4.3c2.1-1.9,3.7-4.2,4.9-7c1.2-2.8,1.8-5.9,1.8-9.5
				c0-3.7-0.6-6.9-1.8-9.7c-1.2-2.8-2.9-5.2-5-7.1c-2.1-1.9-4.5-3.3-7.2-4.3c-2.7-1-5.5-1.5-8.3-1.5h-10.5V590.4z"/>
			<path class="st3" d="M829.6,548.5c-2.1-1.1-4.3-2-6.8-2.8c-2.4-0.8-4.8-1.2-7.2-1.2c-3.2,0-5.8,0.8-7.7,2.3
				c-1.9,1.5-2.9,3.5-2.9,6c0,1.9,0.6,3.5,1.9,4.8c1.3,1.3,2.9,2.4,4.8,3.4c2,0.9,4.1,1.8,6.3,2.7c1.8,0.7,3.7,1.5,5.5,2.4
				s3.5,2,5,3.4c1.5,1.3,2.6,3,3.5,4.9c0.9,1.9,1.3,4.3,1.3,7.2c0,3.2-0.8,6.1-2.4,8.8c-1.6,2.6-3.9,4.7-6.8,6.2
				c-3,1.5-6.5,2.3-10.6,2.3c-2.6,0-5.1-0.3-7.6-0.9c-2.4-0.6-4.7-1.4-6.7-2.4c-2.1-1-3.9-2-5.5-3.1l3.6-6.3
				c1.3,0.9,2.9,1.9,4.6,2.7c1.7,0.9,3.5,1.5,5.4,2c1.9,0.5,3.7,0.8,5.5,0.8c1.9,0,3.8-0.3,5.7-1c1.8-0.7,3.4-1.7,4.6-3.2
				c1.2-1.4,1.8-3.4,1.8-5.8c0-2-0.5-3.7-1.6-5.1c-1.1-1.4-2.5-2.6-4.3-3.5c-1.8-1-3.7-1.8-5.7-2.6c-1.9-0.7-3.9-1.4-5.8-2.3
				c-1.9-0.9-3.7-2-5.3-3.2c-1.6-1.3-3-2.8-4-4.6c-1-1.8-1.5-4.1-1.5-6.7c0-3.2,0.8-5.9,2.3-8.3c1.5-2.4,3.6-4.2,6.3-5.6
				c2.7-1.4,5.7-2.1,9.2-2.2c3.9,0,7.3,0.5,10.3,1.4c3,0.9,5.6,2.1,7.9,3.4L829.6,548.5z"/>
		</g>
		<g>
			<path class="st2" d="M679.6,598.1l26.3-62.9h0.5l26.4,62.9h-9.3L703.8,548l5.8-3.8l-22,53.9H679.6z M695,575.2h22.5l2.7,7h-27.5
				L695,575.2z"/>
			<path class="st2" d="M744.1,598.1v-60.3h16.4c6,0,11.1,0.9,15.3,2.7c4.2,1.8,7.6,4.2,10.1,7.3c2.6,3,4.5,6.4,5.6,10
				c1.2,3.6,1.8,7.3,1.8,10.9c0,4.6-0.8,8.7-2.4,12.3c-1.6,3.6-3.8,6.7-6.5,9.3c-2.8,2.6-5.9,4.5-9.5,5.9c-3.6,1.4-7.4,2-11.4,2
				H744.1z M752.2,590.4h9.8c3.3,0,6.3-0.5,9.1-1.5c2.8-1,5.3-2.4,7.3-4.3c2.1-1.9,3.7-4.2,4.9-7c1.2-2.8,1.8-5.9,1.8-9.5
				c0-3.7-0.6-6.9-1.8-9.7c-1.2-2.8-2.9-5.2-5-7.1c-2.1-1.9-4.5-3.3-7.2-4.3c-2.7-1-5.5-1.5-8.3-1.5h-10.5V590.4z"/>
			<path class="st2" d="M838.2,548.5c-2.1-1.1-4.3-2-6.8-2.8c-2.4-0.8-4.8-1.2-7.2-1.2c-3.2,0-5.8,0.8-7.7,2.3
				c-1.9,1.5-2.9,3.5-2.9,6c0,1.9,0.6,3.5,1.9,4.8c1.3,1.3,2.9,2.4,4.8,3.4c2,0.9,4.1,1.8,6.3,2.7c1.8,0.7,3.7,1.5,5.5,2.4
				s3.5,2,5,3.4c1.5,1.3,2.6,3,3.5,4.9c0.9,1.9,1.3,4.3,1.3,7.2c0,3.2-0.8,6.1-2.4,8.8c-1.6,2.6-3.9,4.7-6.8,6.2
				c-3,1.5-6.5,2.3-10.6,2.3c-2.6,0-5.1-0.3-7.6-0.9c-2.4-0.6-4.7-1.4-6.7-2.4c-2.1-1-3.9-2-5.5-3.1l3.6-6.3
				c1.3,0.9,2.9,1.9,4.6,2.7c1.7,0.9,3.5,1.5,5.4,2c1.9,0.5,3.7,0.8,5.5,0.8c1.9,0,3.8-0.3,5.7-1c1.8-0.7,3.4-1.7,4.6-3.2
				c1.2-1.4,1.8-3.4,1.8-5.8c0-2-0.5-3.7-1.6-5.1c-1.1-1.4-2.5-2.6-4.3-3.5c-1.8-1-3.7-1.8-5.7-2.6c-1.9-0.7-3.9-1.4-5.8-2.3
				c-1.9-0.9-3.7-2-5.3-3.2c-1.6-1.3-3-2.8-4-4.6c-1-1.8-1.5-4.1-1.5-6.7c0-3.2,0.8-5.9,2.3-8.3c1.5-2.4,3.6-4.2,6.3-5.6
				c2.7-1.4,5.7-2.1,9.2-2.2c3.9,0,7.3,0.5,10.3,1.4c3,0.9,5.6,2.1,7.9,3.4L838.2,548.5z"/>
		</g>
		<g>
			<path class="st4" d="M673.2,598.1l27.7-63.9h0.7l27.7,63.9h-14l-17.7-44.9l8.8-6l-21.2,50.9H673.2z M692.2,575.9h18.4l4.3,10.2
				h-26.5L692.2,575.9z"/>
			<path class="st4" d="M738.2,598.1v-61.4h18.4c6.2,0,11.4,0.9,15.8,2.8c4.3,1.8,7.8,4.3,10.5,7.3c2.6,3.1,4.6,6.5,5.8,10.3
				c1.2,3.8,1.8,7.6,1.8,11.4c0,4.6-0.8,8.7-2.5,12.3c-1.6,3.6-3.9,6.8-6.7,9.3c-2.8,2.6-6.1,4.6-9.8,5.9c-3.7,1.4-7.7,2-11.9,2
				H738.2z M750.3,586.4h7.2c3.1,0,5.8-0.4,8.3-1.2c2.5-0.8,4.7-2,6.5-3.5c1.8-1.6,3.2-3.5,4.2-5.9c1-2.4,1.5-5.1,1.5-8.1
				c0-4-0.7-7.3-2-9.8c-1.3-2.5-2.9-4.5-4.8-5.9c-1.9-1.4-3.9-2.4-5.9-2.9c-2-0.5-3.7-0.8-5.1-0.8h-9.8V586.4z"/>
			<path class="st4" d="M835.4,551.5c-2.3-1.3-4.7-2.3-7.1-3.2c-2.4-0.8-4.7-1.3-6.8-1.3c-2.6,0-4.7,0.5-6.2,1.6
				c-1.5,1.1-2.3,2.6-2.3,4.8c0,1.4,0.6,2.7,1.7,3.9c1.1,1.1,2.6,2.2,4.4,3c1.8,0.9,3.7,1.7,5.6,2.4c1.8,0.7,3.5,1.5,5.3,2.4
				s3.3,2.1,4.7,3.4c1.4,1.4,2.5,3.1,3.3,5.1c0.8,2,1.3,4.5,1.3,7.5c0,3.1-0.8,6-2.4,8.7c-1.6,2.7-4,4.8-7.1,6.5
				c-3.1,1.6-7,2.5-11.5,2.5c-2.3,0-4.7-0.2-7.1-0.7c-2.4-0.5-4.8-1.2-7.1-2.2c-2.3-1-4.6-2.2-6.8-3.7l5.3-9.4c1.4,1.1,3,2,4.7,2.8
				c1.7,0.8,3.4,1.4,5.1,1.9c1.7,0.4,3.3,0.7,4.8,0.7c1.4,0,2.9-0.2,4.4-0.6c1.5-0.4,2.7-1.1,3.7-2.1s1.5-2.4,1.5-4.2
				c0-1.2-0.4-2.3-1.2-3.3c-0.8-1-1.9-1.9-3.3-2.8c-1.4-0.8-2.9-1.6-4.5-2.2c-1.9-0.7-3.8-1.6-5.8-2.5c-2-0.9-3.9-2.1-5.6-3.5
				c-1.8-1.4-3.2-3.1-4.3-5.1c-1.1-2-1.6-4.5-1.6-7.5c0-3.6,0.8-6.6,2.4-9.3c1.6-2.6,3.8-4.7,6.7-6.2c2.9-1.5,6.2-2.4,10-2.5
				c5,0,9,0.6,12.1,1.8c3.1,1.2,5.9,2.6,8.3,4.2L835.4,551.5z"/>
		</g>
	</g>
</g>
<g>
	<path class="st3" d="M172.2,229.5v-17.7h5.3c1.8,0,3.3,0.3,4.5,0.8s2.3,1.2,3,2.1c0.8,0.9,1.3,1.9,1.7,3c0.4,1.1,0.5,2.2,0.5,3.3
		c0,1.3-0.2,2.5-0.7,3.5c-0.5,1-1.1,1.9-1.9,2.7s-1.8,1.3-2.8,1.7c-1.1,0.4-2.2,0.6-3.4,0.6H172.2z M175.7,226.1h2.1
		c0.9,0,1.7-0.1,2.4-0.3c0.7-0.2,1.3-0.6,1.9-1c0.5-0.4,0.9-1,1.2-1.7c0.3-0.7,0.4-1.5,0.4-2.3c0-1.2-0.2-2.1-0.6-2.8
		c-0.4-0.7-0.8-1.3-1.4-1.7c-0.6-0.4-1.1-0.7-1.7-0.8c-0.6-0.2-1.1-0.2-1.5-0.2h-2.8V226.1z"/>
	<path class="st3" d="M187.5,229.5l8-18.4h0.2l8,18.4h-4l-5.1-12.9l2.5-1.7l-6.1,14.6H187.5z M191.1,206.9h3.7l1.5,3.2h-2
		L191.1,206.9z M192.9,223.1h5.3l1.2,2.9h-7.6L192.9,223.1z"/>
	<path class="st3" d="M222,230.2l-13.4-12.1l1,0.6l0.1,10.8h-3.5v-18.4h0.1l13.1,12l-0.8-0.3l-0.1-11h3.5L222,230.2L222,230.2z"/>
	<path class="st3" d="M241.5,211.8v17.7H238v-7.2h-7.9v7.2h-3.5v-17.7h3.5v7.1h7.9v-7.1H241.5z"/>
	<path class="st3" d="M267.1,228c-0.2,0.2-0.5,0.4-1.1,0.6s-1.2,0.5-1.9,0.7c-0.8,0.2-1.6,0.3-2.5,0.3c-1.4,0-2.6-0.3-3.7-0.8
		c-1.1-0.5-2-1.1-2.8-1.9c-0.8-0.8-1.3-1.8-1.7-2.8c-0.4-1.1-0.6-2.2-0.6-3.4c0-1.3,0.2-2.6,0.6-3.7s1-2.1,1.8-2.9
		c0.8-0.8,1.7-1.4,2.7-1.9c1.1-0.4,2.2-0.7,3.5-0.7c1.2,0,2.2,0.2,3.1,0.5c0.9,0.3,1.7,0.7,2.2,1l-1.4,3.3c-0.4-0.3-0.9-0.6-1.6-0.9
		c-0.7-0.3-1.4-0.5-2.3-0.5c-0.7,0-1.3,0.1-1.9,0.4c-0.6,0.3-1.2,0.7-1.6,1.2c-0.5,0.5-0.8,1.1-1.1,1.8c-0.3,0.7-0.4,1.4-0.4,2.2
		c0,0.8,0.1,1.6,0.4,2.3s0.6,1.3,1.1,1.8c0.5,0.5,1,0.9,1.7,1.2c0.6,0.3,1.4,0.4,2.2,0.4c0.9,0,1.8-0.2,2.4-0.5
		c0.7-0.3,1.2-0.6,1.5-1L267.1,228z"/>
	<path class="st3" d="M285.5,211.8v17.7H282v-7.2h-7.9v7.2h-3.5v-17.7h3.5v7.1h7.9v-7.1H285.5z"/>
	<path class="st3" d="M288.9,220.7c0-1.2,0.2-2.4,0.7-3.5c0.5-1.1,1.1-2.1,1.9-2.9c0.8-0.8,1.8-1.5,2.9-2c1.1-0.5,2.3-0.7,3.5-0.7
		c1.2,0,2.4,0.2,3.5,0.7c1.1,0.5,2.1,1.1,2.9,2c0.8,0.8,1.5,1.8,2,2.9c0.5,1.1,0.7,2.2,0.7,3.5c0,1.2-0.2,2.4-0.7,3.5
		c-0.5,1.1-1.1,2-2,2.9c-0.8,0.8-1.8,1.5-2.9,1.9c-1.1,0.5-2.2,0.7-3.5,0.7c-1.2,0-2.4-0.2-3.5-0.7c-1.1-0.5-2-1.1-2.9-1.9
		c-0.8-0.8-1.5-1.8-1.9-2.9C289.2,223.1,288.9,221.9,288.9,220.7z M292.5,220.7c0,0.8,0.1,1.5,0.4,2.2c0.3,0.7,0.7,1.3,1.2,1.8
		c0.5,0.5,1.1,0.9,1.8,1.2c0.7,0.3,1.4,0.4,2.2,0.4c0.8,0,1.5-0.1,2.1-0.4s1.2-0.7,1.7-1.2c0.5-0.5,0.9-1.1,1.1-1.8
		c0.3-0.7,0.4-1.4,0.4-2.2c0-0.8-0.1-1.5-0.4-2.2c-0.3-0.7-0.7-1.3-1.2-1.8c-0.5-0.5-1.1-0.9-1.7-1.2s-1.4-0.4-2.1-0.4
		s-1.5,0.1-2.1,0.4c-0.7,0.3-1.2,0.7-1.7,1.2c-0.5,0.5-0.9,1.1-1.2,1.8C292.7,219.1,292.5,219.9,292.5,220.7z"/>
	<path class="st3" d="M317.1,211.8H329v3.4h-4.3v14.3h-3.5v-14.3h-4.1V211.8z"/>
	<path class="st3" d="M347.2,211.8v17.7h-3.5v-7.2h-7.9v7.2h-3.5v-17.7h3.5v7.1h7.9v-7.1H347.2z"/>
	<path class="st3" d="M349.8,229.5l8-18.4h0.2l8,18.4h-4l-5.1-12.9l2.5-1.7l-6.1,14.6H349.8z M353.4,206.9h3.7l1.5,3.2h-2
		L353.4,206.9z M355.2,223.1h5.3l1.2,2.9h-7.6L355.2,223.1z"/>
	<path class="st3" d="M384.3,230.2l-13.4-12.1l1,0.6l0.1,10.8h-3.5v-18.4h0.1l13.1,12l-0.8-0.3l-0.1-11h3.5L384.3,230.2L384.3,230.2
		z"/>
	<path class="st3" d="M403.8,211.8v17.7h-3.5v-7.2h-7.9v7.2h-3.5v-17.7h3.5v7.1h7.9v-7.1H403.8z"/>
	<path class="st3" d="M418.8,211.8l5.2,12.7l-2-0.4l4.7-12.3h4.1l-8.1,18.5l-8.1-18.5H418.8z"/>
	<path class="st3" d="M433.8,211.8h3.5v17.7h-3.5V211.8z"/>
	<path class="st3" d="M441.8,211.8h12v3.4h-8.6v3.8h7.6v3.4h-7.6v3.8h8.9v3.4h-12.4V211.8z M449.1,210.4l-1.9-1.8l0.8-0.2l-1.9,2h-3
		l4.4-4.4h0l4.5,4.4H449.1z"/>
	<path class="st3" d="M473.6,230.2l-13.4-12.1l1,0.6l0.1,10.8h-3.5v-18.4h0.1l13.1,12l-0.8-0.3l-0.1-11h3.5L473.6,230.2L473.6,230.2
		z"/>
</g>
<g>
	<g>
		<path class="st4" d="M185.8,388.5h32.4l-1.2,9.3h-11.5l-4.8,38.7h-9.8l4.8-38.7h-11.1L185.8,388.5z"/>
		<path class="st4" d="M225.3,436.5h-9.3l27.8-49.9h0.5l15.5,49.9h-11l-9.5-35.1l7.4-4.7L225.3,436.5z M232.9,419.1h14.4l2.4,8H229
			L232.9,419.1z M242.8,375.7l4,8.8h-5.5l-8.6-8.8H242.8z"/>
		<path class="st4" d="M272.7,388.5h9.8l-5.9,48h-9.8L272.7,388.5z"/>
		<path class="st4" d="M322.1,405.6l-0.6,2.4l1.7-1.8l17.8-17.7h12.3L330.8,410l16.6,26.5h-12L323.1,416l-2.6,2.4l-2.2,18.1h-9.6
			l5.9-48h9.6L322.1,405.6z"/>
		<path class="st4" d="M400.7,388.5l-5.9,48h-9.8l2.4-19.5h-20.8l-2.4,19.5h-9.8l5.9-48h9.8l-2.4,19.3h20.8l2.4-19.3H400.7z"/>
		<path class="st4" d="M430.6,437c-2.7,0-5.5-0.4-8.2-1.3c-2.7-0.9-5.2-2.2-7.4-4.1c-2.2-1.8-4-4.2-5.4-7.1c-1.3-2.9-2-6.3-2-10.3
			c0-2.9,0.5-5.8,1.6-8.9c1.1-3.1,2.7-5.9,4.8-8.5c2.2-2.6,4.9-4.7,8.2-6.3c3.3-1.6,7.1-2.4,11.5-2.4c2.7,0,5.5,0.4,8.2,1.3
			c2.7,0.9,5.2,2.2,7.4,4.1c2.2,1.9,4,4.2,5.4,7.1c1.3,2.9,2,6.3,2,10.3c0,2.9-0.5,5.8-1.6,8.9c-1.1,3.1-2.7,5.9-4.8,8.5
			c-2.2,2.6-4.9,4.7-8.2,6.3C438.8,436.2,435,437,430.6,437z M430.7,427.8c3,0,5.5-0.5,7.5-1.5c2.1-1,3.7-2.4,5-4
			c1.3-1.7,2.2-3.4,2.8-5.4c0.6-1.9,0.9-3.8,0.9-5.5c0-1.9-0.3-3.7-1-5.4c-0.7-1.7-1.6-3.2-2.8-4.5c-1.2-1.3-2.7-2.4-4.3-3.1
			c-1.7-0.8-3.5-1.1-5.5-1.1c-3,0-5.5,0.5-7.5,1.5c-2,1-3.7,2.4-4.9,4c-1.2,1.7-2.1,3.4-2.7,5.4c-0.5,1.9-0.8,3.8-0.8,5.5
			c0,1.9,0.3,3.7,1,5.4c0.7,1.7,1.6,3.2,2.7,4.6c1.2,1.3,2.6,2.4,4.2,3.1C426.9,427.4,428.7,427.8,430.7,427.8z"/>
		<path class="st4" d="M466.8,436.5h-9.3l27.8-49.9h0.5l15.5,49.9h-11l-9.5-35.1l7.4-4.7L466.8,436.5z M474.4,419.1h14.4l2.4,8
			h-20.7L474.4,419.1z M484.2,382.5c0.8-0.5,1.4-1,2-1.5c0.5-0.5,0.9-1.1,0.9-1.9c0.1-0.7,0-1.2-0.3-1.6c-0.3-0.4-0.8-0.6-1.6-0.6
			c-0.5,0-1,0.2-1.4,0.5c-0.4,0.3-0.8,0.7-1,1.1l-3-2.2c0.9-1.4,1.9-2.5,3.2-3.2c1.3-0.7,2.5-1,3.9-1c2,0,3.5,0.6,4.3,1.7
			c0.8,1.1,1.2,2.3,1.2,3.6c0,1.1-0.5,2.3-1.4,3.8c-0.9,1.4-2.7,2.7-5.2,3.8L484.2,382.5z"/>
		<path class="st4" d="M551.3,438.5h-0.3l-32.4-32.9l2.6,1.6l-3.4,29.4h-9.6l6.1-49.9h0.4l31.6,32.8l-2-0.9l3.5-30h9.5L551.3,438.5z
			"/>
	</g>
</g>
</svg>
