<svg width="326" height="455" viewBox="0 0 326 455" fill="none" xmlns="http://www.w3.org/2000/svg">
<path d="M195.752 113.504L128.813 228.498L194.569 340.187L127.652 453.438L0.629456 227.828L129.997 0.11792L195.752 113.504Z" fill="url(#paint0_linear_36_2)"/>
<path d="M258.649 454.131L127.652 453.438L194.569 340.186L324.449 340.856L258.649 454.131Z" fill="url(#paint1_linear_36_2)"/>
<path d="M128.813 228.498L259.81 227.47L324.449 340.856L194.569 340.186L128.813 228.498Z" fill="url(#paint2_linear_36_2)"/>
<path d="M195.752 114L325.633 114.692L259.81 227.967L128.813 228.994L195.752 114Z" fill="url(#paint3_linear_36_2)"/>
<path d="M129.997 0.11792L261.619 0.810382L325.633 114.196L195.752 113.504L129.997 0.11792Z" fill="url(#paint4_linear_36_2)"/>
<defs>
<linearGradient id="paint0_linear_36_2" x1="100.689" y1="3.47482" x2="96.1533" y2="456.795" gradientUnits="userSpaceOnUse">
<stop stop-color="#2B48CB"/>
<stop offset="1" stop-color="#5F87E3"/>
</linearGradient>
<linearGradient id="paint1_linear_36_2" x1="226.303" y1="344.476" x2="225.166" y2="458.086" gradientUnits="userSpaceOnUse">
<stop stop-color="#4B88EC"/>
<stop offset="1" stop-color="#2B48CB"/>
</linearGradient>
<linearGradient id="paint2_linear_36_2" x1="227.433" y1="231.425" x2="226.302" y2="344.476" gradientUnits="userSpaceOnUse">
<stop stop-color="#2B48CB"/>
<stop offset="1" stop-color="#78A6EF"/>
</linearGradient>
<linearGradient id="paint3_linear_36_2" x1="228.569" y1="118.313" x2="227.415" y2="233.642" gradientUnits="userSpaceOnUse">
<stop stop-color="#5F87E3"/>
<stop offset="1" stop-color="#2B48CB"/>
</linearGradient>
<linearGradient id="paint4_linear_36_2" x1="229.699" y1="4.76549" x2="228.568" y2="117.816" gradientUnits="userSpaceOnUse">
<stop stop-color="#5F87E3"/>
<stop offset="1" stop-color="#97B6F6"/>
</linearGradient>
</defs>
</svg>
