<?xml version="1.0" encoding="utf-8"?>
<!-- Generator: Adobe Illustrator 23.0.1, SVG Export Plug-In . SVG Version: 6.00 Build 0)  -->
<svg version="1.1" id="Layer_1" xmlns="http://www.w3.org/2000/svg" xmlns:xlink="http://www.w3.org/1999/xlink" x="0px" y="0px"
	 viewBox="0 0 487 126.3" style="enable-background:new 0 0 487 126.3;" xml:space="preserve">
<style type="text/css">
	.st0{display:none;}
	.st1{display:inline;opacity:0.33;fill:#840036;stroke:#000000;stroke-width:2;stroke-miterlimit:10;enable-background:new    ;}
	.st2{display:inline;}
	.st3{fill:url(#SVGID_1_);}
	.st4{fill:url(#SVGID_2_);}
	.st5{fill:url(#SVGID_3_);}
	.st6{fill:url(#SVGID_4_);}
	.st7{fill:url(#SVGID_5_);}
	.st8{fill:url(#SVGID_6_);}
	.st9{display:inline;fill:#0E3CA5;}
	.st10{fill:#2D88E2;}
	.st11{fill:#FFFFFF;}
	.st12{fill:#595959;}
</style>
<g class="st0">
	<polygon class="st1" points="189.3,142.2 109.5,96.6 189.3,49.5 269.2,96.1 	"/>
	<polygon class="st1" points="185,93.6 109.4,45.7 187,4.6 267.2,48.7 	"/>
	<polygon class="st1" points="188.3,188.5 108.5,142.9 188.3,95.9 268.2,142.4 	"/>
</g>
<g class="st0">
	<g class="st2">
		
			<linearGradient id="SVGID_1_" gradientUnits="userSpaceOnUse" x1="44.7" y1="529.445" x2="191.55" y2="529.445" gradientTransform="matrix(1 0 0 1 0 -384)">
			<stop  offset="0" style="stop-color:#FFFFFF"/>
			<stop  offset="1" style="stop-color:#EFEFEF"/>
		</linearGradient>
		<polygon class="st3" points="191.6,147.6 122.1,103.4 44.7,141.9 49,148.6 121.7,187.1 127.4,187.5 191.2,151.1 		"/>
		
			<linearGradient id="SVGID_2_" gradientUnits="userSpaceOnUse" x1="151.3013" y1="624.7976" x2="65.6044" y2="539.1006" gradientTransform="matrix(0.9707 -1.330000e-02 2.030000e-02 0.9099 0.2193 -381.5165)">
			<stop  offset="0" style="stop-color:#4B88EC"/>
			<stop  offset="8.567870e-03" style="stop-color:#4A87EB"/>
			<stop  offset="0.6759" style="stop-color:#1F51B9"/>
			<stop  offset="1" style="stop-color:#0E3CA5"/>
		</linearGradient>
		<path class="st4" d="M192.3,144.3L121,99.8c-1.6-1-3.6-1.1-5.3-0.2l-73.2,40.2c-1.7,0.9-2.7,2.7-2.7,4.6c0,1.9,1,3.7,2.8,4.6
			l78.6,41.8l0,0c0.7,0.4,1.5,0.6,2.3,0.6c0.9,0,1.9-0.2,2.7-0.7l66-37.4c1.6-0.9,2.6-2.6,2.6-4.4
			C194.8,147,193.9,145.3,192.3,144.3z M188.1,152l-16.2,8.5c-3.1-6.1-9.8-10.5-17.8-10.9c-11.3-0.6-20.9,7.2-21.4,17.4
			c-0.2,4,5.4,6.7,8.4,9.7l-15.7,8.2c-0.6,0.3-1.4,0.3-2,0l-73.4-39.4c-0.7-0.4-1.1-1-1.1-1.8s0.4-1.4,1.1-1.8l69.6-35.3
			c0.7-0.3,1.5-0.3,2.1,0.1l66.5,41.8c0.6,0.4,1,1.1,0.9,1.8S188.7,151.6,188.1,152z"/>
	</g>
	<g class="st2">
		
			<linearGradient id="SVGID_3_" gradientUnits="userSpaceOnUse" x1="43.28" y1="495.05" x2="194.05" y2="495.05" gradientTransform="matrix(1 0 0 1 0 -384)">
			<stop  offset="0" style="stop-color:#FFFFFF"/>
			<stop  offset="1" style="stop-color:#EFEFEF"/>
		</linearGradient>
		<polygon class="st5" points="193.3,109.8 117.1,67.7 43.3,106.6 44.3,111.2 115.6,154.4 122.8,152.9 187.3,119.1 193.7,115.5 
			194.1,111.6 		"/>
		
			<linearGradient id="SVGID_4_" gradientUnits="userSpaceOnUse" x1="168.8089" y1="545.8695" x2="90.5358" y2="467.5965" gradientTransform="matrix(1.0191 3.210000e-02 -3.030000e-02 0.9639 1.2777 -382.2903)">
			<stop  offset="0" style="stop-color:#4B88EC"/>
			<stop  offset="8.567870e-03" style="stop-color:#4A87EB"/>
			<stop  offset="0.6759" style="stop-color:#1F51B9"/>
			<stop  offset="1" style="stop-color:#0E3CA5"/>
		</linearGradient>
		<path class="st6" d="M193.2,107.9l-71.1-44.5c-1.6-1-3.6-1.1-5.3-0.2l-73.7,40.4c-1.7,0.9-2.7,2.6-2.7,4.4s0.9,3.6,2.5,4.6
			l71,43.6c0.8,0.5,1.7,0.7,2.6,0.8s1.8-0.2,2.6-0.6l73.8-39.5c1.7-0.9,2.7-2.5,2.8-4.4C195.7,110.7,194.8,108.9,193.2,107.9z
			 M191.7,115.8l-72.5,36.6c-0.7,0.4-1.5,0.3-2.2-0.1l-39.7-23.1c0.6-0.2,1.3-0.4,1.9-0.6c8.2-3,13.1-10.7,10.9-17.2
			S79.4,102,71.2,105c-6.9,2.5-11.4,8.3-11.4,14l-12.6-7.3c-0.7-0.4-1.1-1.1-1-1.8s0.4-1.4,1.1-1.8l72.4-37.5
			c0.3-0.2,0.7-0.3,1.1-0.3c0.4,0,0.8,0.1,1.1,0.3l70,41.5c0.7,0.4,1.1,1.1,1,1.8S192.4,115.4,191.7,115.8z"/>
	</g>
	<g class="st2">
		
			<linearGradient id="SVGID_5_" gradientUnits="userSpaceOnUse" x1="154.0425" y1="492.9214" x2="79.7175" y2="418.0486" gradientTransform="matrix(1 0 0 1 0 -384)">
			<stop  offset="0" style="stop-color:#FFFFFF"/>
			<stop  offset="1" style="stop-color:#EFEFEF"/>
		</linearGradient>
		<polygon class="st7" points="126.3,37.5 117.1,30 44.7,68.8 62.9,83.4 113.5,116.2 189.1,74.2 		"/>
		
			<linearGradient id="SVGID_6_" gradientUnits="userSpaceOnUse" x1="137.2843" y1="502.242" x2="54.4601" y2="419.4176" gradientTransform="matrix(0.9992 -4.050000e-02 4.050000e-02 0.9992 2.4501 -385.2292)">
			<stop  offset="0" style="stop-color:#4B88EC"/>
			<stop  offset="8.567870e-03" style="stop-color:#4A87EB"/>
			<stop  offset="0.6759" style="stop-color:#1F51B9"/>
			<stop  offset="1" style="stop-color:#0E3CA5"/>
		</linearGradient>
		<path class="st8" d="M190.7,68.1l-72.5-39.9c-1.6-0.9-3.4-0.9-5,0L43.2,65.4c-1.7,0.9-2.7,2.5-2.8,4.4c-0.1,1.9,0.8,3.6,2.4,4.6
			l68.3,43.2c0.8,0.5,1.8,0.8,2.8,0.8c0.9,0,1.7-0.2,2.5-0.6l74.3-40.5c1.7-0.9,2.7-2.6,2.7-4.6S192.4,69.1,190.7,68.1z M184.4,75.6
			l-69.9,36.7c-0.7,0.3-1.5,0.3-2.1-0.1l-63-41.3c-0.6-0.4-1-1.1-0.9-1.8c0-0.8,0.5-1.4,1.1-1.7l65.9-33.6c0.6-0.3,1.4-0.3,2,0
			l13.9,7.9c-1.4,0.2-2.6,0.8-3.7,1.8c0,0,0,0,0,0c-11.5,11.1-14.3,27-6.2,35.3s24,6.1,35.5-5.1c1.5-1.4,2.8-3,4-4.5
			c0.8-1.1,1.3-2.4,1.3-3.8l0.1-3.8c0-0.9-0.1-1.8-0.5-2.5l22.7,13c0.7,0.4,1.1,1.1,1,1.8C185.4,74.6,185,75.3,184.4,75.6z"/>
	</g>
</g>
<g>
	<g>
		<g class="st0">
			<path class="st9" d="M129.8,107.9l2.9-3.7c1.9,1.6,3.9,2.4,6.1,2.4c1.4,0,2.1-0.5,2.1-1.4v-0.1c0-0.8-0.6-1.3-3.1-1.9
				c-3.9-1-7-2.2-7-6.3v-0.1c0-3.8,2.8-6.5,7.2-6.5c3.2,0,5.6,0.9,7.7,2.7l-2.6,3.9c-1.7-1.3-3.6-2-5.2-2c-1.3,0-1.9,0.6-1.9,1.3
				v0.1c0,0.9,0.7,1.4,3.2,2c4.3,1,7,2.5,7,6.3v0.1c0,4.1-3,6.6-7.6,6.6C135.2,111.2,132.1,110.1,129.8,107.9z"/>
			<path class="st9" d="M147.7,103.2L147.7,103.2c0-4.5,3.4-8.2,8-8.2s7.9,3.7,7.9,8.1v0.1c0,4.5-3.4,8.2-8,8.2
				S147.7,107.6,147.7,103.2z M158.7,103.2L158.7,103.2c0-2-1.3-3.6-3.1-3.6c-1.8,0-3,1.6-3,3.5v0.1c0,1.9,1.3,3.5,3.1,3.5
				C157.5,106.6,158.7,105,158.7,103.2z"/>
			<path class="st9" d="M165.9,89.8h5.1v21.1h-5.1V89.8z"/>
			<path class="st9" d="M173.6,105.5V95.3h5.1v8.4c0,1.7,0.8,2.6,2.1,2.6c1.2,0,2.1-0.9,2.1-2.6v-8.4h5.1v15.6h-5.1v-2.1
				c-0.9,1.3-2.3,2.5-4.3,2.5C175.5,111.2,173.6,109.1,173.6,105.5z"/>
			<path class="st9" d="M191.6,106.1v-6.4h-1.7v-4.4h1.7v-3.9h5.1v3.9h3.4v4.4h-3.4v5.3c0,1.1,0.4,1.6,1.4,1.6
				c0.7,0,1.3-0.2,1.9-0.5v4.3c-0.9,0.6-2.1,0.9-3.5,0.9C193.3,111.2,191.6,109.8,191.6,106.1z"/>
			<path class="st9" d="M202.2,89.8h5.3v4h-5.3V89.8z M202.3,95.3h5.1v15.6h-5.1V95.3z"/>
			<path class="st9" d="M209.6,103.2L209.6,103.2c0-4.5,3.4-8.2,8-8.2s7.9,3.7,7.9,8.1v0.1c0,4.5-3.4,8.2-8,8.2
				C212.9,111.3,209.6,107.6,209.6,103.2z M220.6,103.2L220.6,103.2c0-2-1.3-3.6-3.1-3.6c-1.8,0-3,1.6-3,3.5v0.1
				c0,1.9,1.3,3.5,3.1,3.5C219.4,106.6,220.6,105,220.6,103.2z"/>
			<path class="st9" d="M227.7,95.3h5.1v2.2c0.9-1.3,2.3-2.5,4.3-2.5c3.1,0,4.9,2.2,4.9,5.7v10.2h-5.1v-8.4c0-1.7-0.8-2.6-2-2.6
				c-1.3,0-2.1,0.9-2.1,2.6v8.4h-5.1V95.3z"/>
		</g>
		<g>
			<rect x="10" y="10.3" class="st10" width="106.2" height="106.2"/>
			<g>
				<path class="st11" d="M32,79.8l-6.7,6.9v14.1h22L32,79.8z"/>
				<path class="st11" d="M100.9,26.1H25.3v43.2L51.6,41h17.9L42,69.7l23,31.2h35.9V26.1z"/>
			</g>
		</g>
	</g>
	<g>
		<path class="st10" d="M143,14.8h16.7v26.4l20.7-26.4h19.8l-22.8,28L201,79.9h-20l-15.1-24.2l-6.1,7.3v16.8H143L143,14.8L143,14.8z
			"/>
		<path class="st10" d="M216.8,65.5v-0.2c0-10.4,7.3-15.8,18.2-15.8c4.4,0,8.5,0.9,11.2,2v-0.8c0-5.2-3-8.2-9.3-8.2
			c-4.9,0-8.7,1-12.8,2.8l-3.4-12.5c5.3-2.3,10.8-3.9,18.8-3.9c8.3,0,14,2.1,17.7,6.1c3.5,3.7,5,8.9,5,16v28.9h-16.2v-5.2
			c-3.2,3.8-7.5,6.3-13.7,6.3C223.6,81,216.8,75.6,216.8,65.5z M246.4,61.7v-2.3c-1.6-0.7-3.9-1.3-6.4-1.3c-4.8,0-7.5,2.5-7.5,6.2
			v0.2c0,3.4,2.4,5.5,5.8,5.5C243.1,70,246.4,66.8,246.4,61.7z"/>
		<path class="st10" d="M280.8,29.6h16.3v7.1c3-4.2,7.3-8.2,13.9-8.2c10,0,15.8,7,15.8,18.5v32.9h-16.3V52.7c0-5.6-2.7-8.5-6.5-8.5
			c-4,0-6.9,2.9-6.9,8.5v27.2h-16.3V29.6L280.8,29.6z"/>
	</g>
	<g class="st0">
		<g class="st2">
			<path class="st12" d="M143.7,109.6l1.9-2.3c1.4,1.1,2.7,1.8,4.4,1.8c1.4,0,2.1-0.5,2.1-1.4v0c0-0.8-0.5-1.3-3-1.9
				c-3-0.7-4.9-1.6-4.9-4.5v0c0-2.7,2.1-4.5,5.2-4.5c2.2,0,4,0.7,5.5,1.9l-1.7,2.5c-1.3-0.9-2.6-1.5-3.9-1.5s-1.9,0.6-1.9,1.3v0
				c0,1,0.6,1.3,3.2,1.9c3,0.8,4.7,1.9,4.7,4.4v0c0,2.9-2.3,4.6-5.4,4.6C147.7,112,145.5,111.2,143.7,109.6z"/>
			<path class="st12" d="M172.3,106.2L172.3,106.2c0-3.3,2.6-6,6.2-6c3.5,0,6.1,2.6,6.1,5.9v0c0,3.3-2.6,5.9-6.2,5.9
				C175,112.1,172.3,109.5,172.3,106.2z M181.4,106.2L181.4,106.2c0-1.7-1.2-3.2-3-3.2c-1.8,0-2.9,1.4-2.9,3.1v0
				c0,1.7,1.2,3.1,3,3.1C180.3,109.3,181.4,107.9,181.4,106.2z"/>
			<path class="st12" d="M201,96.3h3.2v15.5H201V96.3z"/>
			<path class="st12" d="M221.1,107.8v-7.3h3.2v6.3c0,1.5,0.7,2.3,1.9,2.3s2-0.8,2-2.3v-6.3h3.2v11.3h-3.2v-1.6
				c-0.7,0.9-1.7,1.8-3.3,1.8C222.5,112,221.1,110.4,221.1,107.8z"/>
			<path class="st12" d="M248.9,108.6v-5.4h-1.4v-2.8h1.4v-2.9h3.2v2.9h2.7v2.8h-2.7v4.8c0,0.7,0.3,1.1,1,1.1c0.6,0,1.1-0.1,1.6-0.4
				v2.6c-0.7,0.4-1.5,0.7-2.6,0.7C250.3,112,248.9,111.2,248.9,108.6z"/>
			<path class="st12" d="M270.1,96.3h3.4v2.9h-3.4V96.3z M270.2,100.4h3.2v11.3h-3.2V100.4z"/>
			<path class="st12" d="M289.9,106.2L289.9,106.2c0-3.3,2.6-6,6.2-6c3.5,0,6.1,2.6,6.1,5.9v0c0,3.3-2.6,5.9-6.2,5.9
				C292.5,112.1,289.9,109.5,289.9,106.2z M299,106.2L299,106.2c0-1.7-1.2-3.2-3-3.2c-1.8,0-3,1.4-3,3.1v0c0,1.7,1.2,3.1,3,3.1
				C297.9,109.3,299,107.9,299,106.2z"/>
			<path class="st12" d="M316.4,100.4h3.2v1.6c0.7-0.9,1.7-1.8,3.3-1.8c2.5,0,3.9,1.6,3.9,4.2v7.3h-3.2v-6.3c0-1.5-0.7-2.3-2-2.3
				s-2,0.8-2,2.3v6.3h-3.2L316.4,100.4L316.4,100.4z"/>
		</g>
	</g>
</g>
<g>
	<path class="st12" d="M374,36.6H388l-22.5,42h-12.6l-7.7-42H358l3.5,25.7L374,36.6z"/>
	<path class="st12" d="M421.4,36.6H434l-7.4,42H414l0.5-2.9c-3.2,2.7-7.4,4-12.6,4c-6.5,0-11.1-2.4-14-7c-2.9-4.7-3.8-10.1-2.6-16.2
		c1.1-5.8,3.7-10.8,7.9-14.9c4.3-4.2,9.5-6.3,15.7-6.3c5.3,0,9.2,1.8,11.8,5.6L421.4,36.6z M417.7,57.6c1.1-6.3-2.4-10.2-8.1-10.2
		s-10.6,3.9-11.7,10.2c-1.1,6.3,2.3,10.2,8.1,10.2S416.6,63.8,417.7,57.6L417.7,57.6z"/>
	<path class="st12" d="M434.1,69.4l11.3-5.7c1.3,3.2,3.7,4.8,7.5,4.8c2.9,0,4.4-0.8,4.6-2.2c0.3-1.8-2.9-2.9-7-4
		c-5.8-1.4-13.2-4.7-11.3-14.2c1.6-8.9,10.2-12.7,17.6-12.7c7.4,0,13.4,3.4,16,9L461.5,50c-1-2.4-2.9-3.7-5.5-3.7
		c-2.5,0-3.9,0.8-4.3,2.6c-0.4,2.3,2.8,3.3,6.8,4.3c5.8,1.1,13.3,4,11.4,14c-1.6,8.5-8.7,12.5-18.2,12.5
		C443.1,79.8,437.2,76.3,434.1,69.4z"/>
</g>
<rect x="333.9" y="73.6" class="st10" width="6.2" height="6.2"/>
<rect x="334.9" y="72.5" class="st12" width="6.2" height="6.2"/>
<g>
	<path class="st12" d="M155.9,98.7v4h-4.7v14.2h-4.2v-14.2h-4.7v-4H155.9z"/>
	<path class="st12" d="M165.9,106.2c0.5-1.7,2.1-2.6,3.9-2.6v4.4c-1-0.2-1.8,0-2.7,0.5c-0.8,0.5-1.2,1.3-1.2,2.5v5.9H162v-13h3.9
		V106.2z"/>
	<path class="st12" d="M186.5,103.9h3.9v13h-3.9v-1.2c-0.9,1.1-2.2,1.6-3.9,1.6c-1.7,0-3.2-0.7-4.4-2c-1.2-1.3-1.8-3-1.8-4.9
		s0.6-3.5,1.8-4.9c1.2-1.3,2.7-2,4.4-2c1.7,0,3,0.5,3.9,1.6V103.9z M183.4,113.6c0.9,0,1.7-0.3,2.2-0.9c0.6-0.6,0.9-1.4,0.9-2.3
		s-0.3-1.7-0.9-2.3c-0.6-0.6-1.3-0.9-2.2-0.9s-1.7,0.3-2.2,0.9c-0.6,0.6-0.9,1.4-0.9,2.3s0.3,1.7,0.9,2.3
		C181.7,113.3,182.5,113.6,183.4,113.6z"/>
	<path class="st12" d="M210.2,105c0.9,1,1.4,2.3,1.4,4v8h-3.9v-7.4c0-1.5-0.9-2.4-2.3-2.4c-1.5,0-2.4,0.9-2.4,2.7v7.1h-3.9v-13h3.9
		v1.2c0.8-1.1,2-1.6,3.7-1.6C208.1,103.6,209.3,104,210.2,105z"/>
	<path class="st12" d="M231.2,105c0.9,1,1.4,2.3,1.4,4v8h-3.9v-7.4c0-1.5-0.9-2.4-2.3-2.4c-1.5,0-2.4,0.9-2.4,2.7v7.1h-3.9V98.7h3.9
		v6.4c0.8-1.1,2-1.6,3.7-1.6C229.2,103.6,230.3,104,231.2,105z"/>
	<path class="st12" d="M261.2,107.7h-2.7v4.6c0,1,0.8,1.2,2.7,1.1v3.5c-2.5,0.3-4.2,0-5.1-0.7c-1-0.8-1.4-2.1-1.4-4v-4.6h-2.1v-3.7
		h2.1v-2.5l3.9-1.2v3.6h2.7V107.7z"/>
	<path class="st12" d="M273.4,106.2c0.5-1.7,2.1-2.6,3.9-2.6v4.4c-1-0.2-1.8,0-2.7,0.5c-0.8,0.5-1.2,1.3-1.2,2.5v5.9h-3.9v-13h3.9
		V106.2z"/>
	<path class="st12" d="M294.1,103.9h3.9v13h-3.9v-1.2c-0.9,1.1-2.2,1.6-3.9,1.6c-1.7,0-3.2-0.7-4.4-2c-1.2-1.3-1.8-3-1.8-4.9
		s0.6-3.5,1.8-4.9c1.2-1.3,2.7-2,4.4-2c1.7,0,3,0.5,3.9,1.6V103.9z M291,113.6c0.9,0,1.7-0.3,2.2-0.9c0.6-0.6,0.9-1.4,0.9-2.3
		s-0.3-1.7-0.9-2.3c-0.6-0.6-1.3-0.9-2.2-0.9s-1.7,0.3-2.2,0.9c-0.6,0.6-0.9,1.4-0.9,2.3s0.3,1.7,0.9,2.3
		C289.3,113.3,290.1,113.6,291,113.6z"/>
	<path class="st12" d="M317.8,105c0.9,1,1.4,2.3,1.4,4v8h-3.9v-7.4c0-1.5-0.9-2.4-2.3-2.4c-1.5,0-2.4,0.9-2.4,2.7v7.1h-3.9v-13h3.9
		v1.2c0.8-1.1,2-1.6,3.7-1.6C315.7,103.6,316.9,104,317.8,105z"/>
	<path class="st12" d="M337.3,103.9h3.8v12.4c0,2.1-0.7,3.6-2,4.6c-1.3,1.1-3,1.6-4.9,1.6c-2.9,0-5-1-6.2-3.1l3.3-1.9
		c0.6,1.1,1.6,1.6,3,1.6c1.8,0,2.9-1,2.9-2.8v-1.2c-0.9,1.1-2.2,1.7-3.8,1.7c-1.8,0-3.4-0.6-4.6-1.9c-1.2-1.3-1.8-2.9-1.8-4.7
		c0-1.8,0.6-3.4,1.8-4.7c1.2-1.3,2.8-2,4.6-2c1.6,0,2.9,0.6,3.8,1.7V103.9z M334.2,113.2c0.9,0,1.7-0.3,2.3-0.8
		c0.6-0.5,0.9-1.3,0.9-2.2s-0.3-1.6-0.9-2.2c-0.6-0.5-1.4-0.8-2.3-0.8s-1.7,0.3-2.3,0.8c-0.6,0.5-0.9,1.3-0.9,2.2s0.3,1.6,0.9,2.2
		C332.5,112.9,333.2,113.2,334.2,113.2z"/>
	<path class="st12" d="M369.8,107.7h-2.7v4.6c0,1,0.8,1.2,2.7,1.1v3.5c-2.5,0.3-4.2,0-5.1-0.7c-1-0.8-1.4-2.1-1.4-4v-4.6h-2.1v-3.7
		h2.1v-2.5l3.9-1.2v3.6h2.7V107.7z"/>
	<path class="st12" d="M382.1,106.2c0.5-1.7,2.1-2.6,3.9-2.6v4.4c-1-0.2-1.8,0-2.7,0.5c-0.8,0.5-1.2,1.3-1.2,2.5v5.9h-3.9v-13h3.9
		V106.2z"/>
	<path class="st12" d="M394,102.1c-0.9-0.9-0.9-2.3,0-3.2c0.9-0.9,2.3-0.9,3.3,0c0.9,0.9,0.9,2.3,0,3.2
		C396.3,103,394.9,103,394,102.1z M393.7,116.9v-13h3.9v13H393.7z"/>
	<path class="st12" d="M406.8,116.6c-1-1-1-2.5,0-3.5c1-1,2.5-1,3.5,0s1,2.5,0,3.5C409.3,117.5,407.7,117.5,406.8,116.6z"/>
	<path class="st12" d="M430.5,105c0.9,1,1.4,2.3,1.4,4v8H428v-7.4c0-1.5-0.9-2.4-2.3-2.4c-1.5,0-2.4,0.9-2.4,2.7v7.1h-3.9v-13h3.9
		v1.2c0.8-1.1,2-1.6,3.7-1.6C428.5,103.6,429.6,104,430.5,105z"/>
	<path class="st12" d="M444,112c0.4,1.2,1.5,1.8,3.1,1.8c1.1,0,1.9-0.3,2.5-1l3.1,1.8c-1.3,1.8-3.2,2.7-5.7,2.7
		c-2.2,0-3.9-0.7-5.3-2c-1.3-1.3-2-2.9-2-4.9c0-2,0.6-3.6,1.9-4.9c1.3-1.3,3-2,5-2c1.9,0,3.5,0.7,4.7,2c1.3,1.3,1.9,2.9,1.9,4.9
		c0,0.5-0.1,1.1-0.2,1.6H444z M449.5,109.1c-0.4-1.4-1.3-2.1-2.8-2.1c-1.5,0-2.4,0.7-2.8,2.1H449.5z"/>
	<path class="st12" d="M468.7,107.7H466v4.6c0,1,0.8,1.2,2.7,1.1v3.5c-2.5,0.3-4.2,0-5.1-0.7c-1-0.8-1.4-2.1-1.4-4v-4.6H460v-3.7
		h2.1v-2.5l3.9-1.2v3.6h2.7V107.7z"/>
</g>
</svg>
