<svg xmlns="http://www.w3.org/2000/svg" width="29.704" height="19.346" viewBox="0 0 29.704 19.346">
  <g id="Group_1284" data-name="Group 1284" transform="translate(0.5 0.505)">
    <path id="Path_1382" data-name="Path 1382" d="M315.144,1.478l.223,0h6.943a1.507,1.507,0,0,1,.951.285,1.314,1.314,0,0,1,.508.9,2.338,2.338,0,0,1-.091.844q-.487,2.151-.974,4.3l-1.131,5Q320.989,15.4,320.4,18a2.381,2.381,0,0,1-1.967,1.8,1.439,1.439,0,0,1-.179.01H310.84l-7.842,0c-.033,0-.066,0-.1-.006.018-.025.046-.023.072-.025s.062,0,.093,0h7.32a1.39,1.39,0,0,1,.207.014,1.331,1.331,0,0,1-1.115-1.489.266.266,0,0,0,.01-.1,3.39,3.39,0,0,1,.1-.506q.19-.849.383-1.7c.024-.1.023-.1-.086-.105-.125,0-.249,0-.374,0-.027,0-.07.014-.074-.038a.166.166,0,0,1,.1-.017h.7c.09,0,.1-.005.12-.09s.041-.148.061-.221c.011-.043,0-.064-.049-.063s-.115,0-.172,0c-.031,0-.064,0-.086-.025a.218.218,0,0,1,.011-.14c.088-.4.181-.792.267-1.188a.185.185,0,0,0,.01-.071c.015-.1.027-.112.128-.113h1.517a1.073,1.073,0,0,0,.27-.035.378.378,0,0,0,.288-.281c.171-.619.343-1.237.513-1.857.022-.08.018-.086-.066-.086-.448,0-.9,0-1.344,0a1.057,1.057,0,0,0-.478.142c-.068.034-.134.073-.2.113-.026.015-.052.045-.084.026s-.013-.053-.012-.08c0-.074.021-.147.021-.221.037-.21.092-.416.137-.624.034-.156.07-.313.106-.469a.141.141,0,0,1,.044-.1.557.557,0,0,1,.185-.012c.1,0,.205,0,.308,0a.086.086,0,0,0,.1-.081c.092-.472.19-.942.28-1.415a2.217,2.217,0,0,0,.07-.517.542.542,0,0,0-.319-.511.115.115,0,0,1-.051-.037.142.142,0,0,1,.006-.091q.232-1.031.465-2.061c.174-.771.356-1.541.519-2.314a2.109,2.109,0,0,1,.463-.975,2.907,2.907,0,0,1,.613-.529,3,3,0,0,1,.994-.419A2.04,2.04,0,0,1,315.144,1.478Z" transform="translate(-295.074 -1.473)" fill="#037a8a" stroke="rgba(0,0,0,0)" stroke-width="1"/>
    <path id="Path_1383" data-name="Path 1383" d="M314.156,1.476a3.858,3.858,0,0,0-.494.108,3.035,3.035,0,0,0-.961.5,2.492,2.492,0,0,0-.63.7,2.127,2.127,0,0,0-.228.645q-.146.644-.29,1.29-.23,1.021-.461,2.042c-.085.374-.171.748-.257,1.121-.029.025-.059.007-.089,0a1.027,1.027,0,0,0-.741.12,1.27,1.27,0,0,0-.229.2c-.023.023-.049.062-.082.046s-.012-.06-.007-.091c.01-.059.023-.118.035-.176.007-.04-.006-.059-.047-.059-.161,0-.321,0-.482,0-.05,0-.063.034-.071.074-.038.2-.078.39-.117.585l-.355,1.775c-.019.1-.017.1.079.1h.417c.1,0,.1,0,.118-.1.088-.427.169-.855.255-1.283A1.454,1.454,0,0,1,309.6,8.8a.646.646,0,0,1,.733-.4.282.282,0,0,1,.222.266,1,1,0,0,1-.026.271q-.142.708-.284,1.416c-.009.043-.019.085.017.121l-.185.8c-.029.125-.058.251-.086.376-.028.026-.064.019-.1.019-.184,0-.368,0-.553,0a.088.088,0,0,0-.1.077q-.464,1.72-.93,3.438c-.037.136-.077.272-.109.41a.173.173,0,0,0,.127.228c.042.015.092.009.126.045a.13.13,0,0,0,.083.011c.141,0,.283,0,.423,0,.061,0,.077.009.061.073-.054.215-.1.43-.151.646q-.146.648-.289,1.3a1.576,1.576,0,0,0-.059.314c-.017.027,0,.059-.013.087a1.481,1.481,0,0,0,.12.742,1.313,1.313,0,0,0,1.009.753.024.024,0,0,1,.019.014H302c-.029,0-.057,0-.086,0l-.1,0a1.219,1.219,0,0,1-.588-.187,1.3,1.3,0,0,1-.618-.942,1.928,1.928,0,0,1,.05-.748c.226-.99.448-1.982.672-2.972q.352-1.552.7-3.105c.207-.916.416-1.831.62-2.748.046-.206.094-.411.14-.617a.14.14,0,0,1,.03-.072.319.319,0,0,1,.45.341,1.453,1.453,0,0,1-.03.192q-.14.7-.279,1.4c-.022.11-.021.112.094.112.139,0,.278,0,.417,0,.054,0,.084-.016.1-.073.114-.6.249-1.187.348-1.785a.6.6,0,0,0-.174-.574.671.671,0,0,0-.444-.158.983.983,0,0,0-.271.022.149.149,0,0,1-.071.005c-.029-.027-.015-.058-.009-.088.118-.535.241-1.07.361-1.6q.229-1.016.46-2.032c.073-.322.141-.645.221-.966a1.848,1.848,0,0,1,.48-.83,3.043,3.043,0,0,1,1.522-.863,1.3,1.3,0,0,1,.221-.025.385.385,0,0,0,.089,0c.065,0,.129,0,.194,0l7.581,0Z" transform="translate(-294.085 -1.471)" fill="#1a477f" stroke="rgba(0,0,0,0)" stroke-width="1"/>
    <path id="Path_1384" data-name="Path 1384" d="M297.962,8.418q-.14.625-.28,1.25Q297.34,11.183,297,12.7q-.334,1.477-.668,2.953c-.183.81-.371,1.619-.547,2.43a1.417,1.417,0,0,0,.223,1.183,1.314,1.314,0,0,0,.9.527.443.443,0,0,1,.047.013c-.038,0-.076.006-.114.006h-6.189a1.383,1.383,0,0,1-1.11-.475,1.327,1.327,0,0,1-.314-.837,3.591,3.591,0,0,1,.148-.932q.542-2.407,1.087-4.814.548-2.427,1.1-4.855.522-2.305,1.042-4.61a2,2,0,0,1,.669-1.071,2.945,2.945,0,0,1,1.5-.721,1.886,1.886,0,0,1,.3-.023H301.3l.05,0c.005,0,.007,0,.005.007l0,0A2.907,2.907,0,0,0,299.4,2.658a2.085,2.085,0,0,0-.317.807c-.238,1.072-.482,2.141-.723,3.212q-.136.6-.269,1.2c-.009.031-.038.033-.061.042a1.042,1.042,0,0,0-.4.282c-.016.018-.029.039-.058.033a.047.047,0,0,1-.023-.038,1.247,1.247,0,0,1,.032-.205c.007-.05-.008-.072-.059-.072-.151,0-.3,0-.453,0-.065,0-.078.041-.088.091q-.115.578-.231,1.156t-.236,1.183c-.021.1-.021.1.087.1h.381c.125,0,.125,0,.149-.119.088-.432.169-.865.256-1.3a.938.938,0,0,1,.179-.418.611.611,0,0,1,.328-.207C297.912,8.4,297.939,8.395,297.962,8.418Z" transform="translate(-289.221 -1.471)" fill="#dc212b" stroke="rgba(0,0,0,0)" stroke-width="1"/>
    <path id="Path_1385" data-name="Path 1385" d="M310.429,1.487a.068.068,0,0,0,0-.011h.084A.144.144,0,0,1,310.429,1.487Z" transform="translate(-298.295 -1.473)" fill="#d34f45" stroke="rgba(0,0,0,0)" stroke-width="1"/>
    <path id="Path_1386" data-name="Path 1386" d="M323.4,22.721c-.05.18-.1.351-.146.524-.012.043-.044.039-.073.035-.081-.014-.117.016-.136.1-.034.148-.04.147-.194.147h-.674c.017-.064.029-.122.049-.177s.009-.069-.05-.068c-.335,0-.671,0-1.006,0-.168,0-.336,0-.5,0-.049,0-.062-.009-.046-.06.043-.139.084-.279.119-.421.015-.062.041-.093.106-.08s.09-.017.107-.078q.375-1.331.754-2.661c.022-.078.022-.079-.062-.079h-.08l.159-.564c.007-.026.025-.031.049-.031h.776c.033,0,.042.01.035.042-.011.054-.018.108-.027.17.087-.035.169-.07.252-.1a1.606,1.606,0,0,1,.61-.112c.295.006.589,0,.884,0,.06,0,.066.015.05.069-.047.153-.09.307-.13.462-.013.049-.033.076-.086.065-.078-.016-.109.02-.13.1q-.369,1.314-.744,2.627c-.027.1-.027.1.07.1Z" transform="translate(-302.652 -9.103)" fill="#fff" stroke="rgba(0,0,0,0)" stroke-width="1"/>
    <path id="Path_1387" data-name="Path 1387" d="M319.5,14.094c.128-.625.254-1.238.379-1.851.152-.737.3-1.474.452-2.212.015-.073.04-.093.114-.092.573,0,1.145,0,1.718,0a1.669,1.669,0,0,1,.586.088.772.772,0,0,1,.54.725,1.717,1.717,0,0,1-.537,1.421,1.534,1.534,0,0,1-1.071.415c-.316,0-.633,0-.949,0-.053,0-.074.013-.085.068-.09.455-.184.909-.274,1.363-.011.056-.029.078-.091.077C320.026,14.092,319.767,14.094,319.5,14.094Z" transform="translate(-302.178 -5.094)" fill="#fff" stroke="rgba(0,0,0,0)" stroke-width="1"/>
    <path id="Path_1388" data-name="Path 1388" d="M314.117,23.477c-.036-.006-.072-.01-.106-.019a.194.194,0,0,1-.164-.275q.106-.394.213-.788.415-1.529.829-3.06c.015-.057.037-.073.1-.073.223,0,.445,0,.668,0,.011.1-.022.2-.022.306a2.651,2.651,0,0,1,.328-.189,1.246,1.246,0,0,1,.555-.123c.424,0,.848,0,1.272,0,.056,0,.068.01.053.066-.18.644-.355,1.29-.536,1.934a.42.42,0,0,1-.389.291,1.259,1.259,0,0,1-.208.014h-1.5c-.094,0-.094,0-.1.1a.254.254,0,0,0-.023.07c-.092.394-.2.783-.309,1.175a.12.12,0,0,0,.027.137,1.339,1.339,0,0,0,.291.009c.043,0,.059.006.043.055-.033.1-.061.211-.086.318-.01.045-.032.055-.074.055C314.69,23.477,314.4,23.477,314.117,23.477Z" transform="translate(-299.752 -9.081)" fill="#fff" stroke="rgba(0,0,0,0)" stroke-width="1"/>
    <path id="Path_1389" data-name="Path 1389" d="M327.643,22.176c.258,0,.507,0,.756,0,.066,0,.074.015.055.076-.043.134-.081.271-.116.407a.071.071,0,0,1-.082.064c-.261,0-.522,0-.784,0a.126.126,0,0,0-.126.07c-.048.081-.1.159-.161.249.14,0,.265,0,.391,0,.047,0,.065.011.072.061.025.177.057.354.086.531.015.1.049.126.146.133h.005c.053.009.124-.024.149.017s-.018.093-.031.141c-.03.106-.059.212-.09.318-.007.023-.008.053-.047.051-.206-.007-.412.015-.617-.011-.164-.021-.223-.092-.252-.253-.034-.188-.077-.374-.116-.562-.028.005-.033.029-.044.046-.13.2-.261.39-.39.586a.439.439,0,0,1-.391.212q-.37,0-.74,0c-.05,0-.06-.009-.045-.059.042-.137.08-.275.117-.414.009-.036.025-.053.064-.05.055,0,.11,0,.165,0a.32.32,0,0,0,.283-.144c.207-.3.411-.594.617-.891a.166.166,0,0,0,.009-.029h-.173c-.2,0-.393,0-.589,0-.049,0-.056-.013-.043-.057.043-.144.086-.288.124-.434.012-.045.032-.055.074-.054.261,0,.522,0,.783,0,.047,0,.068-.014.079-.058.033-.128.068-.255.107-.379.017-.054.011-.07-.05-.069-.256,0-.513,0-.769,0-.062,0-.064-.017-.049-.068.041-.134.08-.27.116-.407a.08.08,0,0,1,.092-.071q1.236,0,2.473,0c.064,0,.069.018.052.073-.042.137-.081.275-.117.414a.066.066,0,0,1-.078.059c-.237,0-.474,0-.712,0a.066.066,0,0,0-.078.059C327.731,21.876,327.687,22.02,327.643,22.176Z" transform="translate(-304.643 -9.882)" fill="#fff" stroke="rgba(0,0,0,0)" stroke-width="1"/>
    <path id="Path_1390" data-name="Path 1390" d="M331.482,14.422l.491-1.145c.071-.165.142-.329.211-.494a.081.081,0,0,1,.088-.062c.225,0,.45,0,.674,0,.008.029-.009.046-.018.064q-.781,1.586-1.564,3.171a3.3,3.3,0,0,1-.77,1.062,1.293,1.293,0,0,1-.772.308c-.057,0-.114.006-.172.008-.034,0-.054-.009-.047-.05.019-.118.035-.236.052-.355a.052.052,0,0,1,.035-.049,1.448,1.448,0,0,0,.7-.636,6.7,6.7,0,0,0,.383-.729.153.153,0,0,0,.01-.084q-.039-.483-.077-.966t-.081-.973c-.018-.227-.035-.453-.057-.68-.006-.065,0-.091.079-.09.237,0,.474,0,.711,0,.062,0,.073.018.074.076.011.541.026,1.082.041,1.623Z" transform="translate(-306.499 -6.285)" fill="#fff" stroke="rgba(0,0,0,0)" stroke-width="1"/>
    <path id="Path_1391" data-name="Path 1391" d="M328.267,12.978c-.064.29-.125.573-.187.855-.108.493-.218.985-.324,1.477-.014.066-.037.088-.106.084-.208-.011-.417-.016-.625-.017a.17.17,0,0,1-.162-.081c-.033-.054-.066-.062-.128-.035a1.666,1.666,0,0,1-.617.147.629.629,0,0,1-.691-.616,2.023,2.023,0,0,1,.428-1.458.938.938,0,0,1,1.274-.193c.049.033.089.1.148.089a.305.305,0,0,0,.142-.093.624.624,0,0,1,.422-.124C327.979,13,328.117,12.99,328.267,12.978Z" transform="translate(-304.709 -6.393)" fill="#fff" stroke="rgba(0,0,0,0)" stroke-width="1"/>
    <path id="Path_1392" data-name="Path 1392" d="M316.255,15.239c-.044,0-.06-.009-.049-.062.108-.529.211-1.059.316-1.588a.59.59,0,0,0,.006-.165.25.25,0,0,0-.243-.246.65.65,0,0,0-.732.581q-.14.7-.276,1.4c-.011.057-.03.082-.095.08-.189-.006-.378,0-.576,0,.034-.177.068-.349.1-.521.132-.661.265-1.321.4-1.981.01-.05.026-.067.078-.066.172,0,.345,0,.517,0,.046,0,.057.01.045.057-.023.092-.038.185-.056.279.031.009.039-.021.054-.036a1.01,1.01,0,0,1,1.077-.322.024.024,0,0,0,.01,0,.566.566,0,0,1,.386.462,1.234,1.234,0,0,1-.027.434q-.164.818-.327,1.636c-.009.044-.023.058-.069.058C316.614,15.235,316.434,15.238,316.255,15.239Z" transform="translate(-300.083 -6.235)" fill="#fff" stroke="rgba(0,0,0,0)" stroke-width="1"/>
    <path id="Path_1393" data-name="Path 1393" d="M318.1,24.891c-.038.137-.074.268-.109.4-.007.027-.025.031-.049.031-.3,0-.608.005-.913,0a.279.279,0,0,1-.289-.315c.007-.338.022-.675.035-1.012.005-.141.013-.283.017-.424,0-.04.008-.059.056-.058q.312,0,.625,0c.046,0,.056.014.052.058-.007.072-.006.144-.011.215,0,.035.011.049.045.045a.092.092,0,0,1,.022,0c.244,0,.246,0,.311-.233a.078.078,0,0,1,.094-.068c.16,0,.321,0,.482,0,.042,0,.054.009.041.051-.026.087-.047.176-.073.263a.511.511,0,0,1-.5.375c-.122,0-.244,0-.366,0-.05,0-.066.011-.065.063,0,.156,0,.311,0,.467a.118.118,0,0,0,.1.131,1.449,1.449,0,0,0,.315.014C317.974,24.892,318.031,24.891,318.1,24.891Z" transform="translate(-300.995 -10.901)" fill="#fff" stroke="rgba(0,0,0,0)" stroke-width="1"/>
    <path id="Path_1394" data-name="Path 1394" d="M327.642,19.239c.113,0,.225,0,.338,0,.054,0,.071.017.074.066.005.074.015.148.023.221.009.093.03.116.123.125h.043c.114,0,.114,0,.084.108s-.065.23-.1.344c-.007.023-.007.053-.047.052-.235-.007-.47.016-.7-.012a.229.229,0,0,1-.209-.228c-.012-.206-.018-.412-.03-.617,0-.046.01-.062.058-.061C327.412,19.241,327.527,19.239,327.642,19.239Z" transform="translate(-305.488 -9.073)" fill="#fff" stroke="rgba(0,0,0,0)" stroke-width="1"/>
    <path id="Path_1395" data-name="Path 1395" d="M315.478,24.883c-.087-.008-.066-.069-.053-.117.045-.173.093-.345.141-.517l.191-.689s.007,0,.011,0c-.023.17-.07.335-.106.5C315.6,24.335,315.539,24.609,315.478,24.883Z" transform="translate(-300.428 -10.921)" fill="#1c4880" stroke="rgba(0,0,0,0)" stroke-width="1"/>
    <path id="Path_1396" data-name="Path 1396" d="M316.025,23.518h-.007a.05.05,0,0,1,.023-.059C316.038,23.48,316.046,23.5,316.025,23.518Z" transform="translate(-300.686 -10.879)" fill="#1a4980" stroke="rgba(0,0,0,0)" stroke-width="1"/>
    <path id="Path_1397" data-name="Path 1397" d="M314.425,30.81c0-.029-.01-.061.013-.087C314.434,30.752,314.448,30.784,314.425,30.81Z" transform="translate(-300.005 -13.988)" fill="#517198" stroke="rgba(0,0,0,0)" stroke-width="1"/>
    <path id="Path_1398" data-name="Path 1398" d="M310.834,22.04c-.167,0-.325,0-.483,0-.042,0-.053-.008-.04-.053.04-.137.077-.276.112-.414a.062.062,0,0,1,.072-.057q1.063,0,2.127,0c.049,0,.063.01.048.061q-.059.2-.11.407c-.011.046-.034.057-.079.057-.261,0-.522,0-.783,0-.043,0-.062.01-.073.055-.033.132-.069.263-.108.394-.013.043-.006.057.043.057.249,0,.5,0,.747,0,.054,0,.077,0,.056.069-.041.129-.076.261-.106.394-.013.053-.038.065-.089.065-.244,0-.489,0-.733,0-.057,0-.082.013-.1.072-.059.232-.124.461-.187.692-.026.093.007.142.1.149.078,0,.158,0,.237,0,.175,0,.35,0,.525,0,.045,0,.052.013.04.051-.037.131-.075.262-.109.394-.009.035-.024.045-.058.045-.45,0-.9,0-1.351,0a.249.249,0,0,1-.268-.331c.057-.293.153-.576.227-.865a1.23,1.23,0,0,1,.038-.138c.019-.05.009-.066-.047-.065-.144,0-.288,0-.431,0-.053,0-.066-.011-.05-.065.04-.135.076-.272.11-.408a.062.062,0,0,1,.074-.054c.148,0,.3,0,.445,0,.041,0,.063-.006.074-.053C310.748,22.343,310.791,22.2,310.834,22.04Z" transform="translate(-298.113 -10.048)" fill="#fff" stroke="rgba(0,0,0,0)" stroke-width="1"/>
    <path id="Path_1399" data-name="Path 1399" d="M310.8,15.3a1.079,1.079,0,0,1-.66-.18.887.887,0,0,1-.375-.775,1.827,1.827,0,0,1,.417-1.209,1.421,1.421,0,0,1,1.478-.487.843.843,0,0,1,.681.774,1.8,1.8,0,0,1-.388,1.336A1.416,1.416,0,0,1,310.8,15.3Z" transform="translate(-298.01 -6.234)" fill="#fff" stroke="rgba(0,0,0,0)" stroke-width="1"/>
    <path id="Path_1400" data-name="Path 1400" d="M303.382,13.182a.6.6,0,0,0-.5.415,3.359,3.359,0,0,0-.13.572c-.07.339-.136.68-.2,1.02-.007.035-.019.047-.056.047q-.28,0-.561,0c-.039,0-.049-.009-.041-.049q.233-1.156.464-2.312c.01-.054.025-.108.031-.162s.024-.045.057-.045c.177,0,.355,0,.532,0,.052,0,.053.022.045.061-.015.077-.029.154-.043.232,0,.016-.02.038.017.032a1.105,1.105,0,0,1,.514-.352,1.154,1.154,0,0,1,.54-.009.572.572,0,0,1,.454.562,2.425,2.425,0,0,1-.078.552c-.093.471-.189.941-.281,1.412-.012.061-.033.08-.1.078-.17-.005-.34,0-.51,0-.052,0-.065-.013-.055-.064.089-.439.178-.879.265-1.32a1.387,1.387,0,0,0,.056-.425.249.249,0,0,0-.259-.252A.491.491,0,0,0,303.382,13.182Z" transform="translate(-294.641 -6.235)" fill="#fff" stroke="rgba(0,0,0,0)" stroke-width="1"/>
    <path id="Path_1401" data-name="Path 1401" d="M306.964,15.283c.065-.3.128-.6.191-.895.113-.527.228-1.054.338-1.582.015-.069.041-.09.111-.088.184.006.369,0,.553,0,.049,0,.061.01.05.061q-.265,1.225-.528,2.45c-.006.027-.007.055-.05.054C307.41,15.282,307.189,15.283,306.964,15.283Z" transform="translate(-296.813 -6.283)" fill="#fff" stroke="rgba(0,0,0,0)" stroke-width="1"/>
    <path id="Path_1402" data-name="Path 1402" d="M312.436,19.283l-.175.312h.491c.158,0,.316,0,.474,0,.05,0,.055.014.043.057-.035.124-.069.248-.1.374-.011.042-.03.054-.073.054-.364,0-.728,0-1.092,0a.115.115,0,0,0-.108.051.565.565,0,0,1-.51.252c-.184-.007-.368,0-.553,0-.049,0-.056-.011-.042-.057.039-.133.074-.267.109-.4.009-.035.025-.053.064-.048a.537.537,0,0,0,.086,0,.254.254,0,0,0,.224-.129c.086-.143.185-.279.277-.418.015-.022.026-.044.059-.043Z" transform="translate(-298.448 -9.092)" fill="#fff" stroke="rgba(0,0,0,0)" stroke-width="1"/>
    <path id="Path_1403" data-name="Path 1403" d="M308.444,11.712c-.1,0-.206,0-.309,0-.041,0-.048-.013-.041-.049.039-.177.077-.355.114-.533.007-.033.023-.042.054-.042.206,0,.412,0,.618,0,.04,0,.049.011.04.05q-.058.262-.112.525c-.008.038-.025.049-.063.048C308.645,11.71,308.544,11.712,308.444,11.712Z" transform="translate(-297.295 -5.586)" fill="#fff" stroke="rgba(0,0,0,0)" stroke-width="1"/>
    <path id="Path_1404" data-name="Path 1404" d="M296.353,9.673c.127,0,.254,0,.38,0,.054,0,.072.01.06.067q-.162.771-.321,1.544-.138.67-.272,1.341a.609.609,0,0,0,.013.278.468.468,0,0,0,.361.36,1.134,1.134,0,0,0,.789-.085.946.946,0,0,0,.5-.715c.186-.91.375-1.819.562-2.73.01-.047.029-.06.076-.059q.384,0,.769,0c.052,0,.064.01.052.065q-.294,1.4-.582,2.806a1.8,1.8,0,0,1-1.566,1.483,2.635,2.635,0,0,1-1.068-.031,1.023,1.023,0,0,1-.8-.735,1.629,1.629,0,0,1,.013-.768q.286-1.375.57-2.751c.01-.05.026-.072.082-.069C296.1,9.675,296.226,9.673,296.353,9.673Z" transform="translate(-291.807 -4.98)" fill="#fff" stroke="rgba(0,0,0,0)" stroke-width="1"/>
    <path id="Path_1405" data-name="Path 1405" d="M303.8,13.26c-.005.013-.021.03-.026.024a.048.048,0,0,1,.009-.056C303.786,13.239,303.784,13.254,303.8,13.26Z" transform="translate(-295.445 -6.502)" fill="#e12e4b" stroke="rgba(0,0,0,0)" stroke-width="1"/>
    <path id="Path_1406" data-name="Path 1406" d="M323.814,22.306c-.053.187-.1.363-.152.54-.006.022-.013.039-.04.043a2.3,2.3,0,0,0-.652.207c-.016-.02,0-.038,0-.054.061-.226.124-.451.184-.677a.067.067,0,0,1,.077-.06C323.423,22.307,323.614,22.306,323.814,22.306Z" transform="translate(-303.658 -10.385)" fill="#057a8a" stroke="rgba(0,0,0,0)" stroke-width="1"/>
    <path id="Path_1407" data-name="Path 1407" d="M323.508,21.11l.172-.6c.045-.158.045-.158.21-.158.141,0,.282,0,.423,0,.041,0,.053.005.039.051-.049.162-.093.326-.139.489-.006.023-.012.044-.044.048A3.419,3.419,0,0,0,323.508,21.11Z" transform="translate(-303.892 -9.548)" fill="#057a8a" stroke="rgba(0,0,0,0)" stroke-width="1"/>
    <path id="Path_1408" data-name="Path 1408" d="M322.82,24.841c-.093,0-.186,0-.279,0-.037,0-.044-.008-.033-.045.049-.164.1-.33.141-.495.009-.033.025-.039.055-.039q.276,0,.552,0c.038,0,.044.01.033.045-.049.165-.1.33-.141.5-.009.033-.025.039-.055.039Z" transform="translate(-303.462 -11.223)" fill="#057a8a" stroke="rgba(0,0,0,0)" stroke-width="1"/>
    <path id="Path_1409" data-name="Path 1409" d="M322.291,12.4c-.144,0-.287,0-.431,0-.05,0-.056-.018-.047-.059q.115-.554.228-1.109c.006-.029.015-.049.05-.047a8.187,8.187,0,0,1,.933.022.383.383,0,0,1,.364.277.743.743,0,0,1-.68.914c-.139.005-.278,0-.417,0Z" transform="translate(-303.165 -5.627)" fill="#057a8a" stroke="rgba(0,0,0,0)" stroke-width="1"/>
    <path id="Path_1410" data-name="Path 1410" d="M317.069,21.711c.191,0,.382,0,.574,0,.053,0,.066.011.048.065-.026.079-.043.161-.064.242a.107.107,0,0,1-.113.09H316.38c-.04,0-.049-.011-.037-.05.029-.1.055-.193.078-.29a.061.061,0,0,1,.073-.056C316.686,21.712,316.877,21.711,317.069,21.711Z" transform="translate(-300.824 -10.131)" fill="#057a8a" stroke="rgba(0,0,0,0)" stroke-width="1"/>
    <path id="Path_1411" data-name="Path 1411" d="M316.651,20.778c.051-.18.1-.339.141-.5.009-.03.027-.033.053-.033h1.179c.037,0,.045.009.034.045-.027.089-.054.179-.074.269-.01.048-.03.061-.077.06-.141,0-.283,0-.424,0A1.436,1.436,0,0,0,316.651,20.778Z" transform="translate(-300.958 -9.504)" fill="#057a8a" stroke="rgba(0,0,0,0)" stroke-width="1"/>
    <path id="Path_1412" data-name="Path 1412" d="M327.769,14.42a1.149,1.149,0,0,1-.338.791.505.505,0,0,1-.188.117.278.278,0,0,1-.342-.121.511.511,0,0,1-.08-.257,1.1,1.1,0,0,1,.381-.921.422.422,0,0,1,.124-.072.28.28,0,0,1,.365.124A.629.629,0,0,1,327.769,14.42Z" transform="translate(-305.309 -6.803)" fill="#057a8a" stroke="rgba(0,0,0,0)" stroke-width="1"/>
    <path id="Path_1413" data-name="Path 1413" d="M312.177,14.115a1.418,1.418,0,0,1-.233.769.615.615,0,0,1-.646.261.387.387,0,0,1-.341-.363,1.339,1.339,0,0,1,.271-.963.6.6,0,0,1,.632-.208.4.4,0,0,1,.316.387C312.179,14.037,312.177,14.076,312.177,14.115Z" transform="translate(-298.519 -6.658)" fill="#1c477f" stroke="rgba(0,0,0,0)" stroke-width="1"/>
  </g>
</svg>
